<?xml version="1.0" encoding="UTF-8" standalone="no"?>
<svg
   xmlns:dc="http://purl.org/dc/elements/1.1/"
   xmlns:cc="http://creativecommons.org/ns#"
   xmlns:rdf="http://www.w3.org/1999/02/22-rdf-syntax-ns#"
   xmlns:svg="http://www.w3.org/2000/svg"
   xmlns="http://www.w3.org/2000/svg"
   xmlns:xlink="http://www.w3.org/1999/xlink"
   xmlns:sodipodi="http://sodipodi.sourceforge.net/DTD/sodipodi-0.dtd"
   xmlns:inkscape="http://www.inkscape.org/namespaces/inkscape"
   inkscape:version="1.0beta2 (2b71d25d45, 2019-12-03)"
   sodipodi:docname="yast-device-tree.svg"
   id="svg59"
   version="1.1"
   width="32"
   height="32">
  <metadata
     id="metadata65">
    <rdf:RDF>
      <cc:Work
         rdf:about="">
        <dc:format>image/svg+xml</dc:format>
        <dc:type
           rdf:resource="http://purl.org/dc/dcmitype/StillImage" />
      </cc:Work>
    </rdf:RDF>
  </metadata>
  <defs
     id="defs63" />
  <sodipodi:namedview
     inkscape:current-layer="svg59"
     inkscape:window-maximized="1"
     inkscape:window-y="22"
     inkscape:window-x="0"
     inkscape:cy="16"
     inkscape:cx="16.086331"
     inkscape:zoom="17.375"
     showgrid="false"
     id="namedview61"
     inkscape:window-height="1026"
     inkscape:window-width="1920"
     inkscape:pageshadow="2"
     inkscape:pageopacity="0"
     guidetolerance="10"
     gridtolerance="10"
     objecttolerance="10"
     borderopacity="1"
     inkscape:document-rotation="0"
     bordercolor="#666666"
     pagecolor="#ffffff" />
  <linearGradient
     gradientTransform="matrix(0.79042723,0,0,0.79042723,3.0028225,2.3670329)"
     y2="11"
     y1="19"
     x2="11"
     x1="11"
     gradientUnits="userSpaceOnUse"
     id="h">
    <stop
       id="stop2"
       stop-color="#8e44ad"
       offset="0" />
    <stop
       id="stop4"
       stop-color="#b08bc4"
       offset="1" />
  </linearGradient>
  <linearGradient
     gradientTransform="matrix(0.79042723,0,0,0.79042723,3.0028225,2.3670329)"
     y2="2"
     y1="10"
     x2="16"
     x1="16"
     gradientUnits="userSpaceOnUse"
     id="f">
    <stop
       id="stop7"
       stop-color="#da4453"
       offset="0" />
    <stop
       id="stop9"
       stop-color="#e4848f"
       offset="1" />
  </linearGradient>
  <linearGradient
     gradientTransform="matrix(0.79042723,0,0,0.79042723,3.0028225,2.3670329)"
     y2="20"
     y1="28"
     x2="7"
     x1="7"
     gradientUnits="userSpaceOnUse"
     id="k">
    <stop
       id="stop12"
       stop-color="#208c4e"
       offset="0" />
    <stop
       id="stop14"
       stop-color="#6dbd7f"
       offset="1" />
  </linearGradient>
  <linearGradient
     gradientTransform="translate(4.6027639,1.001658)"
     y2="2"
     y1="30"
     x2="0"
     gradientUnits="userSpaceOnUse"
     id="b">
    <stop
       id="stop17"
       stop-color="#c3c8cd"
       offset="0" />
    <stop
       id="stop19"
       stop-color="#e4e6e8"
       offset="1" />
  </linearGradient>
  <linearGradient
     id="a">
    <stop
       id="stop22"
       stop-color="#292c2f"
       offset="0" />
    <stop
       id="stop24"
       stop-opacity="0"
       offset="1" />
  </linearGradient>
  <linearGradient
     y2="17"
     y1="9"
     xlink:href="#a"
     x2="20"
     x1="12"
     gradientUnits="userSpaceOnUse"
     id="c" />
  <linearGradient
     y2="25"
     y1="18"
     xlink:href="#a"
     x2="24"
     x1="17"
     gradientUnits="userSpaceOnUse"
     id="d" />
  <linearGradient
     y2="35"
     y1="27"
     xlink:href="#a"
     x2="29"
     x1="21"
     gradientUnits="userSpaceOnUse"
     id="e" />
  <linearGradient
     y2="25"
     y1="18"
     xlink:href="#a"
     x2="14"
     x1="7"
     gradientUnits="userSpaceOnUse"
     id="g" />
  <linearGradient
     gradientTransform="matrix(0.79042723,0,0,0.79042723,3.0028225,2.3670329)"
     y2="35"
     y1="27"
     xlink:href="#a"
     x2="11"
     x1="3"
     gradientUnits="userSpaceOnUse"
     id="i" />
  <linearGradient
     gradientTransform="matrix(0.79042723,0,0,0.79042723,3.0028225,2.3670329)"
     y2="35"
     y1="27"
     xlink:href="#a"
     x2="20"
     x1="12"
     gradientUnits="userSpaceOnUse"
     id="j" />
  <circle
     r="14.563748"
     cy="16"
     cx="16"
     id="path890"
     style="fill:#dfe8f1;stroke:none;stroke-width:0.675423;stroke-miterlimit:4;stroke-dasharray:none;stroke-opacity:0.789805;fill-opacity:1" />
  <path
     style="stroke-width:0.790427"
     inkscape:connector-curvature="0"
     id="path35"
     fill="#7f8c8d"
     d="m 15.403044,8.3821842 -3.952135,3.1617088 -0.148601,0.308267 v 4.55286 l -3.8043258,3.043145 0.494017,0.616533 3.7055228,-2.964101 3.705522,2.964101 0.493228,-0.616533 -3.803537,-3.043145 v -4.363158 l 3.556923,-2.8455378 3.556923,2.8455378 v 4.55286 l 0.1486,0.308267 3.952136,3.161709 0.494017,-0.616533 -3.804326,-3.043145 V 11.85216 L 19.848407,11.543893 15.896272,8.3821842 Z" />
  <rect
     style="fill:#da4453;stroke-width:0.790427;fill-opacity:1"
     id="rect43"
     y="3.9478874"
     x="12.48795"
     width="6.3234181"
     rx="0.79042727"
     height="6.3234181"
     fill="url(#f)" />
  <path
     inkscape:connector-curvature="0"
     style="fill:#b176c9;stroke-width:0.790427;stroke:none;stroke-opacity:0.789805;fill-opacity:1"
     id="path47"
     fill="url(#h)"
     d="m 17.230512,11.061732 h 4.742564 c 0.437897,0 0.790427,0.352531 0.790427,0.790428 v 4.742562 c 0,0.437898 -0.35253,0.790427 -0.790427,0.790427 h -4.742564 c -0.437896,0 -0.790427,-0.352529 -0.790427,-0.790427 V 11.85216 c 0,-0.437897 0.352531,-0.790428 0.790427,-0.790428 z m -7.904272,0 h 4.742564 c 0.437896,0 0.790427,0.352531 0.790427,0.790428 v 4.742562 c 0,0.437898 -0.352531,0.790427 -0.790427,0.790427 H 9.32624 c -0.4378963,0 -0.7904268,-0.352529 -0.7904268,-0.790427 V 11.85216 c 0,-0.437897 0.3525305,-0.790428 0.7904268,-0.790428 z" />
  <path
     inkscape:connector-curvature="0"
     style="fill:#17954d;stroke-width:0.790427;fill-opacity:1"
     id="path53"
     fill="url(#k)"
     d="m 6.1645315,18.175577 h 4.7425635 c 0.437896,0 0.790427,0.352531 0.790427,0.790427 v 4.742564 c 0,0.437897 -0.352531,0.790427 -0.790427,0.790427 H 6.1645315 c -0.4378967,0 -0.7904273,-0.35253 -0.7904273,-0.790427 v -4.742564 c 0,-0.437896 0.3525306,-0.790427 0.7904273,-0.790427 z m 7.1138455,0 h 4.742562 c 0.437898,0 0.790428,0.352531 0.790428,0.790427 v 4.742564 c 0,0.437897 -0.35253,0.790427 -0.790428,0.790427 h -4.742562 c -0.437898,0 -0.790427,-0.35253 -0.790427,-0.790427 v -4.742564 c 0,-0.437896 0.352529,-0.790427 0.790427,-0.790427 z m 7.113844,0 h 4.742564 c 0.437897,0 0.790427,0.352531 0.790427,0.790427 v 4.742564 c 0,0.437897 -0.35253,0.790427 -0.790427,0.790427 h -4.742564 c -0.437896,0 -0.790427,-0.35253 -0.790427,-0.790427 v -4.742564 c 0,-0.437896 0.352531,-0.790427 0.790427,-0.790427 z" />
</svg>
