<?xml version="1.0" encoding="UTF-8" standalone="no"?>
<svg
   xmlns:dc="http://purl.org/dc/elements/1.1/"
   xmlns:cc="http://creativecommons.org/ns#"
   xmlns:rdf="http://www.w3.org/1999/02/22-rdf-syntax-ns#"
   xmlns:svg="http://www.w3.org/2000/svg"
   xmlns="http://www.w3.org/2000/svg"
   xmlns:xlink="http://www.w3.org/1999/xlink"
   xmlns:sodipodi="http://sodipodi.sourceforge.net/DTD/sodipodi-0.dtd"
   xmlns:inkscape="http://www.inkscape.org/namespaces/inkscape"
   inkscape:version="1.0beta2 (2b71d25d45, 2019-12-03)"
   sodipodi:docname="kaccess.svg"
   id="svg20"
   height="32"
   version="1.1"
   width="32">
  <sodipodi:namedview
     inkscape:current-layer="layer1"
     inkscape:window-maximized="1"
     inkscape:window-y="22"
     inkscape:window-x="0"
     inkscape:cy="16"
     inkscape:cx="5.8129496"
     inkscape:zoom="17.375"
     showgrid="false"
     id="namedview22"
     inkscape:window-height="1026"
     inkscape:window-width="1920"
     inkscape:pageshadow="2"
     inkscape:pageopacity="0"
     guidetolerance="10"
     gridtolerance="10"
     objecttolerance="10"
     borderopacity="1"
     inkscape:document-rotation="0"
     bordercolor="#666666"
     pagecolor="#ffffff" />
  <defs
     id="defs5455">
    <linearGradient
       gradientUnits="userSpaceOnUse"
       x2="23.00004"
       y2="23"
       x1="9"
       y1="8.999974"
       id="linearGradient4216"
       xlink:href="#linearGradient4410"
       inkscape:collect="always" />
    <linearGradient
       id="linearGradient4410"
       inkscape:collect="always">
      <stop
         id="stop4412"
         style="stop-color:#383e51" />
      <stop
         id="stop4414"
         style="stop-color:#655c6f;stop-opacity:0"
         offset="1" />
    </linearGradient>
  </defs>
  <metadata
     id="metadata5458">
    <rdf:RDF>
      <cc:Work
         rdf:about="">
        <dc:format>image/svg+xml</dc:format>
        <dc:type
           rdf:resource="http://purl.org/dc/dcmitype/StillImage" />
      </cc:Work>
    </rdf:RDF>
  </metadata>
  <g
     transform="matrix(1 0 0 1 -384.57143 -515.798)"
     id="layer1"
     inkscape:groupmode="layer"
     inkscape:label="Capa 1">
    <rect
       id="rect4130"
       style="fill:#6d9ed9;fill-opacity:1"
       height="28.00003"
       rx="14.00001"
       y="517.79797"
       x="386.57144"
       width="28.00001" />
    <path
       transform="matrix(1 0 0 1 384.57143 515.798)"
       d="M 17.59375 12.984375 L 16 15.027344 L 17.982422 16.171875 C 17.178512 16.54851 15.777724 17.234569 19 18 C 19.339723 18.0807 18.93686 18.679305 18.849609 19 L 19 19 L 21.703125 21.703125 L 21.3125 23 L 25.025391 26.712891 C 26.168745 25.749763 27.14427 24.601231 27.929688 23.320312 L 17.59375 12.984375 z M 16 14 L 15.917969 14.113281 C 16.043358 14.142621 16.162731 14.185803 16.283203 14.226562 L 16 14 z M 11.621094 20.128906 L 11 21 L 19.535156 29.535156 C 21.035997 29.146602 22.440446 28.52717 23.699219 27.699219 L 17.283203 21.283203 C 16.636156 21.732906 15.851083 22 15 22 C 13.569615 22 12.327895 21.251894 11.621094 20.128906 z "
       id="path4190"
       style="fill:url(#linearGradient4216);opacity:0.2;fill-rule:evenodd" />
    <path
       d="m 401.57145,524.798 c -0.831,0 -1.5,0.669 -1.5,1.5 0,0.831 0.669,1.5 1.5,1.5 0.831,0 1.5,-0.669 1.5,-1.5 0,-0.831 -0.669,-1.5 -1.5,-1.5 z m -1.16602,3.31445 -1.78906,5.98047 c -0.009,0.0207 -0.0111,0.0443 -0.0176,0.0664 l -0.0273,0.10351 0.006,0.002 c -8.7e-4,0.0114 -0.006,0.0215 -0.006,0.0332 0,0.277 0.223,0.5 0.5,0.5 l 1.5,0 2,0 1,0 2.30859,4 0.69141,-0.39844 -1,-4.60156 -3.69922,-0.69922 0.0527,-0.75976 3.64649,1.45898 -3.60352,-2.88086 0.20313,-2.11523 -1.76563,-0.68946 z m -0.83398,0.68555 c -2.77,0 -5,2.23 -5,5 0,2.77 2.23,5 5,5 1.12807,0 2.15745,-0.38215 2.99219,-1.00781 l -0.71875,-0.71875 c -0.64444,0.45127 -1.42197,0.72656 -2.27344,0.72656 -2.216,0 -4,-1.784 -4,-4 0,-2.216 1.784,-4 4,-4 l 0,-1 z"
       id="rect4137"
       style="fill:#edf2f8;fill-opacity:1"
       inkscape:connector-curvature="0" />
  </g>
</svg>
