<?xml version="1.0" encoding="UTF-8" standalone="no"?>
<svg
   xmlns:dc="http://purl.org/dc/elements/1.1/"
   xmlns:cc="http://creativecommons.org/ns#"
   xmlns:rdf="http://www.w3.org/1999/02/22-rdf-syntax-ns#"
   xmlns:svg="http://www.w3.org/2000/svg"
   xmlns="http://www.w3.org/2000/svg"
   xmlns:xlink="http://www.w3.org/1999/xlink"
   xmlns:sodipodi="http://sodipodi.sourceforge.net/DTD/sodipodi-0.dtd"
   xmlns:inkscape="http://www.inkscape.org/namespaces/inkscape"
   inkscape:version="1.0beta2 (2b71d25d45, 2019-12-03)"
   sodipodi:docname="yast-messages.svg"
   id="svg46"
   version="1.1"
   width="32"
   height="32">
  <metadata
     id="metadata52">
    <rdf:RDF>
      <cc:Work
         rdf:about="">
        <dc:format>image/svg+xml</dc:format>
        <dc:type
           rdf:resource="http://purl.org/dc/dcmitype/StillImage" />
      </cc:Work>
    </rdf:RDF>
  </metadata>
  <defs
     id="defs50" />
  <sodipodi:namedview
     inkscape:current-layer="svg46"
     inkscape:window-maximized="1"
     inkscape:window-y="22"
     inkscape:window-x="0"
     inkscape:cy="16"
     inkscape:cx="16.086331"
     inkscape:zoom="17.375"
     showgrid="false"
     id="namedview48"
     inkscape:window-height="1026"
     inkscape:window-width="1920"
     inkscape:pageshadow="2"
     inkscape:pageopacity="0"
     guidetolerance="10"
     gridtolerance="10"
     objecttolerance="10"
     borderopacity="1"
     inkscape:document-rotation="0"
     bordercolor="#666666"
     pagecolor="#ffffff" />
  <linearGradient
     gradientTransform="matrix(0.9522255,0,0,0.92897089,0.764392,1.1364658)"
     y2="9"
     y1="27"
     x2="2"
     x1="2"
     gradientUnits="userSpaceOnUse"
     id="f">
    <stop
       id="stop2"
       stop-color="#31363b"
       offset="0" />
    <stop
       id="stop4"
       stop-color="#4f575f"
       offset="1" />
  </linearGradient>
  <linearGradient
     id="a">
    <stop
       id="stop7"
       stop-color="#292c2f"
       offset="0" />
    <stop
       id="stop9"
       stop-opacity="0"
       offset="1" />
  </linearGradient>
  <radialGradient
     xlink:href="#a"
     r="9.5"
     gradientUnits="userSpaceOnUse"
     gradientTransform="matrix(0,0.29335972,-1.8042388,-4.6448544e-5,4.4733103,5.9764041)"
     cy="1"
     cx="12"
     id="e" />
  <radialGradient
     xlink:href="#a"
     r="14.5"
     gradientUnits="userSpaceOnUse"
     gradientTransform="matrix(0,1.2813388,-2.1671319,0,14.58785,9.7210858)"
     cy="5.5"
     cx="2"
     id="d" />
  <linearGradient
     y2="502.655"
     y1="543.798"
     x2="0"
     gradientUnits="userSpaceOnUse"
     gradientTransform="matrix(0.63482017,0,0,0.59006373,-243.36813,-293.60742)"
     id="b">
    <stop
       id="stop14"
       stop-color="#c6cdd1"
       offset="0" />
    <stop
       id="stop16"
       stop-color="#e0e5e7"
       offset="1" />
  </linearGradient>
  <linearGradient
     gradientTransform="matrix(0.9522255,0,0,0.92897089,0.764392,1.1364658)"
     y2="25"
     y1="10"
     x2="22"
     x1="7"
     gradientUnits="userSpaceOnUse"
     id="c">
    <stop
       id="stop19"
       offset="0" />
    <stop
       id="stop21"
       stop-opacity="0"
       offset="1" />
  </linearGradient>
  <path
     inkscape:connector-curvature="0"
     style="fill:url(#b);stroke-width:0.940526"
     id="path24"
     fill="url(#b)"
     d="M 0.764392,2.9944076 H 31.235608 V 29.005592 H 0.764392 Z" />
  <path
     inkscape:connector-curvature="0"
     style="fill:url(#c);stroke-width:0.940526"
     id="path26"
     opacity=".2"
     fill-rule="evenodd"
     fill="url(#c)"
     d="M 1.7166175,27.147651 30.283382,8.5682329 31.235608,9.4972038 V 29.005592 H 3.6210685 Z" />
  <path
     style="stroke-width:0.940526"
     inkscape:connector-curvature="0"
     id="path28"
     fill="#566069"
     d="M 0.764392,2.9944076 H 31.235608 V 6.7102911 H 0.764392 Z" />
  <path
     style="stroke-width:0.940526;fill:#738fb3;fill-opacity:1"
     inkscape:connector-curvature="0"
     id="path30"
     fill="#3daee9"
     d="M 0.764392,6.7102911 H 31.235608 V 7.639262 H 0.764392 Z" />
  <path
     style="stroke-width:0.940526"
     inkscape:connector-curvature="0"
     id="path32"
     fill="#eff0f1"
     d="M 1.7166175,8.5682329 H 30.283382 V 27.147651 H 1.7166175 Z" />
  <rect
     style="stroke-width:0.940526"
     id="rect34"
     y="3.9233785"
     x="28.378931"
     width="1.904451"
     rx="0.95222551"
     height="1.8579417"
     fill="#eff0f1" />
  <path
     inkscape:connector-curvature="0"
     style="fill:url(#d);stroke-width:0.940526"
     id="path36"
     opacity=".2"
     fill="url(#d)"
     d="m 2.668843,26.21868 0.9522255,0.928971 H 30.283382 V 13.213087 l -0.952225,-0.928971 z" />
  <path
     style="stroke-width:0.940526"
     inkscape:connector-curvature="0"
     id="path38"
     fill="#fcfcfc"
     d="M 2.668843,12.284116 H 29.331157 V 26.21868 H 2.668843 Z" />
  <path
     inkscape:connector-curvature="0"
     style="fill:url(#e);stroke-width:0.940526"
     id="path40"
     opacity=".2"
     fill="url(#e)"
     d="m 2.668843,10.426175 1.904451,1.857941 H 19.808902 V 10.426175 L 18.856676,9.4972038 Z" />
  <path
     style="stroke-width:0.940526"
     inkscape:connector-curvature="0"
     id="path42"
     fill="#fcfcfc"
     d="M 2.668843,9.4972038 H 19.808902 V 10.426175 H 2.668843 Z" />
  <path
     inkscape:connector-curvature="0"
     style="fill:#31363b;stroke-width:0.940526;fill-opacity:0.79905587"
     id="path44"
     fill="url(#f)"
     d="m 2.668843,9.4972038 h 8.57003 v 0.9289712 h -8.57003 z m 0,15.7925052 H 6.477745 V 26.21868 H 2.668843 Z m 5.713353,0 H 19.808902 V 26.21868 H 8.382196 Z M 2.668843,23.431767 h 3.808902 v 0.928971 H 2.668843 Z m 5.713353,0 h 13.331157 v 0.928971 H 8.382196 Z M 2.668843,21.573825 h 3.808902 v 0.928971 H 2.668843 Z m 5.713353,0 h 11.426706 v 0.928971 H 8.382196 Z M 2.668843,19.715884 h 3.808902 v 0.92897 H 2.668843 Z m 5.713353,0 h 13.331157 v 0.92897 H 8.382196 Z M 2.668843,17.857942 h 3.808902 v 0.928971 H 2.668843 Z m 5.713353,0 h 9.522255 v 0.928971 H 8.382196 Z M 2.668843,16 h 3.808902 v 0.928971 H 2.668843 Z m 5.713353,0 h 15.235608 v 0.928971 H 8.382196 Z M 2.668843,14.142058 h 3.808902 v 0.928971 H 2.668843 Z m 5.713353,0 h 17.140059 v 0.928971 H 8.382196 Z M 2.668843,12.284116 h 3.808902 v 0.928971 H 2.668843 Z m 5.713353,0 h 11.426706 v 0.928971 H 8.382196 Z" />
</svg>
