<?xml version="1.0" encoding="UTF-8" standalone="no"?>
<svg
   xmlns:dc="http://purl.org/dc/elements/1.1/"
   xmlns:cc="http://creativecommons.org/ns#"
   xmlns:rdf="http://www.w3.org/1999/02/22-rdf-syntax-ns#"
   xmlns:svg="http://www.w3.org/2000/svg"
   xmlns="http://www.w3.org/2000/svg"
   xmlns:xlink="http://www.w3.org/1999/xlink"
   xmlns:sodipodi="http://sodipodi.sourceforge.net/DTD/sodipodi-0.dtd"
   xmlns:inkscape="http://www.inkscape.org/namespaces/inkscape"
   inkscape:version="1.0beta2 (2b71d25d45, 2019-12-03)"
   sodipodi:docname="yast-alternatives.svg"
   id="svg20"
   height="32"
   version="1.1"
   width="32">
  <sodipodi:namedview
     inkscape:current-layer="layer1"
     inkscape:window-maximized="1"
     inkscape:window-y="22"
     inkscape:window-x="0"
     inkscape:cy="16"
     inkscape:cx="5.8129496"
     inkscape:zoom="17.375"
     showgrid="false"
     id="namedview22"
     inkscape:window-height="1026"
     inkscape:window-width="1920"
     inkscape:pageshadow="2"
     inkscape:pageopacity="0"
     guidetolerance="10"
     gridtolerance="10"
     objecttolerance="10"
     borderopacity="1"
     inkscape:document-rotation="0"
     bordercolor="#666666"
     pagecolor="#ffffff" />
  <defs
     id="defs5455">
    <linearGradient
       gradientTransform="matrix(1.3703111,0,0,1.3703111,378.80253,510.61364)"
       gradientUnits="userSpaceOnUse"
       x2="0"
       y2="1.999974"
       y1="30"
       id="linearGradient4370"
       xlink:href="#linearGradient4159"
       inkscape:collect="always" />
    <linearGradient
       id="linearGradient4159"
       inkscape:collect="always">
      <stop
         id="stop4161"
         style="stop-color:#2a2c2f" />
      <stop
         id="stop4163"
         style="stop-color:#424649"
         offset="1" />
    </linearGradient>
  </defs>
  <metadata
     id="metadata5458">
    <rdf:RDF>
      <cc:Work
         rdf:about="">
        <dc:format>image/svg+xml</dc:format>
        <dc:type
           rdf:resource="http://purl.org/dc/dcmitype/StillImage" />
      </cc:Work>
    </rdf:RDF>
  </metadata>
  <g
     transform="matrix(1 0 0 1 -384.57143 -515.798)"
     id="layer1"
     inkscape:groupmode="layer"
     inkscape:label="Capa 1">
    <rect
       id="rect4175"
       style="fill:#d1d7da;fill-opacity:1"
       height="28"
       rx="13.999994"
       y="517.79797"
       x="386.57144"
       width="27.999989" />
    <path
       d="m 400.72751,529.798 c -1.5183,0 -2.74062,1.22232 -2.74062,2.74062 0,1.51831 1.22232,2.74062 2.74062,2.74062 1.51831,0 2.74062,-1.22231 2.74062,-2.74062 0,-1.5183 -1.22231,-2.74062 -2.74062,-2.74062 z m -6.85155,0 c -1.51831,0 -2.74063,1.22232 -2.74063,2.74062 0,1.51831 1.22232,2.74062 2.74063,2.74062 1.5183,0 2.74062,-1.22231 2.74062,-2.74062 0,-1.5183 -1.22232,-2.74062 -2.74062,-2.74062 z m 13.70311,0 c -1.51831,0 -2.74062,1.22232 -2.74062,2.74062 0,1.51831 1.22231,2.74062 2.74062,2.74062 1.5183,0 2.74062,-1.22231 2.74062,-2.74062 0,-1.5183 -1.22232,-2.74062 -2.74062,-2.74062 z"
       id="rect4176"
       style="fill:url(#linearGradient4370);stroke-width:1.37031"
       inkscape:connector-curvature="0" />
  </g>
</svg>
