<?xml version="1.0" encoding="UTF-8" standalone="no"?>
<svg
   xmlns:dc="http://purl.org/dc/elements/1.1/"
   xmlns:cc="http://creativecommons.org/ns#"
   xmlns:rdf="http://www.w3.org/1999/02/22-rdf-syntax-ns#"
   xmlns:svg="http://www.w3.org/2000/svg"
   xmlns="http://www.w3.org/2000/svg"
   xmlns:xlink="http://www.w3.org/1999/xlink"
   xmlns:sodipodi="http://sodipodi.sourceforge.net/DTD/sodipodi-0.dtd"
   xmlns:inkscape="http://www.inkscape.org/namespaces/inkscape"
   inkscape:version="1.0beta2 (2b71d25d45, 2019-12-03)"
   sodipodi:docname="nepomuk.svg"
   id="svg21"
   height="32"
   version="1.1"
   width="32">
  <sodipodi:namedview
     inkscape:current-layer="layer1"
     inkscape:window-maximized="1"
     inkscape:window-y="22"
     inkscape:window-x="0"
     inkscape:cy="16"
     inkscape:cx="5.8129496"
     inkscape:zoom="17.375"
     showgrid="false"
     id="namedview23"
     inkscape:window-height="1026"
     inkscape:window-width="1920"
     inkscape:pageshadow="2"
     inkscape:pageopacity="0"
     guidetolerance="10"
     gridtolerance="10"
     objecttolerance="10"
     borderopacity="1"
     inkscape:document-rotation="0"
     bordercolor="#666666"
     pagecolor="#ffffff" />
  <defs
     id="defs5455">
    <linearGradient
       id="linearGradient4227"
       inkscape:collect="always">
      <stop
         id="stop4229"
         style="stop-color:#292c2f" />
      <stop
         id="stop4231"
         style="stop-opacity:0"
         offset="1" />
    </linearGradient>
    <linearGradient
       gradientTransform="matrix(1 0 0 1 2.999952 0)"
       gradientUnits="userSpaceOnUse"
       x2="408.57147"
       y2="531.79797"
       x1="401.57144"
       y1="524.79797"
       id="linearGradient4385"
       xlink:href="#linearGradient4227"
       inkscape:collect="always" />
  </defs>
  <metadata
     id="metadata5458">
    <rdf:RDF>
      <cc:Work
         rdf:about="">
        <dc:format>image/svg+xml</dc:format>
        <dc:type
           rdf:resource="http://purl.org/dc/dcmitype/StillImage" />
      </cc:Work>
    </rdf:RDF>
  </metadata>
  <g
     transform="matrix(1 0 0 1 -384.57143 -515.798)"
     id="layer1"
     inkscape:groupmode="layer"
     inkscape:label="Capa 1">
    <path
       d="m 389.57138,517.798 0,28 21.99999,0 0,-21 -6.99999,-7 -15,0 z"
       id="rect4144"
       style="fill:#c7d6e6;fill-opacity:1"
       inkscape:connector-curvature="0" />
    <path
       d="m 411.57137,524.798 -6.99999,-7 0,7 z"
       id="path4164"
       style="fill:#8e959b;fill-rule:evenodd;fill-opacity:1"
       inkscape:connector-curvature="0" />
    <path
       d="m 404.57138,524.798 6.99999,7 0,-7 z"
       id="path4306"
       style="fill:url(#linearGradient4385);opacity:0.2;fill-rule:evenodd"
       inkscape:connector-curvature="0" />
    <path
       transform="matrix(1 0 0 1 384.57143 515.798)"
       d="M 14.5 10 C 12.00701 10 10 12.00701 10 14.5 C 10 16.99299 12.00701 19 14.5 19 C 15.565176 19 16.529734 18.62001 17.298828 18.005859 L 21.292969 22 L 22 21.292969 L 18.005859 17.298828 C 18.62001 16.529734 19 15.565176 19 14.5 C 19 12.00701 16.99299 10 14.5 10 z M 14.5 11 C 16.43899 11 18 12.56101 18 14.5 C 18 16.43899 16.43899 18 14.5 18 C 12.56101 18 11 16.43899 11 14.5 C 11 12.56101 12.56101 11 14.5 11 z "
       id="rect4166"
       style="fill:#2c5175;fill-opacity:1" />
  </g>
</svg>
