<?xml version="1.0" encoding="UTF-8" standalone="no"?>
<svg
   xmlns:dc="http://purl.org/dc/elements/1.1/"
   xmlns:cc="http://creativecommons.org/ns#"
   xmlns:rdf="http://www.w3.org/1999/02/22-rdf-syntax-ns#"
   xmlns:svg="http://www.w3.org/2000/svg"
   xmlns="http://www.w3.org/2000/svg"
   xmlns:xlink="http://www.w3.org/1999/xlink"
   xmlns:sodipodi="http://sodipodi.sourceforge.net/DTD/sodipodi-0.dtd"
   xmlns:inkscape="http://www.inkscape.org/namespaces/inkscape"
   inkscape:version="1.0beta2 (2b71d25d45, 2019-12-03)"
   sodipodi:docname="gtkconfig.svg"
   id="svg26"
   height="32"
   version="1.1"
   width="32">
  <sodipodi:namedview
     inkscape:current-layer="layer1"
     inkscape:window-maximized="1"
     inkscape:window-y="22"
     inkscape:window-x="0"
     inkscape:cy="16"
     inkscape:cx="5.8129496"
     inkscape:zoom="17.375"
     showgrid="false"
     id="namedview28"
     inkscape:window-height="1026"
     inkscape:window-width="1920"
     inkscape:pageshadow="2"
     inkscape:pageopacity="0"
     guidetolerance="10"
     gridtolerance="10"
     objecttolerance="10"
     borderopacity="1"
     inkscape:document-rotation="0"
     bordercolor="#666666"
     pagecolor="#ffffff" />
  <defs
     id="defs5455">
    <linearGradient
       id="linearGradient4293"
       inkscape:collect="always">
      <stop
         id="stop4295" />
      <stop
         id="stop4297"
         style="stop-opacity:0"
         offset="1" />
    </linearGradient>
    <linearGradient
       id="linearGradient4303-6"
       inkscape:collect="always">
      <stop
         id="stop4305-7"
         style="stop-color:#c6cdd1" />
      <stop
         id="stop4307-0"
         style="stop-color:#e0e5e7"
         offset="1" />
    </linearGradient>
    <linearGradient
       id="linearGradient3052">
      <stop
         id="stop3054"
         style="stop-color:#555753" />
      <stop
         id="stop3056"
         style="stop-color:#2e3436"
         offset="1" />
    </linearGradient>
    <radialGradient
       gradientTransform="matrix(0.56665119,-3.859722e-7,0,0.24787964,387.83427,527.36031)"
       gradientUnits="userSpaceOnUse"
       id="radialGradient3082"
       xlink:href="#linearGradient3052"
       r="17.995"
       cy="3.6836"
       cx="25.641" />
    <linearGradient
       gradientTransform="matrix(0.64328758,0,0,0.6129086,137.8141,209.71566)"
       x2="0"
       gradientUnits="userSpaceOnUse"
       y2="502.65509"
       y1="543.79797"
       id="linearGradient4643-8"
       xlink:href="#linearGradient4303-6"
       inkscape:collect="always" />
    <linearGradient
       gradientTransform="matrix(0.96493051,0,0,0.96493051,14.11951,18.158913)"
       gradientUnits="userSpaceOnUse"
       x2="406.57147"
       y2="540.79797"
       x1="391.57144"
       y1="525.79797"
       id="linearGradient4183"
       xlink:href="#linearGradient4293"
       inkscape:collect="always" />
  </defs>
  <metadata
     id="metadata5458">
    <rdf:RDF>
      <cc:Work
         rdf:about="">
        <dc:format>image/svg+xml</dc:format>
        <dc:type
           rdf:resource="http://purl.org/dc/dcmitype/StillImage" />
      </cc:Work>
    </rdf:RDF>
  </metadata>
  <g
     transform="matrix(1 0 0 1 -384.57143 -515.798)"
     id="layer1"
     inkscape:groupmode="layer"
     inkscape:label="Capa 1">
    <rect
       id="rect4641-5"
       style="fill:url(#linearGradient4643-8);stroke-width:0.964931"
       height="27.018055"
       rx="0"
       y="517.79797"
       x="385.20422"
       width="30.877777" />
    <path
       d="m 386.16914,542.88619 28.94792,-19.29861 0.96494,0.96493 -10e-6,20.26351 -27.98298,3e-5 z"
       id="path4167"
       style="opacity:0.2;fill:url(#linearGradient4183);fill-rule:evenodd;stroke-width:0.964931"
       inkscape:connector-curvature="0" />
    <rect
       id="rect4647-8"
       style="fill:#566069;stroke-width:0.964931"
       height="3.8597221"
       y="517.79797"
       x="385.20419"
       width="30.877787" />
    <rect
       id="rect4649-8"
       style="fill:#738eb3;stroke-width:0.964931;fill-opacity:1"
       height="0.96493053"
       y="521.65771"
       x="385.20419"
       width="30.877745" />
    <rect
       id="rect4653-5"
       style="fill:#ffffff;stroke-width:0.964931"
       height="19.298639"
       y="523.58759"
       x="386.16913"
       width="28.947916" />
    <rect
       id="rect4661-1"
       style="fill:#eff0f1;stroke-width:0.964931"
       height="1.9298611"
       rx="0.96493053"
       y="518.76288"
       x="413.18719"
       width="1.9298611" />
    <path
       d="m 404.91501,526.48236 c -2.74422,0 -3.25902,4.00944 -1.71503,4.00944 1.54337,0 4.4596,-4.00944 1.71503,-4.00944 z m -4.22696,0.61686 c -0.0432,-1.5e-4 -0.0902,0.004 -0.13887,0.009 -1.55513,0.18886 -1.00781,2.71953 -0.17994,2.76673 0.80161,0.046 1.67862,-2.77077 0.31827,-2.77517 z m -2.69653,0.93428 c -0.0951,-0.006 -0.20046,0.0116 -0.31772,0.0577 -1.24995,0.49354 -0.18967,2.53082 0.51009,2.39387 0.63513,-0.1241 0.72618,-2.39429 -0.19237,-2.45169 z m -2.04022,1.6656 c -0.10864,-0.003 -0.22586,0.0331 -0.35122,0.12287 -1.00056,0.71799 0.33664,2.45258 0.92536,2.18365 0.51496,-0.23558 0.18642,-2.28001 -0.57427,-2.30652 z m 5.90948,1.65593 c -2.16788,-0.0357 -5.02772,1.02204 -5.51556,3.14687 -0.52792,2.29926 2.17472,5.48949 4.99434,5.48949 1.38708,0 2.98691,-1.21888 3.2865,-2.76252 0.22857,-1.17694 -2.69022,-0.70528 -2.5855,0.0734 0.12591,0.93358 -0.70397,1.39507 -1.51661,0.79334 -2.58673,-1.91591 4.28317,-2.87195 3.83003,-5.4895 -0.14103,-0.81482 -1.19251,-1.22975 -2.4932,-1.25117 z"
       id="path4490"
       style="fill:#555753;stroke-width:0.964931;fill-opacity:1"
       inkscape:connector-curvature="0" />
  </g>
</svg>
