<?xml version="1.0" encoding="UTF-8" standalone="no"?>
<svg
   xmlns:dc="http://purl.org/dc/elements/1.1/"
   xmlns:cc="http://creativecommons.org/ns#"
   xmlns:rdf="http://www.w3.org/1999/02/22-rdf-syntax-ns#"
   xmlns:svg="http://www.w3.org/2000/svg"
   xmlns="http://www.w3.org/2000/svg"
   xmlns:xlink="http://www.w3.org/1999/xlink"
   xmlns:sodipodi="http://sodipodi.sourceforge.net/DTD/sodipodi-0.dtd"
   xmlns:inkscape="http://www.inkscape.org/namespaces/inkscape"
   inkscape:version="1.0beta2 (2b71d25d45, 2019-12-03)"
   sodipodi:docname="plasma.svg"
   id="svg47"
   height="32"
   version="1.1"
   width="32">
  <sodipodi:namedview
     inkscape:current-layer="layer1"
     inkscape:window-maximized="1"
     inkscape:window-y="22"
     inkscape:window-x="0"
     inkscape:cy="16"
     inkscape:cx="5.8129496"
     inkscape:zoom="17.375"
     showgrid="false"
     id="namedview49"
     inkscape:window-height="1026"
     inkscape:window-width="1920"
     inkscape:pageshadow="2"
     inkscape:pageopacity="0"
     guidetolerance="10"
     gridtolerance="10"
     objecttolerance="10"
     borderopacity="1"
     inkscape:document-rotation="0"
     bordercolor="#666666"
     pagecolor="#ffffff" />
  <defs
     id="defs5455">
    <linearGradient
       id="linearGradient4219"
       inkscape:collect="always">
      <stop
         id="stop4221"
         style="stop-color:#eff0f1" />
      <stop
         id="stop4223"
         style="stop-color:#fcfcfc"
         offset="1" />
    </linearGradient>
    <linearGradient
       gradientUnits="userSpaceOnUse"
       x2="0"
       y2="522.79797"
       y1="536.79797"
       id="linearGradient5010"
       xlink:href="#linearGradient4219"
       inkscape:collect="always" />
    <linearGradient
       gradientTransform="matrix(1 0 0 1 384.57143 515.798)"
       gradientUnits="userSpaceOnUse"
       x2="23"
       y2="21"
       x1="9.00001"
       y1="7"
       id="linearGradient5093"
       xlink:href="#linearGradient4227-9"
       inkscape:collect="always" />
    <linearGradient
       id="linearGradient4227-9"
       inkscape:collect="always">
      <stop
         id="stop4229-5"
         style="stop-color:#292c2f" />
      <stop
         id="stop4231-6"
         style="stop-opacity:0"
         offset="1" />
    </linearGradient>
    <linearGradient
       gradientTransform="matrix(0.66666639,0,0,0.85555439,128.19059,86.771381)"
       gradientUnits="userSpaceOnUse"
       x2="384.79166"
       y2="517.84668"
       x1="433.09073"
       y1="530.02283"
       id="linearGradient4703"
       xlink:href="#linearGradient4697"
       inkscape:collect="always" />
    <linearGradient
       id="linearGradient4697"
       inkscape:collect="always">
      <stop
         id="stop4699"
         style="stop-color:#b470ca;stop-opacity:1" />
      <stop
         offset="0.61645758"
         style="stop-color:#22afc9;stop-opacity:1"
         id="stop877" />
      <stop
         id="stop4701"
         style="stop-color:#3b70a7;stop-opacity:1"
         offset="1" />
    </linearGradient>
  </defs>
  <metadata
     id="metadata5458">
    <rdf:RDF>
      <cc:Work
         rdf:about="">
        <dc:format>image/svg+xml</dc:format>
        <dc:type
           rdf:resource="http://purl.org/dc/dcmitype/StillImage" />
      </cc:Work>
    </rdf:RDF>
  </metadata>
  <g
     transform="matrix(1 0 0 1 -384.57143 -515.798)"
     id="layer1"
     inkscape:groupmode="layer"
     inkscape:label="Capa 1">
    <path
       inkscape:connector-curvature="0"
       style="fill:url(#linearGradient4703);stroke-width:0.823885"
       id="path4589"
       d="m 384.57143,517.79797 v 27.99998 h 32 v -27.99998 z" />
    <g
       id="g4480">
      <path
         d="m 396.57143,522.89761 0,1.5 7.2168,7.18359 -1.2168,1.2168 13,13 1,0 0,-1.49219 0,-2.49023 0,-5.01758 -9,-9 -2.5332,2.5332 -7.4668,-7.43359 -1,0 z m -2,5.40039 0,2.19922 4,3.97461 0,2.32617 9,9 5.59961,0 -17.59961,-17.5 -1,0 z"
         id="path5074"
         style="fill:url(#linearGradient5093);opacity:0.2;fill-rule:evenodd"
         inkscape:connector-curvature="0" />
      <path
         d="m 397.07143,522.798 c -0.48475,0 -0.875,0.39025 -0.875,0.875 0,0.48475 0.39025,0.875 0.875,0.875 0.48475,0 0.875,-0.39025 0.875,-0.875 0,-0.48475 -0.39025,-0.875 -0.875,-0.875 z m 5.5,0 -2,2 3,3 -3,3 2,2 3,-3 2,-2 -2,-2 -3,-3 z m -7.6875,5.25 c -0.72712,0 -1.3125,0.58537 -1.3125,1.3125 0,0.72712 0.58538,1.3125 1.3125,1.3125 0.72713,0 1.3125,-0.58538 1.3125,-1.3125 0,-0.72713 -0.58537,-1.3125 -1.3125,-1.3125 z m 3.9375,5.25 c -0.9695,0 -1.75,0.7805 -1.75,1.75 0,0.9695 0.7805,1.75 1.75,1.75 0.9695,0 1.75,-0.7805 1.75,-1.75 0,-0.9695 -0.7805,-1.75 -1.75,-1.75 z"
         id="path4783"
         style="fill:url(#linearGradient5010)"
         inkscape:connector-curvature="0" />
    </g>
    <g
       transform="matrix(1 0 0 1 0 -0.000063)"
       id="g4783">
      <rect
         id="rect4267"
         style="fill:#ffffff;fill-opacity:0.784314"
         height="3.999968"
         y="541.7981"
         x="384.57144"
         width="31.999952" />
      <circle
         id="path4166"
         r="1"
         style="fill:#4d4d4d"
         cy="543.79797"
         cx="414.57144" />
      <path
         transform="matrix(1 0 0 1 384.57143 515.798)"
         d="m 2,27 0,1 1,0 0,-1 -1,0 z m 1,1 0,1 1,0 0,-1 -1,0 z"
         id="rect4183"
         style="fill:#4d4d4d"
         inkscape:connector-curvature="0" />
    </g>
  </g>
</svg>
