<?xml version="1.0" encoding="UTF-8" standalone="no"?>
<!-- Created with Inkscape (http://www.inkscape.org/) -->

<svg
   xmlns:dc="http://purl.org/dc/elements/1.1/"
   xmlns:cc="http://creativecommons.org/ns#"
   xmlns:rdf="http://www.w3.org/1999/02/22-rdf-syntax-ns#"
   xmlns:svg="http://www.w3.org/2000/svg"
   xmlns="http://www.w3.org/2000/svg"
   xmlns:xlink="http://www.w3.org/1999/xlink"
   xmlns:sodipodi="http://sodipodi.sourceforge.net/DTD/sodipodi-0.dtd"
   xmlns:inkscape="http://www.inkscape.org/namespaces/inkscape"
   width="96"
   height="96"
   id="svg2"
   version="1.1"
   inkscape:version="0.48.4 r9939"
   sodipodi:docname="text-x-tex (copy).svg">
  <defs
     id="defs4">
    <filter
       id="filter3174-3"
       color-interpolation-filters="sRGB">
      <feGaussianBlur
         stdDeviation="1.71"
         id="feGaussianBlur3176-1" />
    </filter>
    <linearGradient
       gradientTransform="scale(1.0058652,0.994169)"
       gradientUnits="userSpaceOnUse"
       id="ButtonShadow-8"
       y2="7.0165396"
       x2="45.447727"
       y1="92.539597"
       x1="45.447727">
      <stop
         offset="0"
         style="stop-color:#000000;stop-opacity:1"
         id="stop3750-45" />
      <stop
         offset="1"
         style="stop-color:#000000;stop-opacity:0.58823532"
         id="stop3752-7" />
    </linearGradient>
    <filter
       id="filter3174-3-1"
       color-interpolation-filters="sRGB">
      <feGaussianBlur
         stdDeviation="1.71"
         id="feGaussianBlur3176-1-8" />
    </filter>
    <linearGradient
       gradientTransform="scale(1.0058652,0.994169)"
       gradientUnits="userSpaceOnUse"
       id="ButtonShadow-8-0"
       y2="7.0165396"
       x2="45.447727"
       y1="92.539597"
       x1="45.447727">
      <stop
         offset="0"
         style="stop-color:#000000;stop-opacity:1"
         id="stop3750-45-9" />
      <stop
         offset="1"
         style="stop-color:#000000;stop-opacity:0.58823532"
         id="stop3752-7-3" />
    </linearGradient>
    <filter
       id="filter3174-3-17"
       color-interpolation-filters="sRGB">
      <feGaussianBlur
         stdDeviation="1.71"
         id="feGaussianBlur3176-1-3" />
    </filter>
    <linearGradient
       gradientTransform="scale(1.0058652,0.994169)"
       gradientUnits="userSpaceOnUse"
       id="ButtonShadow-8-7"
       y2="7.0165396"
       x2="45.447727"
       y1="92.539597"
       x1="45.447727">
      <stop
         offset="0"
         style="stop-color:#000000;stop-opacity:1"
         id="stop3750-45-8" />
      <stop
         offset="1"
         style="stop-color:#000000;stop-opacity:0.58823532"
         id="stop3752-7-8" />
    </linearGradient>
    <linearGradient
       inkscape:collect="always"
       xlink:href="#ButtonShadow-8-7"
       id="linearGradient3093"
       gradientUnits="userSpaceOnUse"
       gradientTransform="matrix(1.0058652,0,0,0.994169,5.26345,937.18686)"
       x1="45.447727"
       y1="92.539597"
       x2="45.447727"
       y2="7.0165396" />
    <linearGradient
       inkscape:collect="always"
       xlink:href="#linearGradient3838"
       id="linearGradient3023"
       gradientUnits="userSpaceOnUse"
       x1="35.554329"
       y1="1016.6278"
       x2="39.515625"
       y2="1012.8309"
       gradientTransform="matrix(2,0,0,2,-108.57699,-1052.859)" />
    <linearGradient
       id="linearGradient3838">
      <stop
         style="stop-color:#666666;stop-opacity:1;"
         offset="0"
         id="stop3840" />
      <stop
         style="stop-color:#ffffff;stop-opacity:1;"
         offset="1"
         id="stop3842" />
    </linearGradient>
  </defs>
  <sodipodi:namedview
     id="base"
     pagecolor="#ffffff"
     bordercolor="#666666"
     borderopacity="1.0"
     inkscape:pageopacity="0.0"
     inkscape:pageshadow="2"
     inkscape:zoom="4.2080321"
     inkscape:cx="17.866968"
     inkscape:cy="43.099387"
     inkscape:document-units="px"
     inkscape:current-layer="layer1"
     showgrid="true"
     inkscape:snap-page="true"
     inkscape:snap-global="true"
     inkscape:snap-object-midpoints="false"
     inkscape:object-nodes="true"
     inkscape:window-width="1305"
     inkscape:window-height="744"
     inkscape:window-x="61"
     inkscape:window-y="24"
     inkscape:window-maximized="1"
     inkscape:snap-nodes="true"
     inkscape:snap-bbox="true"
     inkscape:object-paths="true"
     inkscape:snap-center="true">
    <inkscape:grid
       type="xygrid"
       id="grid3925"
       empspacing="5"
       visible="true"
       enabled="true"
       snapvisiblegridlinesonly="true" />
  </sodipodi:namedview>
  <metadata
     id="metadata7">
    <rdf:RDF>
      <cc:Work
         rdf:about="">
        <dc:format>image/svg+xml</dc:format>
        <dc:type
           rdf:resource="http://purl.org/dc/dcmitype/StillImage" />
        <dc:title />
      </cc:Work>
    </rdf:RDF>
  </metadata>
  <g
     inkscape:label="Layer 1"
     inkscape:groupmode="layer"
     id="layer1"
     transform="translate(0,-956.3622)">
    <path
       inkscape:connector-curvature="0"
       style="fill:#d81717;fill-opacity:1;fill-rule:nonzero;stroke:none"
       d="m 79,1050.3622 c 3.691096,0 6,-3.309 6,-7 l 0,-78 c 0,-3.6911 -2.308904,-7 -6,-7 l -61,0 c -3.691096,0 -7,3.3089 -7,7 l 0,62 21,23 z"
       id="rect3121"
       sodipodi:nodetypes="ssssssccs" />
    <path
       style="fill:#ffffff;fill-opacity:0.58823532;fill-rule:nonzero;stroke:none"
       d="m 32,1050.3622 0,-23 -21,0 z"
       id="rect3903"
       inkscape:connector-curvature="0"
       sodipodi:nodetypes="cccc" />
    <path
       sodipodi:nodetypes="cccc"
       inkscape:connector-curvature="0"
       id="path3931"
       d="m 32,1027.3622 0,23 21,0 z"
       style="fill:#2d2d2d;fill-opacity:0.58823532;fill-rule:nonzero;stroke:none" />
    <g
       id="layer2"
       style="display:none"
       transform="translate(39.84429,874.99134)">
      <rect
         width="86"
         height="85"
         rx="6"
         ry="6"
         x="5"
         y="7"
         id="rect3745"
         style="opacity:0.9;fill:url(#ButtonShadow-8);fill-opacity:1;fill-rule:nonzero;stroke:none;filter:url(#filter3174-3)" />
    </g>
    <g
       id="layer2-0"
       style="display:none"
       transform="translate(40.3598,932.47103)">
      <rect
         width="86"
         height="85"
         rx="6"
         ry="6"
         x="5"
         y="7"
         id="rect3745-2"
         style="opacity:0.9;fill:url(#ButtonShadow-8-0);fill-opacity:1;fill-rule:nonzero;stroke:none;filter:url(#filter3174-3-1)" />
    </g>
    <rect
       style="opacity:0.9;fill:url(#linearGradient3093);fill-opacity:1;fill-rule:nonzero;stroke:none;display:none;filter:url(#filter3174-3-17)"
       id="rect3745-5"
       y="944.18689"
       x="10.26345"
       ry="6"
       rx="6"
       height="85"
       width="86" />
    <path
       style="fill:#ffffff"
       d="m 26.569941,1016.8978 c -1.182141,-0.5719 -1.423455,-0.7949 -1.538444,-1.4218 -0.359556,-1.9619 2.389025,-5.3747 6.72329,-8.3494 1.330449,-0.9127 4.249161,-2.6099 4.335951,-2.5211 0.02524,0.046 -0.554631,0.5786 -1.28826,1.229 -2.527834,2.2401 -5.369367,5.2908 -6.385317,6.8559 -0.989589,1.5236 -1.55674,2.7684 -1.55674,3.4167 0,0.4094 0.09248,0.4053 1.141259,-0.041 1.159157,-0.4857 3.257758,-2.4882 5.045057,-4.8142 2.020855,-2.6291 5.060063,-7.6249 7.82149,-12.85638 1.95207,-3.69787 5.638061,-11.34122 6.737624,-13.97122 l 0.994257,-2.378 -0.479958,-1.85837 c -1.097475,-4.24808 -1.874564,-8.64498 -2.027434,-11.4719 -0.107374,-1.98581 0.09719,-4.18559 0.455377,-4.89413 0.579543,-1.14695 2.453452,-1.75888 4.02133,-1.31283 1.088862,0.31037 2.142692,1.9932 2.142692,3.42465 0,0.61068 -0.299763,2.70091 -0.376161,2.62281 -0.02307,-0.0452 -0.110106,-0.59692 -0.192936,-1.27277 -0.121736,-0.99362 -0.280451,-1.48694 -0.825401,-2.5669 -0.422945,-0.83823 -0.858864,-1.48077 -1.168222,-1.72229 -0.461936,-0.36198 -0.5105,-0.3706 -0.758557,-0.14594 -0.946439,0.87688 -1.059956,5.71858 -0.243276,10.37921 0.360864,2.05898 0.856032,4.23183 0.997364,4.37634 0.104643,0.10894 0.359756,-0.76341 1.204305,-4.11057 0.422911,-1.67584 0.771785,-2.87974 0.775272,-2.67502 0.01084,0.68304 -0.419531,6.15373 -0.574089,7.28281 -0.08393,0.61295 -0.239536,1.41418 -0.345824,1.78067 -0.187031,0.64564 -0.17496,0.7108 0.380615,2.08098 1.378251,3.39773 3.247019,6.52578 5.435027,9.09741 1.424327,1.67337 3.00981,3.03061 4.930595,4.22116 l 1.323435,0.82013 1.701218,-0.22754 c 7.572417,-1.01644 13.541563,-0.37944 14.664965,1.56813 0.270746,0.46952 0.478197,1.76547 0.282502,1.76547 -0.07302,0 -0.249926,-0.14389 -0.39326,-0.30998 -0.346655,-0.41434 -1.899179,-1.12328 -3.110989,-1.42095 -0.782014,-0.18911 -1.717806,-0.23289 -4.680885,-0.21604 -3.92887,0.0452 -5.633427,0.14594 -5.526906,0.38808 0.164236,0.37949 5.172545,2.32967 7.642239,2.97758 3.082631,0.8092 4.835736,0.8318 5.508918,0.07 0.417424,-0.4723 0.508776,-0.3493 0.27173,0.3621 -0.453761,1.3626 -1.291823,1.8017 -3.393712,1.777 -3.27489,-0.042 -8.053557,-1.4863 -12.558751,-3.80386 l -1.738807,-0.89513 -1.311102,0.17883 c -1.907811,0.25488 -7.439641,1.41006 -10.460878,2.18556 -2.338662,0.6005 -7.921908,2.2174 -8.740003,2.5307 -0.196774,0.076 -0.837701,1.0025 -1.695293,2.4508 -2.876872,4.8604 -4.80565,7.5253 -6.969765,9.6289 -2.303216,2.2332 -4.150398,2.7635 -6.19551,1.7743 z m 17.137638,-15.7864 c 3.484665,-1.38825 8.607553,-2.86777 13.105317,-3.78641 1.496601,-0.30565 2.72202,-0.5965 2.723146,-0.64645 10e-4,-0.0514 -0.471748,-0.44994 -1.050853,-0.88797 -2.971165,-2.24973 -6.062499,-5.98477 -8.021019,-9.69247 -0.379941,-0.71942 -0.708319,-1.28817 -0.729686,-1.26351 -0.02271,0.0431 -0.43841,1.06927 -0.926726,2.32168 -1.485611,3.8115 -3.095966,7.1862 -5.775979,12.10417 -0.746621,1.37016 -1.357466,2.53066 -1.357466,2.57966 0,0.048 0.08177,0.056 0.181689,0 0.09992,-0.046 0.933121,-0.3753 1.851726,-0.7412 z"
       id="path6388"
       inkscape:connector-curvature="0"
       sodipodi:nodetypes="ssscssssssscssssscssssssscssssscsssscssssssscsssssscscsscsssccc" />
  </g>
</svg>
