<?xml version="1.0" encoding="UTF-8" standalone="no"?>
<svg
   xmlns:dc="http://purl.org/dc/elements/1.1/"
   xmlns:cc="http://creativecommons.org/ns#"
   xmlns:rdf="http://www.w3.org/1999/02/22-rdf-syntax-ns#"
   xmlns:svg="http://www.w3.org/2000/svg"
   xmlns="http://www.w3.org/2000/svg"
   xmlns:sodipodi="http://sodipodi.sourceforge.net/DTD/sodipodi-0.dtd"
   xmlns:inkscape="http://www.inkscape.org/namespaces/inkscape"
   width="48"
   viewBox="0 0 48 48"
   height="48"
   version="1.1"
   id="svg28"
   sodipodi:docname="application-x-m4.svg"
   inkscape:version="0.92.4 (5da689c313, 2019-01-14)">
  <metadata
     id="metadata34">
    <rdf:RDF>
      <cc:Work
         rdf:about="">
        <dc:format>image/svg+xml</dc:format>
        <dc:type
           rdf:resource="http://purl.org/dc/dcmitype/StillImage" />
      </cc:Work>
    </rdf:RDF>
  </metadata>
  <defs
     id="defs32" />
  <sodipodi:namedview
     pagecolor="#ffffff"
     bordercolor="#666666"
     borderopacity="1"
     objecttolerance="10"
     gridtolerance="10"
     guidetolerance="10"
     inkscape:pageopacity="0"
     inkscape:pageshadow="2"
     inkscape:window-width="779"
     inkscape:window-height="480"
     id="namedview30"
     showgrid="false"
     inkscape:zoom="4.9166667"
     inkscape:cx="24"
     inkscape:cy="24"
     inkscape:window-x="39"
     inkscape:window-y="27"
     inkscape:window-maximized="0"
     inkscape:current-layer="svg28" />
  <path
     d="m8 1c-1.0286 0-2 0.9714-2 2v42c0 0.97143 1.0286 2 2 2h32c0.97143 0 2-1.0286 2-2v-31l-13-13z"
     fill="#dcdcdc"
     id="path2"
     style="fill:#d6e0e9;fill-opacity:1" />
  <path
     d="m29 12 0.062 0.062 0.157-0.062h-0.219zm2 2 11 11v-11h-11z"
     fill-opacity=".196"
     id="path4" />
  <path
     fill="#fff"
     d="m29 1 13 13h-11c-0.97143 0-2-1.0286-2-2v-11z"
     fill-opacity=".392"
     id="path6" />
  <g
     transform="translate(-.5)"
     id="g10">
    <rect
       rx=".579"
       ry=".601"
       height="7"
       width="8"
       y="17"
       x="16"
       fill="#888"
       id="rect8" />
  </g>
  <g
     stroke-linejoin="round"
     transform="translate(-.5)"
     stroke-dashoffset=".774"
     stroke="#888"
     stroke-linecap="round"
     fill="#555"
     id="g26">
    <path
       d="m26.5 17.5h5"
       id="path12" />
    <path
       d="m26.5 20.5h5"
       id="path14" />
    <path
       d="m26.5 23.5h5"
       id="path16" />
    <path
       d="m16 26.5h16"
       id="path18" />
    <path
       d="m16 29.5h16"
       id="path20" />
    <path
       d="m16 32.5h16"
       id="path22" />
    <path
       d="m16 35.5h16"
       id="path24" />
  </g>
</svg>
