<?xml version="1.0" encoding="UTF-8" standalone="no"?>
<!-- Created with Inkscape (http://www.inkscape.org/) -->

<svg
   xmlns:dc="http://purl.org/dc/elements/1.1/"
   xmlns:cc="http://creativecommons.org/ns#"
   xmlns:rdf="http://www.w3.org/1999/02/22-rdf-syntax-ns#"
   xmlns:svg="http://www.w3.org/2000/svg"
   xmlns="http://www.w3.org/2000/svg"
   xmlns:xlink="http://www.w3.org/1999/xlink"
   xmlns:sodipodi="http://sodipodi.sourceforge.net/DTD/sodipodi-0.dtd"
   xmlns:inkscape="http://www.inkscape.org/namespaces/inkscape"
   width="96"
   height="96"
   id="svg2"
   version="1.1"
   inkscape:version="0.48.4 r9939"
   sodipodi:docname="text-x-tex (copy).svg">
  <defs
     id="defs4">
    <filter
       id="filter3174-3"
       color-interpolation-filters="sRGB">
      <feGaussianBlur
         stdDeviation="1.71"
         id="feGaussianBlur3176-1" />
    </filter>
    <linearGradient
       gradientTransform="scale(1.0058652,0.994169)"
       gradientUnits="userSpaceOnUse"
       id="ButtonShadow-8"
       y2="7.0165396"
       x2="45.447727"
       y1="92.539597"
       x1="45.447727">
      <stop
         offset="0"
         style="stop-color:#000000;stop-opacity:1"
         id="stop3750-45" />
      <stop
         offset="1"
         style="stop-color:#000000;stop-opacity:0.58823532"
         id="stop3752-7" />
    </linearGradient>
    <filter
       id="filter3174-3-1"
       color-interpolation-filters="sRGB">
      <feGaussianBlur
         stdDeviation="1.71"
         id="feGaussianBlur3176-1-8" />
    </filter>
    <linearGradient
       gradientTransform="scale(1.0058652,0.994169)"
       gradientUnits="userSpaceOnUse"
       id="ButtonShadow-8-0"
       y2="7.0165396"
       x2="45.447727"
       y1="92.539597"
       x1="45.447727">
      <stop
         offset="0"
         style="stop-color:#000000;stop-opacity:1"
         id="stop3750-45-9" />
      <stop
         offset="1"
         style="stop-color:#000000;stop-opacity:0.58823532"
         id="stop3752-7-3" />
    </linearGradient>
    <filter
       id="filter3174-3-17"
       color-interpolation-filters="sRGB">
      <feGaussianBlur
         stdDeviation="1.71"
         id="feGaussianBlur3176-1-3" />
    </filter>
    <linearGradient
       gradientTransform="scale(1.0058652,0.994169)"
       gradientUnits="userSpaceOnUse"
       id="ButtonShadow-8-7"
       y2="7.0165396"
       x2="45.447727"
       y1="92.539597"
       x1="45.447727">
      <stop
         offset="0"
         style="stop-color:#000000;stop-opacity:1"
         id="stop3750-45-8" />
      <stop
         offset="1"
         style="stop-color:#000000;stop-opacity:0.58823532"
         id="stop3752-7-8" />
    </linearGradient>
    <linearGradient
       inkscape:collect="always"
       xlink:href="#ButtonShadow-8-7"
       id="linearGradient3093"
       gradientUnits="userSpaceOnUse"
       gradientTransform="matrix(1.0058652,0,0,0.994169,5.26345,937.18686)"
       x1="45.447727"
       y1="92.539597"
       x2="45.447727"
       y2="7.0165396" />
  </defs>
  <sodipodi:namedview
     id="base"
     pagecolor="#ffffff"
     bordercolor="#666666"
     borderopacity="1.0"
     inkscape:pageopacity="0.0"
     inkscape:pageshadow="2"
     inkscape:zoom="2.953125"
     inkscape:cx="34.497832"
     inkscape:cy="48"
     inkscape:document-units="px"
     inkscape:current-layer="layer1"
     showgrid="true"
     inkscape:snap-page="true"
     inkscape:snap-global="false"
     inkscape:snap-object-midpoints="false"
     inkscape:object-nodes="true"
     inkscape:window-width="1305"
     inkscape:window-height="744"
     inkscape:window-x="61"
     inkscape:window-y="24"
     inkscape:window-maximized="1"
     inkscape:snap-nodes="true"
     inkscape:snap-bbox="true"
     inkscape:object-paths="true"
     inkscape:snap-center="true">
    <inkscape:grid
       type="xygrid"
       id="grid3925"
       empspacing="5"
       visible="true"
       enabled="true"
       snapvisiblegridlinesonly="true" />
  </sodipodi:namedview>
  <metadata
     id="metadata7">
    <rdf:RDF>
      <cc:Work
         rdf:about="">
        <dc:format>image/svg+xml</dc:format>
        <dc:type
           rdf:resource="http://purl.org/dc/dcmitype/StillImage" />
        <dc:title />
      </cc:Work>
    </rdf:RDF>
  </metadata>
  <g
     inkscape:label="Layer 1"
     inkscape:groupmode="layer"
     id="layer1"
     transform="translate(0,-956.3622)">
    <path
       inkscape:connector-curvature="0"
       style="fill:#aa0078;fill-opacity:1;fill-rule:nonzero;stroke:none"
       d="m 79,1050.3622 c 3.691096,0 6,-3.309 6,-7 l 0,-78 c 0,-3.6911 -2.308904,-7 -6,-7 l -61,0 c -3.691096,0 -7,3.3089 -7,7 l 0,62 21,23 z"
       id="rect3121"
       sodipodi:nodetypes="ssssssccs" />
    <path
       style="fill:#cccccf;fill-opacity:0.58823532000000001;fill-rule:nonzero;stroke:none"
       d="m 32,1050.3622 0,-23 -21,0 z"
       id="rect3903"
       inkscape:connector-curvature="0"
       sodipodi:nodetypes="cccc" />
    <path
       sodipodi:nodetypes="cccc"
       inkscape:connector-curvature="0"
       id="path3931"
       d="m 32,1027.3622 0,23 21,0 z"
       style="fill:#000000;fill-opacity:0.73972601;fill-rule:nonzero;stroke:none" />
    <g
       id="layer2"
       style="display:none"
       transform="translate(39.84429,874.99134)">
      <rect
         width="86"
         height="85"
         rx="6"
         ry="6"
         x="5"
         y="7"
         id="rect3745"
         style="opacity:0.9;fill:url(#ButtonShadow-8);fill-opacity:1;fill-rule:nonzero;stroke:none;filter:url(#filter3174-3)" />
    </g>
    <g
       id="layer2-0"
       style="display:none"
       transform="translate(40.3598,932.47103)">
      <rect
         width="86"
         height="85"
         rx="6"
         ry="6"
         x="5"
         y="7"
         id="rect3745-2"
         style="opacity:0.9;fill:url(#ButtonShadow-8-0);fill-opacity:1;fill-rule:nonzero;stroke:none;filter:url(#filter3174-3-1)" />
    </g>
    <rect
       style="opacity:0.9;fill:url(#linearGradient3093);fill-opacity:1;fill-rule:nonzero;stroke:none;display:none;filter:url(#filter3174-3-17)"
       id="rect3745-5"
       y="944.18689"
       x="10.26345"
       ry="6"
       rx="6"
       height="85"
       width="86" />
    <path
       sodipodi:type="arc"
       style="fill:#ffffff;fill-opacity:0.64705884;fill-rule:nonzero;stroke:none"
       id="path2998"
       sodipodi:cx="-27.86669"
       sodipodi:cy="12.094843"
       sodipodi:rx="6.0735092"
       sodipodi:ry="6.4903188"
       d="m -21.79318,12.094843 c 0,3.584504 -2.719203,6.490319 -6.07351,6.490319 -3.354306,0 -6.073509,-2.905815 -6.073509,-6.490319 0,-3.5845042 2.719203,-6.4903189 6.073509,-6.4903189 3.354307,0 6.07351,2.9058147 6.07351,6.4903189 z"
       transform="matrix(1.087848,0,0,1.0179862,77.860949,958.27896)"
       inkscape:transform-center-y="-12.375033" />
    <path
       inkscape:transform-center-y="-8.7504977"
       transform="matrix(0.76922466,-0.76922466,0.7198249,0.7198249,42.774858,947.6985)"
       d="m -21.79318,12.094843 c 0,3.584504 -2.719203,6.490319 -6.07351,6.490319 -3.354306,0 -6.073509,-2.905815 -6.073509,-6.490319 0,-3.5845042 2.719203,-6.4903189 6.073509,-6.4903189 3.354307,0 6.07351,2.9058147 6.07351,6.4903189 z"
       sodipodi:ry="6.4903188"
       sodipodi:rx="6.0735092"
       sodipodi:cy="12.094843"
       sodipodi:cx="-27.86669"
       id="path3000"
       style="fill:#ffffff;fill-opacity:0.7647059;fill-rule:nonzero;stroke:none"
       sodipodi:type="arc"
       inkscape:transform-center-x="8.7504715" />
    <path
       inkscape:transform-center-x="12.375055"
       sodipodi:type="arc"
       style="fill:#ffffff;fill-opacity:0.88235295;fill-rule:nonzero;stroke:none"
       id="path3002"
       sodipodi:cx="-27.86669"
       sodipodi:cy="12.094843"
       sodipodi:rx="6.0735092"
       sodipodi:ry="6.4903188"
       d="m -21.79318,12.094843 c 0,3.584504 -2.719203,6.490319 -6.07351,6.490319 -3.354306,0 -6.073509,-2.905815 -6.073509,-6.490319 0,-3.5845042 2.719203,-6.4903189 6.073509,-6.4903189 3.354307,0 6.07351,2.9058147 6.07351,6.4903189 z"
       transform="matrix(0,-1.087848,1.0179861,0,10.483733,965.0267)" />
    <path
       transform="matrix(-0.76922466,-0.76922466,0.7198249,-0.7198249,-0.09665862,1000.1128)"
       d="m -21.79318,12.094843 c 0,3.584504 -2.719203,6.490319 -6.07351,6.490319 -3.354306,0 -6.073509,-2.905815 -6.073509,-6.490319 0,-3.5845042 2.719203,-6.4903189 6.073509,-6.4903189 3.354307,0 6.07351,2.9058147 6.07351,6.4903189 z"
       sodipodi:ry="6.4903188"
       sodipodi:rx="6.0735092"
       sodipodi:cy="12.094843"
       sodipodi:cx="-27.86669"
       id="path3004"
       style="fill:#ffffff;fill-opacity:1;fill-rule:nonzero;stroke:none"
       sodipodi:type="arc"
       inkscape:transform-center-x="8.7504857"
       inkscape:transform-center-y="8.7504917" />
    <path
       inkscape:transform-center-y="12.375011"
       inkscape:transform-center-x="-1.6936172e-05"
       sodipodi:type="arc"
       style="fill:#ffffff;fill-opacity:0.17647059;fill-rule:nonzero;stroke:none"
       id="path3006"
       sodipodi:cx="-27.86669"
       sodipodi:cy="12.094843"
       sodipodi:rx="6.0735092"
       sodipodi:ry="6.4903188"
       d="m -21.79318,12.094843 c 0,3.584504 -2.719203,6.490319 -6.07351,6.490319 -3.354306,0 -6.073509,-2.905815 -6.073509,-6.490319 0,-3.5845042 2.719203,-6.4903189 6.073509,-6.4903189 3.354307,0 6.07351,2.9058147 6.07351,6.4903189 z"
       transform="matrix(-1.087848,0,0,-1.0179861,17.231538,1032.4038)" />
    <path
       transform="matrix(-0.76922466,0.76922466,-0.7198249,-0.7198249,52.317611,1042.9843)"
       d="m -21.79318,12.094843 c 0,3.584504 -2.719203,6.490319 -6.07351,6.490319 -3.354306,0 -6.073509,-2.905815 -6.073509,-6.490319 0,-3.5845042 2.719203,-6.4903189 6.073509,-6.4903189 3.354307,0 6.07351,2.9058147 6.07351,6.4903189 z"
       sodipodi:ry="6.4903188"
       sodipodi:rx="6.0735092"
       sodipodi:cy="12.094843"
       sodipodi:cx="-27.86669"
       id="path3008"
       style="fill:#ffffff;fill-opacity:0.29411766;fill-rule:nonzero;stroke:none"
       sodipodi:type="arc"
       inkscape:transform-center-x="-8.7504805"
       inkscape:transform-center-y="8.7505161" />
    <path
       inkscape:transform-center-x="-12.375059"
       sodipodi:type="arc"
       style="fill:#ffffff;fill-opacity:0.41176471;fill-rule:nonzero;stroke:none"
       id="path3011"
       sodipodi:cx="-27.86669"
       sodipodi:cy="12.094843"
       sodipodi:rx="6.0735092"
       sodipodi:ry="6.4903188"
       d="m -21.79318,12.094843 c 0,3.584504 -2.719203,6.490319 -6.07351,6.490319 -3.354306,0 -6.073509,-2.905815 -6.073509,-6.490319 0,-3.5845042 2.719203,-6.4903189 6.073509,-6.4903189 3.354307,0 6.07351,2.9058147 6.07351,6.4903189 z"
       transform="matrix(0,1.087848,-1.0179861,0,84.608725,1025.6561)"
       inkscape:transform-center-y="1.8941577e-05" />
    <path
       transform="matrix(0.76922466,0.76922466,-0.7198249,0.7198249,95.189114,990.56996)"
       d="m -21.79318,12.094843 c 0,3.584504 -2.719203,6.490319 -6.07351,6.490319 -3.354306,0 -6.073509,-2.905815 -6.073509,-6.490319 0,-3.5845042 2.719203,-6.4903189 6.073509,-6.4903189 3.354307,0 6.07351,2.9058147 6.07351,6.4903189 z"
       sodipodi:ry="6.4903188"
       sodipodi:rx="6.0735092"
       sodipodi:cy="12.094843"
       sodipodi:cx="-27.86669"
       id="path3013"
       style="fill:#ffffff;fill-opacity:0.52941179;fill-rule:nonzero;stroke:none"
       sodipodi:type="arc"
       inkscape:transform-center-x="-8.750488"
       inkscape:transform-center-y="-8.7505097" />
    <path
       inkscape:transform-center-y="-12.37504"
       transform="matrix(0.59831637,0,0,0.55989238,64.219319,974.95711)"
       d="m -21.79318,12.094843 c 0,3.584504 -2.719203,6.490319 -6.07351,6.490319 -3.354306,0 -6.073509,-2.905815 -6.073509,-6.490319 0,-3.5845042 2.719203,-6.4903189 6.073509,-6.4903189 3.354307,0 6.07351,2.9058147 6.07351,6.4903189 z"
       sodipodi:ry="6.4903188"
       sodipodi:rx="6.0735092"
       sodipodi:cy="12.094843"
       sodipodi:cx="-27.86669"
       id="path3027"
       style="fill:#ffffff;fill-opacity:0.64705884;fill-rule:nonzero;stroke:none"
       sodipodi:type="arc" />
    <path
       inkscape:transform-center-x="8.7504714"
       sodipodi:type="arc"
       style="fill:#ffffff;fill-opacity:0.7647059;fill-rule:nonzero;stroke:none"
       id="path3029"
       sodipodi:cx="-27.86669"
       sodipodi:cy="12.094843"
       sodipodi:rx="6.0735092"
       sodipodi:ry="6.4903188"
       d="m -21.79318,12.094843 c 0,3.584504 -2.719203,6.490319 -6.07351,6.490319 -3.354306,0 -6.073509,-2.905815 -6.073509,-6.490319 0,-3.5845042 2.719203,-6.4903189 6.073509,-6.4903189 3.354307,0 6.07351,2.9058147 6.07351,6.4903189 z"
       transform="matrix(0.42307356,-0.42307356,0.39590369,0.39590369,44.921974,969.13785)"
       inkscape:transform-center-y="-8.7505027" />
    <path
       transform="matrix(0,-0.59831637,0.55989236,0,27.161855,978.66838)"
       d="m -21.79318,12.094843 c 0,3.584504 -2.719203,6.490319 -6.07351,6.490319 -3.354306,0 -6.073509,-2.905815 -6.073509,-6.490319 0,-3.5845042 2.719203,-6.4903189 6.073509,-6.4903189 3.354307,0 6.07351,2.9058147 6.07351,6.4903189 z"
       sodipodi:ry="6.4903188"
       sodipodi:rx="6.0735092"
       sodipodi:cy="12.094843"
       sodipodi:cx="-27.86669"
       id="path3031"
       style="fill:#ffffff;fill-opacity:0.88235295;fill-rule:nonzero;stroke:none"
       sodipodi:type="arc"
       inkscape:transform-center-x="12.375055" />
    <path
       inkscape:transform-center-y="8.7505121"
       inkscape:transform-center-x="8.7504851"
       sodipodi:type="arc"
       style="fill:#ffffff;fill-opacity:1;fill-rule:nonzero;stroke:none"
       id="path3033"
       sodipodi:cx="-27.86669"
       sodipodi:cy="12.094843"
       sodipodi:rx="6.0735092"
       sodipodi:ry="6.4903188"
       d="m -21.79318,12.094843 c 0,3.584504 -2.719203,6.490319 -6.07351,6.490319 -3.354306,0 -6.073509,-2.905815 -6.073509,-6.490319 0,-3.5845042 2.719203,-6.4903189 6.073509,-6.4903189 3.354307,0 6.07351,2.9058147 6.07351,6.4903189 z"
       transform="matrix(-0.42307356,-0.42307356,0.39590369,-0.39590369,21.34264,997.9658)" />
    <path
       transform="matrix(-0.59831637,0,0,-0.55989236,30.873149,1015.7258)"
       d="m -21.79318,12.094843 c 0,3.584504 -2.719203,6.490319 -6.07351,6.490319 -3.354306,0 -6.073509,-2.905815 -6.073509,-6.490319 0,-3.5845042 2.719203,-6.4903189 6.073509,-6.4903189 3.354307,0 6.07351,2.9058147 6.07351,6.4903189 z"
       sodipodi:ry="6.4903188"
       sodipodi:rx="6.0735092"
       sodipodi:cy="12.094843"
       sodipodi:cx="-27.86669"
       id="path3035"
       style="fill:#ffffff;fill-opacity:0.17647059;fill-rule:nonzero;stroke:none"
       sodipodi:type="arc"
       inkscape:transform-center-x="-1.6951604e-05"
       inkscape:transform-center-y="12.37508" />
    <path
       inkscape:transform-center-y="8.7504827"
       inkscape:transform-center-x="-8.7504815"
       sodipodi:type="arc"
       style="fill:#ffffff;fill-opacity:0.29411766;fill-rule:nonzero;stroke:none"
       id="path3037"
       sodipodi:cx="-27.86669"
       sodipodi:cy="12.094843"
       sodipodi:rx="6.0735092"
       sodipodi:ry="6.4903188"
       d="m -21.79318,12.094843 c 0,3.584504 -2.719203,6.490319 -6.07351,6.490319 -3.354306,0 -6.073509,-2.905815 -6.073509,-6.490319 0,-3.5845042 2.719203,-6.4903189 6.073509,-6.4903189 3.354307,0 6.07351,2.9058147 6.07351,6.4903189 z"
       transform="matrix(-0.42307356,0.42307356,-0.39590369,-0.39590369,50.170489,1021.545)" />
    <path
       transform="matrix(0,0.59831637,-0.55989236,0,67.930603,1012.0145)"
       d="m -21.79318,12.094843 c 0,3.584504 -2.719203,6.490319 -6.07351,6.490319 -3.354306,0 -6.073509,-2.905815 -6.073509,-6.490319 0,-3.5845042 2.719203,-6.4903189 6.073509,-6.4903189 3.354307,0 6.07351,2.9058147 6.07351,6.4903189 z"
       sodipodi:ry="6.4903188"
       sodipodi:rx="6.0735092"
       sodipodi:cy="12.094843"
       sodipodi:cx="-27.86669"
       id="path3039"
       style="fill:#ffffff;fill-opacity:0.41176471;fill-rule:nonzero;stroke:none"
       sodipodi:type="arc"
       inkscape:transform-center-x="-12.375059"
       inkscape:transform-center-y="1.4015415e-05" />
    <path
       inkscape:transform-center-y="-8.7505111"
       inkscape:transform-center-x="-8.7504879"
       sodipodi:type="arc"
       style="fill:#ffffff;fill-opacity:0.52941179;fill-rule:nonzero;stroke:none"
       id="path3041"
       sodipodi:cx="-27.86669"
       sodipodi:cy="12.094843"
       sodipodi:rx="6.0735092"
       sodipodi:ry="6.4903188"
       d="m -21.79318,12.094843 c 0,3.584504 -2.719203,6.490319 -6.07351,6.490319 -3.354306,0 -6.073509,-2.905815 -6.073509,-6.490319 0,-3.5845042 2.719203,-6.4903189 6.073509,-6.4903189 3.354307,0 6.07351,2.9058147 6.07351,6.4903189 z"
       transform="matrix(0.42307356,0.42307356,-0.39590369,0.39590369,73.749811,992.7172)" />
    <path
       sodipodi:type="arc"
       style="fill:#ffffff;fill-opacity:0.64705884;fill-rule:nonzero;stroke:none"
       id="path3045"
       sodipodi:cx="-27.86669"
       sodipodi:cy="12.094843"
       sodipodi:rx="6.0735092"
       sodipodi:ry="6.4903188"
       d="m -21.79318,12.094843 c 0,3.584504 -2.719203,6.490319 -6.07351,6.490319 -3.354306,0 -6.073509,-2.905815 -6.073509,-6.490319 0,-3.5845042 2.719203,-6.4903189 6.073509,-6.4903189 3.354307,0 6.07351,2.9058147 6.07351,6.4903189 z"
       transform="matrix(0.32907401,0,0,0.30794081,56.71643,984.13)"
       inkscape:transform-center-y="-12.37504" />
    <path
       inkscape:transform-center-y="-8.7505014"
       transform="matrix(0.23269047,-0.23269047,0.21774704,0.21774704,46.102889,980.92947)"
       d="m -21.79318,12.094843 c 0,3.584504 -2.719203,6.490319 -6.07351,6.490319 -3.354306,0 -6.073509,-2.905815 -6.073509,-6.490319 0,-3.5845042 2.719203,-6.4903189 6.073509,-6.4903189 3.354307,0 6.07351,2.9058147 6.07351,6.4903189 z"
       sodipodi:ry="6.4903188"
       sodipodi:rx="6.0735092"
       sodipodi:cy="12.094843"
       sodipodi:cx="-27.86669"
       id="path3047"
       style="fill:#ffffff;fill-opacity:0.7647059;fill-rule:nonzero;stroke:none"
       sodipodi:type="arc"
       inkscape:transform-center-x="8.750472" />
    <path
       inkscape:transform-center-x="12.375055"
       sodipodi:type="arc"
       style="fill:#ffffff;fill-opacity:0.88235295;fill-rule:nonzero;stroke:none"
       id="path3049"
       sodipodi:cx="-27.86669"
       sodipodi:cy="12.094843"
       sodipodi:rx="6.0735092"
       sodipodi:ry="6.4903188"
       d="m -21.79318,12.094843 c 0,3.584504 -2.719203,6.490319 -6.07351,6.490319 -3.354306,0 -6.073509,-2.905815 -6.073509,-6.490319 0,-3.5845042 2.719203,-6.4903189 6.073509,-6.4903189 3.354307,0 6.07351,2.9058147 6.07351,6.4903189 z"
       transform="matrix(0,-0.32907401,0.30794081,0,36.334824,986.17117)" />
    <path
       transform="matrix(-0.23269047,-0.23269047,0.21774704,-0.21774704,33.134255,996.78469)"
       d="m -21.79318,12.094843 c 0,3.584504 -2.719203,6.490319 -6.07351,6.490319 -3.354306,0 -6.073509,-2.905815 -6.073509,-6.490319 0,-3.5845042 2.719203,-6.4903189 6.073509,-6.4903189 3.354307,0 6.07351,2.9058147 6.07351,6.4903189 z"
       sodipodi:ry="6.4903188"
       sodipodi:rx="6.0735092"
       sodipodi:cy="12.094843"
       sodipodi:cx="-27.86669"
       id="path3051"
       style="fill:#ffffff;fill-opacity:1;fill-rule:nonzero;stroke:none"
       sodipodi:type="arc"
       inkscape:transform-center-x="8.7504853"
       inkscape:transform-center-y="8.7505087" />
    <path
       inkscape:transform-center-y="12.37507"
       inkscape:transform-center-x="-1.6983797e-05"
       sodipodi:type="arc"
       style="fill:#ffffff;fill-opacity:0.17647059;fill-rule:nonzero;stroke:none"
       id="path3053"
       sodipodi:cx="-27.86669"
       sodipodi:cy="12.094843"
       sodipodi:rx="6.0735092"
       sodipodi:ry="6.4903188"
       d="m -21.79318,12.094843 c 0,3.584504 -2.719203,6.490319 -6.07351,6.490319 -3.354306,0 -6.073509,-2.905815 -6.073509,-6.490319 0,-3.5845042 2.719203,-6.4903189 6.073509,-6.4903189 3.354307,0 6.07351,2.9058147 6.07351,6.4903189 z"
       transform="matrix(-0.32907401,0,0,-0.30794081,38.376034,1006.5529)" />
    <path
       transform="matrix(-0.23269047,0.23269047,-0.21774704,-0.21774704,48.989571,1009.7534)"
       d="m -21.79318,12.094843 c 0,3.584504 -2.719203,6.490319 -6.07351,6.490319 -3.354306,0 -6.073509,-2.905815 -6.073509,-6.490319 0,-3.5845042 2.719203,-6.4903189 6.073509,-6.4903189 3.354307,0 6.07351,2.9058147 6.07351,6.4903189 z"
       sodipodi:ry="6.4903188"
       sodipodi:rx="6.0735092"
       sodipodi:cy="12.094843"
       sodipodi:cx="-27.86669"
       id="path3055"
       style="fill:#ffffff;fill-opacity:0.29411766;fill-rule:nonzero;stroke:none"
       sodipodi:type="arc"
       inkscape:transform-center-x="-8.7504809"
       inkscape:transform-center-y="8.7505014" />
    <path
       inkscape:transform-center-x="-12.375059"
       sodipodi:type="arc"
       style="fill:#ffffff;fill-opacity:0.41176471;fill-rule:nonzero;stroke:none"
       id="path3057"
       sodipodi:cx="-27.86669"
       sodipodi:cy="12.094843"
       sodipodi:rx="6.0735092"
       sodipodi:ry="6.4903188"
       d="m -21.79318,12.094843 c 0,3.584504 -2.719203,6.490319 -6.07351,6.490319 -3.354306,0 -6.073509,-2.905815 -6.073509,-6.490319 0,-3.5845042 2.719203,-6.4903189 6.073509,-6.4903189 3.354307,0 6.07351,2.9058147 6.07351,6.4903189 z"
       transform="matrix(0,0.32907401,-0.30794081,0,58.757633,1004.5117)" />
    <path
       transform="matrix(0.23269047,0.23269047,-0.21774704,0.21774704,61.958202,993.89795)"
       d="m -21.79318,12.094843 c 0,3.584504 -2.719203,6.490319 -6.07351,6.490319 -3.354306,0 -6.073509,-2.905815 -6.073509,-6.490319 0,-3.5845042 2.719203,-6.4903189 6.073509,-6.4903189 3.354307,0 6.07351,2.9058147 6.07351,6.4903189 z"
       sodipodi:ry="6.4903188"
       sodipodi:rx="6.0735092"
       sodipodi:cy="12.094843"
       sodipodi:cx="-27.86669"
       id="path3059"
       style="fill:#ffffff;fill-opacity:0.52941179;fill-rule:nonzero;stroke:none"
       sodipodi:type="arc"
       inkscape:transform-center-x="-8.7504878"
       inkscape:transform-center-y="-8.7505141" />
  </g>
</svg>
