<?xml version="1.0" encoding="UTF-8" standalone="no"?>
<!-- Created with Inkscape (http://www.inkscape.org/) -->

<svg
   xmlns:dc="http://purl.org/dc/elements/1.1/"
   xmlns:cc="http://creativecommons.org/ns#"
   xmlns:rdf="http://www.w3.org/1999/02/22-rdf-syntax-ns#"
   xmlns:svg="http://www.w3.org/2000/svg"
   xmlns="http://www.w3.org/2000/svg"
   xmlns:xlink="http://www.w3.org/1999/xlink"
   xmlns:sodipodi="http://sodipodi.sourceforge.net/DTD/sodipodi-0.dtd"
   xmlns:inkscape="http://www.inkscape.org/namespaces/inkscape"
   width="96"
   height="96"
   id="svg2"
   version="1.1"
   inkscape:version="0.48.4 r9939"
   sodipodi:docname="application-x-font-ttf.svg">
  <defs
     id="defs4">
    <filter
       id="filter3174-3"
       color-interpolation-filters="sRGB">
      <feGaussianBlur
         stdDeviation="1.71"
         id="feGaussianBlur3176-1" />
    </filter>
    <linearGradient
       gradientTransform="scale(1.0058652,0.994169)"
       gradientUnits="userSpaceOnUse"
       id="ButtonShadow-8"
       y2="7.0165396"
       x2="45.447727"
       y1="92.539597"
       x1="45.447727">
      <stop
         offset="0"
         style="stop-color:#000000;stop-opacity:1"
         id="stop3750-45" />
      <stop
         offset="1"
         style="stop-color:#000000;stop-opacity:0.58823532"
         id="stop3752-7" />
    </linearGradient>
    <filter
       id="filter3174-3-1"
       color-interpolation-filters="sRGB">
      <feGaussianBlur
         stdDeviation="1.71"
         id="feGaussianBlur3176-1-8" />
    </filter>
    <linearGradient
       gradientTransform="scale(1.0058652,0.994169)"
       gradientUnits="userSpaceOnUse"
       id="ButtonShadow-8-0"
       y2="7.0165396"
       x2="45.447727"
       y1="92.539597"
       x1="45.447727">
      <stop
         offset="0"
         style="stop-color:#000000;stop-opacity:1"
         id="stop3750-45-9" />
      <stop
         offset="1"
         style="stop-color:#000000;stop-opacity:0.58823532"
         id="stop3752-7-3" />
    </linearGradient>
    <filter
       id="filter3174-3-17"
       color-interpolation-filters="sRGB">
      <feGaussianBlur
         stdDeviation="1.71"
         id="feGaussianBlur3176-1-3" />
    </filter>
    <linearGradient
       gradientTransform="scale(1.0058652,0.994169)"
       gradientUnits="userSpaceOnUse"
       id="ButtonShadow-8-7"
       y2="7.0165396"
       x2="45.447727"
       y1="92.539597"
       x1="45.447727">
      <stop
         offset="0"
         style="stop-color:#000000;stop-opacity:1"
         id="stop3750-45-8" />
      <stop
         offset="1"
         style="stop-color:#000000;stop-opacity:0.58823532"
         id="stop3752-7-8" />
    </linearGradient>
    <linearGradient
       inkscape:collect="always"
       xlink:href="#ButtonShadow-8-7"
       id="linearGradient3093"
       gradientUnits="userSpaceOnUse"
       gradientTransform="matrix(1.0058652,0,0,0.994169,5.26345,937.18686)"
       x1="45.447727"
       y1="92.539597"
       x2="45.447727"
       y2="7.0165396" />
  </defs>
  <sodipodi:namedview
     id="base"
     pagecolor="#ffffff"
     bordercolor="#666666"
     borderopacity="1.0"
     inkscape:pageopacity="0.0"
     inkscape:pageshadow="2"
     inkscape:zoom="5.6129279"
     inkscape:cx="33.863585"
     inkscape:cy="48.334888"
     inkscape:document-units="px"
     inkscape:current-layer="layer1"
     showgrid="true"
     inkscape:snap-page="true"
     inkscape:snap-global="true"
     inkscape:snap-object-midpoints="false"
     inkscape:object-nodes="true"
     inkscape:window-width="1305"
     inkscape:window-height="744"
     inkscape:window-x="61"
     inkscape:window-y="24"
     inkscape:window-maximized="1"
     inkscape:snap-nodes="true"
     inkscape:snap-bbox="true"
     inkscape:object-paths="true"
     inkscape:snap-center="true">
    <inkscape:grid
       type="xygrid"
       id="grid3925"
       empspacing="5"
       visible="true"
       enabled="true"
       snapvisiblegridlinesonly="true" />
  </sodipodi:namedview>
  <metadata
     id="metadata7">
    <rdf:RDF>
      <cc:Work
         rdf:about="">
        <dc:format>image/svg+xml</dc:format>
        <dc:type
           rdf:resource="http://purl.org/dc/dcmitype/StillImage" />
        <dc:title />
      </cc:Work>
    </rdf:RDF>
  </metadata>
  <g
     inkscape:label="Layer 1"
     inkscape:groupmode="layer"
     id="layer1"
     transform="translate(0,-956.3622)">
    <path
       inkscape:connector-curvature="0"
       style="fill:#56aa1c;fill-opacity:1;fill-rule:nonzero;stroke:none"
       d="m 79,1050.3622 c 3.691096,0 6,-3.309 6,-7 l 0,-78 c 0,-3.6911 -2.308904,-7 -6,-7 l -61,0 c -3.691096,0 -7,3.3089 -7,7 l 0,62 21,23 z"
       id="rect3121"
       sodipodi:nodetypes="ssssssccs" />
    <path
       style="fill:#ffffff;fill-opacity:0.58823532;fill-rule:nonzero;stroke:none"
       d="m 32,1050.3622 0,-23 -21,0 z"
       id="rect3903"
       inkscape:connector-curvature="0"
       sodipodi:nodetypes="cccc" />
    <path
       sodipodi:nodetypes="cccc"
       inkscape:connector-curvature="0"
       id="path3931"
       d="m 32,1027.3622 0,23 21,0 z"
       style="fill:#2d2d2d;fill-opacity:0.58823532;fill-rule:nonzero;stroke:none" />
    <g
       id="layer2"
       style="display:none"
       transform="translate(39.84429,874.99134)">
      <rect
         width="86"
         height="85"
         rx="6"
         ry="6"
         x="5"
         y="7"
         id="rect3745"
         style="opacity:0.9;fill:url(#ButtonShadow-8);fill-opacity:1;fill-rule:nonzero;stroke:none;filter:url(#filter3174-3)" />
    </g>
    <g
       id="layer2-0"
       style="display:none"
       transform="translate(40.3598,932.47103)">
      <rect
         width="86"
         height="85"
         rx="6"
         ry="6"
         x="5"
         y="7"
         id="rect3745-2"
         style="opacity:0.9;fill:url(#ButtonShadow-8-0);fill-opacity:1;fill-rule:nonzero;stroke:none;filter:url(#filter3174-3-1)" />
    </g>
    <rect
       style="opacity:0.9;fill:url(#linearGradient3093);fill-opacity:1;fill-rule:nonzero;stroke:none;display:none;filter:url(#filter3174-3-17)"
       id="rect3745-5"
       y="944.18689"
       x="10.26345"
       ry="6"
       rx="6"
       height="85"
       width="86" />
    <path
       style="font-size:38.7795105px;font-style:normal;font-variant:normal;font-weight:normal;font-stretch:normal;text-align:end;line-height:125%;letter-spacing:0px;word-spacing:0px;text-anchor:end;fill:#ffffff;fill-opacity:1;stroke:none;font-family:Andale Mono;-inkscape-font-specification:Andale Mono"
       d="M 40.13197,972.36248 40,972.46101 40.131955,973.4955 40,974.72704 l 0,1.57635 0.571848,0 c 0,-0.27923 0.216991,-0.39407 0.615834,-0.3941 l 0,-0.98521 -0.923753,-0.19704 0.439883,-0.54188 0.175953,0 0.131955,0.14771 c 0.189925,-0.0373 0.381922,-0.26141 0.571848,-0.68966 l 0.571848,0.0985 0.615836,-0.24632 c -3e-6,-0.29783 0.154991,-0.4433 0.439881,-0.44334 l 0,-0.29557 -0.307917,-0.39409 c -0.398844,0.0558 -0.615839,0.17072 -0.615836,0.39409 l -0.131955,0 0,-0.39409 -2.023461,0 z m 3.914957,0 0,0.0985 0.307917,0.88672 -0.175953,0.1477 -0.703812,-0.29556 -0.263931,0.44334 c 0.132945,0.55856 0.324942,0.83749 0.571848,0.83743 l -0.439882,1.28079 0.571846,0.1477 0,0.24631 c -0.246906,2e-5 -0.556897,0.14551 -0.879765,0.44335 l -0.131955,0 -0.131955,-0.83743 -0.747799,0.14771 -0.439884,0 -0.131955,-0.14771 -0.131955,0.14771 0.131955,0.0985 c -1e-6,0.39099 -0.253998,0.59117 -0.747801,0.59112 l 0,0.14771 0.48387,0.44335 0.131955,0 0.131955,-0.14771 c -10e-7,0.18623 0.154992,0.24633 0.439883,0.24631 l 0,0.1477 -0.307919,0.29557 0.307919,1.28078 c -0.170933,4e-5 -0.288927,0.16956 -0.307919,0.54188 l -0.131955,0 0,-0.2463 0.131955,-0.68967 -0.879765,0 -0.571848,0.39409 c 0,0.57718 0.408992,0.89218 1.187685,0.98524 l 0,-0.29558 0.131955,0 0,0.19704 c -0.05697,0.37238 -0.46597,0.54191 -1.187682,0.54188 l 0,-0.44334 -0.263931,0 0,0.59112 0.263931,0 -0.263931,0.98521 0,1.13302 0.571848,0 0,-0.14773 c 0.778691,-0.46538 1.187681,-0.83507 1.187682,-1.13299 l -0.307917,-0.98521 0.703812,0 0.131955,0.1477 c 0.398841,-0.35371 0.615834,-0.66325 0.615837,-0.8867 l 0.307917,0 0,1.13301 c 0.702718,0.67025 1.296721,1.03449 1.847507,1.03447 l 0,0.29557 -0.879764,0.24629 -0.263931,0 0,-0.14768 0.131955,-0.0985 -0.263931,-0.29558 -0.175953,0 0,0.54188 -0.263928,0 -0.30792,-0.83744 0.30792,-0.29556 -0.439884,-0.44336 -0.439882,0 c -3e-6,0.40962 -0.192,0.71919 -0.571847,0.8867 l 0,0.1477 0.131955,0.14771 0,0.54187 -0.439882,0 0,0.73892 0.571846,-0.19704 0,-0.24631 -0.263928,0 0,-0.1477 0.263928,0 0.747801,0.1477 0,-0.29557 0.307918,0 0,0.44334 c -3e-6,0.20482 -0.154999,0.2956 -0.439882,0.29558 l 0,0.2463 0.131955,-0.0986 1.27566,0.24632 0.175953,0 0.131955,-0.14771 c -5e-6,0.55854 0.309985,0.83746 0.879764,0.83743 l 0,0.29557 c -0.284892,3e-5 -0.439888,0.0908 -0.439882,0.29555 l 0,0.83744 -0.747801,0 -0.131955,-0.0985 -0.263931,0.24632 c -3e-6,0.39098 0.210005,0.75523 0.703814,1.03447 l 0,0.0985 c -0.607764,3e-5 -0.972767,-0.31497 -1.143695,-0.98521 l -0.439884,0.1477 0,0.59113 c -3e-6,0.1862 0.154992,0.24634 0.439884,0.2463 l -0.131955,0.73891 0,0.54188 1.451612,0 0,-0.29557 0.571847,0.29557 0.263931,-0.83743 0.263928,0 0.175953,0.14769 0,-0.44333 0.571848,-0.14772 0.439884,-0.39408 0,-0.29557 -0.131955,-0.1477 0.131955,0 0.131955,-0.1477 0.175953,0.8867 c 0.398835,2e-5 0.571839,0.11479 0.571848,0.39407 l -0.131955,0 -0.175953,0.1477 -0.835777,0 0,0.5419 -1.187682,0 c -6e-6,0.48407 -0.192003,0.73891 -0.571848,0.73889 l 0.307917,0.83744 -0.439882,0.1477 0,0.14771 c -3e-6,0.67024 0.228994,1.11324 0.703813,1.28079 l 0.439881,0 0.307918,-0.29557 0,-0.39409 -0.131955,-0.14771 0.131955,0 0.131955,-0.14771 0.131955,0.68967 c -6e-6,0.18619 -0.111015,0.29558 -0.395893,0.29557 l 0,0.59113 0.263929,0.2463 0.703812,0 c 0.28488,2e-5 0.439876,-0.20557 0.439882,-0.68964 l 0.175953,0 c -6e-6,0.48407 0.074,0.68966 0.26393,0.68964 l 0.439884,0 0.439882,-0.2463 -0.131955,-0.14771 c -9e-6,-0.67019 0.148005,-1.03446 0.527859,-1.03449 l 0,-6.79801 c -10e-6,-0.18614 -0.111015,-0.29553 -0.395895,-0.29557 l 0,-0.24629 0.395895,0 0,-1.72413 -1.099707,-0.44336 0,-0.1477 0.131955,0 0.967742,0.1477 0,-4.38421 c -0.569783,-0.20476 -0.835785,-0.40492 -0.835776,-0.59115 l 0,-0.24629 0.307917,-0.29557 c 0.189915,3e-5 0.263922,0.27896 0.263929,0.83744 l 0.26393,0 0,-3.84236 -0.26393,-0.24631 -4.926684,0 z m 7.126097,0 -0.307917,0.24631 0,0.59113 0.307917,0 0,0.44334 -0.307917,0 0,4.38423 0.131955,0.0985 -0.131955,0.19704 0,1.13299 0.307917,0.2463 5.366567,0 0.395895,-0.2463 0.439884,0.2463 8.269792,0 c -2.4e-5,-0.27922 0.07398,-0.39405 0.263931,-0.39407 l 0,0.39407 3.78299,0 L 70,979.45605 l 0,-6.84726 -0.307917,-0.24631 -5.234603,0 0,0.0985 0.175953,0.14772 0,0.14771 -0.30792,0 -0.131955,-0.14771 -0.131955,0.14771 0,-0.39409 -3.651026,0 0,0.39409 0.175953,0.1477 -0.175953,0 -0.131955,0.14771 c -0.22793,4e-5 -0.382924,-0.22417 -0.439882,-0.68966 l -1.847508,0 -0.175953,0.0985 -0.131955,-0.0985 -2.463343,0 c -1.5e-5,0.67027 -0.15501,0.98527 -0.439882,0.98521 l -0.131955,0 0,-0.44335 0.263929,-0.29556 -0.263929,-0.2463 -3.475072,0 z m -5.05865,0.98521 0.263931,0.29557 -0.263931,0.24632 -0.351906,0 0.351906,-0.54189 z m 2.28739,0.1477 0.131955,0 0.175953,0.14773 c -9e-6,0.46547 0.074,0.68967 0.263928,0.68964 l -0.439881,0.39409 c -0.189933,3e-5 -0.38193,-0.33901 -0.571848,-1.08373 l 0.439884,-0.14773 z m 4.04692,0.3941 0.131954,0 0.175955,0.1477 -0.175955,0.44336 -0.395891,-0.29558 0.263928,-0.29555 z m -6.950144,0.44335 0.131955,0 -0.395895,0.39408 -0.175953,0 0.439884,-0.39408 z m 18.695009,0 0.131955,0 0,0.14771 -0.439882,0.83743 -0.835778,0 0.131955,-0.59113 0.131955,0.19704 c 0.569751,3e-5 0.879743,-0.20013 0.879765,-0.59113 z m -7.08211,0.39408 0.395894,0.34483 -0.263927,0.24629 -0.30792,0 0.175953,-0.59112 z m -10.865101,0.34483 1.275659,0 0,0.24629 c -0.246908,6e-5 -0.475907,0.21883 -0.703811,0.59115 -0.873659,0.0373 -1.319652,0.20678 -1.319646,0.54188 l -0.263931,0 0,-0.29558 0.263931,0 0,-0.83745 0.439881,0 -0.175953,0.14771 0.351906,0.29557 0.131955,0 0,-0.68965 z m 7.653958,0.24629 0.307917,0 0,0.29558 -0.307917,0.29557 0,-0.59115 z m 8.973604,0.29558 0,0.39408 -0.43988,0 0.43988,-0.39408 z m -10.865097,0.68966 c 0.607744,0.33514 1.053739,0.81423 1.319645,1.42856 l 0,0.1477 -0.439881,0.14771 -0.131955,0 0,-0.83743 -0.43988,-0.59115 -0.131955,0.14771 -0.175953,0 -0.131955,-0.14771 0,-0.14768 0.131955,-0.14771 z m -6.950147,0.44336 0.175953,0 -0.175953,0.44333 -0.263931,0 0,-0.1477 0.263931,-0.29557 z m -1.715542,0.29555 0,0.39408 -0.703814,0.14771 -0.175952,0 0,-0.29557 0.879766,-0.2463 z m 3.607039,0.2463 0.307917,0 0,0.29558 0.43988,0 0.703814,0.14769 0,0.1477 -0.131955,0 -1.319647,0.59115 -0.131955,0 0,-0.44336 0.263931,0 -0.131955,-0.73892 z m -3.475074,0.14771 0.307917,0 0,0.44334 -0.307917,0 0,-0.44334 z m 1.75953,0.29556 0.131955,0 0.131955,0.1477 -0.263931,0.24631 -0.307917,0 0,-0.0985 0.307917,-0.29558 z m 11.568913,0.1477 0.571848,0 -0.263931,0.24631 -0.307917,0 0,-0.24631 z m -4.354838,0.24631 0.615836,0 -0.30792,0.34484 -0.307916,0 0,-0.34484 z m 7.829911,0 0.307917,0 0,0.4926 -0.439883,0.3941 -0.131955,0 0.263931,-0.8867 z m -15.615834,0.4926 0.263931,0 0,0.3941 -0.263931,0 0,-0.3941 z m 8.797653,0.0985 0.175954,0 0.131955,0.14771 -0.131955,0.44336 -0.175954,0 0,-0.59113 z m 8.841642,0.29557 0.307916,0 0,0.54187 -0.307916,-0.24629 0,-0.29558 z m -13.768327,0.29558 0.307917,0 0.131955,0.14768 -0.131955,0.44336 -0.879765,0 -0.571847,0.54188 0,0.1477 c 0.303872,3e-5 0.439874,0.0602 0.439883,0.2463 l 0,0.1477 -1.451612,-0.39407 -0.131955,0.1477 -0.7478,-0.1477 0,-0.59113 0.439883,-0.0985 0.307917,0.24631 0.835779,0 1.451612,-0.83743 z m -2.595308,2.85713 c 0.873648,0.24206 1.492645,0.52639 1.891496,0.93597 l 0,0.19704 -0.439883,0 c -8e-6,-0.39095 -0.229007,-0.59111 -0.703812,-0.59115 l -0.307917,0 -0.131955,0.14771 -0.48387,-0.44336 0,-0.14769 0.175953,-0.0985 z m 2.331377,0.83743 0.263931,0.29558 -0.571848,0 0.307917,-0.29558 z m -8.269792,0.0989 0,1.42855 0.263929,0.29558 0.175955,-0.98524 -0.175955,-0.73889 -0.263929,0 z m 6.378299,0.19704 0.131955,0 0,0.14769 0.439884,0.68966 -0.263931,0 c -8e-6,-0.37232 -0.118005,-0.59109 -0.307917,-0.59113 l 0,-0.24629 z m -4.926686,0.2463 c -0.132945,0.39099 -0.386946,0.6699 -0.747801,0.83745 l 0.175953,0.1477 0,0.1477 -0.175953,0.1477 0,0.29557 1.055718,0.29556 0,0.1477 c -0.569775,4e-5 -0.879767,0.0602 -0.879765,0.2463 l 0,0.73894 -0.307917,0 -0.131955,-0.44336 0.131955,0 -0.307919,-0.29558 -0.263929,0 0,5.5665 0.703812,0.68966 0,0.14768 -0.131955,0 -0.131955,-0.14768 -0.175953,0 -0.263939,0.29587 0,3.10344 c 0,0.1862 0.154994,0.29558 0.439884,0.29557 l 0,0.14771 c -0.284901,8e-5 -0.439894,0.10946 -0.439894,0.29563 l 0,8.37432 0.263929,0.4434 0,0.3941 -0.263929,0.4433 0,0.1477 1.011729,0 -1.011729,0.8376 0,2.5615 c 0,0.1863 0.191997,0.2464 0.571848,0.2464 l 0,0.1477 -0.307919,0 0,1.0344 c 0,0.1862 0.371988,0.2463 1.05572,0.2463 0.113955,0.5772 0.268947,0.8868 0.439881,0.8868 l 0.879764,0 0,-0.8868 c -3e-6,-0.1862 -0.290999,-0.2463 -0.879764,-0.2463 l 0,-1.0344 -0.175953,-0.1477 1.187684,-0.099 -0.131955,-0.739 c -3e-6,-0.3723 -0.371989,-0.5418 -1.055717,-0.5418 l 0.307918,-0.2956 0.131955,0 0.131955,0.1477 0.307917,-0.8374 0,-0.1477 0.439884,0.1477 0.307917,0 c 0.189922,0 0.263928,-0.3643 0.263931,-1.0345 l 0.131955,0 0,0.1477 0.307917,0.5912 0.439884,0 0,-0.2957 -0.175953,-0.098 0.747801,0 -0.263931,0.8375 0,0.099 0.131955,0.1477 -0.7478,-0.1477 -0.131955,0 -0.307917,0.2956 0,0.4434 c 0.379847,0.037 0.670844,0.2613 0.879765,0.6896 0.759694,-0.1489 1.14369,-0.4092 1.143696,-0.8375 l 0,-0.1477 0.48387,0.1477 1.583578,-1.1329 -0.307918,-0.2957 0.439883,-0.8374 0.307917,0 0.263931,1.1331 0,0.4433 -0.263931,0 0,-0.2956 -0.175953,0 c -0.189931,0.4654 -0.480931,0.6897 -0.879764,0.6897 l 0,0.1477 c -8e-6,0.5772 0.253989,0.8374 0.7478,0.8374 l 0,0.1478 -0.30792,0 -0.835775,-0.6897 -0.571848,0 0,0.8374 0.571848,0 0,0.1477 -0.571848,0.8867 c -0.493811,0 -0.747806,0.1147 -0.747801,0.3942 l -0.703812,0 c -0.189928,0 -0.369921,0.3335 -0.48387,0.9851 l 0.879765,0.1477 c 0.569767,-0.335 0.879759,-0.5954 0.879765,-0.8374 l 0.175953,0 0.263931,0.2463 0,0.1477 -0.131955,0 -0.615834,0.2956 0,0.5911 0.879765,0 0,-0.2955 0.879765,-0.2956 0,0.4433 -0.131955,0.1478 0.43988,0.2463 0.703814,0 0.835777,-0.8376 0,-1.8718 -0.131955,-0.6897 0.131955,-0.1477 0,-0.099 -0.395895,0 -0.131955,0.099 0,-0.2463 c 0.379841,-0.4282 0.527849,-0.7979 0.527859,-1.133 l 0,-9.40884 -0.131955,-1.23153 0.131955,-1.03448 0,-3.25122 -0.263931,0 -0.131955,0.54187 0,0.19705 -0.879765,-0.34483 0,0.1477 c -0.493811,1e-5 -0.703819,0.091 -0.703811,0.29557 0.398833,2e-5 0.571838,0.10933 0.571846,0.29556 l 0,0.29556 -0.131955,-0.14769 -0.747799,0.29556 -0.131955,0 0.131955,-0.73892 0,-0.68966 -0.131955,-0.14768 c -0.474819,1e-5 -0.703818,-0.10934 -0.703812,-0.29558 -6e-6,-0.16753 -0.662993,-0.70129 -1.935484,-1.57636 l 0,-0.39409 0.307918,0 c -4e-6,-0.48403 0.11799,-0.73888 0.307917,-0.7389 -3e-6,-0.65159 -0.408996,-0.9852 -1.187683,-0.98521 l -0.263928,0.44333 0,0.39409 0.131955,0.1477 c 0.284883,10e-6 0.439878,0.10934 0.439882,0.29557 l 0,0.14771 -0.439882,0.1477 0,-0.1477 c -0.189929,1e-5 -0.263933,0.27893 -0.26393,0.83743 -0.512799,3e-5 -0.884788,-0.16951 -1.055717,-0.54188 l 0,-0.14769 c -3e-6,-0.20477 0.253992,-0.29556 0.747799,-0.29557 l 0,-0.9852 -0.26393,-0.29558 -0.175952,0 -0.175953,0.14771 0,-0.14771 c -0.664739,-0.13027 -0.967743,-0.55468 -0.967742,-1.28078 l 0.26393,-0.24631 0.175953,0 0.395895,0.39407 0.483869,-0.29555 -0.351905,-0.83744 0,-0.14769 0.175953,-0.14771 -0.175953,0 c 0.303877,-0.22339 0.483868,-0.557 0.483871,-0.98523 l 0.703812,0 0.307918,-0.29556 0,-0.39408 -0.175953,0 -0.703813,-0.44336 -0.747799,0.14771 c -3e-6,0.1862 0.179988,0.29559 0.483869,0.29557 l -0.175952,0.68964 -0.175953,0 c -0.360858,-0.94946 -0.626862,-1.42853 -0.835778,-1.42855 z m 5.498534,0.73891 0.131955,0 0.175953,0.39409 -0.307917,0 0,-0.39409 z m 0.307917,0.68966 0.263927,0.29558 0,0.29555 -0.263927,0.2463 -2.023461,0.44335 0,-0.44335 1.011729,-0.0985 0.571848,0.0985 c 0.284881,-0.0744 0.439876,-0.35336 0.439884,-0.83743 z m 3.739001,2.56157 0,0.29557 0.175953,0.0986 -0.175953,0.1477 0,0.44335 0.879765,0.83744 0,0.14771 c -0.189936,0.18619 -0.26394,0.55588 -0.263928,1.13299 l -0.175953,0 c -0.09496,-0.76328 -0.230979,-1.13297 -0.439884,-1.13299 l -0.131955,0 0,3.00491 0.131955,0.1477 -0.131955,0.14771 0,1.67487 0.307917,0 0.263931,-0.68967 -0.131955,-0.44333 0,-0.0985 0.131955,-0.19704 -0.131955,-0.1477 0.439884,0.1477 0.131955,0 0.131955,-0.1477 c 0.284874,10e-6 0.439867,0.13999 0.439881,0.34482 l 0,0.68965 -0.131955,0.14771 -0.131955,0 -0.175953,-0.14771 -0.131955,0 -0.131955,0.39409 0.131955,0.14771 0,0.1477 -0.703812,0 0,0.29558 0.835777,0 c 0.4748,1e-5 0.747787,-0.1455 0.747799,-0.44335 l 0,-0.1477 0.439884,0.1477 0.26393,-0.39409 0.175953,0 c 0.18991,0.57716 0.381907,0.83745 0.571846,0.83744 l 3.78299,0 1.143696,-0.29558 0.26393,0.29558 1.01173,0 0.571848,-0.14771 0.615834,0.14771 0.835779,0 0.175952,-0.14771 0.131955,0.14771 1.011731,0 0.131955,-0.14771 0.175953,0.14771 1.71554,0 1.011732,-0.14771 0,0.14771 0.307917,0 0.26393,-0.29558 1.055719,0.14771 0.131955,-0.9852 0,-0.14772 -0.131955,-0.14771 0.131955,-0.14771 0,-1.8719 -0.131955,-0.93596 -0.175953,0 -0.131955,0.0985 -0.307917,0 -0.835776,-0.54187 -0.439884,0.29557 c -0.303906,10e-6 -0.439909,0.16955 -0.439882,0.54186 l -0.175953,0 -0.131955,-0.14769 c -2.4e-5,-0.27924 -0.155022,-0.39406 -0.439883,-0.39409 -0.26592,3e-5 -0.475927,-0.42436 -0.703811,-1.28078 l 0,-0.14771 c 0.398816,2e-5 0.571822,0.16955 0.571847,0.54187 l 0.879765,0 0,0.29557 0.879765,0 c 0.360831,0.39098 0.880828,0.64584 1.583578,0.73892 l 0,-2.61083 -0.307918,0 -0.131955,0.44335 -1.143694,-0.29557 0,-0.1477 0.131955,-0.0986 0.703811,0.0986 0.131955,0 0,-0.0986 -0.263928,-0.29557 -5.80645,0 -0.131955,0.14771 -0.131955,-0.14771 -0.131955,0 -0.307919,0.29557 -1.143694,-0.29557 -2.507332,0 -0.703812,0.14771 -0.439882,-0.14771 -0.439883,0 -0.131955,0.14771 0,-0.14771 -0.703812,0.14771 -1.187684,0 -0.703812,-0.14771 -0.131955,0.14771 -0.175953,0 -0.131955,-0.14771 -0.175953,0 0,0.29557 0.747801,0.68965 -0.439881,0.44334 -0.131955,0 -0.175953,-0.1477 -0.131955,0.1477 -0.263929,0 0.131955,-0.1477 c -0.265908,-0.85638 -0.7119,-1.28074 -1.319649,-1.28079 z m -10.293253,0.29557 0.307917,0 0.175953,0.0986 -0.307917,0.44335 -0.175953,0 -0.131955,-0.0986 0.131955,-0.44334 z m 15.219939,0 0.131955,0 0,0.24629 -0.395895,0.19705 0,-0.19705 0.263931,-0.24629 z m 0.747801,0 0.131955,0 0,0.24629 -0.439883,0.19705 -0.131955,0 0,-0.34482 0.439884,-0.0985 z m -8.269794,0.24629 0.131955,0 0.175953,0.44335 0,0.14771 -0.307917,0 -0.263931,-0.29555 0.263931,-0.29558 z m 13.900292,0 0.879764,0 c 0.398819,0.57718 0.819815,0.88671 1.27566,0.8867 l 0,0.29557 c -0.664762,-0.31648 -0.967765,-0.58996 -0.967743,-0.73892 -0.284911,2e-5 -0.439905,0.16412 -0.439884,0.44335 -0.398862,-0.37231 -0.726862,-0.59111 -1.011728,-0.59113 l 0.263931,-0.29557 z m -15.48387,0.59114 0.131955,0 0.571844,0.29556 0,0.29557 -0.571844,0 -0.131955,-0.44334 0,-0.14771 z m 9.237535,0.29556 0.307917,0.29557 0,0.0985 -0.307917,0 0,-0.39409 z m -2.727273,0.29557 0.30792,0 0.263928,0.24632 0,0.29554 0.131955,0 0,-0.29554 c 0.398829,10e-6 0.615822,-0.0601 0.615837,-0.24632 l 0.131955,0 0,0.0985 -0.747799,1.03449 c -0.474827,-0.24201 -0.703824,-0.61169 -0.703814,-1.133 z m -12.14076,0.54186 0.131955,0 0.131955,0.14772 -0.439883,0.44334 0,-0.44334 0.175953,-0.14772 z m 19.090907,0 0.439881,0.14772 0.131955,0 0.131955,-0.14772 0,0.29559 -0.703812,0 0,-0.29559 z m -4.618769,0.29559 0.571848,0.29554 -0.307917,0.24632 -0.131955,0 -0.131955,-0.39409 0,-0.14771 z m 7.521994,0.29554 0.439881,0 0.263931,0.24632 -0.263931,0.29557 -0.307917,0 -0.131955,-0.54189 z m -10.601173,0.24632 c 0.227898,10e-6 0.636888,0.27894 1.187685,0.83743 l -0.131955,0.73891 -0.307918,0 0,-0.98521 c -0.284901,3e-5 -0.439895,-0.10934 -0.439881,-0.29556 l -0.30792,0 0,-0.29557 z m 10.733137,0.59113 0.175953,0 0,0.59114 -0.175953,0 0,-0.59114 z m 2.771262,0.2463 0.263928,0 0.307918,0.34484 -0.439882,0.39407 -0.131955,-0.73891 z m -10.997067,0.34484 0.395894,0 0,0.39407 0.30792,0 0.131955,-0.1477 0.131955,0.59113 -0.131955,-0.14771 c -0.474827,0.13027 -0.703829,0.24519 -0.703812,0.39409 -0.379866,-0.13027 -0.571863,-0.24511 -0.571848,-0.39409 l 0.703812,-0.29556 -0.263928,-0.39407 z m 6.774193,0.0986 -0.263931,0.88672 -0.439881,-0.14773 0,-0.59113 0.703812,-0.1477 z m -19.090905,0.14773 0.571847,0 c -0.151944,0.65161 -0.343941,0.98521 -0.571847,0.9852 l -0.131955,0 0.131955,0.44335 0,0.14771 -0.307919,0 0,0.29557 0.571847,0 0,-0.59115 1.011732,0 0.131955,-0.44334 0.175953,0 0.131955,0.1477 0.175953,-0.83744 0.263931,0 0,0.14771 -0.131955,0.68966 0.131955,0 0.131955,0.19704 0.439884,0 0,-0.34483 0.439881,0 -0.571847,1.18226 c -6e-6,0.22344 0.253991,0.33825 0.7478,0.39409 -5e-6,0.48407 0.07399,0.73894 0.263931,0.73893 l 0,0.14771 -0.263931,0 -0.175953,-0.14771 -0.175953,1.08374 -0.263928,0 0.131955,-0.68966 0,-0.14771 -0.131955,-0.0985 0.131955,-0.14769 0,-0.14771 -0.571848,-0.59113 -0.263929,0 0,0.44334 -0.307917,-0.29557 0,-0.29557 0.175953,-0.1477 -0.483872,-0.3941 -0.967741,0 -0.175953,0.3941 0.175953,0.59114 -0.747801,0 0,0.98521 -0.307918,0 0,-0.29556 -1.451613,0.29556 0,-0.14769 -0.131955,-0.14771 0,-0.0985 0.747801,-0.1477 0,0.1477 0.835776,-0.29557 -0.131955,-0.73891 0,-0.54188 -0.263931,0 0,-0.29555 0.703813,-0.14771 0,-0.0985 -0.439882,0 0.7478,-1.18226 z m 10.425217,0.29556 0.131955,0 0,0.29556 -0.747801,0.14771 -0.131954,0 0,-0.14771 0.7478,-0.29556 z m 9.677416,0.1477 0.30792,0 c -2.4e-5,0.27927 0.117975,0.39409 0.307917,0.39408 l 0,0.88669 -0.175953,0 -0.439884,-0.9852 0,-0.29557 z m -3.739001,1.42857 0.571848,0.14771 0,0.0985 -0.439884,0.14771 -0.131955,0 0,-0.39409 z m 4.046921,0 0.307917,0 0,0.39409 -0.615837,0.29554 0,-0.29554 c 0.208896,1e-5 0.307896,-0.11467 0.30792,-0.39409 z m -19.838706,1.13299 0.835777,0.14771 0,0.54187 -0.131955,0 0,-0.29557 -0.571846,0.29557 0.131955,0.14769 c -0.11397,0.48408 -0.224966,0.73894 -0.395895,0.73893 l -0.307917,0 c -3e-6,-0.44681 -0.07401,-0.81106 -0.263931,-1.03448 l 0.395895,0.1477 c 0.189922,10e-6 0.307917,-0.2242 0.307918,-0.68965 z m 4.486803,0.14771 0.439881,0 c -0.151947,0.37237 -0.306942,0.54188 -0.439881,0.54187 l 0,-0.54187 z m -0.7478,0.83743 0.307917,0 0,0.39409 -0.307917,-0.24631 0,-0.14769 z m -5.762462,0.1477 0.131955,0 0,0.68967 -0.131955,0.1477 -0.439884,-0.1477 0,-0.24631 0.439884,-0.44336 z m 4.794719,1.28079 0.571848,0 0,0.2463 -0.439884,0.14771 -0.131955,0 0,-0.39409 z m 1.847507,0 c 0.51279,0.20481 0.82278,0.4651 0.879765,0.83744 -0.474819,10e-6 -0.703821,0.22423 -0.703812,0.68966 l -0.439884,0 -0.175953,-0.98523 0,-0.1477 0.439884,-0.3941 z m -6.510262,0.83744 0.131955,0.1477 0.703812,-0.1477 0.351905,0.29556 0,0.1477 -0.747797,0.2463 -0.439884,-0.39408 0,-0.29555 z m 4.486802,0 0.175953,0 0,0.1477 -0.48387,0.44336 -0.571848,0 0,-0.29558 0.879765,-0.29555 z m 1.451613,0.98522 0.131954,0 0,0.59113 -0.263927,0 0.131955,-0.59113 z m -6.202346,0.73899 0.395895,0.1477 0,0.1476 -0.263928,0 -0.131955,-0.1476 0,0.1476 -0.175953,0 0,-0.1476 0.175953,-0.1477 z m 0.571848,0.2955 0.395895,0.3941 0,0.1477 -0.395895,-0.4433 0,-0.099 z m 4.178885,0 1.891496,0.2463 0,0.6897 -0.879764,0.1477 c -8e-6,0.391 -0.07401,0.5912 -0.263931,0.5911 l -0.307917,0 0,-0.1477 c 0.28488,-0.3537 0.439873,-0.6686 0.439881,-0.9852 l 0,-0.1477 -0.879765,-0.1477 0,-0.2464 z m -2.463342,0.5419 0.131955,0 0,0.2956 -0.571848,0 0,-0.1477 0.439884,-0.1478 z m -2.771261,0.8375 0.48387,0 0.263931,0.2955 1.319648,-0.2955 0,0.2955 c -0.911641,0 -1.549633,0.3337 -1.891496,0.9852 l -0.439881,0 0,-0.1477 0.439881,-0.1477 0.131955,0 -0.131955,-0.3941 0,-0.1477 0.131955,-0.1477 -0.307917,0 0,-0.2955 z m 7.697946,0 0.439882,0 0,0.1477 -0.307917,0 c -9e-6,0.2233 0.191988,0.557 0.571848,0.9851 l -0.395895,0 c -9e-6,-0.3723 -0.155004,-0.5418 -0.439884,-0.5418 l 0,-0.4433 0.131955,-0.1477 z m -6.378297,2.0196 0.131955,0.1477 -0.703812,0.8375 0,-0.5912 0.571848,-0.3941 z m 5.938414,0.6897 0.439883,0.1477 0,0.8375 -1.143694,-0.1477 0,-0.099 c 0.493795,0 0.703802,-0.255 0.703811,-0.7391 z m -6.202345,0.9852 0.703812,0 0,0.1477 -0.439881,0.1477 -0.263931,-0.2955 z m -0.439881,0.4433 0.263928,0 0.175953,0.1478 0,0.2463 -0.175953,0 -0.263928,-0.2463 0,-0.1478 z m 0.439881,0.8375 0.527859,0.1477 -0.263928,0.2956 -0.263931,-0.2956 0,-0.1477 z m -0.747801,1.8719 0.175953,0 c -2e-6,0.4468 0.07401,0.7804 0.263931,0.9854 l 0,0.099 -0.747801,0 0,-0.2465 0.175953,-0.1475 -0.307917,-0.2957 c 0.303877,0 0.439879,-0.1146 0.439881,-0.3941 z m 2.199413,0.6897 -0.175953,0.1477 0.307919,0.8374 0.263929,-0.2463 0,-0.7391 -0.395895,0 z m 5.190616,0.9853 0.571846,0 0,0.1477 c -7e-6,0.1861 -0.266011,0.3503 -0.835776,0.4433 l -0.175953,0 0,-0.1478 0.439883,-0.4432 z m -8.137829,1.5763 -0.263929,0.2954 0,0.1477 0.131955,0.099 0.30792,-0.2464 0,-0.1476 -0.175953,-0.1477 z"
       id="text3009"
       inkscape:connector-curvature="0" />
  </g>
</svg>
