<?xml version="1.0" encoding="UTF-8" standalone="no"?>
<!-- Created with Inkscape (http://www.inkscape.org/) -->

<svg
   xmlns:dc="http://purl.org/dc/elements/1.1/"
   xmlns:cc="http://creativecommons.org/ns#"
   xmlns:rdf="http://www.w3.org/1999/02/22-rdf-syntax-ns#"
   xmlns:svg="http://www.w3.org/2000/svg"
   xmlns="http://www.w3.org/2000/svg"
   xmlns:xlink="http://www.w3.org/1999/xlink"
   xmlns:sodipodi="http://sodipodi.sourceforge.net/DTD/sodipodi-0.dtd"
   xmlns:inkscape="http://www.inkscape.org/namespaces/inkscape"
   width="96"
   height="96"
   id="svg2"
   version="1.1"
   inkscape:version="0.48.4 r9939"
   sodipodi:docname="application-vnd.oasis.opendocument.formula (copy).svg">
  <defs
     id="defs4">
    <linearGradient
       inkscape:collect="always"
       id="linearGradient3815">
      <stop
         style="stop-color:#72b844;stop-opacity:1;"
         offset="0"
         id="stop3817" />
      <stop
         style="stop-color:#72b844;stop-opacity:0;"
         offset="1"
         id="stop3819" />
    </linearGradient>
    <filter
       id="filter3174-3"
       color-interpolation-filters="sRGB">
      <feGaussianBlur
         stdDeviation="1.71"
         id="feGaussianBlur3176-1" />
    </filter>
    <linearGradient
       gradientTransform="scale(1.0058652,0.994169)"
       gradientUnits="userSpaceOnUse"
       id="ButtonShadow-8"
       y2="7.0165396"
       x2="45.447727"
       y1="92.539597"
       x1="45.447727">
      <stop
         offset="0"
         style="stop-color:#000000;stop-opacity:1"
         id="stop3750-45" />
      <stop
         offset="1"
         style="stop-color:#000000;stop-opacity:0.58823532"
         id="stop3752-7" />
    </linearGradient>
    <filter
       id="filter3174-3-1"
       color-interpolation-filters="sRGB">
      <feGaussianBlur
         stdDeviation="1.71"
         id="feGaussianBlur3176-1-8" />
    </filter>
    <linearGradient
       gradientTransform="scale(1.0058652,0.994169)"
       gradientUnits="userSpaceOnUse"
       id="ButtonShadow-8-0"
       y2="7.0165396"
       x2="45.447727"
       y1="92.539597"
       x1="45.447727">
      <stop
         offset="0"
         style="stop-color:#000000;stop-opacity:1"
         id="stop3750-45-9" />
      <stop
         offset="1"
         style="stop-color:#000000;stop-opacity:0.58823532"
         id="stop3752-7-3" />
    </linearGradient>
    <filter
       id="filter3174-3-17"
       color-interpolation-filters="sRGB">
      <feGaussianBlur
         stdDeviation="1.71"
         id="feGaussianBlur3176-1-3" />
    </filter>
    <linearGradient
       gradientTransform="scale(1.0058652,0.994169)"
       gradientUnits="userSpaceOnUse"
       id="ButtonShadow-8-7"
       y2="7.0165396"
       x2="45.447727"
       y1="92.539597"
       x1="45.447727">
      <stop
         offset="0"
         style="stop-color:#000000;stop-opacity:1"
         id="stop3750-45-8" />
      <stop
         offset="1"
         style="stop-color:#000000;stop-opacity:0.58823532"
         id="stop3752-7-8" />
    </linearGradient>
    <linearGradient
       inkscape:collect="always"
       xlink:href="#ButtonShadow-8-7"
       id="linearGradient3093"
       gradientUnits="userSpaceOnUse"
       gradientTransform="matrix(1.0058652,0,0,0.994169,5.26345,937.18686)"
       x1="45.447727"
       y1="92.539597"
       x2="45.447727"
       y2="7.0165396" />
    <linearGradient
       inkscape:collect="always"
       xlink:href="#linearGradient3815"
       id="linearGradient3821"
       x1="40"
       y1="11"
       x2="40"
       y2="31"
       gradientUnits="userSpaceOnUse" />
  </defs>
  <sodipodi:namedview
     id="base"
     pagecolor="#ffffff"
     bordercolor="#666666"
     borderopacity="1.0"
     inkscape:pageopacity="0.0"
     inkscape:pageshadow="2"
     inkscape:zoom="5.90625"
     inkscape:cx="18.031746"
     inkscape:cy="48"
     inkscape:document-units="px"
     inkscape:current-layer="layer1"
     showgrid="true"
     inkscape:snap-page="true"
     inkscape:snap-global="true"
     inkscape:snap-object-midpoints="false"
     inkscape:object-nodes="true"
     inkscape:window-width="1305"
     inkscape:window-height="744"
     inkscape:window-x="61"
     inkscape:window-y="24"
     inkscape:window-maximized="1"
     inkscape:snap-nodes="true"
     inkscape:snap-bbox="true"
     inkscape:object-paths="true"
     inkscape:snap-center="true">
    <inkscape:grid
       type="xygrid"
       id="grid3925"
       empspacing="5"
       visible="true"
       enabled="true"
       snapvisiblegridlinesonly="true" />
  </sodipodi:namedview>
  <metadata
     id="metadata7">
    <rdf:RDF>
      <cc:Work
         rdf:about="">
        <dc:format>image/svg+xml</dc:format>
        <dc:type
           rdf:resource="http://purl.org/dc/dcmitype/StillImage" />
        <dc:title />
      </cc:Work>
    </rdf:RDF>
  </metadata>
  <g
     inkscape:label="Layer 1"
     inkscape:groupmode="layer"
     id="layer1"
     transform="translate(0,-956.3622)">
    <path
       inkscape:connector-curvature="0"
       style="fill:#72b844;fill-opacity:1;fill-rule:nonzero;stroke:none"
       d="m 79,1050.3622 c 3.691096,0 6,-3.309 6,-7 l 0,-78 c 0,-3.6911 -2.308904,-7 -6,-7 l -61,0 c -3.691096,0 -7,3.3089 -7,7 l 0,62 21,23 z"
       id="rect3121"
       sodipodi:nodetypes="ssssssccs" />
    <path
       inkscape:connector-curvature="0"
       id="path3827"
       d="m 40,975.40978 0,10 0,17.60412 c -0.981811,-0.5693 -2.116778,-0.9376 -3.333333,-0.9376 -3.6819,0 -6.666667,2.9846 -6.666667,6.6666 0,3.682 2.984767,6.6667 6.666667,6.6667 3.6819,0 6.666666,-2.9847 6.666666,-6.6667 l 0,-23.33312 23.333334,0 0,17.60412 c -0.981814,-0.5693 -2.116784,-0.9376 -3.333334,-0.9376 -3.681896,0 -6.666666,2.9846 -6.666666,6.6666 0,3.682 2.98477,6.6667 6.666666,6.6667 3.681897,0 6.666667,-2.9847 6.666667,-6.6667 l 0,-23.33312 0,-10 -3.333333,0 -23.333334,0 -3.333333,0 z"
       style="fill:#2d2d2d;fill-opacity:0.39269409;fill-rule:nonzero;stroke:none" />
    <path
       style="fill:#ffffff;fill-opacity:0.58823532;fill-rule:nonzero;stroke:none"
       d="m 32,1050.3622 0,-23 -21,0 z"
       id="rect3903"
       inkscape:connector-curvature="0"
       sodipodi:nodetypes="cccc" />
    <path
       sodipodi:nodetypes="cccc"
       inkscape:connector-curvature="0"
       id="path3931"
       d="m 32,1027.3622 0,23 21,0 z"
       style="fill:#2d2d2d;fill-opacity:0.58823532;fill-rule:nonzero;stroke:none" />
    <g
       id="layer2"
       style="display:none"
       transform="translate(39.84429,874.99134)">
      <rect
         width="86"
         height="85"
         rx="6"
         ry="6"
         x="5"
         y="7"
         id="rect3745"
         style="opacity:0.9;fill:url(#ButtonShadow-8);fill-opacity:1;fill-rule:nonzero;stroke:none;filter:url(#filter3174-3)" />
    </g>
    <g
       id="layer2-0"
       style="display:none"
       transform="translate(40.3598,932.47103)">
      <rect
         width="86"
         height="85"
         rx="6"
         ry="6"
         x="5"
         y="7"
         id="rect3745-2"
         style="opacity:0.9;fill:url(#ButtonShadow-8-0);fill-opacity:1;fill-rule:nonzero;stroke:none;filter:url(#filter3174-3-1)" />
    </g>
    <path
       style="fill:#2d2d2d;fill-opacity:0.39269409;fill-rule:nonzero;stroke:none"
       d="m 40,974.39392 0,10 0,17.60418 c -0.981811,-0.5693 -2.116778,-0.9376 -3.333333,-0.9376 -3.6819,0 -6.666667,2.9846 -6.666667,6.6666 0,3.682 2.984767,6.6667 6.666667,6.6667 3.6819,0 6.666666,-2.9847 6.666666,-6.6667 l 0,-23.33318 23.333334,0 0,17.60418 c -0.981814,-0.5693 -2.116784,-0.9376 -3.333334,-0.9376 -3.681896,0 -6.666666,2.9846 -6.666666,6.6666 0,3.682 2.98477,6.6667 6.666666,6.6667 3.681897,0 6.666667,-2.9847 6.666667,-6.6667 l 0,-23.33318 0,-10 -3.333333,0 -23.333334,0 -3.333333,0 z"
       id="path3825"
       inkscape:connector-curvature="0" />
    <rect
       style="opacity:0.9;fill:url(#linearGradient3093);fill-opacity:1;fill-rule:nonzero;stroke:none;display:none;filter:url(#filter3174-3-17)"
       id="rect3745-5"
       y="944.18689"
       x="10.26345"
       ry="6"
       rx="6"
       height="85"
       width="86" />
    <path
       inkscape:connector-curvature="0"
       id="path3823"
       d="m 40,973.37806 0,10 0,17.60424 c -0.981811,-0.5693 -2.116778,-0.9376 -3.333333,-0.9376 -3.6819,0 -6.666667,2.9846 -6.666667,6.6666 0,3.682 2.984767,6.6667 6.666667,6.6667 3.6819,0 6.666666,-2.9847 6.666666,-6.6667 l 0,-23.33324 23.333334,0 0,17.60424 c -0.981814,-0.5693 -2.116784,-0.9376 -3.333334,-0.9376 -3.681896,0 -6.666666,2.9846 -6.666666,6.6666 0,3.682 2.98477,6.6667 6.666666,6.6667 3.681897,0 6.666667,-2.9847 6.666667,-6.6667 l 0,-23.33324 0,-10 -3.333333,0 -23.333334,0 -3.333333,0 z"
       style="fill:#2d2d2d;fill-opacity:0.39269409;fill-rule:nonzero;stroke:none" />
    <path
       style="fill:#ffffff;fill-opacity:1;fill-rule:nonzero;stroke:none"
       d="m 40,972.3622 0,10 0,17.60433 c -0.981811,-0.56933 -2.116778,-0.93766 -3.333333,-0.93766 -3.6819,0 -6.666667,2.98463 -6.666667,6.66663 0,3.682 2.984767,6.6667 6.666667,6.6667 3.6819,0 6.666666,-2.9847 6.666666,-6.6667 l 0,-23.3333 23.333334,0 0,17.60433 c -0.981814,-0.56933 -2.116784,-0.93766 -3.333334,-0.93766 -3.681896,0 -6.666666,2.98463 -6.666666,6.66663 0,3.682 2.98477,6.6667 6.666666,6.6667 3.681897,0 6.666667,-2.9847 6.666667,-6.6667 l 0,-23.3333 0,-10 -3.333333,0 -23.333334,0 -3.333333,0 z"
       id="rect3799"
       inkscape:connector-curvature="0" />
    <path
       style="fill:url(#linearGradient3821);fill-opacity:1;fill-rule:nonzero;stroke:none"
       d="m 40,16 0,5 c 10,-5 15,10 30,-5 z"
       transform="translate(0,956.3622)"
       id="rect3036"
       inkscape:connector-curvature="0"
       sodipodi:nodetypes="cccc" />
  </g>
</svg>
