<?xml version="1.0" encoding="UTF-8" standalone="no"?>
<!-- Created with Inkscape (http://www.inkscape.org/) -->

<svg
   xmlns:dc="http://purl.org/dc/elements/1.1/"
   xmlns:cc="http://creativecommons.org/ns#"
   xmlns:rdf="http://www.w3.org/1999/02/22-rdf-syntax-ns#"
   xmlns:svg="http://www.w3.org/2000/svg"
   xmlns="http://www.w3.org/2000/svg"
   xmlns:xlink="http://www.w3.org/1999/xlink"
   xmlns:sodipodi="http://sodipodi.sourceforge.net/DTD/sodipodi-0.dtd"
   xmlns:inkscape="http://www.inkscape.org/namespaces/inkscape"
   width="96"
   height="96"
   id="svg2"
   version="1.1"
   inkscape:version="0.48.4 r9939"
   sodipodi:docname="audio-x-ms-wma (copy).svg">
  <defs
     id="defs4">
    <filter
       id="filter3174-3"
       color-interpolation-filters="sRGB">
      <feGaussianBlur
         stdDeviation="1.71"
         id="feGaussianBlur3176-1" />
    </filter>
    <linearGradient
       gradientTransform="scale(1.0058652,0.994169)"
       gradientUnits="userSpaceOnUse"
       id="ButtonShadow-8"
       y2="7.0165396"
       x2="45.447727"
       y1="92.539597"
       x1="45.447727">
      <stop
         offset="0"
         style="stop-color:#000000;stop-opacity:1"
         id="stop3750-45" />
      <stop
         offset="1"
         style="stop-color:#000000;stop-opacity:0.58823532"
         id="stop3752-7" />
    </linearGradient>
    <filter
       id="filter3174-3-1"
       color-interpolation-filters="sRGB">
      <feGaussianBlur
         stdDeviation="1.71"
         id="feGaussianBlur3176-1-8" />
    </filter>
    <linearGradient
       gradientTransform="scale(1.0058652,0.994169)"
       gradientUnits="userSpaceOnUse"
       id="ButtonShadow-8-0"
       y2="7.0165396"
       x2="45.447727"
       y1="92.539597"
       x1="45.447727">
      <stop
         offset="0"
         style="stop-color:#000000;stop-opacity:1"
         id="stop3750-45-9" />
      <stop
         offset="1"
         style="stop-color:#000000;stop-opacity:0.58823532"
         id="stop3752-7-3" />
    </linearGradient>
    <filter
       id="filter3174-3-17"
       color-interpolation-filters="sRGB">
      <feGaussianBlur
         stdDeviation="1.71"
         id="feGaussianBlur3176-1-3" />
    </filter>
    <linearGradient
       gradientTransform="scale(1.0058652,0.994169)"
       gradientUnits="userSpaceOnUse"
       id="ButtonShadow-8-7"
       y2="7.0165396"
       x2="45.447727"
       y1="92.539597"
       x1="45.447727">
      <stop
         offset="0"
         style="stop-color:#000000;stop-opacity:1"
         id="stop3750-45-8" />
      <stop
         offset="1"
         style="stop-color:#000000;stop-opacity:0.58823532"
         id="stop3752-7-8" />
    </linearGradient>
    <linearGradient
       inkscape:collect="always"
       xlink:href="#ButtonShadow-8-7"
       id="linearGradient3093"
       gradientUnits="userSpaceOnUse"
       gradientTransform="matrix(1.0058652,0,0,0.994169,5.26345,937.18686)"
       x1="45.447727"
       y1="92.539597"
       x2="45.447727"
       y2="7.0165396" />
    <linearGradient
       id="linearGradient3836">
      <stop
         style="stop-color:#782766;stop-opacity:1;"
         offset="0"
         id="stop3838" />
      <stop
         id="stop3847"
         offset="0.25"
         style="stop-color:#5a3a79;stop-opacity:1;" />
      <stop
         id="stop3845"
         offset="0.5"
         style="stop-color:#2f3174;stop-opacity:1;" />
      <stop
         style="stop-color:#7d7d7d;stop-opacity:1;"
         offset="1"
         id="stop3841" />
    </linearGradient>
    <linearGradient
       y2="80.015297"
       x2="30.65625"
       y1="80.015297"
       x1="1.34375"
       gradientTransform="matrix(3,0,0,3,6.96875,-194)"
       gradientUnits="userSpaceOnUse"
       id="linearGradient3042"
       xlink:href="#linearGradient3836"
       inkscape:collect="always" />
  </defs>
  <sodipodi:namedview
     id="base"
     pagecolor="#ffffff"
     bordercolor="#666666"
     borderopacity="1.0"
     inkscape:pageopacity="0.0"
     inkscape:pageshadow="2"
     inkscape:zoom="5.9510561"
     inkscape:cx="41.414922"
     inkscape:cy="50.364909"
     inkscape:document-units="px"
     inkscape:current-layer="layer1"
     showgrid="true"
     inkscape:snap-page="true"
     inkscape:snap-global="true"
     inkscape:snap-object-midpoints="false"
     inkscape:object-nodes="true"
     inkscape:window-width="1305"
     inkscape:window-height="744"
     inkscape:window-x="61"
     inkscape:window-y="24"
     inkscape:window-maximized="1"
     inkscape:snap-nodes="true"
     inkscape:snap-bbox="true"
     inkscape:object-paths="true"
     inkscape:snap-center="true">
    <inkscape:grid
       type="xygrid"
       id="grid3925"
       empspacing="5"
       visible="true"
       enabled="true"
       snapvisiblegridlinesonly="true" />
  </sodipodi:namedview>
  <metadata
     id="metadata7">
    <rdf:RDF>
      <cc:Work
         rdf:about="">
        <dc:format>image/svg+xml</dc:format>
        <dc:type
           rdf:resource="http://purl.org/dc/dcmitype/StillImage" />
        <dc:title />
      </cc:Work>
    </rdf:RDF>
  </metadata>
  <g
     inkscape:label="Layer 1"
     inkscape:groupmode="layer"
     id="layer1"
     transform="translate(0,-956.3622)">
    <path
       inkscape:connector-curvature="0"
       style="fill:#8b0000;fill-opacity:1;fill-rule:nonzero;stroke:none"
       d="m 79,1050.3622 c 3.691096,0 6,-3.309 6,-7 l 0,-78 c 0,-3.6911 -2.308904,-7 -6,-7 l -61,0 c -3.691096,0 -7,3.3089 -7,7 l 0,62 21,23 z"
       id="rect3121"
       sodipodi:nodetypes="ssssssccs" />
    <path
       style="fill:#ffffff;fill-opacity:0.58823532;fill-rule:nonzero;stroke:none"
       d="m 32,1050.3622 0,-23 -21,0 z"
       id="rect3903"
       inkscape:connector-curvature="0"
       sodipodi:nodetypes="cccc" />
    <path
       sodipodi:nodetypes="cccc"
       inkscape:connector-curvature="0"
       id="path3931"
       d="m 32,1027.3622 0,23 21,0 z"
       style="fill:#000000;fill-opacity:0.58823532;fill-rule:nonzero;stroke:none" />
    <g
       id="layer2"
       style="display:none"
       transform="translate(39.84429,874.99134)">
      <rect
         width="86"
         height="85"
         rx="6"
         ry="6"
         x="5"
         y="7"
         id="rect3745"
         style="opacity:0.9;fill:url(#ButtonShadow-8);fill-opacity:1;fill-rule:nonzero;stroke:none;filter:url(#filter3174-3)" />
    </g>
    <g
       id="layer2-0"
       style="display:none"
       transform="translate(40.3598,932.47103)">
      <rect
         width="86"
         height="85"
         rx="6"
         ry="6"
         x="5"
         y="7"
         id="rect3745-2"
         style="opacity:0.9;fill:url(#ButtonShadow-8-0);fill-opacity:1;fill-rule:nonzero;stroke:none;filter:url(#filter3174-3-1)" />
    </g>
    <rect
       style="opacity:0.9;fill:url(#linearGradient3093);fill-opacity:1;fill-rule:nonzero;stroke:none;display:none;filter:url(#filter3174-3-17)"
       id="rect3745-5"
       y="944.18689"
       x="10.26345"
       ry="6"
       rx="6"
       height="85"
       width="86" />
    <path
       style="font-size:medium;font-style:normal;font-variant:normal;font-weight:normal;font-stretch:normal;text-indent:0;text-align:start;text-decoration:none;line-height:normal;letter-spacing:normal;word-spacing:normal;text-transform:none;direction:ltr;block-progression:tb;writing-mode:lr-tb;text-anchor:start;baseline-shift:baseline;opacity:0.58436213000000004;color:#000000;fill:#999999;fill-opacity:1;stroke:none;stroke-width:1px;marker:none;visibility:visible;display:inline;overflow:visible;enable-background:accumulate;font-family:Sans;-inkscape-font-specification:Sans"
       d="M 11 43 L 11 46 L 15.96875 46 A 1.50015 1.50015 0 0 0 17.46875 44.78125 L 18.78125 39.4375 L 20.46875 47.78125 A 1.50015 1.50015 0 0 0 23.28125 48.15625 L 24.21875 46.28125 L 26.46875 59.6875 A 1.5007361 1.5007361 0 0 0 29.46875 59.78125 L 31.34375 50.3125 L 32.5625 53.96875 A 1.50015 1.50015 0 0 0 35.46875 53.59375 L 37.15625 38.5 L 38.46875 47.6875 A 1.50015 1.50015 0 0 0 41.28125 48.15625 L 42.3125 46.09375 L 44.46875 56.78125 A 1.50015 1.50015 0 0 0 47.46875 56.78125 L 48.59375 52.375 L 50.46875 65.3125 L 50.46875 65.6875 A 1.5007361 1.5007361 0 1 0 53.46875 65.59375 L 53.46875 65.21875 L 55.625 44.3125 L 56.46875 47.78125 A 1.50015 1.50015 0 0 0 59.46875 47.78125 L 60.6875 41.5 L 62.46875 53.6875 A 1.50015 1.50015 0 0 0 65.375 53.96875 L 66.5 50.6875 L 68.46875 62.6875 A 1.5007361 1.5007361 0 0 0 71.46875 62.59375 L 71.46875 62.21875 L 73.15625 47.5 L 74.46875 56.6875 A 1.5007361 1.5007361 0 0 0 77.46875 56.78125 L 78.6875 51.90625 L 80.46875 62.6875 A 1.50015 1.50015 0 0 0 83.46875 62.6875 L 85 52.09375 L 85 39.9375 A 1.50015 1.50015 0 0 0 83.46875 41.21875 L 81.875 52.5625 L 80.46875 44.21875 A 1.5007361 1.5007361 0 0 0 77.46875 44.125 L 76.34375 48.53125 L 74.46875 35.59375 L 74.46875 35.21875 A 1.5007346 1.5007346 0 1 0 71.46875 35.3125 L 71.46875 35.6875 L 69.6875 51.4375 L 68.46875 44.21875 A 1.50015 1.50015 0 0 0 65.5625 44.03125 L 64.53125 46.9375 L 62.46875 32.21875 A 1.5007322 1.5007322 0 0 0 59.46875 32.125 L 57.78125 40.46875 L 56.46875 35.125 A 1.5029268 1.5029268 0 0 0 53.46875 35.3125 L 53.46875 35.78125 L 51.6875 52.9375 L 50.46875 44.21875 A 1.5007361 1.5007361 0 1 0 47.46875 44.125 L 46.15625 49.46875 L 44.46875 41.125 A 1.50015 1.50015 0 0 0 41.65625 40.75 L 40.8125 42.4375 L 38.46875 26.59375 L 38.46875 26.21875 A 1.50015 1.50015 0 0 0 36.59375 25 A 1.50015 1.50015 0 0 0 35.46875 26.3125 L 35.46875 26.6875 L 33.21875 46.5625 L 32.375 44.03125 A 1.50015 1.50015 0 0 0 29.46875 44.125 L 28.0625 50.96875 L 26.46875 41.21875 A 1.50015 1.50015 0 0 0 23.65625 40.75 L 22.625 42.8125 L 20.46875 32.125 A 1.50015 1.50015 0 0 0 17.46875 32.125 L 14.75 43 L 11 43 z "
       id="path3048"
       transform="translate(0,956.3622)" />
    <path
       style="fill:#ffffff;fill-opacity:1;fill-rule:nonzero;stroke:none"
       d="m 43,967.3622 0,9 0,27.8439 c -0.88363,-0.5124 -1.9051,-0.8439 -3,-0.8439 -3.3137,0 -6,2.6865 -6,6 0,3.3138 2.6863,6 6,6 3.31371,0 6.00001,-2.6862 6.00001,-6 l -1e-5,-33 21,0 0,27.8439 c -0.88363,-0.5124 -1.9051,-0.8439 -3,-0.8439 -3.3137,0 -5.99999,2.6865 -5.99999,6 0,3.3138 2.68629,6 5.99999,6 3.31371,0 6.00001,-2.6862 6,-6 l 0,-33 0,-9 z"
       id="rect3037"
       inkscape:connector-curvature="0"
       sodipodi:nodetypes="cccsssscccssssccc" />
  </g>
</svg>
