<?xml version="1.0" encoding="UTF-8" standalone="no"?>
<!-- Created with Inkscape (http://www.inkscape.org/) -->

<svg
   xmlns:dc="http://purl.org/dc/elements/1.1/"
   xmlns:cc="http://creativecommons.org/ns#"
   xmlns:rdf="http://www.w3.org/1999/02/22-rdf-syntax-ns#"
   xmlns:svg="http://www.w3.org/2000/svg"
   xmlns="http://www.w3.org/2000/svg"
   xmlns:xlink="http://www.w3.org/1999/xlink"
   xmlns:sodipodi="http://sodipodi.sourceforge.net/DTD/sodipodi-0.dtd"
   xmlns:inkscape="http://www.inkscape.org/namespaces/inkscape"
   width="96"
   height="96"
   id="svg2"
   version="1.1"
   inkscape:version="0.48.4 r9939"
   sodipodi:docname="text-x-tex (copy).svg">
  <defs
     id="defs4">
    <filter
       id="filter3174-3"
       color-interpolation-filters="sRGB">
      <feGaussianBlur
         stdDeviation="1.71"
         id="feGaussianBlur3176-1" />
    </filter>
    <linearGradient
       gradientTransform="scale(1.0058652,0.994169)"
       gradientUnits="userSpaceOnUse"
       id="ButtonShadow-8"
       y2="7.0165396"
       x2="45.447727"
       y1="92.539597"
       x1="45.447727">
      <stop
         offset="0"
         style="stop-color:#000000;stop-opacity:1"
         id="stop3750-45" />
      <stop
         offset="1"
         style="stop-color:#000000;stop-opacity:0.58823532"
         id="stop3752-7" />
    </linearGradient>
    <filter
       id="filter3174-3-1"
       color-interpolation-filters="sRGB">
      <feGaussianBlur
         stdDeviation="1.71"
         id="feGaussianBlur3176-1-8" />
    </filter>
    <linearGradient
       gradientTransform="scale(1.0058652,0.994169)"
       gradientUnits="userSpaceOnUse"
       id="ButtonShadow-8-0"
       y2="7.0165396"
       x2="45.447727"
       y1="92.539597"
       x1="45.447727">
      <stop
         offset="0"
         style="stop-color:#000000;stop-opacity:1"
         id="stop3750-45-9" />
      <stop
         offset="1"
         style="stop-color:#000000;stop-opacity:0.58823532"
         id="stop3752-7-3" />
    </linearGradient>
    <filter
       id="filter3174-3-17"
       color-interpolation-filters="sRGB">
      <feGaussianBlur
         stdDeviation="1.71"
         id="feGaussianBlur3176-1-3" />
    </filter>
    <linearGradient
       gradientTransform="scale(1.0058652,0.994169)"
       gradientUnits="userSpaceOnUse"
       id="ButtonShadow-8-7"
       y2="7.0165396"
       x2="45.447727"
       y1="92.539597"
       x1="45.447727">
      <stop
         offset="0"
         style="stop-color:#000000;stop-opacity:1"
         id="stop3750-45-8" />
      <stop
         offset="1"
         style="stop-color:#000000;stop-opacity:0.58823532"
         id="stop3752-7-8" />
    </linearGradient>
    <linearGradient
       inkscape:collect="always"
       xlink:href="#ButtonShadow-8-7"
       id="linearGradient3093"
       gradientUnits="userSpaceOnUse"
       gradientTransform="matrix(1.0058652,0,0,0.994169,5.26345,937.18686)"
       x1="45.447727"
       y1="92.539597"
       x2="45.447727"
       y2="7.0165396" />
    <linearGradient
       inkscape:collect="always"
       xlink:href="#linearGradient3827"
       id="linearGradient3833"
       x1="4"
       y1="80"
       x2="15"
       y2="73"
       gradientUnits="userSpaceOnUse"
       gradientTransform="matrix(3,0,0,3,22,762.3622)" />
    <linearGradient
       id="linearGradient3827">
      <stop
         style="stop-color:#ffcf00;stop-opacity:1;"
         offset="0"
         id="stop3829" />
      <stop
         style="stop-color:#ffffff;stop-opacity:1;"
         offset="1"
         id="stop3831" />
    </linearGradient>
    <linearGradient
       inkscape:collect="always"
       xlink:href="#linearGradient3819"
       id="linearGradient3825"
       x1="-1"
       y1="87"
       x2="35"
       y2="87"
       gradientUnits="userSpaceOnUse"
       gradientTransform="matrix(2.7350428,0,0,2.7016804,1.153846,-167.73107)" />
    <linearGradient
       inkscape:collect="always"
       id="linearGradient3819">
      <stop
         style="stop-color:#ffffff;stop-opacity:1;"
         offset="0"
         id="stop3821" />
      <stop
         style="stop-color:#ffffff;stop-opacity:0;"
         offset="1"
         id="stop3823" />
    </linearGradient>
    <linearGradient
       inkscape:collect="always"
       xlink:href="#linearGradient3838"
       id="linearGradient3030"
       gradientUnits="userSpaceOnUse"
       x1="35.554329"
       y1="1016.6278"
       x2="39.515625"
       y2="1012.8309"
       gradientTransform="matrix(2,0,0,2,-107.98926,-1059.3622)" />
    <linearGradient
       id="linearGradient3838">
      <stop
         style="stop-color:#666666;stop-opacity:1;"
         offset="0"
         id="stop3840" />
      <stop
         style="stop-color:#ffffff;stop-opacity:1;"
         offset="1"
         id="stop3842" />
    </linearGradient>
  </defs>
  <sodipodi:namedview
     id="base"
     pagecolor="#ffffff"
     bordercolor="#666666"
     borderopacity="1.0"
     inkscape:pageopacity="0.0"
     inkscape:pageshadow="2"
     inkscape:zoom="4.2080321"
     inkscape:cx="17.866968"
     inkscape:cy="43.099387"
     inkscape:document-units="px"
     inkscape:current-layer="layer1"
     showgrid="true"
     inkscape:snap-page="true"
     inkscape:snap-global="true"
     inkscape:snap-object-midpoints="false"
     inkscape:object-nodes="true"
     inkscape:window-width="1305"
     inkscape:window-height="744"
     inkscape:window-x="61"
     inkscape:window-y="24"
     inkscape:window-maximized="1"
     inkscape:snap-nodes="true"
     inkscape:snap-bbox="true"
     inkscape:object-paths="true"
     inkscape:snap-center="true">
    <inkscape:grid
       type="xygrid"
       id="grid3925"
       empspacing="5"
       visible="true"
       enabled="true"
       snapvisiblegridlinesonly="true" />
  </sodipodi:namedview>
  <metadata
     id="metadata7">
    <rdf:RDF>
      <cc:Work
         rdf:about="">
        <dc:format>image/svg+xml</dc:format>
        <dc:type
           rdf:resource="http://purl.org/dc/dcmitype/StillImage" />
        <dc:title />
      </cc:Work>
    </rdf:RDF>
  </metadata>
  <g
     inkscape:label="Layer 1"
     inkscape:groupmode="layer"
     id="layer1"
     transform="translate(0,-956.3622)">
    <path
       inkscape:connector-curvature="0"
       style="fill:#2a7fff;fill-opacity:1;fill-rule:nonzero;stroke:none"
       d="m 79,1050.3622 c 3.691096,0 6,-3.309 6,-7 l 0,-78 c 0,-3.6911 -2.308904,-7 -6,-7 l -61,0 c -3.691096,0 -7,3.3089 -7,7 l 0,62 21,23 z"
       id="rect3121"
       sodipodi:nodetypes="ssssssccs" />
    <path
       style="fill:#ffffff;fill-opacity:0.58823532;fill-rule:nonzero;stroke:none"
       d="m 32,1050.3622 0,-23 -21,0 z"
       id="rect3903"
       inkscape:connector-curvature="0"
       sodipodi:nodetypes="cccc" />
    <path
       sodipodi:nodetypes="cccc"
       inkscape:connector-curvature="0"
       id="path3931"
       d="m 32,1027.3622 0,23 21,0 z"
       style="fill:#2d2d2d;fill-opacity:0.58823532;fill-rule:nonzero;stroke:none" />
    <g
       id="layer2"
       style="display:none"
       transform="translate(39.84429,874.99134)">
      <rect
         width="86"
         height="85"
         rx="6"
         ry="6"
         x="5"
         y="7"
         id="rect3745"
         style="opacity:0.9;fill:url(#ButtonShadow-8);fill-opacity:1;fill-rule:nonzero;stroke:none;filter:url(#filter3174-3)" />
    </g>
    <g
       id="layer2-0"
       style="display:none"
       transform="translate(40.3598,932.47103)">
      <rect
         width="86"
         height="85"
         rx="6"
         ry="6"
         x="5"
         y="7"
         id="rect3745-2"
         style="opacity:0.9;fill:url(#ButtonShadow-8-0);fill-opacity:1;fill-rule:nonzero;stroke:none;filter:url(#filter3174-3-1)" />
    </g>
    <rect
       style="opacity:0.9;fill:url(#linearGradient3093);fill-opacity:1;fill-rule:nonzero;stroke:none;display:none;filter:url(#filter3174-3-17)"
       id="rect3745-5"
       y="944.18689"
       x="10.26345"
       ry="6"
       rx="6"
       height="85"
       width="86" />
    <path
       style="opacity:0.51851849000000005;fill:url(#linearGradient3825);fill-opacity:1;fill-rule:nonzero;stroke:none"
       d="M 11 53.8125 L 11 71 L 32 94 L 79 94 C 79.922774 94 80.76448 93.805391 81.5 93.4375 C 82.23552 93.069609 82.855694 92.519312 83.375 91.875 C 83.879982 91.24846 84.288975 90.521374 84.5625 89.71875 C 84.858097 80.448883 85 67.156635 85 64.875 L 85 59.21875 L 83.21875 59.21875 L 83.21875 53.8125 L 80.46875 53.8125 L 80.46875 56.5 L 77.75 56.5 L 77.75 67.3125 L 75 67.3125 L 75 61.90625 L 72.25 61.90625 L 72.25 67.3125 L 69.53125 67.3125 L 69.53125 70.03125 L 66.78125 70.03125 L 66.78125 53.8125 L 64.0625 53.8125 L 64.0625 61.90625 L 61.3125 61.90625 L 61.3125 56.5 L 58.59375 56.5 L 58.59375 61.90625 L 55.84375 61.90625 L 55.84375 51.09375 L 53.125 51.09375 L 53.125 59.21875 L 50.375 59.21875 L 50.375 64.625 L 47.65625 64.625 L 47.65625 53.8125 L 44.90625 53.8125 L 44.90625 61.90625 L 42.1875 61.90625 L 42.1875 56.5 L 42.1875 48.40625 L 39.4375 48.40625 L 39.4375 51.09375 L 39.4375 53.8125 L 36.71875 53.8125 L 36.71875 45.6875 L 33.96875 45.6875 L 33.96875 53.8125 L 31.25 53.8125 L 31.25 51.09375 L 28.5 51.09375 L 28.5 56.5 L 25.78125 56.5 L 25.78125 43 L 23.03125 43 L 20.3125 43 L 20.3125 53.8125 L 17.5625 53.8125 L 17.5625 48.40625 L 14.84375 48.40625 L 14.84375 56.5 L 14.84375 61.90625 L 12.09375 61.90625 L 12.09375 56.5 L 12.09375 53.8125 L 11 53.8125 z "
       id="rect3816"
       transform="translate(0,956.3622)" />
    <path
       style="fill:url(#linearGradient3833);fill-opacity:1;fill-rule:nonzero;stroke:none"
       d="m 43,972.3622 0,9 0,27.8439 c -0.883634,-0.5124 -1.905105,-0.8439 -3,-0.8439 -3.313709,0 -6,2.6862 -6,6 0,3.3138 2.686291,6 6,6 3.313708,0 6,-2.6862 6,-6 l 0,-33 21,0 0,27.8439 c -0.883632,-0.5124 -1.905105,-0.8439 -3,-0.8439 -3.313707,0 -6,2.6862 -6,6 0,3.3138 2.686293,6 6,6 3.313707,0 6,-2.6862 6,-6 l 0,-33 0,-9 z"
       id="rect3037"
       inkscape:connector-curvature="0"
       sodipodi:nodetypes="cccsssscccssssccc" />
  </g>
</svg>
