<?xml version="1.0" encoding="UTF-8" standalone="no"?>
<!-- Created with Inkscape (http://www.inkscape.org/) -->

<svg
   xmlns:dc="http://purl.org/dc/elements/1.1/"
   xmlns:cc="http://creativecommons.org/ns#"
   xmlns:rdf="http://www.w3.org/1999/02/22-rdf-syntax-ns#"
   xmlns:svg="http://www.w3.org/2000/svg"
   xmlns="http://www.w3.org/2000/svg"
   xmlns:xlink="http://www.w3.org/1999/xlink"
   xmlns:sodipodi="http://sodipodi.sourceforge.net/DTD/sodipodi-0.dtd"
   xmlns:inkscape="http://www.inkscape.org/namespaces/inkscape"
   width="96"
   height="96"
   id="svg2"
   version="1.1"
   inkscape:version="0.48.4 r9939"
   sodipodi:docname="image-x-xcf.svg">
  <defs
     id="defs4">
    <filter
       id="filter3174-3"
       color-interpolation-filters="sRGB">
      <feGaussianBlur
         stdDeviation="1.71"
         id="feGaussianBlur3176-1" />
    </filter>
    <linearGradient
       gradientTransform="scale(1.0058652,0.994169)"
       gradientUnits="userSpaceOnUse"
       id="ButtonShadow-8"
       y2="7.0165396"
       x2="45.447727"
       y1="92.539597"
       x1="45.447727">
      <stop
         offset="0"
         style="stop-color:#000000;stop-opacity:1"
         id="stop3750-45" />
      <stop
         offset="1"
         style="stop-color:#000000;stop-opacity:0.58823532"
         id="stop3752-7" />
    </linearGradient>
    <filter
       id="filter3174-3-1"
       color-interpolation-filters="sRGB">
      <feGaussianBlur
         stdDeviation="1.71"
         id="feGaussianBlur3176-1-8" />
    </filter>
    <linearGradient
       gradientTransform="scale(1.0058652,0.994169)"
       gradientUnits="userSpaceOnUse"
       id="ButtonShadow-8-0"
       y2="7.0165396"
       x2="45.447727"
       y1="92.539597"
       x1="45.447727">
      <stop
         offset="0"
         style="stop-color:#000000;stop-opacity:1"
         id="stop3750-45-9" />
      <stop
         offset="1"
         style="stop-color:#000000;stop-opacity:0.58823532"
         id="stop3752-7-3" />
    </linearGradient>
    <filter
       id="filter3174-3-17"
       color-interpolation-filters="sRGB">
      <feGaussianBlur
         stdDeviation="1.71"
         id="feGaussianBlur3176-1-3" />
    </filter>
    <linearGradient
       gradientTransform="scale(1.0058652,0.994169)"
       gradientUnits="userSpaceOnUse"
       id="ButtonShadow-8-7"
       y2="7.0165396"
       x2="45.447727"
       y1="92.539597"
       x1="45.447727">
      <stop
         offset="0"
         style="stop-color:#000000;stop-opacity:1"
         id="stop3750-45-8" />
      <stop
         offset="1"
         style="stop-color:#000000;stop-opacity:0.58823532"
         id="stop3752-7-8" />
    </linearGradient>
    <linearGradient
       inkscape:collect="always"
       xlink:href="#ButtonShadow-8-7"
       id="linearGradient3093"
       gradientUnits="userSpaceOnUse"
       gradientTransform="matrix(1.0058652,0,0,0.994169,5.26345,937.18686)"
       x1="45.447727"
       y1="92.539597"
       x2="45.447727"
       y2="7.0165396" />
  </defs>
  <sodipodi:namedview
     id="base"
     pagecolor="#ffffff"
     bordercolor="#666666"
     borderopacity="1.0"
     inkscape:pageopacity="0.0"
     inkscape:pageshadow="2"
     inkscape:zoom="5.6129279"
     inkscape:cx="33.863585"
     inkscape:cy="64.283416"
     inkscape:document-units="px"
     inkscape:current-layer="layer1"
     showgrid="true"
     inkscape:snap-page="true"
     inkscape:snap-global="true"
     inkscape:snap-object-midpoints="false"
     inkscape:object-nodes="true"
     inkscape:window-width="1305"
     inkscape:window-height="744"
     inkscape:window-x="61"
     inkscape:window-y="24"
     inkscape:window-maximized="1"
     inkscape:snap-nodes="true"
     inkscape:snap-bbox="true"
     inkscape:object-paths="true"
     inkscape:snap-center="true">
    <inkscape:grid
       type="xygrid"
       id="grid3925"
       empspacing="5"
       visible="true"
       enabled="true"
       snapvisiblegridlinesonly="true" />
  </sodipodi:namedview>
  <metadata
     id="metadata7">
    <rdf:RDF>
      <cc:Work
         rdf:about="">
        <dc:format>image/svg+xml</dc:format>
        <dc:type
           rdf:resource="http://purl.org/dc/dcmitype/StillImage" />
        <dc:title />
      </cc:Work>
    </rdf:RDF>
  </metadata>
  <g
     inkscape:label="Layer 1"
     inkscape:groupmode="layer"
     id="layer1"
     transform="translate(0,-956.3622)">
    <path
       inkscape:connector-curvature="0"
       style="fill:#ff1493;fill-opacity:1;fill-rule:nonzero;stroke:none"
       d="m 79,1050.3622 c 3.691096,0 6,-3.309 6,-7 l 0,-78 c 0,-3.6911 -2.308904,-7 -6,-7 l -61,0 c -3.691096,0 -7,3.3089 -7,7 l 0,62 21,23 z"
       id="rect3121"
       sodipodi:nodetypes="ssssssccs" />
    <path
       style="fill:#ffffff;fill-opacity:0.58823532;fill-rule:nonzero;stroke:none"
       d="m 32,1050.3622 0,-23 -21,0 z"
       id="rect3903"
       inkscape:connector-curvature="0"
       sodipodi:nodetypes="cccc" />
    <path
       sodipodi:nodetypes="cccc"
       inkscape:connector-curvature="0"
       id="path3931"
       d="m 32,1027.3622 0,23 21,0 z"
       style="fill:#2d2d2d;fill-opacity:0.58823532;fill-rule:nonzero;stroke:none" />
    <g
       id="layer2"
       style="display:none"
       transform="translate(39.84429,874.99134)">
      <rect
         width="86"
         height="85"
         rx="6"
         ry="6"
         x="5"
         y="7"
         id="rect3745"
         style="opacity:0.9;fill:url(#ButtonShadow-8);fill-opacity:1;fill-rule:nonzero;stroke:none;filter:url(#filter3174-3)" />
    </g>
    <g
       id="layer2-0"
       style="display:none"
       transform="translate(40.3598,932.47103)">
      <rect
         width="86"
         height="85"
         rx="6"
         ry="6"
         x="5"
         y="7"
         id="rect3745-2"
         style="opacity:0.9;fill:url(#ButtonShadow-8-0);fill-opacity:1;fill-rule:nonzero;stroke:none;filter:url(#filter3174-3-1)" />
    </g>
    <rect
       style="opacity:0.9;fill:url(#linearGradient3093);fill-opacity:1;fill-rule:nonzero;stroke:none;display:none;filter:url(#filter3174-3-17)"
       id="rect3745-5"
       y="944.18689"
       x="10.26345"
       ry="6"
       rx="6"
       height="85"
       width="86" />
    <path
       style="color:#000000;fill:#ffffff;fill-opacity:1;fill-rule:evenodd;stroke:none;stroke-width:0.9999997;marker:none;visibility:visible;display:inline;overflow:visible"
       d="m 77.044191,962.9476 c -0.277754,-0.0433 -0.599433,0.27132 -0.851136,1.02641 -0.503406,1.51018 -4.016584,11.98825 -24.082161,12.49172 -9.574987,0.23808 -13.668254,-8.21104 -13.668254,-8.21104 l -0.250334,10.81452 c 0,0 0.892448,2.10529 -0.625836,4.43088 -2.709184,-3.99261 -7.213481,-5.74039 -10.163573,-3.88014 -2.983399,1.88115 -3.223317,6.72522 -0.525702,10.81436 2.474803,3.75151 6.552006,5.55897 9.512704,4.38091 13.895914,9.90408 46.52296,17.10008 41.255095,-30.71608 -0.08904,-0.69781 -0.323049,-1.1086 -0.600803,-1.15154 z m -1.527039,7.05943 c 0.510562,11.0957 -1.266154,18.51881 -4.255683,22.88058 -3.489993,5.09192 -8.438847,6.8038 -14.068789,6.70904 -5.629942,-0.0948 -11.77184,-2.22249 -16.497031,-4.93163 -0.800662,-0.45909 -1.544566,-0.94302 -2.253009,-1.42694 1.338368,-1.82519 1.481857,-4.65464 0.375502,-7.43492 0.778186,-0.85001 1.329957,-1.7408 1.652206,-2.62855 0.710845,-1.95821 0.409379,-3.42105 0.175234,-4.25568 l 0.100134,-4.18054 c 2.60147,2.22809 6.320509,4.28228 11.415245,4.15555 10.454876,-0.26227 16.987881,-3.18193 20.902915,-6.43364 0.978758,-0.81284 1.777396,-1.6369 2.453276,-2.45327 z m -14.143889,19.20068 c 0,0 1.297633,1.05229 2.052742,2.02767 -2.859773,2.20825 -7.753009,3.99696 -17.348168,2.07784 8.838285,3.12064 15.251955,3.25482 17.823803,-0.3004 0.173216,0.67802 1.442386,1.32248 2.127841,3.029 0.307904,-1.94299 1.051344,-2.86222 -0.125167,-4.38083 -1.179887,-1.523 -4.531051,-2.45328 -4.531051,-2.45328 z"
       id="path4323"
       inkscape:connector-curvature="0" />
    <path
       style="color:#000000;fill:#ffffff;fill-opacity:1;fill-rule:evenodd;stroke:none;stroke-width:0.99999988;marker:none;visibility:visible;display:inline;overflow:visible"
       d="m 54.856889,974.77744 a 6.7959779,6.7959779 0 0 0 -0.300401,0.025 6.7959779,6.7959779 0 0 0 -5.90789,4.53105 5.7891674,5.7891674 0 0 0 -11.340144,1.62718 5.7891674,5.7891674 0 0 0 11.139876,2.20294 6.7959779,6.7959779 0 0 0 13.392886,-1.57711 6.7959779,6.7959779 0 0 0 -6.984327,-6.80909 z m -10.163573,4.33078 a 3.2978702,3.3416899 0 0 1 2.528376,3.27938 3.2978702,3.3416899 0 0 1 -6.583792,0 3.2978702,3.3416899 0 0 1 0.851137,-2.27804 1.9297206,1.9297206 0 0 0 -0.05007,0.42557 1.9297206,1.9297206 0 0 0 3.855148,0 1.9297206,1.9297206 0 0 0 -0.600802,-1.42691 z m 12.141214,0.25034 a 3.6278815,3.5944363 0 0 1 3.079112,3.55474 3.6298475,3.5963843 0 0 1 -7.259695,0 3.6278815,3.5944363 0 0 1 0.450602,-1.7273 2.2660787,2.2660787 0 1 0 4.531051,-0.10014 2.2653261,2.2653261 0 0 0 -0.80107,-1.7273 z"
       id="path4357"
       inkscape:connector-curvature="0" />
  </g>
</svg>
