<?xml version="1.0" encoding="UTF-8" standalone="no"?>
<!-- Created with Inkscape (http://www.inkscape.org/) -->

<svg
   xmlns:dc="http://purl.org/dc/elements/1.1/"
   xmlns:cc="http://creativecommons.org/ns#"
   xmlns:rdf="http://www.w3.org/1999/02/22-rdf-syntax-ns#"
   xmlns:svg="http://www.w3.org/2000/svg"
   xmlns="http://www.w3.org/2000/svg"
   xmlns:xlink="http://www.w3.org/1999/xlink"
   xmlns:sodipodi="http://sodipodi.sourceforge.net/DTD/sodipodi-0.dtd"
   xmlns:inkscape="http://www.inkscape.org/namespaces/inkscape"
   width="96"
   height="96"
   id="svg2"
   version="1.1"
   inkscape:version="0.48.4 r9939"
   sodipodi:docname="application-x-font-ttf (copy).svg">
  <defs
     id="defs4">
    <filter
       id="filter3174-3"
       color-interpolation-filters="sRGB">
      <feGaussianBlur
         stdDeviation="1.71"
         id="feGaussianBlur3176-1" />
    </filter>
    <linearGradient
       gradientTransform="scale(1.0058652,0.994169)"
       gradientUnits="userSpaceOnUse"
       id="ButtonShadow-8"
       y2="7.0165396"
       x2="45.447727"
       y1="92.539597"
       x1="45.447727">
      <stop
         offset="0"
         style="stop-color:#000000;stop-opacity:1"
         id="stop3750-45" />
      <stop
         offset="1"
         style="stop-color:#000000;stop-opacity:0.58823532"
         id="stop3752-7" />
    </linearGradient>
    <filter
       id="filter3174-3-1"
       color-interpolation-filters="sRGB">
      <feGaussianBlur
         stdDeviation="1.71"
         id="feGaussianBlur3176-1-8" />
    </filter>
    <linearGradient
       gradientTransform="scale(1.0058652,0.994169)"
       gradientUnits="userSpaceOnUse"
       id="ButtonShadow-8-0"
       y2="7.0165396"
       x2="45.447727"
       y1="92.539597"
       x1="45.447727">
      <stop
         offset="0"
         style="stop-color:#000000;stop-opacity:1"
         id="stop3750-45-9" />
      <stop
         offset="1"
         style="stop-color:#000000;stop-opacity:0.58823532"
         id="stop3752-7-3" />
    </linearGradient>
    <filter
       id="filter3174-3-17"
       color-interpolation-filters="sRGB">
      <feGaussianBlur
         stdDeviation="1.71"
         id="feGaussianBlur3176-1-3" />
    </filter>
    <linearGradient
       gradientTransform="scale(1.0058652,0.994169)"
       gradientUnits="userSpaceOnUse"
       id="ButtonShadow-8-7"
       y2="7.0165396"
       x2="45.447727"
       y1="92.539597"
       x1="45.447727">
      <stop
         offset="0"
         style="stop-color:#000000;stop-opacity:1"
         id="stop3750-45-8" />
      <stop
         offset="1"
         style="stop-color:#000000;stop-opacity:0.58823532"
         id="stop3752-7-8" />
    </linearGradient>
    <linearGradient
       inkscape:collect="always"
       xlink:href="#ButtonShadow-8-7"
       id="linearGradient3093"
       gradientUnits="userSpaceOnUse"
       gradientTransform="matrix(1.0058652,0,0,0.994169,5.26345,937.18686)"
       x1="45.447727"
       y1="92.539597"
       x2="45.447727"
       y2="7.0165396" />
    <linearGradient
       inkscape:collect="always"
       xlink:href="#linearGradient3838"
       id="linearGradient3022"
       gradientUnits="userSpaceOnUse"
       x1="35.554329"
       y1="1016.6278"
       x2="39.515625"
       y2="1012.8309"
       gradientTransform="matrix(2,0,0,2,-107.98926,-1054.3622)" />
    <linearGradient
       id="linearGradient3838">
      <stop
         style="stop-color:#666666;stop-opacity:1;"
         offset="0"
         id="stop3840" />
      <stop
         style="stop-color:#ffffff;stop-opacity:1;"
         offset="1"
         id="stop3842" />
    </linearGradient>
  </defs>
  <sodipodi:namedview
     id="base"
     pagecolor="#ffffff"
     bordercolor="#666666"
     borderopacity="1.0"
     inkscape:pageopacity="0.0"
     inkscape:pageshadow="2"
     inkscape:zoom="2.806464"
     inkscape:cx="33.863585"
     inkscape:cy="48.334888"
     inkscape:document-units="px"
     inkscape:current-layer="layer1"
     showgrid="true"
     inkscape:snap-page="true"
     inkscape:snap-global="true"
     inkscape:snap-object-midpoints="false"
     inkscape:object-nodes="true"
     inkscape:window-width="1305"
     inkscape:window-height="744"
     inkscape:window-x="61"
     inkscape:window-y="24"
     inkscape:window-maximized="1"
     inkscape:snap-nodes="true"
     inkscape:snap-bbox="true"
     inkscape:object-paths="true"
     inkscape:snap-center="true">
    <inkscape:grid
       type="xygrid"
       id="grid3925"
       empspacing="5"
       visible="true"
       enabled="true"
       snapvisiblegridlinesonly="true" />
  </sodipodi:namedview>
  <metadata
     id="metadata7">
    <rdf:RDF>
      <cc:Work
         rdf:about="">
        <dc:format>image/svg+xml</dc:format>
        <dc:type
           rdf:resource="http://purl.org/dc/dcmitype/StillImage" />
        <dc:title />
      </cc:Work>
    </rdf:RDF>
  </metadata>
  <g
     inkscape:label="Layer 1"
     inkscape:groupmode="layer"
     id="layer1"
     transform="translate(0,-956.3622)">
    <path
       inkscape:connector-curvature="0"
       style="fill:#008ec2;fill-opacity:1;fill-rule:nonzero;stroke:none"
       d="m 79,1050.3622 c 3.691096,0 6,-3.309 6,-7 l 0,-78 c 0,-3.6911 -2.308904,-7 -6,-7 l -61,0 c -3.691096,0 -7,3.3089 -7,7 l 0,62 21,23 z"
       id="rect3121"
       sodipodi:nodetypes="ssssssccs" />
    <path
       style="fill:#ffffff;fill-opacity:0.58823532;fill-rule:nonzero;stroke:none"
       d="m 32,1050.3622 0,-23 -21,0 z"
       id="rect3903"
       inkscape:connector-curvature="0"
       sodipodi:nodetypes="cccc" />
    <path
       sodipodi:nodetypes="cccc"
       inkscape:connector-curvature="0"
       id="path3931"
       d="m 32,1027.3622 0,23 21,0 z"
       style="fill:#2d2d2d;fill-opacity:0.58823532;fill-rule:nonzero;stroke:none" />
    <g
       id="layer2"
       style="display:none"
       transform="translate(39.84429,874.99134)">
      <rect
         width="86"
         height="85"
         rx="6"
         ry="6"
         x="5"
         y="7"
         id="rect3745"
         style="opacity:0.9;fill:url(#ButtonShadow-8);fill-opacity:1;fill-rule:nonzero;stroke:none;filter:url(#filter3174-3)" />
    </g>
    <g
       id="layer2-0"
       style="display:none"
       transform="translate(40.3598,932.47103)">
      <rect
         width="86"
         height="85"
         rx="6"
         ry="6"
         x="5"
         y="7"
         id="rect3745-2"
         style="opacity:0.9;fill:url(#ButtonShadow-8-0);fill-opacity:1;fill-rule:nonzero;stroke:none;filter:url(#filter3174-3-1)" />
    </g>
    <rect
       style="opacity:0.9;fill:url(#linearGradient3093);fill-opacity:1;fill-rule:nonzero;stroke:none;display:none;filter:url(#filter3174-3-17)"
       id="rect3745-5"
       y="944.18689"
       x="10.26345"
       ry="6"
       rx="6"
       height="85"
       width="86" />
    <path
       inkscape:connector-curvature="0"
       id="path22"
       style="fill:#ffffff;fill-opacity:1;fill-rule:nonzero;stroke:none"
       d="m 24.760419,1012.9528 c -0.258237,0.15 -0.568735,0.156 -0.853193,0.2296 -0.13392,-0.09 -0.27797,-0.164 -0.41006,-0.2572 -0.0759,-0.176 -0.16396,-0.3438 -0.29674,-0.4836 0.0116,-0.048 0.0314,-0.144 0.0401,-0.19 0.30617,0 0.62444,-0.024 0.891438,-0.178 0.419471,-0.262 0.978447,-0.18 1.368923,-0.4998 0.21147,-0.126 0.491808,-0.078 0.685928,-0.2412 0.265106,-0.2318 0.673305,-0.156 0.930377,-0.3998 0.191208,-0.156 0.479255,-0.088 0.658726,-0.264 0.210306,-0.2062 0.557532,-0.132 0.765323,-0.337 0.166754,-0.18 0.457759,-0.102 0.628659,-0.2782 0.143464,-0.134 0.349322,-0.148 0.525741,-0.2134 0.16,-0.044 0.251622,-0.2156 0.422546,-0.2352 0.15511,-0.032 0.308029,-0.072 0.424035,-0.184 0.190742,-0.166 0.487524,-0.12 0.670185,-0.2986 0.146726,-0.156 0.385677,-0.116 0.546609,-0.2426 0.251622,-0.2294 0.655582,-0.174 0.856013,-0.4778 -0.05683,-0.2504 -0.114586,-0.508 -0.02515,-0.7584 -0.02096,-0.3902 0.124134,-0.7896 0.407896,-1.0652 0.33069,-0.3138 0.549171,-0.719 0.803634,-1.0908 0.28863,-0.3986 0.45904,-0.8632 0.682063,-1.2976 0.16,-0.3164 0.271371,-0.687 0.563168,-0.9102 0.04914,0.158 0.09619,0.3234 0.07895,0.491 -0.04029,0.188 -0.139738,0.356 -0.1954,0.539 0.04425,0.2156 0.116216,0.4298 0.101776,0.6542 -0.02096,0.096 0.08384,0.144 0.134148,0.2086 0.345875,-0.5632 0.541858,-1.2076 0.935105,-1.7436 0.135314,-0.188 0.321817,-0.331 0.459761,-0.515 0.329968,-0.6942 0.61443,-1.435 0.613404,-2.213 0.04728,-0.2818 0.216828,-0.5214 0.432328,-0.7048 0.482678,-0.414 0.711082,-1.0294 1.137772,-1.4902 0.223348,-0.2294 0.444834,-0.4786 0.755192,-0.5872 0.467074,-0.5914 0.74201,-1.3052 0.927232,-2.0272 -0.014,-0.396 0.211006,-0.7588 0.446254,-1.0622 0.07452,-0.122 0.211704,-0.174 0.333952,-0.2346 0.10084,0.4624 -0.11808,0.9092 -0.092,1.3708 0.0164,0.146 -0.09106,0.2758 -0.06126,0.423 0.04704,0.204 -0.09782,0.3904 -0.05124,0.5964 0.0333,0.166 -0.08198,0.3164 -0.0566,0.4818 0.03238,0.182 -0.08478,0.3534 -0.05054,0.5362 0.04588,0.2414 -0.05822,0.473 -0.05054,0.7146 -0.08478,0.3732 -0.276706,0.7216 -0.281736,1.1126 -0.06568,0.2442 -0.014,0.501 -0.08966,0.7422 -0.02818,0.3722 0.14696,0.7308 0.1423,1.1016 -0.07592,0.2764 -0.08874,0.6632 0.16162,0.8468 -0.051,-0.3282 0.07174,-0.634 0.14836,-0.9464 0.02096,-0.3492 0.15976,-0.6782 0.1912,-1.026 0.09852,-0.4466 0.1621,-0.8992 0.26385,-1.345 0.06474,-0.174 0.03238,-0.3602 0.03354,-0.5404 0.09922,0.16 0.1961,0.3202 0.30959,0.4696 -0.0389,-0.3222 0.02842,-0.634 0.05148,-0.9516 0.09106,-0.024 0.18236,-0.04 0.27228,-0.06 -0.03144,-0.5724 0.271696,-1.1256 0.18562,-1.7044 0.0757,-0.2394 0.03634,-0.4956 0.1204,-0.7324 -0.0164,-0.312 0.11458,-0.602 0.1565,-0.9072 0.0016,-0.3436 0.17282,-0.66 0.1756,-1.0032 0.0566,-0.252 0.08944,-0.5112 0.1791,-0.754 0.1211,-0.162 0.194,-0.3694 0.369306,-0.4826 0.07452,0.218 -0.07382,0.4224 -0.0375,0.6408 0.03424,0.2446 -0.10924,0.4738 -0.03354,0.7196 -0.12576,0.3198 0.0347,0.6558 -0.08058,0.9752 -0.02096,0.3066 0.1558,0.6044 0.08944,0.9126 -0.09852,0.3728 0.1437,0.7492 0.0164,1.1186 -0.05962,0.211 0.09316,0.4242 0.0116,0.6324 -0.09014,0.218 0.04704,0.451 -0.02516,0.6704 -0.0573,0.192 -0.02096,0.399 -0.08128,0.5916 -0.0375,0.128 0.0046,0.2576 0.014,0.385 0.03982,0.184 -0.09548,0.355 -0.0403,0.536 0.02842,0.2 0.10294,0.4004 0.05542,0.6034 -0.09408,0.3802 0.15838,0.7638 0.03144,1.1392 -0.05124,0.14 0.0116,0.2818 0.03494,0.4186 0.02516,-0.028 0.07336,-0.082 0.09782,-0.106 0.540764,-1.5064 1.106098,-3.0034 1.609342,-4.522 0.06428,-0.156 0.11692,-0.3172 0.1975,-0.4656 -0.0347,0.2726 -0.05752,0.548 -0.12576,0.8158 -0.014,0.178 0.0559,0.3522 0.06964,0.5292 -2.78e-4,0.136 -0.03354,0.2694 -0.03842,0.4046 0.007,0.2364 0.09036,0.4628 0.10504,0.6984 -0.06522,0.178 -0.11412,0.3628 -0.04658,0.5512 0.08012,-0.032 0.15906,-0.066 0.236554,-0.102 0.07732,-0.192 -0.0116,-0.3914 -0.04634,-0.582 0.05752,-0.038 0.11458,-0.076 0.17072,-0.114 -0.02818,-0.134 -0.04564,-0.2688 -0.06008,-0.4048 0.05614,0.078 0.11226,0.158 0.17024,0.2358 -0.0375,0.136 -0.11016,0.273 -0.075,0.4186 -3.5e-4,0.2 0.270464,0.2632 0.256372,0.4666 0.014,0.144 -0.0927,0.2726 -0.068,0.4184 0.05682,0.2492 -0.222416,0.5464 0.07034,0.7268 0.09922,-0.6094 0.479674,-1.1502 0.48771,-1.7788 0.014,-0.2 -0.07918,-0.401 -0.002,-0.594 0.08058,-0.225 -0.04332,-0.4622 0.02516,-0.6886 0.09922,-0.278 -0.11062,-0.5592 -0.014,-0.8352 0.09106,-0.2318 -0.06824,-0.4754 0.014,-0.7086 0.0389,-0.225 0.07244,-0.4516 0.14136,-0.6714 0.09688,-0.2836 0.10084,-0.5854 0.15302,-0.8782 0.267948,-0.9232 0.507716,-1.8542 0.768188,-2.7784 0.329898,-0.032 0.595634,-0.2296 0.894044,-0.3486 0.068,0.3274 0.0722,0.673 0.205416,0.9844 0.08198,0.136 0.18306,0.2856 0.12646,0.4536 -0.04286,-0.116 -0.07638,-0.2352 -0.10178,-0.3566 -0.04448,0.024 -0.13322,0.034 -0.177,0.046 0.02516,0.146 0.05054,0.2948 0.0701,0.442 0.068,0.044 0.13532,0.088 0.201456,0.134 -0.06032,0.182 -0.1062,0.3772 -0.0382,0.5658 0.1218,-0.086 0.1763,-0.2272 0.243494,-0.355 -0.007,-0.112 -0.03238,-0.2178 -0.05404,-0.3262 0.04308,-0.044 0.1288,-0.128 0.17258,-0.172 -0.0116,0.186 0.04006,0.366 0.119,0.533 0.07126,-0.198 0.07104,-0.4068 -0.119,-0.533 -0.215662,-0.2422 0.0011,-0.5272 0.06196,-0.7834 0.05868,0.136 0.13182,0.266 0.215196,0.3878 0.04868,-0.204 0.06498,-0.4686 -0.12692,-0.6064 -0.09036,-0.068 -0.07778,-0.188 -0.05868,-0.2832 0.03494,0.092 0.06522,0.186 0.09222,0.279 0.051,0.028 0.15232,0.084 0.20332,0.112 -0.0375,-0.3092 0.0482,-0.6076 0.11598,-0.9056 0.04844,-0.15 -0.0012,-0.3152 0.0559,-0.4652 0.06218,-0.318 0.19494,-0.618 0.248478,-0.9378 0.0375,-0.024 0.11226,-0.04 0.14906,-0.054 0.08058,0.3024 0.09292,0.6142 0.014,0.9162 0.0587,0.211 -0.11202,0.4204 -0.02818,0.6212 0.27638,0.2156 0.30144,0.6178 0.1912,0.9292 0.03632,0.3632 -0.07034,0.7208 -0.12158,1.0764 0.03144,0.2328 0.08408,0.4656 0.18842,0.6782 0.0722,-0.2362 -0.007,-0.4852 0.07778,-0.7202 -0.0116,-0.4318 0.12622,-0.8508 0.13438,-1.2828 0.13788,-0.8602 0.262918,-1.73 0.499866,-2.5692 0.11506,-0.158 0.223348,-0.3206 0.18142,-0.5256 0.07778,-0.078 0.15628,-0.158 0.22591,-0.242 0.12414,-0.554 0.253206,-1.1056 0.37508,-1.661 0.0396,-0.134 0.15884,-0.233 0.287046,-0.2828 0.007,0.138 0.0389,0.2838 0,0.4214 -0.07312,0.2204 -0.041,0.4566 -0.11552,0.6776 0.02516,0.2202 0.03424,0.4394 -0.04216,0.6524 0.03774,0.2716 0.11062,0.543 0.02516,0.8144 0.09036,0.7402 0.26103,1.4736 0.456036,2.1936 0.05938,-0.084 0.1197,-0.166 0.1742,-0.2544 0.327826,-1.049 0.745178,-2.0816 1.287338,-3.042 0.211704,-0.4554 0.518686,-0.8562 0.799536,-1.2704 0.08826,0.1 0.19354,0.184 0.283924,0.2818 0.02096,0.096 0.03772,0.19 0.051,0.2858 0.11342,-0.028 0.22684,-0.054 0.339958,-0.082 -0.02818,-0.106 -0.05822,-0.2132 -0.08594,-0.3224 0.04496,0 0.13508,-0.024 0.18026,-0.028 0.03424,0.176 -0.014,0.3392 -0.12436,0.4786 0.17002,0.04 0.338864,0.024 0.490992,-0.068 -0.014,-0.3236 0.10854,-0.6296 0.253812,-0.9126 0.05472,-0.2296 0.08548,-0.4654 0.17094,-0.6886 0.08128,0.052 0.1607,0.102 0.239396,0.156 0.235038,-0.2612 0.194,-0.654 0.437612,-0.903 0.17816,-0.078 0.359198,-0.156 0.547868,-0.204 0.0573,0.2454 0.09152,0.4956 0.16932,0.7362 0.06218,-0.07 0.12018,-0.144 0.17468,-0.2226 0.09502,0.056 0.1961,0.102 0.299552,0.14 0.02096,0.166 0.09688,0.3424 0.014,0.5024 -0.09782,0.17 0.0046,0.3518 0.10992,0.4892 -0.014,0.092 -0.02516,0.186 -0.03842,0.2776 0.18446,0 0.246312,-0.2018 0.271372,-0.3536 0.15418,-0.8072 0.17538,-1.6588 0.540298,-2.4124 0.13392,-0.178 0.312756,-0.3146 0.458132,-0.4814 1.182464,-1.0994 2.360272,-2.2052 3.591878,-3.2494 0.06846,-0.058 0.12902,-0.126 0.1919,-0.19 -0.02516,0.078 -0.05054,0.156 -0.07104,0.2346 0.0368,0.098 0.08734,0.188 0.13136,0.2818 -0.03144,-0.236 0.11878,-0.432 0.15372,-0.6586 0.1989,-0.2272 0.453498,-0.3982 0.667554,-0.6108 0.07382,-0.09 0.200058,-0.092 0.30209,-0.13 0.014,0.2348 -0.18724,0.4912 -0.002,0.6968 0.02096,10e-4 0.068,0 0.09014,0 0.02516,-0.3214 0.15976,-0.6212 0.211238,-0.9386 0.08966,-0.2446 0.300204,-0.4228 0.558838,-0.4712 -0.09106,0.3864 -0.33479,0.7314 -0.339122,1.1348 -0.06428,0.2498 -0.15604,0.492 -0.265084,0.726 -0.05264,0.116 -0.02516,0.244 0.014,0.3584 -0.08128,0.148 -0.10038,0.3138 -0.05612,0.4774 0.02818,-0.026 0.0843,-0.078 0.11272,-0.104 0.18864,-0.5876 0.542394,-1.1028 0.732228,-1.6908 0.14812,-0.172 0.353328,-0.3038 0.432792,-0.527 0.08174,-0.2382 0.208444,-0.4566 0.303978,-0.689 0.034,0 0.10084,-0.024 0.13438,-0.028 0.0559,0.2462 -0.04168,0.4828 -0.12064,0.7112 -0.12298,0.3028 -0.212636,0.6176 -0.34555,0.9162 -0.058,0.158 0.0368,0.3268 -0.02096,0.484 -0.07126,0.4384 -0.210538,0.8646 -0.421008,1.2572 -0.07174,0.106 -0.014,0.2366 7.7e-4,0.3516 0.02818,-0.028 0.07918,-0.078 0.10644,-0.104 0.37473,-0.992 0.791174,-1.9684 1.261206,-2.919 0.14416,-0.2132 0.275472,-0.4426 0.474784,-0.612 0.21939,-0.4388 0.417212,-0.8894 0.62088,-1.337 0.14742,-0.3334 0.243798,-0.724 0.550616,-0.952 0.260728,-0.112 0.464676,-0.3152 0.703652,-0.4652 0.28141,-0.148 0.52651,-0.356 0.803402,-0.5144 0.237858,-0.108 0.448396,-0.2632 0.678172,-0.3868 0.17398,-0.17 0.442738,-0.162 0.617154,-0.3304 0.15348,-0.142 0.390546,-0.102 0.551616,-0.2318 0.258494,-0.2088 0.60416,-0.2272 0.915286,-0.3034 0.245032,-0.044 0.488898,-0.122 0.739216,-0.118 0.256954,0.066 0.522434,0.092 0.767326,0.2 -0.16676,0.3136 -0.259146,0.6568 -0.38959,0.9846 -0.301788,0.8236 -0.603996,1.648 -0.90583,2.4714 -0.13066,0.452 -0.391734,0.866 -0.445486,1.3376 0.272908,-0.14 0.337304,-0.48 0.478674,-0.73 0.30174,-0.024 0.448232,-0.3248 0.486126,-0.5858 0.11948,-0.2568 0.424384,-0.4684 0.330596,-0.7838 0.378108,-0.088 0.32643,-0.5456 0.541998,-0.792 0.357986,-0.438 0.435472,-1.012 0.667344,-1.512 0.1395,0 0.283902,0 0.351698,0.15 0.261636,-0.046 0.530446,-0.16 0.795994,-0.076 0.518244,0.046 1.049692,0.2272 1.423886,0.6016 0.253812,0.2248 0.432188,0.5172 0.628334,0.7898 0.10294,0.225 0.11202,0.4876 0.264152,0.6896 0.12298,0.172 0.14346,0.383 0.18982,0.5802 -0.1961,0.2 -0.453334,0.2878 -0.711896,0.375 -0.18562,0.19 -0.469054,0.204 -0.656652,0.3918 -0.436078,0.144 -0.73528,0.5398 -1.181254,0.652 0.09828,0.142 0.293008,0.076 0.396902,-0.024 0.1996,-0.2018 0.530098,-0.148 0.733602,-0.3438 0.16816,-0.164 0.436986,-0.106 0.614384,-0.254 0.229402,-0.196 0.545048,-0.2178 0.82357,-0.3058 0.08874,0.092 0.07708,0.2438 0.06498,0.3628 -0.05916,0.3384 0.15698,0.674 0.04052,1.0084 -0.08686,0.5612 -0.260728,1.105 -0.48778,1.6248 -0.286416,0.7662 -0.743406,1.4484 -1.114598,2.1736 -0.294872,0.481 -0.614802,0.945 -0.92502,1.4154 -0.285136,0.4348 -0.650808,0.8096 -0.933592,1.246 -0.30209,0.4618 -0.703162,0.848 -1.018366,1.3002 -0.675308,0.791 -1.341324,1.5878 -2.048236,2.3504 -0.279196,0.3294 -0.580402,0.6672 -0.997428,0.8202 -0.270742,0.252 -0.689142,0.198 -0.957742,0.453 -0.301788,0.136 -0.671046,0.104 -0.939134,0.3286 -0.440944,0.194 -0.937946,0.2226 -1.392958,0.3812 -0.759128,0.4498 -1.716706,0.3254 -2.484778,0.758 -0.783116,0.225 -1.601004,0.3382 -2.37357,0.6024 0.247266,-0.028 0.49621,-0.038 0.742546,-0.066 0.807152,-0.156 1.611508,-0.3256 2.415352,-0.4962 0.249736,-0.046 0.481468,-0.156 0.708588,-0.2626 0.57677,-0.18 1.187892,-0.2494 1.755136,-0.4534 0.408408,-0.3126 0.98257,-0.194 1.388928,-0.5086 0.272956,-0.136 0.582638,-0.198 0.886848,-0.192 -0.979564,0.9666 -1.91779,1.977 -2.928936,2.9128 -0.408524,0.3824 -0.637136,0.9044 -0.970552,1.3458 -0.1565,0.24 -0.512582,0.158 -0.711592,0.3502 -0.234412,0.2134 -0.593282,0.132 -0.844952,0.3174 -0.351534,0.2646 -0.84644,0.188 -1.199606,0.448 -0.293636,0.2086 -0.705142,0.122 -0.990278,0.3536 -0.331808,0.2294 -0.78789,0.158 -1.111594,0.4068 -0.298668,0.2064 -0.70626,0.134 -1.001154,0.3488 -0.341916,0.244 -0.814302,0.172 -1.152282,0.4244 -0.283272,0.198 -0.668182,0.13 -0.950242,0.3294 -0.341196,0.2508 -0.815256,0.178 -1.155008,0.4306 -0.22521,0.156 -0.51037,0.156 -0.765998,0.2318 -0.1593,0.04 -0.273864,0.172 -0.428506,0.225 -0.337446,0.108 -0.695548,0.146 -1.023048,0.288 0.772148,0.088 1.534256,-0.154 2.284976,-0.305 0.484426,-0.186 1.000596,-0.259 1.506634,-0.3622 0.14532,-0.036 0.294872,-0.022 0.440222,6e-4 -0.1728,0.178 -0.429136,0.162 -0.654882,0.2086 -0.207512,0.034 -0.40743,0.1 -0.603646,0.176 0.445556,0.076 0.91568,-0.044 1.290948,-0.2858 0.474784,-0.164 0.984828,-0.2134 1.456748,-0.3828 0.35752,-0.225 0.785236,-0.257 1.179716,-0.3782 0.281712,-0.2272 0.645312,-0.2772 0.985668,-0.3692 -0.0116,0.036 -0.02516,0.108 -0.03424,0.144 -0.66625,0.531 -1.30469,1.097 -1.994252,1.5984 -0.204948,0.132 -0.39299,0.2882 -0.589392,0.4326 -0.35568,0.174 -0.64226,0.4646 -1.017806,0.6004 -0.16442,0.188 -0.431722,0.188 -0.6111,0.3502 -0.14906,0.128 -0.359172,0.126 -0.533334,0.2016 -0.345758,0.3596 -0.722632,0.6968 -1.158406,0.9444 -0.278894,0.178 -0.544258,0.385 -0.869894,0.471 -0.236298,0.2582 -0.616734,0.2 -0.885032,0.3986 -0.19726,0.154 -0.471476,0.122 -0.682342,0.249 -0.493904,0.4586 -1.049364,0.8442 -1.578692,1.2598 -0.340402,0.162 -0.59377,0.4718 -0.96091,0.5782 -0.13974,0.128 -0.302696,0.2134 -0.484798,0.2664 -0.290492,0.3028 -0.763228,0.2202 -1.086512,0.467 -0.272652,0.116 -0.490854,0.3234 -0.775198,0.414 -0.1947,0.18 -0.46046,0.2372 -0.683646,0.3738 -0.433864,0.2506 -1.005788,0.15 -1.397498,0.4868 -0.405404,0.168 -0.86435,0.162 -1.274994,0.3204 -0.260426,0.112 -0.544188,0.15 -0.825574,0.156 -0.410434,0.054 -0.811436,0.166 -1.220288,0.2296 0.014,-0.042 0.02096,-0.082 0.03144,-0.124 -0.47674,0.072 -0.950384,0.176 -1.430314,0.225 -0.1933,-0.09 -0.395482,-0.062 -0.59929,-0.034 -0.343012,-0.082 -0.69124,-0.14 -1.02752,-0.2474 -0.12996,0.026 -0.340844,0.024 -0.334882,0.194 0.13578,0 0.270416,0 0.405032,0 -0.0566,0.07 -0.11412,0.14 -0.17094,0.2086 0.23751,0.026 0.45082,0.194 0.69047,0.092 0.308682,0.046 0.615524,0.104 0.929912,0.088 -0.15068,0.068 -0.300204,0.14 -0.443972,0.2202 0.06194,0.024 0.18398,0.04 0.245684,0.052 0.13974,-0.092 0.257584,-0.242 0.440874,-0.242 0.08804,0.058 0.17304,0.12 0.26103,0.178 0.10574,-0.062 0.209142,-0.134 0.33104,-0.158 0.303652,-0.08 0.604462,0.116 0.90774,0.028 0.362784,-0.082 0.736304,-0.134 1.078546,-0.2848 0.15184,-0.058 0.313758,-0.026 0.467984,0 -0.16956,0.078 -0.344338,0.156 -0.49104,0.2748 -0.18376,0.172 -0.466168,0.146 -0.66201,0.296 -0.276054,0.2518 -0.70661,0.148 -0.989068,0.3944 -0.440548,0.2226 -0.955902,0.235 -1.418878,0.3994 -0.503616,0.2716 -1.091472,0.3888 -1.661442,0.3374 -0.29897,0.024 -0.590626,0.106 -0.890504,0.126 -0.376152,-0.074 -0.767326,-0.066 -1.136864,-0.178 -0.443902,-0.128 -0.832468,-0.4016 -1.156404,-0.7224 -0.460508,-0.258 -0.989348,-0.044 -1.45882,0.072 -0.225912,0.188 -0.506272,0.2462 -0.786401,0.3058 -0.1777,0.132 -0.36432,0.2442 -0.580612,0.3056 -0.154876,0.128 -0.331971,0.2156 -0.526394,0.267 -0.16,0.172 -0.3932,0.2108 -0.593282,0.3114 -0.157206,0.17 -0.407895,0.174 -0.572111,0.3338 -0.150218,0.128 -0.378994,0.114 -0.518196,0.262 -0.139972,0.144 -0.369212,0.118 -0.515098,0.2572 -0.240676,0.2088 -0.605999,0.148 -0.853708,0.3454 -0.184688,0.158 -0.436985,0.162 -0.661101,0.2226 -0.201223,0.046 -0.340636,0.2226 -0.544304,0.2608 -0.277939,0.092 -0.59454,0.098 -0.837055,0.2788 -0.298295,0.211 -0.705352,0.136 -1.008025,0.3408 -0.375919,0.2682 -0.891181,0.192 -1.269778,0.4544 -0.248827,0.166 -0.56035,0.17 -0.84155,0.2474 -0.226143,0.042 -0.392548,0.2248 -0.618179,0.2714 -0.381508,0.12 -0.806708,0.134 -1.146389,0.3634" />
    <path
       inkscape:connector-curvature="0"
       style="font-size:11px;font-style:normal;font-variant:normal;font-weight:normal;font-stretch:normal;text-align:end;line-height:125%;letter-spacing:0px;word-spacing:0px;text-anchor:end;fill:#ffffff;fill-opacity:1;stroke:none;font-family:mry_KacstQurn;-inkscape-font-specification:mry_KacstQurn"
       d="m 44.75,965.7372 0,5.25 c -0.20534,-0.5133 -0.56384,-0.8942 -1.0625,-1.1875 -0.498672,-0.2933 -1.034506,-0.4375 -1.5625,-0.4375 -0.836004,0 -1.501336,0.1997 -2,0.625 -0.484002,0.4107 -0.861002,0.9465 -1.125,1.5625 -0.249334,0.616 -0.364168,1.2667 -0.4375,2 -0.07334,0.7187 -0.125,1.384 -0.125,2 0,0.924 0.0555,1.7998 0.1875,2.5625 0.14666,0.7627 0.379498,1.3948 0.6875,1.9375 0.307998,0.5427 0.703498,0.942 1.1875,1.25 0.483996,0.2933 1.045996,0.4375 1.75,0.4375 0.322662,0 0.658828,-0.022 0.9375,-0.125 0.27866,-0.1027 0.529994,-0.2137 0.75,-0.375 0.23466,-0.1613 0.415826,-0.3572 0.5625,-0.5625 0.16132,-0.22 0.253826,-0.4675 0.3125,-0.6875 l 0.0625,0 0,1.5 1.75,0 0,-15.75 -1.875,0 z m -20.625,3.625 c -0.322672,0 -0.658838,0.022 -0.9375,0.125 -0.278672,0.1027 -0.515338,0.2762 -0.75,0.4375 -0.220004,0.1613 -0.40117,0.3425 -0.5625,0.5625 -0.14668,0.2053 -0.253836,0.405 -0.3125,0.625 l -0.0625,0 0,-1.4375 -1.75,0 0,15.625 1.8125,0 0,-5.1875 0.0625,0 c 0.20533,0.5133 0.54533,0.8942 1,1.1875 0.454662,0.2933 0.971994,0.4375 1.5,0.4375 0.76266,0 1.376326,-0.1518 1.875,-0.5625 0.498658,-0.4253 0.846324,-0.9943 1.125,-1.625 0.293324,-0.6453 0.507658,-1.3145 0.625,-2.0625 0.11732,-0.748 0.18748,-1.4503 0.1875,-2.125 -10e-6,-0.88 -0.04084,-1.7042 -0.1875,-2.4375 -0.13201,-0.7333 -0.379508,-1.347 -0.6875,-1.875 -0.308008,-0.528 -0.703508,-0.9567 -1.1875,-1.25 -0.484006,-0.2933 -1.046006,-0.4375 -1.75,-0.4375 z m 9.125,0 c -0.513338,0 -0.982836,0.055 -1.4375,0.1875 -0.45467,0.132 -0.898002,0.3463 -1.25,0.625 -0.337334,0.264 -0.607168,0.5893 -0.8125,1 -0.19066,0.4107 -0.25,0.8948 -0.25,1.4375 0,0.6013 0.08866,1.1187 0.25,1.5 0.176,0.3813 0.360998,0.6403 0.625,0.875 0.278664,0.2347 0.585498,0.4783 0.9375,0.625 0.351998,0.132 0.710496,0.2577 1.0625,0.375 0.351996,0.1173 0.725162,0.1952 1.0625,0.3125 0.351994,0.1173 0.673494,0.2615 0.9375,0.4375 0.27866,0.1613 0.46366,0.361 0.625,0.625 0.176,0.2493 0.249994,0.604 0.25,1 -6e-6,0.4253 -0.04084,0.7507 -0.1875,1 -0.14668,0.2493 -0.342506,0.4783 -0.5625,0.625 -0.205338,0.1467 -0.405006,0.206 -0.625,0.25 -0.220004,0.044 -0.415838,0.062 -0.5625,0.062 -0.45467,0 -0.83167,-0.041 -1.125,-0.1875 -0.27867,-0.1467 -0.52617,-0.3757 -0.6875,-0.625 -0.16134,-0.264 -0.253836,-0.5523 -0.3125,-0.875 -0.05866,-0.3373 -0.0625,-0.648 -0.0625,-1 l -1.875,0 c 0,0.308 0.0186,0.6557 0.0625,1.125 0.044,0.4693 0.18816,0.9203 0.4375,1.375 0.263998,0.44 0.707332,0.8648 1.25,1.1875 0.55733,0.3227 1.315164,0.4375 2.3125,0.4375 0.542662,0 1.030662,-0.026 1.5,-0.1875 0.469326,-0.1467 0.91266,-0.3795 1.25,-0.6875 0.337326,-0.308 0.559326,-0.7328 0.75,-1.1875 0.19066,-0.4693 0.312492,-1.009 0.3125,-1.625 -8e-6,-0.5867 -0.074,-1.0708 -0.25,-1.4375 -0.16134,-0.3813 -0.408842,-0.6403 -0.6875,-0.875 -0.264008,-0.2493 -0.585506,-0.493 -0.9375,-0.625 -0.33734,-0.1467 -0.648006,-0.2577 -1,-0.375 -0.366672,-0.1173 -0.710504,-0.2098 -1.0625,-0.3125 -0.337338,-0.1027 -0.658838,-0.2283 -0.9375,-0.375 -0.264004,-0.1613 -0.511504,-0.3425 -0.6875,-0.5625 -0.16134,-0.22 -0.250002,-0.523 -0.25,-0.875 -2e-6,-0.4107 0.10332,-0.7028 0.25,-0.9375 0.14666,-0.2493 0.30933,-0.4452 0.5,-0.5625 0.20533,-0.1173 0.404996,-0.2207 0.625,-0.25 0.219996,-0.044 0.415828,-0.062 0.5625,-0.062 0.674662,0 1.140328,0.229 1.375,0.625 0.249328,0.396 0.374994,0.9395 0.375,1.6875 l 1.8125,0 c -8e-6,-0.352 -0.0038,-0.7622 -0.0625,-1.1875 -0.044,-0.44 -0.202842,-0.8062 -0.4375,-1.1875 -0.234674,-0.3813 -0.578508,-0.736 -1.0625,-1 -0.484006,-0.264 -1.149338,-0.375 -2,-0.375 z m -9.375,1.5625 c 0.425328,0 0.783828,0.155 1.0625,0.375 0.27866,0.2053 0.46366,0.479 0.625,0.875 0.16132,0.3813 0.253826,0.8323 0.3125,1.375 0.07332,0.5427 0.125,1.1672 0.125,1.8125 -8e-6,0.7627 -0.05168,1.3987 -0.125,2 -0.05868,0.6013 -0.15118,1.1518 -0.3125,1.5625 -0.16134,0.4107 -0.34634,0.7175 -0.625,0.9375 -0.278672,0.22 -0.637172,0.3125 -1.0625,0.3125 -0.498672,0 -0.942004,-0.111 -1.25,-0.375 -0.308004,-0.264 -0.511504,-0.6225 -0.6875,-1.0625 -0.176,-0.44 -0.316336,-0.9573 -0.375,-1.5 -0.05866,-0.5573 -0.0625,-1.1155 -0.0625,-1.6875 -2e-6,-0.6747 0.0038,-1.2552 0.0625,-1.8125 0.05866,-0.572 0.15116,-1.0893 0.3125,-1.5 0.176,-0.4107 0.441996,-0.7175 0.75,-0.9375 0.307996,-0.2347 0.736662,-0.375 1.25,-0.375 z m 18.625,0 c 0.498662,0 0.941994,0.1735 1.25,0.4375 0.307994,0.264 0.511494,0.56 0.6875,1 0.176,0.44 0.316326,0.9427 0.375,1.5 0.05866,0.5427 0.0625,1.1155 0.0625,1.6875 -8e-6,0.6747 -0.0038,1.303 -0.0625,1.875 -0.05868,0.5573 -0.199,1.0268 -0.375,1.4375 -0.16134,0.4107 -0.36484,0.7653 -0.6875,1 -0.308006,0.22 -0.751338,0.3125 -1.25,0.3125 -0.425338,0 -0.783838,-0.092 -1.0625,-0.3125 -0.27867,-0.22 -0.46367,-0.5415 -0.625,-0.9375 -0.16134,-0.396 -0.30167,-0.8655 -0.375,-1.4375 -0.05866,-0.572 -0.0625,-1.2335 -0.0625,-1.9375 -2e-6,-0.704 0.0038,-1.303 0.0625,-1.875 0.07332,-0.572 0.213664,-1.104 0.375,-1.5 0.16132,-0.396 0.34633,-0.655 0.625,-0.875 0.278662,-0.22 0.637162,-0.375 1.0625,-0.375 z"
       id="text3020" />
  </g>
</svg>
