<?xml version="1.0" encoding="UTF-8" standalone="no"?>
<!-- Created with Inkscape (http://www.inkscape.org/) -->

<svg
   xmlns:dc="http://purl.org/dc/elements/1.1/"
   xmlns:cc="http://creativecommons.org/ns#"
   xmlns:rdf="http://www.w3.org/1999/02/22-rdf-syntax-ns#"
   xmlns:svg="http://www.w3.org/2000/svg"
   xmlns="http://www.w3.org/2000/svg"
   xmlns:xlink="http://www.w3.org/1999/xlink"
   xmlns:sodipodi="http://sodipodi.sourceforge.net/DTD/sodipodi-0.dtd"
   xmlns:inkscape="http://www.inkscape.org/namespaces/inkscape"
   width="96"
   height="96"
   id="svg2"
   version="1.1"
   inkscape:version="0.48.4 r9939"
   sodipodi:docname="javascript.svg">
  <defs
     id="defs4">
    <filter
       id="filter3174-3"
       color-interpolation-filters="sRGB">
      <feGaussianBlur
         stdDeviation="1.71"
         id="feGaussianBlur3176-1" />
    </filter>
    <linearGradient
       gradientTransform="scale(1.0058652,0.994169)"
       gradientUnits="userSpaceOnUse"
       id="ButtonShadow-8"
       y2="7.0165396"
       x2="45.447727"
       y1="92.539597"
       x1="45.447727">
      <stop
         offset="0"
         style="stop-color:#000000;stop-opacity:1"
         id="stop3750-45" />
      <stop
         offset="1"
         style="stop-color:#000000;stop-opacity:0.58823532"
         id="stop3752-7" />
    </linearGradient>
    <filter
       id="filter3174-3-1"
       color-interpolation-filters="sRGB">
      <feGaussianBlur
         stdDeviation="1.71"
         id="feGaussianBlur3176-1-8" />
    </filter>
    <linearGradient
       gradientTransform="scale(1.0058652,0.994169)"
       gradientUnits="userSpaceOnUse"
       id="ButtonShadow-8-0"
       y2="7.0165396"
       x2="45.447727"
       y1="92.539597"
       x1="45.447727">
      <stop
         offset="0"
         style="stop-color:#000000;stop-opacity:1"
         id="stop3750-45-9" />
      <stop
         offset="1"
         style="stop-color:#000000;stop-opacity:0.58823532"
         id="stop3752-7-3" />
    </linearGradient>
    <filter
       id="filter3174-3-17"
       color-interpolation-filters="sRGB">
      <feGaussianBlur
         stdDeviation="1.71"
         id="feGaussianBlur3176-1-3" />
    </filter>
    <linearGradient
       gradientTransform="scale(1.0058652,0.994169)"
       gradientUnits="userSpaceOnUse"
       id="ButtonShadow-8-7"
       y2="7.0165396"
       x2="45.447727"
       y1="92.539597"
       x1="45.447727">
      <stop
         offset="0"
         style="stop-color:#000000;stop-opacity:1"
         id="stop3750-45-8" />
      <stop
         offset="1"
         style="stop-color:#000000;stop-opacity:0.58823532"
         id="stop3752-7-8" />
    </linearGradient>
    <linearGradient
       inkscape:collect="always"
       xlink:href="#ButtonShadow-8-7"
       id="linearGradient3093"
       gradientUnits="userSpaceOnUse"
       gradientTransform="matrix(1.0058652,0,0,0.994169,5.26345,937.18686)"
       x1="45.447727"
       y1="92.539597"
       x2="45.447727"
       y2="7.0165396" />
  </defs>
  <sodipodi:namedview
     id="base"
     pagecolor="#ffffff"
     bordercolor="#666666"
     borderopacity="1.0"
     inkscape:pageopacity="0.0"
     inkscape:pageshadow="2"
     inkscape:zoom="3.484569"
     inkscape:cx="-6.0295293"
     inkscape:cy="55.948813"
     inkscape:document-units="px"
     inkscape:current-layer="layer1"
     showgrid="true"
     inkscape:snap-page="true"
     inkscape:snap-global="true"
     inkscape:snap-object-midpoints="false"
     inkscape:object-nodes="true"
     inkscape:window-width="1305"
     inkscape:window-height="744"
     inkscape:window-x="61"
     inkscape:window-y="24"
     inkscape:window-maximized="1"
     inkscape:snap-nodes="true"
     inkscape:snap-bbox="true"
     inkscape:object-paths="true"
     inkscape:snap-center="true">
    <inkscape:grid
       type="xygrid"
       id="grid3925"
       empspacing="5"
       visible="true"
       enabled="true"
       snapvisiblegridlinesonly="true" />
  </sodipodi:namedview>
  <metadata
     id="metadata7">
    <rdf:RDF>
      <cc:Work
         rdf:about="">
        <dc:format>image/svg+xml</dc:format>
        <dc:type
           rdf:resource="http://purl.org/dc/dcmitype/StillImage" />
        <dc:title />
      </cc:Work>
    </rdf:RDF>
  </metadata>
  <g
     inkscape:label="Layer 1"
     inkscape:groupmode="layer"
     id="layer1"
     transform="translate(0,-956.3622)">
    <path
       inkscape:connector-curvature="0"
       style="fill:#ff6600;fill-opacity:1;fill-rule:nonzero;stroke:none"
       d="m 79,1050.3622 c 3.691096,0 6,-3.309 6,-7 l 0,-78 c 0,-3.6911 -2.308904,-7 -6,-7 l -61,0 c -3.691096,0 -7,3.3089 -7,7 l 0,62 21,23 z"
       id="rect3121"
       sodipodi:nodetypes="ssssssccs" />
    <path
       style="fill:#ffffff;fill-opacity:0.58823532;fill-rule:nonzero;stroke:none"
       d="m 32,1050.3622 0,-23 -21,0 z"
       id="rect3903"
       inkscape:connector-curvature="0"
       sodipodi:nodetypes="cccc" />
    <path
       sodipodi:nodetypes="cccc"
       inkscape:connector-curvature="0"
       id="path3931"
       d="m 32,1027.3622 0,23 21,0 z"
       style="fill:#000000;fill-opacity:0.58823532;fill-rule:nonzero;stroke:none" />
    <g
       id="layer2"
       style="display:none"
       transform="translate(39.84429,874.99134)">
      <rect
         width="86"
         height="85"
         rx="6"
         ry="6"
         x="5"
         y="7"
         id="rect3745"
         style="opacity:0.9;fill:url(#ButtonShadow-8);fill-opacity:1;fill-rule:nonzero;stroke:none;filter:url(#filter3174-3)" />
    </g>
    <g
       id="layer2-0"
       style="display:none"
       transform="translate(40.3598,932.47103)">
      <rect
         width="86"
         height="85"
         rx="6"
         ry="6"
         x="5"
         y="7"
         id="rect3745-2"
         style="opacity:0.9;fill:url(#ButtonShadow-8-0);fill-opacity:1;fill-rule:nonzero;stroke:none;filter:url(#filter3174-3-1)" />
    </g>
    <rect
       style="opacity:0.9;fill:url(#linearGradient3093);fill-opacity:1;fill-rule:nonzero;stroke:none;display:none;filter:url(#filter3174-3-17)"
       id="rect3745-5"
       y="944.18689"
       x="10.26345"
       ry="6"
       rx="6"
       height="85"
       width="86" />
    <path
       d="m 63.608381,967.3622 c 2.012491,8.5023 -7.104453,11.08769 -10.392823,16.3824 -2.239303,3.60801 1.099165,7.47258 5.65075,11.8763 -1.774999,-4.30265 -7.796829,-8.07355 0,-14.67736 9.722498,-8.22966 4.742073,-13.58134 4.742073,-13.58134 z m 5.991482,10.53597 c 9.6e-5,0 -16.426914,4.39665 -8.575496,14.09861 2.317806,2.86158 -0.596301,5.42057 -0.596301,5.42057 0,0 5.880976,-3.22948 3.180315,-7.3081 -2.523267,-3.8018 -4.481571,-5.69771 5.991482,-12.21108 z m 2.669179,17.32681 c -0.503513,0.0354 -1.022406,0.13198 -1.561742,0.33638 -0.504521,0.19313 -0.766698,0.63958 -0.766698,0.63958 0,0 0.311103,-0.14485 1.022259,-0.30579 2.908041,-0.64989 7.07962,4.17645 -1.930911,9.19635 -0.04181,0.1158 -0.170567,0.2736 -0.170375,0.2736 10.903827,-3.0741 8.274784,-10.40793 3.407451,-10.14012 z m -19.479422,0.48734 c -1.148789,0.0354 -3.85991,0.29614 -6.985333,1.91812 -4.929777,2.55676 12.205028,3.71816 21.069584,1.21834 0.921579,-0.67436 2.186466,-1.2486 2.186466,-1.2486 0,0 -3.628307,0.67951 -7.240892,1.00461 -4.421659,0.39817 -9.147727,0.49409 -11.528642,0.1545 -5.637074,-0.80826 3.095135,-3.04505 3.095135,-3.04505 0,0 -0.213389,0 -0.596318,0 z m -1.448174,5.84648 c -8.13209,2.8947 4.536048,6.1837 15.901574,2.6185 -1.207559,-0.4561 -1.987699,-1.2785 -1.987699,-1.2785 -5.556973,1.1466 -8.769171,1.0896 -12.834844,0.6392 -3.14324,-0.3479 -1.079031,-1.9792 -1.079031,-1.9792 z m 1.135824,5.6336 c -7.38399,2.212 4.512088,6.786 13.913872,2.4663 -1.539855,-0.6415 -2.640786,-1.3699 -2.640786,-1.3699 -4.192628,0.8494 -6.161166,0.9225 -9.966886,0.4564 -3.140901,-0.3866 -1.3062,-1.5528 -1.3062,-1.5528 z m -4.770465,3.7455 c -3.173127,-0.1288 -10.352721,3.2536 -4.202551,4.3239 19.167642,3.3318 34.928631,-1.4923 29.957402,-3.8974 0,0 1.348259,1.2028 -1.504966,2.1315 -5.425457,1.762 -22.578739,2.2838 -27.345019,0.061 -1.712157,-0.8003 1.488102,-1.8979 2.498818,-2.1315 1.053837,-0.2447 1.675345,-0.1868 1.675345,-0.1868 -0.238179,-0.1803 -0.62573,-0.2833 -1.079029,-0.3058 z M 76.5,1013.9826 c 0,0 -0.612974,1.6644 -7.155695,2.9846 -7.381235,1.4899 -16.465967,1.3212 -21.864671,0.3653 0,0 1.103479,0.9782 6.786568,1.3703 8.647106,0.5929 21.919447,-0.3332 22.233798,-4.7202 z"
       inkscape:connector-curvature="0"
       id="path3672"
       style="font-size:7.5px;font-style:normal;font-variant:normal;font-weight:bold;font-stretch:normal;line-height:125%;letter-spacing:0px;word-spacing:0px;fill:#ffffff;fill-opacity:1;fill-rule:evenodd;stroke:none;display:inline;font-family:Impact;-inkscape-font-specification:Impact Bold" />
  </g>
</svg>
