<?xml version="1.0" encoding="UTF-8" standalone="no"?>
<!-- Created with Inkscape (http://www.inkscape.org/) -->

<svg
   xmlns:dc="http://purl.org/dc/elements/1.1/"
   xmlns:cc="http://creativecommons.org/ns#"
   xmlns:rdf="http://www.w3.org/1999/02/22-rdf-syntax-ns#"
   xmlns:svg="http://www.w3.org/2000/svg"
   xmlns="http://www.w3.org/2000/svg"
   xmlns:xlink="http://www.w3.org/1999/xlink"
   xmlns:sodipodi="http://sodipodi.sourceforge.net/DTD/sodipodi-0.dtd"
   xmlns:inkscape="http://www.inkscape.org/namespaces/inkscape"
   width="96"
   height="96"
   id="svg2"
   version="1.1"
   inkscape:version="0.48.4 r9939"
   sodipodi:docname="jpg.svg">
  <defs
     id="defs4">
    <filter
       id="filter3174-3"
       color-interpolation-filters="sRGB">
      <feGaussianBlur
         stdDeviation="1.71"
         id="feGaussianBlur3176-1" />
    </filter>
    <linearGradient
       gradientTransform="scale(1.0058652,0.994169)"
       gradientUnits="userSpaceOnUse"
       id="ButtonShadow-8"
       y2="7.0165396"
       x2="45.447727"
       y1="92.539597"
       x1="45.447727">
      <stop
         offset="0"
         style="stop-color:#000000;stop-opacity:1"
         id="stop3750-45" />
      <stop
         offset="1"
         style="stop-color:#000000;stop-opacity:0.58823532"
         id="stop3752-7" />
    </linearGradient>
    <filter
       id="filter3174-3-1"
       color-interpolation-filters="sRGB">
      <feGaussianBlur
         stdDeviation="1.71"
         id="feGaussianBlur3176-1-8" />
    </filter>
    <linearGradient
       gradientTransform="scale(1.0058652,0.994169)"
       gradientUnits="userSpaceOnUse"
       id="ButtonShadow-8-0"
       y2="7.0165396"
       x2="45.447727"
       y1="92.539597"
       x1="45.447727">
      <stop
         offset="0"
         style="stop-color:#000000;stop-opacity:1"
         id="stop3750-45-9" />
      <stop
         offset="1"
         style="stop-color:#000000;stop-opacity:0.58823532"
         id="stop3752-7-3" />
    </linearGradient>
    <filter
       id="filter3174-3-17"
       color-interpolation-filters="sRGB">
      <feGaussianBlur
         stdDeviation="1.71"
         id="feGaussianBlur3176-1-3" />
    </filter>
    <linearGradient
       gradientTransform="scale(1.0058652,0.994169)"
       gradientUnits="userSpaceOnUse"
       id="ButtonShadow-8-7"
       y2="7.0165396"
       x2="45.447727"
       y1="92.539597"
       x1="45.447727">
      <stop
         offset="0"
         style="stop-color:#000000;stop-opacity:1"
         id="stop3750-45-8" />
      <stop
         offset="1"
         style="stop-color:#000000;stop-opacity:0.58823532"
         id="stop3752-7-8" />
    </linearGradient>
    <linearGradient
       inkscape:collect="always"
       xlink:href="#ButtonShadow-8-7"
       id="linearGradient3093"
       gradientUnits="userSpaceOnUse"
       gradientTransform="matrix(1.0058652,0,0,0.994169,5.26345,937.18686)"
       x1="45.447727"
       y1="92.539597"
       x2="45.447727"
       y2="7.0165396" />
    <linearGradient
       id="linearGradient4154">
      <stop
         style="stop-color:#00ff00;stop-opacity:1;"
         offset="0"
         id="stop4156" />
      <stop
         id="stop4169"
         offset="0.5"
         style="stop-color:#008000;stop-opacity:0.49803922;" />
      <stop
         style="stop-color:#008000;stop-opacity:0;"
         offset="1"
         id="stop4158" />
    </linearGradient>
    <linearGradient
       inkscape:collect="always"
       id="linearGradient3839">
      <stop
         style="stop-color:#3365b2;stop-opacity:1;"
         offset="0"
         id="stop3841" />
      <stop
         style="stop-color:#3365b2;stop-opacity:0;"
         offset="1"
         id="stop3843" />
    </linearGradient>
    <linearGradient
       id="linearGradient4073">
      <stop
         style="stop-color:#0066ff;stop-opacity:1;"
         offset="0"
         id="stop4075" />
      <stop
         id="stop4081"
         offset="0.34548548"
         style="stop-color:#3f8bff;stop-opacity:1;" />
      <stop
         style="stop-color:#dae9ff;stop-opacity:1;"
         offset="1"
         id="stop4077" />
    </linearGradient>
    <clipPath
       clipPathUnits="userSpaceOnUse"
       id="clipPath3847">
      <path
         sodipodi:nodetypes="ssssssccs"
         id="path3849"
         d="m -21,1050.3622 c 3.691096,0 6,-3.309 6,-7 l 0,-78 c 0,-3.6911 -2.308904,-7 -6,-7 l -61,0 c -3.6911,0 -7,3.3089 -7,7 l 0,62 21,23 z"
         style="fill:#364e59;fill-opacity:0.50228307;fill-rule:nonzero;stroke:none"
         inkscape:connector-curvature="0" />
    </clipPath>
    <linearGradient
       inkscape:collect="always"
       xlink:href="#linearGradient4073"
       id="linearGradient3851"
       gradientUnits="userSpaceOnUse"
       gradientTransform="matrix(1.032721,0,0,1.0613927,-100.33394,-61.887107)"
       x1="43.34341"
       y1="959.92914"
       x2="43.86681"
       y2="1047.8119" />
    <linearGradient
       inkscape:collect="always"
       xlink:href="#linearGradient3839"
       id="linearGradient3853"
       gradientUnits="userSpaceOnUse"
       gradientTransform="matrix(3.2389882,0,0,3.2386069,-102.32898,-2352.3692)"
       x1="13.000004"
       y1="1033.3622"
       x2="13.000004"
       y2="1049.3622" />
    <linearGradient
       inkscape:collect="always"
       xlink:href="#linearGradient4154"
       id="linearGradient3855"
       gradientUnits="userSpaceOnUse"
       gradientTransform="matrix(1.032721,0,0,1.0613927,-100.33394,953.18881)"
       x1="36.545715"
       y1="87.295532"
       x2="37.447723"
       y2="58.358528" />
  </defs>
  <sodipodi:namedview
     id="base"
     pagecolor="#ffffff"
     bordercolor="#666666"
     borderopacity="1.0"
     inkscape:pageopacity="0.0"
     inkscape:pageshadow="2"
     inkscape:zoom="3.484569"
     inkscape:cx="2.2301983"
     inkscape:cy="41.246497"
     inkscape:document-units="px"
     inkscape:current-layer="layer1"
     showgrid="true"
     inkscape:snap-page="true"
     inkscape:snap-global="true"
     inkscape:snap-object-midpoints="false"
     inkscape:object-nodes="true"
     inkscape:window-width="1305"
     inkscape:window-height="744"
     inkscape:window-x="61"
     inkscape:window-y="24"
     inkscape:window-maximized="1"
     inkscape:snap-nodes="true"
     inkscape:snap-bbox="true"
     inkscape:object-paths="true"
     inkscape:snap-center="true">
    <inkscape:grid
       type="xygrid"
       id="grid3925"
       empspacing="5"
       visible="true"
       enabled="true"
       snapvisiblegridlinesonly="true" />
  </sodipodi:namedview>
  <metadata
     id="metadata7">
    <rdf:RDF>
      <cc:Work
         rdf:about="">
        <dc:format>image/svg+xml</dc:format>
        <dc:type
           rdf:resource="http://purl.org/dc/dcmitype/StillImage" />
        <dc:title />
      </cc:Work>
    </rdf:RDF>
  </metadata>
  <g
     inkscape:label="Layer 1"
     inkscape:groupmode="layer"
     id="layer1"
     transform="translate(0,-956.3622)">
    <g
       id="layer2"
       style="display:none"
       transform="translate(39.84429,874.99134)">
      <rect
         width="86"
         height="85"
         rx="6"
         ry="6"
         x="5"
         y="7"
         id="rect3745"
         style="opacity:0.9;fill:url(#ButtonShadow-8);fill-opacity:1;fill-rule:nonzero;stroke:none;filter:url(#filter3174-3)" />
    </g>
    <g
       id="layer2-0"
       style="display:none"
       transform="translate(40.3598,932.47103)">
      <rect
         width="86"
         height="85"
         rx="6"
         ry="6"
         x="5"
         y="7"
         id="rect3745-2"
         style="opacity:0.9;fill:url(#ButtonShadow-8-0);fill-opacity:1;fill-rule:nonzero;stroke:none;filter:url(#filter3174-3-1)" />
    </g>
    <rect
       style="opacity:0.9;fill:url(#linearGradient3093);fill-opacity:1;fill-rule:nonzero;stroke:none;display:none;filter:url(#filter3174-3-17)"
       id="rect3745-5"
       y="944.18689"
       x="10.26345"
       ry="6"
       rx="6"
       height="85"
       width="86" />
    <g
       id="g3837"
       clip-path="url(#clipPath3847)"
       transform="translate(100,0)">
      <path
         sodipodi:nodetypes="csccsccsccscc"
         inkscape:connector-curvature="0"
         id="rect2993"
         d="m -70.194593,956.50126 c -7.997649,0 -17.406551,0.92689 -22.286067,6.09894 C -97.36015,967.77226 -98,976.89348 -98,984.30535 c 0,13.1254 0,26.25015 0,39.37565 0,7.4118 0.63985,16.533 5.51934,21.705 4.879516,5.1721 14.288418,6.099 22.286067,6.099 13.125822,0 26.251644,0 39.377469,0 7.997646,0 17.406563,-0.9269 22.286066,-6.099 4.87951,-5.172 5.519334,-14.2932 5.519334,-21.705 0,-13.1255 0,-26.25025 0,-39.37565 0,-7.41187 -0.639831,-16.53309 -5.519334,-21.70515 -4.879503,-5.17205 -14.28842,-6.09894 -22.286066,-6.09894 -13.125825,0 -26.251647,0 -39.377469,0 z"
         style="fill:url(#linearGradient3851);fill-opacity:1;fill-rule:nonzero;stroke:none" />
      <path
         inkscape:connector-curvature="0"
         id="rect4083"
         d="m -98.01032,1013.2572 0,10.4146 c 0,1.8531 0.0574,3.8262 0.19364,5.8043 0.13623,1.9788 0.35731,3.9776 0.74227,5.9046 0.38495,1.9263 0.93201,3.7743 1.67817,5.4726 0.74617,1.6983 1.68466,3.2509 2.90452,4.5438 1.21987,1.2935 2.72811,2.3039 4.42134,3.1181 1.693228,0.8142 3.569939,1.4185 5.550874,1.8576 1.980935,0.4405 4.081056,0.7275 6.164055,0.8952 2.082995,0.1684 4.164639,0.2332 6.164051,0.2332 l 39.372488,0 c 1.999408,0 4.081054,-0.064 6.164054,-0.2332 2.082994,-0.1684 4.183115,-0.4599 6.164053,-0.8952 1.980933,-0.4404 3.857642,-1.0434 5.550876,-1.8576 1.693226,-0.8142 3.201461,-1.8246 4.421334,-3.1181 1.219875,-1.2929 2.158359,-2.8455 2.904525,-4.5438 0.746165,-1.6983 1.293224,-3.5463 1.678171,-5.4726 0.384921,-1.927 0.606015,-3.9258 0.742272,-5.9046 C -3.057395,1027.498 -3,1025.5249 -3,1023.6718 l 0,-15.656 -21.783958,-18.44124 -3.259529,2.7865 -4.034063,-1.72489 -13.005831,11.74123 -4.87315,4.7432 -11.489023,-12.10648 -4.582699,2.42182 -3.808159,-0.99553 -28.173918,16.81679 z"
         style="fill:url(#linearGradient3853);fill-opacity:1;fill-rule:nonzero;stroke:none" />
      <path
         inkscape:connector-curvature="0"
         id="rect4146"
         d="m -98.01032,1023.3732 0,0.298 c 0,1.8531 0.0574,3.8268 0.19364,5.8049 0.13623,1.9781 0.35731,3.977 0.74227,5.904 0.38495,1.9263 0.93201,3.7742 1.67817,5.4726 0.74617,1.6983 1.68466,3.2509 2.90452,4.5444 1.21987,1.2928 2.72811,2.3033 4.42134,3.1174 1.693228,0.8142 3.569939,1.4186 5.550874,1.8577 1.980935,0.4405 4.081056,0.7281 6.164055,0.8958 2.082995,0.1684 4.164639,0.2332 6.164051,0.2332 l 39.372488,0 c 1.999408,0 4.081054,-0.064 6.164054,-0.2332 2.082994,-0.1684 4.183115,-0.4599 6.164053,-0.8958 1.980933,-0.4404 3.857642,-1.0435 5.550876,-1.8577 1.693226,-0.8141 3.201461,-1.8246 4.421334,-3.1174 1.219875,-1.2935 2.158359,-2.8461 2.904525,-4.5444 0.746165,-1.6984 1.293224,-3.5463 1.678171,-5.4726 0.384921,-1.927 0.606015,-3.9259 0.742272,-5.904 C -3.057395,1027.498 -3,1025.5243 -3,1023.6712 l 0,-6.2356 c -36.319478,11.2502 -57.269206,7.625 -95.01033,5.9376 z"
         style="opacity:0.81069958;fill:url(#linearGradient3855);fill-opacity:1;fill-rule:nonzero;stroke:none" />
      <path
         sodipodi:nodetypes="cccccccc"
         inkscape:connector-curvature="0"
         id="rect4162"
         d="m -16.920983,1003.7985 0.328304,-2.3752 6.122569,7.3834 1.886438,1.7721 3.372869,0.6769 -7.516099,-7.6515 -11.35255,-11.53138 z"
         style="opacity:0.20987657;fill:#ffffff;fill-opacity:1;fill-rule:nonzero;stroke:none" />
      <path
         style="opacity:0.20987657;fill:#ffffff;fill-opacity:1;fill-rule:nonzero;stroke:none"
         d="m -22.462277,998.9898 0.750085,4.582 4.934126,7.7363 1.320846,2.2483 3.048355,1.6309 -6.635774,-9.5253 -0.944942,-4.6915 -5.229127,-9.67235 z"
         id="path4165"
         inkscape:connector-curvature="0"
         sodipodi:nodetypes="ccccccccc" />
      <path
         inkscape:connector-curvature="0"
         id="rect3847"
         d="m -78.64387,1018.3719 c -0.424765,-0.1727 -1.779678,2.155 -1.315839,2.4289 -0.971223,1.9085 -1.717174,3.6979 -2.226803,5.5664 l -0.202438,-0.4048 0.101218,0.7084 c -0.191466,0.7383 -0.374494,1.5429 -0.506092,2.3278 l -0.809748,-0.2024 c 0.06389,-2.4289 0.205591,-4.8824 0.506094,-5.364 0.616621,0.055 1.161598,-2.7199 0.708527,-2.7325 -0.451187,-0.081 -1.320453,2.46 -0.809747,2.6313 -0.273552,0.087 -0.496621,2.7329 -0.60731,5.364 l -1.315839,-0.4049 -1.417057,5.4652 0,-5.1616 0.506092,-0.1017 -0.60731,-0.2024 0,-4.5542 c -0.07209,0 -0.130238,0 -0.202437,0 l -1.012184,4.2506 -1.214627,-0.4049 -1.61949,-3.3397 c 0.0821,-0.8584 0.16339,-1.4958 0.30366,-1.7206 0.61661,0.055 1.16159,-2.72 0.70853,-2.7325 -0.45119,-0.081 -1.32046,2.46 -0.80974,2.6313 -0.3305,0.1058 -0.52628,3.839 -0.60732,6.8821 l -4.75726,-5.87 3.23898,6.4772 -3.23898,3.2385 -1.51828,0 c 0.10333,0.7481 0.15736,1.4944 0.30365,2.2266 0.38496,1.9263 0.87333,3.7669 1.6195,5.4652 0.74616,1.6983 1.71545,3.2609 2.93533,4.5543 1.21988,1.2929 2.76037,2.3232 4.45361,3.1373 1.69323,0.8143 3.586077,1.3826 5.567011,1.8218 1.980936,0.4405 4.091324,0.7431 6.174321,0.9109 2.082996,0.1684 4.17491,0.2024 6.174322,0.2024 l 39.272733,0 c 1.999408,0 4.091322,-0.033 6.174321,-0.2024 2.082994,-0.1684 4.193382,-0.475 6.174322,-0.9109 1.980932,-0.4405 3.873778,-1.0075 5.56701,-1.8218 1.693227,-0.8141 3.233735,-1.8444 4.45361,-3.1373 1.219874,-1.2934 2.189167,-2.856 2.935332,-4.5543 0.746166,-1.6983 1.234547,-3.5389 1.619495,-5.4652 0.1659,-0.8304 0.192298,-1.6803 0.303656,-2.5301 -18.542992,-0.4813 -47.352766,-3.0005 -29.656988,1.6193 19.770559,5.1615 -5.459324,3.7346 -9.109655,4.5542 l -0.809747,-6.0723 0,6.1736 -0.910965,-6.376 0.708529,-1.6194 -0.809747,1.0121 -0.101218,-0.6072 0,0.7085 -1.012184,1.3156 -0.708529,1.5181 c -0.08101,-3.0431 -0.276765,-6.7764 -0.60731,-6.8819 0.510707,-0.1714 -0.358559,-2.7124 -0.809747,-2.6315 -0.45307,0.014 0.09191,2.7876 0.708529,2.7326 0.413337,0.6624 0.500219,4.2206 0.506092,7.2868 l -0.303656,0.6073 0,-5.7687 -1.012183,5.87 -1.214621,-5.0603 0.404873,4.453 -1.619493,-4.3519 0.910965,5.9712 -1.315839,-1.7206 -0.101219,-3.5422 -0.404873,2.935 -0.202438,-0.2024 0.101218,-1.7205 0.101218,-3.0362 -0.404872,1.3157 c 0.404056,-1.4845 0.738862,-2.7529 1.012183,-3.0362 0.591832,0.1813 1.655159,-2.4236 1.21462,-2.5301 -0.424764,-0.1716 -1.779678,2.155 -1.315838,2.429 -0.298356,0.03 -1.046439,2.7057 -1.720713,5.3638 l 0,0.1017 c -0.138026,0.5463 -0.284651,1.0078 -0.404873,1.5181 l -1.113403,-5.5664 0.101218,6.1736 -1.315839,0.1018 1.012184,-4.5544 -1.821931,3.9471 0.60731,-2.8338 -2.429241,-4.5543 1.113402,3.2387 -1.012184,0 -1.113401,3.0361 0,-5.9711 -0.809748,4.4531 0,-3.7447 0.404874,-1.5181 -1.012184,1.0121 -0.202437,2.5301 c -0.630984,-2.9399 -2.105521,-8.5592 -2.530459,-8.6025 0.463839,-0.274 -0.891075,-2.6006 -1.315839,-2.429 -0.440539,0.1069 0.622788,2.7115 1.21462,2.5301 0.741874,0.7689 2.171991,7.3689 2.53046,9.5134 l -0.101218,1.3158 -0.404874,-2.6313 -2.429241,-2.6315 1.315839,2.429 0.404874,4.3519 -1.518276,-4.3519 0.101218,4.6556 -2.429241,-4.6556 0.607311,-1.6193 -0.708529,1.4169 -0.506092,-0.9109 0.303655,1.2144 -0.910965,1.6194 -0.101218,-2.429 1.92315,-2.8338 -2.834115,1.8218 -0.60731,6.0724 -0.910966,-7.0845 -0.708528,6.2748 -0.303656,-2.8337 -2.226804,-5.6677 1.113402,5.7689 -0.60731,4.1494 -1.82193,-10.1207 0,10.323 -0.809747,-4.1493 -2.732897,-6.2748 1.518276,5.5663 0.202436,5.364 -1.619494,-4.5544 -1.012183,-7.2868 -0.809748,8.9062 -1.518275,-3.1374 0.708528,0 -0.910965,-0.3037 -0.303656,-0.5059 0.506093,-4.2508 -0.910966,3.3398 -0.708529,-1.518 c 0.492278,-1.9157 1.211099,-3.858 2.125586,-5.87 0.591831,0.1807 1.655157,-2.4237 1.21462,-2.5302 z m -12.04499,6.4772 0.5061,5.5664 -0.60731,1.7205 c -0.0196,-0.4827 -0.0982,-1.0846 -0.10115,-1.9229 l 0.10115,-0.5061 -0.10115,-0.1017 c 0.007,-1.7389 0.0868,-3.1953 0.20244,-4.7567 z m 8.502348,2.7326 0.303655,1.7205 -0.506093,-0.2025 c 0.07891,-0.5077 0.0892,-1.0102 0.202438,-1.518 z m -5.870668,1.2145 -1.1134,4.3519 0.50609,-4.2508 0.60731,-0.1017 z m 3.643863,1.2144 0.60731,0 c -0.01422,0.4958 -0.09544,0.9752 -0.101218,1.4169 l -0.506092,-1.4169 z m 0.809746,0 0.70853,0 c -0.136737,1.0269 -0.247754,2.0689 -0.303656,3.2387 l -0.404874,-1.1133 c -0.01299,-0.7712 -0.01229,-1.0806 0,-2.1254 z m 1.012185,0 0.809747,0 -0.910966,3.3398 c -0.05037,-1.1129 -0.02139,-2.2499 0.101219,-3.3398 z m 17.105906,0.9109 1.012184,4.2507 -1.012184,2.1253 -1.012183,-2.1253 0,-1.5181 1.012183,-2.7326 z m 9.210874,0.506 0.303654,1.0121 -1.518275,2.8338 0.506091,-3.441 0.70853,-0.4049 z m -34.819124,1.1132 c 0.0135,0.1253 -0.0202,0.4951 0,0.5061 l -0.10114,0.1018 0.10114,-0.6073 z m 46.864111,0.4049 0.101218,1.7206 -1.923149,2.3276 1.315839,-2.9349 0.506092,-1.1133 z m -7.793816,1.012 0.101218,0 -0.303655,2.6314 -0.101219,-0.7084 c 0.168842,-0.8143 0.08117,-0.9711 0.303655,-1.923 z m 0.910965,1.5182 0.101218,0.1017 -0.202436,1.1133 0.101217,-1.2145 z"
         style="fill:#021d00;fill-opacity:0.456621;fill-rule:nonzero;stroke:none" />
      <path
         sodipodi:nodetypes="ccccccccc"
         inkscape:connector-curvature="0"
         id="path3062"
         d="m -57.264328,1002.8521 1.681617,4.3278 6.427667,6.5488 1.757319,1.9263 3.319802,0.9654 -8.462565,-7.9472 -1.894904,-4.3948 -7.116745,-8.38176 z"
         style="opacity:0.20987657;fill:#ffffff;fill-opacity:1;fill-rule:nonzero;stroke:none" />
      <path
         style="opacity:0.20987657;fill:#ffffff;fill-opacity:1;fill-rule:nonzero;stroke:none"
         d="m -62.164574,1009.0078 0.328304,-2.3752 6.122569,7.3834 1.886438,1.7721 7.760128,4.7896 -11.903358,-11.7643 -11.35255,-11.53124 z"
         id="path3064"
         inkscape:connector-curvature="0"
         sodipodi:nodetypes="cccccccc" />
    </g>
    <path
       sodipodi:nodetypes="cccc"
       inkscape:connector-curvature="0"
       id="path3931"
       d="m 32,1027.3622 0,23 21,0 z"
       style="fill:#000000;fill-opacity:0.39351854;fill-rule:nonzero;stroke:none" />
    <path
       style="fill:#b6d7cd;fill-opacity:1;fill-rule:nonzero;stroke:none"
       d="m 32,1050.3622 0,-23 -21,0 z"
       id="rect3903"
       inkscape:connector-curvature="0"
       sodipodi:nodetypes="cccc" />
  </g>
</svg>
