<?xml version="1.0" encoding="UTF-8" standalone="no"?>
<!-- Created with Inkscape (http://www.inkscape.org/) -->

<svg
   xmlns:dc="http://purl.org/dc/elements/1.1/"
   xmlns:cc="http://creativecommons.org/ns#"
   xmlns:rdf="http://www.w3.org/1999/02/22-rdf-syntax-ns#"
   xmlns:svg="http://www.w3.org/2000/svg"
   xmlns="http://www.w3.org/2000/svg"
   xmlns:xlink="http://www.w3.org/1999/xlink"
   xmlns:sodipodi="http://sodipodi.sourceforge.net/DTD/sodipodi-0.dtd"
   xmlns:inkscape="http://www.inkscape.org/namespaces/inkscape"
   width="96"
   height="96"
   id="svg2"
   version="1.1"
   inkscape:version="0.48.4 r9939"
   sodipodi:docname="application-x-flash-video (copy).svg">
  <defs
     id="defs4">
    <linearGradient
       id="linearGradient3792">
      <stop
         style="stop-color:#00aad4;stop-opacity:1;"
         offset="0"
         id="stop3794" />
      <stop
         style="stop-color:#0087a9;stop-opacity:1;"
         offset="1"
         id="stop3796" />
    </linearGradient>
    <filter
       id="filter3174-3"
       color-interpolation-filters="sRGB">
      <feGaussianBlur
         stdDeviation="1.71"
         id="feGaussianBlur3176-1" />
    </filter>
    <linearGradient
       gradientTransform="scale(1.0058652,0.994169)"
       gradientUnits="userSpaceOnUse"
       id="ButtonShadow-8"
       y2="7.0165396"
       x2="45.447727"
       y1="92.539597"
       x1="45.447727">
      <stop
         offset="0"
         style="stop-color:#000000;stop-opacity:1"
         id="stop3750-45" />
      <stop
         offset="1"
         style="stop-color:#000000;stop-opacity:0.58823532"
         id="stop3752-7" />
    </linearGradient>
    <filter
       id="filter3174-3-1"
       color-interpolation-filters="sRGB">
      <feGaussianBlur
         stdDeviation="1.71"
         id="feGaussianBlur3176-1-8" />
    </filter>
    <linearGradient
       gradientTransform="scale(1.0058652,0.994169)"
       gradientUnits="userSpaceOnUse"
       id="ButtonShadow-8-0"
       y2="7.0165396"
       x2="45.447727"
       y1="92.539597"
       x1="45.447727">
      <stop
         offset="0"
         style="stop-color:#000000;stop-opacity:1"
         id="stop3750-45-9" />
      <stop
         offset="1"
         style="stop-color:#000000;stop-opacity:0.58823532"
         id="stop3752-7-3" />
    </linearGradient>
    <filter
       id="filter3174-3-17"
       color-interpolation-filters="sRGB">
      <feGaussianBlur
         stdDeviation="1.71"
         id="feGaussianBlur3176-1-3" />
    </filter>
    <linearGradient
       gradientTransform="scale(1.0058652,0.994169)"
       gradientUnits="userSpaceOnUse"
       id="ButtonShadow-8-7"
       y2="7.0165396"
       x2="45.447727"
       y1="92.539597"
       x1="45.447727">
      <stop
         offset="0"
         style="stop-color:#000000;stop-opacity:1"
         id="stop3750-45-8" />
      <stop
         offset="1"
         style="stop-color:#000000;stop-opacity:0.58823532"
         id="stop3752-7-8" />
    </linearGradient>
    <linearGradient
       inkscape:collect="always"
       xlink:href="#ButtonShadow-8-7"
       id="linearGradient3093"
       gradientUnits="userSpaceOnUse"
       gradientTransform="matrix(1.0058652,0,0,0.994169,5.26345,937.18686)"
       x1="45.447727"
       y1="92.539597"
       x2="45.447727"
       y2="7.0165396" />
    <linearGradient
       inkscape:collect="always"
       xlink:href="#linearGradient3792"
       id="linearGradient3798"
       x1="50"
       y1="1047.3622"
       x2="50"
       y2="957.36218"
       gradientUnits="userSpaceOnUse" />
  </defs>
  <sodipodi:namedview
     id="base"
     pagecolor="#ffffff"
     bordercolor="#666666"
     borderopacity="1.0"
     inkscape:pageopacity="0.0"
     inkscape:pageshadow="2"
     inkscape:zoom="3.484569"
     inkscape:cx="-5.3068154"
     inkscape:cy="55.948813"
     inkscape:document-units="px"
     inkscape:current-layer="layer1"
     showgrid="true"
     inkscape:snap-page="true"
     inkscape:snap-global="true"
     inkscape:snap-object-midpoints="false"
     inkscape:object-nodes="true"
     inkscape:window-width="1305"
     inkscape:window-height="744"
     inkscape:window-x="61"
     inkscape:window-y="24"
     inkscape:window-maximized="1"
     inkscape:snap-nodes="true"
     inkscape:snap-bbox="true"
     inkscape:object-paths="true"
     inkscape:snap-center="true">
    <inkscape:grid
       type="xygrid"
       id="grid3925"
       empspacing="5"
       visible="true"
       enabled="true"
       snapvisiblegridlinesonly="true" />
  </sodipodi:namedview>
  <metadata
     id="metadata7">
    <rdf:RDF>
      <cc:Work
         rdf:about="">
        <dc:format>image/svg+xml</dc:format>
        <dc:type
           rdf:resource="http://purl.org/dc/dcmitype/StillImage" />
        <dc:title />
      </cc:Work>
    </rdf:RDF>
  </metadata>
  <g
     inkscape:label="Layer 1"
     inkscape:groupmode="layer"
     id="layer1"
     transform="translate(0,-956.3622)">
    <path
       inkscape:connector-curvature="0"
       style="fill:url(#linearGradient3798);fill-opacity:1;fill-rule:nonzero;stroke:none"
       d="m 79,1050.3622 c 3.691096,0 6,-3.309 6,-7 l 0,-78 c 0,-3.6911 -2.308904,-7 -6,-7 l -61,0 c -3.691096,0 -7,3.3089 -7,7 l 0,62 21,23 z"
       id="rect3121"
       sodipodi:nodetypes="ssssssccs" />
    <path
       style="fill:#92e9ff;fill-opacity:1;fill-rule:nonzero;stroke:none"
       d="m 32,1050.3622 0,-23 -21,0 z"
       id="rect3903"
       inkscape:connector-curvature="0"
       sodipodi:nodetypes="cccc" />
    <path
       sodipodi:nodetypes="cccc"
       inkscape:connector-curvature="0"
       id="path3931"
       d="m 32,1027.3622 0,23 21,0 z"
       style="fill:#004858;fill-opacity:1;fill-rule:nonzero;stroke:none" />
    <g
       id="layer2"
       style="display:none"
       transform="translate(39.84429,874.99134)">
      <rect
         width="86"
         height="85"
         rx="6"
         ry="6"
         x="5"
         y="7"
         id="rect3745"
         style="opacity:0.9;fill:url(#ButtonShadow-8);fill-opacity:1;fill-rule:nonzero;stroke:none;filter:url(#filter3174-3)" />
    </g>
    <g
       id="layer2-0"
       style="display:none"
       transform="translate(40.3598,932.47103)">
      <rect
         width="86"
         height="85"
         rx="6"
         ry="6"
         x="5"
         y="7"
         id="rect3745-2"
         style="opacity:0.9;fill:url(#ButtonShadow-8-0);fill-opacity:1;fill-rule:nonzero;stroke:none;filter:url(#filter3174-3-1)" />
    </g>
    <rect
       style="opacity:0.9;fill:url(#linearGradient3093);fill-opacity:1;fill-rule:nonzero;stroke:none;display:none;filter:url(#filter3174-3-17)"
       id="rect3745-5"
       y="944.18689"
       x="10.26345"
       ry="6"
       rx="6"
       height="85"
       width="86" />
    <path
       style="font-size:31.15452194px;font-style:normal;font-variant:normal;font-weight:normal;font-stretch:normal;text-align:end;line-height:125%;letter-spacing:0px;word-spacing:0px;text-anchor:end;fill:#ffffff;fill-opacity:1;stroke:none;font-family:mry_KacstQurn;-inkscape-font-specification:mry_KacstQurn"
       d="m 61.15625,969.0497 c -1.916747,0 -3.754858,0.3417 -5.46875,1.0313 -1.713913,0.6795 -3.223011,1.6808 -4.53125,2.9687 -1.27783,1.2677 -2.24789,2.733 -2.9375,4.4063 -0.68962,1.6733 -1.03125,3.4355 -1.03125,5.2812 0,1.9168 0.32052,3.7017 1,5.375 0.67947,1.6632 1.67064,3.1386 2.96875,4.4063 1.298098,1.2677 2.774294,2.2158 4.4375,2.875 1.663185,0.6693 3.436319,1 5.3125,1 1.541482,0 3.071689,-0.2539 4.5625,-0.7813 1.500912,-0.5172 2.888546,-1.2663 4.15625,-2.25 l -1.375,-1.6875 c -1.054732,0.8215 -2.23234,1.4389 -3.5,1.875 -1.257558,0.4462 -2.535521,0.6875 -3.84375,0.6875 -1.592221,0 -3.069243,-0.2859 -4.46875,-0.8437 -1.399529,-0.5477 -2.653907,-1.3516 -3.71875,-2.4063 -1.10542,-1.075 -1.94305,-2.3091 -2.53125,-3.7187 -0.57807,-1.4097 -0.875,-2.9188 -0.875,-4.5313 0,-1.9573 0.4513,-3.7954 1.34375,-5.4687 0.90258,-1.6835 2.157785,-3.0281 3.75,-4.0625 0.973569,-0.6491 2.041505,-1.1442 3.1875,-1.4688 1.14597,-0.3346 2.346337,-0.5 3.59375,-0.5 1.784877,0 3.426405,0.3526 4.9375,1.0625 1.521194,0.6998 2.789016,1.734 3.84375,3.0625 0.649027,0.8114 1.154339,1.6717 1.46875,2.625 0.3245,0.9533 0.468723,1.9774 0.46875,3.0625 -2.7e-5,1.7951 -0.408286,3.2704 -1.25,4.4063 -0.831623,1.1257 -1.988122,1.8081 -3.46875,2.0312 l 0,-11.2187 -2.1875,0 0,2 c -0.598365,-0.7708 -1.271486,-1.3435 -2.0625,-1.7188 -0.79105,-0.3853 -1.736697,-0.5625 -2.78125,-0.5625 -1.734201,0 -3.123486,0.6074 -4.21875,1.875 -1.095286,1.2677 -1.656259,2.9405 -1.65625,4.9688 -9e-6,2.0283 0.539856,3.6698 1.625,4.9375 1.095264,1.2575 2.505658,1.875 4.25,1.875 1.044553,0 1.969092,-0.1662 2.75,-0.5313 0.791014,-0.3752 1.485244,-0.9691 2.09375,-1.75 l 0,2.3438 c 2.839582,-0.061 5.074985,-0.8648 6.6875,-2.4063 1.612462,-1.5415 2.406221,-3.6453 2.40625,-6.3125 -2.9e-5,-1.2474 -0.188121,-2.4587 -0.59375,-3.625 -0.395544,-1.1662 -0.989419,-2.2248 -1.75,-3.2187 -1.247423,-1.6226 -2.779281,-2.8989 -4.625,-3.7813 -1.835622,-0.8823 -3.818782,-1.3125 -5.96875,-1.3125 z m -0.4375,9.125 c 1.23724,0 2.238548,0.4395 2.96875,1.2813 0.730165,0.8316 1.09373,1.9552 1.09375,3.375 -2e-5,1.4401 -0.373727,2.5746 -1.09375,3.4062 -0.709919,0.8316 -1.690119,1.25 -2.9375,1.25 -1.257554,0 -2.248721,-0.4285 -2.96875,-1.25 -0.720055,-0.8316 -1.062512,-1.956 -1.0625,-3.4062 -1.2e-5,-1.43 0.342445,-2.5747 1.0625,-3.4063 0.730171,-0.8316 1.710371,-1.25 2.9375,-1.25 z"
       id="text3010"
       inkscape:connector-curvature="0" />
  </g>
</svg>
