<?xml version="1.0" encoding="UTF-8" standalone="no"?>
<!-- Created with Inkscape (http://www.inkscape.org/) -->

<svg
   xmlns:dc="http://purl.org/dc/elements/1.1/"
   xmlns:cc="http://creativecommons.org/ns#"
   xmlns:rdf="http://www.w3.org/1999/02/22-rdf-syntax-ns#"
   xmlns:svg="http://www.w3.org/2000/svg"
   xmlns="http://www.w3.org/2000/svg"
   xmlns:xlink="http://www.w3.org/1999/xlink"
   xmlns:sodipodi="http://sodipodi.sourceforge.net/DTD/sodipodi-0.dtd"
   xmlns:inkscape="http://www.inkscape.org/namespaces/inkscape"
   width="96"
   height="96"
   id="svg2"
   version="1.1"
   inkscape:version="0.48.4 r9939"
   sodipodi:docname="application-illustrator (copy).svg">
  <defs
     id="defs4">
    <filter
       id="filter3174-3"
       color-interpolation-filters="sRGB">
      <feGaussianBlur
         stdDeviation="1.71"
         id="feGaussianBlur3176-1" />
    </filter>
    <linearGradient
       gradientTransform="scale(1.0058652,0.994169)"
       gradientUnits="userSpaceOnUse"
       id="ButtonShadow-8"
       y2="7.0165396"
       x2="45.447727"
       y1="92.539597"
       x1="45.447727">
      <stop
         offset="0"
         style="stop-color:#000000;stop-opacity:1"
         id="stop3750-45" />
      <stop
         offset="1"
         style="stop-color:#000000;stop-opacity:0.58823532"
         id="stop3752-7" />
    </linearGradient>
    <filter
       id="filter3174-3-1"
       color-interpolation-filters="sRGB">
      <feGaussianBlur
         stdDeviation="1.71"
         id="feGaussianBlur3176-1-8" />
    </filter>
    <linearGradient
       gradientTransform="scale(1.0058652,0.994169)"
       gradientUnits="userSpaceOnUse"
       id="ButtonShadow-8-0"
       y2="7.0165396"
       x2="45.447727"
       y1="92.539597"
       x1="45.447727">
      <stop
         offset="0"
         style="stop-color:#000000;stop-opacity:1"
         id="stop3750-45-9" />
      <stop
         offset="1"
         style="stop-color:#000000;stop-opacity:0.58823532"
         id="stop3752-7-3" />
    </linearGradient>
    <filter
       id="filter3174-3-17"
       color-interpolation-filters="sRGB">
      <feGaussianBlur
         stdDeviation="1.71"
         id="feGaussianBlur3176-1-3" />
    </filter>
    <linearGradient
       gradientTransform="scale(1.0058652,0.994169)"
       gradientUnits="userSpaceOnUse"
       id="ButtonShadow-8-7"
       y2="7.0165396"
       x2="45.447727"
       y1="92.539597"
       x1="45.447727">
      <stop
         offset="0"
         style="stop-color:#000000;stop-opacity:1"
         id="stop3750-45-8" />
      <stop
         offset="1"
         style="stop-color:#000000;stop-opacity:0.58823532"
         id="stop3752-7-8" />
    </linearGradient>
    <linearGradient
       inkscape:collect="always"
       xlink:href="#ButtonShadow-8-7"
       id="linearGradient3093"
       gradientUnits="userSpaceOnUse"
       gradientTransform="matrix(1.0058652,0,0,0.994169,5.26345,937.18686)"
       x1="45.447727"
       y1="92.539597"
       x2="45.447727"
       y2="7.0165396" />
  </defs>
  <sodipodi:namedview
     id="base"
     pagecolor="#ffffff"
     bordercolor="#666666"
     borderopacity="1.0"
     inkscape:pageopacity="0.0"
     inkscape:pageshadow="2"
     inkscape:zoom="10.855773"
     inkscape:cx="38.598748"
     inkscape:cy="55.100071"
     inkscape:document-units="px"
     inkscape:current-layer="layer1"
     showgrid="true"
     inkscape:snap-page="true"
     inkscape:snap-global="true"
     inkscape:snap-object-midpoints="false"
     inkscape:object-nodes="true"
     inkscape:window-width="1305"
     inkscape:window-height="744"
     inkscape:window-x="61"
     inkscape:window-y="24"
     inkscape:window-maximized="1"
     inkscape:snap-nodes="true"
     inkscape:snap-bbox="true"
     inkscape:object-paths="true"
     inkscape:snap-center="true">
    <inkscape:grid
       type="xygrid"
       id="grid3925"
       empspacing="5"
       visible="true"
       enabled="true"
       snapvisiblegridlinesonly="true" />
  </sodipodi:namedview>
  <metadata
     id="metadata7">
    <rdf:RDF>
      <cc:Work
         rdf:about="">
        <dc:format>image/svg+xml</dc:format>
        <dc:type
           rdf:resource="http://purl.org/dc/dcmitype/StillImage" />
        <dc:title />
      </cc:Work>
    </rdf:RDF>
  </metadata>
  <g
     inkscape:label="Layer 1"
     inkscape:groupmode="layer"
     id="layer1"
     transform="translate(0,-956.3622)">
    <path
       inkscape:connector-curvature="0"
       style="fill:#999999;fill-opacity:1;fill-rule:nonzero;stroke:none"
       d="m 79,1050.3622 c 3.691096,0 6,-3.309 6,-7 l 0,-78 c 0,-3.6911 -2.308904,-7 -6,-7 l -61,0 c -3.691096,0 -7,3.3089 -7,7 l 0,62 21,23 z"
       id="rect3121"
       sodipodi:nodetypes="ssssssccs" />
    <path
       style="fill:#ffffff;fill-opacity:0.58823532;fill-rule:nonzero;stroke:none"
       d="m 32,1050.3622 0,-23 -21,0 z"
       id="rect3903"
       inkscape:connector-curvature="0"
       sodipodi:nodetypes="cccc" />
    <path
       sodipodi:nodetypes="cccc"
       inkscape:connector-curvature="0"
       id="path3931"
       d="m 32,1027.3622 0,23 21,0 z"
       style="fill:#2d2d2d;fill-opacity:0.58823532;fill-rule:nonzero;stroke:none" />
    <g
       id="layer2"
       style="display:none"
       transform="translate(39.84429,874.99134)">
      <rect
         width="86"
         height="85"
         rx="6"
         ry="6"
         x="5"
         y="7"
         id="rect3745"
         style="opacity:0.9;fill:url(#ButtonShadow-8);fill-opacity:1;fill-rule:nonzero;stroke:none;filter:url(#filter3174-3)" />
    </g>
    <g
       id="layer2-0"
       style="display:none"
       transform="translate(40.3598,932.47103)">
      <rect
         width="86"
         height="85"
         rx="6"
         ry="6"
         x="5"
         y="7"
         id="rect3745-2"
         style="opacity:0.9;fill:url(#ButtonShadow-8-0);fill-opacity:1;fill-rule:nonzero;stroke:none;filter:url(#filter3174-3-1)" />
    </g>
    <rect
       style="opacity:0.9;fill:url(#linearGradient3093);fill-opacity:1;fill-rule:nonzero;stroke:none;display:none;filter:url(#filter3174-3-17)"
       id="rect3745-5"
       y="944.18689"
       x="10.26345"
       ry="6"
       rx="6"
       height="85"
       width="86" />
    <path
       style="fill:#ffffff;fill-opacity:1;fill-rule:nonzero;stroke:none"
       d="m 21.5,974.3622 c -2.48528,0 -4.5,2.0148 -4.5,4.5 0,2.4852 2.01472,4.5 4.5,4.5 2.48528,0 4.5,-2.0148 4.5,-4.5 0,-2.4852 -2.01472,-4.5 -4.5,-4.5 z m 7.5,3 0,3 45,0 0,-3 -45,0 z"
       id="rect3017"
       inkscape:connector-curvature="0" />
    <path
       id="path3025"
       d="m 21.5,986.3622 c -2.48528,0 -4.5,2.0148 -4.5,4.5 0,2.4852 2.01472,4.5 4.5,4.5 2.48528,0 4.5,-2.0148 4.5,-4.5 0,-2.4852 -2.01472,-4.5 -4.5,-4.5 z m 7.5,3 0,3 45,0 0,-3 -45,0 z"
       style="fill:#ffffff;fill-opacity:1;fill-rule:nonzero;stroke:none"
       inkscape:connector-curvature="0" />
    <path
       inkscape:connector-curvature="0"
       style="fill:#ffffff;fill-opacity:1;fill-rule:nonzero;stroke:none"
       d="m 21.5,998.3622 c -2.48528,0 -4.5,2.0148 -4.5,4.5 0,2.4852 2.01472,4.5 4.5,4.5 2.48528,0 4.5,-2.0148 4.5,-4.5 0,-2.4852 -2.01472,-4.5 -4.5,-4.5 z m 7.5,3 0,3 45,0 0,-3 -45,0 z"
       id="path3027" />
    <path
       id="path3029"
       d="m 21.5,1010.3622 c -2.48528,0 -4.5,2.0148 -4.5,4.5 0,2.4852 2.01472,4.5 4.5,4.5 2.48528,0 4.5,-2.0148 4.5,-4.5 0,-2.4852 -2.01472,-4.5 -4.5,-4.5 z m 7.5,3 0,3 45,0 0,-3 -45,0 z"
       style="fill:#ffffff;fill-opacity:1;fill-rule:nonzero;stroke:none"
       inkscape:connector-curvature="0" />
    <path
       style="fill:#ffffff;fill-opacity:0.37442926;fill-rule:nonzero;stroke:none;stroke-width:1;marker:none;visibility:visible;display:block;overflow:visible;enable-background:accumulate"
       id="rect3267"
       inkscape:connector-curvature="0"
       d="m 26.46928,1000.5522 c -0.18586,-0.7896 0.31963,-1.5834 1.12394,-1.7718 l 2.83302,-0.6651 c 0.0444,-1.5 0.29595,-2.9829 0.72436,-4.3863 l -2.48889,-1.539 c -0.35121,-0.219 -0.58188,-0.5223 -0.67149,-0.8889 -0.0897,-0.3666 -0.0452,-0.7719 0.16864,-1.1166 l 3.01616,-4.8627 c 0.42777,-0.6897 1.31971,-0.8781 2.02211,-0.4437 l 2.48888,1.539 c 1.06721,-1.0077 2.28455,-1.8936 3.61001,-2.6013 l -0.66585,-2.8287 c -0.18903,-0.8034 0.29709,-1.6089 1.08788,-1.7943 l 5.549221,-1.3026 c 0.790791,-0.186 1.585293,0.3195 1.774335,1.1223 l 0.66585,2.829 c 1.50255,0.045 2.987385,0.297 4.392549,0.7233 l 1.541595,-2.4849 c 0.435063,-0.7017 1.317774,-0.9297 2.008383,-0.5025 l 4.869564,3.012 c 0.690603,0.4272 0.879504,1.3176 0.444438,2.019 l -1.541595,2.4858 c 1.0095,1.0656 1.896114,2.2812 2.605173,3.6045 l 2.83302,-0.6648 c 0.804318,-0.186 1.610847,0.297 1.796703,1.0866 l 1.304232,5.541 c 0.18585,0.7896 -0.319656,1.5831 -1.123974,1.7718 l -2.833017,0.6651 c -0.0444,1.5003 -0.29592,2.9832 -0.724335,4.386 l 2.488908,1.5396 c 0.702402,0.4344 0.930597,1.3161 0.502854,2.0055 l -3.016176,4.8627 c -0.427749,0.6894 -1.3197,0.8781 -2.021961,0.4443 l -2.488887,-1.5396 c -1.067223,1.0083 -2.284563,1.8936 -3.61002,2.6013 l 0.665871,2.8293 c 0.18903,0.8031 -0.29712,1.6086 -1.087908,1.794 l -5.54922,1.3026 c -0.790791,0.186 -1.58529,-0.3195 -1.774314,-1.1223 l -0.665874,-2.8293 c -1.502544,-0.045 -2.987375,-0.297 -4.392525,-0.7233 l -1.54161,2.4855 c -0.43506,0.7014 -1.31777,0.9291 -2.00851,0.5013 l -4.86956,-3.0117 c -0.69061,-0.4269 -0.8795,-1.3176 -0.44443,-2.019 l 1.54157,-2.4855 c -1.00949,-1.0659 -1.89611,-2.2815 -2.60519,-3.6051 l -2.83302,0.6654 c -0.80432,0.186 -1.61082,-0.297 -1.79667,-1.0863 l -1.30424,-5.5416 z m 14.6712,-0.5196 c 0.78813,3.3489 4.149358,5.4276 7.502716,4.6404 3.353364,-0.7866 5.43528,-4.1433 4.647144,-7.4919 -0.788157,-3.3483 -4.149384,-5.4273 -7.502748,-4.6404 -3.353362,0.7872 -5.435272,4.1433 -4.647112,7.4919 z" />
  </g>
</svg>
