<?xml version="1.0" encoding="UTF-8" standalone="no"?>
<svg
   xmlns:dc="http://purl.org/dc/elements/1.1/"
   xmlns:cc="http://creativecommons.org/ns#"
   xmlns:rdf="http://www.w3.org/1999/02/22-rdf-syntax-ns#"
   xmlns:svg="http://www.w3.org/2000/svg"
   xmlns="http://www.w3.org/2000/svg"
   xmlns:sodipodi="http://sodipodi.sourceforge.net/DTD/sodipodi-0.dtd"
   xmlns:inkscape="http://www.inkscape.org/namespaces/inkscape"
   height="48"
   width="48"
   version="1.1"
   id="svg16"
   sodipodi:docname="audio-x-aiff.svg"
   inkscape:version="0.92.4 (5da689c313, 2019-01-14)">
  <metadata
     id="metadata22">
    <rdf:RDF>
      <cc:Work
         rdf:about="">
        <dc:format>image/svg+xml</dc:format>
        <dc:type
           rdf:resource="http://purl.org/dc/dcmitype/StillImage" />
        <dc:title>
  Gnome Symbolic Icon Theme
 </dc:title>
      </cc:Work>
    </rdf:RDF>
  </metadata>
  <defs
     id="defs20">
    <clipPath
       clipPathUnits="userSpaceOnUse"
       id="clipPath4157">
      <path
         id="path829"
         d="M 27.642964,3.2951379 40.728548,16.380722 H 29.65613 c -0.977824,0 -2.013166,-1.035372 -2.013166,-2.013167 z"
         style="fill:#f9f8f2;fill-opacity:1;stroke-width:1.00658333"
         inkscape:connector-curvature="0" />
    </clipPath>
    <filter
       style="color-interpolation-filters:sRGB"
       id="filter4201"
       x="-0.059999999"
       width="1.12"
       y="-0.059999999"
       height="1.12">
      <feGaussianBlur
         id="feGaussianBlur832"
         stdDeviation=".283" />
    </filter>
  </defs>
  <sodipodi:namedview
     pagecolor="#ffffff"
     bordercolor="#666666"
     borderopacity="1"
     objecttolerance="10"
     gridtolerance="10"
     guidetolerance="10"
     inkscape:pageopacity="0"
     inkscape:pageshadow="2"
     inkscape:window-width="1881"
     inkscape:window-height="1025"
     id="namedview18"
     showgrid="false"
     inkscape:zoom="14.75"
     inkscape:cx="16.875932"
     inkscape:cy="24.271186"
     inkscape:window-x="39"
     inkscape:window-y="27"
     inkscape:window-maximized="1"
     inkscape:current-layer="svg16"
     units="px"
     width="48in" />
  <title
     id="title2">
  Gnome Symbolic Icon Theme
 </title>
  <g
     id="g862">
    <g
       id="g843">
      <path
         id="path837"
         d="m 9.797669,4.203584 c -0.8944343,0 -1.73913,0.8446957 -1.73913,1.7391304 V 42.464454 c 0,0.844721 0.8944348,1.73913 1.73913,1.73913 h 27.826087 c 0.844722,0 1.739131,-0.894435 1.739131,-1.73913 V 15.507932 L 28.058539,4.203584 Z"
         style="fill:#dbcaf5;fill-opacity:1;stroke-width:0.86956519"
         inkscape:connector-curvature="0" />
      <path
         id="path839"
         d="M 28.248139,4.2710929 39.552487,15.575441 h -9.565218 c -0.844721,0 -1.73913,-0.894435 -1.73913,-1.739131 z"
         style="fill:#000000;fill-opacity:0.39200003;stroke-width:0.86956519;filter:url(#filter4201)"
         clip-path="url(#clipPath4157)"
         transform="translate(-0.28928697,0.20358399)"
         inkscape:connector-curvature="0" />
      <path
         id="path841"
         d="m 28.058539,4.203584 11.304348,11.304348 h -9.565218 c -0.844721,0 -1.73913,-0.894435 -1.73913,-1.739131 z"
         style="fill:#f7fafb;fill-opacity:1;stroke-width:0.86956519"
         inkscape:connector-curvature="0" />
    </g>
  </g>
  <g
     transform="matrix(1.0367003,0,0,1.0826922,-461.69409,-193.33647)"
     style="fill:#ffffff;fill-opacity:1"
     id="g14">
    <path
       style="fill:#ffffff;fill-opacity:1;enable-background:new"
       d="m 464.5,203.01 c -1.9212,0 -3.5034,1.5501 -3.5034,3.4712 0,1.9212 1.5822,3.5034 3.5034,3.5034 1.9212,0 3.5034,-1.5822 3.5034,-3.5034 0,-1.9212 -1.5822,-3.4712 -3.5034,-3.4712 z"
       id="path4"
       inkscape:connector-curvature="0" />
    <path
       style="fill:#ffffff;fill-opacity:1;enable-background:new"
       d="m 472.5,203.01 c -1.9212,0 -3.5034,1.5501 -3.5034,3.4712 0,1.9212 1.5822,3.5034 3.5034,3.5034 1.9212,0 3.5034,-1.5822 3.5034,-3.5034 0,-1.9212 -1.5822,-3.4712 -3.5034,-3.4712 z m 0,1.9928 c 0.84027,0 1.5106,0.63823 1.5106,1.4785 0,0.84027 -0.67037,1.5106 -1.5106,1.5106 -0.84027,0 -1.5106,-0.67036 -1.5106,-1.5106 0,-0.84027 0.67037,-1.4785 1.5106,-1.4785 z"
       id="path6"
       inkscape:connector-curvature="0" />
    <rect
       style="fill:#ffffff;fill-opacity:1;enable-background:new"
       height="9.5159998"
       width="2"
       y="197"
       x="466"
       id="rect8" />
    <rect
       style="fill:#ffffff;fill-opacity:1;enable-background:new"
       height="9.5629997"
       width="2"
       y="197"
       x="474"
       id="rect10" />
    <rect
       style="fill:#ffffff;fill-opacity:1;enable-background:new"
       height="2"
       width="10"
       y="197"
       x="466"
       id="rect12" />
  </g>
</svg>
