<?xml version="1.0" encoding="UTF-8" standalone="no"?>
<!-- Created with Inkscape (http://www.inkscape.org/) -->

<svg
   xmlns:dc="http://purl.org/dc/elements/1.1/"
   xmlns:cc="http://creativecommons.org/ns#"
   xmlns:rdf="http://www.w3.org/1999/02/22-rdf-syntax-ns#"
   xmlns:svg="http://www.w3.org/2000/svg"
   xmlns="http://www.w3.org/2000/svg"
   xmlns:xlink="http://www.w3.org/1999/xlink"
   xmlns:sodipodi="http://sodipodi.sourceforge.net/DTD/sodipodi-0.dtd"
   xmlns:inkscape="http://www.inkscape.org/namespaces/inkscape"
   width="96"
   height="96"
   id="svg2"
   version="1.1"
   inkscape:version="0.48.4 r9939"
   sodipodi:docname="image-x-psd (copy).svg">
  <defs
     id="defs4">
    <filter
       id="filter3174-3"
       color-interpolation-filters="sRGB">
      <feGaussianBlur
         stdDeviation="1.71"
         id="feGaussianBlur3176-1" />
    </filter>
    <linearGradient
       gradientTransform="scale(1.0058652,0.994169)"
       gradientUnits="userSpaceOnUse"
       id="ButtonShadow-8"
       y2="7.0165396"
       x2="45.447727"
       y1="92.539597"
       x1="45.447727">
      <stop
         offset="0"
         style="stop-color:#000000;stop-opacity:1"
         id="stop3750-45" />
      <stop
         offset="1"
         style="stop-color:#000000;stop-opacity:0.58823532"
         id="stop3752-7" />
    </linearGradient>
    <filter
       id="filter3174-3-1"
       color-interpolation-filters="sRGB">
      <feGaussianBlur
         stdDeviation="1.71"
         id="feGaussianBlur3176-1-8" />
    </filter>
    <linearGradient
       gradientTransform="scale(1.0058652,0.994169)"
       gradientUnits="userSpaceOnUse"
       id="ButtonShadow-8-0"
       y2="7.0165396"
       x2="45.447727"
       y1="92.539597"
       x1="45.447727">
      <stop
         offset="0"
         style="stop-color:#000000;stop-opacity:1"
         id="stop3750-45-9" />
      <stop
         offset="1"
         style="stop-color:#000000;stop-opacity:0.58823532"
         id="stop3752-7-3" />
    </linearGradient>
    <filter
       id="filter3174-3-17"
       color-interpolation-filters="sRGB">
      <feGaussianBlur
         stdDeviation="1.71"
         id="feGaussianBlur3176-1-3" />
    </filter>
    <linearGradient
       gradientTransform="scale(1.0058652,0.994169)"
       gradientUnits="userSpaceOnUse"
       id="ButtonShadow-8-7"
       y2="7.0165396"
       x2="45.447727"
       y1="92.539597"
       x1="45.447727">
      <stop
         offset="0"
         style="stop-color:#000000;stop-opacity:1"
         id="stop3750-45-8" />
      <stop
         offset="1"
         style="stop-color:#000000;stop-opacity:0.58823532"
         id="stop3752-7-8" />
    </linearGradient>
    <linearGradient
       inkscape:collect="always"
       xlink:href="#ButtonShadow-8-7"
       id="linearGradient3093"
       gradientUnits="userSpaceOnUse"
       gradientTransform="matrix(1.0058652,0,0,0.994169,5.26345,937.18686)"
       x1="45.447727"
       y1="92.539597"
       x2="45.447727"
       y2="7.0165396" />
  </defs>
  <sodipodi:namedview
     id="base"
     pagecolor="#ffffff"
     bordercolor="#666666"
     borderopacity="1.0"
     inkscape:pageopacity="0.0"
     inkscape:pageshadow="2"
     inkscape:zoom="2.806464"
     inkscape:cx="33.863585"
     inkscape:cy="48.334888"
     inkscape:document-units="px"
     inkscape:current-layer="layer1"
     showgrid="true"
     inkscape:snap-page="true"
     inkscape:snap-global="true"
     inkscape:snap-object-midpoints="false"
     inkscape:object-nodes="true"
     inkscape:window-width="1305"
     inkscape:window-height="744"
     inkscape:window-x="61"
     inkscape:window-y="24"
     inkscape:window-maximized="1"
     inkscape:snap-nodes="true"
     inkscape:snap-bbox="true"
     inkscape:object-paths="true"
     inkscape:snap-center="true">
    <inkscape:grid
       type="xygrid"
       id="grid3925"
       empspacing="5"
       visible="true"
       enabled="true"
       snapvisiblegridlinesonly="true" />
  </sodipodi:namedview>
  <metadata
     id="metadata7">
    <rdf:RDF>
      <cc:Work
         rdf:about="">
        <dc:format>image/svg+xml</dc:format>
        <dc:type
           rdf:resource="http://purl.org/dc/dcmitype/StillImage" />
        <dc:title />
      </cc:Work>
    </rdf:RDF>
  </metadata>
  <g
     inkscape:label="Layer 1"
     inkscape:groupmode="layer"
     id="layer1"
     transform="translate(0,-956.3622)">
    <path
       inkscape:connector-curvature="0"
       style="fill:#333333;fill-opacity:1;fill-rule:nonzero;stroke:none"
       d="m 79,1050.3622 c 3.691096,0 6,-3.309 6,-7 l 0,-78 c 0,-3.6911 -2.308904,-7 -6,-7 l -61,0 c -3.691096,0 -7,3.3089 -7,7 l 0,62 21,23 z"
       id="rect3121"
       sodipodi:nodetypes="ssssssccs" />
    <path
       style="fill:#ffffff;fill-opacity:0.58823532;fill-rule:nonzero;stroke:none"
       d="m 32,1050.3622 0,-23 -21,0 z"
       id="rect3903"
       inkscape:connector-curvature="0"
       sodipodi:nodetypes="cccc" />
    <path
       sodipodi:nodetypes="cccc"
       inkscape:connector-curvature="0"
       id="path3931"
       d="m 32,1027.3622 0,23 21,0 z"
       style="fill:#000000;fill-opacity:0.58823532000000001;fill-rule:nonzero;stroke:none" />
    <g
       id="layer2"
       style="display:none"
       transform="translate(39.84429,874.99134)">
      <rect
         width="86"
         height="85"
         rx="6"
         ry="6"
         x="5"
         y="7"
         id="rect3745"
         style="opacity:0.9;fill:url(#ButtonShadow-8);fill-opacity:1;fill-rule:nonzero;stroke:none;filter:url(#filter3174-3)" />
    </g>
    <g
       id="layer2-0"
       style="display:none"
       transform="translate(40.3598,932.47103)">
      <rect
         width="86"
         height="85"
         rx="6"
         ry="6"
         x="5"
         y="7"
         id="rect3745-2"
         style="opacity:0.9;fill:url(#ButtonShadow-8-0);fill-opacity:1;fill-rule:nonzero;stroke:none;filter:url(#filter3174-3-1)" />
    </g>
    <rect
       style="opacity:0.9;fill:url(#linearGradient3093);fill-opacity:1;fill-rule:nonzero;stroke:none;display:none;filter:url(#filter3174-3-17)"
       id="rect3745-5"
       y="944.18689"
       x="10.26345"
       ry="6"
       rx="6"
       height="85"
       width="86" />
    <g
       transform="scale(0.92448745,1.0816804)"
       style="font-size:20.33872414px;font-style:normal;font-variant:normal;font-weight:normal;font-stretch:normal;text-align:end;line-height:125%;letter-spacing:0px;word-spacing:0px;text-anchor:end;fill:#cccccc;fill-opacity:1;stroke:none;font-family:Andale Mono;-inkscape-font-specification:Andale Mono"
       id="text3013">
      <path
         d="m 31.387498,898.39495 0,2.70124 c -0.761388,-0.31779 -1.496282,-0.55613 -2.204686,-0.71504 -0.70842,-0.15888 -1.377108,-0.23833 -2.006065,-0.23834 -0.675315,10e-6 -1.178486,0.0861 -1.509515,0.25821 -0.324418,0.16552 -0.486624,0.42373 -0.48662,0.77462 -4e-6,0.28469 0.122478,0.50317 0.367448,0.65544 0.251581,0.15229 0.698476,0.26484 1.340687,0.33766 l 0.625654,0.0894 c 1.820678,0.23173 3.045503,0.61242 3.674477,1.14206 0.628953,0.52966 0.943435,1.36056 0.943446,2.49269 -1.1e-5,1.1851 -0.436975,2.07558 -1.310894,2.67144 -0.873938,0.59586 -2.178211,0.89379 -3.912821,0.89379 -0.7349,0 -1.496278,-0.0596 -2.284134,-0.17875 -0.781243,-0.11256 -1.585654,-0.28469 -2.413237,-0.51642 l 0,-2.70123 c 0.70841,0.34427 1.433374,0.60248 2.174893,0.77462 0.748132,0.17214 1.506199,0.2582 2.274203,0.2582 0.695165,0 1.218198,-0.096 1.5691,-0.288 0.350889,-0.19199 0.526337,-0.47668 0.526344,-0.85406 -7e-6,-0.31779 -0.12249,-0.55283 -0.367447,-0.70511 -0.238352,-0.15889 -0.718351,-0.28137 -1.439998,-0.36744 l -0.625654,-0.0794 c -1.582346,-0.19862 -2.691308,-0.56607 -3.326891,-1.10235 -0.635586,-0.53626 -0.953379,-1.35061 -0.953377,-2.44303 -2e-6,-1.17847 0.403859,-2.0524 1.211584,-2.62178 0.807719,-0.56937 2.045785,-0.85406 3.7142,-0.85407 0.655441,10e-6 1.343991,0.0497 2.065652,0.14896 0.721645,0.0993 1.506195,0.25491 2.353651,0.46676"
         style="font-weight:bold;fill:#cccccc;font-family:Sans;-inkscape-font-specification:Sans Bold"
         id="path3018" />
      <path
         d="m 43.801271,898.39495 0,2.89986 c -0.48332,-0.33103 -0.96994,-0.57599 -1.45986,-0.7349 -0.483318,-0.15888 -0.986489,-0.23833 -1.509515,-0.23834 -0.993108,1e-5 -1.767727,0.29132 -2.323858,0.87393 -0.549521,0.576 -0.824279,1.38373 -0.824274,2.42317 -5e-6,1.03945 0.274753,1.85048 0.824274,2.4331 0.556131,0.576 1.33075,0.864 2.323858,0.86399 0.556129,10e-6 1.082472,-0.0828 1.579032,-0.24827 0.503162,-0.16552 0.966609,-0.41048 1.390343,-0.7349 l 0,2.90979 c -0.556148,0.20524 -1.122215,0.35752 -1.698205,0.45683 -0.569386,0.10593 -1.142074,0.15889 -1.718066,0.15889 -2.00607,0 -3.57517,-0.5131 -4.707302,-1.5393 -1.132137,-1.03283 -1.698205,-2.4662 -1.698204,-4.30013 -1e-6,-1.83392 0.566067,-3.26399 1.698204,-4.2902 1.132132,-1.03282 2.701232,-1.54923 4.707302,-1.54924 0.582612,10e-6 1.1553,0.053 1.718066,0.15889 0.569369,0.0993 1.135437,0.2516 1.698205,0.45683"
         style="font-weight:bold;fill:#cccccc;font-family:Sans;-inkscape-font-specification:Sans Bold"
         id="path3020" />
      <path
         d="m 55.152424,901.07633 c -0.311182,-0.14565 -0.622353,-0.25158 -0.933516,-0.3178 -0.30456,-0.0728 -0.612421,-0.10923 -0.923585,-0.10924 -0.91366,1e-5 -1.618762,0.29463 -2.115306,0.88386 -0.489936,0.58263 -0.734901,1.42014 -0.734896,2.51255 l 0,5.1244 -3.555304,0 0,-11.12273 3.555304,0 0,1.8273 c 0.456821,-0.72826 0.979855,-1.25792 1.569101,-1.58896 0.595854,-0.33764 1.307576,-0.50647 2.135169,-0.50648 0.119163,10e-6 0.248266,0.007 0.38731,0.0199 0.139024,0.007 0.340955,0.0265 0.605792,0.0596 l 0.0099,3.21765"
         style="font-weight:bold;fill:#cccccc;font-family:Sans;-inkscape-font-specification:Sans Bold"
         id="path3022" />
      <path
         d="m 56.940007,898.04737 3.555304,0 0,11.12273 -3.555304,0 0,-11.12273 m 0,-4.32993 3.555304,0 0,2.89986 -3.555304,0 0,-2.89986"
         style="font-weight:bold;fill:#cccccc;font-family:Sans;-inkscape-font-specification:Sans Bold"
         id="path3024" />
      <path
         d="m 67.486747,907.56128 0,5.83944 -3.555304,0 0,-15.35335 3.555304,0 0,1.62868 c 0.489925,-0.64881 1.03282,-1.1255 1.628687,-1.43006 0.595854,-0.31117 1.281093,-0.46675 2.055721,-0.46676 1.37047,10e-6 2.495984,0.54621 3.376546,1.63862 0.880537,1.0858 1.320812,2.48607 1.320825,4.20082 -1.3e-5,1.71476 -0.440288,3.11834 -1.320825,4.21075 -0.880562,1.08579 -2.006076,1.62868 -3.376546,1.62868 -0.774628,0 -1.459867,-0.15227 -2.055721,-0.45682 -0.595867,-0.31117 -1.138762,-0.79117 -1.628687,-1.44 m 2.363583,-7.19999 c -0.761385,10e-6 -1.347315,0.28139 -1.757791,0.84414 -0.403866,0.55614 -0.605797,1.36055 -0.605792,2.41324 -5e-6,1.05269 0.201926,1.86041 0.605792,2.42316 0.410476,0.55614 0.996406,0.83421 1.757791,0.83421 0.761369,0 1.340678,-0.27807 1.737928,-0.83421 0.403851,-0.55613 0.605782,-1.36385 0.605792,-2.42316 -1e-5,-1.05931 -0.201941,-1.86703 -0.605792,-2.42317 -0.39725,-0.55613 -0.976559,-0.8342 -1.737928,-0.83421"
         style="font-weight:bold;fill:#cccccc;font-family:Sans;-inkscape-font-specification:Sans Bold"
         id="path3026" />
      <path
         d="m 82.393206,894.8893 0,3.15807 3.664546,0 0,2.54234 -3.664546,0 0,4.71723 c -5e-6,0.51642 0.102615,0.86731 0.307862,1.05269 0.205235,0.17876 0.612406,0.26814 1.221515,0.26813 l 1.827307,0 0,2.54234 -3.048822,0 c -1.403589,0 -2.4,-0.2913 -2.989236,-0.87392 -0.582623,-0.58924 -0.873932,-1.58565 -0.87393,-2.98924 l 0,-4.71723 -1.767721,0 0,-2.54234 1.767721,0 0,-3.15807 3.555304,0"
         style="font-weight:bold;fill:#cccccc;font-family:Sans;-inkscape-font-specification:Sans Bold"
         id="path3028" />
    </g>
  </g>
</svg>
