<?xml version="1.0" encoding="UTF-8" standalone="no"?>
<!-- Created with Inkscape (http://www.inkscape.org/) -->

<svg
   xmlns:dc="http://purl.org/dc/elements/1.1/"
   xmlns:cc="http://creativecommons.org/ns#"
   xmlns:rdf="http://www.w3.org/1999/02/22-rdf-syntax-ns#"
   xmlns:svg="http://www.w3.org/2000/svg"
   xmlns="http://www.w3.org/2000/svg"
   xmlns:xlink="http://www.w3.org/1999/xlink"
   xmlns:sodipodi="http://sodipodi.sourceforge.net/DTD/sodipodi-0.dtd"
   xmlns:inkscape="http://www.inkscape.org/namespaces/inkscape"
   width="96"
   height="96"
   id="svg2"
   version="1.1"
   inkscape:version="0.48.4 r9939"
   sodipodi:docname="package-x-generic (copy).svg">
  <defs
     id="defs4">
    <filter
       id="filter3174-3"
       color-interpolation-filters="sRGB">
      <feGaussianBlur
         stdDeviation="1.71"
         id="feGaussianBlur3176-1" />
    </filter>
    <linearGradient
       gradientTransform="scale(1.0058652,0.994169)"
       gradientUnits="userSpaceOnUse"
       id="ButtonShadow-8"
       y2="7.0165396"
       x2="45.447727"
       y1="92.539597"
       x1="45.447727">
      <stop
         offset="0"
         style="stop-color:#000000;stop-opacity:1"
         id="stop3750-45" />
      <stop
         offset="1"
         style="stop-color:#000000;stop-opacity:0.58823532"
         id="stop3752-7" />
    </linearGradient>
    <filter
       id="filter3174-3-1"
       color-interpolation-filters="sRGB">
      <feGaussianBlur
         stdDeviation="1.71"
         id="feGaussianBlur3176-1-8" />
    </filter>
    <linearGradient
       gradientTransform="scale(1.0058652,0.994169)"
       gradientUnits="userSpaceOnUse"
       id="ButtonShadow-8-0"
       y2="7.0165396"
       x2="45.447727"
       y1="92.539597"
       x1="45.447727">
      <stop
         offset="0"
         style="stop-color:#000000;stop-opacity:1"
         id="stop3750-45-9" />
      <stop
         offset="1"
         style="stop-color:#000000;stop-opacity:0.58823532"
         id="stop3752-7-3" />
    </linearGradient>
    <filter
       id="filter3174-3-17"
       color-interpolation-filters="sRGB">
      <feGaussianBlur
         stdDeviation="1.71"
         id="feGaussianBlur3176-1-3" />
    </filter>
    <linearGradient
       gradientTransform="scale(1.0058652,0.994169)"
       gradientUnits="userSpaceOnUse"
       id="ButtonShadow-8-7"
       y2="7.0165396"
       x2="45.447727"
       y1="92.539597"
       x1="45.447727">
      <stop
         offset="0"
         style="stop-color:#000000;stop-opacity:1"
         id="stop3750-45-8" />
      <stop
         offset="1"
         style="stop-color:#000000;stop-opacity:0.58823532"
         id="stop3752-7-8" />
    </linearGradient>
    <linearGradient
       inkscape:collect="always"
       xlink:href="#ButtonShadow-8-7"
       id="linearGradient3093"
       gradientUnits="userSpaceOnUse"
       gradientTransform="matrix(1.0058652,0,0,0.994169,5.26345,937.18686)"
       x1="45.447727"
       y1="92.539597"
       x2="45.447727"
       y2="7.0165396" />
  </defs>
  <sodipodi:namedview
     id="base"
     pagecolor="#ffffff"
     bordercolor="#666666"
     borderopacity="1.0"
     inkscape:pageopacity="0.0"
     inkscape:pageshadow="2"
     inkscape:zoom="2.6866667"
     inkscape:cx="-27.872102"
     inkscape:cy="86.093861"
     inkscape:document-units="px"
     inkscape:current-layer="layer1"
     showgrid="true"
     inkscape:snap-page="true"
     inkscape:snap-global="true"
     inkscape:snap-object-midpoints="false"
     inkscape:object-nodes="true"
     inkscape:window-width="1305"
     inkscape:window-height="744"
     inkscape:window-x="61"
     inkscape:window-y="24"
     inkscape:window-maximized="1"
     inkscape:snap-nodes="true"
     inkscape:snap-bbox="true"
     inkscape:object-paths="true"
     inkscape:snap-center="true">
    <inkscape:grid
       type="xygrid"
       id="grid3925"
       empspacing="5"
       visible="true"
       enabled="true"
       snapvisiblegridlinesonly="true" />
  </sodipodi:namedview>
  <metadata
     id="metadata7">
    <rdf:RDF>
      <cc:Work
         rdf:about="">
        <dc:format>image/svg+xml</dc:format>
        <dc:type
           rdf:resource="http://purl.org/dc/dcmitype/StillImage" />
        <dc:title />
      </cc:Work>
    </rdf:RDF>
  </metadata>
  <g
     inkscape:label="Layer 1"
     inkscape:groupmode="layer"
     id="layer1"
     transform="translate(0,-956.3622)">
    <path
       inkscape:connector-curvature="0"
       style="fill:#1f92bb;fill-opacity:1;fill-rule:nonzero;stroke:none"
       d="m 79,1050.3622 c 3.691096,0 6,-3.309 6,-7 l 0,-78 c 0,-3.6911 -2.308904,-7 -6,-7 l -61,0 c -3.691096,0 -7,3.3089 -7,7 l 0,62 21,23 z"
       id="rect3121"
       sodipodi:nodetypes="ssssssccs" />
    <path
       style="fill:#ffffff;fill-opacity:0.58823532;fill-rule:nonzero;stroke:none"
       d="m 32,1050.3622 0,-23 -21,0 z"
       id="rect3903"
       inkscape:connector-curvature="0"
       sodipodi:nodetypes="cccc" />
    <path
       sodipodi:nodetypes="cccc"
       inkscape:connector-curvature="0"
       id="path3931"
       d="m 32,1027.3622 0,23 21,0 z"
       style="fill:#2d2d2d;fill-opacity:0.58823532;fill-rule:nonzero;stroke:none" />
    <g
       id="layer2"
       style="display:none"
       transform="translate(39.84429,874.99134)">
      <rect
         width="86"
         height="85"
         rx="6"
         ry="6"
         x="5"
         y="7"
         id="rect3745"
         style="opacity:0.9;fill:url(#ButtonShadow-8);fill-opacity:1;fill-rule:nonzero;stroke:none;filter:url(#filter3174-3)" />
    </g>
    <g
       id="layer2-0"
       style="display:none"
       transform="translate(40.3598,932.47103)">
      <rect
         width="86"
         height="85"
         rx="6"
         ry="6"
         x="5"
         y="7"
         id="rect3745-2"
         style="opacity:0.9;fill:url(#ButtonShadow-8-0);fill-opacity:1;fill-rule:nonzero;stroke:none;filter:url(#filter3174-3-1)" />
    </g>
    <rect
       style="opacity:0.9;fill:url(#linearGradient3093);fill-opacity:1;fill-rule:nonzero;stroke:none;display:none;filter:url(#filter3174-3-17)"
       id="rect3745-5"
       y="944.18689"
       x="10.26345"
       ry="6"
       rx="6"
       height="85"
       width="86" />
    <path
       style="fill:#ffffff;fill-opacity:1"
       d="m 44.777274,1015.1053 c -0.922952,-0.2402 -0.830014,-0.4982 0.691684,-1.9196 2.620486,-2.4479 3.056948,-4.8867 2.311006,-12.9135 -0.594726,-6.39924 -0.728144,-6.88944 -1.729256,-6.35364 -2.166154,1.1594 -4.873018,-0.336 -7.946124,-4.3888 -1.51946,-2.0042 -1.66363,-2.5914 -1.402742,-5.7146 0.16,-1.9144 0.486698,-4.225 0.726166,-5.1348 0.367726,-1.397 0.248998,-1.654 -0.764074,-1.654 -0.659722,0 -1.540672,-0.4112 -1.957654,-0.9136 -1.049916,-1.2652 0.821464,-3.297 3.036454,-3.297 0.90071,0 1.974598,-0.406 2.386458,-0.9024 1.063238,-1.2812 2.689292,-1.1184 4.514944,0.452 1.940658,1.6694 2.601392,5.5344 1.510944,8.8386 -1.232552,3.7346 -0.37645,4.1006 1.347874,0.5762 0.96483,-1.972 2.327058,-3.6922 3.448542,-4.3548 1.019558,-0.602 2.50947,-2.1336 3.310928,-3.4032 0.80146,-1.2694 1.806506,-2.5318 2.23344,-2.8052 1.310522,-0.8388 4.91647,-1.9918 6.25908,-2.0012 1.83151,-0.02 4.287962,2.1306 4.72579,4.124 0.206838,0.9418 1.310348,3.1624 2.452184,4.9348 1.141874,1.7724 2.07612,3.5328 2.07612,3.9118 0,0.3792 0.812038,1.7112 1.80453,2.9602 1.486378,1.8704 1.800072,2.8128 1.779298,5.346 -0.0285,3.4738 -1.899896,7.9026 -2.58499,6.1174 -0.216158,-0.5634 -0.12554,-1.524 0.201488,-2.135 0.683082,-1.2762 0.07972,-6.9394 -0.660226,-6.1992 -0.516356,0.5162 -0.85376,6.041 -0.708926,11.6078 0.1881,7.22864 -0.16332,14.04374 -0.733422,14.22534 -1.457158,0.4632 -2.094042,-0.7386 -1.496082,-2.8235 0.900798,-3.1408 0.715622,-11.49144 -0.284074,-12.81064 -0.4618,-0.6096 -1.018108,-2.1646 -1.236224,-3.4556 -0.218118,-1.2912 -0.632182,-2.493 -0.920138,-2.671 -0.948216,-0.5862 -2.379304,3.208 -2.379304,6.3076 0,2.42624 -0.365644,3.54744 -1.80453,5.53384 -2.036146,2.8108 -2.195408,3.6432 -0.902266,4.7166 1.008544,0.837 1.20449,2.7496 0.336618,3.286 -0.311106,0.192 -1.123144,-0.2488 -1.804512,-0.9802 -0.963466,-1.034 -1.238884,-1.1194 -1.238884,-0.3842 0,1.1002 -2.229732,1.8458 -3.460414,1.157 -0.658688,-0.3686 -0.503292,-0.696 0.706494,-1.4888 2.154632,-1.4116 1.946916,-2.57 -0.933058,-5.2024 -2.244892,-2.0522 -2.444788,-2.465 -2.07673,-4.2916 1.164708,-5.77944 1.159988,-5.93064 -0.18554,-5.93064 -0.881282,0 -1.26882,0.3798 -1.26882,1.2426 0,0.6834 -0.298726,1.8008 -0.66383,2.483 -0.644156,1.20344 -0.836272,2.17144 -2.39476,12.06404 -0.776684,4.9299 -0.96838,5.1181 -4.32346,4.2443 z m 16.150654,-10.5001 c 0.78121,-1.5108 0.894692,-2.8042 0.559718,-6.37904 -0.4451,-4.7498 -0.771752,-4.9152 -2.073078,-1.0494 -0.445466,1.3232 -1.31276,3.05144 -1.927316,3.84064 -1.431384,1.8376 -1.405592,2.3916 0.19048,4.0906 1.708534,1.8186 2.079424,1.7614 3.250202,-0.5028 z"
       id="path1119"
       inkscape:connector-curvature="0" />
  </g>
</svg>
