<?xml version="1.0" encoding="UTF-8" standalone="no"?>
<!-- Created with Inkscape (http://www.inkscape.org/) -->

<svg
   xmlns:dc="http://purl.org/dc/elements/1.1/"
   xmlns:cc="http://creativecommons.org/ns#"
   xmlns:rdf="http://www.w3.org/1999/02/22-rdf-syntax-ns#"
   xmlns:svg="http://www.w3.org/2000/svg"
   xmlns="http://www.w3.org/2000/svg"
   xmlns:xlink="http://www.w3.org/1999/xlink"
   xmlns:sodipodi="http://sodipodi.sourceforge.net/DTD/sodipodi-0.dtd"
   xmlns:inkscape="http://www.inkscape.org/namespaces/inkscape"
   width="96"
   height="96"
   id="svg2"
   version="1.1"
   inkscape:version="0.48.4 r9939"
   sodipodi:docname="text-x-source.svg">
  <defs
     id="defs4">
    <filter
       id="filter3174-3"
       color-interpolation-filters="sRGB">
      <feGaussianBlur
         stdDeviation="1.71"
         id="feGaussianBlur3176-1" />
    </filter>
    <linearGradient
       gradientTransform="scale(1.0058652,0.994169)"
       gradientUnits="userSpaceOnUse"
       id="ButtonShadow-8"
       y2="7.0165396"
       x2="45.447727"
       y1="92.539597"
       x1="45.447727">
      <stop
         offset="0"
         style="stop-color:#000000;stop-opacity:1"
         id="stop3750-45" />
      <stop
         offset="1"
         style="stop-color:#000000;stop-opacity:0.58823532"
         id="stop3752-7" />
    </linearGradient>
    <filter
       id="filter3174-3-1"
       color-interpolation-filters="sRGB">
      <feGaussianBlur
         stdDeviation="1.71"
         id="feGaussianBlur3176-1-8" />
    </filter>
    <linearGradient
       gradientTransform="scale(1.0058652,0.994169)"
       gradientUnits="userSpaceOnUse"
       id="ButtonShadow-8-0"
       y2="7.0165396"
       x2="45.447727"
       y1="92.539597"
       x1="45.447727">
      <stop
         offset="0"
         style="stop-color:#000000;stop-opacity:1"
         id="stop3750-45-9" />
      <stop
         offset="1"
         style="stop-color:#000000;stop-opacity:0.58823532"
         id="stop3752-7-3" />
    </linearGradient>
    <filter
       id="filter3174-3-17"
       color-interpolation-filters="sRGB">
      <feGaussianBlur
         stdDeviation="1.71"
         id="feGaussianBlur3176-1-3" />
    </filter>
    <linearGradient
       gradientTransform="scale(1.0058652,0.994169)"
       gradientUnits="userSpaceOnUse"
       id="ButtonShadow-8-7"
       y2="7.0165396"
       x2="45.447727"
       y1="92.539597"
       x1="45.447727">
      <stop
         offset="0"
         style="stop-color:#000000;stop-opacity:1"
         id="stop3750-45-8" />
      <stop
         offset="1"
         style="stop-color:#000000;stop-opacity:0.58823532"
         id="stop3752-7-8" />
    </linearGradient>
    <linearGradient
       inkscape:collect="always"
       xlink:href="#ButtonShadow-8-7"
       id="linearGradient3093"
       gradientUnits="userSpaceOnUse"
       gradientTransform="matrix(1.0058652,0,0,0.994169,5.26345,937.18686)"
       x1="45.447727"
       y1="92.539597"
       x2="45.447727"
       y2="7.0165396" />
  </defs>
  <sodipodi:namedview
     id="base"
     pagecolor="#ffffff"
     bordercolor="#666666"
     borderopacity="1.0"
     inkscape:pageopacity="0.0"
     inkscape:pageshadow="2"
     inkscape:zoom="5.5061076"
     inkscape:cx="15.960571"
     inkscape:cy="45.787154"
     inkscape:document-units="px"
     inkscape:current-layer="layer1"
     showgrid="true"
     inkscape:snap-page="true"
     inkscape:snap-global="true"
     inkscape:snap-object-midpoints="false"
     inkscape:object-nodes="true"
     inkscape:window-width="1305"
     inkscape:window-height="744"
     inkscape:window-x="61"
     inkscape:window-y="24"
     inkscape:window-maximized="1"
     inkscape:snap-nodes="true"
     inkscape:snap-bbox="true"
     inkscape:object-paths="true"
     inkscape:snap-center="true">
    <inkscape:grid
       type="xygrid"
       id="grid3925"
       empspacing="5"
       visible="true"
       enabled="true"
       snapvisiblegridlinesonly="true" />
  </sodipodi:namedview>
  <metadata
     id="metadata7">
    <rdf:RDF>
      <cc:Work
         rdf:about="">
        <dc:format>image/svg+xml</dc:format>
        <dc:type
           rdf:resource="http://purl.org/dc/dcmitype/StillImage" />
        <dc:title />
      </cc:Work>
    </rdf:RDF>
  </metadata>
  <g
     inkscape:label="Layer 1"
     inkscape:groupmode="layer"
     id="layer1"
     transform="translate(0,-956.3622)">
    <path
       inkscape:connector-curvature="0"
       style="fill:#a02c2c;fill-opacity:1;fill-rule:nonzero;stroke:none"
       d="m 79,1050.3622 c 3.691096,0 6,-3.309 6,-7 l 0,-78 c 0,-3.6911 -2.308904,-7 -6,-7 l -61,0 c -3.691096,0 -7,3.3089 -7,7 l 0,62 21,23 z"
       id="rect3121"
       sodipodi:nodetypes="ssssssccs" />
    <path
       style="fill:#ffffff;fill-opacity:0.58823532;fill-rule:nonzero;stroke:none"
       d="m 32,1050.3622 0,-23 -21,0 z"
       id="rect3903"
       inkscape:connector-curvature="0"
       sodipodi:nodetypes="cccc" />
    <path
       sodipodi:nodetypes="cccc"
       inkscape:connector-curvature="0"
       id="path3931"
       d="m 32,1027.3622 0,23 21,0 z"
       style="fill:#2d2d2d;fill-opacity:0.58823532;fill-rule:nonzero;stroke:none" />
    <g
       id="layer2"
       style="display:none"
       transform="translate(39.84429,874.99134)">
      <rect
         width="86"
         height="85"
         rx="6"
         ry="6"
         x="5"
         y="7"
         id="rect3745"
         style="opacity:0.9;fill:url(#ButtonShadow-8);fill-opacity:1;fill-rule:nonzero;stroke:none;filter:url(#filter3174-3)" />
    </g>
    <g
       id="layer2-0"
       style="display:none"
       transform="translate(40.3598,932.47103)">
      <rect
         width="86"
         height="85"
         rx="6"
         ry="6"
         x="5"
         y="7"
         id="rect3745-2"
         style="opacity:0.9;fill:url(#ButtonShadow-8-0);fill-opacity:1;fill-rule:nonzero;stroke:none;filter:url(#filter3174-3-1)" />
    </g>
    <rect
       style="opacity:0.9;fill:url(#linearGradient3093);fill-opacity:1;fill-rule:nonzero;stroke:none;display:none;filter:url(#filter3174-3-17)"
       id="rect3745-5"
       y="944.18689"
       x="10.26345"
       ry="6"
       rx="6"
       height="85"
       width="86" />
    <path
       style="font-size:22px;font-style:normal;font-variant:normal;font-weight:normal;font-stretch:normal;text-align:end;line-height:125%;letter-spacing:0px;word-spacing:0px;text-anchor:end;fill:#ffffff;fill-opacity:0.39215687;stroke:none;font-family:Andale Mono;-inkscape-font-specification:Andale Mono"
       d="m 46.125,966.20595 0,6.15625 0.5625,4.5 2.78125,0 0.53125,-4.5 0,-6.15625 -3.875,0 z m -14.125,0.25 -1.03125,4.15625 -3.625,0 0,2.28125 3.0625,0 -0.78125,2.9375 -3.5,0 0,2.3125 3,0 -1.03125,4.125 2.375,0 1.03125,-4.125 2.84375,0 -1.03125,4.125 2.375,0 1.03125,-4.125 3.625,0 0,-2.3125 -3.0625,0 0.75,-2.9375 3.53125,0 0,-2.28125 -2.96875,0 1.03125,-4.15625 -2.375,0 -1.03125,4.15625 -2.84375,0 1.03125,-4.15625 -2.40625,0 z m 0.78125,6.4375 2.84375,0 -0.75,2.9375 -2.84375,0 0.75,-2.9375 z m 13.34375,5.53125 0,3.84375 3.875,0 0,-3.84375 -3.875,0 z"
       id="text3013"
       inkscape:connector-curvature="0" />
    <path
       style="font-size:19.47360420000000047px;font-style:normal;font-variant:normal;font-weight:normal;font-stretch:normal;text-align:end;line-height:125%;letter-spacing:0px;word-spacing:0px;text-anchor:end;fill:#ffffff;fill-opacity:0.66666669;stroke:none;font-family:Andale Mono;-inkscape-font-specification:Andale Mono"
       d="M 24.09375 34 C 23.611101 34.000012 23.115908 34.070178 22.65625 34.1875 C 22.196585 34.290178 21.805227 34.471345 21.4375 34.75 C 21.069769 35.014011 20.76108 35.39101 20.53125 35.875 C 20.31291 36.344343 20.218749 36.937592 20.21875 37.65625 C 20.218749 38.154924 20.276617 38.585507 20.4375 38.9375 C 20.598381 39.27484 20.829443 39.546589 21.09375 39.78125 C 21.358054 40.001256 21.635493 40.197089 21.96875 40.34375 C 22.313494 40.475755 22.675009 40.584838 23.03125 40.6875 C 23.467925 40.804838 23.873999 40.945171 24.21875 41.0625 C 24.563492 41.165171 24.832664 41.274254 25.0625 41.40625 C 25.303817 41.538254 25.498587 41.699004 25.625 41.875 C 25.751401 42.036337 25.812494 42.234087 25.8125 42.46875 C 25.812494 42.74742 25.759668 42.965586 25.65625 43.15625 C 25.55282 43.332252 25.410876 43.476419 25.25 43.59375 C 25.100604 43.696419 24.945351 43.785085 24.75 43.84375 C 24.56613 43.887752 24.391118 43.906252 24.21875 43.90625 C 23.977423 43.906252 23.729827 43.885835 23.5 43.8125 C 23.281657 43.739169 23.07862 43.615419 22.90625 43.46875 C 22.733873 43.307419 22.583662 43.109669 22.46875 42.875 C 22.365323 42.62567 22.312497 42.337337 22.3125 42 L 20 42 C 20.022983 42.748003 20.164927 43.361669 20.40625 43.875 C 20.659063 44.388335 20.964527 44.833584 21.34375 45.15625 C 21.734461 45.46425 22.162111 45.6805 22.65625 45.8125 C 23.150383 45.9445 23.670376 46 24.1875 46 C 24.693123 46 25.173599 45.9445 25.65625 45.8125 C 26.15038 45.6805 26.589522 45.46425 26.96875 45.15625 C 27.347963 44.848251 27.676411 44.436168 27.90625 43.9375 C 28.147564 43.424169 28.249991 42.779253 28.25 42.03125 C 28.249991 41.503254 28.160873 41.070755 28 40.71875 C 27.83911 40.352089 27.639298 40.047172 27.375 39.8125 C 27.110687 39.563173 26.813489 39.365423 26.46875 39.21875 C 26.135488 39.07209 25.793732 38.946423 25.4375 38.84375 C 25.092748 38.74109 24.7395 38.650507 24.40625 38.5625 C 24.07299 38.474507 23.795551 38.383924 23.53125 38.28125 C 23.278432 38.163924 23.067128 38.019758 22.90625 37.84375 C 22.745365 37.667758 22.656247 37.434925 22.65625 37.15625 C 22.656247 36.921592 22.689314 36.725759 22.78125 36.59375 C 22.873179 36.447093 22.998589 36.354593 23.125 36.28125 C 23.262895 36.207926 23.401614 36.170926 23.5625 36.15625 C 23.723378 36.126926 23.893347 36.09376 24.03125 36.09375 C 24.467924 36.09376 24.834481 36.217509 25.15625 36.4375 C 25.478008 36.642842 25.653019 37.023675 25.6875 37.625 L 28 37.625 C 27.954025 36.921009 27.835064 36.360926 27.59375 35.90625 C 27.363911 35.436927 27.074981 35.059927 26.71875 34.78125 C 26.362505 34.502595 25.928406 34.304845 25.46875 34.1875 C 25.020574 34.070178 24.57639 34.000012 24.09375 34 z M 34.03125 34 C 33.330261 34.000012 32.688082 34.144178 32.125 34.4375 C 31.561911 34.716178 31.058452 35.128261 30.65625 35.65625 C 30.254044 36.169593 29.968338 36.814509 29.75 37.5625 C 29.53166 38.295841 29.406249 39.121923 29.40625 40.03125 C 29.406249 40.940588 29.53166 41.735421 29.75 42.46875 C 29.968338 43.202086 30.254044 43.847002 30.65625 44.375 C 31.058452 44.888334 31.561911 45.300417 32.125 45.59375 C 32.688082 45.872417 33.330261 46 34.03125 46 C 34.732229 46 35.343157 45.872417 35.90625 45.59375 C 36.48082 45.300417 36.972787 44.888334 37.375 44.375 C 37.777195 43.847002 38.094151 43.202086 38.3125 42.46875 C 38.53083 41.735421 38.62499 40.940588 38.625 40.03125 C 38.62499 39.121923 38.53083 38.295841 38.3125 37.5625 C 38.094151 36.814509 37.777195 36.169593 37.375 35.65625 C 36.972787 35.128261 36.48082 34.716178 35.90625 34.4375 C 35.343157 34.144178 34.732229 34.000012 34.03125 34 z M 55.65625 34 C 55.357464 34.000012 55.080025 34.070178 54.78125 34.1875 C 54.493956 34.304845 54.221559 34.467511 53.96875 34.6875 C 53.715932 34.892844 53.476602 35.160761 53.28125 35.46875 C 53.08589 35.762093 52.927412 36.08551 52.8125 36.4375 L 52.78125 36.4375 L 52.78125 34.3125 L 50.46875 34.3125 L 50.46875 45.6875 L 52.90625 45.6875 L 52.90625 40.5625 C 52.906247 40.063839 52.950806 39.596256 53.03125 39.15625 C 53.111687 38.70159 53.253631 38.322674 53.4375 38 C 53.632852 37.662675 53.877224 37.378175 54.1875 37.1875 C 54.497767 36.996842 54.864324 36.906259 55.3125 36.90625 C 55.461884 36.906259 55.620362 36.939425 55.78125 36.96875 C 55.942125 36.983425 56.072578 37.001925 56.1875 37.03125 L 56.1875 34.125 C 56.01512 34.051678 55.840109 34.000012 55.65625 34 z M 61.125 34 C 60.401028 34.000012 59.750582 34.160762 59.1875 34.46875 C 58.624411 34.776761 58.171961 35.223927 57.78125 35.78125 C 57.390536 36.323926 57.081847 36.956092 56.875 37.71875 C 56.679643 38.466757 56.593749 39.276256 56.59375 40.15625 C 56.593749 41.006921 56.68791 41.812587 56.90625 42.53125 C 57.124588 43.235252 57.421786 43.847002 57.8125 44.375 C 58.203211 44.888334 58.698403 45.300417 59.25 45.59375 C 59.801591 45.872417 60.415744 46 61.09375 46 C 62.277374 46 63.24155 45.6045 64 44.8125 C 64.758434 44.005835 65.214109 42.85442 65.375 41.34375 L 63 41.34375 C 62.919552 42.047754 62.728007 42.60592 62.40625 43.03125 C 62.08448 43.441919 61.637072 43.656252 61.0625 43.65625 C 60.683274 43.656252 60.358051 43.532502 60.09375 43.3125 C 59.82944 43.092503 59.629628 42.806086 59.46875 42.46875 C 59.319356 42.116754 59.193946 41.737837 59.125 41.3125 C 59.056048 40.887171 59.031247 40.473172 59.03125 40.0625 C 59.031247 39.651839 59.056048 39.221256 59.125 38.78125 C 59.193946 38.341257 59.307865 37.945758 59.46875 37.59375 C 59.64112 37.227092 59.86069 36.938759 60.125 36.71875 C 60.389301 36.484093 60.734282 36.375009 61.125 36.375 C 62.170725 36.375009 62.776611 37.007175 62.9375 38.3125 L 65.3125 38.3125 C 65.278016 37.593841 65.159055 36.980175 64.90625 36.4375 C 64.664919 35.894843 64.347963 35.44576 63.96875 35.09375 C 63.589521 34.727094 63.15038 34.457261 62.65625 34.28125 C 62.173599 34.105262 61.653606 34.000012 61.125 34 z M 70.875 34 C 70.196994 34.000012 69.563082 34.160762 69 34.46875 C 68.448403 34.776761 67.995952 35.207344 67.59375 35.75 C 67.191544 36.278009 66.874588 36.891675 66.65625 37.625 C 66.43791 38.358341 66.3125 39.18059 66.3125 40.03125 C 66.3125 40.911255 66.418151 41.704171 66.625 42.4375 C 66.843338 43.170836 67.171786 43.784502 67.5625 44.3125 C 67.953211 44.840501 68.405661 45.269167 68.96875 45.5625 C 69.531832 45.855833 70.174011 46 70.875 46 C 71.886251 46 72.756267 45.695083 73.46875 45.09375 C 74.181218 44.492418 74.717745 43.536836 75.0625 42.1875 L 72.90625 42.1875 C 72.825802 42.539503 72.606231 42.864836 72.25 43.1875 C 71.893756 43.495502 71.462881 43.656252 70.96875 43.65625 C 70.279252 43.656252 69.742726 43.423419 69.375 42.96875 C 69.007267 42.49942 68.815722 41.747337 68.78125 40.75 L 75.1875 40.75 C 75.233457 39.870006 75.192122 39.025423 75.03125 38.21875 C 74.870359 37.412092 74.617721 36.693176 74.25 36.0625 C 73.893754 35.431844 73.406829 34.960427 72.84375 34.59375 C 72.280657 34.212428 71.633437 34.000012 70.875 34 z M 40.21875 34.3125 L 40.21875 41.3125 C 40.218749 42.016504 40.283067 42.663336 40.375 43.25 C 40.478423 43.822002 40.633676 44.308085 40.875 44.71875 C 41.116321 45.114751 41.461302 45.421584 41.875 45.65625 C 42.300184 45.87625 42.844978 46 43.5 46 C 44.017115 46 44.505858 45.83925 45 45.53125 C 45.494131 45.22325 45.908471 44.739084 46.21875 44.09375 L 46.25 44.09375 L 46.25 45.6875 L 48.59375 45.6875 L 48.59375 34.3125 L 46.125 34.3125 L 46.125 40.28125 C 46.124993 41.439921 45.986274 42.26792 45.6875 42.78125 C 45.388714 43.279919 44.916504 43.531252 44.25 43.53125 C 43.675418 43.531252 43.272569 43.298419 43.03125 42.84375 C 42.801415 42.37442 42.687497 41.688671 42.6875 40.75 L 42.6875 34.3125 L 40.21875 34.3125 z M 34.03125 36.375 C 34.44494 36.375009 34.786697 36.467509 35.0625 36.6875 C 35.349782 36.892842 35.557861 37.162675 35.71875 37.5 C 35.891116 37.837341 36.024793 38.247507 36.09375 38.6875 C 36.162692 39.127507 36.187493 39.576589 36.1875 40.03125 C 36.187493 40.485922 36.162692 40.903755 36.09375 41.34375 C 36.024793 41.769087 35.891116 42.179254 35.71875 42.53125 C 35.557861 42.868586 35.349782 43.138419 35.0625 43.34375 C 34.786697 43.549085 34.44494 43.656252 34.03125 43.65625 C 33.617549 43.656252 33.244543 43.549085 32.96875 43.34375 C 32.692949 43.138419 32.48487 42.868586 32.3125 42.53125 C 32.151615 42.179254 32.037696 41.769087 31.96875 41.34375 C 31.899798 40.903755 31.874997 40.485922 31.875 40.03125 C 31.874997 39.576589 31.899798 39.127507 31.96875 38.6875 C 32.037696 38.247507 32.151615 37.837341 32.3125 37.5 C 32.48487 37.162675 32.692949 36.892842 32.96875 36.6875 C 33.244543 36.467509 33.617549 36.375009 34.03125 36.375 z M 70.8125 36.375 C 71.410055 36.375009 71.837705 36.558092 72.125 36.96875 C 72.423774 37.379425 72.635078 37.989258 72.75 38.78125 L 68.78125 38.78125 C 68.792739 38.561257 68.817539 38.309924 68.875 38.03125 C 68.943946 37.752591 69.069357 37.499342 69.21875 37.25 C 69.379628 37.000675 69.559682 36.786342 69.8125 36.625 C 70.076801 36.449009 70.421783 36.375009 70.8125 36.375 z "
       transform="translate(0,956.3622)"
       id="text3786" />
  </g>
</svg>
