<?xml version="1.0" encoding="UTF-8" standalone="no"?>
<!-- Created with Inkscape (http://www.inkscape.org/) -->

<svg
   xmlns:dc="http://purl.org/dc/elements/1.1/"
   xmlns:cc="http://creativecommons.org/ns#"
   xmlns:rdf="http://www.w3.org/1999/02/22-rdf-syntax-ns#"
   xmlns:svg="http://www.w3.org/2000/svg"
   xmlns="http://www.w3.org/2000/svg"
   xmlns:xlink="http://www.w3.org/1999/xlink"
   xmlns:sodipodi="http://sodipodi.sourceforge.net/DTD/sodipodi-0.dtd"
   xmlns:inkscape="http://www.inkscape.org/namespaces/inkscape"
   width="96"
   height="96"
   id="svg2"
   version="1.1"
   inkscape:version="0.48.4 r9939"
   sodipodi:docname="application-vnd.oasis.opendocument.formula (copy).svg">
  <defs
     id="defs4">
    <filter
       id="filter3174-3"
       color-interpolation-filters="sRGB">
      <feGaussianBlur
         stdDeviation="1.71"
         id="feGaussianBlur3176-1" />
    </filter>
    <linearGradient
       gradientTransform="scale(1.0058652,0.994169)"
       gradientUnits="userSpaceOnUse"
       id="ButtonShadow-8"
       y2="7.0165396"
       x2="45.447727"
       y1="92.539597"
       x1="45.447727">
      <stop
         offset="0"
         style="stop-color:#000000;stop-opacity:1"
         id="stop3750-45" />
      <stop
         offset="1"
         style="stop-color:#000000;stop-opacity:0.58823532"
         id="stop3752-7" />
    </linearGradient>
    <filter
       id="filter3174-3-1"
       color-interpolation-filters="sRGB">
      <feGaussianBlur
         stdDeviation="1.71"
         id="feGaussianBlur3176-1-8" />
    </filter>
    <linearGradient
       gradientTransform="scale(1.0058652,0.994169)"
       gradientUnits="userSpaceOnUse"
       id="ButtonShadow-8-0"
       y2="7.0165396"
       x2="45.447727"
       y1="92.539597"
       x1="45.447727">
      <stop
         offset="0"
         style="stop-color:#000000;stop-opacity:1"
         id="stop3750-45-9" />
      <stop
         offset="1"
         style="stop-color:#000000;stop-opacity:0.58823532"
         id="stop3752-7-3" />
    </linearGradient>
    <filter
       id="filter3174-3-17"
       color-interpolation-filters="sRGB">
      <feGaussianBlur
         stdDeviation="1.71"
         id="feGaussianBlur3176-1-3" />
    </filter>
    <linearGradient
       gradientTransform="scale(1.0058652,0.994169)"
       gradientUnits="userSpaceOnUse"
       id="ButtonShadow-8-7"
       y2="7.0165396"
       x2="45.447727"
       y1="92.539597"
       x1="45.447727">
      <stop
         offset="0"
         style="stop-color:#000000;stop-opacity:1"
         id="stop3750-45-8" />
      <stop
         offset="1"
         style="stop-color:#000000;stop-opacity:0.58823532"
         id="stop3752-7-8" />
    </linearGradient>
    <linearGradient
       inkscape:collect="always"
       xlink:href="#ButtonShadow-8-7"
       id="linearGradient3093"
       gradientUnits="userSpaceOnUse"
       gradientTransform="matrix(1.0058652,0,0,0.994169,5.26345,937.18686)"
       x1="45.447727"
       y1="92.539597"
       x2="45.447727"
       y2="7.0165396" />
  </defs>
  <sodipodi:namedview
     id="base"
     pagecolor="#ffffff"
     bordercolor="#666666"
     borderopacity="1.0"
     inkscape:pageopacity="0.0"
     inkscape:pageshadow="2"
     inkscape:zoom="5.90625"
     inkscape:cx="48"
     inkscape:cy="48"
     inkscape:document-units="px"
     inkscape:current-layer="layer1"
     showgrid="true"
     inkscape:snap-page="true"
     inkscape:snap-global="true"
     inkscape:snap-object-midpoints="false"
     inkscape:object-nodes="true"
     inkscape:window-width="1305"
     inkscape:window-height="744"
     inkscape:window-x="61"
     inkscape:window-y="24"
     inkscape:window-maximized="1"
     inkscape:snap-nodes="true"
     inkscape:snap-bbox="true"
     inkscape:object-paths="true"
     inkscape:snap-center="true">
    <inkscape:grid
       type="xygrid"
       id="grid3925"
       empspacing="5"
       visible="true"
       enabled="true"
       snapvisiblegridlinesonly="true" />
  </sodipodi:namedview>
  <metadata
     id="metadata7">
    <rdf:RDF>
      <cc:Work
         rdf:about="">
        <dc:format>image/svg+xml</dc:format>
        <dc:type
           rdf:resource="http://purl.org/dc/dcmitype/StillImage" />
        <dc:title />
      </cc:Work>
    </rdf:RDF>
  </metadata>
  <g
     inkscape:label="Layer 1"
     inkscape:groupmode="layer"
     id="layer1"
     transform="translate(0,-956.3622)">
    <path
       inkscape:connector-curvature="0"
       style="fill:#4182b8;fill-opacity:1;fill-rule:nonzero;stroke:none"
       d="m 79,1050.3622 c 3.691096,0 6,-3.309 6,-7 l 0,-78 c 0,-3.6911 -2.308904,-7 -6,-7 l -61,0 c -3.691096,0 -7,3.3089 -7,7 l 0,62 21,23 z"
       id="rect3121"
       sodipodi:nodetypes="ssssssccs" />
    <path
       style="fill:#ffffff;fill-opacity:0.58823532;fill-rule:nonzero;stroke:none"
       d="m 32,1050.3622 0,-23 -21,0 z"
       id="rect3903"
       inkscape:connector-curvature="0"
       sodipodi:nodetypes="cccc" />
    <path
       sodipodi:nodetypes="cccc"
       inkscape:connector-curvature="0"
       id="path3931"
       d="m 32,1027.3622 0,23 21,0 z"
       style="fill:#2d2d2d;fill-opacity:0.58823532;fill-rule:nonzero;stroke:none" />
    <g
       id="layer2"
       style="display:none"
       transform="translate(39.84429,874.99134)">
      <rect
         width="86"
         height="85"
         rx="6"
         ry="6"
         x="5"
         y="7"
         id="rect3745"
         style="opacity:0.9;fill:url(#ButtonShadow-8);fill-opacity:1;fill-rule:nonzero;stroke:none;filter:url(#filter3174-3)" />
    </g>
    <g
       id="layer2-0"
       style="display:none"
       transform="translate(40.3598,932.47103)">
      <rect
         width="86"
         height="85"
         rx="6"
         ry="6"
         x="5"
         y="7"
         id="rect3745-2"
         style="opacity:0.9;fill:url(#ButtonShadow-8-0);fill-opacity:1;fill-rule:nonzero;stroke:none;filter:url(#filter3174-3-1)" />
    </g>
    <rect
       style="opacity:0.9;fill:url(#linearGradient3093);fill-opacity:1;fill-rule:nonzero;stroke:none;display:none;filter:url(#filter3174-3-17)"
       id="rect3745-5"
       y="944.18689"
       x="10.26345"
       ry="6"
       rx="6"
       height="85"
       width="86" />
    <path
       inkscape:connector-curvature="0"
       style="fill:#ffc000;fill-opacity:1;stroke:none"
       d="m 65.237256,982.77518 0,3.05799 0,0.0264 -0.210896,1.05448 c 0,0.15018 -0.01708,0.30372 -0.02636,0.44815 -0.659643,2.13084 -2.608675,3.99741 -4.745156,4.53426 -0.01823,8.2e-4 -0.03441,0.0257 -0.05272,0.0264 -0.08943,0.003 -0.172283,0 -0.26362,0 l -2.557111,0.15817 -6.537771,0.0264 c -2.462318,0 -4.613346,1.60361 -4.613346,4.53426 l 0,0.44815 0,8.59396 c 0,2.4464 2.17043,3.8852 4.613346,4.587 2.925336,0.8402 5.726564,0.9921 9.226692,0 0.298623,-0.084 0.603587,-0.1824 0.896307,-0.29 2.086006,-0.7289 4.191555,-2.0176 4.191555,-4.297 l 0,-4.2442 4.165192,0 c 2.014367,0 3.074271,-1.2386 3.875211,-3.0053 0.0034,-0.007 -0.0034,-0.0191 0,-0.0264 0.266977,-0.55834 0.504623,-1.21139 0.738135,-1.89806 0.964848,-2.82767 0.923783,-5.52024 0,-9.14761 -0.663757,-2.61171 -1.924095,-4.58698 -4.613346,-4.58698 l -3.479781,0 -0.606325,0 z m -5.035138,21.35322 c 0.958007,0 1.713529,0.7653 1.713529,1.7135 0,0.9516 -0.755522,1.7135 -1.713529,1.7135 -0.954582,0 -1.73989,-0.7619 -1.73989,-1.7135 0,-0.9482 0.785308,-1.7135 1.73989,-1.7135 z"
       id="path2732" />
    <path
       inkscape:connector-curvature="0"
       style="fill:#ffffff;fill-opacity:1;stroke:none"
       d="m 54.929723,971.83496 c -0.84097,-0.0106 -1.706428,0.0686 -2.609836,0.21089 -0.01672,0.003 -0.03598,-0.003 -0.05272,0 -0.743782,0.0627 -1.445199,0.1489 -2.108958,0.26362 -2.688612,0.46397 -3.853239,1.27438 -4.323364,2.58348 -0.503698,0.60964 -0.817222,1.3368 -0.817222,2.2144 l 0,4.24428 0.52724,0 0,0.0264 -0.52724,0 -4.165192,0 c -2.117403,0 -3.165328,1.35438 -3.980658,3.26889 -0.03789,0.089 -0.09494,0.17225 -0.13181,0.26362 -0.03332,0.0712 -0.07435,0.13745 -0.105448,0.21089 -0.02043,0.0526 -0.03254,0.10488 -0.05272,0.15817 -0.112063,0.2848 -0.212384,0.57987 -0.289982,0.89631 -0.01291,0.0377 -0.03984,0.0676 -0.05272,0.10545 -0.964848,2.82766 -0.923791,5.54659 0,9.17397 0.663757,2.61171 1.924095,4.58697 4.613346,4.58697 l 4.059744,0 0,-3.63794 c 0,-3.10773 3.384178,-5.72055 5.799635,-5.72055 l 8.620367,0 c 1.797568,0 3.351419,-1.27949 4.112468,-2.89982 0.04765,-0.0877 0.08987,-0.17258 0.13181,-0.26362 0.01757,-0.0435 0.03633,-0.0879 0.05272,-0.13181 0.04286,-0.10137 0.06985,-0.21146 0.105448,-0.31634 0.15688,-0.46226 0.26362,-0.96266 0.26362,-1.47627 l 0,-8.59401 c 0,-2.44636 -2.105441,-4.28413 -4.613346,-4.69243 -0.741688,-0.12059 -1.489885,-0.20264 -2.240768,-0.26362 -0.05228,-0.008 -0.105838,-0.0185 -0.158172,-0.0264 -0.0087,-6.6e-4 -0.01765,6.5e-4 -0.02636,0 -0.669521,-0.0994 -1.339882,-0.17583 -2.029872,-0.18453 z m -4.903328,1.89806 c 0.926162,0 1.687167,0.7325 1.687167,1.63444 0,0.89873 -0.761005,1.63444 -1.687167,1.63444 -0.929468,0 -1.660805,-0.73571 -1.660805,-1.63444 0,-0.90194 0.731337,-1.63444 1.660805,-1.63444 z"
       id="path2730" />
  </g>
</svg>
