<?xml version="1.0" encoding="UTF-8" standalone="no"?>
<!-- Created with Inkscape (http://www.inkscape.org/) -->

<svg
   xmlns:dc="http://purl.org/dc/elements/1.1/"
   xmlns:cc="http://creativecommons.org/ns#"
   xmlns:rdf="http://www.w3.org/1999/02/22-rdf-syntax-ns#"
   xmlns:svg="http://www.w3.org/2000/svg"
   xmlns="http://www.w3.org/2000/svg"
   xmlns:xlink="http://www.w3.org/1999/xlink"
   xmlns:sodipodi="http://sodipodi.sourceforge.net/DTD/sodipodi-0.dtd"
   xmlns:inkscape="http://www.inkscape.org/namespaces/inkscape"
   width="96"
   height="96"
   id="svg2"
   version="1.1"
   inkscape:version="0.48.4 r9939"
   sodipodi:docname="application-illustrator (copy).svg">
  <defs
     id="defs4">
    <filter
       id="filter3174-3"
       color-interpolation-filters="sRGB">
      <feGaussianBlur
         stdDeviation="1.71"
         id="feGaussianBlur3176-1" />
    </filter>
    <linearGradient
       gradientTransform="scale(1.0058652,0.994169)"
       gradientUnits="userSpaceOnUse"
       id="ButtonShadow-8"
       y2="7.0165396"
       x2="45.447727"
       y1="92.539597"
       x1="45.447727">
      <stop
         offset="0"
         style="stop-color:#000000;stop-opacity:1"
         id="stop3750-45" />
      <stop
         offset="1"
         style="stop-color:#000000;stop-opacity:0.58823532"
         id="stop3752-7" />
    </linearGradient>
    <filter
       id="filter3174-3-1"
       color-interpolation-filters="sRGB">
      <feGaussianBlur
         stdDeviation="1.71"
         id="feGaussianBlur3176-1-8" />
    </filter>
    <linearGradient
       gradientTransform="scale(1.0058652,0.994169)"
       gradientUnits="userSpaceOnUse"
       id="ButtonShadow-8-0"
       y2="7.0165396"
       x2="45.447727"
       y1="92.539597"
       x1="45.447727">
      <stop
         offset="0"
         style="stop-color:#000000;stop-opacity:1"
         id="stop3750-45-9" />
      <stop
         offset="1"
         style="stop-color:#000000;stop-opacity:0.58823532"
         id="stop3752-7-3" />
    </linearGradient>
    <filter
       id="filter3174-3-17"
       color-interpolation-filters="sRGB">
      <feGaussianBlur
         stdDeviation="1.71"
         id="feGaussianBlur3176-1-3" />
    </filter>
    <linearGradient
       gradientTransform="scale(1.0058652,0.994169)"
       gradientUnits="userSpaceOnUse"
       id="ButtonShadow-8-7"
       y2="7.0165396"
       x2="45.447727"
       y1="92.539597"
       x1="45.447727">
      <stop
         offset="0"
         style="stop-color:#000000;stop-opacity:1"
         id="stop3750-45-8" />
      <stop
         offset="1"
         style="stop-color:#000000;stop-opacity:0.58823532"
         id="stop3752-7-8" />
    </linearGradient>
    <linearGradient
       inkscape:collect="always"
       xlink:href="#ButtonShadow-8-7"
       id="linearGradient3093"
       gradientUnits="userSpaceOnUse"
       gradientTransform="matrix(1.0058652,0,0,0.994169,5.26345,937.18686)"
       x1="45.447727"
       y1="92.539597"
       x2="45.447727"
       y2="7.0165396" />
  </defs>
  <sodipodi:namedview
     id="base"
     pagecolor="#ffffff"
     bordercolor="#666666"
     borderopacity="1.0"
     inkscape:pageopacity="0.0"
     inkscape:pageshadow="2"
     inkscape:zoom="3.484569"
     inkscape:cx="1.1815708"
     inkscape:cy="55.948813"
     inkscape:document-units="px"
     inkscape:current-layer="layer1"
     showgrid="true"
     inkscape:snap-page="true"
     inkscape:snap-global="true"
     inkscape:snap-object-midpoints="false"
     inkscape:object-nodes="true"
     inkscape:window-width="1305"
     inkscape:window-height="744"
     inkscape:window-x="61"
     inkscape:window-y="24"
     inkscape:window-maximized="1"
     inkscape:snap-nodes="true"
     inkscape:snap-bbox="true"
     inkscape:object-paths="true"
     inkscape:snap-center="true">
    <inkscape:grid
       type="xygrid"
       id="grid3925"
       empspacing="5"
       visible="true"
       enabled="true"
       snapvisiblegridlinesonly="true" />
  </sodipodi:namedview>
  <metadata
     id="metadata7">
    <rdf:RDF>
      <cc:Work
         rdf:about="">
        <dc:format>image/svg+xml</dc:format>
        <dc:type
           rdf:resource="http://purl.org/dc/dcmitype/StillImage" />
        <dc:title />
      </cc:Work>
    </rdf:RDF>
  </metadata>
  <g
     inkscape:label="Layer 1"
     inkscape:groupmode="layer"
     id="layer1"
     transform="translate(0,-956.3622)">
    <path
       inkscape:connector-curvature="0"
       style="fill:#b50000;fill-opacity:1;fill-rule:nonzero;stroke:none"
       d="m 79,1050.3622 c 3.691096,0 6,-3.309 6,-7 l 0,-78 c 0,-3.6911 -2.308904,-7 -6,-7 l -61,0 c -3.691096,0 -7,3.3089 -7,7 l 0,62 21,23 z"
       id="rect3121"
       sodipodi:nodetypes="ssssssccs" />
    <path
       style="fill:#ffffff;fill-opacity:0.58823532;fill-rule:nonzero;stroke:none"
       d="m 32,1050.3622 0,-23 -21,0 z"
       id="rect3903"
       inkscape:connector-curvature="0"
       sodipodi:nodetypes="cccc" />
    <path
       sodipodi:nodetypes="cccc"
       inkscape:connector-curvature="0"
       id="path3931"
       d="m 32,1027.3622 0,23 21,0 z"
       style="fill:#2d2d2d;fill-opacity:0.58823532;fill-rule:nonzero;stroke:none" />
    <g
       id="layer2"
       style="display:none"
       transform="translate(39.84429,874.99134)">
      <rect
         width="86"
         height="85"
         rx="6"
         ry="6"
         x="5"
         y="7"
         id="rect3745"
         style="opacity:0.9;fill:url(#ButtonShadow-8);fill-opacity:1;fill-rule:nonzero;stroke:none;filter:url(#filter3174-3)" />
    </g>
    <g
       id="layer2-0"
       style="display:none"
       transform="translate(40.3598,932.47103)">
      <rect
         width="86"
         height="85"
         rx="6"
         ry="6"
         x="5"
         y="7"
         id="rect3745-2"
         style="opacity:0.9;fill:url(#ButtonShadow-8-0);fill-opacity:1;fill-rule:nonzero;stroke:none;filter:url(#filter3174-3-1)" />
    </g>
    <rect
       style="opacity:0.9;fill:url(#linearGradient3093);fill-opacity:1;fill-rule:nonzero;stroke:none;display:none;filter:url(#filter3174-3-17)"
       id="rect3745-5"
       y="944.18689"
       x="10.26345"
       ry="6"
       rx="6"
       height="85"
       width="86" />
    <path
       style="font-size:35.94045639000000136px;font-style:normal;font-variant:normal;font-weight:normal;font-stretch:normal;text-align:end;line-height:125%;letter-spacing:0px;word-spacing:0px;text-anchor:end;fill:#ffffff;fill-opacity:1;stroke:none;font-family:mry_KacstQurn;-inkscape-font-specification:mry_KacstQurn"
       d="m 48.089616,968.6857 c -1.23278,0.085 -2.310788,0.38466 -3.292785,0.94903 -1.170092,0.68944 -2.198885,1.71132 -3.013733,3.06931 l -7.534333,13.17112 4.297361,2.45563 6.362326,-10.99451 c 1.10736,-2.23562 2.311288,-3.49525 3.627642,-3.68345 0.14624,-0.0243 0.300191,0 0.446478,0 1.086464,0 1.968446,0.39219 2.678875,1.22782 l 3.125354,5.41347 -1.897535,1.11635 7.366902,3.34858 0.781338,-8.09229 -2.009154,1.17172 -2.623065,-4.57639 c -2.005866,-3.05036 -4.784601,-4.55551 -8.315671,-4.57639 z m 16.129054,18.08239 -4.241551,2.51174 6.306517,10.99427 c 1.023764,1.5044 1.562627,2.8201 1.562676,3.9069 -4.9e-5,0.3968 -0.07703,0.7608 -0.223246,1.1161 -0.522399,1.1491 -1.411253,1.8351 -2.623066,2.0651 l -6.194897,0 0,-2.1768 -6.585564,4.6881 6.585564,4.6881 0,-2.2881 5.246131,0 c 3.656416,-0.2089 6.372195,-1.8403 8.14824,-4.9113 0.543195,-1.1078 0.781287,-2.2205 0.78134,-3.3488 -5.3e-5,-1.358 -0.39898,-2.6951 -1.172008,-4.07419 l -7.590143,-13.17112 z m -29.690856,3.57199 -7.36691,3.34858 1.897543,1.11611 -2.623063,4.57639 c -0.79399,1.56684 -1.17201,3.12784 -1.17201,4.63224 0,1.6506 0.4759,3.2468 1.39525,4.8554 0.710388,1.0236 1.550307,1.8359 2.511441,2.4 1.190955,0.6892 2.562865,1.0047 4.129933,1.0047 l 15.180285,0 0,-4.9674 -12.724651,0 c -0.33432,0.024 -0.691182,0.056 -1.004579,0.056 -1.943161,0 -3.287027,-0.476 -4.01831,-1.3952 -0.480573,-0.6688 -0.725537,-1.3895 -0.725529,-2.121 -8e-6,-0.3968 0.07698,-0.8098 0.223246,-1.2278 l 3.125351,-5.3576 1.897538,1.11611 -0.72553,-8.03691 z"
       id="text3025"
       inkscape:connector-curvature="0" />
  </g>
</svg>
