<?xml version="1.0" encoding="UTF-8" standalone="no"?>
<!-- Created with Inkscape (http://www.inkscape.org/) -->

<svg
   xmlns:dc="http://purl.org/dc/elements/1.1/"
   xmlns:cc="http://creativecommons.org/ns#"
   xmlns:rdf="http://www.w3.org/1999/02/22-rdf-syntax-ns#"
   xmlns:svg="http://www.w3.org/2000/svg"
   xmlns="http://www.w3.org/2000/svg"
   xmlns:xlink="http://www.w3.org/1999/xlink"
   xmlns:sodipodi="http://sodipodi.sourceforge.net/DTD/sodipodi-0.dtd"
   xmlns:inkscape="http://www.inkscape.org/namespaces/inkscape"
   width="96"
   height="96"
   id="svg2"
   version="1.1"
   inkscape:version="0.48.4 r9939"
   sodipodi:docname="text-html.svg">
  <defs
     id="defs4">
    <filter
       id="filter3174-3"
       color-interpolation-filters="sRGB">
      <feGaussianBlur
         stdDeviation="1.71"
         id="feGaussianBlur3176-1" />
    </filter>
    <linearGradient
       gradientTransform="scale(1.0058652,0.994169)"
       gradientUnits="userSpaceOnUse"
       id="ButtonShadow-8"
       y2="7.0165396"
       x2="45.447727"
       y1="92.539597"
       x1="45.447727">
      <stop
         offset="0"
         style="stop-color:#000000;stop-opacity:1"
         id="stop3750-45" />
      <stop
         offset="1"
         style="stop-color:#000000;stop-opacity:0.58823532"
         id="stop3752-7" />
    </linearGradient>
    <filter
       id="filter3174-3-1"
       color-interpolation-filters="sRGB">
      <feGaussianBlur
         stdDeviation="1.71"
         id="feGaussianBlur3176-1-8" />
    </filter>
    <linearGradient
       gradientTransform="scale(1.0058652,0.994169)"
       gradientUnits="userSpaceOnUse"
       id="ButtonShadow-8-0"
       y2="7.0165396"
       x2="45.447727"
       y1="92.539597"
       x1="45.447727">
      <stop
         offset="0"
         style="stop-color:#000000;stop-opacity:1"
         id="stop3750-45-9" />
      <stop
         offset="1"
         style="stop-color:#000000;stop-opacity:0.58823532"
         id="stop3752-7-3" />
    </linearGradient>
    <filter
       id="filter3174-3-17"
       color-interpolation-filters="sRGB">
      <feGaussianBlur
         stdDeviation="1.71"
         id="feGaussianBlur3176-1-3" />
    </filter>
    <linearGradient
       gradientTransform="scale(1.0058652,0.994169)"
       gradientUnits="userSpaceOnUse"
       id="ButtonShadow-8-7"
       y2="7.0165396"
       x2="45.447727"
       y1="92.539597"
       x1="45.447727">
      <stop
         offset="0"
         style="stop-color:#000000;stop-opacity:1"
         id="stop3750-45-8" />
      <stop
         offset="1"
         style="stop-color:#000000;stop-opacity:0.58823532"
         id="stop3752-7-8" />
    </linearGradient>
    <linearGradient
       inkscape:collect="always"
       xlink:href="#ButtonShadow-8-7"
       id="linearGradient3093"
       gradientUnits="userSpaceOnUse"
       gradientTransform="matrix(1.0058652,0,0,0.994169,5.26345,937.18686)"
       x1="45.447727"
       y1="92.539597"
       x2="45.447727"
       y2="7.0165396" />
  </defs>
  <sodipodi:namedview
     id="base"
     pagecolor="#ffffff"
     bordercolor="#666666"
     borderopacity="1.0"
     inkscape:pageopacity="0.0"
     inkscape:pageshadow="2"
     inkscape:zoom="3.484569"
     inkscape:cx="-16.532664"
     inkscape:cy="55.948813"
     inkscape:document-units="px"
     inkscape:current-layer="layer1"
     showgrid="true"
     inkscape:snap-page="true"
     inkscape:snap-global="true"
     inkscape:snap-object-midpoints="false"
     inkscape:object-nodes="true"
     inkscape:window-width="1305"
     inkscape:window-height="744"
     inkscape:window-x="61"
     inkscape:window-y="24"
     inkscape:window-maximized="1"
     inkscape:snap-nodes="false"
     inkscape:snap-bbox="true"
     inkscape:object-paths="true"
     inkscape:snap-center="true">
    <inkscape:grid
       type="xygrid"
       id="grid3925"
       empspacing="5"
       visible="true"
       enabled="true"
       snapvisiblegridlinesonly="true" />
  </sodipodi:namedview>
  <metadata
     id="metadata7">
    <rdf:RDF>
      <cc:Work
         rdf:about="">
        <dc:format>image/svg+xml</dc:format>
        <dc:type
           rdf:resource="http://purl.org/dc/dcmitype/StillImage" />
        <dc:title />
      </cc:Work>
    </rdf:RDF>
  </metadata>
  <g
     inkscape:label="Layer 1"
     inkscape:groupmode="layer"
     id="layer1"
     transform="translate(0,-956.3622)">
    <path
       inkscape:connector-curvature="0"
       style="fill:#0072c6;fill-opacity:1;fill-rule:nonzero;stroke:none"
       d="m 79,1050.3622 c 3.691096,0 6,-3.309 6,-7 l 0,-78 c 0,-3.6911 -2.308904,-7 -6,-7 l -61,0 c -3.691096,0 -7,3.3089 -7,7 l 0,62 21,23 z"
       id="rect3121"
       sodipodi:nodetypes="ssssssccs" />
    <path
       style="fill:#ffffff;fill-opacity:0.58823532;fill-rule:nonzero;stroke:none"
       d="m 32,1050.3622 0,-23 -21,0 z"
       id="rect3903"
       inkscape:connector-curvature="0"
       sodipodi:nodetypes="cccc" />
    <path
       sodipodi:nodetypes="cccc"
       inkscape:connector-curvature="0"
       id="path3931"
       d="m 32,1027.3622 0,23 21,0 z"
       style="fill:#000000;fill-opacity:0.58823532;fill-rule:nonzero;stroke:none" />
    <g
       id="layer2"
       style="display:none"
       transform="translate(39.84429,874.99134)">
      <rect
         width="86"
         height="85"
         rx="6"
         ry="6"
         x="5"
         y="7"
         id="rect3745"
         style="opacity:0.9;fill:url(#ButtonShadow-8);fill-opacity:1;fill-rule:nonzero;stroke:none;filter:url(#filter3174-3)" />
    </g>
    <g
       id="layer2-0"
       style="display:none"
       transform="translate(40.3598,932.47103)">
      <rect
         width="86"
         height="85"
         rx="6"
         ry="6"
         x="5"
         y="7"
         id="rect3745-2"
         style="opacity:0.9;fill:url(#ButtonShadow-8-0);fill-opacity:1;fill-rule:nonzero;stroke:none;filter:url(#filter3174-3-1)" />
    </g>
    <rect
       style="opacity:0.9;fill:url(#linearGradient3093);fill-opacity:1;fill-rule:nonzero;stroke:none;display:none;filter:url(#filter3174-3-17)"
       id="rect3745-5"
       y="944.18689"
       x="10.26345"
       ry="6"
       rx="6"
       height="85"
       width="86" />
    <path
       style="fill:#ffffff;fill-opacity:0.41142859;stroke:none"
       d="m 44.103928,969.8622 -1.396068,2.35955 -1.179774,-0.92415 -1.926968,0.51123 -0.727526,1.88763 -4.463483,0.82584 -0.825841,3.38204 -1.455057,-0.82585 -0.157303,-2.73315 -2.280899,-1.33708 c -0.258047,0.16181 -0.554154,0.26232 -0.806179,0.43259 -1.422658,0.96113 -2.762089,2.05423 -3.97191,3.26404 -0.03613,0.0362 -0.06238,0.0817 -0.0983,0.11799 l 0.432583,0.25561 2.359551,-0.11799 0.727528,1.3371 -1.808989,2.12359 1.612359,1.23875 -1.081461,2.98877 2.988765,1.73034 3.735953,0.51126 1.612359,2.0646 3.952247,2.47751 -1.238764,2.81182 3.185393,1.92691 -1.376406,3.32316 2.300562,1.31729 3.401685,7.2753 -2.792134,1.0619 -2.674158,3.6572 -12.564602,3.9326 c 0.442651,0.3413 0.833744,0.7484 1.297752,1.0618 1.422658,0.9611 2.942472,1.7813 4.542135,2.458 1.599657,0.6765 3.273231,1.1971 5.014042,1.5533 1.740812,0.3561 3.54152,0.5505 5.387639,0.5505 1.846119,0 3.646827,-0.1944 5.38764,-0.5505 1.740811,-0.3562 3.414385,-0.8768 5.014043,-1.5533 1.599658,-0.6767 3.119474,-1.4969 4.542134,-2.458 1.42266,-0.9612 2.76209,-2.0541 3.97191,-3.264 1.042149,-1.0421 1.952338,-2.2194 2.811796,-3.4213 l -3.755617,-2.3793 -1.691011,-5.1516 3.657303,-6.88216 6.783706,-1.33703 c -0.01684,-1.75475 -0.191534,-3.47362 -0.530898,-5.13204 -0.356223,-1.74079 -0.876772,-3.41435 -1.553371,-5.01403 -0.6766,-1.59966 -1.496735,-3.11946 -2.457864,-4.54214 -0.961132,-1.42266 -2.054227,-2.76209 -3.264045,-3.97191 -1.209819,-1.20981 -2.549249,-2.30291 -3.97191,-3.26404 -1.422659,-0.96113 -2.942473,-1.78126 -4.542132,-2.45786 -1.141037,-0.48262 -2.363183,-0.7789 -3.578651,-1.10112 l -6.54775,-0.0196 z m -8.514043,7.51123 0.373594,3.46068 -1.160111,-1.94664 0.786516,-1.51404 z m -4.168539,0.66855 2.792135,2.89045 -1.238764,1.12077 -2.851124,-2.69381 1.297753,-1.31741 z m -9.025278,1.71067 c -0.236201,0.31822 -0.525017,0.59531 -0.747192,0.92415 -0.961129,1.42267 -1.781264,2.94248 -2.457864,4.54214 -0.676599,1.59966 -1.197147,3.27324 -1.553372,5.01402 -0.356221,1.74086 -0.55056,3.54151 -0.55056,5.38769 0,1.8461 0.194339,3.64688 0.55056,5.38765 0.356225,1.7407 0.876773,3.4144 1.553372,5.014 0.403376,0.9537 0.94798,1.8202 1.455056,2.7135 l 4.443819,-5.4859 -2.084269,-2.9888 1.376403,-9.37926 2.379215,-1.21907 1.278088,-2.24159 -3.047752,-1.74999 0.255619,-3.36237 -1.867977,-0.86516 -0.983146,-1.69101 z m 12.918535,2.69382 4.502808,6.15449 -1.238763,-0.15731 -4.266854,-5.11235 1.002809,-0.88483 z"
       id="path3025"
       inkscape:connector-curvature="0" />
  </g>
</svg>
