<?xml version="1.0" encoding="UTF-8" standalone="no"?>
<svg
   xmlns:dc="http://purl.org/dc/elements/1.1/"
   xmlns:cc="http://creativecommons.org/ns#"
   xmlns:rdf="http://www.w3.org/1999/02/22-rdf-syntax-ns#"
   xmlns:svg="http://www.w3.org/2000/svg"
   xmlns="http://www.w3.org/2000/svg"
   xmlns:sodipodi="http://sodipodi.sourceforge.net/DTD/sodipodi-0.dtd"
   xmlns:inkscape="http://www.inkscape.org/namespaces/inkscape"
   version="1.1"
   width="48"
   height="48"
   id="svg8"
   sodipodi:docname="x-office-address-book.svg"
   inkscape:version="1.0beta2 (2b71d25d45, 2019-12-03)">
  <metadata
     id="metadata14">
    <rdf:RDF>
      <cc:Work
         rdf:about="">
        <dc:format>image/svg+xml</dc:format>
        <dc:type
           rdf:resource="http://purl.org/dc/dcmitype/StillImage" />
        <dc:title></dc:title>
        <dc:creator>
          <cc:Agent>
            <dc:title>Cristian Pozzessere &quot;ilnanny&quot;</dc:title>
          </cc:Agent>
        </dc:creator>
        <dc:subject>
          <rdf:Bag>
            <rdf:li>Global language</rdf:li>
          </rdf:Bag>
        </dc:subject>
        <dc:description>Playing with Inkscape on Gnu/Linux O. S.</dc:description>
        <dc:contributor>
          <cc:Agent>
            <dc:title>In the night, alone like a dog.</dc:title>
          </cc:Agent>
        </dc:contributor>
        <cc:license
           rdf:resource="http://creativecommons.org/licenses/by-sa/4.0/" />
      </cc:Work>
      <cc:License
         rdf:about="http://creativecommons.org/licenses/by-sa/4.0/">
        <cc:permits
           rdf:resource="http://creativecommons.org/ns#Reproduction" />
        <cc:permits
           rdf:resource="http://creativecommons.org/ns#Distribution" />
        <cc:requires
           rdf:resource="http://creativecommons.org/ns#Notice" />
        <cc:requires
           rdf:resource="http://creativecommons.org/ns#Attribution" />
        <cc:permits
           rdf:resource="http://creativecommons.org/ns#DerivativeWorks" />
        <cc:requires
           rdf:resource="http://creativecommons.org/ns#ShareAlike" />
      </cc:License>
    </rdf:RDF>
  </metadata>
  <defs
     id="defs12" />
  <sodipodi:namedview
     pagecolor="#ffffff"
     bordercolor="#666666"
     inkscape:document-rotation="0"
     borderopacity="1"
     objecttolerance="10"
     gridtolerance="10"
     guidetolerance="10"
     inkscape:pageopacity="0"
     inkscape:pageshadow="2"
     inkscape:window-width="1920"
     inkscape:window-height="1029"
     id="namedview10"
     showgrid="false"
     inkscape:snap-global="false"
     inkscape:zoom="10.986267"
     inkscape:cx="11.745117"
     inkscape:cy="33.053209"
     inkscape:window-x="0"
     inkscape:window-y="21"
     inkscape:window-maximized="1"
     inkscape:current-layer="g842" />
  <g
     id="g842"
     transform="matrix(0.15501322,0,0,0.13781714,-9.7002,-5.4734178)">
    <g
       id="g856"
       style="opacity:1;stroke:none" />
    <g
       transform="translate(-2.2578715,-3.6331364)"
       id="g857">
      <path
         d="M 74.0528,383.69518 C 72.808333,382.4494 73.002159,52.015308 74.247923,51.054985 74.864812,50.579443 128.22656,50.474867 221.50015,50.766409 l 146.28474,0.457236 0.19527,166.027775 c 0.15578,132.43823 -7.2e-4,166.09152 -0.77399,166.34287 -2.28364,0.74235 -292.412837,0.84222 -293.15337,0.10086 z"
         style="fill:#6e87ac;fill-opacity:1;stroke-width:0.774404"
         id="path2"
         inkscape:connector-curvature="0" />
      <path
         sodipodi:nodetypes="ccccccccccccccccccccccccccccccccccccccccc"
         id="path844"
         style="fill:#eff1f4;fill-opacity:0.830751;stroke:none;stroke-width:0.800206"
         d="M 71.285533,50.780367 V 384.37981 h 50.798507 v -28.32956 c 8.00816,2.32539 20.59839,-6.09771 7.20248,-2.26481 -9.18798,4.30252 -7.20045,-4.73375 -7.20248,-11.15474 v -53.63155 c 8.00816,2.32539 20.59839,-6.09773 7.20248,-2.26483 -9.18798,4.30252 -7.20045,-4.73373 -7.20248,-11.15472 v -55.14274 c 8.00816,2.32539 20.59839,-6.09773 7.20248,-2.26484 -9.18785,4.30251 -7.20054,-4.73336 -7.20248,-11.15432 v -56.51977 c 8.00815,2.32539 20.59839,-6.09771 7.20248,-2.26483 -9.18798,4.30253 -7.20045,-4.73374 -7.20248,-11.15472 V 83.446823 c 8.00815,2.325395 20.59839,-6.097711 7.20248,-2.264825 -9.18798,4.302522 -7.20045,-4.733738 -7.20248,-11.154737 V 50.780367 Z M 249.50085,122.30293 c -43.41172,-1.58888 -85.0495,38.00521 -88.11623,87.1081 -3.99048,41.57781 20.40909,82.69643 55.06603,97.03645 38.75458,17.51146 87.55492,0.75764 109.12123,-39.8837 21.58242,-37.49496 13.96663,-91.38596 -16.76915,-119.71848 -16.20116,-15.90343 -37.71598,-25.04804 -59.30188,-24.54237 z m 0,7.99065 c 40.00944,-1.3069 78.2726,35.33835 80.75153,80.64522 2.06155,26.16962 -7.67021,53.00061 -25.20306,70.35951 -11.62839,-7.51163 -26.34939,-9.70249 -36.2119,-20.37146 -2.48333,-7.50404 -4.42226,-18.3809 1.82925,-24.36402 4.02259,-12.48748 13.39385,-22.33037 8.60754,-35.84487 3.10524,-13.80294 5.63913,-33.76863 -7.77945,-41.67044 -11.41278,-8.061 -25.69593,-12.00333 -38.84033,-5.12111 -15.85283,7.19434 -16.46651,29.5104 -12.96029,45.42617 -1.87075,10.26089 -1.3048,20.23298 5.3975,28.38467 1.02577,8.24483 9.27358,13.07453 7.24159,21.82925 2.56529,17.02673 -15.89268,19.99037 -26.00711,25.50705 -14.92355,15.47512 -24.52598,-9.00955 -30.88716,-21.9542 -16.50021,-37.83428 -2.45397,-87.02756 29.56014,-108.4768 13.22029,-9.32495 28.83151,-14.66227 44.50175,-14.34897 z"
         inkscape:connector-curvature="0" />
      <path
         inkscape:connector-curvature="0"
         d="M 73.210853,50.777351 V 384.37679 h 50.798537 v -28.32956 c 8.00815,2.3254 20.59838,-6.09771 7.20248,-2.26481 -9.18798,4.30252 -7.20045,-4.73375 -7.20248,-11.15474 v -53.63155 c 8.00815,2.32539 20.59838,-6.09773 7.20248,-2.26483 -9.18798,4.30253 -7.20045,-4.73373 -7.20248,-11.15472 v -55.14274 c 8.00815,2.32539 20.59838,-6.09773 7.20248,-2.26484 -9.18785,4.30251 -7.20054,-4.73336 -7.20248,-11.15432 v -56.51977 c 8.00814,2.32539 20.59838,-6.09771 7.20248,-2.26483 -9.18798,4.30253 -7.20045,-4.73373 -7.20248,-11.15472 V 83.443806 c 8.00814,2.325395 20.59838,-6.097711 7.20248,-2.264825 -9.18798,4.302522 -7.20045,-4.733738 -7.20248,-11.154736 V 50.777351 Z M 251.4262,122.29991 c -43.41173,-1.58888 -85.04951,38.00521 -88.11624,87.1081 -3.99047,41.57781 20.40909,82.69643 55.06604,97.03645 38.75457,17.51146 87.55492,0.75764 109.12123,-39.8837 C 349.07965,229.0658 341.46385,175.1748 310.72808,146.84228 294.52692,130.93885 273.0121,121.79424 251.4262,122.29991 Z m 0,7.99065 c 40.00944,-1.3069 78.27259,35.33835 80.75152,80.64522 2.06156,26.16962 -7.67021,53.00062 -25.20305,70.35951 -11.62839,-7.51162 -26.3494,-9.70249 -36.2119,-20.37145 -2.48333,-7.50405 -4.42226,-18.38091 1.82924,-24.36403 4.02259,-12.48747 13.39386,-22.33037 8.60754,-35.84487 3.10524,-13.80294 5.63914,-33.76863 -7.77944,-41.67043 -11.41278,-8.06101 -25.69593,-12.00334 -38.84033,-5.12112 -15.85283,7.19434 -16.46652,29.51041 -12.96029,45.42617 -1.87076,10.26089 -1.3048,20.23298 5.3975,28.38467 1.02577,8.24483 9.27358,13.07453 7.24159,21.82926 2.56529,17.02672 -15.89269,19.99036 -26.00712,25.50705 -14.92355,15.47511 -24.52597,-9.00956 -30.88715,-21.95421 -16.50022,-37.83428 -2.45397,-87.02755 29.56014,-108.4768 13.22029,-9.32495 28.83151,-14.66226 44.50175,-14.34897 z"
         style="fill:#242c33;fill-opacity:1;stroke:none;stroke-width:0.800206"
         id="path4"
         sodipodi:nodetypes="ccccccccccccccccccccccccccccccccccccccccc" />
      <g
         transform="matrix(0.83165982,0,0,0.99947221,18.770266,-30.998534)"
         style="opacity:1;stroke:none"
         id="g847">
        <path
           inkscape:connector-curvature="0"
           transform="matrix(6.4510627,0,0,7.2559915,62.576598,39.715073)"
           d="m 9.2070312,9.9628906 c -0.051018,0.00616 -0.1213635,0.0091 -0.1699218,0.015625 -0.3482109,0.046773 -0.6299219,0.1031614 -0.8339844,0.1679684 -0.1020313,0.03241 -0.1854478,0.06505 -0.25,0.107422 -0.064552,0.04237 -0.1191406,0.102244 -0.1191406,0.179688 1.5e-6,0.07744 0.054588,0.137313 0.1191406,0.179687 0.064552,0.04237 0.1479687,0.07502 0.25,0.107422 0.2040641,0.06481 0.4877267,0.121195 0.8359375,0.167969 0.6964232,0.09355 1.6500675,0.150391 2.7050785,0.15039 1.05501,0 2.010608,-0.05684 2.707031,-0.15039 0.348211,-0.04677 0.629922,-0.103162 0.833984,-0.167969 0.102032,-0.03241 0.185448,-0.06505 0.25,-0.107422 0.06455,-0.04237 0.121092,-0.102245 0.121094,-0.179687 0,-0.07744 -0.05654,-0.137313 -0.121094,-0.179688 -0.06455,-0.04238 -0.147968,-0.07502 -0.25,-0.107422 -0.204062,-0.06481 -0.485773,-0.121195 -0.833984,-0.1679684 -0.0095,-0.00128 -0.0236,-0.00264 -0.0332,-0.00391 v 0.1914064 c 0.340331,0.04572 0.615866,0.100716 0.796875,0.158203 0.0905,0.02874 0.156543,0.05786 0.193359,0.08203 0.03682,0.02417 0.03516,0.03422 0.03516,0.02734 0,-0.0069 0.0017,0.0032 -0.03516,0.02734 -0.03682,0.02417 -0.102853,0.05329 -0.193359,0.08203 -0.181011,0.05749 -0.456544,0.112486 -0.796875,0.158203 -0.680665,0.09143 -1.627477,0.148437 -2.673828,0.148437 -1.04635,0 -1.9931639,-0.057 -2.6738285,-0.148437 -0.3403331,-0.04572 -0.6158645,-0.100717 -0.796875,-0.158203 -0.090504,-0.02874 -0.1565437,-0.05786 -0.1933594,-0.08203 -0.036817,-0.02417 -0.035158,-0.03422 -0.035156,-0.02734 0,0.0069 -0.00166,-0.0032 0.035156,-0.02734 0.036816,-0.02417 0.1028549,-0.05329 0.1933594,-0.08203 0.1810105,-0.05749 0.4565419,-0.112487 0.796875,-0.158203 0.038781,-0.0052 0.096236,-0.0067 0.1367187,-0.01172 z"
           style="color:#000000;font-style:normal;font-variant:normal;font-weight:normal;font-stretch:normal;font-size:medium;line-height:normal;font-family:sans-serif;font-variant-ligatures:normal;font-variant-position:normal;font-variant-caps:normal;font-variant-numeric:normal;font-variant-alternates:normal;font-variant-east-asian:normal;font-feature-settings:normal;font-variation-settings:normal;text-indent:0;text-align:start;text-decoration:none;text-decoration-line:none;text-decoration-style:solid;text-decoration-color:#000000;letter-spacing:normal;word-spacing:normal;text-transform:none;writing-mode:lr-tb;direction:ltr;text-orientation:mixed;dominant-baseline:auto;baseline-shift:baseline;text-anchor:start;white-space:normal;shape-padding:0;shape-margin:0;inline-size:0;clip-rule:nonzero;display:inline;overflow:visible;visibility:visible;isolation:auto;mix-blend-mode:normal;color-interpolation:sRGB;color-interpolation-filters:linearRGB;solid-color:#000000;solid-opacity:1;vector-effect:none;fill:none;fill-opacity:0.995052;fill-rule:nonzero;stroke:none;stroke-width:0.2;stroke-linecap:butt;stroke-linejoin:miter;stroke-miterlimit:4;stroke-dasharray:none;stroke-dashoffset:0;stroke-opacity:1;color-rendering:auto;image-rendering:auto;shape-rendering:auto;text-rendering:auto;enable-background:accumulate;stop-color:#000000;stop-opacity:1"
           id="path851" />
      </g>
      <g
         transform="matrix(0.83165982,0,0,0.99947221,18.770266,60.756972)"
         id="g874"
         style="opacity:1;stroke:none">
        <path
           inkscape:connector-curvature="0"
           id="path872"
           style="color:#000000;font-style:normal;font-variant:normal;font-weight:normal;font-stretch:normal;font-size:medium;line-height:normal;font-family:sans-serif;font-variant-ligatures:normal;font-variant-position:normal;font-variant-caps:normal;font-variant-numeric:normal;font-variant-alternates:normal;font-variant-east-asian:normal;font-feature-settings:normal;font-variation-settings:normal;text-indent:0;text-align:start;text-decoration:none;text-decoration-line:none;text-decoration-style:solid;text-decoration-color:#000000;letter-spacing:normal;word-spacing:normal;text-transform:none;writing-mode:lr-tb;direction:ltr;text-orientation:mixed;dominant-baseline:auto;baseline-shift:baseline;text-anchor:start;white-space:normal;shape-padding:0;shape-margin:0;inline-size:0;clip-rule:nonzero;display:inline;overflow:visible;visibility:visible;isolation:auto;mix-blend-mode:normal;color-interpolation:sRGB;color-interpolation-filters:linearRGB;solid-color:#000000;solid-opacity:1;vector-effect:none;fill:none;fill-opacity:0.995052;fill-rule:nonzero;stroke:none;stroke-width:0.2;stroke-linecap:butt;stroke-linejoin:miter;stroke-miterlimit:4;stroke-dasharray:none;stroke-dashoffset:0;stroke-opacity:1;color-rendering:auto;image-rendering:auto;shape-rendering:auto;text-rendering:auto;enable-background:accumulate;stop-color:#000000;stop-opacity:1"
           d="m 9.2070312,9.9628906 c -0.051018,0.00616 -0.1213635,0.0091 -0.1699218,0.015625 -0.3482109,0.046773 -0.6299219,0.1031614 -0.8339844,0.1679684 -0.1020313,0.03241 -0.1854478,0.06505 -0.25,0.107422 -0.064552,0.04237 -0.1191406,0.102244 -0.1191406,0.179688 1.5e-6,0.07744 0.054588,0.137313 0.1191406,0.179687 0.064552,0.04237 0.1479687,0.07502 0.25,0.107422 0.2040641,0.06481 0.4877267,0.121195 0.8359375,0.167969 0.6964232,0.09355 1.6500675,0.150391 2.7050785,0.15039 1.05501,0 2.010608,-0.05684 2.707031,-0.15039 0.348211,-0.04677 0.629922,-0.103162 0.833984,-0.167969 0.102032,-0.03241 0.185448,-0.06505 0.25,-0.107422 0.06455,-0.04237 0.121092,-0.102245 0.121094,-0.179687 0,-0.07744 -0.05654,-0.137313 -0.121094,-0.179688 -0.06455,-0.04238 -0.147968,-0.07502 -0.25,-0.107422 -0.204062,-0.06481 -0.485773,-0.121195 -0.833984,-0.1679684 -0.0095,-0.00128 -0.0236,-0.00264 -0.0332,-0.00391 v 0.1914064 c 0.340331,0.04572 0.615866,0.100716 0.796875,0.158203 0.0905,0.02874 0.156543,0.05786 0.193359,0.08203 0.03682,0.02417 0.03516,0.03422 0.03516,0.02734 0,-0.0069 0.0017,0.0032 -0.03516,0.02734 -0.03682,0.02417 -0.102853,0.05329 -0.193359,0.08203 -0.181011,0.05749 -0.456544,0.112486 -0.796875,0.158203 -0.680665,0.09143 -1.627477,0.148437 -2.673828,0.148437 -1.04635,0 -1.9931639,-0.057 -2.6738285,-0.148437 -0.3403331,-0.04572 -0.6158645,-0.100717 -0.796875,-0.158203 -0.090504,-0.02874 -0.1565437,-0.05786 -0.1933594,-0.08203 -0.036817,-0.02417 -0.035158,-0.03422 -0.035156,-0.02734 0,0.0069 -0.00166,-0.0032 0.035156,-0.02734 0.036816,-0.02417 0.1028549,-0.05329 0.1933594,-0.08203 0.1810105,-0.05749 0.4565419,-0.112487 0.796875,-0.158203 0.038781,-0.0052 0.096236,-0.0067 0.1367187,-0.01172 z"
           transform="matrix(6.4510627,0,0,7.2559915,62.576598,39.715073)" />
      </g>
      <g
         style="opacity:1;stroke:none"
         id="g880"
         transform="matrix(0.83165982,0,0,0.99947221,18.770266,156.47314)">
        <path
           transform="matrix(6.4510627,0,0,7.2559915,62.576598,39.715073)"
           d="m 9.2070312,9.9628906 c -0.051018,0.00616 -0.1213635,0.0091 -0.1699218,0.015625 -0.3482109,0.046773 -0.6299219,0.1031614 -0.8339844,0.1679684 -0.1020313,0.03241 -0.1854478,0.06505 -0.25,0.107422 -0.064552,0.04237 -0.1191406,0.102244 -0.1191406,0.179688 1.5e-6,0.07744 0.054588,0.137313 0.1191406,0.179687 0.064552,0.04237 0.1479687,0.07502 0.25,0.107422 0.2040641,0.06481 0.4877267,0.121195 0.8359375,0.167969 0.6964232,0.09355 1.6500675,0.150391 2.7050785,0.15039 1.05501,0 2.010608,-0.05684 2.707031,-0.15039 0.348211,-0.04677 0.629922,-0.103162 0.833984,-0.167969 0.102032,-0.03241 0.185448,-0.06505 0.25,-0.107422 0.06455,-0.04237 0.121092,-0.102245 0.121094,-0.179687 0,-0.07744 -0.05654,-0.137313 -0.121094,-0.179688 -0.06455,-0.04238 -0.147968,-0.07502 -0.25,-0.107422 -0.204062,-0.06481 -0.485773,-0.121195 -0.833984,-0.1679684 -0.0095,-0.00128 -0.0236,-0.00264 -0.0332,-0.00391 v 0.1914064 c 0.340331,0.04572 0.615866,0.100716 0.796875,0.158203 0.0905,0.02874 0.156543,0.05786 0.193359,0.08203 0.03682,0.02417 0.03516,0.03422 0.03516,0.02734 0,-0.0069 0.0017,0.0032 -0.03516,0.02734 -0.03682,0.02417 -0.102853,0.05329 -0.193359,0.08203 -0.181011,0.05749 -0.456544,0.112486 -0.796875,0.158203 -0.680665,0.09143 -1.627477,0.148437 -2.673828,0.148437 -1.04635,0 -1.9931639,-0.057 -2.6738285,-0.148437 -0.3403331,-0.04572 -0.6158645,-0.100717 -0.796875,-0.158203 -0.090504,-0.02874 -0.1565437,-0.05786 -0.1933594,-0.08203 -0.036817,-0.02417 -0.035158,-0.03422 -0.035156,-0.02734 0,0.0069 -0.00166,-0.0032 0.035156,-0.02734 0.036816,-0.02417 0.1028549,-0.05329 0.1933594,-0.08203 0.1810105,-0.05749 0.4565419,-0.112487 0.796875,-0.158203 0.038781,-0.0052 0.096236,-0.0067 0.1367187,-0.01172 z"
           style="color:#000000;font-style:normal;font-variant:normal;font-weight:normal;font-stretch:normal;font-size:medium;line-height:normal;font-family:sans-serif;font-variant-ligatures:normal;font-variant-position:normal;font-variant-caps:normal;font-variant-numeric:normal;font-variant-alternates:normal;font-variant-east-asian:normal;font-feature-settings:normal;font-variation-settings:normal;text-indent:0;text-align:start;text-decoration:none;text-decoration-line:none;text-decoration-style:solid;text-decoration-color:#000000;letter-spacing:normal;word-spacing:normal;text-transform:none;writing-mode:lr-tb;direction:ltr;text-orientation:mixed;dominant-baseline:auto;baseline-shift:baseline;text-anchor:start;white-space:normal;shape-padding:0;shape-margin:0;inline-size:0;clip-rule:nonzero;display:inline;overflow:visible;visibility:visible;isolation:auto;mix-blend-mode:normal;color-interpolation:sRGB;color-interpolation-filters:linearRGB;solid-color:#000000;solid-opacity:1;vector-effect:none;fill:none;fill-opacity:0.995052;fill-rule:nonzero;stroke:none;stroke-width:0.2;stroke-linecap:butt;stroke-linejoin:miter;stroke-miterlimit:4;stroke-dasharray:none;stroke-dashoffset:0;stroke-opacity:1;color-rendering:auto;image-rendering:auto;shape-rendering:auto;text-rendering:auto;enable-background:accumulate;stop-color:#000000;stop-opacity:1"
           id="path878"
           inkscape:connector-curvature="0" />
      </g>
      <g
         transform="matrix(0.83165982,0,0,0.99947221,18.770266,250.29266)"
         id="g886"
         style="opacity:1;stroke:none">
        <path
           inkscape:connector-curvature="0"
           id="path884"
           style="color:#000000;font-style:normal;font-variant:normal;font-weight:normal;font-stretch:normal;font-size:medium;line-height:normal;font-family:sans-serif;font-variant-ligatures:normal;font-variant-position:normal;font-variant-caps:normal;font-variant-numeric:normal;font-variant-alternates:normal;font-variant-east-asian:normal;font-feature-settings:normal;font-variation-settings:normal;text-indent:0;text-align:start;text-decoration:none;text-decoration-line:none;text-decoration-style:solid;text-decoration-color:#000000;letter-spacing:normal;word-spacing:normal;text-transform:none;writing-mode:lr-tb;direction:ltr;text-orientation:mixed;dominant-baseline:auto;baseline-shift:baseline;text-anchor:start;white-space:normal;shape-padding:0;shape-margin:0;inline-size:0;clip-rule:nonzero;display:inline;overflow:visible;visibility:visible;isolation:auto;mix-blend-mode:normal;color-interpolation:sRGB;color-interpolation-filters:linearRGB;solid-color:#000000;solid-opacity:1;vector-effect:none;fill:none;fill-opacity:0.995052;fill-rule:nonzero;stroke:none;stroke-width:0.2;stroke-linecap:butt;stroke-linejoin:miter;stroke-miterlimit:4;stroke-dasharray:none;stroke-dashoffset:0;stroke-opacity:1;color-rendering:auto;image-rendering:auto;shape-rendering:auto;text-rendering:auto;enable-background:accumulate;stop-color:#000000;stop-opacity:1"
           d="m 9.2070312,9.9628906 c -0.051018,0.00616 -0.1213635,0.0091 -0.1699218,0.015625 -0.3482109,0.046773 -0.6299219,0.1031614 -0.8339844,0.1679684 -0.1020313,0.03241 -0.1854478,0.06505 -0.25,0.107422 -0.064552,0.04237 -0.1191406,0.102244 -0.1191406,0.179688 1.5e-6,0.07744 0.054588,0.137313 0.1191406,0.179687 0.064552,0.04237 0.1479687,0.07502 0.25,0.107422 0.2040641,0.06481 0.4877267,0.121195 0.8359375,0.167969 0.6964232,0.09355 1.6500675,0.150391 2.7050785,0.15039 1.05501,0 2.010608,-0.05684 2.707031,-0.15039 0.348211,-0.04677 0.629922,-0.103162 0.833984,-0.167969 0.102032,-0.03241 0.185448,-0.06505 0.25,-0.107422 0.06455,-0.04237 0.121092,-0.102245 0.121094,-0.179687 0,-0.07744 -0.05654,-0.137313 -0.121094,-0.179688 -0.06455,-0.04238 -0.147968,-0.07502 -0.25,-0.107422 -0.204062,-0.06481 -0.485773,-0.121195 -0.833984,-0.1679684 -0.0095,-0.00128 -0.0236,-0.00264 -0.0332,-0.00391 v 0.1914064 c 0.340331,0.04572 0.615866,0.100716 0.796875,0.158203 0.0905,0.02874 0.156543,0.05786 0.193359,0.08203 0.03682,0.02417 0.03516,0.03422 0.03516,0.02734 0,-0.0069 0.0017,0.0032 -0.03516,0.02734 -0.03682,0.02417 -0.102853,0.05329 -0.193359,0.08203 -0.181011,0.05749 -0.456544,0.112486 -0.796875,0.158203 -0.680665,0.09143 -1.627477,0.148437 -2.673828,0.148437 -1.04635,0 -1.9931639,-0.057 -2.6738285,-0.148437 -0.3403331,-0.04572 -0.6158645,-0.100717 -0.796875,-0.158203 -0.090504,-0.02874 -0.1565437,-0.05786 -0.1933594,-0.08203 -0.036817,-0.02417 -0.035158,-0.03422 -0.035156,-0.02734 0,0.0069 -0.00166,-0.0032 0.035156,-0.02734 0.036816,-0.02417 0.1028549,-0.05329 0.1933594,-0.08203 0.1810105,-0.05749 0.4565419,-0.112487 0.796875,-0.158203 0.038781,-0.0052 0.096236,-0.0067 0.1367187,-0.01172 z"
           transform="matrix(6.4510627,0,0,7.2559915,62.576598,39.715073)" />
      </g>
    </g>
    <g
       style="opacity:1;stroke:none"
       id="g888"
       transform="translate(0,281.43974)" />
  </g>
</svg>
