<?xml version="1.0" encoding="UTF-8" standalone="no"?>
<svg xmlns:dc="http://purl.org/dc/elements/1.1/" xmlns:cc="http://creativecommons.org/ns#" xmlns:rdf="http://www.w3.org/1999/02/22-rdf-syntax-ns#" xmlns:svg="http://www.w3.org/2000/svg" xmlns="http://www.w3.org/2000/svg" xmlns:sodipodi="http://sodipodi.sourceforge.net/DTD/sodipodi-0.dtd" xmlns:inkscape="http://www.inkscape.org/namespaces/inkscape" sodipodi:docname="org.kde.plasma.frame.svg" inkscape:version="1.0beta2 (2b71d25d45, 2019-12-03)" version="1.1" id="svg2" viewBox="0 0 256 256">
  <metadata id="metadata10">
    <rdf:RDF>
      <cc:Work rdf:about="">
        <dc:format>image/svg+xml</dc:format>
        <dc:type rdf:resource="http://purl.org/dc/dcmitype/StillImage" />
        <dc:title />
      </cc:Work>
    </rdf:RDF>
  </metadata>
  <sodipodi:namedview inkscape:document-rotation="0" inkscape:current-layer="g4181" inkscape:window-maximized="1" inkscape:window-y="30" inkscape:window-x="0" inkscape:cy="133" inkscape:cx="186.7" inkscape:zoom="3.621" inkscape:object-nodes="true" showgrid="false" id="namedview8" inkscape:window-height="1050" inkscape:window-width="1920" inkscape:pageshadow="2" inkscape:pageopacity="0" guidetolerance="10" gridtolerance="10" objecttolerance="10" borderopacity="1" bordercolor="#666666" pagecolor="#ffffff">
    <inkscape:grid id="grid4474" type="xygrid" />
  </sodipodi:namedview>
  <defs id="defs4">
    <style type="text/css" id="current-color-scheme">
      .ColorScheme-Text {
        color:#f2f2f2;
      }
      .ColorScheme-Background {
        color:#31363b;
      }
      .ColorScheme-Highlight {
        color:#3daee9;
      }
      .ColorScheme-ViewText {
        color:#31363b;
      }
      .ColorScheme-ViewBackground {
        color:#314045;
      }
      .ColorScheme-ViewHover {
        color:#93cee9;
      }
      .ColorScheme-ViewFocus{
        color:#3daee9;
      }
      .ColorScheme-ButtonText {
        color:#31363b;
      }
      .ColorScheme-ButtonBackground {
        color:#31363b;
      }
      .ColorScheme-ButtonHover {
        color:#93cee9;
      }
      .ColorScheme-ButtonFocus{
        color:#3daee9;
      }
      </style>
  </defs>
  <path id="rect4240" class="ColorScheme-ButtonText" d="m 16,10 224,0 c 3.324,0 6,2.676 6,6 l 0,224 c 0,3.324 -2.676,6 -6,6 l -224,0 c -3.324,0 -6,-2.676 -6,-6 L 10,16 c 0,-3.324 2.676,-6 6,-6 z" style="fill:currentColor;fill-opacity:0.5" />
  <path id="rect4238" class="ColorScheme-Background" d="m 16,12 224,0 c 2.216,0 4,1.784 4,4 l 0,224 c 0,2.216 -1.784,4 -4,4 l -224,0 c -2.216,0 -4,-1.784 -4,-4 L 12,16 c 0,-2.216 1.784,-4 4,-4 z" style="fill:currentColor" />
  <g id="g4181" transform="matrix(2.8275857,0,0,3.1538467,-1049.8915,-1498.7478)">
    <path d="m 387.57145,489.79799 0,51.99999 58.00001,0 0,-51.99999 -58.00001,0 z" id="path4589" style="fill:#1a74bc" inkscape:connector-curvature="0" />
    <path sodipodi:nodetypes="ccccc" d="M 445.6,489.8 405.7,490.1 420.8,541.8 H 445.6 Z" id="path4284" style="fill:#a586dd;stroke-width:2;stroke-linecap:round" inkscape:connector-curvature="0" />
  </g>
</svg>
