<?xml version="1.0" encoding="UTF-8" standalone="no"?>
<svg
   xmlns:dc="http://purl.org/dc/elements/1.1/"
   xmlns:cc="http://creativecommons.org/ns#"
   xmlns:rdf="http://www.w3.org/1999/02/22-rdf-syntax-ns#"
   xmlns:svg="http://www.w3.org/2000/svg"
   xmlns="http://www.w3.org/2000/svg"
   xmlns:sodipodi="http://sodipodi.sourceforge.net/DTD/sodipodi-0.dtd"
   xmlns:inkscape="http://www.inkscape.org/namespaces/inkscape"
   sodipodi:docname="edittrash.svg"
   inkscape:version="0.92.4 (5da689c313, 2019-01-14)"
   id="svg2408"
   height="48"
   width="48"
   version="1.0">
  <sodipodi:namedview
     inkscape:document-rotation="0"
     inkscape:guide-bbox="true"
     showguides="true"
     inkscape:current-layer="svg2408"
     inkscape:window-maximized="1"
     inkscape:window-y="27"
     inkscape:window-x="0"
     inkscape:cy="12.275731"
     inkscape:cx="17.362424"
     inkscape:zoom="6.7863576"
     showgrid="false"
     id="namedview128"
     inkscape:window-height="1025"
     inkscape:window-width="1920"
     inkscape:pageshadow="2"
     inkscape:pageopacity="0"
     guidetolerance="10"
     gridtolerance="10"
     objecttolerance="10"
     borderopacity="1"
     bordercolor="#666666"
     pagecolor="#ffffff" />
  <defs
     id="defs2410">
    <linearGradient
       gradientTransform="scale(1.0058652,0.994169)"
       gradientUnits="userSpaceOnUse"
       id="ButtonShadow"
       y2="7.0165396"
       x2="45.447727"
       y1="92.539597"
       x1="45.447727">
      <stop
         offset="0"
         style="stop-color:#000000;stop-opacity:1"
         id="stop3750" />
      <stop
         offset="1"
         style="stop-color:#000000;stop-opacity:0.58823532"
         id="stop3752" />
    </linearGradient>
    <filter
       id="filter3174"
       color-interpolation-filters="sRGB">
      <feGaussianBlur
         stdDeviation="1.71"
         id="feGaussianBlur3176" />
    </filter>
    <filter
       id="filter3174-5"
       color-interpolation-filters="sRGB">
      <feGaussianBlur
         stdDeviation="1.71"
         id="feGaussianBlur3176-6" />
    </filter>
  </defs>
  <metadata
     id="metadata2413">
    <rdf:RDF>
      <cc:Work
         rdf:about="">
        <dc:format>image/svg+xml</dc:format>
        <dc:type
           rdf:resource="http://purl.org/dc/dcmitype/StillImage" />
        <dc:title />
      </cc:Work>
    </rdf:RDF>
  </metadata>
  <g
     id="g845"
     transform="translate(0.46811322,0.4681139)">
    <rect
       style="fill:#55679e;fill-opacity:1;stroke:none;stroke-width:0.46808603"
       id="rect6228"
       width="44.936226"
       height="44.936226"
       x="1.0637732"
       y="1.0637732" />
    <rect
       y="1.0637732"
       x="1.0637732"
       height="20.608715"
       width="44.936226"
       id="rect4912"
       style="fill:#7382b3;fill-opacity:1;stroke:none;stroke-width:0.46808603" />
    <rect
       style="opacity:0.51131203;fill:#ffffff;fill-opacity:1;stroke:none;stroke-width:0.46808603"
       id="rect3880"
       width="44.936226"
       height="1.1702142"
       x="1.0637732"
       y="1.0637732" />
    <rect
       y="44.829784"
       x="1.0637732"
       height="1.1702142"
       width="44.936226"
       id="rect3878"
       style="opacity:0.38914005;fill:#164450;fill-opacity:1;stroke:none;stroke-width:0.46808603" />
    <path
       inkscape:connector-curvature="0"
       id="path4853"
       d="m 23.624264,24.338329 c -1.416999,0 -2.29127,0.908952 -3.162388,1.850799 -0.507025,0.548193 -1.007676,1.193129 -1.486469,1.879945 -0.168048,-0.07054 -0.33569,-0.146653 -0.466343,-0.189451 -0.08746,-0.02865 -0.160916,-0.0458 -0.233171,-0.05829 -0.07226,-0.01249 -0.137442,-0.0469 -0.276892,0.04372 -0.108847,0.07073 -0.113119,0.132763 -0.131159,0.189452 -0.01804,0.05669 -0.03434,0.10832 -0.04371,0.174878 -0.01878,0.133118 -0.02388,0.302609 -0.02915,0.49549 -0.01054,0.385761 0.0025,0.878041 0.02915,1.369882 0.02667,0.49184 0.06444,0.987447 0.116585,1.369883 0.02608,0.191218 0.05443,0.35058 0.08744,0.480916 0.01652,0.06517 0.0343,0.120489 0.05829,0.174879 0.024,0.05439 0.0448,0.116071 0.160305,0.174879 0.115407,0.05876 0.175093,0.04179 0.233172,0.02915 0.05808,-0.01265 0.112612,-0.03324 0.174879,-0.05829 0.124535,-0.05009 0.26778,-0.127054 0.437196,-0.218598 0.338834,-0.183087 0.768512,-0.445971 1.180431,-0.714087 0.411919,-0.268118 0.802946,-0.536664 1.107564,-0.772382 0.15231,-0.117859 0.282663,-0.227025 0.378905,-0.32061 0.04812,-0.04679 0.09607,-0.09778 0.131159,-0.145733 0.03509,-0.04795 0.07968,-0.08937 0.07286,-0.218597 -0.0076,-0.143785 -0.07213,-0.173165 -0.116586,-0.218599 -0.04446,-0.04545 -0.08606,-0.08684 -0.145731,-0.131159 -0.06052,-0.04496 -0.155322,-0.109791 -0.233174,-0.160305 0.573101,-0.88723 1.175745,-1.738924 1.777935,-2.390009 0.795281,-0.859855 1.518438,-1.453654 2.229702,-1.515615 a 0.23319483,0.23319483 0 0 0 0.131159,-0.422623 c -0.547403,-0.41952 -1.186735,-0.699522 -1.981959,-0.699521 z m 1.996531,1.486469 c -0.256252,-1e-6 -0.518863,0.123515 -0.830673,0.320611 -0.311811,0.197096 -0.656126,0.483696 -1.020126,0.845246 a 0.23319483,0.23319483 0 0 0 0.02915,0.349758 c 0.231161,0.147472 0.561073,0.402107 0.903539,0.77238 0.680382,0.735625 1.455894,1.805446 2.113119,2.943791 a 0.23319483,0.23319483 0 0 0 0.174877,0.116586 c 0.411002,0.04714 0.84493,0.03065 1.253297,-0.160306 0.408368,-0.190954 0.783578,-0.552549 1.049272,-1.136712 a 0.23319483,0.23319483 0 0 0 -0.01458,-0.218597 c -0.549319,-0.951447 -1.168225,-1.868394 -1.80708,-2.6669 0.0194,0.02425 0.01007,0.005 -0.02915,-0.04371 a 0.23319483,0.23319483 0 0 0 -0.01458,-0.01458 C 27.072045,26.584541 26.726723,26.302213 26.422325,26.116263 26.117927,25.930314 25.868299,25.8248 25.620798,25.8248 Z m 3.424708,5.406664 c -0.08345,-0.0091 -0.191534,0.03123 -0.233173,0.05829 -0.108494,0.0705 -0.113091,0.13284 -0.131158,0.189452 -0.01807,0.05661 -0.03433,0.108498 -0.04372,0.174879 -0.01879,0.132762 -0.02388,0.303274 -0.02915,0.49549 -0.01054,0.38443 0.0025,0.879845 0.02915,1.369881 0.02666,0.490038 0.06443,0.974208 0.116586,1.35531 0.02607,0.190551 0.0544,0.350942 0.08744,0.480916 0.01652,0.06498 0.03426,0.120583 0.05829,0.174879 0.02403,0.05429 0.0452,0.116275 0.160305,0.174879 0.12436,0.06332 0.186626,0.02988 0.247745,0.01458 0.06112,-0.01531 0.122315,-0.02938 0.189451,-0.05829 0.06957,-0.02997 0.163985,-0.08836 0.247746,-0.13116 0.482681,0.940349 0.917466,1.892055 1.18043,2.739765 0.346722,1.117717 0.491611,2.048695 0.189452,2.696046 a 0.23319483,0.23319483 0 0 0 0.291465,0.320611 c 0.636875,-0.264252 1.218946,-0.679344 1.617628,-1.369883 0.708583,-1.227304 0.351106,-2.446634 -0.02915,-3.672451 -0.222763,-0.718113 -0.546719,-1.462997 -0.90354,-2.215129 0.142905,-0.108051 0.291455,-0.216275 0.393477,-0.306038 0.07011,-0.06169 0.141323,-0.118429 0.189452,-0.174879 0.04813,-0.05645 0.110936,-0.09306 0.102013,-0.262318 -0.0064,-0.121604 -0.0503,-0.161795 -0.08744,-0.204025 -0.03714,-0.04223 -0.08327,-0.07814 -0.13116,-0.116585 -0.09576,-0.07689 -0.216199,-0.15509 -0.364321,-0.247747 -0.296247,-0.185317 -0.69865,-0.40078 -1.107565,-0.612077 -0.408916,-0.211296 -0.832421,-0.425662 -1.195004,-0.582928 -0.362584,-0.157266 -0.623909,-0.26736 -0.845247,-0.291464 z m -12.591264,0.976406 c -0.145944,-0.0072 -0.309475,-6.55e-4 -0.466343,0.01458 a 0.23319483,0.23319483 0 0 0 -0.174877,0.116587 c -0.549914,0.952479 -1.027457,1.934324 -1.39903,2.885497 -0.0089,0.01237 -0.0174,0.0134 -0.02915,0.04371 a 0.23319483,0.23319483 0 0 0 -0.01457,0.02915 c -0.123349,0.482239 -0.180574,0.923677 -0.189452,1.282445 -0.0089,0.358766 0.0214,0.629893 0.145732,0.845246 0.129664,0.224582 0.369406,0.382419 0.699516,0.553782 0.330108,0.171363 0.758443,0.331956 1.253295,0.466343 a 0.23319483,0.23319483 0 0 0 0.291466,-0.204025 c 0.01219,-0.275364 0.05521,-0.700694 0.204025,-1.180431 0.296938,-0.957232 0.843926,-2.169964 1.501042,-3.308121 a 0.23319483,0.23319483 0 0 0 0.01458,-0.204025 c -0.289521,-0.667229 -0.842709,-1.291497 -1.836227,-1.340732 z m -2.637752,5.406665 a 0.23319483,0.23319483 0 0 0 -0.145732,0.204025 c -0.08917,0.680494 -0.03493,1.377851 0.364331,2.069397 0.708928,1.227901 1.939852,1.538062 3.191535,1.821653 0.727445,0.164815 1.546372,0.265542 2.375434,0.335183 0.02234,0.17651 0.04563,0.350537 0.07287,0.480917 0.01858,0.08895 0.03302,0.164933 0.05829,0.233172 0.02528,0.06824 0.03073,0.145206 0.174879,0.218597 0.115009,0.05855 0.175139,0.04162 0.233172,0.02915 0.05804,-0.01248 0.112612,-0.03348 0.174879,-0.05829 0.124532,-0.04965 0.267772,-0.127752 0.437196,-0.218598 0.338848,-0.181691 0.768495,-0.433227 1.180431,-0.699516 0.411935,-0.266288 0.802897,-0.538027 1.107564,-0.77238 0.152334,-0.117175 0.282587,-0.227403 0.378905,-0.32061 0.04816,-0.04661 0.09599,-0.09783 0.131159,-0.145732 0.03517,-0.0479 0.07967,-0.0894 0.07287,-0.218599 -0.0068,-0.128923 -0.06219,-0.159998 -0.102012,-0.204025 -0.03982,-0.04403 -0.07851,-0.08963 -0.131159,-0.131159 -0.105291,-0.08305 -0.244601,-0.175533 -0.40805,-0.276891 -0.326901,-0.202716 -0.758251,-0.432044 -1.195004,-0.655795 -0.436754,-0.223752 -0.883308,-0.436144 -1.238725,-0.582929 -0.177708,-0.07339 -0.322856,-0.138035 -0.451768,-0.174879 -0.06445,-0.01841 -0.130375,-0.02262 -0.189453,-0.02915 -0.05908,-0.0065 -0.124637,-0.0268 -0.233172,0.04371 -0.12078,0.07849 -0.11361,0.143189 -0.131159,0.204026 -0.01754,0.06083 -0.03455,0.130354 -0.04371,0.204024 -0.0094,0.07566 -0.0093,0.183346 -0.01458,0.276891 -1.057018,-0.05169 -2.093626,-0.153836 -2.958363,-0.349756 -1.141277,-0.258578 -2.023496,-0.594096 -2.433728,-1.180432 a 0.23319483,0.23319483 0 0 0 -0.247744,-0.102013 0.23319483,0.23319483 0 0 0 -0.02915,0 z m 16.569751,0.918112 a 0.23319483,0.23319483 0 0 0 -0.05829,0.02915 c -0.241808,0.125683 -0.64486,0.282039 -1.136711,0.393478 -0.977685,0.221511 -2.285468,0.36433 -3.599584,0.36433 a 0.23319483,0.23319483 0 0 0 -0.189453,0.08744 c -0.247639,0.334133 -0.447281,0.728574 -0.480917,1.180431 -0.03363,0.451857 0.108124,0.950081 0.480917,1.471896 a 0.23319483,0.23319483 0 0 0 0.189453,0.102012 c 1.100394,0 2.196925,-0.07943 3.206107,-0.233172 -0.05109,0.0078 -0.0382,0.01273 0.04372,0 a 0.23319483,0.23319483 0 0 0 0.02915,-0.01458 c 0.478743,-0.134138 0.881771,-0.282558 1.195003,-0.451769 0.313232,-0.169212 0.546281,-0.338856 0.670369,-0.553783 0.1291,-0.223606 0.146111,-0.516829 0.131159,-0.888967 -0.01496,-0.372136 -0.08742,-0.81534 -0.218599,-1.31159 a 0.23319483,0.23319483 0 0 0 -0.262327,-0.17488 z"
       style="color:#000000;font-style:normal;font-variant:normal;font-weight:normal;font-stretch:normal;font-size:medium;line-height:normal;font-family:Sans;-inkscape-font-specification:Sans;text-indent:0;text-align:start;text-decoration:none;text-decoration-line:none;letter-spacing:normal;word-spacing:normal;text-transform:none;writing-mode:lr-tb;direction:ltr;baseline-shift:baseline;text-anchor:start;display:inline;overflow:visible;visibility:visible;fill:#7deceb;fill-opacity:1;fill-rule:nonzero;stroke:none;stroke-width:0.46808603;marker:none;enable-background:accumulate" />
    <g
       style="fill:#b4b9cb"
       transform="matrix(0.4680857,0,0,0.4680857,1.0637732,-6.8150448)"
       id="g4890">
      <rect
         style="opacity:0.51131203;fill:#b4b9cb;fill-opacity:1;stroke:none"
         id="rect4878"
         width="96"
         height="2.5"
         x="0"
         y="58.374371" />
      <rect
         y="60.846642"
         x="0"
         height="2.5"
         width="96"
         id="rect4880"
         style="opacity:0.38914005;fill:#b4b9cb;fill-opacity:1;stroke:none" />
    </g>
    <rect
       y="5.6231494"
       x="4.0389948"
       height="10.897461"
       width="38.985783"
       id="rect4920"
       style="fill:#001d2b;fill-opacity:1;stroke:none;stroke-width:0.46808603" />
    <rect
       transform="scale(1,-1)"
       style="opacity:0.73755697;fill:#b4b9cb;fill-opacity:1;stroke:none;stroke-width:0.46808603"
       id="rect4922"
       width="38.985783"
       height="1.2363225"
       x="4.0389948"
       y="-17.756931" />
    <rect
       y="-5.6231494"
       x="4.0389948"
       height="1.2363225"
       width="38.985783"
       id="rect4924"
       style="opacity:0.29411801;fill:#2b1100;fill-opacity:1;stroke:none;stroke-width:0.46808603"
       transform="scale(1,-1)" />
  </g>
  <g
     style="display:none"
     id="layer2">
    <path
       style="opacity:0.9;fill:url(#ButtonShadow);fill-opacity:1;fill-rule:nonzero;stroke:none;filter:url(#filter3174)"
       id="rect3745"
       inkscape:connector-curvature="0"
       d="M 11,7 C 7.676,7 5,9.676 5,13 v 33.6875 c 2.2377507,0.124029 4.660506,0.235683 5.875,0.4375 0.66093,0.10983 -0.08406,0.240848 -1.125,0.34375 C 8.7090622,47.571654 7.3545491,47.665119 6.84375,47.75 6.2216014,47.853382 5.6264179,47.903999 5,48 v 1.0625 c 0.3803657,0.03607 0.7183843,0.03125 0.9375,0.03125 0.80883,10e-7 1.1599727,0.215701 1.3125,0.5625 0.1525272,0.346797 0.09375,0.839723 0.09375,1.40625 0,0.424828 -0.9420178,0.663014 -1.15625,1.375 C 6.110939,52.691968 5.5510552,52.945524 5,53.1875 v 2.21875 c 0.7355867,0.02497 1.4332639,0.05671 1.84375,0.3125 C 7.1254716,55.894306 6.0687957,56.124098 5,56.3125 v 7.5625 c 1.1379643,0.180337 3.3100715,0.925679 3.96875,1.0625 1.090152,0.226446 1.224723,0.33476 0.875,0.4375 -0.3497231,0.102744 -1.173581,0.175172 -2,0.3125 C 6.8656638,65.850029 5.90816,66.141998 5,66.34375 V 86 c 0,3.324 2.676,6 6,6 h 13 c 0.0954,-0.438237 0.150955,-0.931178 0.25,-1.4375 0.140364,-0.717512 0.25498,-1.34159 0.375,-1.59375 0.03001,-0.06304 0.05815,-0.114053 0.09375,-0.125 0.106804,-0.03285 0.238198,0.191956 0.46875,0.78125 0.304338,0.777871 0.540174,1.646782 0.6875,2.375 h 0.75 c 0.276152,-0.493694 0.578538,-1.138496 0.8125,-1.4375 0.09907,-0.126629 0.275237,0.131501 0.53125,0.375 0.256014,0.2435 0.588904,0.486378 0.9375,0.375 0.648614,-0.207227 1.602807,-0.726227 2.03125,-1 0.139883,-0.08938 0.300164,-0.157976 0.40625,-0.1875 0.106087,-0.02952 0.174331,-0.01774 0.25,0 0.151339,0.03548 0.232196,0.144559 0.34375,0.28125 0.223098,0.27338 0.466785,0.656251 1.0625,0.65625 0.478344,0 0.657185,-0.0325 0.78125,0.0625 0.124065,0.095 0.197087,0.314551 0.40625,0.875 h 8.875 c -0.04778,-0.593879 1.040547,-2.151517 1.21875,-3.0625 0.19092,-0.975995 0.214078,-1.242419 0.28125,-1.0625 0.06717,0.179919 0.192504,0.793906 0.46875,1.5 0.110448,0.282298 0.213887,0.358235 0.3125,0.28125 0.09861,-0.07699 0.168895,-0.293948 0.25,-0.5625 0.162213,-0.537107 0.285649,-1.296709 0.34375,-1.59375 0.131129,-0.670335 0.128655,-1.786501 0.125,-2.28125 -9.11e-4,-0.123687 -0.0059,-0.217815 0,-0.25 0.01779,-0.09656 0.08067,0.312079 0.28125,1.59375 0.163819,1.046767 0.54767,2.687946 0.71875,3.5625 0.169798,0.867992 0.298106,1.322124 0.40625,1.875 H 75.6875 c 0.03877,-0.494956 0.03519,-1.098589 0.0625,-1.5 0.02049,-0.301057 0.06649,-0.487005 0.15625,-0.46875 0.02992,0.0061 0.05077,0.03882 0.09375,0.09375 0.233449,0.298339 0.630596,1.164908 0.96875,1.875 H 85 c 3.324,0 6,-2.676 6,-6 v -7.21875 c -0.16942,0.0045 -0.290112,-4e-6 -0.5,0 -1.330307,0 -2.638456,-4e-6 -3.96875,0 -1.226564,0 -2.05394,-9.64e-4 -2.25,-0.0625 -0.19606,-0.06154 0.232972,-0.183183 1.46875,-0.5 C 86.405034,78.050819 89.092469,77.290673 91,76.875 V 38.46875 C 90.34725,38.202412 89.792969,37.980093 89.25,37.5625 89.107486,37.452886 88.801155,37.170028 88.28125,37 87.761349,36.829972 87.007124,36.743855 86,36.9375 c -1.533473,0.294852 -1.685602,0.283469 -1.25,0.15625 0.4356,-0.127221 1.468635,-0.381012 2.25,-0.53125 1.152717,-0.221645 2.722214,-1.204246 4,-1.84375 v -4.5625 c -0.69831,-0.257978 -1.422206,-0.558272 -1.75,-1.0625 -0.209707,-0.322576 -0.321618,-0.513018 -0.3125,-0.625 0.0091,-0.111981 0.13299,-0.149124 0.25,-0.1875 0.117011,-0.03837 0.261032,-0.05449 0.375,-0.15625 0.11397,-0.101759 0.187497,-0.291619 0.1875,-0.59375 0,-0.32292 0.08246,-0.887065 0.0625,-1.40625 -0.01,-0.259593 -0.03562,-0.49724 -0.125,-0.6875 -0.08939,-0.19026 -0.219089,-0.333004 -0.4375,-0.375 -0.574572,-0.110478 -0.848143,-0.233682 -0.90625,-0.34375 -0.05811,-0.110067 0.07208,-0.18937 0.28125,-0.28125 0.418339,-0.18376 1.132532,-0.339398 1.125,-0.34375 -0.668701,-0.385725 -5.247169,-0.921226 -5,-0.96875 0.332574,-0.06395 0.667437,-0.123553 1,-0.1875 1.047644,-0.201439 2.43278,-0.309227 3.75,-0.5625 0.573261,-0.110227 0.911769,-0.250569 1.125,-0.4375 0.213229,-0.18693 0.294201,-0.423258 0.375,-0.625 V 13 C 91,9.676 88.324,7 85,7 H 33.625 C 33.72158,8.3975706 33.82658,9.959362 33.53125,9.1875 33.320827,8.6375466 33.210422,8.0499534 33,7.5 32.946762,7.3608606 32.903941,7.1705291 32.84375,7 H 30.8125 C 30.571803,7.4923127 30.362863,7.9708281 30.03125,8.1875 29.524321,8.5187294 29.245447,8.6821159 29,8.59375 28.754552,8.5053839 28.523162,8.1669814 28.15625,7.6875 27.992502,7.4735174 27.721718,7.2560338 27.40625,7 h -6.8125 L 19.28125,12.5625 17.53125,7 H 17.3125 l -1.75,8.9375 L 14.15625,7 Z" />
  </g>
  <rect
     style="fill:#000000;fill-opacity:0;stroke:none"
     id="rect3881"
     width="22.5"
     height="2.25"
     x="-143.1875"
     y="179.25" />
  <g
     transform="matrix(0.5630413,0,0,0.5630413,-3.4639856,-1.7637378)"
     id="g6150">
    <path
       id="path6146"
       d="m 23.665616,14.28125 c 0.187007,-0.02881 16.72731,8.487299 16.8125,8.65625 0.0451,0.08945 -0.76391,5.207428 -1.5625,10.09375 h -26.03125 c -1.436925,-2.873839 -2.667425,-5.368828 -2.65625,-5.4375 0.03039,-0.186757 13.250494,-13.28369 13.4375,-13.3125 z"
       style="opacity:0.868778;fill:#ffffff;fill-opacity:1;stroke:none"
       inkscape:connector-curvature="0" />
    <path
       style="opacity:0.868778;fill:#ffffff;fill-opacity:1;stroke:none"
       d="m 40.83484,12.9375 c -0.182558,0.04974 -11.83465,14.561006 -11.84375,14.75 -0.0034,0.07154 1.580678,2.539775 3.40625,5.34375 h 25.5625 C 58.249553,27.4763 58.621237,19.75946 58.55359,19.65625 58.449868,19.497999 41.017397,12.88776 40.83484,12.9375 Z"
       id="path6128"
       inkscape:connector-curvature="0" />
    <path
       id="path6148"
       d="m 23.748794,14.45459 c -0.12113,-0.145354 -0.328593,8.008016 -0.35898,8.194773 -0.03039,0.186756 -9.941077,5.584661 -9.77285,5.671273 0.168223,0.08662 9.444361,4.193252 12.67231,4.148412 l -0.736944,-4.758604 9.892523,-4.50627 -6.623467,-2.662558 z"
       inkscape:transform-center-y="-0.44494541"
       inkscape:transform-center-x="-4.8692275"
       style="opacity:0.868778;fill:#ffffff;fill-opacity:1;stroke:none"
       inkscape:connector-curvature="0"
       sodipodi:nodetypes="sscccccs" />
    <path
       style="opacity:0.868778;fill:#ffffff;fill-opacity:1;stroke:none"
       d="M 44.83484,17.09375 C 44.652282,17.14349 29.00019,27.498506 28.99109,27.6875 28.98199,27.876494 41.50166,26.93294 41.67859,27 c 0.09051,0.03431 4.246475,3.065765 8.3125,6.03125 h 4.90625 l -4,-8.09375 7.65625,-5.28125 c 0.155561,-0.107714 -13.536193,-2.61224 -13.71875,-2.5625 z"
       id="path6131"
       inkscape:connector-curvature="0" />
    <path
       style="opacity:0.868778;fill:#ffffff;fill-opacity:1;stroke:none"
       d="m 72.650731,14.28125 c -0.187007,-0.02881 -16.72731,8.487299 -16.8125,8.65625 -0.0451,0.08945 0.76391,5.207428 1.5625,10.09375 h 26.03125 c 1.436925,-2.873839 2.667425,-5.368828 2.65625,-5.4375 -0.03039,-0.186757 -13.250494,-13.28369 -13.4375,-13.3125 z"
       id="path6133"
       inkscape:connector-curvature="0" />
    <path
       sodipodi:nodetypes="sscccccs"
       inkscape:connector-curvature="0"
       style="opacity:0.868778;fill:#ffffff;fill-opacity:1;stroke:none"
       inkscape:transform-center-x="4.8692277"
       inkscape:transform-center-y="-0.44494541"
       d="m 72.567553,14.45459 c 0.12113,-0.145354 0.328593,8.008016 0.35898,8.194773 0.03039,0.186756 9.941077,5.584661 9.77285,5.671273 -0.168223,0.08662 -9.444361,4.193252 -12.67231,4.148412 l 0.736944,-4.758604 -9.892523,-4.50627 6.623467,-2.662558 z"
       id="path6135" />
  </g>
</svg>
