<?xml version="1.0" encoding="UTF-8" standalone="no"?>
<svg
   xmlns:dc="http://purl.org/dc/elements/1.1/"
   xmlns:cc="http://creativecommons.org/ns#"
   xmlns:rdf="http://www.w3.org/1999/02/22-rdf-syntax-ns#"
   xmlns:svg="http://www.w3.org/2000/svg"
   xmlns="http://www.w3.org/2000/svg"
   xmlns:sodipodi="http://sodipodi.sourceforge.net/DTD/sodipodi-0.dtd"
   xmlns:inkscape="http://www.inkscape.org/namespaces/inkscape"
   inkscape:version="1.0beta2 (2b71d25d45, 2019-12-03)"
   sodipodi:docname="folder-backup.svg"
   id="SVGRoot"
   version="1.1"
   viewBox="0 0 64 64"
   height="64px"
   width="64px">
  <sodipodi:namedview
     inkscape:document-rotation="0"
     inkscape:snap-global="false"
     inkscape:snap-to-guides="false"
     inkscape:snap-grids="false"
     inkscape:snap-page="true"
     inkscape:snap-object-midpoints="true"
     inkscape:grid-bbox="true"
     inkscape:lockguides="true"
     inkscape:window-maximized="1"
     inkscape:window-y="21"
     inkscape:window-x="0"
     inkscape:window-height="1027"
     inkscape:window-width="1920"
     units="px"
     inkscape:pagecheckerboard="false"
     inkscape:showpageshadow="false"
     showgrid="false"
     inkscape:current-layer="g852"
     inkscape:document-units="px"
     inkscape:cy="32"
     inkscape:cx="32"
     inkscape:zoom="15.840402"
     inkscape:pageshadow="2"
     inkscape:pageopacity="0.0"
     borderopacity="1.0"
     bordercolor="#666666"
     pagecolor="#E5E5E5"
     id="base" />
  <defs
     id="defs2" />
  <metadata
     id="metadata5">
    <rdf:RDF>
      <cc:Work
         rdf:about="">
        <dc:format>image/svg+xml</dc:format>
        <dc:type
           rdf:resource="http://purl.org/dc/dcmitype/StillImage" />
        <dc:title />
        <cc:license
           rdf:resource="http://creativecommons.org/licenses/by-sa/4.0/" />
        <dc:date>2017</dc:date>
        <dc:creator>
          <cc:Agent>
            <dc:title>Cristian Pozzessere &quot;ilnanny&quot;</dc:title>
          </cc:Agent>
        </dc:creator>
        <dc:subject>
          <rdf:Bag>
            <rdf:li>Global language</rdf:li>
          </rdf:Bag>
        </dc:subject>
        <dc:description>Playing with Inkscape on Gnu/Linux O. S.</dc:description>
        <dc:contributor>
          <cc:Agent>
            <dc:title>In the night, alone like a dog.</dc:title>
          </cc:Agent>
        </dc:contributor>
      </cc:Work>
      <cc:License
         rdf:about="http://creativecommons.org/licenses/by-sa/4.0/">
        <cc:permits
           rdf:resource="http://creativecommons.org/ns#Reproduction" />
        <cc:permits
           rdf:resource="http://creativecommons.org/ns#Distribution" />
        <cc:requires
           rdf:resource="http://creativecommons.org/ns#Notice" />
        <cc:requires
           rdf:resource="http://creativecommons.org/ns#Attribution" />
        <cc:permits
           rdf:resource="http://creativecommons.org/ns#DerivativeWorks" />
        <cc:requires
           rdf:resource="http://creativecommons.org/ns#ShareAlike" />
      </cc:License>
    </rdf:RDF>
  </metadata>
  <g
     inkscape:label="Layer 1"
     inkscape:groupmode="layer"
     id="layer1">
    <g
       transform="matrix(0.984375,0,0,0.96296292,-3.1992191,-18.562364)"
       id="g938">
      <g
         transform="matrix(0.99514741,0,0,1,0.64471561,-1.0384589)"
         id="g1521">
        <g
           id="g852">
          <rect
             style="opacity:1;fill:#3F83BA;fill-opacity:1;fill-rule:nonzero;stroke:#5f5e5c;stroke-width:1.36143422;stroke-linecap:square;stroke-linejoin:bevel;stroke-miterlimit:4;stroke-dasharray:none;stroke-opacity:1;paint-order:markers stroke fill"
             id="rect817"
             width="63.980831"
             height="55.789837"
             x="3.259584"
             y="26.558754" />
          <rect
             y="-67.240417"
             x="43.239227"
             height="1.9279207"
             width="39.113285"
             id="rect1500"
             style="opacity:1;fill:#fefbfb;fill-opacity:0.75478929;fill-rule:nonzero;stroke:none;stroke-width:0.06918984;stroke-linecap:square;stroke-linejoin:bevel;stroke-miterlimit:4;stroke-dasharray:none;stroke-opacity:0.79607843;paint-order:markers stroke fill"
             transform="rotate(90)" />
          <rect
             transform="rotate(90)"
             style="opacity:1;fill:#fefbfb;fill-opacity:0.75478929;fill-rule:nonzero;stroke:none;stroke-width:0.08058518;stroke-linecap:square;stroke-linejoin:bevel;stroke-miterlimit:4;stroke-dasharray:none;stroke-opacity:0.79607843;paint-order:markers stroke fill"
             id="rect1498"
             width="39.113285"
             height="2.6152594"
             x="43.209305"
             y="-5.8748436" />
          <g
             id="g851"
             transform="matrix(0.26717791,0,0,0.37695836,-8.2290657,12.422815)"
             style="opacity:0.69300022">
            <path
               id="rect831"
               d="M 47.995635,54.25 H 277.46902 V 85.090837 H 47.995635 Z"
               style="opacity:1;fill:#f8fafa;fill-opacity:1;fill-rule:nonzero;stroke:none;stroke-width:0.67029333;stroke-linecap:square;stroke-linejoin:bevel;stroke-miterlimit:4;stroke-dasharray:none;stroke-opacity:0.79607843;paint-order:markers stroke fill"
               inkscape:connector-curvature="0" />
            <path
               sodipodi:nodetypes="cccc"
               inkscape:connector-curvature="0"
               id="path1496"
               d="M 277.46902,75.592181 244.49991,54.25 v 21.342181 z"
               style="opacity:1;fill:#93a2a5;fill-opacity:1;fill-rule:nonzero;stroke:none;stroke-width:0.21135312;stroke-linecap:square;stroke-linejoin:bevel;stroke-miterlimit:4;stroke-dasharray:none;stroke-opacity:0.79607843;paint-order:markers stroke fill" />
          </g>
          <g
             transform="matrix(0.92930117,0,0,0.97367239,2.5265655,4.0162188)"
             style="fill:#3F83BA;fill-opacity:1;stroke:#3F83BA;stroke-width:1.16166735;stroke-miterlimit:4;stroke-dasharray:none;stroke-opacity:1"
             id="g1484">
            <path
               inkscape:connector-curvature="0"
               d="m 5.056055,36.025647 h 24.762237 l 3.746032,4.177904 H 5.056055 Z M 3.25,40.203551 h 64 v 40.250917 h -64 z"
               style="opacity:1;fill:#3F83BA;fill-opacity:1;fill-rule:nonzero;stroke:#3F83BA;stroke-width:1.16166735;stroke-linecap:square;stroke-linejoin:bevel;stroke-miterlimit:4;stroke-dasharray:none;stroke-opacity:1;paint-order:markers stroke fill"
               id="rect821"
               sodipodi:nodetypes="cccccccccc" />
          </g>
          <rect
             y="28.096727"
             x="5.7145939"
             height="3.0460732"
             width="5.3264122"
             id="rect825"
             style="opacity:1;fill:#ffcc00;fill-opacity:0.99315072;fill-rule:nonzero;stroke:none;stroke-width:0.47680542;stroke-linecap:square;stroke-linejoin:bevel;stroke-miterlimit:4;stroke-dasharray:none;stroke-opacity:1;paint-order:markers stroke fill" />
          <rect
             style="opacity:1;fill:#ff0084;fill-opacity:0.99315072;fill-rule:nonzero;stroke:none;stroke-width:0.47680542;stroke-linecap:square;stroke-linejoin:bevel;stroke-miterlimit:4;stroke-dasharray:none;stroke-opacity:1;paint-order:markers stroke fill"
             id="rect827"
             width="5.3264122"
             height="3.0460732"
             x="13.652818"
             y="28.096727" />
          <rect
             y="28.096727"
             x="21.59104"
             height="3.0460732"
             width="5.3264122"
             id="rect829"
             style="opacity:1;fill:#aad450;fill-opacity:0.99315072;fill-rule:nonzero;stroke:none;stroke-width:0.47680542;stroke-linecap:square;stroke-linejoin:bevel;stroke-miterlimit:4;stroke-dasharray:none;stroke-opacity:1;paint-order:markers stroke fill" />
          <rect
             y="78.956886"
             x="3.1380224"
             height="1.9870082"
             width="64.143631"
             id="rect855"
             style="opacity:0.704;fill:#E5E5E5;fill-opacity:0.99657533;fill-rule:nonzero;stroke:none;stroke-width:0.0899523;stroke-linecap:square;stroke-linejoin:bevel;stroke-miterlimit:4;stroke-dasharray:none;stroke-opacity:0.79607843;paint-order:markers stroke fill" />
          <rect
             style="opacity:0.597;fill:#E5E5E5;fill-opacity:0.96907217;fill-rule:nonzero;stroke:none;stroke-width:0.09005686;stroke-linecap:square;stroke-linejoin:bevel;stroke-miterlimit:4;stroke-dasharray:none;stroke-opacity:0.79607843;paint-order:markers stroke fill"
             id="rect853"
             width="64.292816"
             height="1.9870082"
             x="3.1380224"
             y="80.455818" />
          <rect
             y="43.691528"
             x="8.0103283"
             height="1.0598483"
             width="54.548206"
             id="rect1504"
             style="opacity:0.704;fill:#fcfdff;fill-opacity:1;fill-rule:nonzero;stroke:none;stroke-width:0.06058259;stroke-linecap:square;stroke-linejoin:bevel;stroke-miterlimit:4;stroke-dasharray:none;stroke-opacity:0.79607843;paint-order:markers stroke fill" />
          <rect
             style="opacity:0.597;fill:#000207;fill-opacity:1;fill-rule:nonzero;stroke:none;stroke-width:0.06058259;stroke-linecap:square;stroke-linejoin:bevel;stroke-miterlimit:4;stroke-dasharray:none;stroke-opacity:0.79607843;paint-order:markers stroke fill"
             id="rect1523"
             width="54.548206"
             height="1.0598483"
             x="8.0103283"
             y="45.030849" />
          <g
             style="fill:none;stroke:#E5E5E5;stroke-width:1.27146;stroke-miterlimit:4;stroke-dasharray:none;stroke-opacity:0.850575"
             id="backup"
             transform="matrix(0.65638612,0,0,0.66772526,-361.86235,-351.40017)">
            <path
               id="path2982"
               d="m 624.66452,625.99527 c 7e-4,-0.004 -7.1e-4,-0.008 7e-4,-0.0112 0.48817,-1.74549 0.75509,-3.5823 0.75509,-5.48162 0,-1.89933 -0.26692,-3.73614 -0.75509,-5.48163 -7e-4,-0.004 7e-4,-0.008 -7e-4,-0.0112 -0.001,-0.006 -0.006,-0.009 -0.007,-0.014 -0.18333,-0.65113 -0.39756,-1.28822 -0.642,-1.91126 v -0.23109 c 0,-0.25357 -0.14119,-0.465 -0.34208,-0.58863 -0.24725,-0.55631 -0.51627,-1.09927 -0.81058,-1.62819 0.12292,0.10466 0.27605,0.1742 0.45024,0.1742 0.38774,0 0.70242,-0.31398 0.70242,-0.70241 v -0.68626 c 0,-0.38843 -0.31468,-0.70241 -0.70242,-0.70241 -0.38773,0 -0.70241,0.31398 -0.70241,0.70241 v 0.68626 c 0,0.0421 0.0169,0.078 0.0239,0.118 -0.0499,-0.085 -0.10185,-0.16787 -0.15312,-0.25216 -0.009,-0.0154 -0.0183,-0.0309 -0.0281,-0.0457 -0.0485,-0.0794 -0.0948,-0.16015 -0.14469,-0.23882 -0.007,-0.0112 -0.019,-0.0169 -0.026,-0.0274 -0.45727,-0.72489 -0.95599,-1.42098 -1.49825,-2.08055 -0.005,-0.007 -0.006,-0.0148 -0.0112,-0.0218 -0.13978,-0.16928 -0.28167,-0.33646 -0.42636,-0.50082 -0.0105,-0.0119 -0.0253,-0.0169 -0.0365,-0.0281 -0.56052,-0.63428 -1.15968,-1.23273 -1.79466,-1.79326 -0.0105,-0.0105 -0.0147,-0.0246 -0.0267,-0.0344 -0.16437,-0.14399 -0.33084,-0.28588 -0.49942,-0.42425 -0.005,-0.004 -0.0112,-0.005 -0.0169,-0.009 -0.66097,-0.54367 -1.35846,-1.04309 -2.08476,-1.50106 -0.0105,-0.008 -0.0162,-0.019 -0.0281,-0.0267 -0.0773,-0.0485 -0.15664,-0.0948 -0.23461,-0.14189 -0.0148,-0.009 -0.0295,-0.0183 -0.0449,-0.0274 -0.0857,-0.052 -0.17139,-0.10536 -0.25779,-0.15594 0.0442,0.008 0.085,0.0253 0.13206,0.0253 h 0.68625 c 0.38773,0 0.70242,-0.31398 0.70242,-0.70241 0,-0.38844 -0.31469,-0.70242 -0.70242,-0.70242 h -0.68625 c -0.38774,0 -0.70242,0.31398 -0.70242,0.70242 0,0.17771 0.0716,0.33505 0.17982,0.45867 -0.53313,-0.29712 -1.08171,-0.56965 -1.64294,-0.81901 -0.12363,-0.20089 -0.33575,-0.34208 -0.58862,-0.34208 h -0.2311 c -0.62374,-0.24514 -1.26153,-0.45937 -1.91337,-0.6427 -0.004,-7.1e-4 -0.007,-0.004 -0.0119,-0.006 -0.003,-7e-4 -0.006,0 -0.009,0 -1.7462,-0.48958 -3.58441,-0.7565 -5.48443,-0.7565 -1.90003,0 -3.73824,0.26692 -5.48444,0.7565 -0.004,7e-4 -0.006,0 -0.009,0 -0.004,7e-4 -0.007,0.004 -0.0119,0.006 -0.65184,0.18333 -1.28963,0.39756 -1.91337,0.6427 h -0.2311 c -0.25357,0 -0.46499,0.14119 -0.58862,0.34208 -0.55631,0.24725 -1.09927,0.51627 -1.62819,0.81058 0.10466,-0.12292 0.1742,-0.27604 0.1742,-0.45024 0,-0.38844 -0.31468,-0.70242 -0.70241,-0.70242 h -0.68626 c -0.38773,0 -0.70241,0.31398 -0.70241,0.70242 0,0.38843 0.31468,0.70241 0.70241,0.70241 h 0.68626 c 0.0421,0 0.0787,-0.0169 0.1187,-0.0239 -0.0829,0.0485 -0.16436,0.0997 -0.24654,0.14891 -0.0197,0.0119 -0.0386,0.0232 -0.0583,0.0351 -0.078,0.0478 -0.15664,0.0934 -0.23391,0.14118 -0.0112,0.007 -0.0168,0.0183 -0.0274,0.026 -0.72489,0.45868 -1.42168,0.95739 -2.08195,1.50036 -0.006,0.004 -0.0126,0.006 -0.0183,0.01 -0.16928,0.13908 -0.33646,0.28096 -0.50082,0.42636 -0.0119,0.0105 -0.0162,0.0239 -0.026,0.0344 -0.63498,0.56123 -1.23484,1.16039 -1.79537,1.79537 -0.0105,0.0112 -0.0246,0.0154 -0.0351,0.0267 -0.1447,0.16436 -0.28658,0.33154 -0.42636,0.50082 -0.005,0.006 -0.006,0.014 -0.0105,0.0204 -0.54226,0.65886 -1.04027,1.35566 -1.49754,2.07984 -0.008,0.0112 -0.0204,0.0176 -0.0274,0.0295 -0.0506,0.0808 -0.0983,0.16296 -0.1475,0.24444 -0.006,0.008 -0.0105,0.0162 -0.0155,0.0246 -0.0541,0.0892 -0.10887,0.17771 -0.16155,0.26762 0.008,-0.0436 0.026,-0.0843 0.026,-0.13135 v -0.68626 c 0,-0.38844 -0.31468,-0.70241 -0.70241,-0.70241 -0.38773,0 -0.70242,0.31397 -0.70242,0.70241 v 0.68626 c 0,0.38843 0.31469,0.70241 0.70242,0.70241 0.17771,0 0.33505,-0.0716 0.45867,-0.17982 -0.29712,0.53313 -0.56965,1.08171 -0.81901,1.64294 -0.20089,0.12363 -0.34208,0.33576 -0.34208,0.58862 v 0.2311 c -0.24443,0.62304 -0.45937,1.26083 -0.642,1.91126 -10e-4,0.006 -0.006,0.009 -0.007,0.014 -7.1e-4,0.004 7e-4,0.008 -7.1e-4,0.0112 -0.48817,1.74619 -0.75509,3.583 -0.75509,5.48233 0,1.89932 0.26692,3.73613 0.75509,5.48162 7.1e-4,0.004 -7e-4,0.008 7.1e-4,0.0112 10e-4,0.006 0.006,0.0112 0.008,0.0176 0.18263,0.64973 0.39687,1.28612 0.6413,1.90845 v 0.2311 c 0,0.25357 0.14119,0.46499 0.34208,0.58862 0.24725,0.55631 0.51627,1.09927 0.81058,1.62819 -0.12292,-0.10466 -0.27675,-0.1742 -0.45024,-0.1742 -0.38773,0 -0.70242,0.31398 -0.70242,0.70242 v 0.68625 c 0,0.38844 0.31469,0.70241 0.70242,0.70241 0.38773,0 0.70241,-0.31397 0.70241,-0.70241 v -0.68625 c 0,-0.0415 -0.0169,-0.0773 -0.0239,-0.11731 0.052,0.0885 0.10606,0.17561 0.15944,0.2627 0.005,0.008 0.01,0.0169 0.0155,0.0253 0.0506,0.0829 0.099,0.16647 0.15031,0.24795 0.0112,0.0183 0.0274,0.0316 0.04,0.0485 0.45376,0.71716 0.94756,1.40693 1.4849,2.06017 0.005,0.007 0.006,0.0148 0.0112,0.0218 0.13978,0.16928 0.28167,0.33645 0.42636,0.50082 0.01,0.0112 0.0239,0.0148 0.0344,0.0253 0.56123,0.63568 1.16109,1.23484 1.79677,1.79606 0.0105,0.0105 0.0148,0.0246 0.0267,0.0344 0.16437,0.144 0.33084,0.28588 0.49942,0.42426 0.006,0.005 0.0133,0.006 0.019,0.0105 0.66027,0.54296 1.35707,1.04167 2.08266,1.49965 0.0105,0.008 0.0161,0.019 0.0281,0.0267 0.0773,0.0485 0.15664,0.0948 0.23461,0.14188 0.0147,0.009 0.0295,0.0183 0.0449,0.0274 0.0857,0.052 0.17069,0.10536 0.25779,0.15593 -0.0443,-0.009 -0.085,-0.0267 -0.13205,-0.0267 h -0.68626 c -0.38773,0 -0.70241,0.31398 -0.70241,0.70241 0,0.38844 0.31468,0.70242 0.70241,0.70242 h 0.68626 c 0.38773,0 0.70241,-0.31398 0.70241,-0.70242 0,-0.177 -0.0717,-0.33505 -0.17982,-0.45867 0.53313,0.29712 1.08171,0.56966 1.64294,0.81901 0.12363,0.20089 0.33576,0.34208 0.58862,0.34208 h 0.2311 c 0.62374,0.24514 1.26153,0.45937 1.91337,0.6427 0.004,7.1e-4 0.007,0.004 0.0119,0.006 0.005,10e-4 0.009,7.1e-4 0.014,10e-4 1.74479,0.48817 3.5809,0.75509 5.47952,0.75509 1.89862,0 3.73472,-0.26692 5.47951,-0.75509 0.005,-7e-4 0.009,-7e-4 0.014,-10e-4 0.004,-7e-4 0.007,-0.004 0.0119,-0.006 0.65184,-0.18333 1.28963,-0.39756 1.91337,-0.6427 h 0.2311 c 0.25357,0 0.46499,-0.14119 0.58862,-0.34208 0.55631,-0.24725 1.09998,-0.51627 1.62819,-0.81058 -0.10466,0.12292 -0.1742,0.27605 -0.1742,0.45024 0,0.38844 0.31468,0.70242 0.70242,0.70242 h 0.68625 c 0.38773,0 0.70241,-0.31398 0.70241,-0.70242 0,-0.38843 -0.31468,-0.70241 -0.70241,-0.70241 h -0.68625 c -0.0422,0 -0.0787,0.0169 -0.11871,0.0239 0.0829,-0.0485 0.16436,-0.0997 0.24654,-0.14891 0.0197,-0.0119 0.0386,-0.0232 0.0583,-0.0351 0.078,-0.0478 0.15664,-0.0934 0.23391,-0.14118 0.0112,-0.007 0.0169,-0.0183 0.0274,-0.026 0.72419,-0.45727 1.42098,-0.95528 2.07984,-1.49754 0.006,-0.005 0.0148,-0.007 0.0211,-0.0119 0.16928,-0.13907 0.33645,-0.28096 0.50082,-0.42636 0.0112,-0.01 0.0154,-0.0239 0.026,-0.0344 0.63568,-0.56193 1.23554,-1.16249 1.79747,-1.79817 0.01,-0.01 0.0232,-0.0133 0.0323,-0.0239 0.1447,-0.16436 0.28658,-0.33153 0.42636,-0.50082 0.005,-0.006 0.006,-0.014 0.0105,-0.0204 0.53735,-0.65324 1.03114,-1.34301 1.4849,-2.06017 0.0126,-0.0169 0.0288,-0.0302 0.04,-0.0485 0.0506,-0.0808 0.0983,-0.16296 0.1475,-0.24444 0.005,-0.008 0.0105,-0.0169 0.0155,-0.0253 0.0541,-0.0892 0.10887,-0.17771 0.16155,-0.26762 -0.008,0.0435 -0.026,0.0836 -0.026,0.13065 v 0.68625 c 0,0.38844 0.31468,0.70242 0.70241,0.70242 0.38774,0 0.70242,-0.31398 0.70242,-0.70242 v -0.68625 c 0,-0.38844 -0.31468,-0.70242 -0.70242,-0.70242 -0.17771,0 -0.33505,0.0716 -0.45867,0.17982 0.29712,-0.53313 0.56966,-1.08171 0.81901,-1.64294 0.20089,-0.12363 0.34208,-0.33575 0.34208,-0.58862 v -0.2311 c 0.24444,-0.62163 0.45797,-1.25802 0.6413,-1.90845 10e-4,-0.006 0.006,-0.0105 0.008,-0.0176 z m -3.40811,4.34863 c -1.57902,2.5905 -3.76071,4.7736 -6.3491,6.35473 -0.0218,0.0133 -0.0443,0.0267 -0.066,0.04 -1.23625,0.74806 -2.56591,1.35706 -3.96512,1.80941 l -1.95902,-7.83611 c 2.91711,-1.10911 5.23437,-3.42637 6.34348,-6.34349 l 7.83611,1.95903 c -0.45516,1.40553 -1.06626,2.74152 -1.81995,3.98338 -0.007,0.0105 -0.0133,0.0218 -0.0204,0.033 z m -26.0033,6.39055 c -0.0176,-0.0105 -0.0351,-0.0211 -0.0527,-0.0316 -2.5898,-1.58043 -4.7736,-3.76493 -6.35332,-6.35542 -0.008,-0.0134 -0.0169,-0.0274 -0.0246,-0.0407 -0.75229,-1.24046 -1.36339,-2.57505 -1.81785,-3.97917 l 7.83611,-1.95903 c 1.10841,2.91712 3.42637,5.23438 6.34349,6.34349 l -1.95903,7.83611 c -1.40201,-0.45376 -2.73379,-1.06345 -3.97214,-1.81363 z m -6.40881,-26.07354 c 1.57902,-2.5905 3.76072,-4.7736 6.3491,-6.35473 0.0218,-0.0133 0.0443,-0.0267 0.066,-0.04 1.23625,-0.74807 2.56591,-1.35706 3.96512,-1.80942 l 1.95903,7.83611 c -2.91712,1.10911 -5.23438,3.42637 -6.34349,6.34349 l -7.83611,-1.95903 c 0.45516,-1.40553 1.06626,-2.74151 1.81995,-3.98338 0.007,-0.0105 0.0133,-0.0218 0.0204,-0.033 z m 5.58207,7.31913 c -0.19246,0.81129 -0.30555,1.65278 -0.30555,2.52237 0,0.86958 0.11309,1.71107 0.30555,2.52236 l -7.8031,1.9506 c -0.3491,-1.43503 -0.53805,-2.93187 -0.53805,-4.47296 0,-1.5411 0.18895,-3.03794 0.53805,-4.47297 z m 1.09928,2.52237 c 0,-5.25194 4.27277,-9.52471 9.52471,-9.52471 5.25193,0 9.52471,4.27277 9.52471,9.52471 0,5.25193 -4.27278,9.52471 -9.52471,9.52471 -5.25194,0 -9.52471,-4.27278 -9.52471,-9.52471 z m 19.32195,-16.23205 c 0.0176,0.0105 0.0351,0.0211 0.0527,0.0316 2.58699,1.57902 4.76798,3.75931 6.347,6.34559 0.0126,0.0211 0.0253,0.0414 0.0372,0.0618 0.74877,1.23695 1.35776,2.56732 1.81082,3.96723 l -7.83611,1.95903 c -1.10841,-2.91712 -3.42637,-5.23438 -6.34349,-6.34349 l 1.95903,-7.83611 c 1.40272,0.45446 2.73449,1.06415 3.97284,1.81433 z m 9.16789,16.23205 c 0,1.54109 -0.18895,3.03793 -0.53805,4.47296 l -7.8031,-1.9506 c 0.19246,-0.81129 0.30555,-1.65278 0.30555,-2.52236 0,-0.86959 -0.11309,-1.71108 -0.30555,-2.52237 l 7.8031,-1.9506 c 0.3491,1.43503 0.53805,2.93187 0.53805,4.47297 z m -14.49217,-18.42709 -1.9506,7.8038 c -0.81129,-0.19316 -1.65278,-0.30625 -2.52236,-0.30625 -0.86959,0 -1.71108,0.11309 -2.52237,0.30555 l -1.9506,-7.8038 c 1.43503,-0.34769 2.93187,-0.53735 4.47297,-0.53735 1.54109,0 3.03793,0.18966 4.47296,0.53805 z m -8.94593,36.85417 1.9506,-7.8038 c 0.81129,0.19246 1.65278,0.30555 2.52237,0.30555 0.86958,0 1.71107,-0.11309 2.52236,-0.30555 l 1.9506,7.8038 c -1.43503,0.3484 -2.93187,0.53805 -4.47296,0.53805 -1.5411,0 -3.03794,-0.18965 -4.47297,-0.53805 z"
               inkscape:connector-curvature="0"
               style="fill:none;fill-opacity:1;stroke:#E5E5E5;stroke-width:1.27146;stroke-miterlimit:4;stroke-dasharray:none;stroke-opacity:0.850575" />
            <path
               id="path2984"
               d="m 587.46055,604.09335 c 0.2051,0 0.4095,-0.0899 0.54788,-0.262 0.11168,-0.13907 0.23812,-0.26551 0.37509,-0.37438 0.30344,-0.24233 0.35331,-0.68415 0.11168,-0.98689 -0.24233,-0.30415 -0.68415,-0.35402 -0.98759,-0.11239 -0.21775,0.1742 -0.41794,0.37298 -0.59424,0.59284 -0.24304,0.30204 -0.19527,0.74456 0.10747,0.98759 0.12924,0.10396 0.28447,0.15523 0.43971,0.15523 z"
               inkscape:connector-curvature="0"
               style="fill:none;fill-opacity:1;stroke:#E5E5E5;stroke-width:1.27146;stroke-miterlimit:4;stroke-dasharray:none;stroke-opacity:0.850575" />
            <path
               id="path2986"
               d="m 586.78764,607.37011 c 0.38773,0 0.70241,-0.31398 0.70241,-0.70242 v -0.68696 c 0,-0.38843 -0.31468,-0.70241 -0.70241,-0.70241 -0.38773,0 -0.70242,0.31398 -0.70242,0.70241 v 0.68696 c 0,0.38774 0.31469,0.70242 0.70242,0.70242 z"
               inkscape:connector-curvature="0"
               style="fill:none;fill-opacity:1;stroke:#E5E5E5;stroke-width:1.27146;stroke-miterlimit:4;stroke-dasharray:none;stroke-opacity:0.850575" />
            <path
               id="path2988"
               d="m 590.53782,602.9421 h 0.68625 c 0.38773,0 0.70241,-0.31398 0.70241,-0.70241 0,-0.38844 -0.31468,-0.70242 -0.70241,-0.70242 h -0.68625 c -0.38774,0 -0.70242,0.31398 -0.70242,0.70242 0,0.38843 0.31468,0.70241 0.70242,0.70241 z"
               inkscape:connector-curvature="0"
               style="fill:none;fill-opacity:1;stroke:#E5E5E5;stroke-width:1.27146;stroke-miterlimit:4;stroke-dasharray:none;stroke-opacity:0.850575" />
            <path
               id="path2990"
               d="m 622.61066,605.98987 v 0.68696 c 0,0.38843 0.31468,0.70241 0.70241,0.70241 0.38774,0 0.70242,-0.31398 0.70242,-0.70241 v -0.68696 c 0,-0.38844 -0.31468,-0.70242 -0.70242,-0.70242 -0.38773,0 -0.70241,0.31398 -0.70241,0.70242 z"
               inkscape:connector-curvature="0"
               style="fill:none;fill-opacity:1;stroke:#E5E5E5;stroke-width:1.27146;stroke-miterlimit:4;stroke-dasharray:none;stroke-opacity:0.850575" />
            <path
               id="path2992"
               d="m 622.0965,603.83487 c 0.13907,0.17419 0.34348,0.2648 0.54999,0.2648 0.15382,0 0.30765,-0.0499 0.4376,-0.15312 0.30344,-0.24233 0.35331,-0.68415 0.11168,-0.98689 -0.1749,-0.21915 -0.37438,-0.41934 -0.59354,-0.59565 -0.30203,-0.24163 -0.74455,-0.19386 -0.98759,0.10818 -0.24303,0.30273 -0.19457,0.74525 0.10817,0.98759 0.13768,0.11168 0.26341,0.23741 0.37369,0.37509 z"
               inkscape:connector-curvature="0"
               style="fill:none;fill-opacity:1;stroke:#E5E5E5;stroke-width:1.27146;stroke-miterlimit:4;stroke-dasharray:none;stroke-opacity:0.850575" />
            <path
               id="path2994"
               d="m 618.88507,602.9421 h 0.68625 c 0.38774,0 0.70242,-0.31398 0.70242,-0.70241 0,-0.38844 -0.31468,-0.70242 -0.70242,-0.70242 h -0.68625 c -0.38773,0 -0.70241,0.31398 -0.70241,0.70242 0,0.38843 0.31468,0.70241 0.70241,0.70241 z"
               inkscape:connector-curvature="0"
               style="fill:none;fill-opacity:1;stroke:#E5E5E5;stroke-width:1.27146;stroke-miterlimit:4;stroke-dasharray:none;stroke-opacity:0.850575" />
            <path
               id="path2996"
               d="m 622.09298,637.17346 c -0.11168,0.13908 -0.23811,0.26551 -0.37508,0.37438 -0.30345,0.24234 -0.35332,0.68415 -0.11169,0.98689 0.13908,0.1742 0.34348,0.26481 0.54999,0.26481 0.15383,0 0.30766,-0.0499 0.4376,-0.15312 0.21845,-0.1742 0.41864,-0.37298 0.59495,-0.59284 0.24303,-0.30274 0.19527,-0.74526 -0.10747,-0.98759 -0.30274,-0.24163 -0.74526,-0.19316 -0.9883,0.10747 z"
               inkscape:connector-curvature="0"
               style="fill:none;fill-opacity:1;stroke:#E5E5E5;stroke-width:1.27146;stroke-miterlimit:4;stroke-dasharray:none;stroke-opacity:0.850575" />
            <path
               id="path2998"
               d="m 619.5629,638.06271 h -0.68626 c -0.38773,0 -0.70241,0.31398 -0.70241,0.70241 0,0.38844 0.31468,0.70242 0.70241,0.70242 h 0.68626 c 0.38773,0 0.70241,-0.31398 0.70241,-0.70242 0,-0.38843 -0.31468,-0.70241 -0.70241,-0.70241 z"
               inkscape:connector-curvature="0"
               style="fill:none;fill-opacity:1;stroke:#E5E5E5;stroke-width:1.27146;stroke-miterlimit:4;stroke-dasharray:none;stroke-opacity:0.850575" />
            <path
               id="path3000"
               d="m 623.31307,633.63471 c -0.38773,0 -0.70241,0.31397 -0.70241,0.70241 v 0.68696 c 0,0.38843 0.31468,0.70241 0.70241,0.70241 0.38774,0 0.70242,-0.31398 0.70242,-0.70241 v -0.68696 c 0,-0.38773 -0.31468,-0.70241 -0.70242,-0.70241 z"
               inkscape:connector-curvature="0"
               style="fill:none;fill-opacity:1;stroke:#E5E5E5;stroke-width:1.27146;stroke-miterlimit:4;stroke-dasharray:none;stroke-opacity:0.850575" />
            <path
               id="path3002"
               d="m 591.21564,638.06271 h -0.68625 c -0.38773,0 -0.70242,0.31398 -0.70242,0.70241 0,0.38844 0.31469,0.70242 0.70242,0.70242 h 0.68625 c 0.38774,0 0.70242,-0.31398 0.70242,-0.70242 0,-0.38843 -0.31468,-0.70241 -0.70242,-0.70241 z"
               inkscape:connector-curvature="0"
               style="fill:none;fill-opacity:1;stroke:#E5E5E5;stroke-width:1.27146;stroke-miterlimit:4;stroke-dasharray:none;stroke-opacity:0.850575" />
            <path
               id="path3004"
               d="m 587.49005,635.01495 v -0.68696 c 0,-0.38844 -0.31468,-0.70242 -0.70241,-0.70242 -0.38773,0 -0.70242,0.31398 -0.70242,0.70242 v 0.68696 c 0,0.38843 0.31469,0.70241 0.70242,0.70241 0.38773,0 0.70241,-0.31398 0.70241,-0.70241 z"
               inkscape:connector-curvature="0"
               style="fill:none;fill-opacity:1;stroke:#E5E5E5;stroke-width:1.27146;stroke-miterlimit:4;stroke-dasharray:none;stroke-opacity:0.850575" />
            <path
               id="path3006"
               d="m 588.00421,637.16995 c -0.24233,-0.30415 -0.68414,-0.35261 -0.98688,-0.11169 -0.30345,0.24234 -0.35332,0.68415 -0.11169,0.98689 0.1749,0.21915 0.37439,0.41934 0.59354,0.59565 0.12995,0.10325 0.28518,0.15453 0.43901,0.15453 0.2051,0 0.4095,-0.0899 0.54788,-0.2627 0.24303,-0.30274 0.19457,-0.74526 -0.10817,-0.9876 -0.13767,-0.11168 -0.26341,-0.23741 -0.37369,-0.37508 z"
               inkscape:connector-curvature="0"
               style="fill:none;fill-opacity:1;stroke:#E5E5E5;stroke-width:1.27146;stroke-miterlimit:4;stroke-dasharray:none;stroke-opacity:0.850575" />
          </g>
        </g>
      </g>
    </g>
  </g>
</svg>
