<?xml version="1.0" encoding="UTF-8" standalone="no"?>
<svg
   xmlns:dc="http://purl.org/dc/elements/1.1/"
   xmlns:cc="http://creativecommons.org/ns#"
   xmlns:rdf="http://www.w3.org/1999/02/22-rdf-syntax-ns#"
   xmlns:svg="http://www.w3.org/2000/svg"
   xmlns="http://www.w3.org/2000/svg"
   xmlns:xlink="http://www.w3.org/1999/xlink"
   xmlns:sodipodi="http://sodipodi.sourceforge.net/DTD/sodipodi-0.dtd"
   xmlns:inkscape="http://www.inkscape.org/namespaces/inkscape"
   inkscape:version="1.0beta2 (2b71d25d45, 2019-12-03)"
   sodipodi:docname="folder-unlocked.svg"
   width="64"
   version="1.1"
   height="64"
   id="svg2">
  <sodipodi:namedview
     inkscape:document-rotation="0"
     inkscape:current-layer="lock1"
     inkscape:window-maximized="1"
     inkscape:window-y="21"
     inkscape:window-x="0"
     inkscape:cy="35.909641"
     inkscape:cx="32"
     inkscape:zoom="27.040124"
     showgrid="false"
     id="namedview18"
     inkscape:window-height="1027"
     inkscape:window-width="1920"
     inkscape:pageshadow="2"
     inkscape:pageopacity="0"
     guidetolerance="10"
     gridtolerance="10"
     objecttolerance="10"
     borderopacity="1"
     bordercolor="#666666"
     pagecolor="#E5E5E5" />
  <defs
     id="defs5455">
    <linearGradient
       id="linearGradient4178"
       xlink:href="#linearGradient4172-5"
       y1="541.79797"
       y2="499.78421"
       gradientUnits="userSpaceOnUse"
       x2="0"
       gradientTransform="matrix(1 0 0 0.99967455 0 0.17645)" />
    <linearGradient
       id="linearGradient4172-5">
      <stop
         style="stop-color:#3daee9"
         id="stop4174-6" />
      <stop
         offset="1"
         style="stop-color:#6cc1ef"
         id="stop4176-6" />
    </linearGradient>
    <linearGradient
       id="linearGradient4314-5">
      <stop
         style="stop-color:#ff4b00;stop-opacity:1"
         offset="0"
         id="stop4316-5" />
      <stop
         style="stop-color:#ff5500;stop-opacity:1"
         offset="1"
         id="stop4318-8" />
    </linearGradient>
  </defs>
  <metadata
     id="metadata5458">
    <rdf:RDF>
      <cc:Work
         rdf:about="">
        <dc:format>image/svg+xml</dc:format>
        <dc:type
           rdf:resource="http://purl.org/dc/dcmitype/StillImage" />
        <dc:title />
      </cc:Work>
    </rdf:RDF>
  </metadata>
  <g
     transform="translate(0.03373997,-0.87450597)"
     id="layer1-3"
     inkscape:label="Layer 1">
    <g
       id="g938"
       transform="matrix(0.984375,0,0,0.96296292,-3.1992191,-18.562364)">
      <g
         id="g1521"
         transform="matrix(0.99514741,0,0,1,0.64471561,-1.0384589)">
        <g
           id="g852">
          <rect
             y="26.558754"
             x="3.259584"
             height="55.789837"
             width="63.980831"
             id="rect817"
             style="opacity:1;fill:#3F83BA;fill-opacity:1;fill-rule:nonzero;stroke:#5f5e5c;stroke-width:1.36143422;stroke-linecap:square;stroke-linejoin:bevel;stroke-miterlimit:4;stroke-dasharray:none;stroke-opacity:1;paint-order:markers stroke fill" />
          <rect
             transform="rotate(90)"
             style="opacity:1;fill:#fefbfb;fill-opacity:0.75478929;fill-rule:nonzero;stroke:none;stroke-width:0.06918984;stroke-linecap:square;stroke-linejoin:bevel;stroke-miterlimit:4;stroke-dasharray:none;stroke-opacity:0.79607843;paint-order:markers stroke fill"
             id="rect1500"
             width="39.113285"
             height="1.9279207"
             x="43.239227"
             y="-67.240417" />
          <rect
             y="-5.8748436"
             x="43.209305"
             height="2.6152594"
             width="39.113285"
             id="rect1498"
             style="opacity:1;fill:#fefbfb;fill-opacity:0.75478929;fill-rule:nonzero;stroke:none;stroke-width:0.08058518;stroke-linecap:square;stroke-linejoin:bevel;stroke-miterlimit:4;stroke-dasharray:none;stroke-opacity:0.79607843;paint-order:markers stroke fill"
             transform="rotate(90)" />
          <g
             style="opacity:0.69300022"
             transform="matrix(0.26717791,0,0,0.37695836,-8.2290657,12.422815)"
             id="g851">
            <path
               inkscape:connector-curvature="0"
               style="opacity:1;fill:#f8fafa;fill-opacity:1;fill-rule:nonzero;stroke:none;stroke-width:0.67029333;stroke-linecap:square;stroke-linejoin:bevel;stroke-miterlimit:4;stroke-dasharray:none;stroke-opacity:0.79607843;paint-order:markers stroke fill"
               d="M 47.995635,54.25 H 277.46902 V 85.090837 H 47.995635 Z"
               id="rect831" />
            <path
               style="opacity:1;fill:#93a2a5;fill-opacity:1;fill-rule:nonzero;stroke:none;stroke-width:0.21135312;stroke-linecap:square;stroke-linejoin:bevel;stroke-miterlimit:4;stroke-dasharray:none;stroke-opacity:0.79607843;paint-order:markers stroke fill"
               d="M 277.46902,75.592181 244.49991,54.25 v 21.342181 z"
               id="path1496"
               inkscape:connector-curvature="0"
               sodipodi:nodetypes="cccc" />
          </g>
          <g
             id="g1484"
             style="fill:#3F83BA;fill-opacity:1;stroke:#3F83BA;stroke-width:1.16166735;stroke-miterlimit:4;stroke-dasharray:none;stroke-opacity:1"
             transform="matrix(0.92930117,0,0,0.97367239,2.5265655,4.0162188)">
            <path
               sodipodi:nodetypes="cccccccccc"
               id="rect821"
               style="opacity:1;fill:#3F83BA;fill-opacity:1;fill-rule:nonzero;stroke:#3F83BA;stroke-width:1.16166735;stroke-linecap:square;stroke-linejoin:bevel;stroke-miterlimit:4;stroke-dasharray:none;stroke-opacity:1;paint-order:markers stroke fill"
               d="m 5.056055,36.025647 h 24.762237 l 3.746032,4.177904 H 5.056055 Z M 3.25,40.203551 h 64 v 40.250917 h -64 z"
               inkscape:connector-curvature="0" />
          </g>
          <rect
             style="opacity:1;fill:#ffcc00;fill-opacity:0.99315072;fill-rule:nonzero;stroke:none;stroke-width:0.47680542;stroke-linecap:square;stroke-linejoin:bevel;stroke-miterlimit:4;stroke-dasharray:none;stroke-opacity:1;paint-order:markers stroke fill"
             id="rect825"
             width="5.3264122"
             height="3.0460732"
             x="5.7145939"
             y="28.096727" />
          <rect
             y="28.096727"
             x="13.652818"
             height="3.0460732"
             width="5.3264122"
             id="rect827"
             style="opacity:1;fill:#ff0084;fill-opacity:0.99315072;fill-rule:nonzero;stroke:none;stroke-width:0.47680542;stroke-linecap:square;stroke-linejoin:bevel;stroke-miterlimit:4;stroke-dasharray:none;stroke-opacity:1;paint-order:markers stroke fill" />
          <rect
             style="opacity:1;fill:#aad450;fill-opacity:0.99315072;fill-rule:nonzero;stroke:none;stroke-width:0.47680542;stroke-linecap:square;stroke-linejoin:bevel;stroke-miterlimit:4;stroke-dasharray:none;stroke-opacity:1;paint-order:markers stroke fill"
             id="rect829"
             width="5.3264122"
             height="3.0460732"
             x="21.59104"
             y="28.096727" />
          <rect
             style="opacity:0.70400002;fill:#E5E5E5;fill-opacity:0.99657533;fill-rule:nonzero;stroke:none;stroke-width:0.0899523;stroke-linecap:square;stroke-linejoin:bevel;stroke-miterlimit:4;stroke-dasharray:none;stroke-opacity:0.79607843;paint-order:markers stroke fill"
             id="rect855"
             width="64.143631"
             height="1.9870082"
             x="3.1380224"
             y="78.956886" />
          <rect
             y="80.455818"
             x="3.1380224"
             height="1.9870082"
             width="64.292816"
             id="rect853"
             style="opacity:0.597;fill:#E5E5E5;fill-opacity:0.96907217;fill-rule:nonzero;stroke:none;stroke-width:0.09005686;stroke-linecap:square;stroke-linejoin:bevel;stroke-miterlimit:4;stroke-dasharray:none;stroke-opacity:0.79607843;paint-order:markers stroke fill" />
          <rect
             style="opacity:0.70400002;fill:#fcfdff;fill-opacity:1;fill-rule:nonzero;stroke:none;stroke-width:0.06058259;stroke-linecap:square;stroke-linejoin:bevel;stroke-miterlimit:4;stroke-dasharray:none;stroke-opacity:0.79607843;paint-order:markers stroke fill"
             id="rect1504"
             width="54.548206"
             height="1.0598483"
             x="8.0103283"
             y="43.691528" />
          <rect
             y="45.030849"
             x="8.0103283"
             height="1.0598483"
             width="54.548206"
             id="rect1523"
             style="opacity:0.597;fill:#000207;fill-opacity:1;fill-rule:nonzero;stroke:none;stroke-width:0.06058259;stroke-linecap:square;stroke-linejoin:bevel;stroke-miterlimit:4;stroke-dasharray:none;stroke-opacity:0.79607843;paint-order:markers stroke fill" />
          <g
             id="g5783"
             transform="matrix(0,1.0172751,-0.98301823,0,96.597017,25.588055)" />
          <g
             style="fill:none;stroke:#fcfcfc;stroke-width:1.13752329;stroke-miterlimit:4;stroke-dasharray:none;stroke-opacity:1"
             id="g6129"
             transform="matrix(0.74395428,0,0,0.75680619,-32.535055,-533.79023)" />
          <g
             transform="matrix(0.75329447,0,0,0.76630772,-471.29761,-498.86909)"
             id="lock1"
             style="opacity:0.94800002;fill:none;stroke:#fbfbfb;stroke-width:1.13561535;stroke-miterlimit:4;stroke-dasharray:none;stroke-opacity:1">
            <path
               style="color:#E5E5E5;font-style:normal;font-variant:normal;font-weight:normal;font-stretch:normal;font-size:medium;line-height:normal;font-family:sans-serif;font-variant-ligatures:normal;font-variant-position:normal;font-variant-caps:normal;font-variant-numeric:normal;font-variant-alternates:normal;font-variant-east-asian:normal;font-feature-settings:normal;font-variation-settings:normal;text-indent:0;text-align:start;text-decoration:none;text-decoration-line:none;text-decoration-style:solid;text-decoration-color:#E5E5E5;letter-spacing:normal;word-spacing:normal;text-transform:none;writing-mode:lr-tb;direction:ltr;text-orientation:mixed;dominant-baseline:auto;baseline-shift:baseline;text-anchor:start;white-space:normal;shape-padding:0;shape-margin:0;inline-size:0;clip-rule:nonzero;display:inline;overflow:visible;visibility:visible;opacity:1;isolation:auto;mix-blend-mode:normal;color-interpolation:sRGB;color-interpolation-filters:linearRGB;solid-color:#E5E5E5;solid-opacity:1;vector-effect:none;fill:#E5E5E5;fill-opacity:0.98888934;fill-rule:nonzero;stroke:none;stroke-width:0.929826;stroke-linecap:butt;stroke-linejoin:miter;stroke-miterlimit:4;stroke-dasharray:none;stroke-dashoffset:0;stroke-opacity:1;color-rendering:auto;image-rendering:auto;shape-rendering:auto;text-rendering:auto;enable-background:accumulate;stop-color:#E5E5E5;stop-opacity:1"
               d="m 669.57245,715.66805 c -3.53271,0.21976 -6.61368,1.98114 -7.63984,4.7997 l -0.22356,0.61416 h 2.26421 l 0.1244,-0.27168 c 0.82026,-1.79203 2.95923,-3.12845 5.50337,-3.12845 2.20694,0 4.05133,0.57197 5.32015,1.45554 1.2688,0.8836 1.95996,2.05212 1.95996,3.33591 v 7.16205 h -12.22374 -1.21026 -5.91016 v 11.40235 8.12079 h 27.53703 v -8.12079 -11.40235 h -6.04295 v -7.16205 c 0,-1.93263 -1.1653,-3.71504 -2.90802,-4.96598 -1.74273,-1.25095 -4.08267,-1.99272 -6.55059,-1.8392 z m 0.0589,0.91878 c 2.23812,-0.13922 4.37643,0.54279 5.93705,1.66302 1.56062,1.12023 2.52308,2.6559 2.52308,4.22338 v 8.08248 h 6.04296 v 10.48192 7.20035 h -25.65776 v -7.20035 -10.48192 h 4.97052 1.21027 13.16337 v -8.08248 c 0,-1.61281 -0.8933,-3.06884 -2.35498,-4.08672 -1.46165,-1.01789 -3.49338,-1.62514 -5.86477,-1.62514 -2.74681,0 -5.09787,1.385 -6.17575,3.40013 h -0.23868 c 1.0871,-2.01738 3.50111,-3.39155 6.44469,-3.57467 z m -10.88572,14.14176 v 0.45939 10.30904 h 25.12152 v -10.76843 h -5.30668 -15.11327 z m 0.93965,0.91877 h 3.76192 15.11327 4.36705 v 2.10265 c -0.19636,-0.17578 -0.45971,-0.28613 -0.73961,-0.28651 h -0.002 c -0.5688,7.4e-4 -1.07393,0.43768 -1.07243,1.00934 8.9e-4,0.57019 0.50513,1.0053 1.07243,1.00604 h 0.002 c 0.27993,-3.6e-4 0.54322,-0.11066 0.73961,-0.28649 v 1.84249 c -0.19639,-0.17586 -0.45968,-0.28614 -0.73961,-0.28651 -0.0146,-2.8e-4 -0.0291,-2.8e-4 -0.0437,0 -0.006,9e-5 -0.01,-1.5e-4 -0.0151,0 l 0.0151,0.92043 -0.0319,-0.92043 c -0.53947,0.0357 -0.99923,0.46263 -0.99847,1.00604 v 0.002 c 9.1e-4,0.57017 0.50513,1.00364 1.07243,1.0044 h 0.002 c 0.27992,-3.8e-4 0.54322,-0.10903 0.73961,-0.28487 v 2.101 H 659.6853 v -2.101 c 0.1964,0.17584 0.45803,0.28449 0.73795,0.28487 h 0.002 c 0.56731,-7.6e-4 1.07152,-0.43425 1.07243,-1.0044 v -0.002 c -9e-4,-0.57018 -0.50512,-1.00529 -1.07243,-1.00604 -0.0196,-3.8e-4 -0.0392,-6.2e-4 -0.0589,0 h -0.008 -0.008 c -0.25552,0.0168 -0.48469,0.13313 -0.66397,0.29637 v -1.85235 c 0.19639,0.17582 0.45801,0.28613 0.73791,0.28649 h 0.002 c 0.56729,-7.4e-4 1.0715,-0.43587 1.07242,-1.00604 0.002,-0.57166 -0.50365,-1.0086 -1.07242,-1.00934 h -0.002 c -0.27985,3.8e-4 -0.54156,0.11075 -0.73791,0.28651 z m 2.55165,0.17454 c -0.56879,7.5e-4 -1.07391,0.43932 -1.07244,1.01098 0.002,0.56936 0.50566,1.00364 1.07244,1.0044 0.56824,8.7e-4 1.07392,-0.43356 1.07581,-1.0044 v -0.002 c 4.9e-4,-0.57232 -0.50609,-1.01054 -1.07581,-1.00935 z m 3.63081,0 c -0.56972,-8.9e-4 -1.07797,0.43703 -1.07749,1.00932 v 0.002 c 0.002,0.57085 0.50925,1.00562 1.07749,1.00439 0.56677,-7.4e-4 1.07055,-0.43502 1.07242,-1.00439 v -0.002 c 5.1e-4,-0.57084 -0.50419,-1.00857 -1.07242,-1.00932 z m 3.62577,0 c -0.5697,-8.9e-4 -1.07629,0.43703 -1.07579,1.00932 v 0.002 c 0.002,0.57084 0.50755,1.0056 1.07579,1.00439 0.56677,-7.4e-4 1.07055,-0.43501 1.07244,-1.00439 v -0.002 c 4.9e-4,-0.57084 -0.50422,-1.00857 -1.07244,-1.00932 z m 3.62411,0 c -0.56757,0.002 -1.07296,0.43905 -1.07245,1.00932 v 0.002 c 0.002,0.56937 0.50734,1.00365 1.07412,1.00439 0.56756,3.5e-4 1.07393,-0.43409 1.07579,-1.00439 v -0.002 c 5e-4,-0.57175 -0.50675,-1.00968 -1.07579,-1.00932 h -0.002 z m -10.87902,0.92041 c 0.0997,-2.1e-4 0.13456,0.0541 0.13448,0.0872 -5e-5,0.0331 -0.0352,0.0874 -0.13448,0.0872 -0.0991,-1.2e-4 -0.13443,-0.0544 -0.13447,-0.0872 -9e-5,-0.0331 0.0351,-0.0871 0.13447,-0.0872 z m 3.62747,0 c 0.0994,1.4e-4 0.13455,0.0542 0.13447,0.0872 -5e-5,0.0329 -0.0354,0.0871 -0.13447,0.0872 -0.0994,2.2e-4 -0.1361,-0.0542 -0.13616,-0.0872 -9e-5,-0.0332 0.0364,-0.0874 0.13616,-0.0872 z m 3.62576,0 c 0.0994,1.4e-4 0.13457,0.0542 0.13449,0.0872 -8e-5,0.0329 -0.0355,0.0871 -0.13449,0.0872 -0.0994,2.2e-4 -0.13441,-0.0542 -0.13446,-0.0872 -1.1e-4,-0.0332 0.0348,-0.0874 0.13446,-0.0872 z m 3.62746,0 h 0.002 c 0.0997,-2.1e-4 0.13458,0.0541 0.13449,0.0872 -5e-5,0.0331 -0.0351,0.0874 -0.13449,0.0872 h -0.002 c -0.0991,-1.2e-4 -0.13444,-0.0544 -0.13448,-0.0872 -9e-5,-0.0331 0.0351,-0.0871 0.13448,-0.0872 z m -9.06865,0.72119 c -0.56877,7.4e-4 -1.07389,0.4377 -1.07243,1.00934 9.2e-4,0.57018 0.50513,1.0053 1.07243,1.00604 0.5688,8.9e-4 1.0749,-0.43439 1.07582,-1.00604 0.002,-0.57311 -0.50556,-1.01052 -1.07582,-1.00934 z m 3.62915,0 c -0.57026,-8.9e-4 -1.07727,0.43621 -1.0758,1.00934 9.1e-4,0.57165 0.50701,1.00722 1.0758,1.00604 0.56732,-7.4e-4 1.07152,-0.43586 1.07242,-1.00604 0.002,-0.57165 -0.50364,-1.0086 -1.07242,-1.00934 z m 3.62577,0 c -0.56879,7.4e-4 -1.07391,0.43769 -1.07244,1.00934 9e-4,0.57018 0.50512,1.0053 1.07244,1.00604 h 0.002 c 0.5673,-7.4e-4 1.07153,-0.43585 1.07243,-1.00604 0.002,-0.57166 -0.50366,-1.0086 -1.07243,-1.00934 z m 3.62577,0 c -0.56879,7.4e-4 -1.07391,0.43769 -1.07242,1.00934 8.9e-4,0.57018 0.50511,1.0053 1.07242,1.00604 0.5688,8.9e-4 1.07655,-0.43439 1.07747,-1.00604 0.002,-0.57313 -0.50723,-1.01052 -1.07747,-1.00934 z m -14.50812,0.92043 h 0.002 c 0.0974,8.8e-4 0.13287,0.0545 0.13278,0.0872 -5e-5,0.0327 -0.0358,0.0862 -0.13278,0.0872 -0.0991,-1.3e-4 -0.13445,-0.0543 -0.13449,-0.0872 -9e-5,-0.0327 0.0354,-0.0862 0.13279,-0.0872 z m 3.62912,0 c 0.0997,-2.1e-4 0.13456,0.0541 0.13449,0.0872 -6e-5,0.0331 -0.0351,0.0874 -0.13449,0.0872 -0.099,-1.3e-4 -0.13611,-0.0543 -0.13615,-0.0872 -9e-5,-0.0331 0.0367,-0.0871 0.13615,-0.0872 z m 3.62579,0 h 0.002 c 0.0994,1.3e-4 0.13455,0.0542 0.13448,0.0872 -5e-5,0.0329 -0.0354,0.0871 -0.13448,0.0872 h -0.002 c -0.0994,2e-4 -0.13444,-0.0543 -0.13448,-0.0872 -8e-5,-0.0332 0.0349,-0.0875 0.13448,-0.0872 z m 3.62744,0 h 0.002 c 0.0974,8.8e-4 0.13288,0.0545 0.13279,0.0872 -5e-5,0.0327 -0.0357,0.0862 -0.13279,0.0872 -0.0991,-1.3e-4 -0.13443,-0.0543 -0.13449,-0.0872 -1e-4,-0.0327 0.0355,-0.0862 0.1328,-0.0872 z m 3.62745,0 c 0.0997,-2.1e-4 0.13625,0.0541 0.13616,0.0872 -6e-5,0.0331 -0.0367,0.0874 -0.13616,0.0872 -0.0991,-1.3e-4 -0.13444,-0.0543 -0.13448,-0.0872 -8e-5,-0.0331 0.0351,-0.0871 0.13448,-0.0872 z m 7.25322,0 h 0.002 c 0.0974,8.8e-4 0.13288,0.0545 0.13281,0.0872 -6e-5,0.0327 -0.0358,0.0862 -0.13281,0.0872 -0.099,-1.3e-4 -0.13442,-0.0543 -0.13448,-0.0872 -6e-5,-0.0327 0.0355,-0.0862 0.1328,-0.0872 z m -19.9493,0.72118 c -0.56878,7.7e-4 -1.07391,0.43768 -1.07244,1.00933 9e-4,0.57017 0.50512,1.00529 1.07244,1.00605 0.56878,8.8e-4 1.07488,-0.43439 1.07581,-1.00605 0.002,-0.57313 -0.50558,-1.01051 -1.07581,-1.00933 z m 3.63081,0 c -0.57025,-8.8e-4 -1.07894,0.43621 -1.07749,1.00933 9.2e-4,0.57166 0.50871,1.00724 1.07749,1.00605 0.56732,-7.6e-4 1.07152,-0.43588 1.07242,-1.00605 0.002,-0.57163 -0.50364,-1.00856 -1.07242,-1.00933 z m 3.62577,0 c -0.57023,-8.8e-4 -1.07727,0.43621 -1.07579,1.00933 9e-4,0.57166 0.50701,1.00724 1.07579,1.00605 0.56731,-7.6e-4 1.07153,-0.43587 1.07244,-1.00605 0.002,-0.57163 -0.50366,-1.00857 -1.07244,-1.00933 z m 3.62411,0 c -0.56812,0.002 -1.07392,0.43824 -1.07245,1.00933 9e-4,0.57017 0.5068,1.00529 1.07412,1.00605 0.5681,3.4e-4 1.07487,-0.43494 1.07579,-1.00605 0.002,-0.57256 -0.50622,-1.00966 -1.07579,-1.00933 z m 3.62744,0 c -0.56877,7.7e-4 -1.07392,0.43768 -1.07245,1.00933 9.1e-4,0.57017 0.50513,1.00529 1.07245,1.00605 0.56878,8.8e-4 1.07488,-0.43439 1.07578,-1.00605 0.002,-0.57313 -0.50554,-1.01051 -1.07578,-1.00933 z m -14.50646,0.92042 c 0.0997,-2.1e-4 0.13456,0.0541 0.13448,0.0872 -5e-5,0.0331 -0.0351,0.0874 -0.13448,0.0872 -0.0991,-1.3e-4 -0.13443,-0.0543 -0.13447,-0.0872 -9e-5,-0.0331 0.0351,-0.0871 0.13447,-0.0872 z m 3.62747,0 c 0.0994,1.3e-4 0.13455,0.0543 0.13447,0.0872 -5e-5,0.0329 -0.0354,0.0871 -0.13447,0.0872 -0.0994,2.2e-4 -0.1361,-0.0542 -0.13616,-0.0872 -9e-5,-0.0332 0.0363,-0.0874 0.13616,-0.0872 z m 3.62576,0 c 0.0994,1.3e-4 0.13457,0.0543 0.13449,0.0872 -8e-5,0.0329 -0.0355,0.0871 -0.13449,0.0872 -0.0994,2.2e-4 -0.13441,-0.0542 -0.13446,-0.0872 -1.1e-4,-0.0332 0.0348,-0.0874 0.13446,-0.0872 z m 3.62746,0 h 0.002 c 0.0997,-2.1e-4 0.13458,0.0541 0.13449,0.0872 -5e-5,0.0331 -0.0351,0.0874 -0.13449,0.0872 h -0.002 c -0.0991,-1.3e-4 -0.13444,-0.0543 -0.13448,-0.0872 -9e-5,-0.0331 0.0351,-0.0871 0.13448,-0.0872 z m 3.62745,0 c 0.0997,-2.1e-4 0.13456,0.0541 0.13447,0.0872 -6e-5,0.0331 -0.0351,0.0874 -0.13447,0.0872 -0.0991,-1.3e-4 -0.13443,-0.0543 -0.13448,-0.0872 -8e-5,-0.0331 0.0351,-0.0871 0.13448,-0.0872 z m -12.76669,0.72284 c -0.5409,0.034 -1.0024,0.46129 -1.00184,1.00604 v 0.002 c 9.2e-4,0.57016 0.50513,1.00364 1.07243,1.0044 0.56879,8.6e-4 1.0749,-0.43275 1.07582,-1.0044 v -0.002 c -9e-4,-0.57165 -0.50703,-1.00724 -1.07582,-1.00604 -0.0133,-2.3e-4 -0.0269,-2.3e-4 -0.0403,0 h -0.0151 z m 3.62577,0 c -0.54089,0.034 -1.0024,0.46129 -1.00183,1.00604 v 0.002 c 9.1e-4,0.57165 0.50701,1.00558 1.0758,1.0044 0.56732,-7.6e-4 1.07152,-0.43424 1.07242,-1.0044 v -0.002 c -9e-4,-0.57019 -0.5051,-1.00529 -1.07242,-1.00604 -0.0196,-3.8e-4 -0.0393,-6.2e-4 -0.0589,0 h -0.007 z m 3.62577,0 c -0.53947,0.0357 -0.9992,0.46264 -0.99847,1.00604 v 0.002 c 9e-4,0.57016 0.50512,1.00364 1.07244,1.0044 h 0.002 c 0.5673,-7.6e-4 1.07153,-0.43423 1.07243,-1.0044 v -0.002 c -9e-4,-0.57019 -0.50513,-1.00529 -1.07243,-1.00604 -0.0201,-4.1e-4 -0.0404,-6.4e-4 -0.0604,0 h -0.007 z m 3.62913,0 c -0.54089,0.034 -1.0024,0.46129 -1.00181,1.00604 v 0.002 c 8.9e-4,0.57016 0.50511,1.00364 1.07242,1.0044 0.56879,8.6e-4 1.07655,-0.43275 1.07747,-1.0044 v -0.002 c -9e-4,-0.57165 -0.50868,-1.00724 -1.07747,-1.00604 -0.0136,-2.3e-4 -0.0267,-2.6e-4 -0.0403,0 h -0.0151 z m 3.62745,0 c -0.54089,0.034 -1.0024,0.46129 -1.00182,1.00604 v 0.002 c 9.1e-4,0.57165 0.50701,1.00558 1.07578,1.0044 0.56733,-7.6e-4 1.07153,-0.43424 1.07243,-1.0044 v -0.002 c -8.9e-4,-0.57019 -0.5051,-1.00529 -1.07243,-1.00604 -0.0196,-3.8e-4 -0.0393,-6.2e-4 -0.0589,0 h -0.008 z m -18.07842,0.92043 c 8.1e-4,-9e-5 8.8e-4,5e-5 0.002,0 h 0.006 0.007 c 0.0977,1.1e-4 0.13175,0.0525 0.1328,0.0857 -6.6e-4,0.0327 -0.0349,0.0845 -0.13111,0.0857 -0.0991,-1.2e-4 -0.13443,-0.0527 -0.13449,-0.0857 -2e-5,-0.0298 0.0316,-0.0776 0.11935,-0.0857 z m 3.62745,0 c 8.1e-4,-8e-5 8.8e-4,5e-5 0.002,0 h 0.006 0.008 c 0.098,-2.1e-4 0.13173,0.0524 0.13279,0.0857 -6.6e-4,0.0332 -0.0344,0.0859 -0.13279,0.0857 -0.099,-1.2e-4 -0.13611,-0.0527 -0.13616,-0.0857 -2e-5,-0.0298 0.0331,-0.078 0.12103,-0.0857 z m 3.62745,0 h 0.007 0.008 c 0.0977,1.1e-4 0.13175,0.0525 0.13282,0.0857 -6.7e-4,0.033 -0.0347,0.0855 -0.13282,0.0857 h -0.002 c -0.0994,2.1e-4 -0.13441,-0.0525 -0.13447,-0.0857 -3e-5,-0.03 0.0311,-0.0786 0.12103,-0.0857 z m 3.62579,0 c 8e-4,-9e-5 8.6e-4,5e-5 0.002,0 h 0.007 0.007 c 0.0977,1.1e-4 0.13174,0.0525 0.1328,0.0857 -6.6e-4,0.0327 -0.035,0.0845 -0.13112,0.0857 -0.0991,-1.2e-4 -0.13441,-0.0527 -0.13447,-0.0857 -4e-5,-0.0298 0.0302,-0.0776 0.11766,-0.0857 z m 3.62743,0 c 8.1e-4,-8e-5 8.7e-4,5e-5 0.002,0 h 0.007 0.007 c 0.0979,-2.1e-4 0.13341,0.0524 0.13446,0.0857 -6.6e-4,0.0332 -0.0358,0.0859 -0.13446,0.0857 -0.0991,-1.2e-4 -0.13443,-0.0527 -0.13448,-0.0857 -3e-5,-0.0298 0.0312,-0.0779 0.11935,-0.0857 z m 3.62746,0 c 8.1e-4,-8e-5 8.6e-4,5e-5 0.002,0 h 0.007 0.007 c 0.0976,1.1e-4 0.13171,0.0525 0.13279,0.0857 -6.8e-4,0.033 -0.0347,0.0855 -0.13279,0.0857 -0.0994,2.1e-4 -0.1361,-0.0525 -0.13617,-0.0857 -2e-5,-0.0298 0.0331,-0.078 0.12103,-0.0857 z m 3.62746,0 c 8.1e-4,-9e-5 8.7e-4,5e-5 0.002,0 h 0.006 0.007 c 0.0976,1.1e-4 0.13173,0.0525 0.13277,0.0857 -6.4e-4,0.0327 -0.035,0.0845 -0.13109,0.0857 -0.0991,-1.2e-4 -0.13443,-0.0527 -0.13449,-0.0857 -3e-5,-0.0298 0.0317,-0.0776 0.11936,-0.0857 z m -20.00982,0.72119 c -0.53932,0.0358 -0.99922,0.46262 -0.99848,1.00603 -5.1e-4,0.57086 0.50419,1.00695 1.07244,1.00768 0.57023,8.8e-4 1.07727,-0.43621 1.07581,-1.00932 -9.1e-4,-0.57166 -0.50703,-1.00559 -1.07581,-1.00439 -0.0144,-2.7e-4 -0.0278,-2.7e-4 -0.0419,0 -0.006,8e-5 -0.01,-1.8e-4 -0.0151,0 l 0.0151,0.91876 z m 3.6308,0 c -0.54088,0.034 -1.00408,0.46129 -1.00352,1.00603 -4.8e-4,0.57231 0.50779,1.00887 1.07749,1.00768 0.56881,-7.3e-4 1.07391,-0.43768 1.07242,-1.00932 -8.9e-4,-0.57018 -0.5051,-1.00366 -1.07242,-1.00439 -0.0199,-4.1e-4 -0.0404,-6.5e-4 -0.0603,0 h -0.007 z m 3.62578,0 c -0.5409,0.034 -1.00239,0.46129 -1.00183,1.00603 -5e-4,0.57231 0.50609,1.00887 1.07579,1.00768 0.5688,-7.2e-4 1.0739,-0.43768 1.07244,-1.00932 -9.1e-4,-0.57019 -0.50513,-1.00366 -1.07244,-1.00439 -0.0144,-2.8e-4 -0.0292,-2.8e-4 -0.0437,0 -0.006,8e-5 -0.01,-1.8e-4 -0.0151,0 l 0.0151,0.91876 z m 3.62408,0 c -0.5393,0.0358 -0.99919,0.46264 -0.99846,1.00603 -5.1e-4,0.57085 0.50585,1.00696 1.07412,1.00768 0.56957,3.6e-4 1.07724,-0.43677 1.07579,-1.00932 -9.1e-4,-0.57166 -0.5087,-1.00559 -1.07746,-1.00439 -0.0139,-2.4e-4 -0.0281,-2.7e-4 -0.0419,0 -0.006,8e-5 -0.0101,-1.8e-4 -0.0151,0 l 0.0151,0.91876 z m 3.63082,0 c -0.5409,0.034 -1.00241,0.46128 -1.00184,1.00603 -5.1e-4,0.57086 0.50421,1.00695 1.07245,1.00768 0.57024,8.8e-4 1.07727,-0.43621 1.07578,-1.00932 -8.9e-4,-0.57166 -0.507,-1.00559 -1.07578,-1.00439 -0.0133,-2.3e-4 -0.027,-2.4e-4 -0.0404,0 h -0.0151 z m 3.62745,0 c -0.54091,0.034 -1.00409,0.46129 -1.00351,1.00603 -4.9e-4,0.57231 0.50778,1.00887 1.07747,1.00768 0.56879,-7.3e-4 1.0739,-0.43768 1.07244,-1.00932 -9e-4,-0.57018 -0.50512,-1.00366 -1.07244,-1.00439 -0.02,-4.1e-4 -0.0404,-6.5e-4 -0.0603,0 h -0.007 z m -18.07506,0.91876 h 0.004 0.008 c 0.0994,-2.1e-4 0.13442,0.0543 0.13447,0.0872 v 0.002 c 8e-5,0.0332 -0.0349,0.0859 -0.13447,0.0857 -0.0994,-1.3e-4 -0.13456,-0.0525 -0.13449,-0.0857 v -0.002 -0.002 c -3e-5,-0.0304 0.0297,-0.0794 0.12272,-0.0857 z m 3.6241,0 h 0.002 0.007 0.007 c 0.0991,1.3e-4 0.13441,0.0544 0.13446,0.0872 10e-5,0.0331 -0.0351,0.0872 -0.13446,0.0872 -0.0997,2.1e-4 -0.13625,-0.054 -0.13618,-0.0872 -2e-5,-0.0303 0.0298,-0.0807 0.12104,-0.0872 z m 3.62745,0 h 0.002 0.006 0.007 c 0.0991,1.3e-4 0.13442,0.0544 0.13446,0.0872 9e-5,0.0331 -0.0351,0.0872 -0.13446,0.0872 -0.0997,2.1e-4 -0.13456,-0.054 -0.13448,-0.0872 -4e-5,-0.0303 0.0298,-0.0807 0.12102,-0.0872 z m 3.62912,0 h 0.006 0.008 c 0.0994,-2.1e-4 0.13445,0.0543 0.13449,0.0872 9e-5,0.0332 -0.0349,0.0874 -0.13449,0.0872 h -0.002 c -0.0994,-1.1e-4 -0.13455,-0.0542 -0.13447,-0.0872 v -0.002 c -3e-5,-0.0304 0.0298,-0.0794 0.12272,-0.0857 z m 3.62746,0 h 0.004 0.008 c 0.0994,-2.1e-4 0.13441,0.0543 0.13446,0.0872 v 0.002 c 10e-5,0.0332 -0.0348,0.0859 -0.13446,0.0857 -0.0994,-1.3e-4 -0.13456,-0.0525 -0.13448,-0.0857 v -0.002 c -3e-5,-0.0306 0.0296,-0.0814 0.12271,-0.0872 z m 3.62408,0 h 0.002 0.006 0.008 c 0.0991,1.3e-4 0.13443,0.0544 0.13448,0.0872 10e-5,0.0331 -0.0351,0.0872 -0.13448,0.0872 -0.0997,2.1e-4 -0.13622,-0.054 -0.13615,-0.0872 -2e-5,-0.0303 0.0298,-0.0807 0.12103,-0.0872 z m -21.61342,2.36281 v 0.45938 5.20144 l 6.2581,-5.66082 z m 6.58085,0 -0.13449,0.12184 -5.86811,5.31177 c -0.0248,0.0222 -0.0662,0.0379 -0.10927,0.0379 v 0.92042 h 5.97908 l 7.06159,-6.39189 z m 7.25657,0 -0.13615,0.12184 -6.92711,6.27006 h 6.92879 l 7.0633,-6.3919 z m 7.25155,0 -0.13446,0.12184 -6.92712,6.27006 h 6.93049 l 0.86231,-0.78047 h 3.30133 v -2.98686 -0.48737 -2.1372 z m -20.14932,0.9204 h 2.91641 l -2.91641,2.63943 z m 6.00933,0 h 4.1603 l -5.02934,4.55108 h -4.15864 z m 7.25659,0 h 4.15861 l -5.02935,4.55108 h -4.15861 z m 7.25153,0 h 2.72479 v 1.30078 l -3.59047,3.2503 h -4.16199 z m 2.72479,3.31943 v 0.45117 h -0.49755 z"
               id="path861"
               inkscape:connector-curvature="0"
               sodipodi:nodetypes="cccccscsccccccccccsccccsccccccccccscscccccccccccccccccccccccccccccccccccccccccccccccccccccccccccccccccccccccccccccccccccccccccccccccccccccccccccccccccccccccccccccccccccccccccccccccccccccccccccccccccccccccccccccccccccccccccccccccccccccccccccccccccccccccccccccccccccccccccccccccccccccccccccccccccccccccccccccccccccccccccccccccccccccccccccccccccccccccccccccccccccccccccccccccccccccccccccccccccccccccccccccccccccccccccccccccccccccccccccccccccccccccccccccccccccccccccccccccccccccccccccccccccccccccccccccccccccccccccccccccccccccccccccccc" />
          </g>
        </g>
      </g>
    </g>
  </g>
</svg>
