<?xml version="1.0" encoding="UTF-8" standalone="no"?>
<svg
   xmlns:dc="http://purl.org/dc/elements/1.1/"
   xmlns:cc="http://creativecommons.org/ns#"
   xmlns:rdf="http://www.w3.org/1999/02/22-rdf-syntax-ns#"
   xmlns:svg="http://www.w3.org/2000/svg"
   xmlns="http://www.w3.org/2000/svg"
   xmlns:sodipodi="http://sodipodi.sourceforge.net/DTD/sodipodi-0.dtd"
   xmlns:inkscape="http://www.inkscape.org/namespaces/inkscape"
   width="64"
   height="64"
   version="1"
   id="svg24"
   sodipodi:docname="preferences-system-windowsdecorations.svg"
   inkscape:version="0.92.4 5da689c313, 2019-01-14">
  <metadata
     id="metadata30">
    <rdf:RDF>
      <cc:Work
         rdf:about="">
        <dc:format>image/svg+xml</dc:format>
        <dc:type
           rdf:resource="http://purl.org/dc/dcmitype/StillImage" />
        <dc:title></dc:title>
      </cc:Work>
    </rdf:RDF>
  </metadata>
  <defs
     id="defs28" />
  <sodipodi:namedview
     pagecolor="#ffffff"
     bordercolor="#666666"
     borderopacity="1"
     objecttolerance="10"
     gridtolerance="10"
     guidetolerance="10"
     inkscape:pageopacity="0"
     inkscape:pageshadow="2"
     inkscape:window-width="1366"
     inkscape:window-height="691"
     id="namedview26"
     showgrid="false"
     inkscape:zoom="5.7231455"
     inkscape:cx="37.662048"
     inkscape:cy="42.159595"
     inkscape:window-x="0"
     inkscape:window-y="0"
     inkscape:window-maximized="1"
     inkscape:current-layer="svg24" />
  <rect
     style="opacity:0.2"
     width="56"
     height="56"
     x="4"
     y="5"
     rx="2.8"
     ry="2.8"
     id="rect2" />
  <rect
     style="fill:#dcdcdc;fill-opacity:1"
     width="56"
     height="56"
     x="4"
     y="4"
     rx="2.8"
     ry="2.8"
     id="rect4" />
  <path
     inkscape:connector-curvature="0"
     style="opacity:1;fill:#0083d7;fill-opacity:1;stroke-width:0.94280905"
     d="M 4,6.4895831 V 20 H 60 V 6.4895831 C 60,5.1107387 58.750419,4 57.199219,4 H 6.800781 C 5.249581,4 4,5.1107387 4,6.4895831 Z"
     id="rect4-3" />
  <circle
     style="opacity:0.2"
     cx="11"
     cy="12"
     r="4"
     id="circle10" />
  <circle
     style="opacity:0.2"
     cx="21"
     cy="12"
     r="4"
     id="circle14" />
  <circle
     style="opacity:0.2"
     cx="31"
     cy="12"
     r="4"
     id="circle18" />
  <path
     style="opacity:0.4;fill:#ffffff"
     d="M 6.8007812 4 C 5.2495812 4 4 5.2495812 4 6.8007812 L 4 7.8007812 C 4 6.2495813 5.2495812 5 6.8007812 5 L 57.199219 5 C 58.750419 5 60 6.2495812 60 7.8007812 L 60 6.8007812 C 60 5.2495813 58.750419 4 57.199219 4 L 6.8007812 4 z"
     id="path22" />
</svg>
