<?xml version="1.0" encoding="UTF-8" standalone="no"?>
<svg
   xmlns:dc="http://purl.org/dc/elements/1.1/"
   xmlns:cc="http://creativecommons.org/ns#"
   xmlns:rdf="http://www.w3.org/1999/02/22-rdf-syntax-ns#"
   xmlns:svg="http://www.w3.org/2000/svg"
   xmlns="http://www.w3.org/2000/svg"
   xmlns:sodipodi="http://sodipodi.sourceforge.net/DTD/sodipodi-0.dtd"
   xmlns:inkscape="http://www.inkscape.org/namespaces/inkscape"
   inkscape:version="1.0beta2 (2b71d25d45, 2019-12-03)"
   sodipodi:docname="folder-music.svg"
   id="SVGRoot"
   version="1.1"
   viewBox="0 0 64 64"
   height="64px"
   width="64px">
  <sodipodi:namedview
     inkscape:document-rotation="0"
     inkscape:snap-global="false"
     inkscape:snap-to-guides="false"
     inkscape:snap-grids="false"
     inkscape:snap-page="true"
     inkscape:snap-object-midpoints="true"
     inkscape:grid-bbox="true"
     inkscape:lockguides="true"
     inkscape:window-maximized="1"
     inkscape:window-y="21"
     inkscape:window-x="0"
     inkscape:window-height="1027"
     inkscape:window-width="1920"
     units="px"
     inkscape:pagecheckerboard="false"
     inkscape:showpageshadow="false"
     showgrid="false"
     inkscape:current-layer="g852"
     inkscape:document-units="px"
     inkscape:cy="32.603412"
     inkscape:cx="17.36622"
     inkscape:zoom="14.778033"
     inkscape:pageshadow="2"
     inkscape:pageopacity="0.0"
     borderopacity="1.0"
     bordercolor="#666666"
     pagecolor="#8C837B"
     id="base" />
  <defs
     id="defs2" />
  <metadata
     id="metadata5">
    <rdf:RDF>
      <cc:Work
         rdf:about="">
        <dc:format>image/svg+xml</dc:format>
        <dc:type
           rdf:resource="http://purl.org/dc/dcmitype/StillImage" />
        <dc:title />
        <cc:license
           rdf:resource="http://creativecommons.org/licenses/by-sa/4.0/" />
        <dc:date>2017</dc:date>
        <dc:creator>
          <cc:Agent>
            <dc:title>Cristian Pozzessere &quot;ilnanny&quot;</dc:title>
          </cc:Agent>
        </dc:creator>
        <dc:subject>
          <rdf:Bag>
            <rdf:li>Global language</rdf:li>
          </rdf:Bag>
        </dc:subject>
        <dc:description>Playing with Inkscape on Gnu/Linux O. S.</dc:description>
        <dc:contributor>
          <cc:Agent>
            <dc:title>In the night, alone like a dog.</dc:title>
          </cc:Agent>
        </dc:contributor>
      </cc:Work>
      <cc:License
         rdf:about="http://creativecommons.org/licenses/by-sa/4.0/">
        <cc:permits
           rdf:resource="http://creativecommons.org/ns#Reproduction" />
        <cc:permits
           rdf:resource="http://creativecommons.org/ns#Distribution" />
        <cc:requires
           rdf:resource="http://creativecommons.org/ns#Notice" />
        <cc:requires
           rdf:resource="http://creativecommons.org/ns#Attribution" />
        <cc:permits
           rdf:resource="http://creativecommons.org/ns#DerivativeWorks" />
        <cc:requires
           rdf:resource="http://creativecommons.org/ns#ShareAlike" />
      </cc:License>
    </rdf:RDF>
  </metadata>
  <g
     inkscape:label="Layer 1"
     inkscape:groupmode="layer"
     id="layer1">
    <g
       transform="matrix(0.984375,0,0,0.96296292,-3.1992191,-18.562364)"
       id="g938">
      <g
         transform="matrix(0.99514741,0,0,1,0.64471561,-1.0384589)"
         id="g1521">
        <g
           id="g852">
          <rect
             style="opacity:1;fill:#DED4CA;fill-opacity:1;fill-rule:nonzero;stroke:#5f5e5c;stroke-width:1.36143422;stroke-linecap:square;stroke-linejoin:bevel;stroke-miterlimit:4;stroke-dasharray:none;stroke-opacity:1;paint-order:markers stroke fill"
             id="rect817"
             width="63.980831"
             height="55.789837"
             x="3.259584"
             y="26.558754" />
          <rect
             y="-67.240417"
             x="43.239227"
             height="1.9279207"
             width="39.113285"
             id="rect1500"
             style="opacity:1;fill:#fefbfb;fill-opacity:0.75478929;fill-rule:nonzero;stroke:none;stroke-width:0.06918984;stroke-linecap:square;stroke-linejoin:bevel;stroke-miterlimit:4;stroke-dasharray:none;stroke-opacity:0.79607843;paint-order:markers stroke fill"
             transform="rotate(90)" />
          <rect
             transform="rotate(90)"
             style="opacity:1;fill:#fefbfb;fill-opacity:0.75478929;fill-rule:nonzero;stroke:none;stroke-width:0.08058518;stroke-linecap:square;stroke-linejoin:bevel;stroke-miterlimit:4;stroke-dasharray:none;stroke-opacity:0.79607843;paint-order:markers stroke fill"
             id="rect1498"
             width="39.113285"
             height="2.6152594"
             x="43.209305"
             y="-5.8748436" />
          <g
             id="g851"
             transform="matrix(0.26717791,0,0,0.37695836,-8.2290657,12.422815)"
             style="opacity:0.69300022">
            <path
               id="rect831"
               d="M 47.995635,54.25 H 277.46902 V 85.090837 H 47.995635 Z"
               style="opacity:1;fill:#f8fafa;fill-opacity:1;fill-rule:nonzero;stroke:none;stroke-width:0.67029333;stroke-linecap:square;stroke-linejoin:bevel;stroke-miterlimit:4;stroke-dasharray:none;stroke-opacity:0.79607843;paint-order:markers stroke fill"
               inkscape:connector-curvature="0" />
            <path
               sodipodi:nodetypes="cccc"
               inkscape:connector-curvature="0"
               id="path1496"
               d="M 277.46902,75.592181 244.49991,54.25 v 21.342181 z"
               style="opacity:1;fill:#93a2a5;fill-opacity:1;fill-rule:nonzero;stroke:none;stroke-width:0.21135312;stroke-linecap:square;stroke-linejoin:bevel;stroke-miterlimit:4;stroke-dasharray:none;stroke-opacity:0.79607843;paint-order:markers stroke fill" />
          </g>
          <g
             transform="matrix(0.92930117,0,0,0.97367239,2.5265655,4.0162188)"
             style="fill:#DED4CA;fill-opacity:1;stroke:#DED4CA;stroke-width:1.16166735;stroke-miterlimit:4;stroke-dasharray:none;stroke-opacity:1"
             id="g1484">
            <path
               inkscape:connector-curvature="0"
               d="m 5.056055,36.025647 h 24.762237 l 3.746032,4.177904 H 5.056055 Z M 3.25,40.203551 h 64 v 40.250917 h -64 z"
               style="opacity:1;fill:#DED4CA;fill-opacity:1;fill-rule:nonzero;stroke:#DED4CA;stroke-width:1.16166735;stroke-linecap:square;stroke-linejoin:bevel;stroke-miterlimit:4;stroke-dasharray:none;stroke-opacity:1;paint-order:markers stroke fill"
               id="rect821"
               sodipodi:nodetypes="cccccccccc" />
          </g>
          <rect
             y="28.096727"
             x="5.7145939"
             height="3.0460732"
             width="5.3264122"
             id="rect825"
             style="opacity:1;fill:#ffcc00;fill-opacity:0.99315072;fill-rule:nonzero;stroke:none;stroke-width:0.47680542;stroke-linecap:square;stroke-linejoin:bevel;stroke-miterlimit:4;stroke-dasharray:none;stroke-opacity:1;paint-order:markers stroke fill" />
          <rect
             style="opacity:1;fill:#ff0084;fill-opacity:0.99315072;fill-rule:nonzero;stroke:none;stroke-width:0.47680542;stroke-linecap:square;stroke-linejoin:bevel;stroke-miterlimit:4;stroke-dasharray:none;stroke-opacity:1;paint-order:markers stroke fill"
             id="rect827"
             width="5.3264122"
             height="3.0460732"
             x="13.652818"
             y="28.096727" />
          <rect
             y="28.096727"
             x="21.59104"
             height="3.0460732"
             width="5.3264122"
             id="rect829"
             style="opacity:1;fill:#aad450;fill-opacity:0.99315072;fill-rule:nonzero;stroke:none;stroke-width:0.47680542;stroke-linecap:square;stroke-linejoin:bevel;stroke-miterlimit:4;stroke-dasharray:none;stroke-opacity:1;paint-order:markers stroke fill" />
          <rect
             y="78.956886"
             x="3.1380224"
             height="1.9870082"
             width="64.143631"
             id="rect855"
             style="opacity:0.704;fill:#8C837B;fill-opacity:0.99657533;fill-rule:nonzero;stroke:none;stroke-width:0.0899523;stroke-linecap:square;stroke-linejoin:bevel;stroke-miterlimit:4;stroke-dasharray:none;stroke-opacity:0.79607843;paint-order:markers stroke fill" />
          <rect
             style="opacity:0.597;fill:#8C837B;fill-opacity:0.96907217;fill-rule:nonzero;stroke:none;stroke-width:0.09005686;stroke-linecap:square;stroke-linejoin:bevel;stroke-miterlimit:4;stroke-dasharray:none;stroke-opacity:0.79607843;paint-order:markers stroke fill"
             id="rect853"
             width="64.292816"
             height="1.9870082"
             x="3.1380224"
             y="80.455818" />
          <rect
             y="43.691528"
             x="8.0103283"
             height="1.0598483"
             width="54.548206"
             id="rect1504"
             style="opacity:0.704;fill:#fcfdff;fill-opacity:1;fill-rule:nonzero;stroke:none;stroke-width:0.06058259;stroke-linecap:square;stroke-linejoin:bevel;stroke-miterlimit:4;stroke-dasharray:none;stroke-opacity:0.79607843;paint-order:markers stroke fill" />
          <rect
             style="opacity:0.597;fill:#000207;fill-opacity:1;fill-rule:nonzero;stroke:none;stroke-width:0.06058259;stroke-linecap:square;stroke-linejoin:bevel;stroke-miterlimit:4;stroke-dasharray:none;stroke-opacity:0.79607843;paint-order:markers stroke fill"
             id="rect1523"
             width="54.548206"
             height="1.0598483"
             x="8.0103283"
             y="45.030849" />
          <g
             style="fill:none;stroke:#8C837B;stroke-width:1.11056;stroke-miterlimit:4;stroke-dasharray:none;stroke-opacity:0.869732"
             id="sound "
             transform="matrix(0.80503746,0,0,0.8189446,-251.53373,-399.39219)">
            <path
               id="path5382"
               transform="translate(0,530.70079)"
               d="m 356.87109,17.248047 c -0.37271,0.0054 -0.74522,0.109505 -1.08203,0.3125 -0.0323,0.019 -0.0637,0.04251 -0.0918,0.06641 l -9.51758,8.050781 h -7.46875 c -0.38843,0 -0.70313,0.314685 -0.70313,0.703125 v 13.345703 c 0,0.18684 0.0749,0.364744 0.20703,0.496094 0.13205,0.13135 0.30926,0.207032 0.4961,0.207032 l 7.45312,-0.0039 9.51172,8.736328 c 0.0351,0.0323 0.0732,0.06204 0.11328,0.08594 0.34559,0.20862 0.72852,0.3125 1.11133,0.3125 0.36315,-7.1e-4 0.7269,-0.09493 1.06055,-0.283203 0.70171,-0.39617 1.11914,-1.118094 1.11914,-1.933594 V 19.464844 c 0,-0.8155 -0.41743,-1.538677 -1.11914,-1.935547 v 0.002 c -0.34278,-0.193865 -0.71713,-0.288646 -1.08985,-0.283203 z m 0.1211,1.412109 c 0.12424,0.01668 0.22255,0.0628 0.27734,0.09375 0.25427,0.14399 0.40625,0.410851 0.40625,0.712891 V 47.34375 c 0,0.30274 -0.15198,0.568891 -0.40625,0.712891 -0.10888,0.0611 -0.38563,0.178388 -0.70312,0.01758 l -9.42579,-8.660157 v -3.199218 c 0,-0.38843 -0.31469,-0.703125 -0.70312,-0.703125 -0.38844,0 -0.70312,0.314695 -0.70312,0.703125 v 2.80664 l -6.32032,0.0039 V 27.083984 h 6.32032 v 2.808594 c 0,0.38843 0.31468,0.703125 0.70312,0.703125 0.38843,0 0.70312,-0.314695 0.70312,-0.703125 v -3.185547 l 9.41602,-7.964843 c 0.16191,-0.08499 0.31131,-0.09872 0.43555,-0.08203 z m 7.99219,1.400391 c -0.27306,0.02007 -0.52147,0.199052 -0.61524,0.474609 -0.12433,0.36665 0.0721,0.767548 0.43945,0.892578 4.98783,1.69351 8.33985,6.365883 8.33985,11.626954 0,5.25615 -3.34622,9.928523 -8.32422,11.626953 -0.36666,0.12503 -0.56323,0.524518 -0.4375,0.892578 0.0997,0.2915 0.37186,0.474609 0.66406,0.474609 0.0752,0 0.15336,-0.01111 0.22852,-0.03711 5.54625,-1.8916 9.27148,-7.098912 9.27148,-12.957031 7e-4,-5.86444 -3.73282,-11.071605 -9.29101,-12.958985 -0.0918,-0.03108 -0.18438,-0.04185 -0.27539,-0.03516 z m -3.88086,3.867187 c -0.27187,0.03263 -0.50872,0.221686 -0.58985,0.501954 -0.10747,0.372269 0.10678,0.76167 0.48047,0.86914 3.43409,0.99251 5.83203,4.182689 5.83203,7.75586 0,3.573179 -2.39794,6.761396 -5.83203,7.753906 -0.37298,0.10746 -0.58794,0.49686 -0.48047,0.86914 0.0892,0.30766 0.36829,0.507813 0.67383,0.507813 0.0646,0 0.13069,-0.0089 0.19531,-0.02734 4.03255,-1.166 6.84766,-4.908705 6.84766,-9.103515 0,-4.1948 -2.81581,-7.939469 -6.84766,-9.105469 -0.0936,-0.02652 -0.18867,-0.03236 -0.27929,-0.02148 z"
               style="fill:none;fill-opacity:1;stroke:#8C837B;stroke-width:1.11056;stroke-miterlimit:4;stroke-dasharray:none;stroke-opacity:0.869732"
               inkscape:connector-curvature="0" />
          </g>
        </g>
      </g>
    </g>
  </g>
</svg>
