<?xml version="1.0" encoding="UTF-8" standalone="no"?>
<svg
   xmlns:dc="http://purl.org/dc/elements/1.1/"
   xmlns:cc="http://creativecommons.org/ns#"
   xmlns:rdf="http://www.w3.org/1999/02/22-rdf-syntax-ns#"
   xmlns:svg="http://www.w3.org/2000/svg"
   xmlns="http://www.w3.org/2000/svg"
   xmlns:sodipodi="http://sodipodi.sourceforge.net/DTD/sodipodi-0.dtd"
   xmlns:inkscape="http://www.inkscape.org/namespaces/inkscape"
   width="64px"
   height="64px"
   viewBox="0 0 64 64"
   version="1.1"
   id="SVGRoot"
   sodipodi:docname="folder-video.svg"
   inkscape:version="1.0beta2 (2b71d25d45, 2019-12-03)">
  <sodipodi:namedview
     id="base"
     pagecolor="#8C837B"
     bordercolor="#666666"
     borderopacity="1.0"
     inkscape:pageopacity="0.0"
     inkscape:pageshadow="2"
     inkscape:zoom="20.055902"
     inkscape:cx="17.36622"
     inkscape:cy="40.581114"
     inkscape:document-units="px"
     inkscape:current-layer="g852"
     showgrid="false"
     inkscape:showpageshadow="false"
     inkscape:pagecheckerboard="false"
     units="px"
     inkscape:window-width="1920"
     inkscape:window-height="1027"
     inkscape:window-x="0"
     inkscape:window-y="21"
     inkscape:window-maximized="1"
     inkscape:lockguides="true"
     inkscape:grid-bbox="true"
     inkscape:snap-object-midpoints="true"
     inkscape:snap-page="true"
     inkscape:snap-grids="false"
     inkscape:snap-to-guides="false"
     inkscape:snap-global="false"
     inkscape:document-rotation="0" />
  <defs
     id="defs2" />
  <metadata
     id="metadata5">
    <rdf:RDF>
      <cc:Work
         rdf:about="">
        <dc:format>image/svg+xml</dc:format>
        <dc:type
           rdf:resource="http://purl.org/dc/dcmitype/StillImage" />
        <dc:title />
        <cc:license
           rdf:resource="http://creativecommons.org/licenses/by-sa/4.0/" />
        <dc:date>2017</dc:date>
        <dc:creator>
          <cc:Agent>
            <dc:title>Cristian Pozzessere &quot;ilnanny&quot;</dc:title>
          </cc:Agent>
        </dc:creator>
        <dc:subject>
          <rdf:Bag>
            <rdf:li>Global language</rdf:li>
          </rdf:Bag>
        </dc:subject>
        <dc:description>Playing with Inkscape on Gnu/Linux O. S.</dc:description>
        <dc:contributor>
          <cc:Agent>
            <dc:title>In the night, alone like a dog.</dc:title>
          </cc:Agent>
        </dc:contributor>
      </cc:Work>
      <cc:License
         rdf:about="http://creativecommons.org/licenses/by-sa/4.0/">
        <cc:permits
           rdf:resource="http://creativecommons.org/ns#Reproduction" />
        <cc:permits
           rdf:resource="http://creativecommons.org/ns#Distribution" />
        <cc:requires
           rdf:resource="http://creativecommons.org/ns#Notice" />
        <cc:requires
           rdf:resource="http://creativecommons.org/ns#Attribution" />
        <cc:permits
           rdf:resource="http://creativecommons.org/ns#DerivativeWorks" />
        <cc:requires
           rdf:resource="http://creativecommons.org/ns#ShareAlike" />
      </cc:License>
    </rdf:RDF>
  </metadata>
  <g
     id="layer1"
     inkscape:groupmode="layer"
     inkscape:label="Layer 1">
    <g
       id="g938"
       transform="matrix(0.984375,0,0,0.96296292,-3.1992191,-18.562364)">
      <g
         id="g1521"
         transform="matrix(0.99514741,0,0,1,0.64471561,-1.0384589)">
        <g
           id="g852">
          <rect
             y="26.558754"
             x="3.259584"
             height="55.789837"
             width="63.980831"
             id="rect817"
             style="opacity:1;fill:#DED4CA;fill-opacity:1;fill-rule:nonzero;stroke:#5f5e5c;stroke-width:1.36143422;stroke-linecap:square;stroke-linejoin:bevel;stroke-miterlimit:4;stroke-dasharray:none;stroke-opacity:1;paint-order:markers stroke fill" />
          <rect
             transform="rotate(90)"
             style="opacity:1;fill:#fefbfb;fill-opacity:0.75478929;fill-rule:nonzero;stroke:none;stroke-width:0.06918984;stroke-linecap:square;stroke-linejoin:bevel;stroke-miterlimit:4;stroke-dasharray:none;stroke-opacity:0.79607843;paint-order:markers stroke fill"
             id="rect1500"
             width="39.113285"
             height="1.9279207"
             x="43.239227"
             y="-67.240417" />
          <rect
             y="-5.8748436"
             x="43.209305"
             height="2.6152594"
             width="39.113285"
             id="rect1498"
             style="opacity:1;fill:#fefbfb;fill-opacity:0.75478929;fill-rule:nonzero;stroke:none;stroke-width:0.08058518;stroke-linecap:square;stroke-linejoin:bevel;stroke-miterlimit:4;stroke-dasharray:none;stroke-opacity:0.79607843;paint-order:markers stroke fill"
             transform="rotate(90)" />
          <g
             style="opacity:0.69300022"
             transform="matrix(0.26717791,0,0,0.37695836,-8.2290657,12.422815)"
             id="g851">
            <path
               inkscape:connector-curvature="0"
               style="opacity:1;fill:#f8fafa;fill-opacity:1;fill-rule:nonzero;stroke:none;stroke-width:0.67029333;stroke-linecap:square;stroke-linejoin:bevel;stroke-miterlimit:4;stroke-dasharray:none;stroke-opacity:0.79607843;paint-order:markers stroke fill"
               d="M 47.995635,54.25 H 277.46902 V 85.090837 H 47.995635 Z"
               id="rect831" />
            <path
               style="opacity:1;fill:#93a2a5;fill-opacity:1;fill-rule:nonzero;stroke:none;stroke-width:0.21135312;stroke-linecap:square;stroke-linejoin:bevel;stroke-miterlimit:4;stroke-dasharray:none;stroke-opacity:0.79607843;paint-order:markers stroke fill"
               d="M 277.46902,75.592181 244.49991,54.25 v 21.342181 z"
               id="path1496"
               inkscape:connector-curvature="0"
               sodipodi:nodetypes="cccc" />
          </g>
          <g
             id="g1484"
             style="fill:#DED4CA;fill-opacity:1;stroke:#DED4CA;stroke-width:1.16166735;stroke-miterlimit:4;stroke-dasharray:none;stroke-opacity:1"
             transform="matrix(0.92930117,0,0,0.97367239,2.5265655,4.0162188)">
            <path
               sodipodi:nodetypes="cccccccccc"
               id="rect821"
               style="opacity:1;fill:#DED4CA;fill-opacity:1;fill-rule:nonzero;stroke:#DED4CA;stroke-width:1.16166735;stroke-linecap:square;stroke-linejoin:bevel;stroke-miterlimit:4;stroke-dasharray:none;stroke-opacity:1;paint-order:markers stroke fill"
               d="m 5.056055,36.025647 h 24.762237 l 3.746032,4.177904 H 5.056055 Z M 3.25,40.203551 h 64 v 40.250917 h -64 z"
               inkscape:connector-curvature="0" />
          </g>
          <rect
             style="opacity:1;fill:#ffcc00;fill-opacity:0.99315072;fill-rule:nonzero;stroke:none;stroke-width:0.47680542;stroke-linecap:square;stroke-linejoin:bevel;stroke-miterlimit:4;stroke-dasharray:none;stroke-opacity:1;paint-order:markers stroke fill"
             id="rect825"
             width="5.3264122"
             height="3.0460732"
             x="5.7145939"
             y="28.096727" />
          <rect
             y="28.096727"
             x="13.652818"
             height="3.0460732"
             width="5.3264122"
             id="rect827"
             style="opacity:1;fill:#ff0084;fill-opacity:0.99315072;fill-rule:nonzero;stroke:none;stroke-width:0.47680542;stroke-linecap:square;stroke-linejoin:bevel;stroke-miterlimit:4;stroke-dasharray:none;stroke-opacity:1;paint-order:markers stroke fill" />
          <rect
             style="opacity:1;fill:#aad450;fill-opacity:0.99315072;fill-rule:nonzero;stroke:none;stroke-width:0.47680542;stroke-linecap:square;stroke-linejoin:bevel;stroke-miterlimit:4;stroke-dasharray:none;stroke-opacity:1;paint-order:markers stroke fill"
             id="rect829"
             width="5.3264122"
             height="3.0460732"
             x="21.59104"
             y="28.096727" />
          <rect
             style="opacity:0.704;fill:#8C837B;fill-opacity:0.99657533;fill-rule:nonzero;stroke:none;stroke-width:0.0899523;stroke-linecap:square;stroke-linejoin:bevel;stroke-miterlimit:4;stroke-dasharray:none;stroke-opacity:0.79607843;paint-order:markers stroke fill"
             id="rect855"
             width="64.143631"
             height="1.9870082"
             x="3.1380224"
             y="78.956886" />
          <rect
             y="80.455818"
             x="3.1380224"
             height="1.9870082"
             width="64.292816"
             id="rect853"
             style="opacity:0.597;fill:#8C837B;fill-opacity:0.96907217;fill-rule:nonzero;stroke:none;stroke-width:0.09005686;stroke-linecap:square;stroke-linejoin:bevel;stroke-miterlimit:4;stroke-dasharray:none;stroke-opacity:0.79607843;paint-order:markers stroke fill" />
          <rect
             style="opacity:0.704;fill:#fcfdff;fill-opacity:1;fill-rule:nonzero;stroke:none;stroke-width:0.06058259;stroke-linecap:square;stroke-linejoin:bevel;stroke-miterlimit:4;stroke-dasharray:none;stroke-opacity:0.79607843;paint-order:markers stroke fill"
             id="rect1504"
             width="54.548206"
             height="1.0598483"
             x="8.0103283"
             y="43.691528" />
          <rect
             y="45.030849"
             x="8.0103283"
             height="1.0598483"
             width="54.548206"
             id="rect1523"
             style="opacity:0.597;fill:#000207;fill-opacity:1;fill-rule:nonzero;stroke:none;stroke-width:0.06058259;stroke-linecap:square;stroke-linejoin:bevel;stroke-miterlimit:4;stroke-dasharray:none;stroke-opacity:0.79607843;paint-order:markers stroke fill" />
          <g
             transform="matrix(0.82154223,0,0,0.81614311,-256.70232,-489.73868)"
             id="video"
             style="fill:none;stroke:#8C837B;stroke-width:1.22214;stroke-miterlimit:4;stroke-dasharray:none;stroke-opacity:0.8659">
            <path
               inkscape:connector-curvature="0"
               style="color:#8C837B;font-style:normal;font-variant:normal;font-weight:normal;font-stretch:normal;font-size:medium;line-height:normal;font-family:sans-serif;font-variant-ligatures:normal;font-variant-position:normal;font-variant-caps:normal;font-variant-numeric:normal;font-variant-alternates:normal;font-variant-east-asian:normal;font-feature-settings:normal;font-variation-settings:normal;text-indent:0;text-align:start;text-decoration:none;text-decoration-line:none;text-decoration-style:solid;text-decoration-color:#8C837B;letter-spacing:normal;word-spacing:normal;text-transform:none;writing-mode:lr-tb;direction:ltr;text-orientation:mixed;dominant-baseline:auto;baseline-shift:baseline;text-anchor:start;white-space:normal;shape-padding:0;shape-margin:0;inline-size:0;clip-rule:nonzero;display:inline;overflow:visible;visibility:visible;opacity:1;isolation:auto;mix-blend-mode:normal;color-interpolation:sRGB;color-interpolation-filters:linearRGB;solid-color:#8C837B;solid-opacity:1;vector-effect:none;fill:#8C837B;fill-opacity:0.8659;fill-rule:nonzero;stroke:none;stroke-width:1.22214;stroke-linecap:butt;stroke-linejoin:miter;stroke-miterlimit:4;stroke-dasharray:none;stroke-dashoffset:0;stroke-opacity:1;color-rendering:auto;image-rendering:auto;shape-rendering:auto;text-rendering:auto;enable-background:accumulate;stop-color:#8C837B;stop-opacity:1"
               d="m 335.74609,659.86133 c -0.71762,0 -1.31445,0.59403 -1.31445,1.3125 v 7.72656 7.72656 7.72657 7.72656 c 0,0.71846 0.59683,1.31445 1.31445,1.31445 h 7.02344 25.28711 7.02344 c 0.71762,0 1.31445,-0.59599 1.31445,-1.31445 v -7.72656 -7.72657 -7.72656 -7.72656 c 0,-0.71847 -0.59683,-1.3125 -1.31445,-1.3125 h -7.02344 -25.28711 z m 0,1.2207 h 7.02344 25.28711 7.02344 c 0.0578,0 0.0918,0.0334 0.0918,0.0918 v 7.72656 7.72656 7.72657 7.72656 c 0,0.0584 -0.034,0.0918 -0.0918,0.0918 h -7.02344 -25.28711 -7.02344 c -0.0578,0 -0.0918,-0.0334 -0.0918,-0.0918 v -7.72656 -7.72657 -7.72656 -7.72656 c 0,-0.0584 0.034,-0.0918 0.0918,-0.0918 z m 0.0899,0.18359 v 0.61133 6.93164 h 6.84179 v -7.54297 z m 7.02539,0 v 7.63477 7.72656 7.72657 7.63476 h 25.10351 v -7.63476 -7.72657 -7.72656 -7.63477 z m 25.28711,0 v 7.54297 h 6.83984 v -7.54297 h -0.60937 z m -31.08985,1.22266 h 4.39844 v 5.09961 h -4.39844 z m 7.02539,0 h 22.65821 v 6.41211 7.72656 7.72657 6.41406 h -22.65821 v -6.41406 -7.72657 -7.72656 z m 25.28516,0 h 4.39844 v 5.09961 h -4.39844 z m -33.5332,6.50391 v 7.54297 h 6.84179 v -0.61133 -6.93164 z m 32.3125,0 v 7.54297 h 6.83984 v -0.61133 -6.93164 z m -31.08985,1.22265 h 4.39844 v 5.09961 h -4.39844 z m 32.31055,0 h 4.39844 v 5.09961 h -4.39844 z m -17.39648,0.3418 -0.002,0.002 h -0.002 c -0.41797,0.23062 -0.67969,0.67386 -0.67969,1.15235 v 9.83203 c 0,0.47848 0.26285,0.92201 0.68164,1.15234 h 0.002 c 0.19563,0.10696 0.41363,0.16211 0.63086,0.16211 0.24672,0 0.49015,-0.0705 0.70312,-0.20508 h 0.002 l 7.72657,-4.91796 c 0.37684,-0.24076 0.60742,-0.65875 0.60742,-1.10743 0,-0.44867 -0.23058,-0.86666 -0.60742,-1.10742 l -7.72657,-4.91797 h -0.002 c -0.40295,-0.25512 -0.91472,-0.27344 -1.33398,-0.0449 z m 0.58593,1.07422 c 0.0306,-0.0159 0.065,-0.0154 0.0937,0.002 l 7.72657,4.91602 c 0.0277,0.0177 0.043,0.0463 0.043,0.0781 0,0.0318 -0.0152,0.0604 -0.043,0.0781 l -7.72657,4.91601 c -0.0156,0.009 -0.0334,0.0137 -0.0488,0.0137 -0.016,0 -0.0298,-0.003 -0.0449,-0.0117 -0.0292,-0.0171 -0.0469,-0.0468 -0.0469,-0.0801 v -9.83203 c 0,-0.0333 0.0182,-0.0632 0.0469,-0.0801 z m 0.13672,0.24414 v 9.50391 l 0.93946,-0.59766 6.52539,-4.1543 z m 1.22071,2.22656 3.96679,2.52539 -3.96679,2.52539 z m -18.08008,2.61719 v 0.61133 6.93164 h 6.84179 v -7.54297 z m 32.3125,0 v 0.61133 6.93164 h 6.83984 v -7.54297 z m -31.08985,1.22266 h 4.39844 v 5.09961 h -4.39844 z m 32.31055,0 h 4.39844 v 5.09961 h -4.39844 z m -33.5332,6.5039 v 7.54297 h 0.61133 6.23046 v -7.54297 z m 32.3125,0 v 7.54297 h 6.83984 v -0.61133 -6.93164 z m -31.08985,1.22266 h 4.39844 v 5.09961 h -4.39844 z m 32.31055,0 h 4.39844 v 5.09961 h -4.39844 z"
               id="path852" />
          </g>
        </g>
      </g>
    </g>
  </g>
</svg>
