<?xml version="1.0" encoding="UTF-8" standalone="no"?>
<svg xmlns:dc="http://purl.org/dc/elements/1.1/" xmlns:cc="http://creativecommons.org/ns#" xmlns:rdf="http://www.w3.org/1999/02/22-rdf-syntax-ns#" xmlns:svg="http://www.w3.org/2000/svg" xmlns="http://www.w3.org/2000/svg" xmlns:sodipodi="http://sodipodi.sourceforge.net/DTD/sodipodi-0.dtd" xmlns:inkscape="http://www.inkscape.org/namespaces/inkscape" inkscape:version="1.0beta2 (2b71d25d45, 2019-12-03)" sodipodi:docname="org.gnome.almanah.svg" id="svg48" version="1.1" width="48" height="48">
  <metadata id="metadata54">
    <rdf:RDF>
      <cc:Work rdf:about="">
        <dc:format>image/svg+xml</dc:format>
        <dc:type rdf:resource="http://purl.org/dc/dcmitype/StillImage" />
      </cc:Work>
    </rdf:RDF>
  </metadata>
  <defs id="defs52" />
  <sodipodi:namedview inkscape:current-layer="svg48" inkscape:cy="24" inkscape:cx="24" inkscape:zoom="16.09" showgrid="false" id="namedview50" inkscape:window-height="480" inkscape:window-width="640" inkscape:pageshadow="2" inkscape:pageopacity="0" guidetolerance="10" gridtolerance="10" objecttolerance="10" borderopacity="1" inkscape:document-rotation="0" bordercolor="#666666" pagecolor="#ffffff" />
  <rect style="fill:#8ba2b4" id="rect2" y="3" x="2" width="43" ry="1.452703" height="43" fill="#ac9d93" />
  <path id="path4" fill="#fff" d="m5 6h17l1 4 .997437-4h17.002563v37h-17l-1-5-1 5h-17z" />
  <g style="fill:#8b9eb4" id="g46" fill-rule="evenodd" fill="#ac9d93">
    <path id="path6" d="m8 8a1.0001 1.0001 0 1 0 0 2h7a1.0001 1.0001 0 1 0 0-2z" />
    <path id="path8" d="m7 12.349609a.650391.650391 0 1 0 0 1.300782h5a.650391.650391 0 1 0 0-1.300782z" />
    <path id="path10" d="m15 12.349609a.650391.650391 0 1 0 0 1.300782h3a.650391.650391 0 1 0 0-1.300782z" />
    <path id="path12" d="m7 15.349609a.650391.650391 0 1 0 0 1.300782h6a.650391.650391 0 1 0 0-1.300782z" />
    <path id="path14" d="m16 15.349609a.650391.650391 0 1 0 0 1.300782h3a.650391.650391 0 1 0 0-1.300782z" />
    <path id="path16" d="m7 18.349609a.650391.650391 0 1 0 0 1.300782h2a.650391.650391 0 1 0 0-1.300782z" />
    <path id="path18" d="m12 18.349609a.650391.650391 0 1 0 0 1.300782h5a.650391.650391 0 1 0 0-1.300782z" />
    <path id="path20" d="m7 21.349609a.650391.650391 0 1 0 0 1.300782h9a.650391.650391 0 1 0 0-1.300782z" />
    <path id="path22" d="m27 8a1.0001 1.0001 0 1 0 0 2h7a1.0001 1.0001 0 1 0 0-2z" />
    <path id="path24" d="m27 12.349609a.650391.650391 0 1 0 0 1.300782h11a.650391.650391 0 1 0 0-1.300782z" />
    <path id="path26" d="m27 15.349609a.650391.650391 0 1 0 0 1.300782h3a.650391.650391 0 1 0 0-1.300782z" />
    <path id="path28" d="m33 15.349609a.650391.650391 0 1 0 0 1.300782h3a.650391.650391 0 1 0 0-1.300782z" />
    <path id="path30" d="m27 18.349609a.650391.650391 0 1 0 0 1.300782h7a.650391.650391 0 1 0 0-1.300782z" />
    <path id="path32" d="m37 18.349609a.650391.650391 0 1 0 0 1.300782h1a.650391.650391 0 1 0 0-1.300782z" />
    <path id="path34" d="m27 21.349609a.650391.650391 0 1 0 0 1.300782h3a.650391.650391 0 1 0 0-1.300782z" />
    <path id="path36" d="m33 21.349609a.650391.650391 0 1 0 0 1.300782h2a.650391.650391 0 1 0 0-1.300782z" />
    <path id="path38" d="m38 21.349609a.650391.650391 0 1 0 0 1.300782h1a.650391.650391 0 1 0 0-1.300782z" />
    <path id="path40" d="m27 24.349609a.650391.650391 0 1 0 0 1.300782h9a.650391.650391 0 1 0 0-1.300782z" />
    <path id="path42" d="m27 27.349609a.650391.650391 0 1 0 0 1.300782h4a.650391.650391 0 1 0 0-1.300782z" />
    <path id="path44" d="m35 27.349609a.650391.650391 0 1 0 0 1.300782h3a.650391.650391 0 1 0 0-1.300782z" />
  </g>
</svg>
