<?xml version="1.0" encoding="UTF-8" standalone="no"?>
<svg xmlns:dc="http://purl.org/dc/elements/1.1/" xmlns:cc="http://creativecommons.org/ns#" xmlns:rdf="http://www.w3.org/1999/02/22-rdf-syntax-ns#" xmlns:svg="http://www.w3.org/2000/svg" xmlns="http://www.w3.org/2000/svg" xmlns:sodipodi="http://sodipodi.sourceforge.net/DTD/sodipodi-0.dtd" xmlns:inkscape="http://www.inkscape.org/namespaces/inkscape" height="48" width="48" version="1.1" id="svg10" sodipodi:docname="org.gnome.Camara.svg" inkscape:version="1.0beta2 (2b71d25d45, 2019-12-03)">
  <metadata id="metadata16">
    <rdf:RDF>
      <cc:Work rdf:about="">
        <dc:format>image/svg+xml</dc:format>
        <dc:type rdf:resource="http://purl.org/dc/dcmitype/StillImage" />
      </cc:Work>
    </rdf:RDF>
  </metadata>
  <defs id="defs14" />
  <sodipodi:namedview pagecolor="#ffffff" bordercolor="#666666" inkscape:document-rotation="0" borderopacity="1" objecttolerance="10" gridtolerance="10" guidetolerance="10" inkscape:pageopacity="0" inkscape:pageshadow="2" inkscape:window-width="640" inkscape:window-height="480" id="namedview12" showgrid="false" inkscape:zoom="7.502" inkscape:cx="24" inkscape:cy="25.44" inkscape:current-layer="svg10" />
  <circle cx="24" cy="24" fill="#f57e7f" opacity=".99" id="circle2" style="fill:#566380;stroke-width:0.3;stroke:#ffffff;stroke-opacity:0.8464" r="22.62" />
  <g transform="matrix(1.334,0,0,1.334,-7.713,-9.722)" id="g8">
    <circle style="fill:#edfefe;stroke-width:0.251" id="path843" cx="23.77" cy="25.28" r="13.39" />
    <path d="M 23.42,12.1 C 20.1,12.19 17.09,13.51 14.83,15.62 L 19.84,24.31 25.64,14.25 26.69,12.44 C 25.93,12.27 25.14,12.14 24.33,12.11 24.02,12.1 23.72,12.09 23.42,12.1 Z M 27.66,12.7 26.48,14.74 22.64,21.39 H 36.34 C 35.07,17.26 31.83,13.99 27.66,12.7 Z M 14.12,16.33 C 12.05,18.55 10.74,21.46 10.61,24.7 10.55,25.9 10.67,27.07 10.93,28.2 H 20.96 Z M 26.58,22.36 33.43,34.23 C 35.47,32.04 36.78,29.14 36.94,25.9 V 25.82 C 36.99,24.62 36.86,23.47 36.61,22.36 Z M 27.7,26.25 20.85,38.12 C 21.6,38.29 22.37,38.41 23.16,38.44 26.84,38.62 30.22,37.27 32.72,34.94 Z M 11.19,29.17 C 12.46,33.29 15.71,36.57 19.88,37.86 L 24.89,29.17 Z" fill="#fff" fill-opacity=".48951" id="path4" style="fill:#c0a4d3;fill-opacity:0.9537;stroke-width:0.972" inkscape:connector-curvature="0" />
    <path d="M 23.42,12.1 A 13.18,13.18 0 0 0 10.61,24.7 13.18,13.18 0 0 0 23.16,38.44 13.18,13.18 0 0 0 36.94,25.91 V 25.82 A 13.18,13.18 0 0 0 24.33,12.11 13.18,13.18 0 0 0 23.42,12.1 Z M 23.48,14.67 A 10.61,10.61 0 0 1 24.21,14.68 10.61,10.61 0 0 1 34.37,25.71 V 25.79 A 10.61,10.61 0 0 1 23.28,35.88 10.61,10.61 0 0 1 13.16,24.82 10.61,10.61 0 0 1 23.48,14.67 Z" fill="#fcf5f5" id="path6" style="fill:#7a93d6;stroke-width:0.972" inkscape:connector-curvature="0" />
    <ellipse ry="0.04996" rx="0.1998" cy="32.75" cx="25.94" id="path834" style="fill:#edfefe;stroke:#ffffff;stroke-width:0.2249;stroke-opacity:0.8464" />
  </g>
</svg>
