<?xml version="1.0" encoding="UTF-8" standalone="no"?>
<svg xmlns:dc="http://purl.org/dc/elements/1.1/" xmlns:cc="http://creativecommons.org/ns#" xmlns:rdf="http://www.w3.org/1999/02/22-rdf-syntax-ns#" xmlns:svg="http://www.w3.org/2000/svg" xmlns="http://www.w3.org/2000/svg" xmlns:sodipodi="http://sodipodi.sourceforge.net/DTD/sodipodi-0.dtd" xmlns:inkscape="http://www.inkscape.org/namespaces/inkscape" inkscape:version="1.0beta2 (2b71d25d45, 2019-12-03)" sodipodi:docname="acreloaded.svg" id="svg22" version="1.1" height="64" width="64">
  <metadata id="metadata28">
    <rdf:RDF>
      <cc:Work rdf:about="">
        <dc:format>image/svg+xml</dc:format>
        <dc:type rdf:resource="http://purl.org/dc/dcmitype/StillImage" />
      </cc:Work>
    </rdf:RDF>
  </metadata>
  <defs id="defs26" />
  <sodipodi:namedview inkscape:current-layer="svg22" inkscape:cy="32" inkscape:cx="32" inkscape:zoom="12.07" showgrid="false" id="namedview24" inkscape:window-height="480" inkscape:window-width="640" inkscape:pageshadow="2" inkscape:pageopacity="0" guidetolerance="10" gridtolerance="10" objecttolerance="10" borderopacity="1" inkscape:document-rotation="0" bordercolor="#666666" pagecolor="#ffffff" />
  <circle r="29.9" cy="32" cx="32" id="path853" style="fill:#eaf1ec;stroke-width:0.4068;stroke-opacity:0.7163" />
  <path inkscape:connector-curvature="0" id="path4" d="M 32.09,12.67 A 4.087,3.994 0 0 0 29.96,13.2 L 15.09,21.59 A 4.087,3.994 0 0 0 13.05,25.05 V 41.82 A 4.087,3.994 0 0 0 15.09,45.27 L 29.96,53.67 A 4.087,3.994 0 0 0 34.04,53.67 L 48.91,45.27 A 4.087,3.994 0 0 0 50.95,41.82 V 25.05 A 4.087,3.994 0 0 0 48.91,21.59 L 34.04,13.2 A 4.087,3.994 0 0 0 32.09,12.67 Z" style="fill:#f25a62;stroke-width:0.6969" />
  <path inkscape:connector-curvature="0" d="M 41.82,40.25 V 45.72 H 36.34 V 50.41 H 41.82 V 55.88 H 46.5 V 50.41 H 51.98 V 45.72 H 46.5 V 40.25 Z" style="fill:#6bc379;stroke-width:0.7815" id="rect14" />
  <g transform="matrix(0.9891,0,0,0.9686,0.3059,0.9721)" style="fill:#a32929" id="g866">
    <path inkscape:connector-curvature="0" id="path868" d="M 13.65,23.24 C 13.54,23.42 13.44,23.61 13.36,23.81 L 32,32.84 50.64,23.8 C 50.56,23.61 50.46,23.42 50.35,23.24 L 32,32.14 Z" style="color:#000000;stroke-width:0.7018" />
    <path inkscape:connector-curvature="0" d="M 13.52,22.79 13.35,23.06 C 13.23,23.25 13.12,23.46 13.04,23.68 L 12.91,23.98 31.35,32.92 31.53,54.61 H 32.83 L 32.65,32.91 51.09,23.97 50.96,23.66 C 50.87,23.45 50.77,23.25 50.65,23.05 L 50.48,22.79 32,31.75 Z" style="color:#000000;stroke-width:0.7018" id="path870" />
  </g>
</svg>
