<?xml version="1.0" encoding="UTF-8" standalone="no"?>
<svg xmlns:dc="http://purl.org/dc/elements/1.1/" xmlns:cc="http://creativecommons.org/ns#" xmlns:rdf="http://www.w3.org/1999/02/22-rdf-syntax-ns#" xmlns:svg="http://www.w3.org/2000/svg" xmlns="http://www.w3.org/2000/svg" xmlns:sodipodi="http://sodipodi.sourceforge.net/DTD/sodipodi-0.dtd" xmlns:inkscape="http://www.inkscape.org/namespaces/inkscape" inkscape:version="1.0beta2 (2b71d25d45, 2019-12-03)" sodipodi:docname="AdobePhotoshop.svg" id="svg20" version="1" height="64" width="64">
  <metadata id="metadata26">
    <rdf:RDF>
      <cc:Work rdf:about="">
        <dc:format>image/svg+xml</dc:format>
        <dc:type rdf:resource="http://purl.org/dc/dcmitype/StillImage" />
      </cc:Work>
    </rdf:RDF>
  </metadata>
  <defs id="defs24" />
  <sodipodi:namedview inkscape:current-layer="svg20" inkscape:cy="32" inkscape:cx="32" inkscape:zoom="12.07" showgrid="false" id="namedview22" inkscape:window-height="480" inkscape:window-width="640" inkscape:pageshadow="2" inkscape:pageopacity="0" guidetolerance="10" gridtolerance="10" objecttolerance="10" borderopacity="1" inkscape:document-rotation="0" bordercolor="#666666" pagecolor="#ffffff" />
  <rect id="rect4" ry="29.16" rx="29.16" y="2.84" x="2.84" height="58.32" width="58.32" style="fill:#3c588f;stroke-width:1.0414" />
  <path id="path6" d="m 14.000057,19.113614 c 0,0 4.20194,-0.114994 7.661091,-0.114994 4.799931,0.001 10.337852,1.600977 10.337852,10.000857 0,8.399879 -5.538321,9.999857 -10.338452,9.971257 -1.062245,0.04632 -1.661236,0.05738 -1.661236,0.05738 l 0,7.971886 -5.999915,0 z m 5.999515,15.874373 c 0.610091,0.06176 0.608291,0.03204 1.512578,0.02074 3.011957,-0.036 4.487936,-3.325953 4.487936,-6.207912 0,-2.587963 -1.147984,-5.689918 -4.039942,-5.799917 -1.153984,-0.044 -1.960172,0 -1.960172,0 z" style="opacity:0.2" />
  <path id="path8" d="m 14.000057,18.115628 c 0,0 4.20194,-0.114995 7.661091,-0.114995 4.799931,0 10.337852,1.599977 10.337852,9.999857 0,8.39988 -5.538321,9.999857 -10.338452,9.971258 -1.062245,0.04632 -1.661236,0.05738 -1.661236,0.05738 l 0,7.971886 -5.999915,0 z m 5.999515,15.874373 c 0.610091,0.06176 0.608291,0.03204 1.512578,0.02074 3.011957,-0.038 4.487936,-3.327952 4.487936,-6.209911 0,-2.587963 -1.147984,-5.689919 -4.039942,-5.799917 -1.153984,-0.044 -1.960172,0 -1.960172,0 z" style="fill:#5ebfe6" />
  <g id="g12" transform="matrix(0.21419694,0,0,0.23307667,1.2675195,-0.70580261)" style="opacity:0.2">
    <path id="path10" d="m 162.15,178.93 c 5.109,3.135 14.876,8.5808 23.094,8.5808 8.396,0 14.252,-4.7723 14.252,-9.3853 0,-4.619 -1.5608,-10.288 -11.968,-13.796 -18.439,-6.279 -25.559,-13.795 -25.375,-24.315 0,-16.991 14.238,-29.731 36.328,-29.731 10.352,0 24.357,8.5808 24.357,8.5808 l 0,17.162 c -4.019,-2.218 -15.777,-8.5808 -23.443,-8.5808 -6.758,0 -13.479,4.9994 -13.479,9.6124 0,5.9349 6.3605,6.464 17.313,10.344 16.976,5.908 24.096,14.584 24.277,27.879 0,16.805 -12.954,30.168 -38.701,29.357 -8.835,-0.278 -19.901,-4.8568 -26.656,-8.5458 -1.9e-4,-6.7093 -1.4e-4,-10.452 0.001,-17.162 z" />
  </g>
  <g id="g16" transform="matrix(0.21419694,0,0,0.23307667,1.2675195,-1.704789)" style="fill:#5ebfe6">
    <path id="path14" d="m 162.15,178.93 c 5.109,3.135 14.876,8.5808 23.094,8.5808 8.396,0 14.252,-4.7723 14.252,-9.3853 0,-4.619 -1.5608,-10.288 -11.968,-13.796 -18.439,-6.279 -25.559,-13.795 -25.375,-24.315 0,-16.991 14.238,-29.731 36.328,-29.731 10.352,0 24.357,8.5808 24.357,8.5808 l 0,17.162 c -4.019,-2.218 -15.777,-8.5808 -23.443,-8.5808 -6.758,0 -13.479,4.9994 -13.479,9.6124 0,5.9349 6.3605,6.464 17.313,10.344 16.976,5.908 24.096,14.584 24.277,27.879 0,16.805 -12.954,30.168 -38.701,29.357 -8.835,-0.278 -19.901,-4.8568 -26.656,-8.5458 -1.9e-4,-6.7093 -1.4e-4,-10.452 0.001,-17.162 z" />
  </g>
  <path id="path18" d="M 6.8007812 4 C 5.2496034 4 4 5.2496034 4 6.8007812 L 4 7.8027344 C 4 6.2515566 5.2496034 5.0019531 6.8007812 5.0019531 L 57.199219 5.0019531 C 58.749196 5.0019531 60 6.2515566 60 7.8027344 L 60 6.8007812 C 60 5.2496035 58.749196 4 57.199219 4 L 6.8007812 4 z" style="opacity:0.1;fill:#ffffff" />
</svg>
