<?xml version="1.0" encoding="UTF-8" standalone="no"?>
<svg xmlns:dc="http://purl.org/dc/elements/1.1/" xmlns:cc="http://creativecommons.org/ns#" xmlns:rdf="http://www.w3.org/1999/02/22-rdf-syntax-ns#" xmlns:svg="http://www.w3.org/2000/svg" xmlns="http://www.w3.org/2000/svg" xmlns:sodipodi="http://sodipodi.sourceforge.net/DTD/sodipodi-0.dtd" xmlns:inkscape="http://www.inkscape.org/namespaces/inkscape" inkscape:version="1.0beta2 (2b71d25d45, 2019-12-03)" sodipodi:docname="advanced-rest-client.svg" id="svg18" version="1" height="64" width="64">
  <metadata id="metadata24">
    <rdf:RDF>
      <cc:Work rdf:about="">
        <dc:format>image/svg+xml</dc:format>
        <dc:type rdf:resource="http://purl.org/dc/dcmitype/StillImage" />
      </cc:Work>
    </rdf:RDF>
  </metadata>
  <defs id="defs22" />
  <sodipodi:namedview inkscape:current-layer="svg18" inkscape:cy="32" inkscape:cx="32" inkscape:zoom="12.07" showgrid="false" id="namedview20" inkscape:window-height="480" inkscape:window-width="640" inkscape:pageshadow="2" inkscape:pageopacity="0" guidetolerance="10" gridtolerance="10" objecttolerance="10" borderopacity="1" inkscape:document-rotation="0" bordercolor="#666666" pagecolor="#ffffff" />
  <rect id="rect4" ry="28.5" rx="28.5" y="3.505" x="3.505" height="56.99" width="56.99" style="fill:#7793ac;stroke-width:1.0178" />
  <path id="path6" d="M 23,14 16,22.5 9,31 h 7 V 51 H 30 V 31 h 7 l -7,-8.5 z m 19,7 v 12 h -5.800781 l 4.90039,5.599609 L 46,44.199219 50.900391,38.599609 55.800781,33 H 50 V 21 Z" style="opacity:0.2" />
  <rect id="rect8" y="28" x="16" height="22" width="14" style="fill:#ffffff" />
  <path id="path10" d="m 14.542897,10.580241 3.644091,6.311751 3.644091,6.311751 -7.288182,0 -7.2881818,-1e-6 3.6440908,-6.31175 z" transform="matrix(1.920918,0,0,1.3466945,-4.9357132,-1.248352)" style="fill:#ffffff" />
  <rect id="rect12" transform="scale(1,-1)" y="-36" x="42" height="16" width="8" style="fill:#c4e4e6" />
  <path id="path14" d="m 14.542897,10.580241 3.644091,6.311751 3.644091,6.311751 -7.288182,0 -7.2881818,-1e-6 3.6440908,-6.31175 z" transform="matrix(1.3446426,0,0,-0.88723402,26.445,52.58715)" style="fill:#c4e4e6" />
</svg>
