<?xml version="1.0" encoding="UTF-8" standalone="no"?>
<svg xmlns:dc="http://purl.org/dc/elements/1.1/" xmlns:cc="http://creativecommons.org/ns#" xmlns:rdf="http://www.w3.org/1999/02/22-rdf-syntax-ns#" xmlns:svg="http://www.w3.org/2000/svg" xmlns="http://www.w3.org/2000/svg" xmlns:sodipodi="http://sodipodi.sourceforge.net/DTD/sodipodi-0.dtd" xmlns:inkscape="http://www.inkscape.org/namespaces/inkscape" inkscape:version="1.0beta2 (2b71d25d45, 2019-12-03)" sodipodi:docname="gnome-subtitles.svg" id="svg45" version="1.1" width="48" height="48">
  <metadata id="metadata51">
    <rdf:RDF>
      <cc:Work rdf:about="">
        <dc:format>image/svg+xml</dc:format>
        <dc:type rdf:resource="http://purl.org/dc/dcmitype/StillImage" />
      </cc:Work>
    </rdf:RDF>
  </metadata>
  <defs id="defs49" />
  <sodipodi:namedview inkscape:current-layer="g43" inkscape:cy="24" inkscape:cx="24" inkscape:zoom="16.09" showgrid="false" id="namedview47" inkscape:window-height="480" inkscape:window-width="480" inkscape:pageshadow="2" inkscape:pageopacity="0" guidetolerance="10" gridtolerance="10" objecttolerance="10" borderopacity="1" inkscape:document-rotation="0" bordercolor="#666666" pagecolor="#ffffff" />
  <clipPath id="a">
    <path id="path2" d="m3.4527029 3h40.0945941c.804798 0 1.452703.4879055 1.452703 1.4527029v8.5455121l-43 .151523v-8.6970351c0-.8047974.4879055-1.4527029 1.4527029-1.4527029z" />
  </clipPath>
  <rect style="fill:#9b93ac" id="rect5" y="3" x="2" width="43" ry="1.452703" height="43" fill="#ac939d" />
  <path style="fill:#373f48" id="path7" fill="#48373e" d="m3.4527029 3h40.0945941c.804798 0 1.452703.4879055 1.452703 1.4527029v8.5455121l-43 .151523v-8.6970351c0-.8047974.4879055-1.4527029 1.4527029-1.4527029z" />
  <g id="g21" stroke-width="3" stroke-linecap="square" stroke="#fff" fill="none" clip-path="url(#a)">
    <path id="path9" d="m9 3-2 5 2 5" />
    <path id="path11" d="m16 3-2 5 2 5" />
    <path id="path13" d="m23 3-2 5 2 5" />
    <path id="path15" d="m30 3-2 5 2 5" />
    <path id="path17" d="m37 3-2 5 2 5" />
    <path id="path19" d="m44 3-2 5 2 5" />
  </g>
  <g style="fill:#373f48" id="g43" fill-rule="evenodd">
    <path style="stroke:#373c48" id="path23" stroke-width=".8" stroke="#48373e" fill="#3c4147" d="m2 8h43" />
    <path id="path25" fill="#fff" d="m6 25.75a1.250125 1.250125 0 1 0 0 2.5h11a1.250125 1.250125 0 1 0 0-2.5z" />
    <path id="path27" fill="#fff" d="m21 25.75a1.250125 1.250125 0 1 0 0 2.5h8a1.250125 1.250125 0 1 0 0-2.5z" />
    <path id="path29" fill="#fff" d="m33 25.75a1.250125 1.250125 0 1 0 0 2.5h4a1.250125 1.250125 0 1 0 0-2.5z" />
    <path id="path31" fill="#fff" d="m6 29.75a1.250125 1.250125 0 1 0 0 2.5h17a1.250125 1.250125 0 1 0 0-2.5z" />
    <path id="path33" fill="#fff" d="m27 29.75a1.250125 1.250125 0 1 0 0 2.5h3a1.250125 1.250125 0 1 0 0-2.5z" />
    <path id="path35" fill="#fff" d="m6 33.75a1.250125 1.250125 0 1 0 0 2.5h8a1.250125 1.250125 0 1 0 0-2.5z" />
    <path id="path37" fill="#fff" d="m18 33.75a1.250125 1.250125 0 1 0 0 2.5h13a1.250125 1.250125 0 1 0 0-2.5z" />
    <path id="path39" fill="#fff" d="m35 33.75a1.250125 1.250125 0 1 0 0 2.5h5a1.250125 1.250125 0 1 0 0-2.5z" />
    <path id="path41" fill="#fff" d="m6 37.75a1.250125 1.250125 0 1 0 0 2.5h12a1.250125 1.250125 0 1 0 0-2.5z" />
  </g>
</svg>
