<?xml version="1.0" encoding="UTF-8" standalone="no"?>
<svg xmlns:dc="http://purl.org/dc/elements/1.1/" xmlns:cc="http://creativecommons.org/ns#" xmlns:rdf="http://www.w3.org/1999/02/22-rdf-syntax-ns#" xmlns:svg="http://www.w3.org/2000/svg" xmlns="http://www.w3.org/2000/svg" xmlns:sodipodi="http://sodipodi.sourceforge.net/DTD/sodipodi-0.dtd" xmlns:inkscape="http://www.inkscape.org/namespaces/inkscape" inkscape:version="1.0beta2 (2b71d25d45, 2019-12-03)" sodipodi:docname="airvpn.svg" id="svg12" version="1.1" height="64" width="64">
  <metadata id="metadata18">
    <rdf:RDF>
      <cc:Work rdf:about="">
        <dc:format>image/svg+xml</dc:format>
        <dc:type rdf:resource="http://purl.org/dc/dcmitype/StillImage" />
      </cc:Work>
    </rdf:RDF>
  </metadata>
  <defs id="defs16" />
  <sodipodi:namedview inkscape:current-layer="svg12" inkscape:cy="32" inkscape:cx="32" inkscape:zoom="12.07" showgrid="false" id="namedview14" inkscape:window-height="480" inkscape:window-width="640" inkscape:pageshadow="2" inkscape:pageopacity="0" guidetolerance="10" gridtolerance="10" objecttolerance="10" borderopacity="1" inkscape:document-rotation="0" bordercolor="#666666" pagecolor="#ffffff" />
  <circle r="30.04" cy="32" cx="32" id="path843" style="fill:#ecf3f8;stroke-width:0.4;stroke-opacity:0.7163" />
  <path inkscape:connector-curvature="0" id="path4" d="M 28.92,12 C 21.95,11.99 17.6,16.54 15.57,20.76 9.985,22.88 5.914,28.23 5.914,34.49 5.914,42.54 12.57,49.27 20.65,49.27 H 43.35 C 51.43,49.27 58.09,42.54 58.09,34.49 58.09,26.44 51.43,19.71 43.35,19.71 43.28,19.71 43.2,19.71 43.12,19.72 43.06,19.72 43,19.75 42.94,19.76 42.47,19.5 41.97,19.37 41.47,19.17 37.8,14.69 35.9,12.01 28.92,12 Z" style="fill:#235f96;stroke-width:0.9316" />
  <path inkscape:connector-curvature="0" id="path8" d="M 28.93,19.45 C 24.91,19.45 21.65,22.73 21.65,26.78 21.65,26.96 21.67,27.14 21.69,27.32 21.36,27.26 21.01,27.2 20.65,27.16 16.63,27.16 13.37,30.44 13.37,34.49 13.37,38.53 16.63,41.81 20.65,41.81 H 43.35 C 47.37,41.81 50.63,38.53 50.63,34.49 50.63,30.44 47.37,27.16 43.35,27.16 42.55,27.19 41.8,27.36 41.12,27.64 40.1,26.34 38.52,25.51 36.75,25.51 36.53,25.52 36.31,25.53 36.1,25.55 35.52,22.09 32.53,19.45 28.92,19.45 Z" style="fill:#cae4f1;stroke-width:0.9316" />
</svg>
