<?xml version="1.0" encoding="UTF-8" standalone="no"?>
<svg xmlns:dc="http://purl.org/dc/elements/1.1/" xmlns:cc="http://creativecommons.org/ns#" xmlns:rdf="http://www.w3.org/1999/02/22-rdf-syntax-ns#" xmlns:svg="http://www.w3.org/2000/svg" xmlns="http://www.w3.org/2000/svg" xmlns:sodipodi="http://sodipodi.sourceforge.net/DTD/sodipodi-0.dtd" xmlns:inkscape="http://www.inkscape.org/namespaces/inkscape" inkscape:version="1.0beta2 (2b71d25d45, 2019-12-03)" sodipodi:docname="Alacritty.svg" id="svg30" version="1" height="64" width="64">
  <metadata id="metadata36">
    <rdf:RDF>
      <cc:Work rdf:about="">
        <dc:format>image/svg+xml</dc:format>
        <dc:type rdf:resource="http://purl.org/dc/dcmitype/StillImage" />
      </cc:Work>
    </rdf:RDF>
  </metadata>
  <defs id="defs34" />
  <sodipodi:namedview inkscape:current-layer="svg30" inkscape:cy="32" inkscape:cx="32" inkscape:zoom="12.07" showgrid="false" id="namedview32" inkscape:window-height="480" inkscape:window-width="640" inkscape:pageshadow="2" inkscape:pageopacity="0" guidetolerance="10" gridtolerance="10" objecttolerance="10" borderopacity="1" inkscape:document-rotation="0" bordercolor="#666666" pagecolor="#ffffff" />
  <circle r="29.4" cy="32" cx="32" id="path861" style="fill:#ebf8eb;stroke-width:0.4051;stroke-opacity:0.7163" />
  <path id="path12" d="m 32,31.914062 -2.5,6.097656 -0.785156,1.914064 C 30.64249,45.903096 30.843448,46.59402 31.757812,51 h 0.484376 C 33.15655,46.59402 33.35751,45.903096 35.285156,39.925782 L 34.5,38.011718 Z" style="opacity:0.2" />
  <path id="path14" d="m 29.500334,37.011462 -0.784282,1.91354 C 30.8235,45.459854 30.8235,45.459854 32,51.160464 c 1.176498,-5.70061 1.176498,-5.70061 3.283946,-12.235462 L 34.499666,37.011462 32,30.912628 Z" style="fill:#3c98fe" />
  <path id="path16" d="m 29.25603,19.000002 h 5.487936 l 12.151868,30 H 41.79989 L 32,26.086914 22.200108,49.000002 h -5.095942 z" style="opacity:0.2" />
  <path id="path18" d="m 29.25603,18 h 5.487936 L 46.895834,48 H 41.79989 L 32,25.086912 22.200108,48 h -5.095942 z" style="fill:#ec7a02" />
  <path id="path22" d="M 32 30.914062 L 29.5 37.011719 L 28.714844 38.925781 C 28.808264 39.215468 28.84559 39.344006 28.890625 39.496094 L 29.5 38.011719 L 32 31.914062 L 34.5 38.011719 L 35.109375 39.496094 C 35.15441 39.344006 35.191735 39.215468 35.285156 38.925781 L 34.5 37.011719 L 32 30.914062 z" style="opacity:0.2;fill:#ffffff" />
  <path id="path24" d="M 29.257812 18 L 17.105469 48 L 17.509766 48 L 29.257812 19 L 34.742188 19 L 46.490234 48 L 46.894531 48 L 34.742188 18 L 29.257812 18 z" style="opacity:0.2;fill:#ffffff" />
</svg>
