<?xml version="1.0" encoding="UTF-8" standalone="no"?>
<svg xmlns:dc="http://purl.org/dc/elements/1.1/" xmlns:cc="http://creativecommons.org/ns#" xmlns:rdf="http://www.w3.org/1999/02/22-rdf-syntax-ns#" xmlns:svg="http://www.w3.org/2000/svg" xmlns="http://www.w3.org/2000/svg" xmlns:sodipodi="http://sodipodi.sourceforge.net/DTD/sodipodi-0.dtd" xmlns:inkscape="http://www.inkscape.org/namespaces/inkscape" inkscape:version="1.0beta2 (2b71d25d45, 2019-12-03)" sodipodi:docname="albion-online.svg" id="svg30" viewBox="0 0 16.93 16.93" version="1.1" height="64" width="64">
  <metadata id="metadata36">
    <rdf:RDF>
      <cc:Work rdf:about="">
        <dc:format>image/svg+xml</dc:format>
        <dc:type rdf:resource="http://purl.org/dc/dcmitype/StillImage" />
      </cc:Work>
    </rdf:RDF>
  </metadata>
  <defs id="defs34" />
  <sodipodi:namedview inkscape:current-layer="svg30" inkscape:cy="32" inkscape:cx="32" inkscape:zoom="12.07" showgrid="false" id="namedview32" inkscape:window-height="480" inkscape:window-width="640" inkscape:pageshadow="2" inkscape:pageopacity="0" guidetolerance="10" gridtolerance="10" objecttolerance="10" borderopacity="1" inkscape:document-rotation="0" bordercolor="#666666" pagecolor="#ffffff" />
  <circle r="7.869" cy="8.465" cx="8.465" id="path861" style="fill:#e5f5f5;stroke-width:0.1058;stroke-opacity:0.7163" />
  <g id="g28" transform="translate(0,-280.06665)">
    <g id="g6" transform="matrix(1.722,0,0,1.76,1.269,-226.3)" style="opacity:0.2">
      <path inkscape:connector-curvature="0" id="path2" d="M 3.069,292.1 H 5.292 V 295.4 L 4.18,296.5 3.069,295.4 Z" />
      <path inkscape:connector-curvature="0" id="path4" d="M 3.069,292.1 H 4.18 V 296.5 L 3.069,295.4 Z" />
    </g>
    <g id="g12" transform="matrix(1.722,0,0,1.76,1.269,-226.5)">
      <path inkscape:connector-curvature="0" id="path8" d="M 3.069,292.1 H 5.292 V 295.4 L 4.18,296.5 3.069,295.4 Z" style="fill:#afafb1" />
      <path inkscape:connector-curvature="0" id="path10" d="M 3.069,292.1 H 4.18 V 296.5 L 3.069,295.4 Z" style="fill:#e4e4e4" />
    </g>
    <rect id="rect14" transform="rotate(90)" ry="1.298" rx="1.195" y="-13.01" x="286.2" height="9.087" width="2.392" style="opacity:0.2;stroke-width:0.9038" />
    <rect id="rect16" transform="rotate(90)" ry="1.298" rx="1.195" y="-13.01" x="286" height="9.087" width="2.392" style="fill:#ec8a2b;stroke-width:0.9038" />
    <rect id="rect18" y="282.6" x="7.032" height="3.348" width="2.87" style="fill:#d13808;stroke-width:0.9038" />
    <rect id="rect20" ry="0.7176" rx="0.7972" y="282.3" x="6.074" height="1.434" width="4.783" style="opacity:0.2;stroke-width:0.9038" />
    <rect id="rect22" ry="0.7176" rx="0.7972" y="282.1" x="6.074" height="1.434" width="4.783" style="fill:#ec8a2b;stroke-width:0.9038" />
  </g>
</svg>
