<?xml version="1.0" encoding="UTF-8" standalone="no"?>
<svg xmlns:dc="http://purl.org/dc/elements/1.1/" xmlns:cc="http://creativecommons.org/ns#" xmlns:rdf="http://www.w3.org/1999/02/22-rdf-syntax-ns#" xmlns:svg="http://www.w3.org/2000/svg" xmlns="http://www.w3.org/2000/svg" xmlns:sodipodi="http://sodipodi.sourceforge.net/DTD/sodipodi-0.dtd" xmlns:inkscape="http://www.inkscape.org/namespaces/inkscape" inkscape:version="1.0beta2 (2b71d25d45, 2019-12-03)" sodipodi:docname="alienfx.svg" id="svg16" version="1" height="64" width="64">
  <metadata id="metadata22">
    <rdf:RDF>
      <cc:Work rdf:about="">
        <dc:format>image/svg+xml</dc:format>
        <dc:type rdf:resource="http://purl.org/dc/dcmitype/StillImage" />
      </cc:Work>
    </rdf:RDF>
  </metadata>
  <defs id="defs20" />
  <sodipodi:namedview inkscape:current-layer="svg16" inkscape:cy="32" inkscape:cx="32" inkscape:zoom="12.07" showgrid="false" id="namedview18" inkscape:window-height="480" inkscape:window-width="640" inkscape:pageshadow="2" inkscape:pageopacity="0" guidetolerance="10" gridtolerance="10" objecttolerance="10" borderopacity="1" inkscape:document-rotation="0" bordercolor="#666666" pagecolor="#ffffff" />
  <circle r="30.35" cy="32" cx="32" id="path847" style="fill:#f0f1f2;stroke-width:0.4;stroke-opacity:0.7163" />
  <path id="path2" d="m 50.999999,24.6 c 0,19.6 -11.142857,36.4 -19.5,36.4 C 23.142857,61 12,44.2 12,24.6 12,13.77522 20.730448,5 31.499999,5 c 10.769552,0 19.5,8.77522 19.5,19.6 z" style="opacity:0.2" />
  <path id="path4" d="m 50.999999,23.6 c 0,19.6 -11.142857,36.4 -19.5,36.4 C 23.142857,60 12,43.2 12,23.6 12,12.77522 20.730448,4 31.499999,4 c 10.769552,0 19.5,8.77522 19.5,19.6 z" style="fill:#356db6" />
  <path id="path6" d="m 34.016426,45.818973 c -0.211044,-0.541359 1.660851,-5.253162 2.781146,-7.000537 2.092243,-3.263516 4.951097,-5.173239 8.528974,-5.697292 1.707048,-0.25013 1.751416,-0.219161 1.634638,1.140551 -0.252321,2.937792 -1.145094,5.030927 -3.104139,7.277647 -2.107601,2.417155 -5.433839,4.089728 -8.783844,4.417049 -0.820642,0.0797 -0.980016,0.05921 -1.056775,-0.137424 z" style="opacity:0.2" />
  <path id="path8" d="m 34.016426,44.818973 c -0.211044,-0.541359 1.660851,-5.253162 2.781146,-7.000537 2.092243,-3.263516 4.951097,-5.173239 8.528974,-5.697292 1.707048,-0.25013 1.751416,-0.219161 1.634638,1.140551 -0.252321,2.937792 -1.145094,5.030927 -3.104139,7.277647 -2.107601,2.417155 -5.433839,4.089728 -8.783844,4.417049 -0.820642,0.0797 -0.980016,0.05921 -1.056775,-0.137424 z" style="fill:#ffffff" />
  <path id="path10" d="m 28.983573,45.818973 c 0.211044,-0.541359 -1.660851,-5.253162 -2.781146,-7.000537 -2.092243,-3.263516 -4.951097,-5.173239 -8.528974,-5.697292 -1.707048,-0.25013 -1.751416,-0.219161 -1.634638,1.140551 0.252321,2.937792 1.145094,5.030927 3.104139,7.277647 2.107601,2.417155 5.433839,4.089728 8.783844,4.417049 0.820642,0.0797 0.980016,0.05921 1.056775,-0.137424 z" style="opacity:0.2" />
  <path id="path12" d="m 28.983573,44.818973 c 0.211044,-0.541359 -1.660851,-5.253162 -2.781146,-7.000537 -2.092243,-3.263516 -4.951097,-5.173239 -8.528974,-5.697292 -1.707048,-0.25013 -1.751416,-0.219161 -1.634638,1.140551 0.252321,2.937792 1.145094,5.030927 3.104139,7.277647 2.107601,2.417155 5.433839,4.089728 8.783844,4.417049 0.820642,0.0797 0.980016,0.05921 1.056775,-0.137424 z" style="fill:#ffffff" />
  <path id="path14" d="M 31.5 4 C 20.730449 4 12 12.774829 12 23.599609 C 12 23.79898 12.007474 23.996536 12.009766 24.195312 C 12.224873 13.558018 20.865456 5 31.5 5 C 42.134545 5 50.775127 13.558018 50.990234 24.195312 C 50.992526 23.996536 51 23.79898 51 23.599609 C 51 12.774829 42.269552 4 31.5 4 z" style="opacity:0.1;fill:#ffffff" />
</svg>
