<svg width="48" height="48" version="1.1" viewBox="0 0 16.933 16.933" xmlns="http://www.w3.org/2000/svg">
 <g transform="translate(0 -280.07)">
  <circle cx="8.4667" cy="288.53" r="7.1438" fill="#ececec" style="paint-order:stroke fill markers"/>
  <g>
   <path d="m12.965 292.5c0.14657 0 0.24858-0.11801 0.24858-0.24858v-4.4979c0-0.14657-0.11801-0.24858-0.24858-0.24858h-1.5875v3.7042c0 0.14658-0.11801 0.24859-0.24858 0.24859h-2.4858c-0.14657 0-0.24858-0.11801-0.24858-0.24859v-3.7042h-1.5875c-0.14657 0-0.24858 0.11801-0.24858 0.24858v4.4979c0 0.14657 0.11801 0.24858 0.24858 0.24858z" fill="#fdc409" style="paint-order:stroke fill markers"/>
   <path transform="matrix(.24858 0 0 .24858 0 280.07)" d="m22 28v9l9-9z" fill="#b61f1d" style="paint-order:stroke fill markers"/>
   <path d="m4.2333 284.83c-0.14657 0-0.24858 0.11801-0.24858 0.24858v4.4979c0 0.14657 0.11801 0.24858 0.24858 0.24858h1.5875v-3.7042c0-0.14658 0.11801-0.24859 0.24858-0.24859h2.4858c0.14657 0 0.24858 0.11801 0.24858 0.24859v3.7042h1.5875c0.14657 0 0.24858-0.11801 0.24858-0.24858v-4.4979c0-0.14657-0.11801-0.24858-0.24858-0.24858z" fill="#e5381f" style="paint-order:stroke fill markers"/>
   <path transform="matrix(.24858 0 0 .24858 0 280.07)" d="m43 28-9 9h9z" fill="#e76f08" style="paint-order:stroke fill markers"/>
   <rect x="11.482" y="285.62" width="1.0583" height="1.0583" ry="0" fill="#e76f08" style="paint-order:stroke fill markers"/>
   <rect transform="rotate(45)" x="208.92" y="201.81" width="1.0583" height="1.0583" ry="0" fill="#f6aa08" style="paint-order:stroke fill markers"/>
  </g>
 </g>
</svg>
