<?xml version="1.0" encoding="UTF-8" standalone="no"?>
<svg xmlns:dc="http://purl.org/dc/elements/1.1/" xmlns:cc="http://creativecommons.org/ns#" xmlns:rdf="http://www.w3.org/1999/02/22-rdf-syntax-ns#" xmlns:svg="http://www.w3.org/2000/svg" xmlns="http://www.w3.org/2000/svg" xmlns:sodipodi="http://sodipodi.sourceforge.net/DTD/sodipodi-0.dtd" xmlns:inkscape="http://www.inkscape.org/namespaces/inkscape" inkscape:version="1.0beta2 (2b71d25d45, 2019-12-03)" sodipodi:docname="steam_icon_346110.svg" id="svg33" version="1" height="48" width="48">
  <metadata id="metadata37">
    <rdf:RDF>
      <cc:Work rdf:about="">
        <dc:format>image/svg+xml</dc:format>
        <dc:type rdf:resource="http://purl.org/dc/dcmitype/StillImage" />
      </cc:Work>
    </rdf:RDF>
  </metadata>
  <sodipodi:namedview inkscape:current-layer="svg33" inkscape:cy="24" inkscape:cx="24" inkscape:zoom="16.53" showgrid="false" id="namedview35" inkscape:window-height="480" inkscape:window-width="640" inkscape:pageshadow="2" inkscape:pageopacity="0" guidetolerance="10" gridtolerance="10" objecttolerance="10" borderopacity="1" inkscape:document-rotation="0" bordercolor="#666666" pagecolor="#ffffff" />
  <defs id="defs7">
    <linearGradient gradientUnits="userSpaceOnUse" gradientTransform="matrix(0.8029,0,0,0.8029,4.591,-0.2409)" y2="33.124" y1="30.591" x2="24.327" x1="19.528" id="linearGradient4831">
      <stop id="stop2" offset="0" />
      <stop id="stop4" stop-opacity="0" offset="1" />
    </linearGradient>
  </defs>
  <circle style="fill:#f0f3f5;stroke:#ffffff;stroke-width:0.1011" id="path862" cx="24" cy="24" r="22.1" />
  <path style="stroke-width:0.8029" inkscape:connector-curvature="0" id="path9" d="M 7.803,32.68 H 15.83 L 23.86,17.42 31.89,32.68 H 39.92 L 27.88,11 H 19.85 Z" fill="#4f4f4f" />
  <path style="stroke-width:0.8029" inkscape:connector-curvature="0" id="path11" d="M 19.85,11 7.803,32.68 H 8.247 L 19.85,11.8 H 27.88 L 39.48,32.68 H 39.92 L 27.88,11 Z" opacity=".2" fill="#fff" />
  <path style="stroke-width:0.8029" inkscape:connector-curvature="0" id="path13" d="M 11.41,26.25 15.83,32.68 H 7.803 Z" fill="#e33e31" />
  <path style="stroke-width:0.8029" inkscape:connector-curvature="0" id="path15" d="M 36.31,26.25 39.92,32.68 H 31.89 Z" fill="#e4be21" />
  <path style="stroke-width:0.8029" inkscape:connector-curvature="0" id="path17" d="M 23.86,17.42 27.88,11 H 19.85 Z" fill="#3c8cf8" />
  <path style="stroke-width:0.8029" inkscape:connector-curvature="0" id="path19" d="M 21.75,21.43 18.37,27.86 H 23.86 V 21.43 Z" fill="#4f4f4f" />
  <path inkscape:connector-curvature="0" style="fill:url(#linearGradient4831);stroke-width:0.8029" id="path21" d="M 21.75,21.43 18.37,27.86 H 23.86 V 21.43 Z" opacity=".15" fill="url(#linearGradient4831)" />
  <path style="stroke-width:0.8029" inkscape:connector-curvature="0" id="path23" d="M 19.85,11.8 23.86,18.22 27.88,11.8 H 27.37 L 23.86,17.42 20.35,11.8 Z M 8.254,32.68 7.802,33.48 H 15.83 L 15.28,32.68 Z M 32.44,32.68 31.89,33.48 H 39.92 L 39.47,32.68 Z" opacity=".2" />
  <path style="stroke-width:0.8029" inkscape:connector-curvature="0" id="path25" d="M 19.85,11 20.35,11.8 H 27.37 L 27.88,11 Z M 11.41,26.25 7.803,32.68 H 8.255 L 11.41,27.06 15.28,32.68 H 15.83 Z M 36.31,26.25 31.89,32.68 H 32.44 L 36.31,27.06 39.47,32.68 H 39.92 Z" opacity=".2" fill="#fff" />
  <path style="stroke-width:0.8029" inkscape:connector-curvature="0" id="path27" d="M 23.86,17.42 15.83,32.68 H 8.247 L 7.803,33.48 H 15.83 L 23.86,18.22 31.89,33.48 H 39.92 L 39.48,32.68 H 31.89 Z" opacity=".2" />
  <path style="stroke-width:0.8029" inkscape:connector-curvature="0" id="path29" d="M 21.75,21.43 18.37,27.86 H 18.79 L 21.75,22.24 H 23.86 V 21.43 Z" opacity=".2" fill="#fff" />
  <path style="stroke-width:0.8029" inkscape:connector-curvature="0" id="path31" d="M 18.79,27.86 18.37,28.67 H 23.86 V 27.86 Z" opacity=".2" />
</svg>
