<?xml version="1.0" encoding="UTF-8" standalone="no"?>
<svg xmlns:dc="http://purl.org/dc/elements/1.1/" xmlns:cc="http://creativecommons.org/ns#" xmlns:rdf="http://www.w3.org/1999/02/22-rdf-syntax-ns#" xmlns:svg="http://www.w3.org/2000/svg" xmlns="http://www.w3.org/2000/svg" xmlns:sodipodi="http://sodipodi.sourceforge.net/DTD/sodipodi-0.dtd" xmlns:inkscape="http://www.inkscape.org/namespaces/inkscape" inkscape:version="1.0beta2 (2b71d25d45, 2019-12-03)" sodipodi:docname="auryo.svg" id="svg12" version="1.1" height="64" width="64">
  <metadata id="metadata18">
    <rdf:RDF>
      <cc:Work rdf:about="">
        <dc:format>image/svg+xml</dc:format>
        <dc:type rdf:resource="http://purl.org/dc/dcmitype/StillImage" />
      </cc:Work>
    </rdf:RDF>
  </metadata>
  <defs id="defs16" />
  <sodipodi:namedview inkscape:current-layer="svg12" inkscape:cy="32" inkscape:cx="32" inkscape:zoom="12.07" showgrid="false" id="namedview14" inkscape:window-height="480" inkscape:window-width="640" inkscape:pageshadow="2" inkscape:pageopacity="0" guidetolerance="10" gridtolerance="10" objecttolerance="10" borderopacity="1" inkscape:document-rotation="0" bordercolor="#666666" pagecolor="#ffffff" />
  <circle id="circle4" r="28" cy="32" cx="32" style="fill:#cdcdcd" />
  <path id="path6" d="M 32,16 A 13,13 0 0 0 19,29 l 0,4.214844 A 5.5,5.5 0 0 0 15,38.5 5.5,5.5 0 0 0 20.5,44 5.5,5.5 0 0 0 23,43.392578 L 23,44 l 3,0 0,-5.5 0,-5.5 -3,0 0,0.601562 A 5.5,5.5 0 0 0 22,33.210938 L 22,29 A 10,10 0 0 1 32,19 10,10 0 0 1 42,29 l 0,4.214844 A 5.5,5.5 0 0 0 38,38.5 5.5,5.5 0 0 0 43.5,44 5.5,5.5 0 0 0 49,38.5 5.5,5.5 0 0 0 45,33.210938 L 45,29 A 13,13 0 0 0 32,16 Z M 20.5,36 A 2.5,2.5 0 0 1 23,38.5 2.5,2.5 0 0 1 20.5,41 2.5,2.5 0 0 1 18,38.5 2.5,2.5 0 0 1 20.5,36 Z m 23,0 A 2.5,2.5 0 0 1 46,38.5 2.5,2.5 0 0 1 43.5,41 2.5,2.5 0 0 1 41,38.5 2.5,2.5 0 0 1 43.5,36 Z" style="opacity:0.2" />
  <path id="path8" d="M 32 15 A 13 13 0 0 0 19 28 L 19 32.214844 A 5.5 5.5 0 0 0 15 37.5 A 5.5 5.5 0 0 0 20.5 43 A 5.5 5.5 0 0 0 23 42.392578 L 23 43 L 26 43 L 26 37.5 L 26 32 L 23 32 L 23 32.601562 A 5.5 5.5 0 0 0 22 32.210938 L 22 28 A 10 10 0 0 1 32 18 A 10 10 0 0 1 42 28 L 42 32.214844 A 5.5 5.5 0 0 0 38 37.5 A 5.5 5.5 0 0 0 43.5 43 A 5.5 5.5 0 0 0 49 37.5 A 5.5 5.5 0 0 0 45 32.210938 L 45 28 A 13 13 0 0 0 32 15 z M 20.5 35 A 2.5 2.5 0 0 1 23 37.5 A 2.5 2.5 0 0 1 20.5 40 A 2.5 2.5 0 0 1 18 37.5 A 2.5 2.5 0 0 1 20.5 35 z M 43.5 35 A 2.5 2.5 0 0 1 46 37.5 A 2.5 2.5 0 0 1 43.5 40 A 2.5 2.5 0 0 1 41 37.5 A 2.5 2.5 0 0 1 43.5 35 z" style="fill:#2993e4" />
  <path id="path10" d="M 32 4 A 28 28 0 0 0 4 32 A 28 28 0 0 0 4.0214844 32.585938 A 28 28 0 0 1 32 5 A 28 28 0 0 1 59.978516 32.414062 A 28 28 0 0 0 60 32 A 28 28 0 0 0 32 4 z" style="fill:#ffffff;opacity:0.1" />
</svg>
