<?xml version="1.0" encoding="UTF-8" standalone="no"?>
<svg xmlns:dc="http://purl.org/dc/elements/1.1/" xmlns:cc="http://creativecommons.org/ns#" xmlns:rdf="http://www.w3.org/1999/02/22-rdf-syntax-ns#" xmlns:svg="http://www.w3.org/2000/svg" xmlns="http://www.w3.org/2000/svg" xmlns:xlink="http://www.w3.org/1999/xlink" xmlns:sodipodi="http://sodipodi.sourceforge.net/DTD/sodipodi-0.dtd" xmlns:inkscape="http://www.inkscape.org/namespaces/inkscape" inkscape:version="1.0beta2 (2b71d25d45, 2019-12-03)" sodipodi:docname="author.svg" id="svg65" version="1.1" height="48" width="48">
  <metadata id="metadata69">
    <rdf:RDF>
      <cc:Work rdf:about="">
        <dc:format>image/svg+xml</dc:format>
        <dc:type rdf:resource="http://purl.org/dc/dcmitype/StillImage" />
      </cc:Work>
    </rdf:RDF>
  </metadata>
  <sodipodi:namedview inkscape:current-layer="svg65" inkscape:cy="24.7" inkscape:cx="24" inkscape:zoom="16.09" showgrid="false" id="namedview67" inkscape:window-height="480" inkscape:window-width="480" inkscape:pageshadow="2" inkscape:pageopacity="0" guidetolerance="10" gridtolerance="10" objecttolerance="10" borderopacity="1" inkscape:document-rotation="0" bordercolor="#666666" pagecolor="#ffffff" />
  <defs id="defs29">
    <linearGradient gradientUnits="userSpaceOnUse" x2="24" y2="28" x1="34" y1="30" id="a">
      <stop id="stop2" stop-color="#f39c12" />
      <stop id="stop4" stop-color="#ffc35a" offset="1" />
    </linearGradient>
    <linearGradient gradientUnits="userSpaceOnUse" x2="38" y2="44" x1="24" y1="30" id="b">
      <stop id="stop7" />
      <stop id="stop9" stop-opacity="0" offset="1" />
    </linearGradient>
    <linearGradient gradientUnits="userSpaceOnUse" x2="0" y2="4" y1="37" id="c">
      <stop id="stop12" stop-color="#da4453" />
      <stop id="stop14" stop-color="#ff7336" offset="1" />
    </linearGradient>
    <linearGradient gradientUnits="userSpaceOnUse" x2="23.531" y2="25.406" x1="20.438" y1="22.313" id="d" xlink:href="#b" />
    <linearGradient gradientUnits="userSpaceOnUse" x2="0" y2="24" y1="45" id="e">
      <stop id="stop18" stop-color="#60c0f4" />
      <stop id="stop20" stop-color="#b9e9ff" offset="1" />
    </linearGradient>
    <linearGradient gradientTransform="translate(-1)" gradientUnits="userSpaceOnUse" x2="25" y2="22" x1="32" y1="23" id="f">
      <stop id="stop23" stop-color="#cea476" />
      <stop id="stop25" stop-color="#dab58b" offset="1" />
    </linearGradient>
    <linearGradient gradientUnits="userSpaceOnUse" x2="39" y2="38" x1="25" y1="24" id="g" xlink:href="#b" />
    <linearGradient y2="44" x2="38" y1="30" x1="24" gradientUnits="userSpaceOnUse" id="linearGradient896" xlink:href="#b" inkscape:collect="always" />
  </defs>
  <circle r="22.51" cy="24" cx="24" id="path894" style="fill:#e6edf0;stroke-width:0.4;stroke-opacity:0.7163" />
  <g id="g55" transform="matrix(0.8728,0,0,0.8728,3.926,0.5084)">
    <g id="g37" fill-rule="evenodd">
      <path inkscape:connector-curvature="0" style="fill:url(#e)" id="path31" d="M 24,24 C 24,24 23,24.47 23,26 23,27.53 24,28 24,28 V 30 C 24,30 18,31.87 18,38 18,44 20.93,44 24,44 H 34 C 37.07,44 40,44 40,38 40,31.87 34,30 34,30 V 28 C 34,28 35,27.53 35,26 35,24.47 34,24 34,24 Z" fill="url(#e)" />
      <path inkscape:connector-curvature="0" id="path33" d="M 26,24 V 31.47 L 24.59,31.91 C 24.59,31.91 23.46,32.27 22.27,33.25 21.08,34.22 20,35.59 20,38 20,40.67 20.54,41.3 20.97,41.59 21.39,41.88 22.47,42 24,42 H 34 C 35.53,42 36.61,41.88 37.03,41.59 37.46,41.3 38,40.67 38,38 38,35.59 36.92,34.22 35.73,33.24 34.54,32.27 33.41,31.91 33.41,31.91 L 32,31.47 V 24 Z" fill="#65c2f5" />
      <path inkscape:connector-curvature="0" style="fill:url(#linearGradient896)" id="path35" d="M 24,30 37.56,43.56 C 39,42.95 40,41.5 40,38 40,31.87 34,30 34,30 Z" fill="url(#b)" opacity=".2" />
    </g>
    <g id="g51" stroke-linejoin="bevel">
      <g id="g43" stroke-width="2">
        <rect style="fill:url(#a)" id="rect39" stroke-linecap="round" height="2" fill="url(#a)" y="28" x="24" width="10" />
        <path inkscape:connector-curvature="0" id="path41" d="M 20.74,35 C 20.3,35.78 20,36.75 20,38 20,40.67 20.54,41.3 20.96,41.59 21.39,41.88 22.47,42 24,42 H 34 C 35.53,42 36.61,41.88 37.03,41.59 37.46,41.3 38,40.67 38,38 38,36.75 37.7,35.78 37.26,35 Z" fill="#34495e" />
      </g>
      <g id="g49" stroke-width="4" stroke-linecap="round">
        <rect style="fill:url(#f)" id="rect45" height="2" rx="0.989" fill="url(#f)" y="22" x="24" width="10" />
        <rect id="rect47" height="3" fill="#cea476" y="24" x="26" width="6" />
      </g>
    </g>
    <path inkscape:connector-curvature="0" style="fill:url(#g)" id="path53" d="M 25,24 39.97,38.97 C 39.99,38.66 40,38.34 40,38 40,31.87 34,30 34,30 V 28 C 34,28 35,27.53 35,26 35,24.47 34,24 34,24 Z" fill-rule="evenodd" fill="url(#g)" opacity=".2" />
  </g>
  <g id="g63" transform="matrix(0.8728,0,0,0.8728,2.18,0.5084)" fill-rule="evenodd">
    <path inkscape:connector-curvature="0" style="fill:url(#c)" id="path57" d="M 34,4 31.67,5.143 C 29.34,6.287 26.87,8.893 26.87,8.893 L 27.24,11.84 C 27.1,12.04 26.96,12.25 26.81,12.47 L 25.77,10.61 24.09,12.71 25.28,14.75 C 25.27,14.76 25.26,14.77 25.26,14.78 L 23.77,13.09 C 23.77,13.09 22.79,14.23 19.82,18.49 16.84,22.75 14.38,27.71 14.38,27.71 L 14.49,31.08 C 14.33,31.31 14.16,31.57 14,31.8 L 13.53,29.04 12.5,30.76 12.24,32.41 11.66,33.11 C 11.66,33.11 10.7,36.71 10.88,37.36 11.06,38.01 13.5,36.73 13.5,36.73 L 13.63,35.88 15.61,35.24 13.41,34.8 C 13.46,34.71 13.53,34.61 13.58,34.52 13.84,34.6 14.15,34.69 14.74,34.79 16.13,35.05 17.07,34.54 17.07,34.54 L 18.07,33.27 C 18.07,33.27 17.29,33.81 16.41,33.97 15.55,34.12 14.09,33.76 14.04,33.75 14.12,33.62 14.2,33.49 14.28,33.36 14.65,33.26 17.98,32.39 19.94,31.01 22.02,29.55 26.13,25.04 26.13,25.04 26.13,25.04 25.14,25.03 23,25 20.99,24.97 19.21,24.98 19,25 19.09,24.85 19,24 19,24 L 27.59,22.65 C 27.59,22.65 28.14,21.6 28.98,19.92 29.82,18.23 32,14 32,14 32,14 30.54,13.95 29.23,13.78 27.99,13.6 26.81,13.3 26.7,13.28 26.71,13.25 26.73,13.23 26.74,13.21 26.92,13.12 28.09,12.59 28.96,12.31 29.9,12.02 32.76,11.62 32.76,11.62 32.76,11.62 32.78,11.21 32.99,10.38 33.19,9.55 33.6,7.48 33.6,7.48 L 28.62,10.45 C 28.83,10.16 29.03,9.901 29.24,9.629 L 33.79,6.966 C 33.79,6.966 33.83,6.382 33.92,5.618 34.02,4.854 34,3.997 34,3.997" fill="url(#c)" />
    <path inkscape:connector-curvature="0" id="path59" d="M 34,4 C 34,4 29.38,8.941 24.78,15.28 20.18,21.61 15.51,28.77 10.84,36.96 6.792,44.06 8.258,44 8.258,44 8.258,44 8.718,42.82 11.93,37.24 15.01,31.91 18.9,25.03 25.41,15.54 28.51,11.02 34,4.005 34,4.005" fill="#31363b" />
    <path inkscape:connector-curvature="0" style="fill:url(#d)" id="path61" d="M 34,4 33.29,4.883 30.71,8.181 26.74,13.21 C 26.92,13.13 28.09,12.59 28.96,12.32 29.9,12.03 32.76,11.62 32.76,11.62 32.76,11.62 32.78,11.22 32.99,10.39 33.19,9.555 33.6,7.485 33.6,7.485 L 29.3,10.05 C 29.51,9.766 29.71,9.51 29.92,9.238 L 33.79,6.972 C 33.79,6.972 33.83,6.388 33.93,5.624 34.02,4.86 34,4.003 34,4.003 M 26.74,13.21 19,24 27.59,22.66 C 27.59,22.66 28.14,21.61 28.98,19.92 29.82,18.24 32,14 32,14 32,14 30.54,13.96 29.23,13.78 27.99,13.61 26.81,13.31 26.7,13.28 26.71,13.26 26.73,13.23 26.74,13.21 M 19,24 11.04,37.52 C 11.62,37.73 13.5,36.74 13.5,36.74 L 13.63,35.88 15.61,35.25 13.41,34.81 C 13.46,34.72 13.53,34.61 13.58,34.52 13.84,34.61 14.15,34.7 14.73,34.8 16.13,35.06 17.06,34.55 17.06,34.55 L 18.07,33.28 C 18.07,33.28 17.29,33.82 16.42,33.98 15.56,34.13 14.09,33.77 14.05,33.76 14.13,33.63 14.21,33.5 14.29,33.37 14.66,33.27 17.99,32.4 19.95,31.02 22.02,29.56 26.13,25.04 26.13,25.04 26.13,25.04 25.14,25.04 23.01,25 21,24.97 19.21,24.99 19.01,25 19.1,24.85 19.01,24 19.01,24" fill="url(#d)" opacity=".2" />
  </g>
</svg>
