<?xml version="1.0" encoding="UTF-8" standalone="no"?>
<svg xmlns:dc="http://purl.org/dc/elements/1.1/" xmlns:cc="http://creativecommons.org/ns#" xmlns:rdf="http://www.w3.org/1999/02/22-rdf-syntax-ns#" xmlns:svg="http://www.w3.org/2000/svg" xmlns="http://www.w3.org/2000/svg" xmlns:sodipodi="http://sodipodi.sourceforge.net/DTD/sodipodi-0.dtd" xmlns:inkscape="http://www.inkscape.org/namespaces/inkscape" inkscape:version="1.0beta2 (2b71d25d45, 2019-12-03)" sodipodi:docname="net.mediaarea.AVIMetaEdit.svg" id="svg16" version="1" height="64" width="64">
  <metadata id="metadata22">
    <rdf:RDF>
      <cc:Work rdf:about="">
        <dc:format>image/svg+xml</dc:format>
        <dc:type rdf:resource="http://purl.org/dc/dcmitype/StillImage" />
      </cc:Work>
    </rdf:RDF>
  </metadata>
  <defs id="defs20" />
  <sodipodi:namedview inkscape:current-layer="svg16" inkscape:cy="32" inkscape:cx="32" inkscape:zoom="12.4" showgrid="false" id="namedview18" inkscape:window-height="480" inkscape:window-width="640" inkscape:pageshadow="2" inkscape:pageopacity="0" guidetolerance="10" gridtolerance="10" objecttolerance="10" borderopacity="1" inkscape:document-rotation="0" bordercolor="#666666" pagecolor="#ffffff" />
  <circle r="29.13" cy="32" cx="32" id="path847" style="fill:#a0a6f2;stroke:#ffffff;stroke-width:0.1" />
  <path inkscape:connector-curvature="0" id="path6" d="M 50.54,17.96 A 2.655,2.655 0 0 0 47.93,20.65 V 41.87 A 2.655,2.655 0 1 0 53.23,41.87 V 20.65 A 2.655,2.655 0 0 0 50.54,17.96 Z M 29.25,17.96 A 2.655,2.655 0 0 0 26.84,21.48 L 33.9,42.72 A 2.655,2.655 0 0 0 38.94,42.72 L 46.02,21.49 A 2.656,2.656 0 1 0 40.98,19.81 L 36.42,33.48 31.87,19.81 A 2.655,2.655 0 0 0 29.25,17.96 Z M 20.36,18 A 2.655,2.655 0 0 0 17.98,19.81 L 10.91,41.03 A 2.656,2.656 0 1 0 15.95,42.71 L 20.5,29.05 25.06,42.71 A 2.656,2.656 0 0 0 30.09,41.03 L 23.02,19.81 A 2.655,2.655 0 0 0 20.36,18 Z" style="opacity:0.2;stroke-width:0.8848" />
  <path inkscape:connector-curvature="0" id="path8" d="M 13.43,40.98 20.5,19.76 27.58,40.98" style="fill:none;stroke:#ffffff;stroke-width:5.3087;stroke-linecap:round;stroke-linejoin:round" />
  <path inkscape:connector-curvature="0" id="path10" d="M 29.36,19.76 36.42,41 43.5,19.76" style="fill:none;stroke:#ffffff;stroke-width:5.3087;stroke-linecap:round;stroke-linejoin:round" />
  <path inkscape:connector-curvature="0" id="path12" d="M 50.58,19.76 V 40.98" style="fill:none;stroke:#ffffff;stroke-width:5.3087;stroke-linecap:round;stroke-linejoin:round" />
</svg>
