<?xml version="1.0" encoding="UTF-8" standalone="no"?>
<svg xmlns:dc="http://purl.org/dc/elements/1.1/" xmlns:cc="http://creativecommons.org/ns#" xmlns:rdf="http://www.w3.org/1999/02/22-rdf-syntax-ns#" xmlns:svg="http://www.w3.org/2000/svg" xmlns="http://www.w3.org/2000/svg" xmlns:sodipodi="http://sodipodi.sourceforge.net/DTD/sodipodi-0.dtd" xmlns:inkscape="http://www.inkscape.org/namespaces/inkscape" inkscape:version="1.0beta2 (2b71d25d45, 2019-12-03)" sodipodi:docname="steam_icon_269670.svg" id="svg20" version="1" height="48" width="48">
  <metadata id="metadata26">
    <rdf:RDF>
      <cc:Work rdf:about="">
        <dc:format>image/svg+xml</dc:format>
        <dc:type rdf:resource="http://purl.org/dc/dcmitype/StillImage" />
      </cc:Work>
    </rdf:RDF>
  </metadata>
  <defs id="defs24" />
  <sodipodi:namedview inkscape:current-layer="svg20" inkscape:cy="24" inkscape:cx="24" inkscape:zoom="16.53" showgrid="false" id="namedview22" inkscape:window-height="480" inkscape:window-width="480" inkscape:pageshadow="2" inkscape:pageopacity="0" guidetolerance="10" gridtolerance="10" objecttolerance="10" borderopacity="1" inkscape:document-rotation="0" bordercolor="#666666" pagecolor="#ffffff" />
  <circle r="22.33" cy="24" cx="24" id="path851" style="fill:#f1f2f5;stroke-width:0.1" />
  <path style="stroke-width:0.9321" inkscape:connector-curvature="0" id="path2" d="M 22.8,41.08 C 22.68,40.96 22.58,40.79 22.58,40.7 22.58,40.58 22.52,40.55 22.38,40.61 22.28,40.66 21.76,40.71 21.23,40.74 L 20.28,40.78 20.1,40.46 C 19.95,40.17 19.9,40.15 19.65,40.24 18.96,40.49 18.28,40.29 18.28,39.85 18.28,39.58 18.28,39.58 17.57,39.65 17.17,39.69 16.74,39.67 16.57,39.61 16.33,39.52 16.29,39.45 16.31,39.16 L 16.35,38.82 15.68,38.77 C 14.89,38.71 14.61,38.54 14.71,38.18 14.77,37.96 14.74,37.93 14.4,37.93 13.95,37.92 13.66,37.73 13.55,37.34 13.48,37.1 13.41,37.05 13.18,37.07 12.73,37.13 12.49,36.69 12.51,35.87 12.53,35.21 12.48,35.1 12.25,35.32 12.19,35.38 12.01,35.42 11.87,35.4 11.54,35.36 11.46,34.84 11.71,34.27 11.9,33.81 11.86,33.73 11.45,33.81 10.92,33.91 10.79,33.54 11.07,32.7 11.14,32.48 11.12,32.46 10.94,32.53 10.5,32.7 10.4,32.65 10.36,32.26 10.34,32.02 10.42,31.71 10.56,31.44 10.79,31 10.79,30.98 10.37,31.01 9.967,31.04 9.953,30.74 10.33,30.17 10.52,29.88 10.67,29.61 10.67,29.56 10.67,29.52 10.55,29.43 10.4,29.36 10.05,29.21 10.05,28.98 10.41,28.49 10.71,28.07 10.69,27.88 10.33,27.88 9.87,27.88 9.924,27.3 10.44,26.68 10.71,26.37 10.76,26.22 10.71,25.95 10.68,25.77 10.55,25.55 10.44,25.45 10.33,25.35 10.23,25.19 10.23,25.08 10.23,24.86 10.67,24.42 11.09,24.22 11.38,24.08 11.4,23.88 11.16,23.52 10.99,23.29 10.99,23.25 11.16,23 11.26,22.85 11.51,22.66 11.71,22.57 11.91,22.48 12.16,22.27 12.26,22.1 12.45,21.8 12.45,21.78 12.26,21.58 11.94,21.25 12.23,20.87 12.98,20.63 13.77,20.38 13.97,20.2 13.78,19.91 13.5,19.48 13.78,19.21 14.69,19.02 15.18,18.92 15.3,18.79 15.23,18.44 15.17,18.19 15.21,18.12 15.46,18.01 15.73,17.89 15.76,17.84 15.7,17.51 15.54,16.59 15.5,16.06 15.6,16 15.66,15.97 15.86,15.99 16.05,16.06 16.24,16.13 16.42,16.16 16.46,16.13 16.49,16.09 16.46,15.71 16.39,15.27 16.32,14.83 16.3,14.31 16.34,14.1 16.41,13.76 16.45,13.73 16.79,13.73 17.24,13.73 17.22,13.79 17.01,12.84 16.8,11.89 16.8,11.78 17.05,11.54 17.45,11.16 17.52,10.21 17.23,8.802 17,7.652 17.06,7.027 17.39,7.027 17.51,7.027 17.7,7.144 17.82,7.288 18.07,7.59 18.23,7.621 18.32,7.385 18.44,7.076 18.39,6.813 18.07,6.211 17.72,5.546 17.4,4.604 17.4,4.231 17.4,3.859 17.65,3.935 18.3,4.506 18.93,5.046 19.44,5.853 19.76,6.791 20.06,7.676 20.25,7.525 20.32,6.341 20.37,5.534 20.42,5.35 20.6,5.35 20.8,5.35 21.03,5.993 21.26,7.199 21.47,8.28 21.49,8.653 21.42,10.08 21.38,10.99 21.38,11.83 21.42,11.96 L 21.5,12.2 21.76,11.9 22.01,11.6 22.09,11.89 C 22.13,12.06 22.14,12.93 22.11,13.83 22.08,14.72 22.08,15.52 22.1,15.59 22.23,15.92 22.84,15.6 22.92,15.16 23,14.76 23.29,14.72 23.79,15.03 24.05,15.19 24.42,15.37 24.6,15.42 24.89,15.5 24.97,15.48 25.13,15.28 25.3,15.06 25.34,15.05 25.68,15.18 26.37,15.45 26.49,15.41 26.46,14.92 26.44,14.48 26.49,14.45 26.6,14.36 26.69,14.29 26.77,14.05 26.77,13.8 26.78,13.56 26.82,13.27 26.86,13.16 26.92,13.03 26.82,12.61 26.58,11.96 25.98,10.31 26.13,9.248 26.87,10.01 27.24,10.38 27.42,10.35 27.42,9.917 27.42,9.687 27.19,9.126 26.76,8.336 25.87,6.677 25.87,6.258 26.79,6.808 27.41,7.186 28.02,7.866 28.58,8.826 29.2,9.872 29.35,9.888 29.27,8.896 29.17,7.607 29.53,7.375 30.07,8.388 30.6,9.378 30.73,10.06 30.85,12.26 30.91,13.39 31.01,14.35 31.06,14.4 31.12,14.46 31.24,14.34 31.35,14.11 31.72,13.37 31.91,13.8 32.01,15.62 32.09,17.14 32.08,17.12 32.45,16.96 32.71,16.84 32.76,16.86 32.95,17.07 33.06,17.21 33.16,17.45 33.16,17.61 33.16,18.05 33.43,18.21 33.82,17.99 34.1,17.83 34.15,17.83 34.3,17.98 34.39,18.07 34.5,18.31 34.54,18.53 34.48,19.13 34.78,19.39 35.01,19.39 35.3,19.39 35.45,19.59 35.53,20.09 35.48,20.72 35.74,20.84 36,20.61 36.48,20.2 36.8,20.73 36.52,21.47 36.43,21.72 36.35,21.95 36.35,21.98 36.35,22 36.58,21.99 36.85,21.95 37.31,21.88 37.34,21.9 37.34,22.12 37.34,22.25 37.27,22.44 37.18,22.53 36.92,22.81 37.08,23.37 37.41,23.37 37.56,23.37 37.72,23.46 37.79,23.59 37.89,23.76 37.85,23.89 37.63,24.28 37.28,24.87 37.28,24.9 37.48,25.07 38.04,25.26 38.06,25.39 37.73,25.76 37.4,26.14 37.38,26.26 37.67,26.34 37.92,26.4 37.98,26.81 37.77,27.01 37.67,27.11 37.68,27.19 37.84,27.35 38.01,27.53 38.02,27.61 37.91,27.83 37.85,27.97 37.66,28.14 37.51,28.21 37.2,28.35 37.16,28.52 37.4,28.72 37.53,28.82 37.56,28.96 37.5,29.33 37.42,29.89 37.29,30.08 37.01,30.08 36.7,30.08 36.66,30.23 36.9,30.53 37.28,30.98 37.09,31.38 36.61,31.15 36.36,31.02 36.13,31.09 36.13,31.3 36.13,31.38 36.26,31.66 36.42,31.91 36.76,32.48 36.74,32.84 36.35,32.89 35.92,32.94 35.86,33.07 36.12,33.41 36.42,33.81 36.43,34.23 36.13,34.32 35.85,34.41 35.85,34.63 36.14,35.01 36.42,35.38 36.38,35.67 36.05,35.72 35.74,35.76 35.74,35.86 36.03,36.11 36.46,36.48 36.52,36.69 36.23,36.89 36.01,37.06 35.99,37.11 36.11,37.35 36.4,37.96 36.2,38.56 35.77,38.34 35.52,38.21 35.54,38.19 35.38,38.74 35.28,39.07 35.17,39.2 34.93,39.28 34.72,39.35 34.59,39.47 34.57,39.62 34.51,39.98 34.21,40.11 33.95,39.89 33.66,39.48 33.63,39.66 33.54,40.14 33.47,40.54 33.25,40.87 33.05,40.87 32.99,40.87 32.85,40.75 32.73,40.59 32.47,40.28 32.2,40.32 32.15,40.67 32.13,40.8 32.02,40.95 31.91,41.01 31.75,41.11 31.67,41.08 31.46,40.82 L 31.19,40.5 30.87,40.79 C 30.52,41.11 30.21,41.16 30.11,40.92 30.02,40.7 29.88,40.72 29.5,41.03 29.32,41.17 29.1,41.29 29.01,41.29 28.92,41.29 28.81,41.17 28.75,41.03 28.69,40.88 28.62,40.76 28.6,40.76 28.57,40.76 28.27,40.88 27.92,41.03 27.17,41.34 26.75,41.33 26.6,41 26.53,40.84 26.43,40.78 26.32,40.83 25.49,41.17 25.22,41.23 25,41.1 24.82,40.99 24.66,41 24.13,41.13 23.28,41.34 23.06,41.33 22.8,41.08 Z" fill="#4f4f4f" />
  <path style="stroke-width:0.9321" inkscape:connector-curvature="0" id="path4" d="M 27.13,31.05 C 26.98,31.05 26.84,31.06 26.69,31.09 25.47,31.33 24.02,32.19 23.24,33.15 22.67,33.85 22.35,34.68 22.28,35.67 L 22.22,36.41 22.8,37.01 C 23.77,38.03 24.8,38.35 26.87,38.3 27.8,38.28 28.12,38.23 28.49,38.05 29.1,37.74 29.37,37.4 29.52,36.69 29.69,35.94 29.6,33.56 29.39,32.83 29.07,31.77 28.14,31.06 27.13,31.05 Z M 28.25,33.52 C 28.49,33.52 28.53,33.57 28.53,33.84 28.53,34.07 28.47,34.18 28.32,34.22 28.12,34.27 28.12,34.3 28.26,34.63 28.45,35.06 28.46,36.13 28.29,36.51 28.04,37.02 27.14,37.27 26.38,37.05 25.85,36.89 25.67,36.59 25.66,35.88 25.66,34.62 26.86,33.52 28.25,33.52 Z" opacity=".2" />
  <path style="stroke-width:0.9321" inkscape:connector-curvature="0" id="path6" d="M 27.13,30.12 C 26.98,30.12 26.84,30.13 26.69,30.16 25.47,30.39 24.02,31.26 23.24,32.22 22.67,32.92 22.35,33.75 22.28,34.74 L 22.22,35.48 22.8,36.08 C 23.77,37.1 24.8,37.42 26.87,37.37 27.8,37.34 28.12,37.29 28.49,37.11 29.1,36.81 29.37,36.46 29.52,35.76 29.69,35.01 29.6,32.62 29.39,31.9 29.07,30.84 28.14,30.13 27.13,30.12 Z M 28.25,32.59 C 28.49,32.59 28.53,32.63 28.53,32.91 28.53,33.14 28.47,33.25 28.32,33.29 28.12,33.34 28.12,33.37 28.26,33.69 28.45,34.13 28.46,35.2 28.29,35.58 28.04,36.09 27.14,36.34 26.38,36.12 25.85,35.96 25.67,35.66 25.66,34.95 25.66,33.68 26.86,32.59 28.25,32.59 Z" fill="#929292" />
  <path style="stroke-width:0.9321" inkscape:connector-curvature="0" id="path8" d="M 27.46,35.51 C 28.23,35.18 28.1,33.74 27.3,33.74 26.92,33.74 26.32,34.39 26.33,34.8 26.33,35.2 26.4,35.33 26.71,35.5 26.99,35.65 27.13,35.65 27.46,35.51 Z" fill="#fff" />
  <path style="stroke-width:0.9321" inkscape:connector-curvature="0" id="path10" d="M 34.73,37.46 C 35.04,37.23 35.17,36.24 35.11,34.52 35.05,32.88 34.91,32.21 34.55,32.01 34.39,31.92 34.31,31.95 34.1,32.2 33.71,32.65 33.06,34.36 33.05,34.95 33.05,35.02 33.19,34.94 33.37,34.77 33.6,34.55 33.8,34.46 34.06,34.46 34.39,34.46 34.45,34.51 34.69,35 34.98,35.62 34.97,36.45 34.66,36.75 34.28,37.1 33.14,36.85 33.01,36.38 32.99,36.28 32.98,36.35 33,36.54 33.05,36.99 33.21,37.17 33.76,37.41 34.29,37.48 34.47,37.65 34.73,37.46 Z" opacity=".2" />
  <path style="stroke-width:0.9321" inkscape:connector-curvature="0" id="path12" d="M 34.73,36.53 C 35.04,36.3 35.17,35.31 35.11,33.58 35.05,31.94 34.91,31.28 34.55,31.08 34.39,30.98 34.31,31.02 34.1,31.27 33.71,31.72 33.06,33.43 33.05,34.02 33.05,34.09 33.19,34.01 33.37,33.84 33.6,33.62 33.8,33.53 34.06,33.53 34.39,33.53 34.45,33.58 34.69,34.07 34.98,34.69 34.97,35.52 34.66,35.82 34.28,36.17 33.14,35.91 33.01,35.45 32.99,35.34 32.98,35.42 33,35.61 33.05,36.05 33.21,36.24 33.76,36.48 34.29,36.71 34.47,36.72 34.73,36.53 Z" fill="#929292" />
  <path style="stroke-width:0.9321" inkscape:connector-curvature="0" id="path14" d="M 34.31,35.36 C 34.55,35.12 34.52,34.74 34.23,34.41 33.9,34.05 33.53,34.14 33.4,34.61 33.25,35.13 33.44,35.52 33.82,35.52 33.99,35.52 34.21,35.45 34.31,35.36 Z" fill="#fff" />
  <path style="stroke-width:0.9321" inkscape:connector-curvature="0" id="path16" d="M 17.51,4.002 C 17.43,4.013 17.4,4.088 17.4,4.228 17.4,4.383 17.46,4.487 17.55,4.939 17.69,4.952 17.93,5.111 18.31,5.436 18.93,5.977 19.44,6.782 19.76,7.719 20.06,8.605 20.25,8.454 20.32,7.27 20.37,6.463 20.42,6.279 20.6,6.279 20.8,6.279 21.03,6.923 21.26,8.129 21.35,8.616 21.4,8.959 21.43,9.32 21.45,8.545 21.42,8.016 21.26,7.197 21.03,5.991 20.8,5.347 20.6,5.347 20.42,5.347 20.37,5.531 20.32,6.338 20.25,7.522 20.06,7.673 19.76,6.787 19.44,5.85 18.93,5.044 18.31,4.504 17.89,4.147 17.48,3.984 17.51,4.002 Z M 26.27,6.58 C 26.02,6.553 26.07,6.883 26.37,7.543 26.48,7.575 26.61,7.632 26.79,7.738 27.41,8.116 28.02,8.795 28.58,9.755 29.2,10.8 29.35,10.82 29.27,9.826 29.26,9.681 29.27,9.599 29.27,9.482 29.22,9.785 29.02,9.574 28.58,8.823 28.02,7.863 27.41,7.184 26.79,6.806 26.56,6.668 26.39,6.592 26.27,6.58 Z M 17.39,7.024 C 17.12,7.024 17.04,7.463 17.15,8.246 17.19,8.073 17.27,7.956 17.39,7.956 17.51,7.956 17.7,8.074 17.82,8.218 18.07,8.52 18.23,8.551 18.32,8.315 18.42,8.077 18.4,7.861 18.24,7.499 18.15,7.585 18.01,7.518 17.82,7.286 17.7,7.142 17.51,7.024 17.39,7.024 Z M 29.55,7.761 C 29.33,7.695 29.21,8.088 29.27,8.894 29.28,9.005 29.27,9.056 29.28,9.141 29.35,8.514 29.65,8.531 30.07,9.318 30.6,10.31 30.73,10.99 30.85,13.19 30.91,14.32 31.01,15.28 31.06,15.33 31.12,15.39 31.24,15.27 31.35,15.04 31.72,14.3 31.91,14.73 32.01,16.55 32.09,18.07 32.08,18.05 32.45,17.89 32.71,17.78 32.77,17.79 32.95,18 33.06,18.14 33.16,18.38 33.16,18.54 33.16,18.98 33.43,19.14 33.82,18.92 34.1,18.76 34.15,18.76 34.3,18.91 34.39,19 34.5,19.24 34.54,19.46 34.48,20.06 34.78,20.32 35.01,20.32 35.3,20.32 35.45,20.52 35.53,21.02 35.48,21.65 35.74,21.76 36,21.54 36.22,21.35 36.4,21.37 36.51,21.5 36.52,21.49 36.52,21.49 36.52,21.47 36.8,20.72 36.48,20.2 36,20.61 35.74,20.83 35.48,20.72 35.53,20.08 35.45,19.58 35.3,19.39 35.01,19.39 34.78,19.39 34.48,19.12 34.54,18.53 34.5,18.31 34.39,18.06 34.3,17.97 34.15,17.83 34.1,17.83 33.82,17.99 33.43,18.21 33.16,18.05 33.16,17.61 33.16,17.45 33.06,17.21 32.95,17.07 32.77,16.86 32.71,16.84 32.45,16.95 32.08,17.11 32.09,17.14 32.01,15.62 31.91,13.8 31.72,13.37 31.35,14.11 31.24,14.34 31.12,14.46 31.06,14.4 31.01,14.35 30.91,13.38 30.85,12.26 30.73,10.06 30.6,9.376 30.07,8.386 29.87,8.006 29.69,7.801 29.55,7.761 Z M 26.43,9.768 C 26.21,9.805 26.15,10.22 26.27,10.87 26.36,10.48 26.57,10.63 26.87,10.94 27.24,11.31 27.43,11.28 27.43,10.85 27.43,10.73 27.36,10.53 27.25,10.25 27.16,10.25 27.04,10.17 26.87,10.01 26.69,9.823 26.54,9.748 26.43,9.768 Z M 17.38,10.67 C 17.34,11.07 17.23,11.37 17.05,11.54 16.83,11.75 16.82,11.9 16.96,12.58 16.99,12.55 17.01,12.51 17.05,12.47 17.35,12.19 17.47,11.56 17.38,10.67 Z M 22.01,11.6 21.76,11.9 21.5,12.2 21.42,11.96 C 21.41,11.93 21.41,11.74 21.41,11.61 21.39,12.24 21.39,12.79 21.42,12.89 L 21.5,13.13 21.76,12.83 22.01,12.53 22.09,12.82 C 22.1,12.88 22.11,13.11 22.12,13.33 22.13,12.48 22.12,12.02 22.09,11.89 Z M 26.8,13.59 C 26.79,13.67 26.77,13.72 26.77,13.79 26.77,14.04 26.69,14.28 26.6,14.36 26.49,14.44 26.44,14.48 26.46,14.92 26.49,15.41 26.37,15.45 25.68,15.18 25.34,15.05 25.3,15.06 25.13,15.28 24.97,15.47 24.89,15.5 24.6,15.42 24.41,15.37 24.05,15.19 23.8,15.03 23.29,14.71 23,14.76 22.92,15.15 22.84,15.59 22.24,15.91 22.11,15.59 22.11,15.94 22.09,16.48 22.1,16.52 22.23,16.85 22.84,16.53 22.92,16.09 23,15.69 23.29,15.65 23.8,15.96 24.05,16.12 24.41,16.3 24.6,16.35 24.89,16.43 24.97,16.41 25.13,16.21 25.3,15.99 25.34,15.98 25.68,16.11 26.37,16.38 26.49,16.34 26.46,15.85 26.44,15.57 26.49,15.38 26.6,15.29 26.69,15.22 26.77,14.98 26.77,14.73 26.78,14.49 26.82,14.2 26.86,14.09 26.89,14.02 26.86,13.83 26.8,13.59 Z M 17,13.73 C 16.95,13.73 16.89,13.73 16.79,13.73 16.45,13.73 16.41,13.76 16.34,14.1 16.31,14.25 16.33,14.6 16.36,14.95 16.42,14.7 16.48,14.66 16.79,14.66 17.24,14.66 17.22,14.72 17.01,13.77 17.01,13.75 17.01,13.74 17,13.73 Z M 15.78,15.99 C 15.7,15.98 15.63,15.98 15.6,16 15.53,16.04 15.55,16.42 15.62,16.93 15.69,16.9 15.87,16.93 16.05,16.99 16.24,17.06 16.42,17.09 16.46,17.06 16.49,17.03 16.46,16.48 16.39,16.2 16.39,16.18 16.39,16.15 16.39,16.13 16.31,16.13 16.2,16.11 16.05,16.06 15.96,16.03 15.86,16 15.78,15.99 Z M 15.63,17.92 C 15.59,17.95 15.54,17.98 15.47,18.01 15.21,18.12 15.17,18.18 15.23,18.44 15.3,18.78 15.18,18.92 14.7,19.02 13.78,19.21 13.5,19.48 13.78,19.9 13.97,20.19 13.77,20.37 12.99,20.63 12.23,20.87 11.94,21.24 12.26,21.57 12.38,21.7 12.4,21.78 12.36,21.88 12.51,21.76 12.7,21.65 12.99,21.56 13.77,21.3 13.97,21.12 13.78,20.84 13.5,20.41 13.78,20.15 14.7,19.95 15.18,19.85 15.3,19.72 15.23,19.37 15.17,19.12 15.21,19.05 15.47,18.94 15.73,18.82 15.76,18.77 15.7,18.44 15.66,18.22 15.65,18.09 15.63,17.92 Z M 37.27,21.92 C 37.21,21.9 37.08,21.92 36.85,21.95 36.72,21.97 36.7,21.96 36.61,21.96 36.6,22.1 36.58,22.24 36.52,22.4 36.43,22.65 36.35,22.88 36.35,22.91 36.35,22.93 36.58,22.92 36.85,22.88 36.97,22.86 36.99,22.87 37.06,22.87 37.07,22.74 37.09,22.62 37.18,22.53 37.27,22.44 37.34,22.25 37.34,22.12 37.34,22.01 37.34,21.95 37.27,21.92 Z M 12.13,22.24 C 12.01,22.37 11.86,22.5 11.71,22.57 11.51,22.66 11.26,22.85 11.16,23 10.99,23.24 10.99,23.28 11.16,23.52 11.23,23.63 11.27,23.71 11.3,23.79 11.42,23.68 11.57,23.56 11.71,23.5 11.91,23.41 12.16,23.2 12.26,23.02 12.45,22.73 12.45,22.71 12.26,22.51 12.17,22.42 12.13,22.33 12.13,22.24 Z M 37.26,23.32 C 37.24,23.38 37.21,23.43 37.18,23.46 36.92,23.74 37.08,24.3 37.41,24.3 37.47,24.3 37.53,24.33 37.58,24.35 37.6,24.32 37.61,24.31 37.63,24.28 37.85,23.89 37.89,23.76 37.79,23.58 37.72,23.46 37.56,23.37 37.41,23.37 37.36,23.37 37.31,23.35 37.26,23.32 Z M 11.05,24.24 C 10.65,24.44 10.23,24.87 10.23,25.07 10.23,25.18 10.33,25.35 10.44,25.45 10.47,25.47 10.5,25.52 10.52,25.56 10.68,25.4 10.89,25.25 11.09,25.15 11.38,25 11.4,24.81 11.16,24.45 11.09,24.35 11.06,24.3 11.05,24.24 Z M 37.68,25.09 C 37.66,25.14 37.66,25.16 37.63,25.21 37.31,25.75 37.29,25.82 37.57,25.96 37.61,25.9 37.66,25.84 37.73,25.75 38.05,25.4 38.03,25.27 37.68,25.09 Z M 10.55,26.52 C 10.51,26.57 10.5,26.61 10.45,26.68 9.95,27.27 9.883,27.81 10.27,27.86 10.33,27.78 10.37,27.7 10.45,27.61 10.71,27.3 10.76,27.15 10.71,26.88 10.69,26.76 10.62,26.63 10.55,26.52 Z M 37.86,26.52 C 37.82,26.58 37.79,26.62 37.73,26.69 37.4,27.07 37.39,27.19 37.68,27.26 37.92,27.33 37.98,27.74 37.77,27.94 37.72,27.98 37.71,28.02 37.72,28.06 37.8,27.99 37.88,27.91 37.91,27.82 38.02,27.61 38.01,27.53 37.84,27.35 37.68,27.19 37.67,27.11 37.77,27.01 37.9,26.88 37.92,26.68 37.86,26.52 Z M 10.22,28.79 C 10.07,29.08 10.13,29.24 10.4,29.36 10.41,29.37 10.42,29.37 10.43,29.38 10.7,29 10.68,28.81 10.33,28.81 10.29,28.81 10.25,28.8 10.22,28.79 Z M 37.51,29.14 C 37.2,29.28 37.16,29.45 37.4,29.65 37.42,29.66 37.42,29.67 37.43,29.68 37.46,29.58 37.48,29.47 37.5,29.33 37.51,29.24 37.51,29.2 37.51,29.14 Z M 10.3,30.23 C 9.965,30.76 9.983,31.04 10.37,31.01 10.37,31.01 10.37,31.01 10.38,31.01 10.53,30.77 10.67,30.53 10.67,30.49 10.67,30.45 10.55,30.36 10.4,30.29 10.35,30.27 10.33,30.25 10.3,30.23 Z M 37.08,30.99 C 37.06,30.99 37.04,31.01 37.01,31.01 36.81,31.01 36.74,31.08 36.77,31.2 36.97,31.25 37.07,31.15 37.08,30.99 Z M 10.61,31.94 C 10.56,31.93 10.48,31.94 10.39,31.95 10.37,32.05 10.36,32.16 10.36,32.25 10.38,32.43 10.41,32.53 10.48,32.58 10.51,32.51 10.52,32.44 10.56,32.37 10.74,32.04 10.78,31.95 10.61,31.94 Z M 36.43,32.02 C 36.26,32 36.13,32.07 36.13,32.23 36.13,32.31 36.26,32.59 36.42,32.84 36.42,32.85 36.42,32.85 36.42,32.86 36.7,32.77 36.72,32.48 36.48,32.03 36.46,32.03 36.44,32.02 36.43,32.02 Z M 11.1,33.44 C 11.08,33.42 11.03,33.43 10.95,33.46 10.96,33.58 10.98,33.68 11.04,33.74 11.05,33.7 11.05,33.67 11.07,33.48 11.1,33.53 11.12,33.46 11.1,33.44 Z M 36.31,33.83 C 35.93,33.88 35.88,34.01 36.11,34.33 36.12,34.33 36.12,34.32 36.13,34.32 36.32,34.26 36.37,34.06 36.31,33.83 Z M 11.69,34.71 C 11.66,34.71 11.62,34.72 11.58,34.73 11.55,34.97 11.58,35.17 11.68,35.29 11.69,35.26 11.69,35.23 11.71,35.2 11.85,34.85 11.86,34.72 11.69,34.71 Z M 36.23,35.17 C 36.2,35.2 36.18,35.24 36.13,35.25 35.91,35.32 35.87,35.47 36,35.72 36.02,35.72 36.03,35.71 36.05,35.71 36.33,35.67 36.39,35.46 36.23,35.17 Z M 36.32,36.42 C 36.3,36.54 36.21,36.62 36.05,36.48 35.74,36.69 35.74,36.79 36.03,37.04 36.04,37.05 36.05,37.06 36.06,37.07 36.08,37.01 36.14,36.96 36.23,36.89 36.43,36.75 36.45,36.61 36.32,36.42 Z M 36.24,37.82 C 36.24,37.82 36.24,37.82 36.23,37.82 36.01,37.99 35.99,38.04 36.11,38.28 36.11,38.29 36.11,38.29 36.12,38.3 36.21,38.21 36.25,38.03 36.24,37.82 Z" opacity=".1" fill="#fff" />
  <path style="stroke-width:0.9321" inkscape:connector-curvature="0" id="path18" d="M 17.51,4.934 C 17.43,4.945 17.4,5.02 17.4,5.16 17.4,5.533 17.72,6.475 18.07,7.14 18.14,7.277 18.2,7.393 18.24,7.499 18.27,7.473 18.3,7.437 18.32,7.383 18.45,7.074 18.39,6.81 18.07,6.208 17.86,5.82 17.68,5.348 17.55,4.939 17.54,4.938 17.52,4.932 17.51,4.934 Z M 26.27,7.512 C 25.93,7.475 26.09,8.021 26.76,9.265 26.97,9.654 27.14,9.986 27.25,10.25 27.36,10.26 27.43,10.15 27.43,9.915 27.43,9.685 27.19,9.123 26.76,8.333 26.59,8.01 26.48,7.774 26.37,7.543 26.34,7.533 26.3,7.515 26.27,7.512 Z M 17.15,8.246 C 17.07,8.531 17.09,9.015 17.23,9.731 17.3,10.07 17.35,10.39 17.38,10.67 17.43,10.19 17.39,9.571 17.23,8.799 17.19,8.59 17.17,8.419 17.15,8.246 Z M 29.28,9.141 C 29.27,9.231 29.27,9.365 29.27,9.482 29.29,9.41 29.28,9.271 29.28,9.141 Z M 21.43,9.32 C 21.43,9.567 21.44,9.735 21.42,10.08 21.39,10.74 21.39,11.27 21.41,11.61 21.41,11.41 21.41,11.23 21.42,11.01 21.46,10.23 21.46,9.76 21.43,9.32 Z M 26.27,10.87 C 26.14,11.18 26.23,11.93 26.58,12.89 26.68,13.17 26.75,13.4 26.8,13.59 26.82,13.42 26.83,13.23 26.86,13.16 26.92,13.03 26.82,12.6 26.58,11.96 26.43,11.55 26.33,11.18 26.27,10.87 Z M 16.96,12.58 C 16.82,12.76 16.84,12.98 17,13.73 17.21,13.71 17.18,13.59 17.01,12.84 16.99,12.73 16.98,12.67 16.96,12.58 Z M 22.12,13.33 C 22.11,13.5 22.12,13.48 22.11,13.82 22.08,14.72 22.08,15.52 22.1,15.59 22.11,15.59 22.11,15.59 22.11,15.59 22.11,15.28 22.1,15.18 22.11,14.76 22.13,14.18 22.13,13.7 22.12,13.33 Z M 16.36,14.95 C 16.35,14.98 16.35,15 16.34,15.03 16.3,15.22 16.33,15.7 16.39,16.13 16.41,16.13 16.45,16.13 16.46,16.13 16.49,16.09 16.46,15.71 16.39,15.27 16.38,15.16 16.37,15.06 16.36,14.95 Z M 15.6,16.93 C 15.53,16.98 15.55,17.37 15.63,17.92 15.74,17.84 15.74,17.75 15.7,17.51 15.65,17.26 15.65,17.12 15.62,16.93 15.62,16.93 15.61,16.93 15.6,16.93 Z M 36.51,21.5 C 36.43,21.73 36.35,21.95 36.35,21.97 36.35,21.99 36.52,21.97 36.61,21.96 36.63,21.76 36.59,21.6 36.51,21.5 Z M 12.36,21.88 C 12.23,21.99 12.13,22.11 12.13,22.24 12.18,22.19 12.24,22.14 12.26,22.09 12.33,21.99 12.34,21.94 12.36,21.88 Z M 37.27,22.86 C 37.24,22.84 37.13,22.86 37.06,22.87 37.06,23.06 37.13,23.24 37.26,23.32 37.31,23.23 37.34,23.13 37.34,23.05 37.34,22.94 37.34,22.88 37.27,22.86 Z M 11.3,23.79 C 11.25,23.84 11.19,23.89 11.16,23.93 11.06,24.07 11.04,24.15 11.05,24.24 11.06,24.23 11.08,24.22 11.09,24.22 11.29,24.11 11.36,23.98 11.3,23.79 Z M 37.58,24.35 C 37.29,24.86 37.3,24.91 37.48,25.07 37.66,25.07 37.67,25.08 37.68,25.09 37.83,24.81 37.87,24.67 37.79,24.52 37.75,24.44 37.67,24.39 37.58,24.35 Z M 10.52,25.56 C 10.35,25.73 10.23,25.9 10.23,26.01 10.23,26.12 10.33,26.28 10.44,26.38 10.48,26.41 10.51,26.47 10.55,26.52 10.69,26.32 10.75,26.16 10.71,25.95 10.69,25.82 10.61,25.67 10.52,25.56 Z M 37.57,25.96 C 37.41,26.18 37.45,26.28 37.68,26.33 37.77,26.36 37.82,26.43 37.86,26.52 38.03,26.28 37.97,26.15 37.48,26 37.61,25.98 37.6,25.97 37.57,25.96 Z M 10.27,27.86 C 9.978,28.32 9.941,28.71 10.22,28.79 10.26,28.7 10.32,28.6 10.41,28.49 10.71,28.07 10.69,27.87 10.33,27.87 10.31,27.87 10.29,27.87 10.27,27.86 Z M 37.72,28.06 C 37.65,28.12 37.58,28.18 37.51,28.21 37.2,28.34 37.16,28.52 37.4,28.72 37.5,28.79 37.52,28.93 37.51,29.14 37.51,29.14 37.51,29.14 37.51,29.14 37.66,29.07 37.84,28.9 37.91,28.76 38.02,28.54 38.01,28.46 37.84,28.28 37.75,28.19 37.72,28.12 37.72,28.06 Z M 10.43,29.38 C 10.42,29.4 10.42,29.41 10.41,29.42 10.09,29.85 10.07,30.07 10.3,30.23 10.31,30.2 10.31,30.19 10.33,30.17 10.52,29.88 10.67,29.61 10.67,29.56 10.67,29.52 10.56,29.44 10.43,29.38 Z M 37.43,29.68 C 37.35,29.97 37.22,30.07 37.01,30.07 36.7,30.07 36.66,30.23 36.91,30.52 37.06,30.7 37.09,30.86 37.08,30.99 37.31,30.95 37.43,30.76 37.5,30.26 37.55,29.92 37.53,29.78 37.43,29.68 Z M 10.61,31 C 10.55,31 10.48,31.01 10.38,31.01 10.35,31.05 10.36,31.06 10.33,31.1 9.954,31.67 9.968,31.98 10.37,31.95 10.38,31.95 10.38,31.95 10.39,31.95 10.42,31.78 10.47,31.6 10.56,31.44 10.74,31.11 10.78,31.02 10.61,31 Z M 36.43,31.09 C 36.26,31.06 36.13,31.14 36.13,31.3 36.13,31.38 36.26,31.66 36.42,31.91 36.44,31.96 36.46,31.99 36.48,32.03 36.52,32.04 36.56,32.05 36.61,32.08 37.09,32.31 37.28,31.91 36.91,31.46 36.82,31.35 36.78,31.27 36.77,31.2 36.72,31.19 36.67,31.17 36.61,31.14 36.55,31.11 36.49,31.09 36.43,31.09 Z M 11.1,32.51 C 11.08,32.48 11.03,32.49 10.94,32.53 10.7,32.62 10.56,32.48 10.48,32.58 10.4,32.79 10.35,33.01 10.36,33.19 10.4,33.58 10.5,33.63 10.94,33.46 10.94,33.46 10.94,33.46 10.95,33.46 10.93,33.28 10.96,33.04 11.07,32.7 11.1,32.59 11.12,32.53 11.1,32.51 Z M 36.42,32.86 C 36.4,32.86 36.38,32.88 36.35,32.88 35.92,32.94 35.87,33.07 36.12,33.41 36.23,33.55 36.28,33.69 36.31,33.83 36.33,33.82 36.34,33.82 36.35,33.82 36.74,33.77 36.76,33.41 36.42,32.86 Z M 11.04,33.74 C 10.82,34.49 10.94,34.84 11.45,34.74 11.51,34.73 11.54,34.73 11.58,34.73 11.6,34.58 11.48,34.43 11.71,34.27 11.9,33.81 11.86,33.73 11.45,33.81 11.26,33.84 11.13,33.82 11.04,33.74 Z M 36.11,34.33 C 35.86,34.42 35.86,34.48 36.14,35.01 36.18,35.07 36.21,35.12 36.23,35.17 36.4,35.02 36.37,34.68 36.12,34.34 36.12,34.34 36.12,34.33 36.11,34.33 Z M 12.39,35.22 C 12.35,35.23 12.31,35.27 12.25,35.32 12.18,35.38 12.01,35.42 11.87,35.4 11.79,35.39 11.73,35.35 11.68,35.29 11.48,35.83 11.56,36.29 11.87,36.33 12.01,36.35 12.18,36.32 12.25,36.25 12.48,36.04 12.53,36.14 12.51,36.8 12.49,37.62 12.73,38.06 13.18,38.01 13.41,37.98 13.48,38.03 13.55,38.27 13.66,38.66 13.95,38.86 14.41,38.86 14.74,38.87 14.77,38.89 14.71,39.12 14.61,39.47 14.89,39.48 15.68,39.7 L 16.35,39.76 16.32,40.1 C 16.29,40.38 16.33,40.45 16.57,40.54 16.74,40.6 17.17,40.62 17.57,40.58 18.28,40.51 18.28,40.51 18.28,40.78 18.28,41.23 18.96,41.42 19.65,41.17 19.9,41.08 19.95,41.11 20.1,41.39 L 20.28,41.71 21.23,41.67 C 21.76,41.48 22.28,41.59 22.38,41.54 22.52,41.48 22.58,41.51 22.58,41.63 22.58,41.72 22.68,41.89 22.8,42.01 23.06,42.26 23.28,42.27 24.13,42.06 24.66,41.93 24.82,41.92 25,42.03 25.22,42.16 25.49,42.1 26.32,41.76 26.43,41.71 26.53,41.77 26.6,41.93 26.75,42.26 27.17,42.27 27.92,41.96 28.27,41.81 28.57,41.69 28.6,41.69 28.62,41.69 28.69,41.81 28.75,41.96 28.81,42.1 28.92,42.22 29.01,42.22 29.1,42.22 29.32,42.1 29.5,41.96 29.88,41.65 30.02,41.63 30.11,41.85 30.21,42.09 30.52,42.04 30.87,41.72 L 31.19,41.43 31.46,41.75 C 31.68,42 31.76,42.04 31.92,41.94 32.02,41.88 32.13,41.73 32.14,41.6 32.2,41.25 32.47,41.21 32.73,41.52 32.85,41.67 32.99,41.8 33.05,41.8 33.25,41.8 33.47,41.47 33.54,41.07 33.63,40.59 33.66,40.57 33.95,40.82 34.21,41.04 34.51,40.9 34.57,40.55 34.59,40.4 34.73,40.28 34.93,40.21 35.17,40.13 35.28,40 35.38,39.67 35.55,39.12 35.52,39.14 35.78,39.27 36.19,39.48 36.39,38.9 36.12,38.3 36.03,38.38 35.92,38.41 35.78,38.34 35.52,38.21 35.55,38.19 35.38,38.73 35.28,39.07 35.17,39.2 34.93,39.28 34.73,39.34 34.59,39.47 34.57,39.62 34.51,39.97 34.21,40.11 33.95,39.89 33.66,39.48 33.63,39.66 33.54,40.13 33.47,40.54 33.25,40.87 33.05,40.87 32.99,40.87 32.85,40.74 32.73,40.59 32.47,40.28 32.2,40.32 32.14,40.67 32.13,40.79 32.02,40.95 31.92,41.01 31.76,41.11 31.68,41.07 31.46,40.81 L 31.19,40.5 30.87,40.79 C 30.52,41.11 30.21,41.16 30.11,40.92 30.02,40.7 29.88,40.72 29.5,41.02 29.32,41.17 29.1,41.29 29.01,41.29 28.92,41.29 28.81,41.17 28.75,41.02 28.69,40.88 28.62,40.76 28.6,40.76 28.57,40.76 28.27,40.88 27.92,41.03 27.17,41.34 26.75,41.33 26.6,41 26.53,40.84 26.43,40.78 26.32,40.83 25.49,41.17 25.22,41.23 25,41.1 24.82,40.99 24.66,41 24.13,41.12 23.28,41.33 23.06,41.33 22.8,41.08 22.68,40.96 22.58,40.79 22.58,40.7 22.58,40.58 22.52,40.55 22.38,40.61 22.28,40.66 21.76,40.71 21.23,40.74 L 20.28,40.78 20.1,40.46 C 19.95,40.17 19.9,40.15 19.65,40.24 18.96,40.49 18.28,40.3 18.28,39.85 18.28,39.58 18.28,39.58 17.57,39.65 17.17,39.69 16.74,39.67 16.57,39.61 16.33,39.52 16.29,39.45 16.32,39.16 L 16.35,38.82 15.68,38.77 C 14.89,38.71 14.61,38.54 14.71,38.18 14.77,37.96 14.74,37.93 14.41,37.93 13.95,37.93 13.66,37.73 13.55,37.34 13.48,37.1 13.41,37.05 13.18,37.07 12.73,37.13 12.49,36.69 12.51,35.87 12.53,35.38 12.5,35.19 12.39,35.22 Z M 36,35.72 C 35.75,35.77 35.76,35.87 36.03,36.11 36.17,36.23 36.26,36.33 36.32,36.42 36.34,36.3 36.28,36.13 36.14,35.94 36.08,35.86 36.04,35.79 36,35.72 Z M 36.06,37.07 C 36.03,37.14 36.04,37.21 36.11,37.35 36.19,37.51 36.23,37.67 36.24,37.82 36.51,37.62 36.46,37.42 36.06,37.07 Z" opacity=".2" />
</svg>
