<?xml version="1.0" encoding="UTF-8" standalone="no"?>
<svg xmlns:dc="http://purl.org/dc/elements/1.1/" xmlns:cc="http://creativecommons.org/ns#" xmlns:rdf="http://www.w3.org/1999/02/22-rdf-syntax-ns#" xmlns:svg="http://www.w3.org/2000/svg" xmlns="http://www.w3.org/2000/svg" xmlns:sodipodi="http://sodipodi.sourceforge.net/DTD/sodipodi-0.dtd" xmlns:inkscape="http://www.inkscape.org/namespaces/inkscape" inkscape:version="1.0beta2 (2b71d25d45, 2019-12-03)" sodipodi:docname="nuvolaplayer3_bandcamp.svg" id="svg12" version="1" height="64" width="64">
  <metadata id="metadata18">
    <rdf:RDF>
      <cc:Work rdf:about="">
        <dc:format>image/svg+xml</dc:format>
        <dc:type rdf:resource="http://purl.org/dc/dcmitype/StillImage" />
      </cc:Work>
    </rdf:RDF>
  </metadata>
  <defs id="defs16" />
  <sodipodi:namedview inkscape:current-layer="svg12" inkscape:cy="32" inkscape:cx="32" inkscape:zoom="12.4" showgrid="false" id="namedview14" inkscape:window-height="480" inkscape:window-width="640" inkscape:pageshadow="2" inkscape:pageopacity="0" guidetolerance="10" gridtolerance="10" objecttolerance="10" borderopacity="1" inkscape:document-rotation="0" bordercolor="#666666" pagecolor="#ffffff" />
  <circle r="29.75" cy="32" cx="32" id="path843" style="fill:#d9e5e5;stroke-width:0.0976" />
  <path id="path6" d="m 10.999999,21.000003 v 23.999998 h 6 v -0.527344 a 8.9999996,8.9999996 0 0 0 2.999999,0.527344 8.9999996,8.9999996 0 0 0 9,-8.999999 8.9999996,8.9999996 0 0 0 -9,-9 8.9999996,8.9999996 0 0 0 -2.999999,0.527344 v -6.527343 z m 31.999998,0 a 11.999999,11.999999 0 0 0 -11.999999,11.999999 11.999999,11.999999 0 0 0 11.999999,11.999999 11.999999,11.999999 0 0 0 10.375,-5.999999 h -10.375 a 5.9999997,5.9999997 0 0 1 -5.999999,-6 5.9999997,5.9999997 0 0 1 5.999999,-6 H 53.378903 A 11.999999,11.999999 0 0 0 42.999997,21.000003 Z M 19.999998,33.000002 a 2.9999998,2.9999998 0 0 1 3,3 2.9999998,2.9999998 0 0 1 -3,3 2.9999998,2.9999998 0 0 1 -2.999999,-3 2.9999998,2.9999998 0 0 1 2.999999,-3 z" style="opacity:0.2" />
  <path id="path8" d="m 10.999999,20.000003 v 14.999999 8.999999 h 6 v -0.527343 a 8.9999996,8.9999996 0 0 0 2.999999,0.527343 8.9999996,8.9999996 0 0 0 9,-8.999999 8.9999996,8.9999996 0 0 0 -9,-9 8.9999996,8.9999996 0 0 0 -2.999999,0.527344 v -6.527343 z m 31.999998,0 a 11.999999,11.999999 0 0 0 -11.999999,11.999999 11.999999,11.999999 0 0 0 11.999999,11.999999 11.999999,11.999999 0 0 0 10.375,-5.999999 h -10.375 a 5.9999997,5.9999997 0 0 1 -5.999999,-6 5.9999997,5.9999997 0 0 1 5.999999,-6 H 53.378903 A 11.999999,11.999999 0 0 0 42.999997,20.000003 Z M 19.999998,32.000002 a 2.9999998,2.9999998 0 0 1 3,3 2.9999998,2.9999998 0 0 1 -3,3 2.9999998,2.9999998 0 0 1 -2.999999,-3 2.9999998,2.9999998 0 0 1 2.999999,-3 z" style="fill:#5298c7" />
</svg>
