<?xml version="1.0" encoding="UTF-8" standalone="no"?>
<svg xmlns:dc="http://purl.org/dc/elements/1.1/" xmlns:cc="http://creativecommons.org/ns#" xmlns:rdf="http://www.w3.org/1999/02/22-rdf-syntax-ns#" xmlns:svg="http://www.w3.org/2000/svg" xmlns="http://www.w3.org/2000/svg" xmlns:sodipodi="http://sodipodi.sourceforge.net/DTD/sodipodi-0.dtd" xmlns:inkscape="http://www.inkscape.org/namespaces/inkscape" inkscape:version="1.0beta2 (2b71d25d45, 2019-12-03)" sodipodi:docname="yast-tftp-server.svg" id="svg16" version="1.1" height="64" width="64">
  <metadata id="metadata22">
    <rdf:RDF>
      <cc:Work rdf:about="">
        <dc:format>image/svg+xml</dc:format>
        <dc:type rdf:resource="http://purl.org/dc/dcmitype/StillImage" />
      </cc:Work>
    </rdf:RDF>
  </metadata>
  <defs id="defs20" />
  <sodipodi:namedview inkscape:current-layer="svg16" inkscape:cy="32" inkscape:cx="32" inkscape:zoom="12.4" showgrid="false" id="namedview18" inkscape:window-height="480" inkscape:window-width="640" inkscape:pageshadow="2" inkscape:pageopacity="0" guidetolerance="10" gridtolerance="10" objecttolerance="10" borderopacity="1" inkscape:document-rotation="0" bordercolor="#666666" pagecolor="#ffffff" />
  <circle r="29.69" cy="32" cx="32" id="path847" style="fill:#e1e6e9;stroke:#ffffff;stroke-width:0.098" />
  <path id="path6" d="m 21.882815,11.00531 a 2.2177093,1.733018 0 0 0 -1.804688,0.863281 l -7.781251,10.531252 a 2.2177093,1.733018 0 0 0 1.921876,2.601562 l 3.78125,0 0,16.66797 c 0,1.846101 1.485933,3.332033 3.332033,3.332033 l 1.335936,0 c 1.8461,0 3.332032,-1.485932 3.332032,-3.332033 l 0,-16.66797 3.781251,0 a 2.2177093,1.733018 0 0 0 1.921874,-2.601562 L 23.921879,11.868591 A 2.2177093,1.733018 0 0 0 21.882815,11.00531 Z" style="opacity:0.2" />
  <path id="path8" d="m 21.882815,10.003898 a 2.2177093,1.733018 0 0 0 -1.804688,0.863281 l -7.781251,10.531252 a 2.2177093,1.733018 0 0 0 1.921876,2.601563 l 3.78125,0 0,16.66797 c 0,1.8461 1.485933,3.332033 3.332033,3.332033 l 1.335936,0 c 1.8461,0 3.332032,-1.485933 3.332032,-3.332033 l 0,-16.66797 3.781251,0 a 2.2177093,1.733018 0 0 0 1.921874,-2.601563 L 23.921879,10.867179 a 2.2177093,1.733018 0 0 0 -2.039064,-0.863281 z" style="fill:#ffd42b" />
  <path id="path10" d="m 41.332038,21.001404 c -1.8461,0 -3.332033,1.485933 -3.332033,3.332033 l 0,16.66797 -3.78125,0 A 2.2177093,1.733018 0 0 0 32.29688,43.60297 l 7.78125,10.531251 a 2.2177093,1.733018 0 0 0 1.804688,0.863282 2.2177093,1.733018 0 0 0 2.039064,-0.863282 L 51.703131,43.60297 a 2.2177093,1.733018 0 0 0 -1.921874,-2.601563 l -3.781251,0 0,-16.66797 c 0,-1.8461 -1.485932,-3.332033 -3.332032,-3.332033 l -1.335936,0 z" style="opacity:0.2" />
  <path id="path12" d="m 41.332038,19.999993 c -1.8461,0 -3.332033,1.485932 -3.332033,3.332033 l 0,16.66797 -3.78125,0 a 2.2177093,1.733018 0 0 0 -1.921875,2.601562 l 7.78125,10.531252 a 2.2177093,1.733018 0 0 0 1.804688,0.863282 2.2177093,1.733018 0 0 0 2.039064,-0.863282 l 7.781249,-10.531252 a 2.2177093,1.733018 0 0 0 -1.921874,-2.601562 l -3.781251,0 0,-16.66797 c 0,-1.846101 -1.485932,-3.332033 -3.332032,-3.332033 l -1.335936,0 z" style="fill:#71d716" />
  <path id="path14" d="M 21.572266 4.0097656 C 19.229524 4.1061926 16.8683 4.9962679 15.15625 7.296875 L 15.15625 7.3007812 L 7.3339844 17.824219 C 7.333244 17.825212 7.3347242 17.827125 7.3339844 17.828125 L 7.3300781 17.832031 C 6.3221472 19.188354 5.9290961 21.014941 6.0332031 22.765625 C 6.1099635 21.340339 6.5140401 19.930133 7.3300781 18.832031 L 7.3339844 18.828125 C 7.3347242 18.827125 7.333244 18.825212 7.3339844 18.824219 L 15.15625 8.3007812 L 15.15625 8.296875 C 16.8683 5.9962679 19.229524 5.1061926 21.572266 5.0097656 L 21.580078 5.0097656 C 24.181448 4.9030492 26.826085 5.7463608 28.726562 8.3007812 L 35.433594 17.324219 C 37.075928 15.937713 39.11713 15 41.386719 15 L 42.730469 15 C 47.825718 15 52.117188 19.26651 52.117188 24.332031 L 52.117188 23.332031 C 52.117188 18.26651 47.825718 14 42.730469 14 L 41.386719 14 C 39.11713 14 37.075928 14.937713 35.433594 16.324219 L 28.726562 7.3007812 C 26.826085 4.7463608 24.181448 3.9030492 21.580078 4.0097656 L 21.572266 4.0097656 z M 52.117188 34.480469 L 52.117188 35.480469 C 53.850748 35.927931 55.496066 36.715782 56.673828 38.300781 C 57.442548 39.33526 57.878851 40.757741 57.966797 42.232422 C 58.064353 40.414312 57.616253 38.569017 56.673828 37.300781 C 55.496066 35.715782 53.850748 34.927931 52.117188 34.480469 z" style="opacity:0.1;fill:#ffffff" />
</svg>
