<?xml version="1.0" encoding="UTF-8" standalone="no"?>
<svg xmlns:dc="http://purl.org/dc/elements/1.1/" xmlns:cc="http://creativecommons.org/ns#" xmlns:rdf="http://www.w3.org/1999/02/22-rdf-syntax-ns#" xmlns:svg="http://www.w3.org/2000/svg" xmlns="http://www.w3.org/2000/svg" xmlns:sodipodi="http://sodipodi.sourceforge.net/DTD/sodipodi-0.dtd" xmlns:inkscape="http://www.inkscape.org/namespaces/inkscape" inkscape:version="1.0beta2 (2b71d25d45, 2019-12-03)" sodipodi:docname="bbc.svg" id="svg32" version="1" height="64" width="64">
  <metadata id="metadata38">
    <rdf:RDF>
      <cc:Work rdf:about="">
        <dc:format>image/svg+xml</dc:format>
        <dc:type rdf:resource="http://purl.org/dc/dcmitype/StillImage" />
      </cc:Work>
    </rdf:RDF>
  </metadata>
  <defs id="defs36" />
  <sodipodi:namedview inkscape:current-layer="svg32" inkscape:cy="32" inkscape:cx="32" inkscape:zoom="12.07" showgrid="false" id="namedview34" inkscape:window-height="480" inkscape:window-width="640" inkscape:pageshadow="2" inkscape:pageopacity="0" guidetolerance="10" gridtolerance="10" objecttolerance="10" borderopacity="1" inkscape:document-rotation="0" bordercolor="#666666" pagecolor="#ffffff" />
  <rect id="rect4" ry="28.99" rx="28.99" y="3.005" x="3.005" height="57.99" width="57.99" style="fill:#c2352a;stroke-width:1.0355" />
  <g id="g16" transform="matrix(1.9999714,0,0,1.9999714,5.760572e-5,1.000858)" style="opacity:0.2">
    <g id="g8" transform="translate(-8,0)">
      <path id="path6" d="m 4,13 0,7 7,0 0,-7 -7,0 z m 1,1 4,0 0,2 1,0 0,3 -5,0 0,-5 z m 1,1 0,1 2,0 0,-1 -2,0 z m 0,2 0,1 3,0 0,-1 -3,0 z" transform="translate(8,0)" />
    </g>
    <path id="path10" d="m 20,13 0,7 7,0 0,-7 -7,0 z m 1,1 5,0 0,1 -4,0 0,3 4,0 0,1 -5,0 0,-5 z" />
    <g id="g14">
      <path id="path12" d="m 4,13 0,7 7,0 0,-7 -7,0 z m 1,1 4,0 0,2 1,0 0,3 -5,0 0,-5 z m 1,1 0,1 2,0 0,-1 -2,0 z m 0,2 0,1 3,0 0,-1 -3,0 z" transform="translate(8,0)" />
    </g>
  </g>
  <g id="g28" transform="matrix(1.9999714,0,0,1.9999714,5.760572e-5,8.866e-4)" style="fill:#ffffff">
    <g id="g20" transform="translate(-8,0)">
      <path id="path18" d="m 4,13 0,7 7,0 0,-7 -7,0 z m 1,1 4,0 0,2 1,0 0,3 -5,0 0,-5 z m 1,1 0,1 2,0 0,-1 -2,0 z m 0,2 0,1 3,0 0,-1 -3,0 z" transform="translate(8,0)" />
    </g>
    <path id="path22" d="m 20,13 0,7 7,0 0,-7 -7,0 z m 1,1 5,0 0,1 -4,0 0,3 4,0 0,1 -5,0 0,-5 z" />
    <g id="g26">
      <path id="path24" d="m 4,13 0,7 7,0 0,-7 -7,0 z m 1,1 4,0 0,2 1,0 0,3 -5,0 0,-5 z m 1,1 0,1 2,0 0,-1 -2,0 z m 0,2 0,1 3,0 0,-1 -3,0 z" transform="translate(8,0)" />
    </g>
  </g>
  <path id="path30" d="M 6.8007812 4 C 5.2496034 4 4 5.2496034 4 6.8007812 L 4 7.8027344 C 4 6.2515566 5.2496034 5.0019531 6.8007812 5.0019531 L 57.199219 5.0019531 C 58.749196 5.0019531 60 6.2515566 60 7.8027344 L 60 6.8007812 C 60 5.2496035 58.749196 4 57.199219 4 L 6.8007812 4 z" style="opacity:0.2;fill:#ffffff" />
</svg>
