<?xml version="1.0" encoding="UTF-8" standalone="no"?>
<svg xmlns:dc="http://purl.org/dc/elements/1.1/" xmlns:cc="http://creativecommons.org/ns#" xmlns:rdf="http://www.w3.org/1999/02/22-rdf-syntax-ns#" xmlns:svg="http://www.w3.org/2000/svg" xmlns="http://www.w3.org/2000/svg" xmlns:sodipodi="http://sodipodi.sourceforge.net/DTD/sodipodi-0.dtd" xmlns:inkscape="http://www.inkscape.org/namespaces/inkscape" inkscape:version="1.0beta2 (2b71d25d45, 2019-12-03)" sodipodi:docname="bitmap2component.svg" id="svg16" version="1" height="64" width="64">
  <metadata id="metadata22">
    <rdf:RDF>
      <cc:Work rdf:about="">
        <dc:format>image/svg+xml</dc:format>
        <dc:type rdf:resource="http://purl.org/dc/dcmitype/StillImage" />
      </cc:Work>
    </rdf:RDF>
  </metadata>
  <defs id="defs20" />
  <sodipodi:namedview inkscape:current-layer="svg16" inkscape:cy="32" inkscape:cx="32" inkscape:zoom="12.07" showgrid="false" id="namedview18" inkscape:window-height="480" inkscape:window-width="640" inkscape:pageshadow="2" inkscape:pageopacity="0" guidetolerance="10" gridtolerance="10" objecttolerance="10" borderopacity="1" inkscape:document-rotation="0" bordercolor="#666666" pagecolor="#ffffff" />
  <rect id="rect4" ry="29.08" rx="29.08" y="2.925" x="2.925" height="58.15" width="58.15" style="fill:#58a158;stroke-width:1.0385" />
  <path id="path8" d="m 34.79556,38.635677 c 0,1.914252 0.05252,3.50635 -0.937707,5.202325 -0.796668,1.377921 -2.06297,2.226569 -3.47475,2.226569 -1.927932,0 -3.047156,-1.43254 -3.047156,-3.54975 0,-4.17854 3.833345,-4.938929 7.461093,-4.938929 l 0,1.061445 m 5.063728,11.946229 c -0.328576,0.289876 -0.808689,0.312275 -1.183763,0.120438 -1.665977,-1.34998 -1.965972,-1.979971 -2.885959,-3.269953 C 33.037085,50.180012 31.091113,51 27.515164,51 c -4.223939,0 -7.515892,-2.543964 -7.515892,-7.635891 0,-3.976943 2.209968,-6.689304 5.350123,-8.014085 2.720161,-1.170683 6.529507,-1.377921 9.441665,-1.701396 l 0,-0.634351 c 0,-1.165083 0.09452,-2.542963 -0.603131,-3.549749 -0.615131,-0.903207 -1.786895,-1.274302 -2.81916,-1.274302 -1.915933,0 -3.621748,0.957826 -4.037342,2.943558 -0.08852,0.442514 -0.415594,0.875208 -0.873188,0.897607 l -4.87193,-0.509992 c -0.407994,-0.092 -0.859988,-0.415995 -0.749989,-1.027986 1.125984,-5.753917 6.459907,-7.493893 11.229839,-7.493893 2.443965,0 5.638319,0.634351 7.561692,2.439366 2.443965,2.226568 2.209968,5.196725 2.209968,8.430079 l 0,7.636091 c 0,2.297967 0.972226,3.303353 1.893433,4.545535 0.322576,0.438314 0.393095,0.973226 -0.012,1.302301 -1.026225,0.842988 -2.847559,2.384766 -3.849945,3.254354 l -0.0182,-0.0168" style="opacity:0.2;fill-rule:evenodd" />
  <path id="path10" d="m 34.79556,37.636348 c 0,1.914253 0.05252,3.50635 -0.937707,5.202326 -0.796668,1.37792 -2.06297,2.226568 -3.47475,2.226568 -1.927932,0 -3.047156,-1.432539 -3.047156,-3.549749 0,-4.17854 3.833345,-4.938929 7.461093,-4.938929 l 0,1.061444 m 5.063728,11.94623 c -0.328576,0.289875 -0.808689,0.312275 -1.183763,0.120438 -1.665977,-1.349981 -1.965972,-1.979972 -2.885959,-3.269953 -2.753961,2.74596 -4.699933,3.565949 -8.275882,3.565949 -4.223939,0 -7.515892,-2.543964 -7.515892,-7.635891 0,-3.976943 2.209968,-6.689305 5.350123,-8.014086 2.720161,-1.170683 6.529507,-1.37792 9.441665,-1.701395 l 0,-0.634351 c 0,-1.165084 0.09452,-2.542964 -0.603131,-3.549749 -0.615131,-0.903208 -1.786895,-1.274302 -2.81916,-1.274302 -1.915933,0 -3.621748,0.957826 -4.037342,2.943558 -0.08852,0.442513 -0.415594,0.875207 -0.873188,0.897607 l -4.87193,-0.509993 c -0.407994,-0.092 -0.859988,-0.415994 -0.749989,-1.027985 1.125984,-5.753318 6.459907,-7.493893 11.229839,-7.493893 2.443965,0 5.638319,0.634351 7.561692,2.439365 2.443965,2.226568 2.209968,5.196726 2.209968,8.43008 l 0,7.63609 c 0,2.297968 0.972226,3.303353 1.893433,4.545535 0.322576,0.438314 0.393095,0.973226 -0.012,1.302302 -1.026225,0.842988 -2.847559,2.384766 -3.849945,3.254353 l -0.0182,-0.0168" style="fill:#ffffff;fill-rule:evenodd" />
  <path d="M 32 2.926 C 20.28 2.926 10.23 9.793 5.617 19.74 L 58.39 19.74 C 53.78 9.793 43.72 2.926 32 2.926 z " style="fill:#a0cba0;stroke-width:1.0385" id="rect847" />
</svg>
