<?xml version="1.0" encoding="UTF-8" standalone="no"?>
<svg xmlns:dc="http://purl.org/dc/elements/1.1/" xmlns:cc="http://creativecommons.org/ns#" xmlns:rdf="http://www.w3.org/1999/02/22-rdf-syntax-ns#" xmlns:svg="http://www.w3.org/2000/svg" xmlns="http://www.w3.org/2000/svg" xmlns:sodipodi="http://sodipodi.sourceforge.net/DTD/sodipodi-0.dtd" xmlns:inkscape="http://www.inkscape.org/namespaces/inkscape" inkscape:version="1.0beta2 (2b71d25d45, 2019-12-03)" sodipodi:docname="appimagekit-bitshares2-light.svg" id="svg24" version="1" height="64" width="64">
  <metadata id="metadata30">
    <rdf:RDF>
      <cc:Work rdf:about="">
        <dc:format>image/svg+xml</dc:format>
        <dc:type rdf:resource="http://purl.org/dc/dcmitype/StillImage" />
      </cc:Work>
    </rdf:RDF>
  </metadata>
  <defs id="defs28" />
  <sodipodi:namedview inkscape:current-layer="svg24" inkscape:cy="32" inkscape:cx="32" inkscape:zoom="12.4" showgrid="false" id="namedview26" inkscape:window-height="480" inkscape:window-width="640" inkscape:pageshadow="2" inkscape:pageopacity="0" guidetolerance="10" gridtolerance="10" objecttolerance="10" borderopacity="1" inkscape:document-rotation="0" bordercolor="#666666" pagecolor="#ffffff" />
  <rect id="rect4" ry="29.17" rx="29.17" y="2.83" x="2.83" height="58.34" width="58.34" style="fill:#5a98ca;stroke-width:1.0418" />
  <g id="g12" transform="matrix(1.4,0,0,1.4,-2,-0.2)" style="opacity:0.2">
    <path id="path6" d="m 24.976562,19 v 5.53125 a 4,4 0 0 1 1.990235,0.828125 l 3.910156,-3.910156 A 9.5167286,9.5167286 0 0 0 24.976562,19 Z m -0.953124,0.0078 a 9.5167286,9.5167286 0 0 0 -5.900391,2.441407 l 3.90625,3.90625 a 4,4 0 0 1 1.994141,-0.822266 z m -6.574219,3.115235 A 9.5167286,9.5167286 0 0 0 15,28.023438 h 5.53125 a 4,4 0 0 1 0.828125,-1.990235 z m 14.101562,0 -3.90625,3.90625 a 4,4 0 0 1 0.822266,1.994141 h 5.525391 A 9.5167286,9.5167286 0 0 0 31.550781,22.123035 Z M 15.007812,28.97655 a 9.5167286,9.5167286 0 0 0 2.441407,5.900391 l 3.90625,-3.90625 A 4,4 0 0 1 20.533203,28.97655 Z m 13.460938,0 a 4,4 0 0 1 -0.828125,1.990235 l 3.910156,3.910156 A 9.5167286,9.5167286 0 0 0 34,28.976562 Z m -6.435547,2.664063 -3.910156,3.910156 A 9.5167286,9.5167286 0 0 0 24.023438,38 v -5.53125 a 4,4 0 0 1 -1.990235,-0.828125 z m 4.9375,0.0039 a 4,4 0 0 1 -1.994141,0.822266 v 5.525391 a 9.5167286,9.5167286 0 0 0 5.900391,-2.441407 z" />
    <path id="path8" d="m 15,9 v 9.300781 l 7.029297,7.056641 A 4,4 0 0 1 24,24.537109 V 17 Z" />
    <path id="path10" d="M 15,19.577327 21.326172,25.968673 20,27 18,28 h -3 z" />
  </g>
  <g id="g20" transform="matrix(1.4,0,0,1.4,-2,-1.2)">
    <path id="path14" d="m 24.976562,19 v 5.53125 a 4,4 0 0 1 1.990235,0.828125 l 3.910156,-3.910156 A 9.5167286,9.5167286 0 0 0 24.976562,19 Z m -0.953124,0.0078 a 9.5167286,9.5167286 0 0 0 -5.900391,2.441407 l 3.90625,3.90625 a 4,4 0 0 1 1.994141,-0.822266 z m -6.574219,3.115235 A 9.5167286,9.5167286 0 0 0 15,28.023438 h 5.53125 a 4,4 0 0 1 0.828125,-1.990235 z m 14.101562,0 -3.90625,3.90625 a 4,4 0 0 1 0.822266,1.994141 h 5.525391 A 9.5167286,9.5167286 0 0 0 31.550781,22.123035 Z M 15.007812,28.97655 a 9.5167286,9.5167286 0 0 0 2.441407,5.900391 l 3.90625,-3.90625 A 4,4 0 0 1 20.533203,28.97655 Z m 13.460938,0 a 4,4 0 0 1 -0.828125,1.990235 l 3.910156,3.910156 A 9.5167286,9.5167286 0 0 0 34,28.976562 Z m -6.435547,2.664063 -3.910156,3.910156 A 9.5167286,9.5167286 0 0 0 24.023438,38 v -5.53125 a 4,4 0 0 1 -1.990235,-0.828125 z m 4.9375,0.0039 a 4,4 0 0 1 -1.994141,0.822266 v 5.525391 a 9.5167286,9.5167286 0 0 0 5.900391,-2.441407 z" style="fill:#ffffff" />
    <path id="path16" d="m 15,9 v 9.300781 l 7.029297,7.056641 A 4,4 0 0 1 24,24.537109 V 17 Z" style="fill:#ffffff" />
    <path id="path18" d="M 15,19.577327 21.326172,25.968673 20,27 18,28 h -3 z" style="fill:#ffffff" />
  </g>
</svg>
