<?xml version="1.0" encoding="UTF-8" standalone="no"?>
<svg xmlns:dc="http://purl.org/dc/elements/1.1/" xmlns:cc="http://creativecommons.org/ns#" xmlns:rdf="http://www.w3.org/1999/02/22-rdf-syntax-ns#" xmlns:svg="http://www.w3.org/2000/svg" xmlns="http://www.w3.org/2000/svg" xmlns:sodipodi="http://sodipodi.sourceforge.net/DTD/sodipodi-0.dtd" xmlns:inkscape="http://www.inkscape.org/namespaces/inkscape" inkscape:version="1.0beta2 (2b71d25d45, 2019-12-03)" sodipodi:docname="appimagekit-Black_Chocobo.svg" id="svg32" version="1.1" height="64" width="64">
  <metadata id="metadata38">
    <rdf:RDF>
      <cc:Work rdf:about="">
        <dc:format>image/svg+xml</dc:format>
        <dc:type rdf:resource="http://purl.org/dc/dcmitype/StillImage" />
      </cc:Work>
    </rdf:RDF>
  </metadata>
  <defs id="defs36" />
  <sodipodi:namedview inkscape:current-layer="svg32" inkscape:cy="38.31" inkscape:cx="32" inkscape:zoom="12.07" showgrid="false" id="namedview34" inkscape:window-height="480" inkscape:window-width="640" inkscape:pageshadow="2" inkscape:pageopacity="0" guidetolerance="10" gridtolerance="10" objecttolerance="10" borderopacity="1" inkscape:document-rotation="0" bordercolor="#666666" pagecolor="#ffffff" />
  <rect id="rect4" ry="29.86" rx="29.86" y="2.135" x="2.135" height="59.73" width="59.73" style="fill:#f1f1f1;stroke-width:1.0666" />
  <path inkscape:connector-curvature="0" id="path6" d="M 24.76,57 C 25.81,54.25 26.96,51.36 26.51,48.35 26.37,46.67 21.3,45 19.59,45.16 21.91,42.89 20.93,34.47 19.88,29.47 19.25,27.23 21.06,25.68 21.96,23.61 21.9,21.81 24.19,21.05 24.55,22.38 25.92,21.46 27.74,19.19 29.31,21.05 30.96,21.98 32.4,22.54 34.31,22.12 36.21,21.23 38.26,20.27 39.88,18.89 41.57,17.53 43.31,16.17 44.68,14.44 45.56,13.92 46.17,11.97 46.8,11.88 46.48,13.82 45.81,15.71 45.06,17.52 43.97,19.54 41.67,20.02 40.04,21.48 39.86,23.19 42.21,20.41 43.23,20.75 45.07,20.29 46.37,18.85 48.07,17.93 49.47,16.34 51.49,15.41 52.59,13.54 53.76,12.23 52.22,15.26 52.1,15.82 51.22,17.53 50.48,18.99 49.33,20.54 48.45,22.3 46.51,23.59 44.55,23.69 43.49,23.9 41.61,23.82 41.09,24.59 43.01,25.16 44.94,24.52 46.82,24.07 48.52,23.45 50.04,24.97 48.36,26.36 47.75,28.93 45.01,28.06 43.09,28.37 40.87,28.64 43.79,30.62 45.14,30.09 48.09,29.23 45.48,32.77 43.86,31.89 41.33,30.26 42.18,33.91 42.08,35.32 42.36,36.77 41.19,40.88 43.75,40.38 44.75,40.11 47.53,40.53 45.38,41.56 44.22,42.09 44.2,44.3 42.65,43.04 40.59,42.63 43.52,44.89 41.61,45.31 38.87,46.6 39.86,48.89 38.8,51.64 38.41,53.51 37.15,55.16 37.06,57.09 32.96,57.06 28.85,57.17 24.76,57 Z" style="fill:#3f3f3f;stroke-width:0.8342" />
  <path inkscape:connector-curvature="0" id="path8" d="M 46.8,11.88 C 46.17,11.97 45.56,13.92 44.67,14.44 43.31,16.17 41.57,17.53 39.88,18.89 38.26,20.27 36.21,21.23 34.31,22.12 32.4,22.54 30.96,21.98 29.31,21.05 27.74,19.19 25.92,21.46 24.55,22.38 24.19,21.05 21.9,21.81 21.96,23.61 21.13,25.52 19.52,26.99 19.78,28.97 19.98,27.39 21.25,26.08 21.96,24.44 21.9,22.65 24.19,21.89 24.55,23.22 25.92,22.29 27.74,20.02 29.31,21.89 30.96,22.81 32.4,23.37 34.31,22.95 36.21,22.07 38.26,21.11 39.88,19.73 41.57,18.35 43.31,17.01 44.67,15.28 45.47,14.81 46.04,13.21 46.61,12.81 46.68,12.5 46.75,12.2 46.8,11.88 Z M 52.98,13.22 C 52.93,13.2 52.81,13.29 52.59,13.54 51.49,15.41 49.47,16.34 48.07,17.93 46.37,18.84 45.07,20.29 43.24,20.75 42.51,20.5 41.11,21.84 40.43,22 40.3,22.1 40.16,22.2 40.04,22.3 39.86,24.03 42.21,21.24 43.24,21.58 45.07,21.12 46.37,19.67 48.07,18.77 49.47,17.17 51.49,16.25 52.59,14.37 52.64,14.31 52.67,14.3 52.71,14.25 52.93,13.72 53.1,13.25 52.98,13.22 Z M 47.73,23.93 C 47.45,23.91 47.13,23.96 46.82,24.07 45.37,24.41 43.89,24.87 42.41,24.8 41.83,24.92 41.32,25.08 41.09,25.43 43.01,26 44.95,25.36 46.82,24.91 47.8,24.55 48.73,24.91 49,25.54 49.32,24.71 48.68,23.99 47.73,23.93 Z M 42.58,29.33 C 41.46,29.85 43.92,31.4 45.14,30.93 45.73,30.75 46.09,30.76 46.3,30.87 46.68,30.25 46.53,29.68 45.14,30.09 44.37,30.39 43.13,29.88 42.58,29.33 Z M 42.03,33.7 C 41.99,34.53 42.13,35.54 42.08,36.15 42.1,36.26 42.1,36.41 42.11,36.54 42.14,36.06 42.14,35.62 42.08,35.32 42.11,34.9 42.06,34.3 42.03,33.7 Z M 42.07,38.47 C 42.01,40.01 42.14,41.54 43.75,41.22 44.26,41.08 45.23,41.12 45.78,41.34 47.1,40.48 44.67,40.13 43.75,40.38 42.43,40.65 42.11,39.67 42.07,38.47 Z M 21,39.66 C 20.97,42.12 20.58,44.19 19.59,45.16 19.74,45.14 19.96,45.16 20.16,45.18 20.81,43.91 21.04,41.91 21,39.66 Z M 42.07,43.85 C 41.67,43.95 41.99,44.46 42.18,44.98 42.39,44.68 42.23,44.24 42.07,43.85 Z M 26.59,50.1 C 26.5,52.48 25.6,54.79 24.76,57 24.86,57 24.96,57 25.07,57.01 25.91,54.79 26.7,52.48 26.59,50.1 Z" style="opacity:0.2;stroke-width:0.8342" />
  <ellipse ry="3.337" rx="2.478" cy="32.07" cx="26.18" style="opacity:0.2;stroke-width:0.8342" id="ellipse865" />
  <ellipse id="ellipse11" ry="3.337" rx="2.478" cy="31.24" cx="26.18" style="fill:#456ef0;stroke-width:0.8342" />
  <path inkscape:connector-curvature="0" id="path13" d="M 24.22,29.21 A 2.478,3.337 0 0 0 23.7,31.24 2.478,3.337 0 0 0 24.87,34.07 3.098,2.781 0 0 0 26.18,31.8 3.098,2.781 0 0 0 24.22,29.21 Z" style="opacity:0.598;fill:#113ecd;stroke-width:0.8342" />
  <path inkscape:connector-curvature="0" d="M 26.18,27.9 A 2.478,3.337 0 0 0 24.81,28.46 2.478,3.337 0 0 1 24.94,28.45 2.478,3.337 0 0 1 27.42,31.8 2.478,3.337 0 0 1 26.32,34.57 2.478,3.337 0 0 0 28.67,31.24 2.478,3.337 0 0 0 26.18,27.9 Z" style="fill:#ffffff;stroke-width:0.8342" id="ellipse1023" />
  <path inkscape:connector-curvature="0" id="path16" d="M 20.07,27.9 C 12.69,31.55 8.557,41.98 11.03,49.78 11.25,50.33 11.52,50.85 12.03,51.26 13.33,50.47 13.85,49.08 14.93,48.15 15.47,47.7 16.08,47.38 16.84,47.41 19.01,47.28 20.63,46.59 22.22,46.04 23.11,45.57 24.1,45.22 25.01,44.69 26.69,43.91 27.85,41.74 26.19,41.22 25.81,41.11 25.33,41.18 24.94,41.03 23.01,39.82 21.57,36.77 21.07,34.71 20.54,32.49 19.51,30.09 19.93,28.09 Z" style="opacity:0.2;stroke-width:0.8342" />
  <path inkscape:connector-curvature="0" id="path18" d="M 23.69,30.65 C 23.61,31.01 23.71,31.31 23.7,31.69 23.71,32.07 23.76,32.44 23.85,32.8 24.48,32.73 24.94,32.25 24.94,31.69 24.94,31.13 24.32,30.72 23.69,30.65 Z" style="fill:#2e2e2e;stroke-width:0.8342" />
  <path inkscape:connector-curvature="0" id="path20" d="M 20.07,27.06 C 12.69,30.71 8.557,41.15 11.03,48.95 11.25,49.5 11.52,50.02 12.03,50.42 13.33,49.64 13.85,48.26 14.93,47.32 15.47,46.87 16.08,46.54 16.84,46.58 19.01,46.45 20.63,45.75 22.22,45.2 23.11,44.73 24.1,44.39 25.01,43.86 26.69,43.08 27.85,40.9 26.19,40.38 25.81,40.28 25.33,40.35 24.94,40.2 23.01,38.98 21.57,35.93 21.07,33.87 20.54,31.66 19.51,29.26 19.93,27.26 Z" style="fill:#eba420;stroke-width:0.8342" />
  <path inkscape:connector-curvature="0" id="path22" d="M 12.14,10.38 C 10.2,10.38 8.641,11.94 8.641,13.89 V 14.72 C 8.641,12.78 10.2,11.22 12.14,11.22 H 51.86 C 53.79,11.22 55.36,12.78 55.36,14.72 V 13.89 C 55.36,11.94 53.79,10.38 51.86,10.38 Z" style="opacity:0.1;fill:#ffffff;stroke-width:0.8342" />
  <path inkscape:connector-curvature="0" id="path24" d="M 19.11,32.61 C 18.6,33.12 16.8,34.1 16.29,33.6 15.78,33.1 16.77,31.29 17.27,30.78 17.78,30.27 18.6,30.27 19.11,30.78 19.61,31.29 19.61,32.11 19.11,32.61 Z" style="opacity:0.3;stroke-width:0.8342" />
  <path inkscape:connector-curvature="0" id="path26" d="M 18.19,30.41 C 17.86,30.41 17.53,30.53 17.27,30.78 16.8,31.27 15.88,32.92 16.23,33.52 16.43,32.81 16.95,31.95 17.27,31.62 17.78,31.11 18.6,31.11 19.11,31.62 19.25,31.76 19.35,31.94 19.41,32.11 19.57,31.66 19.47,31.15 19.11,30.78 18.86,30.53 18.52,30.41 18.19,30.41 Z" style="opacity:0.2;stroke-width:0.8342" />
  <path inkscape:connector-curvature="0" id="path28" d="M 20.07,27.06 C 13.99,30.07 10.12,37.68 10.33,44.63 10.44,38.01 14.13,30.98 19.84,28.02 19.85,27.76 19.88,27.5 19.93,27.26 Z M 19.85,28.73 C 19.73,30.59 20.59,32.73 21.07,34.71 21.57,36.77 23.01,39.82 24.94,41.03 25.33,41.18 25.81,41.11 26.19,41.22 26.57,41.33 26.8,41.54 26.91,41.8 27.09,41.18 26.93,40.61 26.19,40.38 25.81,40.28 25.33,40.35 24.94,40.2 23.01,38.98 21.57,35.93 21.07,33.87 20.66,32.18 19.97,30.38 19.85,28.73 Z" style="opacity:0.2;fill:#ffffff;stroke-width:0.8342" />
  <path inkscape:connector-curvature="0" id="path30" d="M 46.8,12.72 C 46.73,12.73 46.67,12.77 46.61,12.81 46.25,14.42 45.69,16 45.07,17.52 43.97,19.54 41.67,20.02 40.04,21.48 39.99,21.96 40.16,22.07 40.43,22 42.01,20.78 44.06,20.23 45.07,18.35 45.81,16.55 46.48,14.65 46.8,12.72 Z M 52.98,14.05 C 52.95,14.04 52.84,14.13 52.71,14.25 52.46,14.87 52.16,15.57 52.1,15.82 51.22,17.53 50.48,18.99 49.33,20.54 48.45,22.3 46.51,23.59 44.55,23.69 43.49,23.9 41.61,23.83 41.09,24.59 41.53,24.72 41.97,24.78 42.41,24.8 43.13,24.67 43.97,24.64 44.55,24.53 46.51,24.42 48.45,23.14 49.33,21.37 50.48,19.82 51.22,18.36 52.1,16.65 52.19,16.2 53.23,14.12 52.98,14.05 Z M 49,25.54 C 48.89,25.8 48.7,26.09 48.36,26.37 47.75,28.93 45.01,28.06 43.09,28.36 42.14,28.48 42.16,28.92 42.58,29.33 42.71,29.27 42.87,29.22 43.09,29.19 45.01,28.89 47.75,29.76 48.36,27.19 49.07,26.61 49.2,26.01 49,25.54 Z M 19.78,28.97 C 19.73,29.39 19.74,29.83 19.88,30.31 20.44,32.95 20.97,36.53 21,39.66 21.06,36.35 20.48,32.35 19.88,29.47 19.83,29.31 19.8,29.14 19.78,28.97 Z M 46.3,30.87 C 45.86,31.58 44.72,32.36 43.86,31.89 42.07,30.74 41.97,32.23 42.03,33.7 42.08,32.59 42.42,31.8 43.86,32.72 45.15,33.43 47.07,31.31 46.3,30.87 Z M 42.11,36.54 C 42.08,37.15 42.04,37.83 42.07,38.47 42.09,37.75 42.14,37.07 42.11,36.54 Z M 45.78,41.34 C 45.67,41.41 45.54,41.48 45.38,41.56 44.22,42.09 44.2,44.31 42.65,43.04 41.63,42.84 41.83,43.29 42.07,43.85 42.19,43.81 42.36,43.82 42.65,43.88 44.2,45.13 44.22,42.93 45.38,42.4 46.42,41.9 46.3,41.54 45.78,41.34 Z M 42.18,44.98 C 42.07,45.13 41.91,45.24 41.61,45.31 38.88,46.6 39.86,48.89 38.8,51.64 38.41,53.51 37.15,55.16 37.06,57.09 33.06,57.06 29.06,57.16 25.07,57.01 25.06,57.04 25.05,57.07 25.03,57.1 H 37.17 C 37.51,55.52 38.48,54.07 38.8,52.46 39.86,49.73 38.88,47.44 41.61,46.15 42.4,45.97 42.35,45.47 42.18,44.98 Z M 20.16,45.18 C 19.99,45.5 19.81,45.78 19.59,46 21.3,45.84 26.37,47.5 26.51,49.19 26.56,49.5 26.58,49.8 26.59,50.1 26.62,49.52 26.6,48.94 26.51,48.35 26.39,46.81 22.2,45.32 20.16,45.18 Z" style="opacity:0.1;fill:#ffffff;stroke-width:0.8342" />
</svg>
