<?xml version="1.0" encoding="UTF-8" standalone="no"?>
<svg xmlns:dc="http://purl.org/dc/elements/1.1/" xmlns:cc="http://creativecommons.org/ns#" xmlns:rdf="http://www.w3.org/1999/02/22-rdf-syntax-ns#" xmlns:svg="http://www.w3.org/2000/svg" xmlns="http://www.w3.org/2000/svg" xmlns:sodipodi="http://sodipodi.sourceforge.net/DTD/sodipodi-0.dtd" xmlns:inkscape="http://www.inkscape.org/namespaces/inkscape" inkscape:version="1.0beta2 (2b71d25d45, 2019-12-03)" sodipodi:docname="boinc-manager.svg" id="svg16" version="1" height="64" width="64">
  <metadata id="metadata22">
    <rdf:RDF>
      <cc:Work rdf:about="">
        <dc:format>image/svg+xml</dc:format>
        <dc:type rdf:resource="http://purl.org/dc/dcmitype/StillImage" />
      </cc:Work>
    </rdf:RDF>
  </metadata>
  <defs id="defs20" />
  <sodipodi:namedview inkscape:current-layer="svg16" inkscape:cy="32" inkscape:cx="32" inkscape:zoom="12.4" showgrid="false" id="namedview18" inkscape:window-height="480" inkscape:window-width="640" inkscape:pageshadow="2" inkscape:pageopacity="0" guidetolerance="10" gridtolerance="10" objecttolerance="10" borderopacity="1" inkscape:document-rotation="0" bordercolor="#666666" pagecolor="#ffffff" />
  <path inkscape:connector-curvature="0" id="path4" d="M 32,2.75 C 15.8,2.75 2.75,15.8 2.75,32 2.75,48.2 15.8,61.25 32,61.25 48.2,61.25 61.25,48.2 61.25,32 61.25,15.8 48.2,2.75 32,2.75 Z" style="fill:#c3daf4;stroke-width:1.0447" />
  <circle id="circle8" r="8.286" cy="32" cx="32" style="fill:#f5ca4a;stroke-width:1.0356" />
  <path inkscape:connector-curvature="0" id="path12" d="M 49.1,8.588 44.93,15.82 41.76,21.3 A 14.5,14.5 0 0 1 46.5,32 14.5,14.5 0 0 1 45.81,36.39 L 51.29,39.55 A 20.71,20.71 0 0 0 52.71,32 20.71,20.71 0 0 0 49.32,20.66 L 53.8,12.89 C 52.4,11.29 50.82,9.848 49.1,8.588 Z M 12.89,10.2 C 11.29,11.6 9.848,13.18 8.588,14.9 L 15.82,19.07 21.3,22.24 A 14.5,14.5 0 0 1 32,17.5 14.5,14.5 0 0 1 36.39,18.19 L 39.55,12.71 A 20.71,20.71 0 0 0 32,11.29 20.71,20.71 0 0 0 20.66,14.69 Z M 12.71,24.46 A 20.71,20.71 0 0 0 11.29,32 20.71,20.71 0 0 0 14.69,43.34 L 10.2,51.12 C 11.6,52.71 13.18,54.15 14.9,55.41 L 19.07,48.19 22.24,42.69 A 14.5,14.5 0 0 1 17.5,32 14.5,14.5 0 0 1 18.19,27.61 Z M 42.69,41.76 A 14.5,14.5 0 0 1 32,46.5 14.5,14.5 0 0 1 27.61,45.81 L 24.46,51.29 A 20.71,20.71 0 0 0 32,52.71 20.71,20.71 0 0 0 43.34,49.32 L 51.12,53.8 C 52.71,52.4 54.15,50.82 55.41,49.1 L 48.19,44.93 Z" style="fill:#426ac8;stroke-width:1.0356" />
</svg>
