<?xml version="1.0" encoding="UTF-8" standalone="no"?>
<svg xmlns:dc="http://purl.org/dc/elements/1.1/" xmlns:cc="http://creativecommons.org/ns#" xmlns:rdf="http://www.w3.org/1999/02/22-rdf-syntax-ns#" xmlns:svg="http://www.w3.org/2000/svg" xmlns="http://www.w3.org/2000/svg" xmlns:sodipodi="http://sodipodi.sourceforge.net/DTD/sodipodi-0.dtd" xmlns:inkscape="http://www.inkscape.org/namespaces/inkscape" inkscape:version="1.0beta2 (2b71d25d45, 2019-12-03)" sodipodi:docname="bridge-constructor-portal.svg" id="svg22" version="1" height="48" width="48">
  <metadata id="metadata28">
    <rdf:RDF>
      <cc:Work rdf:about="">
        <dc:format>image/svg+xml</dc:format>
        <dc:type rdf:resource="http://purl.org/dc/dcmitype/StillImage" />
      </cc:Work>
    </rdf:RDF>
  </metadata>
  <defs id="defs26" />
  <sodipodi:namedview inkscape:current-layer="svg22" inkscape:cy="24" inkscape:cx="24" inkscape:zoom="16.09" showgrid="false" id="namedview24" inkscape:window-height="480" inkscape:window-width="640" inkscape:pageshadow="2" inkscape:pageopacity="0" guidetolerance="10" gridtolerance="10" objecttolerance="10" borderopacity="1" inkscape:document-rotation="0" bordercolor="#666666" pagecolor="#ffffff" />
  <circle r="22.39" cy="24" cx="24" id="path853" style="fill:#c8c8e1;stroke-width:0.4;stroke-opacity:0.7163" />
  <path id="path12" d="m 24.000001,16 0,15 m 0,-15 -12,15 24,0 z" style="fill:none;stroke:#3f3f3f;stroke-width:4;stroke-linecap:round;stroke-linejoin:round" />
  <path id="path14" style="opacity:0.2" d="m 24,13 a 4,4 0 0 0 -4,4 4,4 0 0 0 4,4 4,4 0 0 0 4,-4 4,4 0 0 0 -4,-4 z M 12,28 a 4,4 0 0 0 -4,4 4,4 0 0 0 4,4 4,4 0 0 0 4,-4 4,4 0 0 0 -4,-4 z m 12,0 a 4,4 0 0 0 -4,4 4,4 0 0 0 4,4 4,4 0 0 0 4,-4 4,4 0 0 0 -4,-4 z m 12,0 a 4,4 0 0 0 -4,4 4,4 0 0 0 4,4 4,4 0 0 0 4,-4 4,4 0 0 0 -4,-4 z" />
  <path id="path16" d="M 24 12 A 4 4 0 0 0 20 16 A 4 4 0 0 0 24 20 A 4 4 0 0 0 28 16 A 4 4 0 0 0 24 12 z M 12 27 A 4 4 0 0 0 8 31 A 4 4 0 0 0 12 35 A 4 4 0 0 0 16 31 A 4 4 0 0 0 12 27 z M 24 27 A 4 4 0 0 0 20 31 A 4 4 0 0 0 24 35 A 4 4 0 0 0 28 31 A 4 4 0 0 0 24 27 z M 36 27 A 4 4 0 0 0 32 31 A 4 4 0 0 0 36 35 A 4 4 0 0 0 40 31 A 4 4 0 0 0 36 27 z" style="fill:#ffffff" />
  <path id="path18" d="M 6 6 C 4.892 6 4 6.892 4 8 L 4 9 C 4 7.892 4.892 7 6 7 L 10 7 C 11.108 7 12 7.892 12 9 L 12 8 C 12 6.892 11.108 6 10 6 L 6 6 z" style="opacity:0.1;fill:#ffffff" />
  <path id="path20" d="M 38 6 C 36.892 6 36 6.892 36 8 L 36 9 C 36 7.892 36.892 7 38 7 L 42 7 C 43.108 7 44 7.892 44 9 L 44 8 C 44 6.892 43.108 6 42 6 L 38 6 z" style="opacity:0.1;fill:#ffffff" />
</svg>
