<?xml version="1.0" encoding="UTF-8" standalone="no"?>
<svg xmlns:dc="http://purl.org/dc/elements/1.1/" xmlns:cc="http://creativecommons.org/ns#" xmlns:rdf="http://www.w3.org/1999/02/22-rdf-syntax-ns#" xmlns:svg="http://www.w3.org/2000/svg" xmlns="http://www.w3.org/2000/svg" xmlns:sodipodi="http://sodipodi.sourceforge.net/DTD/sodipodi-0.dtd" xmlns:inkscape="http://www.inkscape.org/namespaces/inkscape" inkscape:version="1.0beta2 (2b71d25d45, 2019-12-03)" sodipodi:docname="buttercup-desktop.svg" id="svg20" version="1" height="64" width="64">
  <metadata id="metadata26">
    <rdf:RDF>
      <cc:Work rdf:about="">
        <dc:format>image/svg+xml</dc:format>
        <dc:type rdf:resource="http://purl.org/dc/dcmitype/StillImage" />
      </cc:Work>
    </rdf:RDF>
  </metadata>
  <defs id="defs24" />
  <sodipodi:namedview inkscape:current-layer="svg20" inkscape:cy="32" inkscape:cx="32" inkscape:zoom="12.07" showgrid="false" id="namedview22" inkscape:window-height="480" inkscape:window-width="640" inkscape:pageshadow="2" inkscape:pageopacity="0" guidetolerance="10" gridtolerance="10" objecttolerance="10" borderopacity="1" inkscape:document-rotation="0" bordercolor="#666666" pagecolor="#ffffff" />
  <circle r="30.48" cy="32" cx="32" id="path851" style="fill:#c8c8e1;stroke-width:0.4;stroke-opacity:0.7163" />
  <path inkscape:connector-curvature="0" id="path2" d="M 25.71,10.13 C 19.25,10.13 14.05,15.27 14.05,21.66 V 38.24 40.36 40.5 C 14.05,45.2 16.87,49.21 20.94,51.01 21.01,51.04 21.08,51.08 21.15,51.11 21.26,51.16 21.36,51.19 21.47,51.23 21.72,51.33 21.98,51.43 22.23,51.51 22.23,51.51 22.23,51.51 22.23,51.51 22.24,51.51 22.25,51.51 22.27,51.51 23.34,51.84 24.48,52.02 25.66,52.02 H 25.71 27.83 38.34 C 44.77,52.02 49.95,46.82 49.95,40.36 V 38.24 C 49.95,32.18 45.37,27.22 39.48,26.65 V 21.66 C 39.48,15.27 34.28,10.13 27.83,10.13 Z" style="opacity:0.2;stroke-width:0.7479" />
  <rect id="rect4" transform="rotate(90)" ry="11.61" rx="11.66" y="-49.95" x="25.84" height="35.9" width="25.43" style="fill:#4cd6c6;stroke-width:0.7479" />
  <rect id="rect6" ry="11.51" rx="11.66" y="9.387" x="14.05" height="41.89" width="25.43" style="fill:#4cd6c6;stroke-width:0.7479" />
  <path inkscape:connector-curvature="0" id="path8" d="M 26.76,14.62 C 22.23,14.62 18.54,18.19 18.54,22.6 18.54,26.99 22.23,26.58 26.76,26.58 31.31,26.58 34.99,26.99 34.99,22.6 34.99,18.19 31.31,14.62 26.76,14.62 Z M 26.76,33.32 A 2.992,2.992 0 0 0 23.77,36.31 2.992,2.992 0 0 0 24.52,38.29 V 41.54 A 2.244,2.244 0 0 0 26.76,43.79 2.244,2.244 0 0 0 29.01,41.54 V 38.29 A 2.992,2.992 0 0 0 29.75,36.31 2.992,2.992 0 0 0 26.76,33.32 Z" style="opacity:0.2;stroke-width:0.7479" />
  <path inkscape:connector-curvature="0" id="path10" d="M 34.99,21.84 C 34.99,26.25 31.31,25.83 26.76,25.83 22.23,25.83 18.54,26.25 18.54,21.84 18.54,17.44 22.23,13.87 26.76,13.87 31.31,13.87 34.99,17.44 34.99,21.84 Z" style="fill:#ffffff;stroke-width:0.7479" />
  <circle id="circle12" r="2.244" cy="40.8" cx="26.76" style="fill:#ffffff;stroke-width:0.7479" />
  <circle id="circle14" r="2.992" cy="35.56" cx="26.76" style="fill:#ffffff;stroke-width:0.7479" />
  <rect id="rect16" y="35.56" x="24.52" height="5.235" width="4.488" style="fill:#ffffff;stroke-width:0.7479" />
  <path inkscape:connector-curvature="0" id="path18" d="M 25.71,9.387 C 19.25,9.387 14.05,14.52 14.05,20.9 V 21.66 C 14.05,15.27 19.25,10.13 25.71,10.13 H 27.83 C 34.28,10.13 39.48,15.27 39.48,21.66 V 20.9 C 39.48,14.52 34.28,9.387 27.83,9.387 Z M 39.48,25.9 V 26.65 C 45.37,27.22 49.95,32.18 49.95,38.24 V 37.5 C 49.95,31.43 45.37,26.47 39.48,25.9 Z" style="opacity:0.2;fill:#ffffff;stroke-width:0.7479" />
</svg>
