<?xml version="1.0" encoding="UTF-8" standalone="no"?>
<svg xmlns:dc="http://purl.org/dc/elements/1.1/" xmlns:cc="http://creativecommons.org/ns#" xmlns:rdf="http://www.w3.org/1999/02/22-rdf-syntax-ns#" xmlns:svg="http://www.w3.org/2000/svg" xmlns="http://www.w3.org/2000/svg" xmlns:sodipodi="http://sodipodi.sourceforge.net/DTD/sodipodi-0.dtd" xmlns:inkscape="http://www.inkscape.org/namespaces/inkscape" inkscape:version="1.0beta2 (2b71d25d45, 2019-12-03)" sodipodi:docname="tuxpaint.svg" id="svg18" version="1.1" width="48" height="48">
  <metadata id="metadata24">
    <rdf:RDF>
      <cc:Work rdf:about="">
        <dc:format>image/svg+xml</dc:format>
        <dc:type rdf:resource="http://purl.org/dc/dcmitype/StillImage" />
      </cc:Work>
    </rdf:RDF>
  </metadata>
  <defs id="defs22">
    <filter height="2.779" y="-0.8893" width="2.915" x="-0.9574" id="filter1245" style="color-interpolation-filters:sRGB" inkscape:collect="always">
      <feGaussianBlur id="feGaussianBlur1247" stdDeviation="2.921" inkscape:collect="always" />
    </filter>
    <filter height="2.481" y="-0.7404" width="3.056" x="-1.028" id="filter1249" style="color-interpolation-filters:sRGB" inkscape:collect="always">
      <feGaussianBlur id="feGaussianBlur1251" stdDeviation="2.662" inkscape:collect="always" />
    </filter>
    <filter height="2.629" y="-0.8147" width="2.796" x="-0.8978" id="filter1253" style="color-interpolation-filters:sRGB" inkscape:collect="always">
      <feGaussianBlur id="feGaussianBlur1255" stdDeviation="2.772" inkscape:collect="always" />
    </filter>
    <filter height="2.382" y="-0.6908" width="2.332" x="-0.666" id="filter1257" style="color-interpolation-filters:sRGB" inkscape:collect="always">
      <feGaussianBlur id="feGaussianBlur1259" stdDeviation="2.147" inkscape:collect="always" />
    </filter>
  </defs>
  <sodipodi:namedview inkscape:current-layer="svg18" inkscape:cy="27.72" inkscape:cx="24" inkscape:zoom="1.854" showgrid="false" id="namedview20" inkscape:window-height="480" inkscape:window-width="480" inkscape:pageshadow="2" inkscape:pageopacity="0" guidetolerance="10" gridtolerance="10" objecttolerance="10" borderopacity="1" inkscape:document-rotation="0" bordercolor="#666666" pagecolor="#ffffff" />
  <path style="fill:#8193a0" id="path2" transform="matrix(1.1503549 0 0 1.1503549 -4.486125 -7.525565)" opacity=".99" fill="#669d81" d="m44.322082 27.405077a19.729762 19.729765 0 0 1 -19.729762 19.729765 19.729762 19.729765 0 0 1 -19.7297621-19.729765 19.729762 19.729765 0 0 1 19.7297621-19.7297632 19.729762 19.729765 0 0 1 19.729762 19.7297632z" />
  <g style="fill:#ffffff;fill-opacity:0.0337" transform="matrix(0.9999,0.007,-0.007,0.9999,4.548,5.467)" id="g1271">
    <path inkscape:connector-curvature="0" style="stroke:#ffffff;stroke-width:0.1;opacity:0.7528" id="path8" fill-opacity=".386348" d="M 39.03,18.08 C 39.33,18.31 39.55,18.63 39.66,19 39.9,19.73 39.8,20.6 39.51,21.58 38.92,23.54 37.48,26.01 35.44,28.56 31.37,33.67 23.43,37.96 16.49,39.8 25.12,35.38 35.69,30.42 38.55,21.29 38.81,20.42 38.84,19.72 38.71,19.3 38.58,18.88 38.36,18.68 37.8,18.59 34.98,18.81 33.06,19.98 34.48,22.82 34.01,22.37 33.01,21.06 33.16,20.42 33.31,19.79 33.73,19.21 34.27,18.82 36,17.56 37.19,17.5 37.94,17.61 38.37,17.67 38.73,17.83 39.03,18.08 Z" />
    <path inkscape:connector-curvature="0" style="stroke:#ffffff;stroke-width:0.1;opacity:0.7542" id="path10" fill-opacity=".386348" d="M 25.51,19.83 C 27.71,21.59 29.68,27.67 33.3,26.93 28.92,29.02 27.02,23.02 24.95,20.65 23.01,19.72 24.3,23.76 23.93,24.08 23.26,23.32 22.75,22.52 22.54,21.75 22.43,21.36 22.41,20.97 22.52,20.6 22.63,20.23 22.91,19.89 23.27,19.7 24.06,19.27 24.93,19.36 25.51,19.83 Z" />
  </g>
  <g style="opacity:0.4516" transform="translate(-0.7937,1.856)" id="g1265">
    <path id="path853" style="fill:#ff0000;stroke-width:0.4759;filter:url(#filter1245);opacity:0.3725" d="M 22.34,25.95 C 12.33,27.55 27.74,40.34 26.14,29.54 25.76,27.75 24.31,25.97 22.34,25.95 Z" inkscape:connector-curvature="0" transform="matrix(1.555,0,0,1.555,-12.98,-12.53)" />
    <path id="path873" style="fill:#ffff00;stroke-width:0.4759;filter:url(#filter1249);opacity:0.3634" d="M 29.6,18.7 C 20.17,17.93 30.76,34.15 31.94,23.89 31.75,21.96 30.79,20.19 29.6,18.7 Z" inkscape:connector-curvature="0" transform="matrix(1.555,0,0,1.555,-12.98,-12.53)" />
    <path id="path869" style="fill:#00ff00;stroke-width:0.4759;filter:url(#filter1253);opacity:0.3952" d="M 15.02,18.63 C 5.716,21.17 21.41,32.89 19.25,22.7 18.49,20.82 16.87,19.38 15.02,18.63 Z" inkscape:connector-curvature="0" transform="matrix(1.555,0,0,1.555,-11.93,-12)" />
    <path id="path871" style="fill:#f362ff;stroke-width:0.4759;filter:url(#filter1257);opacity:0.3265" d="M 22.28,15.19 C 12.15,17.19 28.78,28.31 26.5,17.77 26.28,15.94 24.07,13.9 22.28,15.19 Z" inkscape:connector-curvature="0" transform="matrix(1.555,0,0,1.555,-12.98,-12.53)" />
  </g>
  <g id="g16" fill="#fff">
    <path id="path4" d="m19.433594 33.416016c-1.804082 7.055587 1.141104 7.883127 4.864806 8.883984-2.4-3-1.407255-7.769027-2.4-8.1-.05467 1.271028-.115415 2.883587.01602 4.225779.07897.804831.343558 1.606528.732422 2.390625-1.205209-.594114-2.19137-1.250079-2.6875-2.023437-.530651-.827168-.551609-1.837133-.265626-2.996094.274114-.391167.481281.073284 1.004684.503127.249759-1.068949-.7253-1.981386-1.264806-2.883984z" />
    <path id="path6" d="m17.833984 3.7285156-.08203.7441406c-1.503417 13.5307438.222351 20.9387718 1.501952 28.5683598l1.446094.558984c-.0707-.421548-.93131-.594436-1.009466-1.019481-1.303246-7.087488-2.727129-15.025356-1.503034-27.111769 4.625304 8.678969 2.075918 18.228322 2.5625 27.544922l.5-.02734c-.496144-9.499688 2.351353-19.509399-3.035156-28.6132851z" />
    <path style="opacity:0.4535" sodipodi:nodetypes="ccccccccc" inkscape:connector-curvature="0" d="M 17.83,3.729 17.75,4.473 C 16.25,18 17.97,25.41 19.25,33.04 L 20.7,33.6 C 20.63,33.18 19.77,33.01 19.69,32.58 17.98,33.92 20.67,31.06 20.75,33.01 L 21.25,32.99 C 20.75,23.49 23.6,13.48 18.21,4.373 Z" id="path849" />
    <path style="opacity:0.4617" sodipodi:nodetypes="ccccc" inkscape:connector-curvature="0" d="M 19.43,33.42 C 17.63,40.47 20.57,41.3 24.3,42.3 21.9,39.3 22.89,34.53 21.9,34.2 21.78,36.08 21.9,34.2 20.7,36.3 20.95,35.23 19.97,34.32 19.43,33.42 Z" id="path851" />
  </g>
</svg>
