<?xml version="1.0" encoding="UTF-8" standalone="no"?>
<svg xmlns:dc="http://purl.org/dc/elements/1.1/" xmlns:cc="http://creativecommons.org/ns#" xmlns:rdf="http://www.w3.org/1999/02/22-rdf-syntax-ns#" xmlns:svg="http://www.w3.org/2000/svg" xmlns="http://www.w3.org/2000/svg" xmlns:sodipodi="http://sodipodi.sourceforge.net/DTD/sodipodi-0.dtd" xmlns:inkscape="http://www.inkscape.org/namespaces/inkscape" inkscape:version="1.0beta2 (2b71d25d45, 2019-12-03)" sodipodi:docname="org.gnome.chess.svg" id="svg12" version="1.1" width="48" height="48">
  <metadata id="metadata18">
    <rdf:RDF>
      <cc:Work rdf:about="">
        <dc:format>image/svg+xml</dc:format>
        <dc:type rdf:resource="http://purl.org/dc/dcmitype/StillImage" />
      </cc:Work>
    </rdf:RDF>
  </metadata>
  <defs id="defs16" />
  <sodipodi:namedview inkscape:current-layer="svg12" inkscape:cy="19.03" inkscape:cx="24" inkscape:zoom="16.09" inkscape:snap-global="true" showgrid="false" id="namedview14" inkscape:window-height="480" inkscape:window-width="480" inkscape:pageshadow="2" inkscape:pageopacity="0" guidetolerance="10" gridtolerance="10" objecttolerance="10" borderopacity="1" inkscape:document-rotation="0" bordercolor="#666666" pagecolor="#ffffff" />
  <g transform="translate(0.512,0.2675)" id="g873">
    <rect fill="#c8b196" height="44.37" ry="22.18" width="44.37" x="1.317" y="1.553" id="rect854" rx="22.18" style="stroke-width:1.0318" />
    <path id="rect852" style="fill:#483737;stroke-width:1.0318" d="M 23.5,45.92 C 11.21,45.92 1.313,36.03 1.313,23.74 H 45.68 C 45.68,36.03 35.79,45.92 23.5,45.92 Z" inkscape:connector-curvature="0" />
    <path id="rect2" style="fill:#c8b196;stroke-width:1.0318" d="M 23.47,1.542 C 11.18,1.542 1.289,11.44 1.289,23.73 1.289,36.01 11.18,45.91 23.47,45.91 V 23.73 Z" inkscape:connector-curvature="0" />
    <path id="path863" style="fill:#483737;stroke-width:1.0318" d="M 23.5,1.553 V 23.74 H 1.317 C 1.317,11.45 11.21,1.553 23.5,1.553 Z" inkscape:connector-curvature="0" />
    <path d="M 17.2,41.29 C 16.77,40.84 16.84,36.18 17.28,35.91 17.49,35.78 21.05,35.8 25.19,35.95 L 32.72,36.22 V 38.66 41.11 H 29.7 C 28.03,41.11 24.6,41.22 22.08,41.35 19.55,41.48 17.35,41.45 17.2,41.29 Z M 17.84,33.95 C 17.24,30.77 18.48,27.93 22.57,23.12 L 24.26,21.14 22.8,20.93 C 22,20.82 20.9,20.62 20.37,20.48 19.63,20.29 19.13,20.47 18.28,21.26 17.33,22.14 16.92,22.26 15.6,22.09 13.82,21.85 13.05,21.03 13.05,19.37 13.05,18.43 13.67,17.62 16.42,14.96 18.27,13.16 20.25,11.53 20.83,11.33 21.49,11.1 21.8,10.77 21.67,10.42 21.53,10.08 21.83,9.737 22.46,9.498 23.29,9.182 23.47,8.869 23.47,7.661 L 23.48,6.205 24.78,7.594 C 25.49,8.358 26.86,9.365 27.82,9.831 30.39,11.08 32.55,13.61 33.34,16.3 34.31,19.63 34.15,22.26 32.7,26.67 31.88,29.19 31.44,31.33 31.41,32.91 L 31.37,35.32 H 24.73 L 18.1,35.33 Z" fill="#fff" stroke-width=".373813" id="path10" inkscape:connector-curvature="0" />
  </g>
</svg>
