<?xml version="1.0" encoding="UTF-8" standalone="no"?>
<svg xmlns:dc="http://purl.org/dc/elements/1.1/" xmlns:cc="http://creativecommons.org/ns#" xmlns:rdf="http://www.w3.org/1999/02/22-rdf-syntax-ns#" xmlns:svg="http://www.w3.org/2000/svg" xmlns="http://www.w3.org/2000/svg" xmlns:sodipodi="http://sodipodi.sourceforge.net/DTD/sodipodi-0.dtd" xmlns:inkscape="http://www.inkscape.org/namespaces/inkscape" inkscape:version="1.0beta2 (2b71d25d45, 2019-12-03)" sodipodi:docname="chrome-fljalecfjciodhpcledpamjachpmelml-Default.svg" id="svg16" version="1" height="64" width="64">
  <metadata id="metadata22">
    <rdf:RDF>
      <cc:Work rdf:about="">
        <dc:format>image/svg+xml</dc:format>
        <dc:type rdf:resource="http://purl.org/dc/dcmitype/StillImage" />
      </cc:Work>
    </rdf:RDF>
  </metadata>
  <defs id="defs20" />
  <sodipodi:namedview inkscape:current-layer="svg16" inkscape:cy="32" inkscape:cx="32" inkscape:zoom="12.07" showgrid="false" id="namedview18" inkscape:window-height="480" inkscape:window-width="640" inkscape:pageshadow="2" inkscape:pageopacity="0" guidetolerance="10" gridtolerance="10" objecttolerance="10" borderopacity="1" inkscape:document-rotation="0" bordercolor="#666666" pagecolor="#ffffff" />
  <rect id="rect4" ry="28" rx="28" y="4" x="4" height="56" width="56" style="fill:#dfac44" />
  <g id="g8" transform="matrix(1.3560406,0,0,1.4294596,-1.5999195,-0.2298844)" style="opacity:0.1">
    <path id="path6" d="m 35.102,33.902 c -2.3831,1.2029 -5.0074,1.9266 -7.4951,1.9372 -4.0429,0 -7.2458,-1.1272 -9.6086,-3.3817 -2.3629,-2.2653 -3.5443,-5.3327 -3.5443,-9.2022 0,-3.8803 1.1814,-6.9477 3.5443,-9.2022 2.3629,-2.2653 5.5657,-3.398 9.6086,-3.398 2.7053,0.0287 5.3054,0.81356 7.4951,1.9372 l 0,5.1713 c -2.1476,-1.2295 -4.6739,-1.9886 -6.9911,-2.0017 -2.2328,0 -4.4898,0.71536 -5.7688,2.1461 -1.279,1.43074 -1.9185,2.8326 -1.9185,5.3472 0,2.5038 0.63949,3.9002 1.9185,5.331 1.279,1.4307 3.536,2.1461 5.7688,2.1461 2.4915,-0.13391 5.1892,-0.80033 6.9911,-2.0017 z" />
  </g>
  <g id="g12" transform="matrix(1.3560406,0,0,1.4294596,-1.5999195,-1.2298558)" style="fill:#424242">
    <path id="path10" d="m 35.102,33.902 c -2.3831,1.2029 -5.0074,1.9266 -7.4951,1.9372 -4.0429,0 -7.2458,-1.1272 -9.6086,-3.3817 -2.3629,-2.2653 -3.5443,-5.3327 -3.5443,-9.2022 0,-3.8803 1.1814,-6.9477 3.5443,-9.2022 2.3629,-2.2653 5.5657,-3.398 9.6086,-3.398 2.7053,0.0287 5.3054,0.81356 7.4951,1.9372 l 0,5.1713 c -2.1476,-1.2295 -4.6739,-1.9886 -6.9911,-2.0017 -2.2328,0 -4.4898,0.71536 -5.7688,2.1461 -1.279,1.43074 -1.9185,2.8326 -1.9185,5.3472 0,2.5038 0.63949,3.9002 1.9185,5.331 1.279,1.4307 3.536,2.1461 5.7688,2.1461 2.4915,-0.13391 5.1892,-0.80033 6.9911,-2.0017 z" />
  </g>
  <path id="path14" d="M 6.8007812 4 C 5.2496034 4 4 5.2496034 4 6.8007812 L 4 7.8027344 C 4 6.2515566 5.2496034 5.0019531 6.8007812 5.0019531 L 57.199219 5.0019531 C 58.749196 5.0019531 60 6.2515566 60 7.8027344 L 60 6.8007812 C 60 5.2496035 58.749196 4 57.199219 4 L 6.8007812 4 z" style="opacity:0.2;fill:#ffffff" />
</svg>
