<?xml version="1.0" encoding="UTF-8" standalone="no"?>
<svg xmlns:dc="http://purl.org/dc/elements/1.1/" xmlns:cc="http://creativecommons.org/ns#" xmlns:rdf="http://www.w3.org/1999/02/22-rdf-syntax-ns#" xmlns:svg="http://www.w3.org/2000/svg" xmlns="http://www.w3.org/2000/svg" xmlns:sodipodi="http://sodipodi.sourceforge.net/DTD/sodipodi-0.dtd" xmlns:inkscape="http://www.inkscape.org/namespaces/inkscape" inkscape:version="1.0beta2 (2b71d25d45, 2019-12-03)" sodipodi:docname="chrome-gbchcmhmhahfdphkhkmpfmihenigjmpp-Default.svg" id="svg35" version="1" height="64" width="64">
  <metadata id="metadata39">
    <rdf:RDF>
      <cc:Work rdf:about="">
        <dc:format>image/svg+xml</dc:format>
        <dc:type rdf:resource="http://purl.org/dc/dcmitype/StillImage" />
      </cc:Work>
    </rdf:RDF>
  </metadata>
  <sodipodi:namedview inkscape:current-layer="svg35" inkscape:cy="32" inkscape:cx="32" inkscape:zoom="12.07" showgrid="false" id="namedview37" inkscape:window-height="480" inkscape:window-width="640" inkscape:pageshadow="2" inkscape:pageopacity="0" guidetolerance="10" gridtolerance="10" objecttolerance="10" borderopacity="1" inkscape:document-rotation="0" bordercolor="#666666" pagecolor="#ffffff" />
  <defs id="defs7">
    <linearGradient gradientUnits="userSpaceOnUse" gradientTransform="matrix(0.9129,0,0,0.9139,-114.1,-203.3)" y2="270" y1="266" x2="160" x1="168" id="linearGradient8505">
      <stop id="stop2" offset="0" />
      <stop id="stop4" stop-opacity="0" offset="1" />
    </linearGradient>
  </defs>
  <rect id="rect11" transform="matrix(0,-1,-1,0,0,0)" ry="29.12" rx="29.12" y="-61.12" x="-61.12" height="58.24" width="58.24" style="fill:#325f78;stroke-width:1.1733" />
  <g transform="translate(2.558e-4,-2.861)" id="g873">
    <path style="opacity:0.2;stroke-width:1.1432" d="M 31.97,17.14 C 25.57,17.14 19.96,20.43 16.71,25.4 L 24.75,39.34 C 24.12,38.17 23.76,36.85 23.76,35.42 23.76,30.87 27.45,29.53 31.97,29.03 L 36.44,28.53 C 40.13,30.89 41.35,35.71 39.14,39.54 L 30.98,53.69 C 37.65,54.08 44.26,50.78 47.84,44.57 V 44.57 C 51.04,39.01 51,32.52 48.33,27.21 L 47.84,26.27 H 47.74 C 44.59,20.82 38.74,17.14 31.97,17.14 Z M 16.71,25.44 C 13.04,31.03 12.6,38.41 16.18,44.62 H 16.17 C 19.38,50.17 25.02,53.38 30.95,53.72 L 38.99,39.78 C 38.3,40.91 37.33,41.89 36.1,42.6 32.16,44.88 27.15,43.54 24.87,39.59 Z" id="path15" inkscape:connector-curvature="0" />
    <path style="opacity:0.1;stroke-width:1.1432" d="M 31.97,52.56 C 21.86,52.56 13.71,44.41 13.71,34.28 13.71,34.13 13.71,33.97 13.71,33.82 13.95,43.74 22.01,51.65 31.97,51.65 41.94,51.65 49.99,43.74 50.23,33.82 50.24,33.97 50.23,34.13 50.23,34.28 50.23,44.41 42.09,52.56 31.97,52.56 Z" id="path19" inkscape:connector-curvature="0" />
    <path style="fill:#dd4d3e;stroke-width:1.1432" d="M 31.97,16 C 25.57,16 19.96,19.29 16.71,24.26 L 24.75,38.19 C 24.12,37.03 23.75,35.71 23.75,34.28 23.75,29.72 27.45,28.39 31.97,27.88 L 48.29,26.05 C 45.3,20.08 39.13,16 31.97,16 Z" id="path21" inkscape:connector-curvature="0" />
    <path style="fill:#109f5b;stroke-width:1.1432" d="M 16.18,43.47 C 19.38,49.03 25.02,52.24 30.95,52.58 L 38.99,38.64 C 38.29,39.77 37.33,40.75 36.1,41.46 32.16,43.74 27.15,42.39 24.87,38.45 L 16.71,24.3 C 13.04,29.88 12.6,37.27 16.18,43.47 Z" id="path23" inkscape:connector-curvature="0" />
    <path style="fill:#ffce41;stroke-width:1.1432" d="M 47.84,43.42 C 51.04,37.87 51,31.37 48.33,26.06 L 47.85,25.13 32,25.15 C 33.33,25.18 34.9,26.45 36.13,27.16 40.08,29.44 41.42,34.45 39.14,38.4 L 30.98,52.55 C 37.65,52.94 44.26,49.63 47.84,43.43 Z" id="path25" inkscape:connector-curvature="0" />
    <path style="opacity:0.2;fill:url(#linearGradient8505);stroke-width:1.1432" d="M 39.09,38.39 31.97,34.28 30.9,52.57 Z" id="path27" inkscape:connector-curvature="0" />
    <rect style="opacity:0.2;stroke-width:1.1432" width="18.29" height="18.29" x="-44.58" y="-41.15" rx="9.145" ry="9.145" transform="matrix(0,-1,-1,0,0,0)" id="rect29" />
    <rect style="fill:#ffffff;stroke-width:1.1432" width="18.29" height="18.29" x="-43.44" y="-41.15" rx="9.145" ry="9.145" transform="matrix(0,-1,-1,0,0,0)" id="rect31" />
    <rect style="fill:#4587f3;stroke-width:1.1432" width="13.72" height="13.72" x="-41.15" y="-38.86" rx="6.859" ry="6.859" transform="matrix(0,-1,-1,0,0,0)" id="rect33" />
  </g>
</svg>
