<?xml version="1.0" encoding="UTF-8" standalone="no"?>
<svg xmlns:dc="http://purl.org/dc/elements/1.1/" xmlns:cc="http://creativecommons.org/ns#" xmlns:rdf="http://www.w3.org/1999/02/22-rdf-syntax-ns#" xmlns:svg="http://www.w3.org/2000/svg" xmlns="http://www.w3.org/2000/svg" xmlns:sodipodi="http://sodipodi.sourceforge.net/DTD/sodipodi-0.dtd" xmlns:inkscape="http://www.inkscape.org/namespaces/inkscape" inkscape:version="1.0beta2 (2b71d25d45, 2019-12-03)" sodipodi:docname="cinnamon-session-properties.svg" id="svg6" version="1.1" width="48" height="48">
  <metadata id="metadata12">
    <rdf:RDF>
      <cc:Work rdf:about="">
        <dc:format>image/svg+xml</dc:format>
        <dc:type rdf:resource="http://purl.org/dc/dcmitype/StillImage" />
      </cc:Work>
    </rdf:RDF>
  </metadata>
  <defs id="defs10" />
  <sodipodi:namedview inkscape:current-layer="svg6" inkscape:cy="24" inkscape:cx="24" inkscape:zoom="16.07" showgrid="false" id="namedview8" inkscape:window-height="480" inkscape:window-width="480" inkscape:pageshadow="2" inkscape:pageopacity="0" guidetolerance="10" gridtolerance="10" objecttolerance="10" borderopacity="1" inkscape:document-rotation="0" bordercolor="#666666" pagecolor="#ffffff" />
  <ellipse style="fill:#9399ac" id="ellipse2" ry="22.779379" rx="22.779375" fill="#ac9393" cy="24.214348" cx="23.982632" />
  <path id="path4" fill-opacity=".948571" fill="#fff" d="m24.482632 7c-9 10-7 14-4 24h7c3-10 6-14-3-24zm-8 15s-2.233072.276859-3 1c-1.306032 1.231448-2 5-2 5l7 2zm15 0-2 8 7-2s-.693968-3.768536-2-5c-.766928-.723141-3-1-3-1zm-10 10 1 3h3l1-3zm2 4s-1.848979 1.069365-2 2c-.119393.735732 1 2 1 2 0-1 0-1 1-1 2 1 1 2 1 2s2.118427-1.803999 2-3c-.0929-.938221-2-2-2-2z" />
</svg>
