<?xml version="1.0" encoding="UTF-8" standalone="no"?>
<svg xmlns:dc="http://purl.org/dc/elements/1.1/" xmlns:cc="http://creativecommons.org/ns#" xmlns:rdf="http://www.w3.org/1999/02/22-rdf-syntax-ns#" xmlns:svg="http://www.w3.org/2000/svg" xmlns="http://www.w3.org/2000/svg" xmlns:sodipodi="http://sodipodi.sourceforge.net/DTD/sodipodi-0.dtd" xmlns:inkscape="http://www.inkscape.org/namespaces/inkscape" inkscape:version="1.0beta2 (2b71d25d45, 2019-12-03)" sodipodi:docname="com.github.miguelmota.Cointop.svg" id="svg24" version="1" height="64" width="64">
  <metadata id="metadata30">
    <rdf:RDF>
      <cc:Work rdf:about="">
        <dc:format>image/svg+xml</dc:format>
        <dc:type rdf:resource="http://purl.org/dc/dcmitype/StillImage" />
      </cc:Work>
    </rdf:RDF>
  </metadata>
  <defs id="defs28" />
  <sodipodi:namedview inkscape:current-layer="svg24" inkscape:cy="32" inkscape:cx="32" inkscape:zoom="12.07" showgrid="false" id="namedview26" inkscape:window-height="480" inkscape:window-width="640" inkscape:pageshadow="2" inkscape:pageopacity="0" guidetolerance="10" gridtolerance="10" objecttolerance="10" borderopacity="1" inkscape:document-rotation="0" bordercolor="#666666" pagecolor="#ffffff" />
  <rect id="rect4" ry="29.66" rx="29.66" y="2.34" x="2.34" height="59.32" width="59.32" style="fill:#4f4f4f;stroke-width:1.0592" />
  <path id="path6" d="m 20.462891,10 c -2.506405,2.51e-4 -4.591427,1.698715 -5.234375,4 H 49 V 10 Z M 15,17 v 4 H 25.880859 49 v -4 z m 0,7 v 4 h 11 v -4 z m 0,7 v 4 h 11 v -4 z m 0,7 v 4 h 11 v -4 z m 0,7 v 4 H 49 V 45 H 25.880859 Z m 0.228516,7 c 0.642948,2.301285 2.72797,3.99975 5.234375,4 H 49 v -4 z" style="opacity:0.2" />
  <path id="path8" d="m 20.462891,9 c -2.506405,2.507e-4 -4.591427,1.698715 -5.234375,4 H 49 V 9 Z" style="fill:#00ff03" />
  <path id="path10" d="m 15,16 v 4 H 25.88 49 v -4 z" style="fill:#00ff73" />
  <path id="path12" d="m 15,23 v 4 h 11 v -4 z" style="fill:#00ff8a" />
  <path id="path14" d="m 15,30 v 4 h 11 v -4 z" style="fill:#00feb8" />
  <path id="path16" d="m 15,37 v 4 h 11 v -4 z" style="fill:#00fef2" />
  <path id="path18" d="m 15,44 v 4 H 49 V 44 H 25.88 Z" style="fill:#00dbfe" />
  <path id="path20" d="m 15.228516,51 c 0.642948,2.301285 2.72797,3.99975 5.234375,4 H 49 v -4 z" style="fill:#00b8fe" />
</svg>
