<?xml version="1.0" encoding="UTF-8" standalone="no"?>
<svg xmlns:dc="http://purl.org/dc/elements/1.1/" xmlns:cc="http://creativecommons.org/ns#" xmlns:rdf="http://www.w3.org/1999/02/22-rdf-syntax-ns#" xmlns:svg="http://www.w3.org/2000/svg" xmlns="http://www.w3.org/2000/svg" xmlns:sodipodi="http://sodipodi.sourceforge.net/DTD/sodipodi-0.dtd" xmlns:inkscape="http://www.inkscape.org/namespaces/inkscape" inkscape:version="1.0beta2 (2b71d25d45, 2019-12-03)" sodipodi:docname="steam_icon_231430.svg" id="svg12" version="1" height="48" width="48">
  <metadata id="metadata18">
    <rdf:RDF>
      <cc:Work rdf:about="">
        <dc:format>image/svg+xml</dc:format>
        <dc:type rdf:resource="http://purl.org/dc/dcmitype/StillImage" />
      </cc:Work>
    </rdf:RDF>
  </metadata>
  <defs id="defs16" />
  <sodipodi:namedview inkscape:current-layer="svg12" inkscape:cy="24" inkscape:cx="24" inkscape:zoom="16.09" showgrid="false" id="namedview14" inkscape:window-height="480" inkscape:window-width="640" inkscape:pageshadow="2" inkscape:pageopacity="0" guidetolerance="10" gridtolerance="10" objecttolerance="10" borderopacity="1" inkscape:document-rotation="0" bordercolor="#666666" pagecolor="#ffffff" />
  <circle r="21.87" cy="24" cx="24" id="path843" style="fill:#e3e6e9;stroke-width:0.4;stroke-opacity:0.7163" />
  <path inkscape:connector-curvature="0" id="path4" d="M 24,4 C 22.31,4.024 21.11,5.026 20.55,6.685 L 20.57,6.61 17.92,14.69 H 8.979 C 8.959,14.69 8.941,14.69 8.921,14.69 7.854,14.73 6.892,15.22 6.214,16.03 4.747,17.69 5.058,20.3 6.92,21.54 L 13.95,26.61 11.22,34.96 C 11.22,34.97 11.21,34.98 11.21,34.99 10.79,36.34 11.19,37.73 12.23,38.68 12.24,38.69 12.25,38.7 12.26,38.71 13.52,39.81 15.29,39.95 16.71,39.04 16.74,39.02 16.76,39 16.79,38.98 L 24,33.85 31.21,38.98 C 31.24,39 31.26,39.02 31.29,39.04 32.71,39.95 34.48,39.81 35.74,38.71 35.75,38.7 35.76,38.69 35.77,38.68 36.81,37.73 37.21,36.34 36.79,34.99 36.79,34.98 36.78,34.97 36.78,34.96 L 34.05,26.61 41.08,21.54 C 42.94,20.3 43.25,17.69 41.79,16.03 41.11,15.22 40.15,14.73 39.08,14.69 39.06,14.69 39.04,14.69 39.02,14.69 H 30.08 L 27.43,6.61 27.45,6.685 C 26.89,5.026 25.69,4.024 24,4 Z" style="fill:#e6412b;stroke-width:0.891" />
  <path inkscape:connector-curvature="0" id="path6" d="M 24,4 C 22.31,4.024 21.11,5.026 20.55,6.685 L 20.57,6.61 17.92,14.69 H 8.979 C 8.959,14.69 8.941,14.69 8.921,14.69 7.854,14.73 6.892,15.22 6.214,16.03 5.477,16.87 5.191,17.94 5.323,18.96 5.404,18.23 5.691,17.51 6.214,16.92 6.892,16.11 7.854,15.62 8.921,15.58 8.941,15.58 8.959,15.58 8.979,15.58 H 17.92 L 20.57,7.501 20.55,7.576 C 21.11,5.917 22.31,4.915 24,4.891 25.69,4.915 26.89,5.917 27.45,7.576 L 27.43,7.501 30.08,15.58 H 39.02 C 39.04,15.58 39.06,15.58 39.08,15.58 40.15,15.62 41.11,16.11 41.79,16.92 42.31,17.51 42.6,18.23 42.68,18.96 42.81,17.94 42.52,16.87 41.79,16.03 41.11,15.22 40.15,14.73 39.08,14.69 39.06,14.69 39.04,14.69 39.02,14.69 H 30.08 L 27.43,6.61 27.45,6.685 C 26.89,5.026 25.69,4.024 24,4 Z M 13.71,27.33 11.22,34.96 C 11.22,34.97 11.21,34.98 11.21,34.99 11.05,35.51 11.01,36.03 11.08,36.53 11.11,36.31 11.15,36.1 11.21,35.88 11.21,35.87 11.22,35.86 11.22,35.86 L 13.95,27.5 Z M 34.29,27.33 34.05,27.5 36.78,35.86 C 36.78,35.86 36.79,35.87 36.79,35.88 36.85,36.1 36.89,36.31 36.92,36.53 36.99,36.03 36.95,35.51 36.79,34.99 36.79,34.98 36.78,34.97 36.78,34.96 Z" style="opacity:0.2;fill:#ffffff;stroke-width:0.891" />
  <path inkscape:connector-curvature="0" id="path8" style="opacity:0.2;fill-rule:evenodd;stroke-width:0.891" d="M 24,19.15 C 24,19.15 23.37,19.13 22.71,19.46 22.05,19.79 21.33,20.63 21.33,21.82 H 23.11 C 23.11,20.93 24,20.93 24,20.93 24,20.93 24.89,20.93 24.89,21.82 24.89,22.29 24.77,22.55 24.53,22.85 24.29,23.15 23.91,23.44 23.47,23.78 23.02,24.11 22.51,24.48 22.08,25.02 21.65,25.56 21.33,26.3 21.33,27.17 V 28.06 H 26.67 V 26.27 H 23.42 C 23.45,26.23 23.44,26.18 23.47,26.13 23.71,25.84 24.09,25.54 24.53,25.21 24.98,24.87 25.49,24.5 25.92,23.96 26.35,23.42 26.67,22.69 26.67,21.82 26.67,20.63 25.95,19.79 25.29,19.46 24.63,19.13 24,19.15 24,19.15 Z" />
  <path inkscape:connector-curvature="0" id="path10" d="M 24,18.26 C 24,18.26 23.37,18.24 22.71,18.57 22.05,18.9 21.33,19.74 21.33,20.93 H 23.11 C 23.11,20.04 24,20.04 24,20.04 24,20.04 24.89,20.04 24.89,20.93 24.89,21.4 24.77,21.66 24.53,21.96 24.29,22.26 23.91,22.55 23.47,22.89 23.02,23.22 22.51,23.59 22.08,24.13 21.65,24.67 21.33,25.41 21.33,26.27 V 27.17 H 26.67 V 25.38 H 23.42 C 23.45,25.34 23.44,25.28 23.47,25.24 23.71,24.95 24.09,24.65 24.53,24.31 24.98,23.98 25.49,23.61 25.92,23.07 26.35,22.53 26.67,21.79 26.67,20.93 26.67,19.74 25.95,18.9 25.29,18.57 24.63,18.24 24,18.26 24,18.26 Z" style="fill:#ffd93a;fill-rule:evenodd;stroke-width:0.891" />
</svg>
