<?xml version="1.0" encoding="UTF-8" standalone="no"?>
<svg xmlns:dc="http://purl.org/dc/elements/1.1/" xmlns:cc="http://creativecommons.org/ns#" xmlns:rdf="http://www.w3.org/1999/02/22-rdf-syntax-ns#" xmlns:svg="http://www.w3.org/2000/svg" xmlns="http://www.w3.org/2000/svg" xmlns:sodipodi="http://sodipodi.sourceforge.net/DTD/sodipodi-0.dtd" xmlns:inkscape="http://www.inkscape.org/namespaces/inkscape" inkscape:version="1.0beta2 (2b71d25d45, 2019-12-03)" sodipodi:docname="office_address_book.svg" id="svg14" version="1.1" width="48" height="48">
  <metadata id="metadata20">
    <rdf:RDF>
      <cc:Work rdf:about="">
        <dc:format>image/svg+xml</dc:format>
        <dc:type rdf:resource="http://purl.org/dc/dcmitype/StillImage" />
      </cc:Work>
    </rdf:RDF>
  </metadata>
  <defs id="defs18" />
  <sodipodi:namedview inkscape:current-layer="svg14" inkscape:cy="24" inkscape:cx="24" inkscape:zoom="16.09" showgrid="false" id="namedview16" inkscape:window-height="480" inkscape:window-width="480" inkscape:pageshadow="2" inkscape:pageopacity="0" guidetolerance="10" gridtolerance="10" objecttolerance="10" borderopacity="1" inkscape:document-rotation="0" bordercolor="#666666" pagecolor="#ffffff" />
  <rect style="fill:#5c6d7f" id="rect2" y="3" x="2" width="43" ry="1.452703" height="43" fill="#78636c" />
  <rect id="rect4" y="8" x="6" width="34" ry="1.4527" height="28" fill="#ff4858" />
  <rect id="rect6" y="12" x="6" width="34" ry="1.4527" height="28" fill="#85d76b" />
  <rect id="rect8" y="16" x="6" width="34" ry="1.4527" height="28" fill="#61a0ff" />
  <path style="fill:#7b8fa8" id="path10" fill="#a0838e" d="m45 34v10.547297c0 .804798-.487905 1.452703-1.452703 1.452703h-40.0945941c-.8047974 0-1.4527029-.487905-1.4527029-1.452703v-10.547297z" />
  <path id="path12" fill="#fff" d="m22.943672 18.344295c-2.385669.06339-4.316293 1.960535-4.421387 4.344731-.08036 1.829787.945065 3.529127 2.601354 4.310974h3.876361c1.521997-.715778 2.524506-2.213319 2.606276-3.89324l.0014-.03306c.10157-2.505669-1.844863-4.620439-4.350347-4.726596-.104487-.0046-.2091-.0055-.313653-.0028zm2.056328 8.655705 1.87137 2.000771-2.109072.566123 1.183584 1.285556-1.670942 3.203343h6.573357v-4.655572c0-1.32992-1.0703-2.400221-2.400222-2.400221zm-3.876361 0h-3.441748c-1.32992 0-2.400924 1.070301-2.400924 2.400221v4.655572h6.567731l-1.670942-3.203343 1.183584-1.285556-2.109073-.566123zm1.986705.22012-1.035196 1.035197.517598.517599.146981.146981-.478216 3.341181.845316 1.369244.800309-1.369244-.420549-3.346808.141356-.141354.517597-.517599z" />
</svg>
