<?xml version="1.0" encoding="UTF-8" standalone="no"?>
<svg xmlns:dc="http://purl.org/dc/elements/1.1/" xmlns:cc="http://creativecommons.org/ns#" xmlns:rdf="http://www.w3.org/1999/02/22-rdf-syntax-ns#" xmlns:svg="http://www.w3.org/2000/svg" xmlns="http://www.w3.org/2000/svg" xmlns:sodipodi="http://sodipodi.sourceforge.net/DTD/sodipodi-0.dtd" xmlns:inkscape="http://www.inkscape.org/namespaces/inkscape" inkscape:version="1.0beta2 (2b71d25d45, 2019-12-03)" sodipodi:docname="kcmprocessor.svg" id="svg48" version="1.1" width="48" height="48">
  <metadata id="metadata54">
    <rdf:RDF>
      <cc:Work rdf:about="">
        <dc:format>image/svg+xml</dc:format>
        <dc:type rdf:resource="http://purl.org/dc/dcmitype/StillImage" />
        <dc:title />
      </cc:Work>
    </rdf:RDF>
  </metadata>
  <defs id="defs52" />
  <sodipodi:namedview inkscape:document-rotation="0" inkscape:current-layer="svg48" inkscape:window-maximized="1" inkscape:window-y="30" inkscape:window-x="0" inkscape:cy="24" inkscape:cx="24" inkscape:zoom="13.66" showgrid="false" id="namedview50" inkscape:window-height="1024" inkscape:window-width="1920" inkscape:pageshadow="2" inkscape:pageopacity="0" guidetolerance="10" gridtolerance="10" objecttolerance="10" borderopacity="1" bordercolor="#666666" pagecolor="#ffffff" />
  <rect style="fill:#768bb2;stroke-width:1.0392" id="rect2" y="1.66" x="1.66" width="44.68" ry="22.34" height="44.68" fill="#86915a" />
  <path sodipodi:nodetypes="sssssssss" style="fill:#ffffff" inkscape:connector-curvature="0" id="path4" d="m 14,14 c -1.108,0 -2,0.892 -2,2 v 18 c 0,1.108 0.892,2 2,2 h 18 c 1.108,0 2,-0.892 2,-2 V 16 c 0,-1.108 -0.892,-2 -2,-2 z" />
  <g id="g46" stroke-width="2" stroke-opacity=".632959" stroke="#fff" fill="none">
    <path id="path6" d="m32 18h6" />
    <path id="path8" d="m32 22h6" />
    <path id="path10" d="m32 26h6" />
    <path id="path12" d="m32 30h6" />
    <path id="path14" d="m32 34h6" />
    <path id="path16" d="m30 16v-6" />
    <path id="path18" d="m26 16v-6" />
    <path id="path20" d="m22 16v-6" />
    <path id="path22" d="m18 16v-6" />
    <path id="path24" d="m14 16v-6" />
    <path id="path26" d="m14 18h-6" />
    <path id="path28" d="m14 22h-6" />
    <path id="path30" d="m14 26h-6" />
    <path id="path32" d="m14 30h-6" />
    <path id="path34" d="m14 34h-6" />
    <path id="path36" d="m16 40v-6" />
    <path id="path38" d="m20 40v-6" />
    <path id="path40" d="m24 40v-6" />
    <path id="path42" d="m28 40v-6" />
    <path id="path44" d="m32 40v-6" />
  </g>
  <path inkscape:transform-center-x="-1.4511583" d="m 27.66904,25.016949 -4.353475,2.51348 -4.353475,2.513479 0,-5.026959 0,-5.02696 4.353475,2.51348 z" inkscape:randomized="0" inkscape:rounded="0" inkscape:flatsided="false" sodipodi:arg2="1.0471976" sodipodi:arg1="0" sodipodi:r2="2.9023166" sodipodi:r1="5.8046331" sodipodi:cy="25.016949" sodipodi:cx="21.848407" sodipodi:sides="3" id="path848" style="fill:#767cb2;stroke-width:7;stroke-linecap:round;stroke-linejoin:bevel;paint-order:stroke fill markers" sodipodi:type="star" />
</svg>
