<?xml version="1.0" encoding="UTF-8" standalone="no"?>
<svg xmlns:dc="http://purl.org/dc/elements/1.1/" xmlns:cc="http://creativecommons.org/ns#" xmlns:rdf="http://www.w3.org/1999/02/22-rdf-syntax-ns#" xmlns:svg="http://www.w3.org/2000/svg" xmlns="http://www.w3.org/2000/svg" xmlns:sodipodi="http://sodipodi.sourceforge.net/DTD/sodipodi-0.dtd" xmlns:inkscape="http://www.inkscape.org/namespaces/inkscape" inkscape:version="1.0beta2 (2b71d25d45, 2019-12-03)" sodipodi:docname="7-zip.svg" id="svg70" viewBox="0 0 48 48" height="48" width="48" version="1.1">
  <metadata id="metadata76">
    <rdf:RDF>
      <cc:Work rdf:about="">
        <dc:format>image/svg+xml</dc:format>
        <dc:type rdf:resource="http://purl.org/dc/dcmitype/StillImage" />
        <dc:title />
        <dc:creator>
          <cc:Agent>
            <dc:title>Cristian Pozzessere &quot;ilnanny&quot;</dc:title>
          </cc:Agent>
        </dc:creator>
        <dc:subject>
          <rdf:Bag>
            <rdf:li>Global language</rdf:li>
          </rdf:Bag>
        </dc:subject>
        <dc:description>Playing with Inkscape on Gnu/Linux O. S.</dc:description>
        <dc:contributor>
          <cc:Agent>
            <dc:title>In the night, alone like a dog.</dc:title>
          </cc:Agent>
        </dc:contributor>
        <cc:license rdf:resource="http://creativecommons.org/licenses/by-sa/4.0/" />
      </cc:Work>
      <cc:License rdf:about="http://creativecommons.org/licenses/by-sa/4.0/">
        <cc:permits rdf:resource="http://creativecommons.org/ns#Reproduction" />
        <cc:permits rdf:resource="http://creativecommons.org/ns#Distribution" />
        <cc:requires rdf:resource="http://creativecommons.org/ns#Notice" />
        <cc:requires rdf:resource="http://creativecommons.org/ns#Attribution" />
        <cc:permits rdf:resource="http://creativecommons.org/ns#DerivativeWorks" />
        <cc:requires rdf:resource="http://creativecommons.org/ns#ShareAlike" />
      </cc:License>
    </rdf:RDF>
  </metadata>
  <defs id="defs74" />
  <sodipodi:namedview inkscape:current-layer="g892" inkscape:window-maximized="1" inkscape:window-y="21" inkscape:window-x="0" inkscape:cy="24" inkscape:cx="24" inkscape:zoom="9.859" showgrid="false" id="namedview72" inkscape:window-height="1029" inkscape:window-width="1920" inkscape:pageshadow="2" inkscape:pageopacity="0" guidetolerance="10" gridtolerance="10" objecttolerance="10" borderopacity="1" inkscape:document-rotation="0" bordercolor="#666666" pagecolor="#ffffff" />
  <g style="fill:#333333" id="g941" />
  <g transform="translate(38.962982,1.916989)" id="g962">
    <g id="g880" transform="matrix(0.03840331,0,0,0.0387822,-38.044793,-2.672948)">
      <g transform="translate(-42.031311)" id="g838" />
      <g transform="matrix(0.9789,0,0,0.9789,24.74,13.45)" id="g892">
        <rect id="rect2" ry="47.51" y="58.17" x="15.72" height="1160" width="1146" style="fill:#c7b18e;stroke-width:1.0862" rx="47.51" />
        <path inkscape:connector-curvature="0" id="rect858" style="fill:#9c7e57;fill-opacity:0.7799;stroke-width:1.0862" d="M 15.78,379.8 V 1171 C 15.78,1197 36.97,1218 63.25,1218 H 1114 C 1141,1218 1162,1197 1162,1171 V 379.8 Z" />
        <g id="g843" style="fill:#070707;fill-opacity:0.3628" transform="matrix(1.118,0,0,1.134,122.4,10.44)">
          <path id="path845" style="color:#000000;stroke-width:0.0935" d="M 312,43.49 V 601.6 H 312.9 C 318.5,654.3 362.9,695.4 417,695.4 471,695.4 515.4,654.3 521,601.6 H 522.2 V 43.49 Z" inkscape:connector-curvature="0" />
        </g>
        <g transform="matrix(1.118,0,0,1.134,122.4,10.44)" style="fill:#070707;fill-opacity:0.411" id="g852">
          <path id="path850" style="color:#000000;stroke-width:0.0977" d="M 534.9,375.9 V 671.3 H 535.8 C 541.4,728.9 585.8,773.8 639.9,773.8 693.9,773.8 738.3,728.9 743.9,671.3 H 745.1 V 375.9 Z" transform="matrix(1,0,0,0.9155,-222.9,-12.98)" inkscape:connector-curvature="0" />
        </g>
        <path id="rect6" style="fill:#f4f4f4;fill-opacity:0.8182;stroke-width:1.112" d="M 504.1,73.3 V 100 H 673.7 V 73.3 Z M 584.8,129.6 C 583.9,129.6 583.2,130.2 583.2,131 V 131.8 H 577.6 C 576.8,131.8 576.1,132.4 576.1,133 V 169 H 506.6 C 505.8,169 505.1,169.5 505.1,170.2 V 187.5 C 505.1,188.1 505.7,188.6 506.4,188.7 H 506.3 C 505.3,188.7 504.7,189.3 504.7,190 V 207.2 C 504.7,207.9 505.3,208.6 506.3,208.6 H 576.1 V 250 H 507.3 C 506.5,250 505.8,250.5 505.8,251.3 V 268.6 C 505.8,269.1 506.2,269.4 506.6,269.7 506.2,269.9 505.9,270.2 505.9,270.7 V 287.9 C 505.9,288.6 506.6,289.2 507.4,289.2 H 576.1 V 330.7 H 506.5 C 505.7,330.7 505,331.3 505,332 V 349.2 C 505,349.9 505.7,350.5 506.5,350.5 H 506.6 C 505.7,350.5 505,351 505,351.7 V 369 C 505,369.7 505.7,370.4 506.6,370.4 H 576.1 V 414.9 H 505.1 C 504.2,414.9 503.6,415.5 503.6,416.2 V 433.4 C 503.6,434.1 504.2,434.7 505.1,434.7 H 576.1 V 435.6 H 505.1 C 504.2,435.6 503.6,436.1 503.6,436.8 V 454.1 C 503.6,454.8 504.2,455.5 505.1,455.5 H 576.1 V 496.9 H 505.7 C 504.8,496.9 504.1,497.6 504.1,498.3 V 515.5 C 504.1,516.2 504.8,516.8 505.7,516.8 H 576.1 V 518.2 H 505.4 C 504.7,518.2 504,518.8 504,519.5 V 536.8 C 504,537.5 504.7,538 505.4,538 H 576.1 V 579.9 H 506.6 C 505.7,579.9 505,580.4 505,581.1 V 598.4 C 505,599.1 505.7,599.7 506.6,599.7 H 576.1 V 600.8 H 506.5 C 505.5,600.8 504.9,601.3 504.9,602 V 619.3 C 504.9,620 505.5,620.6 506.5,620.6 H 576.1 V 663.2 H 507.1 C 506.2,663.2 505.4,663.8 505.4,664.5 V 681.8 C 505.4,682.4 506.2,683 507.1,683 H 576.1 V 683.2 H 507.1 C 506.3,683.2 505.5,683.7 505.5,684.5 V 701.8 C 505.5,702.5 506.3,703.1 507.1,703.1 H 576.1 V 703.2 C 573.1,703.4 570,703.8 566.9,704.2 522.1,710.3 520.2,712.6 535,741.3 539,749.1 542.6,759.8 544.5,769.7 547.3,784.7 547.2,785.9 543.4,802 534.3,840.8 525.6,917.3 526.7,948.9 527.3,966.5 528.1,970.4 531.6,976.2 540.5,990.1 555.2,1000 571.7,1004 584.1,1007 601.9,1006 615.6,1001 629.6,995.3 642.1,984.4 647.6,972 651.5,963.7 651.6,961.3 650.7,935.7 648.9,892.4 642.2,839.8 633.9,804.7 630.3,789.1 630.1,785.9 632.1,772.7 633.7,762.7 636.6,753.2 641.2,743.6 653.4,718.6 653.6,714.8 643.5,710.5 636.7,707.5 616.5,703.9 600.7,702.7 V 661.9 H 671.7 C 672.5,661.9 673.3,661.4 673.3,660.7 V 643.4 C 673.3,642.7 672.5,642.1 671.7,642.1 H 600.7 V 641.8 H 671.8 C 672.5,641.8 673.3,641.3 673.3,640.6 V 623.3 C 673.3,622.6 672.5,622.1 671.8,622.1 H 600.7 V 579.5 H 672.1 C 672.9,579.5 673.7,579 673.7,578.3 V 561 C 673.7,560.3 672.9,559.8 672.1,559.8 H 600.7 V 559.2 H 671.8 C 672.6,559.2 673.4,558.6 673.4,557.9 V 540.6 C 673.4,539.8 672.6,539.3 671.8,539.3 H 600.7 V 496.9 H 672 C 672.9,496.9 673.6,496.4 673.6,495.7 V 478.4 C 673.6,478 673.3,477.6 672.8,477.3 673.1,477.1 673.4,476.8 673.4,476.4 V 459.1 C 673.4,458.4 672.6,457.9 671.8,457.9 H 600.7 V 412.7 H 672 C 672.8,412.7 673.5,412.1 673.5,411.4 V 394.1 C 673.5,393.4 672.8,392.8 672,392.8 H 600.7 V 392.7 H 672.1 C 673,392.7 673.7,392.2 673.7,391.5 V 374.2 C 673.7,373.5 673,372.9 672.1,372.9 H 600.7 V 329.4 H 672.1 C 672.9,329.4 673.7,328.8 673.7,328.2 V 310.9 C 673.7,310.3 673.4,310 672.9,309.8 673.5,309.5 673.8,309.1 673.8,308.6 V 291.4 C 673.8,290.7 673.1,290.1 672.2,290.1 H 600.7 V 247.4 H 671.4 C 672.3,247.4 673,246.9 673,246.2 V 228.9 C 673,228.5 672.8,228.2 672.4,227.9 672.9,227.7 673.4,227.3 673.4,226.8 V 209.5 C 673.4,208.8 672.6,208.1 671.8,208.1 H 600.7 V 168.9 H 672.1 C 673,168.9 673.7,168.4 673.7,167.7 V 150.4 C 673.7,149.8 673.3,149.4 672.5,149.2 673,148.9 673.3,148.5 673.3,148 V 131 C 673.3,130.2 672.5,129.6 671.7,129.6 Z M 613.7,801.2 C 618.5,801.4 618.7,804 616.9,810.6 614.6,819.3 608.5,827.1 601.4,830.8 595.2,833.8 585,834.4 578.2,832.2 569.5,829.3 557.2,811.5 558.9,804.5 559.7,801.3 562.5,801.1 581.7,803.1 588.7,804 596.7,803.7 604.2,802.3 608.4,801.5 611.6,801.1 613.7,801.2 Z M 589.1,926.4 C 601.2,926.7 612.6,930.4 621.1,937 638.3,950.7 633.5,971.9 610.9,981.4 600.7,985.8 581.2,986.7 570.8,983.5 554,978.1 543.6,964.3 546.3,950.9 548,942.7 561.9,931 573,928.2 578.3,926.9 583.8,926.3 589.1,926.4 Z" inkscape:connector-curvature="0" />
        <path inkscape:connector-curvature="0" id="path865" style="fill:#f4f4f4;fill-opacity:0.6047;stroke-width:1.112" d="M 576.2,381.7 V 414.9 H 505 C 504.3,414.9 503.6,415.5 503.6,416.2 V 433.5 C 503.6,434.1 504.3,434.7 505,434.7 H 576.2 V 435.6 H 505.2 C 504.3,435.6 503.6,436.2 503.6,436.9 V 454.1 C 503.6,454.8 504.3,455.5 505.2,455.5 H 576.2 V 496.9 H 505.7 C 504.8,496.9 504.2,497.6 504.2,498.3 V 515.6 C 504.2,516.3 504.8,516.8 505.7,516.8 H 576.2 V 518.2 H 505.5 C 504.6,518.2 504,518.8 504,519.5 V 536.8 C 504,537.5 504.6,538 505.5,538 H 576.2 V 579.9 H 506.6 C 505.7,579.9 505,580.4 505,581.1 V 598.4 C 505,599.1 505.7,599.8 506.6,599.8 H 576.2 V 600.8 H 506.5 C 505.6,600.8 504.8,601.4 504.8,602 V 619.3 C 504.8,620 505.6,620.6 506.5,620.6 H 576.2 V 663.2 H 507 C 506.2,663.2 505.5,663.8 505.5,664.5 V 681.8 C 505.5,682.5 506.2,683 507,683 H 576.2 V 683.2 H 507.1 C 506.2,683.2 505.5,683.8 505.5,684.6 V 701.8 C 505.5,702.5 506.2,703.1 507.1,703.1 H 576.2 V 703.2 C 573.1,703.5 569.9,703.8 566.9,704.2 522.2,710.3 520.1,712.6 534.9,741.3 538.9,749.2 542.6,759.8 544.5,769.7 547.3,784.7 547.3,785.9 543.5,802 534.4,840.8 525.6,917.3 526.6,948.9 527.4,966.5 528,970.4 531.7,976.2 540.6,990.1 555.2,1000 571.6,1004 584.1,1007 602,1006 615.6,1001 629.7,995.3 642,984.4 647.7,972.1 651.5,963.7 651.7,961.3 650.7,935.7 649,892.4 642.2,839.9 633.9,804.7 630.2,789.2 630.1,786 632.2,772.7 633.6,762.8 636.6,753.3 641.2,743.6 653.4,718.7 653.6,714.8 643.6,710.5 636.7,707.5 616.6,703.9 600.8,702.7 V 661.9 H 671.7 C 672.5,661.9 673.1,661.4 673.1,660.7 V 643.4 C 673.1,642.7 672.5,642.2 671.7,642.2 H 600.8 V 642 H 671.7 C 672.6,642 673.3,641.3 673.3,640.6 V 623.3 C 673.3,622.6 672.6,622.1 671.7,622.1 H 600.8 V 579.6 H 672 C 672.9,579.6 673.7,579 673.7,578.3 V 561 C 673.7,560.3 672.9,559.8 672,559.8 H 600.8 V 559.2 H 671.8 C 672.6,559.2 673.4,558.6 673.4,557.9 V 540.6 C 673.4,540 672.6,539.3 671.8,539.3 H 600.8 V 497 H 672 C 672.8,497 673.5,496.4 673.5,495.7 V 478.4 C 673.5,478 673.1,477.6 672.7,477.4 673,477.1 673.4,476.8 673.4,476.4 V 459.1 C 673.4,458.4 672.6,457.9 671.8,457.9 H 600.8 V 412.7 H 671.9 C 672.8,412.7 673.5,412.1 673.5,411.4 V 394.1 C 673.5,393.4 672.8,392.9 671.9,392.9 H 600.8 V 392.7 H 672.1 C 672.9,392.7 673.7,392.2 673.7,391.5 V 381.7 Z M 613.7,801.2 C 618.5,801.4 618.8,804.1 616.9,810.7 614.6,819.3 608.6,827.1 601.3,830.8 595.3,833.8 585.1,834.5 578.3,832.2 569.6,829.3 557.1,811.5 558.9,804.5 559.6,801.3 562.5,801.1 581.7,803.1 588.7,804 596.8,803.7 604.1,802.3 608.5,801.5 611.6,801.1 613.7,801.2 Z M 587.2,926.4 C 587.9,926.4 588.5,926.4 589.2,926.5 601.2,926.7 612.6,930.4 621,937 638.2,950.8 633.5,971.9 611,981.4 600.8,985.8 581.2,986.7 570.9,983.5 554,978.1 543.6,964.3 546.3,951 548,942.7 561.9,931 572.9,928.2 577.6,927 582.4,926.5 587.2,926.4 Z" />
      </g>
    </g>
  </g>
</svg>
