<?xml version="1.0" encoding="UTF-8" standalone="no"?>
<svg xmlns:dc="http://purl.org/dc/elements/1.1/" xmlns:cc="http://creativecommons.org/ns#" xmlns:rdf="http://www.w3.org/1999/02/22-rdf-syntax-ns#" xmlns:svg="http://www.w3.org/2000/svg" xmlns="http://www.w3.org/2000/svg" xmlns:sodipodi="http://sodipodi.sourceforge.net/DTD/sodipodi-0.dtd" xmlns:inkscape="http://www.inkscape.org/namespaces/inkscape" inkscape:version="1.0beta2 (2b71d25d45, 2019-12-03)" sodipodi:docname="glViewImage.svg" id="svg14" version="1.1" width="48" height="48">
  <metadata id="metadata20">
    <rdf:RDF>
      <cc:Work rdf:about="">
        <dc:format>image/svg+xml</dc:format>
        <dc:type rdf:resource="http://purl.org/dc/dcmitype/StillImage" />
      </cc:Work>
    </rdf:RDF>
  </metadata>
  <defs id="defs18" />
  <sodipodi:namedview inkscape:current-layer="svg14" inkscape:cy="24" inkscape:cx="24" inkscape:zoom="16.11" showgrid="false" id="namedview16" inkscape:window-height="480" inkscape:window-width="480" inkscape:pageshadow="2" inkscape:pageopacity="0" guidetolerance="10" gridtolerance="10" objecttolerance="10" borderopacity="1" inkscape:document-rotation="0" bordercolor="#666666" pagecolor="#ffffff" />
  <rect style="fill:#555f76" id="rect2" y="3" x="2" width="43" ry="1.204" height="43" fill="#5f636c" />
  <path style="fill:#ecf7fd" id="path4" fill-rule="evenodd" fill="#fdf0ec" d="m5 6h37v33h-37z" />
  <path style="fill:#ecab49;fill-opacity:0.9034" id="path6" fill-opacity=".850365" fill="#ec6749" d="m30 15.999999a7 7 0 0 1 -7.313714 6.658128 7 7 0 0 1 -6.67147-7.301547 7 7 0 0 1 7.289355-6.684788 7 7 0 0 1 6.698085 7.277138" />
  <g style="fill:#52b6ed" id="g12" fill-rule="evenodd">
    <path style="fill:#49a4d2" id="path8" fill="#f8c4b8" d="m5 28h37v11h-37z" />
    <path style="fill:#ffffff;fill-opacity:0.685" id="path10" fill-opacity=".671533" fill="#ec6749" d="m16 28 5 2h-5c-.383877.337442.103397 1.479652 1 3h6l-5 1 1 2h2l-1 1h5l-5 1v1h8l1-2-2-1 1.792582-.962912.207418-1.037088h-4l4-1h-2l3-1-5-1 5-1v-2z" />
  </g>
</svg>
