<?xml version="1.0" encoding="UTF-8" standalone="no"?>
<svg xmlns:dc="http://purl.org/dc/elements/1.1/" xmlns:cc="http://creativecommons.org/ns#" xmlns:rdf="http://www.w3.org/1999/02/22-rdf-syntax-ns#" xmlns:svg="http://www.w3.org/2000/svg" xmlns="http://www.w3.org/2000/svg" xmlns:sodipodi="http://sodipodi.sourceforge.net/DTD/sodipodi-0.dtd" xmlns:inkscape="http://www.inkscape.org/namespaces/inkscape" inkscape:version="1.0beta2 (2b71d25d45, 2019-12-03)" sodipodi:docname="gnome-sudoku.svg" id="svg20" version="1.1" width="48" height="48">
  <metadata id="metadata26">
    <rdf:RDF>
      <cc:Work rdf:about="">
        <dc:format>image/svg+xml</dc:format>
        <dc:type rdf:resource="http://purl.org/dc/dcmitype/StillImage" />
      </cc:Work>
    </rdf:RDF>
  </metadata>
  <defs id="defs24" />
  <sodipodi:namedview inkscape:current-layer="svg20" inkscape:cy="24" inkscape:cx="24" inkscape:zoom="16.09" showgrid="false" id="namedview22" inkscape:window-height="480" inkscape:window-width="640" inkscape:pageshadow="2" inkscape:pageopacity="0" guidetolerance="10" gridtolerance="10" objecttolerance="10" borderopacity="1" inkscape:document-rotation="0" bordercolor="#666666" pagecolor="#ffffff" />
  <rect style="fill:#53636c" id="rect2" y="3" x="2" width="43" ry="1.452703" height="43" fill="#6c5d53" />
  <g id="g16" fill="#fff">
    <path id="path4" fill-opacity=".264368" d="m4 5v39h39v-39h-1.5zm1 1h36.5.5v37h-37zm24.5.5v12h12v-12zm0 12h-12v12h12zm-12 12h-12v12h12z" />
    <text id="text8" y="17.050762" x="32.585789" word-spacing="0" letter-spacing="0" font-size="13.333333" font-family="padmaa-Bold.1.1" fill-opacity=".66092"><tspan id="tspan6" y="17.050762" x="32.585789">3</tspan></text>
    <path id="path10" fill-opacity=".66092" d="m12.340995 16.536232v.3125h-4.8828128v-.3125q1.0416666 0 1.3411458-.338542.2083333-.234375.2083333-.963541v-5.013021q0-.4166667-.052083-.5729167-.1171875-.3255208-.4557292-.3255208-.1432292 0-.4296875.091146-.15625.052083-.6380208.234375v-.3385418l3.2812492-1.4192708h.221355v7.4218751q0 .716146.208333.9375.273437.286458 1.197917.286458z" />
    <path id="path12" fill-opacity=".66092" d="m13.692708 32.216146-3.059896 8.802083h-1.236979l2.604167-7.018229h-2.695313q-.416666 0-.651041.130208-.442709.247396-.625.976563h-.325521l.572917-2.890625z" />
    <path id="path14" d="m7.641217 18.908813 5.477429 5.123258 6.831011-7.303238-5.477429-5.123259zm6.207753 5.806359 11.32002 10.588067 6.83101-7.303239-11.320019-10.588066zm12.050343 11.271168 9.98842 2.49629-3.157409-9.799529z" />
  </g>
  <path id="path18" fill="none" d="m-42 42h18l-9 14z" />
</svg>
