<?xml version="1.0" encoding="UTF-8" standalone="no"?>
<svg xmlns:dc="http://purl.org/dc/elements/1.1/" xmlns:cc="http://creativecommons.org/ns#" xmlns:rdf="http://www.w3.org/1999/02/22-rdf-syntax-ns#" xmlns:svg="http://www.w3.org/2000/svg" xmlns="http://www.w3.org/2000/svg" xmlns:sodipodi="http://sodipodi.sourceforge.net/DTD/sodipodi-0.dtd" xmlns:inkscape="http://www.inkscape.org/namespaces/inkscape" inkscape:version="1.0beta2 (2b71d25d45, 2019-12-03)" sodipodi:docname="aptdaemon-download.svg" id="svg35" viewBox="0 0 16.933 16.933" version="1.1" height="48" width="48">
  <metadata id="metadata39">
    <rdf:RDF>
      <cc:Work rdf:about="">
        <dc:format>image/svg+xml</dc:format>
        <dc:type rdf:resource="http://purl.org/dc/dcmitype/StillImage" />
      </cc:Work>
    </rdf:RDF>
  </metadata>
  <sodipodi:namedview inkscape:current-layer="g33" inkscape:cy="32" inkscape:cx="32" inkscape:zoom="12.07" showgrid="false" id="namedview37" inkscape:window-height="480" inkscape:window-width="480" inkscape:pageshadow="2" inkscape:pageopacity="0" guidetolerance="10" gridtolerance="10" objecttolerance="10" borderopacity="1" inkscape:document-rotation="0" bordercolor="#666666" pagecolor="#ffffff" />
  <defs id="defs7">
    <linearGradient gradientUnits="userSpaceOnUse" gradientTransform="matrix(.49892 0 0 .49892 11.356 348.3)" y2="-100.78" y1="-137.82" x2="-6.1472" x1="-6.1472" id="a">
      <stop id="stop2" offset="0" stop-color="#32b4ff" />
      <stop id="stop4" offset="1" stop-color="#3287ff" />
    </linearGradient>
  </defs>
  <g id="g33" transform="translate(0 -280.07)">
    <circle id="circle9" stroke-width=".24858" fill="#5e4aa6" r="0" cy="-48.312" cx="-330.35" />
    <ellipse id="ellipse11" stroke-width=".24858" fill-rule="evenodd" fill="#5e4aa6" cy="286.51" cx="-39.434" />
    <circle style="stroke:#32a2ff;fill:#32a2ff" id="circle15" stroke-width=".94077" stroke="#fafafa" fill="url(#a)" r="7.4674" cy="288.53" cx="8.4938" />
    <g id="g21" opacity=".5" fill="#0078ff" transform="matrix(1.3529 0 0 1.2109 -3.3851 -60.298)">
      <path id="path17" d="m11.376 285.09-1.9078 1.9078 0.85177 1.3962z" />
      <path id="path19" d="m11.377 285.09-1.9078 1.9078-1.3962-0.85176z" />
    </g>
    <g id="g27" transform="matrix(1.3194 0 0 1.3194 -3.1065 -91.593)">
      <path id="path23" fill="#bec8c8" d="m11.376 285.09-1.9078 1.9078 0.85177 1.3962z" />
      <path id="path25" fill="#fff" d="m11.377 285.09-1.9078 1.9078-1.3962-0.85176z" />
    </g>
    <path id="path29" opacity=".5" fill="#0078ff" d="m8.692 287.74s-3.2748 1.0509-4.2871 5.722c1.1026 0.40885 1.7581 1.0785 2.8034 1.5696-0.19153-2.1627 0.23613-4.3655 1.4837-7.2916z" transform="matrix(.93759 0 0 .99075 .52662 3.0219)" />
    <path id="path31" fill="#fafafa" d="m8.692 287.74s-4.0158 2.0127-4.4297 6.6353c0.92934 0.58549 2.0236 0.92469 3.0241 1.1131-0.37343-2.1131-0.28849-4.6073 1.4056-7.7484z" />
  </g>
</svg>
