<?xml version="1.0" encoding="UTF-8" standalone="no"?>
<svg xmlns:dc="http://purl.org/dc/elements/1.1/" xmlns:cc="http://creativecommons.org/ns#" xmlns:rdf="http://www.w3.org/1999/02/22-rdf-syntax-ns#" xmlns:svg="http://www.w3.org/2000/svg" xmlns="http://www.w3.org/2000/svg" xmlns:xlink="http://www.w3.org/1999/xlink" xmlns:sodipodi="http://sodipodi.sourceforge.net/DTD/sodipodi-0.dtd" xmlns:inkscape="http://www.inkscape.org/namespaces/inkscape" inkscape:version="1.0beta2 (2b71d25d45, 2019-12-03)" sodipodi:docname="im.vector.svg" id="svg49" version="1.1" height="48" width="48">
  <metadata id="metadata53">
    <rdf:RDF>
      <cc:Work rdf:about="">
        <dc:format>image/svg+xml</dc:format>
        <dc:type rdf:resource="http://purl.org/dc/dcmitype/StillImage" />
      </cc:Work>
    </rdf:RDF>
  </metadata>
  <sodipodi:namedview inkscape:current-layer="g47" inkscape:cy="24" inkscape:cx="24" inkscape:zoom="16.09" showgrid="false" id="namedview51" inkscape:window-height="480" inkscape:window-width="640" inkscape:pageshadow="2" inkscape:pageopacity="0" guidetolerance="10" gridtolerance="10" objecttolerance="10" borderopacity="1" inkscape:document-rotation="0" bordercolor="#666666" pagecolor="#ffffff" />
  <defs id="defs15">
    <linearGradient id="linearGradient4416">
      <stop id="stop2" offset="0" style="stop-color:#ffffff;stop-opacity:0" />
      <stop id="stop4" offset="1" style="stop-color:#ffffff" />
    </linearGradient>
    <linearGradient gradientTransform="translate(30,0)" gradientUnits="userSpaceOnUse" x2="42.646" y2="44.054" x1="22.54" y1="23.775" id="b">
      <stop id="stop7" stop-color="#292c2f" />
      <stop id="stop9" stop-opacity="0" stop-color="#292c2f" offset="1" />
    </linearGradient>
    <linearGradient y2="48.902" x2="10.555" y1="13.899" x1="-21.261" gradientTransform="translate(30,0)" gradientUnits="userSpaceOnUse" id="linearGradient4384" xlink:href="#b" />
    <linearGradient y2="33.523" x2="11.881" y1="15.656" x1="-7.283" gradientTransform="translate(30,0)" gradientUnits="userSpaceOnUse" id="linearGradient4412" xlink:href="#b" />
    <linearGradient gradientTransform="translate(12.5,0.588)" gradientUnits="userSpaceOnUse" y2="7.875" x2="-10.501" y1="28.25" x1="-30.501" id="linearGradient4422" xlink:href="#linearGradient4416" />
  </defs>
  <g id="g47">
    <rect id="rect17" width="41.8" x="-44.9" y="3.1" rx="20.9" height="41.8" transform="scale(-1,1)" style="color:#000000;fill:#44a276;stroke-width:1.0451" />
    <path id="path23" style="color:#000000;opacity:0.5;fill:#ffffff;stroke-width:0.6332" d="m 27.390709,12.269322 a 3.363519,3.363519 0 0 1 -0.502788,1.711949 l 4.947686,2.859418 a 3.3505631,3.3505631 0 0 1 0.931548,-1.465181 l -5.376446,-3.106186 z m -6.721328,0.05244 -5.404206,3.121608 a 3.3505631,3.3505631 0 0 1 0.863686,1.425082 l 5.027885,-2.905686 A 3.363519,3.363519 0 0 1 20.669381,12.32176 Z m -6.773767,8.720144 a 3.3505631,3.3505631 0 0 1 -0.971646,0.144981 3.3505631,3.3505631 0 0 1 -0.592242,-0.05243 l 0,6.058141 a 3.3505631,3.3505631 0 0 1 0.592242,-0.05553 3.3505631,3.3505631 0 0 1 0.971646,0.144981 l 0,-6.240132 z m 20.219508,0.01548 0,6.209286 a 3.3505631,3.3505631 0 0 1 0.919209,-0.129551 3.3505631,3.3505631 0 0 1 0.783487,0.09871 l 0,-6.144509 a 3.3505631,3.3505631 0 0 1 -0.783487,0.09563 3.3505631,3.3505631 0 0 1 -0.919209,-0.129551 z M 16.205975,31.16554 a 3.3505631,3.3505631 0 0 1 -0.65085,1.39115 l 5.132763,2.964294 a 3.3505631,3.3505631 0 0 1 0.515127,-1.468265 l -4.99704,-2.887179 z m 15.555602,0.02776 -4.92301,2.843994 a 3.3505631,3.3505631 0 0 1 0.524381,1.542297 l 5.101917,-2.945787 A 3.3505631,3.3505631 0 0 1 31.761577,31.1933 Z" />
    <path id="path25" style="color:#000000;opacity:0.5;fill:#ffffff;stroke-width:0.6332" d="m 23.957557,9.6875179 a 2.3689674,2.3689674 0 0 0 -2.368967,2.3689671 2.3689674,2.3689674 0 0 0 2.368967,2.368968 2.3689674,2.3689674 0 0 0 2.368968,-2.368968 2.3689674,2.3689674 0 0 0 -2.368968,-2.3689671 z m -0.05553,1.5793121 a 0.7896558,0.7896558 0 0 1 0.05553,0 0.7896558,0.7896558 0 0 1 0.789656,0.789655 0.7896558,0.7896558 0 0 1 -0.789656,0.789656 0.7896558,0.7896558 0 0 1 -0.789656,-0.789656 0.7896558,0.7896558 0 0 1 0.734134,-0.789655 z" />
    <path id="path27" d="m 35.055181,28.043956 a 2.3689674,2.3689674 0 0 0 -2.368968,2.368967 2.3689674,2.3689674 0 0 0 2.368968,2.368968 2.3689674,2.3689674 0 0 0 2.368967,-2.368968 2.3689674,2.3689674 0 0 0 -2.368967,-2.368967 z m -0.05553,1.579312 a 0.7896558,0.7896558 0 0 1 0.05553,0 0.7896558,0.7896558 0 0 1 0.789656,0.789655 0.7896558,0.7896558 0 0 1 -0.789656,0.789656 0.7896558,0.7896558 0 0 1 -0.789656,-0.789656 0.7896558,0.7896558 0 0 1 0.734133,-0.789655 z" style="color:#000000;opacity:0.5;fill:#ffffff;stroke-width:0.6332" />
    <path id="path31" style="color:#000000;fill:#ffffff;stroke-width:0.6332" d="m 35.055181,15.39288 a 2.3689674,2.3689674 0 0 0 -2.368968,2.368968 2.3689674,2.3689674 0 0 0 2.368968,2.368967 2.3689674,2.3689674 0 0 0 2.368967,-2.368967 2.3689674,2.3689674 0 0 0 -2.368967,-2.368968 z m -0.05553,1.579312 a 0.7896558,0.7896558 0 0 1 0.05553,0 0.7896558,0.7896558 0 0 1 0.789656,0.789656 0.7896558,0.7896558 0 0 1 -0.789656,0.789656 0.7896558,0.7896558 0 0 1 -0.789656,-0.789656 0.7896558,0.7896558 0 0 1 0.734133,-0.789656 z" />
    <path id="path33" style="color:#000000;opacity:0.5;fill:#ffffff;stroke-width:0.6332" d="m 12.944818,28.043956 a 2.3689674,2.3689674 0 0 0 -2.368967,2.368967 2.3689674,2.3689674 0 0 0 2.368967,2.368968 2.3689674,2.3689674 0 0 0 2.368968,-2.368968 2.3689674,2.3689674 0 0 0 -2.368968,-2.368967 z m -0.05553,1.579312 a 0.7896558,0.7896558 0 0 1 0.05553,0 0.7896558,0.7896558 0 0 1 0.789656,0.789655 0.7896558,0.7896558 0 0 1 -0.789656,0.789656 0.7896558,0.7896558 0 0 1 -0.789655,-0.789656 0.7896558,0.7896558 0 0 1 0.734133,-0.789655 z" />
    <path id="path37" d="m 12.944818,15.39288 a 2.3689674,2.3689674 0 0 0 -2.368967,2.368968 2.3689674,2.3689674 0 0 0 2.368967,2.368967 2.3689674,2.3689674 0 0 0 2.368968,-2.368967 2.3689674,2.3689674 0 0 0 -2.368968,-2.368968 z m -0.05553,1.579312 a 0.7896558,0.7896558 0 0 1 0.05553,0 0.7896558,0.7896558 0 0 1 0.789656,0.789656 0.7896558,0.7896558 0 0 1 -0.789656,0.789656 0.7896558,0.7896558 0 0 1 -0.789655,-0.789656 0.7896558,0.7896558 0 0 1 0.734133,-0.789656 z" style="color:#000000;fill:#ffffff;stroke-width:0.6332" />
    <path id="path39" d="m 23.957557,33.574547 a 2.3689674,2.3689674 0 0 0 -2.368967,2.368968 2.3689674,2.3689674 0 0 0 2.368967,2.368967 2.3689674,2.3689674 0 0 0 2.368968,-2.368967 2.3689674,2.3689674 0 0 0 -2.368968,-2.368968 z m -0.05553,1.579312 a 0.7896558,0.7896558 0 0 1 0.05553,0 0.7896558,0.7896558 0 0 1 0.789656,0.789656 0.7896558,0.7896558 0 0 1 -0.789656,0.789655 0.7896558,0.7896558 0 0 1 -0.789656,-0.789655 0.7896558,0.7896558 0 0 1 0.734134,-0.789656 z" style="color:#000000;fill:#ffffff;stroke-width:0.6332" />
    <path id="path41" style="color:#000000;fill:#ffffff;stroke-width:0.6332" d="m 15.49035,19.993143 a 3.3505631,3.3505631 0 0 1 -1.283191,0.934632 l 7.325908,12.690015 a 3.3505631,3.3505631 0 0 1 1.304783,-0.894531 l -7.3475,-12.730116 z" />
    <path id="path43" style="color:#000000;fill:#ffffff;stroke-width:0.6332" d="m 32.523472,20.05175 -7.316654,12.674593 a 3.3505631,3.3505631 0 0 1 1.307867,0.894532 L 33.82517,20.955536 A 3.3505631,3.3505631 0 0 1 32.523472,20.05175 Z" />
  </g>
</svg>
