<?xml version="1.0" encoding="UTF-8" standalone="no"?>
<svg xmlns:dc="http://purl.org/dc/elements/1.1/" xmlns:cc="http://creativecommons.org/ns#" xmlns:rdf="http://www.w3.org/1999/02/22-rdf-syntax-ns#" xmlns:svg="http://www.w3.org/2000/svg" xmlns="http://www.w3.org/2000/svg" xmlns:sodipodi="http://sodipodi.sourceforge.net/DTD/sodipodi-0.dtd" xmlns:inkscape="http://www.inkscape.org/namespaces/inkscape" inkscape:version="1.0beta2 (2b71d25d45, 2019-12-03)" sodipodi:docname="infector.svg" id="svg20" version="1.1" height="64" width="64">
  <metadata id="metadata26">
    <rdf:RDF>
      <cc:Work rdf:about="">
        <dc:format>image/svg+xml</dc:format>
        <dc:type rdf:resource="http://purl.org/dc/dcmitype/StillImage" />
      </cc:Work>
    </rdf:RDF>
  </metadata>
  <defs id="defs24" />
  <sodipodi:namedview inkscape:current-layer="svg20" inkscape:cy="33.59" inkscape:cx="32" inkscape:zoom="12.07" showgrid="false" id="namedview22" inkscape:window-height="480" inkscape:window-width="640" inkscape:pageshadow="2" inkscape:pageopacity="0" guidetolerance="10" gridtolerance="10" objecttolerance="10" borderopacity="1" inkscape:document-rotation="0" bordercolor="#666666" pagecolor="#ffffff" />
  <circle r="30.91" cy="32" cx="32" id="path851" style="fill:#d8dce4;stroke-width:0.4" />
  <path inkscape:connector-curvature="0" id="path14" d="M 16.56,6.88 V 17.26 H 26.94 V 6.88 Z M 26.94,17.26 V 27.64 H 37.31 V 17.26 Z M 37.31,17.26 H 47.69 V 6.88 H 37.31 Z M 47.69,17.26 V 27.64 H 58.07 V 17.26 Z M 47.69,27.64 H 37.31 V 38.01 H 47.69 Z M 47.69,38.01 V 48.39 H 58.07 V 38.01 Z M 47.69,48.39 H 37.31 V 58.77 H 47.69 Z M 37.31,48.39 V 38.01 H 26.94 V 48.39 Z M 26.94,48.39 H 16.56 V 58.77 H 26.94 Z M 16.56,48.39 V 38.01 H 6.177 V 48.39 Z M 16.56,38.01 H 26.94 V 27.64 H 16.56 Z M 16.56,27.64 V 17.26 H 6.177 V 27.64 Z" style="fill:#696969;fill-rule:evenodd;stroke-width:0.8648" />
  <path inkscape:connector-curvature="0" id="path16" d="M 6.177,17.26 V 18.12 H 16.56 V 17.26 Z M 26.94,17.26 V 18.12 H 37.31 V 17.26 Z M 47.69,17.26 V 18.12 H 58.07 V 17.26 Z M 16.56,27.64 V 28.5 H 26.94 V 27.64 Z M 37.31,27.64 V 28.5 H 47.69 V 27.64 Z M 6.177,38.01 V 38.88 H 16.56 V 38.01 Z M 26.94,38.01 V 38.88 H 37.31 V 38.01 Z M 47.69,38.01 V 38.88 H 58.07 V 38.01 Z M 16.56,48.39 V 49.26 H 26.94 V 48.39 Z M 37.31,48.39 V 49.26 H 47.69 V 48.39 Z" style="opacity:0.2;fill-rule:evenodd;stroke-width:0.8648" />
  <rect ry="0" rx="0" y="38.01" x="47.69" height="10.38" width="10.38" id="rect853" style="fill:#b13f3f;stroke-width:0.4" />
  <rect style="fill:#3fb142;stroke-width:0.4" id="rect857" width="10.38" height="10.38" x="6.124" y="38.01" rx="0" ry="0" />
  <rect ry="0" rx="0" y="17.22" x="6.124" height="10.38" width="10.38" id="rect859" style="fill:#b13f3f;stroke-width:0.4" />
  <rect style="fill:#3fb14b;stroke-width:0.4" id="rect861" width="10.38" height="10.38" x="47.68" y="17.22" rx="0" ry="0" />
</svg>
