<?xml version="1.0" encoding="UTF-8" standalone="no"?>
<svg xmlns:dc="http://purl.org/dc/elements/1.1/" xmlns:cc="http://creativecommons.org/ns#" xmlns:rdf="http://www.w3.org/1999/02/22-rdf-syntax-ns#" xmlns:svg="http://www.w3.org/2000/svg" xmlns="http://www.w3.org/2000/svg" xmlns:sodipodi="http://sodipodi.sourceforge.net/DTD/sodipodi-0.dtd" xmlns:inkscape="http://www.inkscape.org/namespaces/inkscape" inkscape:version="1.0beta2 (2b71d25d45, 2019-12-03)" sodipodi:docname="io.ark.Desktop.svg" id="svg12" version="1.1" height="64" width="64">
  <metadata id="metadata18">
    <rdf:RDF>
      <cc:Work rdf:about="">
        <dc:format>image/svg+xml</dc:format>
        <dc:type rdf:resource="http://purl.org/dc/dcmitype/StillImage" />
      </cc:Work>
    </rdf:RDF>
  </metadata>
  <defs id="defs16" />
  <sodipodi:namedview inkscape:current-layer="svg12" inkscape:cy="32" inkscape:cx="32" inkscape:zoom="12.07" showgrid="false" id="namedview14" inkscape:window-height="480" inkscape:window-width="640" inkscape:pageshadow="2" inkscape:pageopacity="0" guidetolerance="10" gridtolerance="10" objecttolerance="10" borderopacity="1" inkscape:document-rotation="0" bordercolor="#666666" pagecolor="#ffffff" />
  <rect id="rect4" ry="28" rx="28" y="4" x="4" height="56" width="56" style="fill:#ed2a2d" />
  <path id="path6" d="M 32.089844,19 14,47 C 14,47 25.244167,35.933361 32,29.5 38.827788,35.383354 50,47 50,47 Z m -0.199219,14 -2.367187,3 h 4.822265 z M 27.15625,39 24,43 32,42.955078 40,42.910156 36.800781,39 Z" style="opacity:0.2" />
  <path id="path8" d="M 32.089844 18 L 14 46 C 14 46 25.244167 34.933361 32 28.5 C 38.827788 34.383354 50 46 50 46 L 32.089844 18 z M 31.890625 32 L 29.523438 35 L 34.345703 35 L 31.890625 32 z M 27.15625 38 L 24 42 L 32 41.955078 L 40 41.910156 L 36.800781 38 L 27.15625 38 z" style="fill:#ffffff" />
  <path id="path10" d="M 6.8007812 4 C 5.2495813 4 4 5.2495813 4 6.8007812 L 4 7.8007812 C 4 6.2495813 5.2495813 5 6.8007812 5 L 57.199219 5 C 58.750419 5 60 6.2495813 60 7.8007812 L 60 6.8007812 C 60 5.2495813 58.750419 4 57.199219 4 L 6.8007812 4 z" style="fill:#ffffff;opacity:0.2" />
</svg>
