<?xml version="1.0" encoding="UTF-8" standalone="no"?>
<svg xmlns:dc="http://purl.org/dc/elements/1.1/" xmlns:cc="http://creativecommons.org/ns#" xmlns:rdf="http://www.w3.org/1999/02/22-rdf-syntax-ns#" xmlns:svg="http://www.w3.org/2000/svg" xmlns="http://www.w3.org/2000/svg" xmlns:sodipodi="http://sodipodi.sourceforge.net/DTD/sodipodi-0.dtd" xmlns:inkscape="http://www.inkscape.org/namespaces/inkscape" inkscape:version="1.0beta2 (2b71d25d45, 2019-12-03)" sodipodi:docname="io.github.cges30901.hmtimer.svg" id="svg14" version="1" height="64" width="64">
  <metadata id="metadata20">
    <rdf:RDF>
      <cc:Work rdf:about="">
        <dc:format>image/svg+xml</dc:format>
        <dc:type rdf:resource="http://purl.org/dc/dcmitype/StillImage" />
      </cc:Work>
    </rdf:RDF>
  </metadata>
  <defs id="defs18" />
  <sodipodi:namedview inkscape:current-layer="svg14" inkscape:cy="32" inkscape:cx="32" inkscape:zoom="12.07" showgrid="false" id="namedview16" inkscape:window-height="480" inkscape:window-width="640" inkscape:pageshadow="2" inkscape:pageopacity="0" guidetolerance="10" gridtolerance="10" objecttolerance="10" borderopacity="1" inkscape:document-rotation="0" bordercolor="#666666" pagecolor="#ffffff" />
  <rect id="rect4" transform="matrix(0,-1,-1,0,0,0)" ry="29" rx="29" y="-61" x="-61" height="58" width="58" style="fill:#e0e3e8" />
  <path id="path6" d="m 30.300781,8 c -0.6648,0 -1.201172,0.7016943 -1.201172,1.5722656 V 28.427734 C 29.099609,29.298306 29.635981,30 30.300781,30 h 3.59961 c 0.6648,0 1.199218,-0.701694 1.199218,-1.572266 V 9.5722656 C 35.099609,8.7016943 34.565191,8 33.900391,8 Z M 26,14.988281 A 19,19 0 0 0 13,33 19,19 0 0 0 32,52 19,19 0 0 0 51,33 19,19 0 0 0 38,14.998047 v 6.480469 A 13,13 0 0 1 45,33 13,13 0 0 1 32,46 13,13 0 0 1 19,33 13,13 0 0 1 26,21.472656 Z" style="opacity:0.1" />
  <rect id="rect8" ry="1.571" rx="1.2" y="7" x="29.1" height="22" width="6" style="fill:#3e63ca" />
  <path id="path10" d="M 20.398438 3 C 10.758838 3 3 10.758838 3 20.398438 L 3 21.398438 C 3 11.758837 10.758838 4 20.398438 4 L 43.601562 4 C 53.241163 4 61 11.758838 61 21.398438 L 61 20.398438 C 61 10.758838 53.241163 3 43.601562 3 L 20.398438 3 z" style="opacity:0.2;fill:#ffffff" />
  <path id="path12" d="M 26 13.988281 A 19 19 0 0 0 13 32 A 19 19 0 0 0 32 51 A 19 19 0 0 0 51 32 A 19 19 0 0 0 38 13.998047 L 38 20.478516 A 13 13 0 0 1 45 32 A 13 13 0 0 1 32 45 A 13 13 0 0 1 19 32 A 13 13 0 0 1 26 20.472656 L 26 13.988281 z" style="fill:#3e63ca" />
</svg>
