<?xml version="1.0" encoding="UTF-8" standalone="no"?>
<svg xmlns:dc="http://purl.org/dc/elements/1.1/" xmlns:cc="http://creativecommons.org/ns#" xmlns:rdf="http://www.w3.org/1999/02/22-rdf-syntax-ns#" xmlns:svg="http://www.w3.org/2000/svg" xmlns="http://www.w3.org/2000/svg" xmlns:sodipodi="http://sodipodi.sourceforge.net/DTD/sodipodi-0.dtd" xmlns:inkscape="http://www.inkscape.org/namespaces/inkscape" inkscape:version="1.0beta2 (2b71d25d45, 2019-12-03)" sodipodi:docname="io.github.OpenToonz.svg" id="svg20" version="1" height="64" width="64">
  <metadata id="metadata26">
    <rdf:RDF>
      <cc:Work rdf:about="">
        <dc:format>image/svg+xml</dc:format>
        <dc:type rdf:resource="http://purl.org/dc/dcmitype/StillImage" />
      </cc:Work>
    </rdf:RDF>
  </metadata>
  <defs id="defs24" />
  <sodipodi:namedview inkscape:current-layer="svg20" inkscape:cy="32" inkscape:cx="32" inkscape:zoom="12.07" showgrid="false" id="namedview22" inkscape:window-height="480" inkscape:window-width="640" inkscape:pageshadow="2" inkscape:pageopacity="0" guidetolerance="10" gridtolerance="10" objecttolerance="10" borderopacity="1" inkscape:document-rotation="0" bordercolor="#666666" pagecolor="#ffffff" />
  <circle r="30.56" cy="32" cx="32" id="path851" style="fill:#539a5c;stroke-width:0.4" />
  <path id="path6" d="m 22,15 c -7.731986,0 -14,6.268014 -14,14 0,7.731986 6.268014,14 14,14 7.731986,0 14,-6.268014 14,-14 -0.0055,-0.669639 -0.05901,-1.338022 -0.16016,-2 H 43 v 20 h 4 V 27 h 9 V 23 H 34.628906 C 32.31452,18.12083 27.400243,15.007796 22,15 Z m 0,4.199218 C 27.413001,19.198786 31.801214,23.586999 31.800782,29 31.801214,34.413001 27.413001,38.801214 22,38.800782 16.586999,38.801213 12.198787,34.413001 12.199219,29 12.198787,23.586999 16.586999,19.198787 22,19.199218 Z" style="opacity:0.2" />
  <rect id="rect8" transform="rotate(90)" y="-47" x="26" height="4" width="20" style="fill:#ffffff" />
  <path sodipodi:nodetypes="csscc" inkscape:connector-curvature="0" id="path10" d="M 61.49,39.49 H 42.24 C 40.73,39.49 39.49,40.72 39.49,42.24 V 61.49 C 53.02,56.65 58.17,48.78 61.49,39.49 Z" style="fill:#85df66" />
  <rect id="rect12" y="22" x="32" height="4" width="24" style="fill:#ffffff" />
  <path id="path14" d="M 22,14 A 14,14 0 0 0 8,28 14,14 0 0 0 22,42 14,14 0 0 0 36,28 14,14 0 0 0 22,14 Z m 0,4.2 A 9.8,9.8 0 0 1 31.8,28 9.8,9.8 0 0 1 22,37.8 9.8,9.8 0 0 1 12.2,28 9.8,9.8 0 0 1 22,18.2 Z" style="fill:#ffffff" />
</svg>
