<?xml version="1.0" encoding="UTF-8" standalone="no"?>
<svg xmlns:dc="http://purl.org/dc/elements/1.1/" xmlns:cc="http://creativecommons.org/ns#" xmlns:rdf="http://www.w3.org/1999/02/22-rdf-syntax-ns#" xmlns:svg="http://www.w3.org/2000/svg" xmlns="http://www.w3.org/2000/svg" xmlns:sodipodi="http://sodipodi.sourceforge.net/DTD/sodipodi-0.dtd" xmlns:inkscape="http://www.inkscape.org/namespaces/inkscape" inkscape:version="1.0beta2 (2b71d25d45, 2019-12-03)" sodipodi:docname="io.github.mki1967.mki3dgame.svg" id="svg34" version="1" height="64" width="64">
  <metadata id="metadata40">
    <rdf:RDF>
      <cc:Work rdf:about="">
        <dc:format>image/svg+xml</dc:format>
        <dc:type rdf:resource="http://purl.org/dc/dcmitype/StillImage" />
      </cc:Work>
    </rdf:RDF>
  </metadata>
  <defs id="defs38" />
  <sodipodi:namedview inkscape:current-layer="svg34" inkscape:cy="32" inkscape:cx="32" inkscape:zoom="12.07" showgrid="false" id="namedview36" inkscape:window-height="480" inkscape:window-width="640" inkscape:pageshadow="2" inkscape:pageopacity="0" guidetolerance="10" gridtolerance="10" objecttolerance="10" borderopacity="1" inkscape:document-rotation="0" bordercolor="#666666" pagecolor="#ffffff" />
  <circle r="30.41" cy="32" cx="32" id="path865" style="fill:#373f48;stroke:#373c48;stroke-width:0.4" />
  <path id="path6" d="m 27.826988,12.714286 -4.503946,3.425045 -10.199797,24.058713 -0.40896,8.27876 8.792649,2.808912 25.177974,-3.381996 3.403522,-4.770308 1.197286,-7.22407 -3.909342,-7.337076 -11.093052,-13.511838 z" style="fill:#d62f19" />
  <path id="path8" d="M 23.001864,15.551393 33.580578,30.09666 12.423149,40.500564 Z" style="fill:#d62f19" />
  <path id="path10" d="m 12.423149,40.500564 -0.42315,8.58575 L 21.118388,52 42.62659,42.325246 44.102092,33.07625 33.580578,30.09666 Z" style="fill:#e84d34" />
  <path id="path12" d="M 21.118388,53 47.229542,49.493304 42.62659,43.325246 Z" style="opacity:0.1" />
  <path id="path14" d="M 21.118388,52 47.229542,48.493304 42.62659,42.325246 Z" style="fill:#962111" />
  <path id="path16" d="M 42.62659,43.325942 44.102092,34.076946 47.945068,29.446258 52,37.053838 50.758492,44.545646 47.229542,49.494 Z" style="opacity:0.1" />
  <path id="path18" d="M 42.62659,42.325246 44.102092,33.07625 47.945068,28.445562 52,36.053142 l -1.241508,7.491808 -3.52895,4.948354 z" style="fill:#a92513" />
  <path id="path20" d="M 44.102092,33.07625 33.580578,30.09666 23.001864,15.551393 27.673484,12 l 8.767882,2.432306 11.503702,14.013256 z" style="fill:#c22a16" />
  <path id="path22" d="M 6.8007812 4 C 5.2495812 4 4 5.2495812 4 6.8007812 L 4 7.8007812 C 4 6.2495813 5.2495812 5 6.8007812 5 L 57.199219 5 C 58.750419 5 60 6.2495812 60 7.8007812 L 60 6.8007812 C 60 5.2495813 58.750419 4 57.199219 4 L 6.8007812 4 z" style="opacity:0.1;fill:#ffffff" />
  <path id="path24" d="M 23.001953 15.550781 L 12.423828 40.5 L 12.958984 40.236328 L 23.001953 16.550781 L 33.044922 30.359375 L 33.580078 30.095703 L 23.001953 15.550781 z" style="opacity:0.1;fill:#ffffff" />
  <path id="path26" d="M 33.580078 30.095703 L 12.423828 40.5 L 12 49.085938 L 12.048828 49.101562 L 12.423828 41.5 L 33.580078 31.095703 L 43.949219 34.033203 L 44.101562 33.076172 L 33.580078 30.095703 z" style="opacity:0.1;fill:#ffffff" />
  <path id="path28" d="M 27.673828 12 L 23.001953 15.550781 L 23.470703 16.195312 L 27.673828 13 L 36.441406 15.431641 L 47.533203 28.943359 L 47.945312 28.445312 L 36.441406 14.431641 L 27.673828 12 z" style="opacity:0.1;fill:#ffffff" />
  <path id="path30" d="M 43.949219 34.033203 L 42.626953 42.326172 L 21.119141 52 L 12.048828 49.101562 L 12 50.085938 L 21.119141 53 L 42.626953 43.326172 L 44.101562 34.076172 L 43.949219 34.033203 z" style="opacity:0.1" />
  <path id="path32" d="M 47.533203 28.943359 L 44.101562 33.076172 L 43.949219 34.033203 L 44.101562 34.076172 L 47.945312 29.445312 L 47.533203 28.943359 z" style="opacity:0.1" />
</svg>
