<?xml version="1.0" encoding="UTF-8" standalone="no"?>
<svg xmlns:dc="http://purl.org/dc/elements/1.1/" xmlns:cc="http://creativecommons.org/ns#" xmlns:rdf="http://www.w3.org/1999/02/22-rdf-syntax-ns#" xmlns:svg="http://www.w3.org/2000/svg" xmlns="http://www.w3.org/2000/svg" xmlns:sodipodi="http://sodipodi.sourceforge.net/DTD/sodipodi-0.dtd" xmlns:inkscape="http://www.inkscape.org/namespaces/inkscape" inkscape:version="1.0beta2 (2b71d25d45, 2019-12-03)" sodipodi:docname="itmages.svg" id="svg18" version="1" height="64" width="64">
  <metadata id="metadata24">
    <rdf:RDF>
      <cc:Work rdf:about="">
        <dc:format>image/svg+xml</dc:format>
        <dc:type rdf:resource="http://purl.org/dc/dcmitype/StillImage" />
      </cc:Work>
    </rdf:RDF>
  </metadata>
  <defs id="defs22" />
  <sodipodi:namedview inkscape:current-layer="svg18" inkscape:cy="32" inkscape:cx="32" inkscape:zoom="12.07" showgrid="false" id="namedview20" inkscape:window-height="480" inkscape:window-width="640" inkscape:pageshadow="2" inkscape:pageopacity="0" guidetolerance="10" gridtolerance="10" objecttolerance="10" borderopacity="1" inkscape:document-rotation="0" bordercolor="#666666" pagecolor="#ffffff" />
  <rect id="rect4" ry="28.95" rx="28.95" y="3.045" x="3.045" height="57.91" width="57.91" style="fill:#366b9f;stroke-width:1.034" />
  <path id="path6" d="m 15.999829,17.000457 0,31.999543 5.999914,0 0,-31.999543 -5.999914,0 z m 13.9998,0 0,5.999914 5.999914,0 0,25.999629 5.999914,0 0,-25.999629 5.999914,0 0,-5.999914 -17.999742,0 z" style="opacity:0.2" />
  <g id="g14" transform="matrix(1.9999714,0,0,1.9999714,5.760572e-5,8.866e-4)" style="fill:#8addff">
    <path id="path8" d="m 8,8 3,0 0,16 -3,0 z" />
    <path id="path10" d="m 18,8 3,0 0,16 -3,0 z" />
    <path id="path12" d="m 24,8 0,3 -9,0 0,-3 z" />
  </g>
</svg>
