<?xml version="1.0" encoding="UTF-8" standalone="no"?>
<svg xmlns:dc="http://purl.org/dc/elements/1.1/" xmlns:cc="http://creativecommons.org/ns#" xmlns:rdf="http://www.w3.org/1999/02/22-rdf-syntax-ns#" xmlns:svg="http://www.w3.org/2000/svg" xmlns="http://www.w3.org/2000/svg" xmlns:xlink="http://www.w3.org/1999/xlink" xmlns:sodipodi="http://sodipodi.sourceforge.net/DTD/sodipodi-0.dtd" xmlns:inkscape="http://www.inkscape.org/namespaces/inkscape" inkscape:version="1.0beta2 (2b71d25d45, 2019-12-03)" sodipodi:docname="kmag.svg" id="svg68" version="1.1" height="48" width="48">
  <metadata id="metadata72">
    <rdf:RDF>
      <cc:Work rdf:about="">
        <dc:format>image/svg+xml</dc:format>
        <dc:type rdf:resource="http://purl.org/dc/dcmitype/StillImage" />
      </cc:Work>
    </rdf:RDF>
  </metadata>
  <sodipodi:namedview inkscape:current-layer="svg68" inkscape:cy="24" inkscape:cx="24" inkscape:zoom="16.09" showgrid="false" id="namedview70" inkscape:window-height="480" inkscape:window-width="640" inkscape:pageshadow="2" inkscape:pageopacity="0" guidetolerance="10" gridtolerance="10" objecttolerance="10" borderopacity="1" inkscape:document-rotation="0" bordercolor="#666666" pagecolor="#ffffff" />
  <defs id="defs32">
    <linearGradient gradientTransform="matrix(0.9832,0,0,0.9832,-377.3,-491)" gradientUnits="userSpaceOnUse" x2="0" y2="503.8" y1="536.8" id="a">
      <stop id="stop2" stop-color="#2a2c2f" />
      <stop id="stop4" stop-color="#424649" offset="1" />
    </linearGradient>
    <linearGradient gradientTransform="matrix(0.9832,0,0,0.5363,-377.3,-251.1)" gradientUnits="userSpaceOnUse" x2="0" y2="536.8" y1="547.8" id="b">
      <stop id="stop7" stop-color="#c6cdd1" />
      <stop id="stop9" stop-color="#e0e5e7" offset="1" />
    </linearGradient>
    <linearGradient gradientTransform="translate(-9.946,0.0749)" gradientUnits="userSpaceOnUse" x2="11.999" y2="31.357" x1="42.799" y1="5.342" id="c">
      <stop id="stop12" stop-color="#1abc9c" />
      <stop id="stop14" stop-color="#2980b9" offset="1" />
    </linearGradient>
    <linearGradient gradientTransform="translate(-9.946,0.0749)" gradientUnits="userSpaceOnUse" x2="54.32" y2="28.506" x1="29.855" y1="22.346" id="d">
      <stop id="stop17" stop-color="#cc4a5e" />
      <stop id="stop19" stop-color="#aa478a" offset="1" />
    </linearGradient>
    <linearGradient gradientUnits="userSpaceOnUse" x2="20.643" y2="25.343" x1="24.392" y1="41.22" id="e">
      <stop id="stop22" stop-color="#334545" />
      <stop id="stop24" stop-color="#536161" offset="1" />
    </linearGradient>
    <linearGradient gradientTransform="matrix(-0.9167,0,0,0.9167,418.7,-492.5)" gradientUnits="userSpaceOnUse" x2="439.57" y2="562.8" x1="431.57" y1="568.8" id="f" xlink:href="#e" />
    <linearGradient gradientTransform="translate(-9.946,0.0749)" gradientUnits="userSpaceOnUse" x2="40.647" y2="32.475" x1="56.03" y1="40.899" id="g" xlink:href="#e" />
    <linearGradient gradientTransform="translate(-29.93,0.0749)" gradientUnits="userSpaceOnUse" x2="53.41" y2="27.06" x1="60.895" y1="32.15" id="h" xlink:href="#e" />
    <linearGradient gradientTransform="translate(-9.946,0.0749)" gradientUnits="userSpaceOnUse" x2="24.78" y2="31.348" x1="33.32" y1="36.527" id="i" xlink:href="#e" />
    <linearGradient gradientTransform="translate(-9.946,0.0749)" gradientUnits="userSpaceOnUse" x2="40.25" y2="49.571" x1="34" y1="36.765" id="j" xlink:href="#e" />
  </defs>
  <g transform="translate(-0.4031,-0.0015)" id="g941">
    <path fill="url(#b)" d="M 18.51,36.78 V 42.68 H 30.3 V 36.78 Z" id="path34" style="fill:url(#b);stroke-width:2.7529;stroke-opacity:0.55" inkscape:connector-curvature="0" />
    <rect width="47.19" x="0.8081" y="4.337" fill="url(#a)" height="35.39" id="rect36" style="fill:url(#a);stroke-width:2.7529;stroke-opacity:0.55" />
    <path fill="url(#c)" d="M 2.827,6.377 V 35.87 H 46.08 V 6.377 Z" id="path40" style="fill:#d8b7f5;stroke-width:0.9832" inkscape:connector-curvature="0" />
    <path inkscape:connector-curvature="0" style="fill:#6985a4;stroke-width:1.9663" id="path42" d="M 46.05,6.214 15.76,6.452 26.48,20.17 37.63,35.87 H 46.08 Z" fill="url(#d)" sodipodi:nodetypes="cccccc" />
    <rect id="rect62" stroke-width="2.8" height="1.966" fill="#99a1a7" stroke-opacity=".55" y="41.7" x="13.59" width="21.63" />
    <path inkscape:connector-curvature="0" id="path64" d="M 3.787,7.286 V 12.2 H 4.77 V 8.269 H 8.703 V 7.286 Z M 40.16,7.286 V 8.269 H 44.1 V 12.2 H 45.08 V 7.286 Z M 22.47,13.19 C 19.2,13.19 16.57,15.82 16.57,19.08 16.57,22.35 19.2,24.98 22.47,24.98 23.92,24.98 25.25,24.45 26.27,23.59 L 31.6,28.92 32.3,28.22 26.97,22.89 C 27.84,21.87 28.37,20.54 28.37,19.08 28.37,15.82 25.73,13.19 22.47,13.19 M 22.47,14.17 C 25.19,14.17 27.38,16.36 27.38,19.08 27.38,21.81 25.19,24 22.47,24 19.74,24 17.55,21.81 17.55,19.08 17.55,16.36 19.74,14.17 22.47,14.17 M 3.787,29.9 V 34.81 H 8.703 V 33.83 H 4.77 V 29.9 Z M 44.1,29.9 V 33.83 H 40.16 V 34.81 H 45.08 V 29.9 Z" stroke-width=".1" fill="#ffffff" />
  </g>
</svg>
