<?xml version="1.0" encoding="UTF-8" standalone="no"?>
<svg xmlns:dc="http://purl.org/dc/elements/1.1/" xmlns:cc="http://creativecommons.org/ns#" xmlns:rdf="http://www.w3.org/1999/02/22-rdf-syntax-ns#" xmlns:svg="http://www.w3.org/2000/svg" xmlns="http://www.w3.org/2000/svg" xmlns:sodipodi="http://sodipodi.sourceforge.net/DTD/sodipodi-0.dtd" xmlns:inkscape="http://www.inkscape.org/namespaces/inkscape" inkscape:version="1.0beta2 (2b71d25d45, 2019-12-03)" sodipodi:docname="kup.svg" id="svg16" version="1" height="64" width="64">
  <metadata id="metadata22">
    <rdf:RDF>
      <cc:Work rdf:about="">
        <dc:format>image/svg+xml</dc:format>
        <dc:type rdf:resource="http://purl.org/dc/dcmitype/StillImage" />
      </cc:Work>
    </rdf:RDF>
  </metadata>
  <defs id="defs20" />
  <sodipodi:namedview inkscape:current-layer="svg16" inkscape:cy="32" inkscape:cx="32" inkscape:zoom="12.08" showgrid="false" id="namedview18" inkscape:window-height="480" inkscape:window-width="640" inkscape:pageshadow="2" inkscape:pageopacity="0" guidetolerance="10" gridtolerance="10" objecttolerance="10" borderopacity="1" inkscape:document-rotation="0" bordercolor="#666666" pagecolor="#ffffff" />
  <circle r="29.43" cy="32" cx="32" id="path847" style="fill:#e8eef0;stroke-width:0.1981" />
  <path id="path6" d="m 13.96875,11.969314 a 3.0003,3.0003 0 0 0 -2.089844,5.152344 L 18.0625,23.305252 A 17,17 0 0 0 15,33.000564 a 17,17 0 0 0 3.050781,9.707032 l -6.171875,6.171874 a 3.0003,3.0003 0 1 0 4.242188,4.242188 l 6.183594,-6.183594 A 17,17 0 0 0 32,50.000564 17,17 0 0 0 41.707032,46.949782 l 6.171874,6.171876 A 3.0003,3.0003 0 1 0 52.121094,48.87947 L 45.9375,42.695876 A 17,17 0 0 0 49,33.000564 17,17 0 0 0 45.949218,23.293532 l 6.171876,-6.171874 a 3.0003,3.0003 0 0 0 -2.179688,-5.148438 3.0003,3.0003 0 0 0 -2.0625,0.90625 l -6.183594,6.183594 A 17,17 0 0 0 32,16.000564 17,17 0 0 0 22.292968,19.051345 L 16.121094,12.87947 A 3.0003,3.0003 0 0 0 13.96875,11.969314 Z M 32,22.000564 a 11,11 0 0 1 5.359376,1.398438 L 32,28.758376 26.648438,23.406814 A 11,11 0 0 1 32,22.000564 Z m -9.601562,5.640624 5.359374,5.359376 -5.351562,5.351562 A 11,11 0 0 1 21,33.000564 11,11 0 0 1 22.398438,27.641188 Z m 19.195312,0.0078 A 11,11 0 0 1 43,33.000564 11,11 0 0 1 41.601562,38.35994 L 36.242188,33.000564 Z M 32,37.242752 37.351562,42.594314 A 11,11 0 0 1 32,44.000564 11,11 0 0 1 26.640624,42.602126 Z" style="opacity:0.1" />
  <path id="path8" d="M 32,15 A 17,17 0 0 0 15,32 17,17 0 0 0 32,49 17,17 0 0 0 49,32 17,17 0 0 0 32,15 Z m 0,6 A 11,11 0 0 1 43,32 11,11 0 0 1 32,43 11,11 0 0 1 21,32 11,11 0 0 1 32,21 Z" style="fill:#4f4f4f" />
  <path id="path10" d="m 14,14 36,36 v 0" style="fill:none;stroke:#4f4f4f;stroke-width:6;stroke-linecap:round" />
  <path id="path12" d="M 50,14 14,50" style="fill:none;stroke:#4f4f4f;stroke-width:6;stroke-linecap:round" />
  <path id="path14" d="M 5.8984375 3 C 4.2918373 3 3 4.2918373 3 5.8984375 L 3 6.8984375 C 3 5.2918373 4.2918373 4 5.8984375 4 L 58.101562 4 C 59.708163 4 61 5.2918373 61 6.8984375 L 61 5.8984375 C 61 4.2918373 59.708163 3 58.101562 3 L 5.8984375 3 z" style="opacity:0.2;fill:#ffffff" />
</svg>
