<?xml version="1.0" encoding="UTF-8" standalone="no"?>
<svg xmlns:dc="http://purl.org/dc/elements/1.1/" xmlns:cc="http://creativecommons.org/ns#" xmlns:rdf="http://www.w3.org/1999/02/22-rdf-syntax-ns#" xmlns:svg="http://www.w3.org/2000/svg" xmlns="http://www.w3.org/2000/svg" xmlns:xlink="http://www.w3.org/1999/xlink" xmlns:sodipodi="http://sodipodi.sourceforge.net/DTD/sodipodi-0.dtd" xmlns:inkscape="http://www.inkscape.org/namespaces/inkscape" inkscape:version="1.0beta2 (2b71d25d45, 2019-12-03)" sodipodi:docname="leocad.svg" id="svg23" version="1.1" height="48" width="48">
  <metadata id="metadata27">
    <rdf:RDF>
      <cc:Work rdf:about="">
        <dc:format>image/svg+xml</dc:format>
        <dc:type rdf:resource="http://purl.org/dc/dcmitype/StillImage" />
      </cc:Work>
    </rdf:RDF>
  </metadata>
  <sodipodi:namedview inkscape:current-layer="g21" inkscape:cy="24" inkscape:cx="24" inkscape:zoom="16.11" showgrid="false" id="namedview25" inkscape:window-height="480" inkscape:window-width="640" inkscape:pageshadow="2" inkscape:pageopacity="0" guidetolerance="10" gridtolerance="10" objecttolerance="10" borderopacity="1" inkscape:document-rotation="0" bordercolor="#666666" pagecolor="#ffffff" />
  <defs id="defs13">
    <linearGradient gradientTransform="matrix(0.9044,0,0,0.8626,386.8,502.8)" gradientUnits="userSpaceOnUse" y2="6.31" x2="23.86" y1="40.683" x1="24.14" id="1">
      <stop id="stop2" stop-color="#c52828" />
      <stop id="stop4" offset="1" stop-color="#ff5454" />
    </linearGradient>
    <linearGradient gradientUnits="userSpaceOnUse" y2="504.133" x2="407.687" y1="543.768" x1="407.626" id="linearGradient4236" xlink:href="#0" gradientTransform="translate(1.56e-6,1.56e-6)" />
    <linearGradient gradientTransform="matrix(2.3642932,0,0,2.3642932,278.05894,438.05223)" gradientUnits="userSpaceOnUse" y2="1.017" x2="26.442" y1="47.39" x1="27.456" id="0">
      <stop id="stop8" stop-color="#e1e1e1" />
      <stop id="stop10" offset="1" stop-color="#f4f4ff" />
    </linearGradient>
  </defs>
  <g id="g21" transform="translate(-384.57143,-499.798)">
    <circle r="22.42" cy="523.8" cx="408.6" id="path852" style="fill:#eaedf0;stroke-width:0.2057" />
    <path inkscape:connector-curvature="0" id="path19" style="fill:url(#1);stroke-width:1.1493" d="M 408.6,509.1 C 407.1,509.1 405.9,509.7 405.9,510.6 V 511.6 C 405.9,511.6 405.9,511.6 405.8,511.7 L 404.1,512.5 C 404.1,512.6 404,512.6 404,512.7 403.5,512.5 402.9,512.4 402.3,512.4 400.8,512.4 399.6,513 399.6,513.9 V 514.8 C 399.5,514.8 399.4,514.8 399.3,514.9 L 396,516.6 C 395.9,516.7 395.8,516.8 395.8,516.9 395.8,516.9 395.7,516.9 395.7,516.9 395.7,517 395.7,517 395.7,517 395.7,517.1 395.7,517.1 395.7,517.2 V 531.2 C 395.7,531.5 395.8,531.7 396,531.8 L 408.1,538.3 C 408.1,538.3 408.1,538.3 408.1,538.3 408.2,538.4 408.3,538.4 408.4,538.4 408.4,538.4 408.4,538.4 408.4,538.4 408.5,538.4 408.6,538.4 408.6,538.3 408.7,538.3 408.7,538.3 408.7,538.3 V 538.3 C 408.7,538.3 408.7,538.3 408.7,538.3 408.7,538.3 408.7,538.3 408.7,538.3 L 421.1,531.7 C 421.3,531.6 421.4,531.4 421.4,531.2 V 517.2 C 421.4,517 421.3,516.8 421.1,516.7 421.1,516.7 421,516.7 421,516.7 421,516.6 421,516.6 420.9,516.6 L 417.6,514.9 C 417.6,514.9 417.6,514.9 417.6,514.9 V 513.9 C 417.6,513 416.3,512.4 414.8,512.4 414.1,512.4 413.6,512.5 413.1,512.7 413.1,512.7 413.1,512.6 413,512.6 L 411.4,511.8 C 411.4,511.8 411.4,511.8 411.3,511.8 V 510.6 C 411.3,509.7 410.2,509.1 408.6,509.1 M 406.9,511.7 C 407.4,511.9 408,512 408.6,512 409.4,512 410,511.9 410.4,511.7 V 513.4 C 410.4,513.6 409.8,514 408.6,514 407.6,514 406.9,513.6 406.9,513.4 V 511.7 M 405.9,513 V 513.4 C 405.9,514.3 407.1,514.9 408.6,514.9 410.2,514.9 411.3,514.3 411.3,513.4 V 513.2 L 412.2,513.6 C 412.2,513.7 412.1,513.8 412.1,513.9 V 516.7 C 412.1,517.6 413.3,518.2 414.8,518.2 416.3,518.2 417.6,517.6 417.6,516.7 V 516.2 L 419.4,517.2 408.4,523.1 397.5,517.2 399.6,516.1 V 516.7 C 399.6,517.6 400.8,518.2 402.3,518.2 403.9,518.2 405,517.6 405,516.7 V 513.9 C 405,513.7 405,513.6 404.9,513.5 L 405.9,513 M 413.1,515 C 413.5,515.2 414.1,515.4 414.9,515.4 415.5,515.4 416.1,515.2 416.5,515 V 516.7 C 416.5,516.9 415.9,517.3 414.9,517.3 413.7,517.3 413.1,516.9 413.1,516.7 V 515 M 400.5,515 C 401.1,515.2 401.7,515.4 402.3,515.4 403,515.4 403.7,515.2 404.1,515 V 516.7 C 404.1,516.9 403.5,517.3 402.3,517.3 401.2,517.3 400.5,516.9 400.5,516.7 V 515 M 408.6,515.7 C 407.1,515.7 405.9,516.3 405.9,517.1 V 520 C 405.9,520.8 407.1,521.5 408.6,521.5 410.2,521.5 411.3,520.8 411.3,520 V 517.1 C 411.3,516.3 410.2,515.7 408.6,515.7 M 406.9,518.3 C 407.3,518.5 407.9,518.6 408.6,518.6 409.3,518.6 409.9,518.5 410.4,518.3 V 520 C 410.4,520.2 409.8,520.6 408.6,520.6 407.5,520.6 406.9,520.2 406.9,520 V 518.3" />
  </g>
</svg>
