<?xml version="1.0" encoding="UTF-8" standalone="no"?>
<svg xmlns:dc="http://purl.org/dc/elements/1.1/" xmlns:cc="http://creativecommons.org/ns#" xmlns:rdf="http://www.w3.org/1999/02/22-rdf-syntax-ns#" xmlns:svg="http://www.w3.org/2000/svg" xmlns="http://www.w3.org/2000/svg" xmlns:sodipodi="http://sodipodi.sourceforge.net/DTD/sodipodi-0.dtd" xmlns:inkscape="http://www.inkscape.org/namespaces/inkscape" inkscape:version="1.0beta2 (2b71d25d45, 2019-12-03)" sodipodi:docname="lftp.svg" id="svg20" version="1" height="64" width="64">
  <metadata id="metadata26">
    <rdf:RDF>
      <cc:Work rdf:about="">
        <dc:format>image/svg+xml</dc:format>
        <dc:type rdf:resource="http://purl.org/dc/dcmitype/StillImage" />
      </cc:Work>
    </rdf:RDF>
  </metadata>
  <defs id="defs24" />
  <sodipodi:namedview inkscape:current-layer="g858" inkscape:cy="32" inkscape:cx="32" inkscape:zoom="12.08" showgrid="false" id="namedview22" inkscape:window-height="480" inkscape:window-width="640" inkscape:pageshadow="2" inkscape:pageopacity="0" guidetolerance="10" gridtolerance="10" objecttolerance="10" borderopacity="1" inkscape:document-rotation="0" bordercolor="#666666" pagecolor="#ffffff" />
  <circle r="29.93" cy="32" cx="32" id="path860" style="fill:#f26e6e;stroke-width:0.197" />
  <g transform="translate(-3.915)" id="g858">
    <path style="opacity:0.2;stroke-width:0.8602" d="M 20.43,24.26 V 41.46 H 23.01 V 33.72 H 29.89 V 31.14 H 23.01 V 26.84 H 29.89 V 24.26 H 23.01 Z M 31.61,24.26 V 26.84 H 35.05 V 41.46 H 37.63 V 26.84 H 41.08 V 24.26 Z M 42.8,24.26 V 41.46 H 45.38 V 33.72 H 52.26 V 24.26 H 45.38 Z M 45.38,26.84 H 49.68 V 31.14 H 45.38 Z" id="path4" inkscape:connector-curvature="0" />
    <path style="fill:#ffffff;stroke-width:0.8602" d="M 20.43,23.4 V 25.98 30.28 32.86 40.6 H 23.01 V 32.86 H 29.89 V 30.28 H 23.01 V 25.98 H 29.89 V 23.4 H 23.01 Z M 31.61,23.4 V 25.98 H 35.05 V 40.6 H 37.63 V 25.98 H 41.08 V 23.4 Z M 42.8,23.4 V 25.98 30.28 32.86 40.6 H 45.38 V 32.86 H 49.68 52.26 V 30.28 25.98 23.4 H 49.68 45.38 Z M 45.38,25.98 H 49.68 V 30.28 H 45.38 Z" id="path6" inkscape:connector-curvature="0" />
    <rect style="fill:#426999;stroke-width:0.8602" width="43.01" height="5.161" x="14.41" y="14.8" rx="2.39" ry="2.581" id="rect10" />
    <path style="fill:#426999;stroke-width:0.8602" d="M 48.98,10.5 A 1.843,1.771 0 0 0 47.1,12.27 V 22.49 A 1.843,1.771 0 0 0 49.86,24.02 L 54.47,21.47 59.08,18.91 A 1.843,1.771 0 0 0 59.08,15.84 L 54.47,13.29 49.86,10.73 A 1.843,1.771 0 0 0 48.98,10.5 Z" id="path12" inkscape:connector-curvature="0" />
    <rect style="fill:#426999;stroke-width:0.8602" width="43.01" height="5.161" x="-57.42" y="44.04" rx="2.39" ry="2.581" transform="scale(-1,1)" id="rect14" />
    <path style="fill:#426999;stroke-width:0.8602" d="M 22.85,39.74 A 1.843,1.771 0 0 1 24.73,41.51 V 51.73 A 1.843,1.771 0 0 1 21.97,53.27 L 17.36,50.71 12.75,48.16 A 1.843,1.771 0 0 1 12.75,45.09 L 17.36,42.53 21.97,39.98 A 1.843,1.771 0 0 1 22.85,39.74 Z" id="path16" inkscape:connector-curvature="0" />
  </g>
</svg>
