<?xml version="1.0" encoding="UTF-8" standalone="no"?>
<svg xmlns:dc="http://purl.org/dc/elements/1.1/" xmlns:cc="http://creativecommons.org/ns#" xmlns:rdf="http://www.w3.org/1999/02/22-rdf-syntax-ns#" xmlns:svg="http://www.w3.org/2000/svg" xmlns="http://www.w3.org/2000/svg" xmlns:xlink="http://www.w3.org/1999/xlink" xmlns:sodipodi="http://sodipodi.sourceforge.net/DTD/sodipodi-0.dtd" xmlns:inkscape="http://www.inkscape.org/namespaces/inkscape" inkscape:version="1.0beta2 (2b71d25d45, 2019-12-03)" sodipodi:docname="libreoffice5.0-startcenter.svg" id="svg8" version="1.1" width="64" height="64">
  <metadata id="metadata14">
    <rdf:RDF>
      <cc:Work rdf:about="">
        <dc:format>image/svg+xml</dc:format>
        <dc:type rdf:resource="http://purl.org/dc/dcmitype/StillImage" />
        <dc:title></dc:title>
      </cc:Work>
    </rdf:RDF>
  </metadata>
  <defs id="defs12">
    <linearGradient id="linearGradient901" x1="410.8" x2="410.8" y1="546.5" y2="501.3" gradientTransform="matrix(1.318,0,0,1.318,-506.7,-657.8)" gradientUnits="userSpaceOnUse" xlink:href="#b-3" />
    <linearGradient id="b-3" x1="410.8" x2="410.8" y1="546.5" y2="501.3" gradientTransform="matrix(1.318,0,0,1.318,-506.8,-658.6)" gradientUnits="userSpaceOnUse">
      <stop stop-color="#cfdef0" offset="0" id="stop4" />
      <stop stop-color="#f5faff" offset="1" id="stop6" />
    </linearGradient>
    <linearGradient id="linearGradient888" x1="98.27" x2="98.27" y1="43.09" y2="-52.75" gradientUnits="userSpaceOnUse" xlink:href="#b-3" />
    <linearGradient id="linearGradient1089" x1="121.6" x2="137.2" y1="34.34" y2="31.04" gradientTransform="matrix(0.9905,0,0,0.9515,0.8863,2.443)" gradientUnits="userSpaceOnUse">
      <stop offset="0" id="stop19" />
      <stop stop-opacity=".054902" offset=".7761" id="stop21" />
      <stop stop-opacity=".027451" offset=".91316" id="stop23" />
      <stop stop-opacity=".019608" offset=".9324" id="stop25" />
      <stop stop-opacity=".011765" offset=".9501" id="stop27" />
      <stop stop-opacity="0" offset="1" id="stop29" />
    </linearGradient>
    <filter id="filter1047" x="-0.01414" y="-0.01042" width="1.028" height="1.021" color-interpolation-filters="sRGB">
      <feGaussianBlur stdDeviation="0.25616634" id="feGaussianBlur16" />
    </filter>
    <linearGradient id="linearGradient1004" x1="418.1" x2="386.2" y1="501.3" y2="546.5" gradientTransform="matrix(1.318,0,0,1.318,-506.7,-657.8)" gradientUnits="userSpaceOnUse">
      <stop stop-color="#006ec8" offset="0" id="stop11" />
      <stop stop-color="#0050a5" offset="1" id="stop13" />
    </linearGradient>
  </defs>
  <sodipodi:namedview inkscape:current-layer="svg8" inkscape:cy="34.74" inkscape:cx="24" inkscape:zoom="11.17" showgrid="false" id="namedview10" inkscape:window-height="480" inkscape:window-width="640" inkscape:pageshadow="2" inkscape:pageopacity="0" guidetolerance="10" gridtolerance="10" objecttolerance="10" borderopacity="1" inkscape:document-rotation="0" bordercolor="#666666" pagecolor="#ffffff" />
  <g style="font-weight:600;font-size:8px;font-family:'URW Gothic L';-inkscape-font-specification:'URW Gothic L Semi-Bold';fill:#52707f;stroke:#e9eaec;stroke-width:0.9;stroke-opacity:0.2265;paint-order:stroke fill markers" id="text898" />
  <g transform="translate(-0.159,-0.742)" id="g932">
    <rect id="rect47" stroke-width="1.0044" fill="url(#linearGradient901)" ry="29.79" height="59.58" width="59.58" y="2.952" x="2.369" style="fill:#f0f2f4" />
    <g id="g55" stroke-width=".25065" transform="matrix(0.4268,0,0,0.4268,-0.7255,34.37)" style="fill:#666666">
      <rect id="rect49" fill="#0064be" ry="6.286" height="103.2" width="48.91" y="-62.56" x="72.33" transform="rotate(3.906)" style="fill:#7f8793;stroke:#666666" />
      <path id="path51" fill="url(#linearGradient888)" d="M 75.57,-52.35 119.6,-49.34 113.3,42.49 69.3,39.49 Z" inkscape:connector-curvature="0" style="fill:url(#linearGradient888)" />
      <path id="path53" fill="#0064be" d="M 75.23,-47.39 74.9,-42.1 112.8,-39.75 113.2,-45.05 Z M 74.47,-35.03 74.14,-29.74 112.1,-27.4 112.4,-32.69 Z M 73.7,-22.67 73.38,-17.38 111.3,-15.04 111.6,-20.33 Z M 72.94,-10.32 72.61,-5.024 110.5,-2.68 110.9,-7.974 Z M 72.18,2.041 71.85,7.335 109.8,9.679 110.1,4.385 Z M 71.41,14.4 71.09,19.69 109,22.04 109.3,16.74 Z M 70.65,26.76 70.32,32.05 108.3,34.39 108.6,29.1 Z" inkscape:connector-curvature="0" style="fill:#778295" />
    </g>
    <path id="path57" stroke-width="1.015" filter="url(#filter1047)" fill="url(#linearGradient1089)" d="M 123.8,2.482 C 106.9,2.568 93.3,15.68 93.3,31.97 93.3,32.17 93.31,32.36 93.31,32.55 93.63,17.17 106.6,4.887 122.6,4.805 122.8,4.855 123,4.841 123.2,4.906 123.8,5.17 124.4,5.553 124.9,6.026 125.4,6.5 125.8,7.063 126.1,7.689 126.3,8.315 126.5,9.004 126.5,9.726 V 29.68 C 126.5,30.68 126.8,31.64 127.3,32.45 127.9,33.27 128.7,33.93 129.6,34.35 L 132.7,35.73 C 133.4,36.04 134,36.53 134.4,37.14 134.8,37.74 135.1,38.45 135.1,39.2 V 57.76 C 135.1,58.2 134.9,58.61 134.8,59 131.3,60.5 127.5,61.38 123.4,61.46 123.6,61.47 123.8,61.48 124,61.48 128.5,61.48 132.7,60.53 136.5,58.9 136.6,58.49 136.8,58.07 136.8,57.61 V 38.29 C 136.8,37.51 136.5,36.77 136.1,36.14 135.7,35.51 135.1,35 134.4,34.67 L 131.1,33.24 C 130.1,32.8 129.3,32.11 128.7,31.27 128.2,30.42 127.9,29.42 127.9,28.38 V 7.606 C 127.9,6.854 127.7,6.138 127.4,5.486 127.1,4.834 126.7,4.247 126.2,3.754 125.7,3.261 125.1,2.864 124.4,2.589 124.2,2.521 124,2.535 123.8,2.483 Z" transform="matrix(1,0,0,0.9949,-90.93,0.7983)" inkscape:connector-curvature="0" style="fill:url(#linearGradient1089)" />
    <path id="path59" stroke-width="1.0044" fill="url(#linearGradient1004)" d="M 44.27,59.93 C 44.41,59.52 44.53,59.09 44.53,58.63 V 39.12 C 44.53,38.33 44.3,37.58 43.9,36.95 43.49,36.32 42.9,35.8 42.19,35.47 L 39.03,34.02 C 38.07,33.58 37.29,32.88 36.74,32.03 36.19,31.17 35.88,30.17 35.88,29.11 V 8.139 C 35.88,7.38 35.73,6.657 35.45,5.999 35.17,5.341 34.77,4.748 34.27,4.251 33.77,3.753 33.18,3.351 32.52,3.073 32.36,3.005 32.17,3.02 32,2.968 15.57,3.055 2.37,16.29 2.37,32.74 2.37,49.24 15.66,62.53 32.16,62.53 36.48,62.53 40.57,61.57 44.27,59.93 Z" inkscape:connector-curvature="0" style="fill:#464e54" />
    <g aria-label="LO" id="text903" style="font-weight:600;font-size:19.0136px;font-family:'URW Gothic L';-inkscape-font-specification:'URW Gothic L Semi-Bold';fill:#ffffff;stroke-width:2.1391;stroke-opacity:0.2265;paint-order:stroke fill markers">
      <path inkscape:connector-curvature="0" d="M 9.345,40.82 H 16.25 V 38.33 H 11.95 V 26.77 H 9.345 Z" id="path905" />
      <path inkscape:connector-curvature="0" d="M 24.39,26.52 C 20.21,26.52 16.98,29.7 16.98,33.8 16.98,37.85 20.25,41.07 24.37,41.07 28.46,41.07 31.62,37.89 31.62,33.78 31.62,29.77 28.41,26.52 24.39,26.52 Z M 24.36,29.03 C 26.96,29.03 28.99,31.12 28.99,33.82 28.99,36.52 27.02,38.56 24.36,38.56 21.69,38.56 19.6,36.47 19.6,33.8 19.6,31.09 21.66,29.03 24.36,29.03 Z" id="path907" />
    </g>
  </g>
</svg>
