<?xml version="1.0" encoding="UTF-8" standalone="no"?>
<svg xmlns:dc="http://purl.org/dc/elements/1.1/" xmlns:cc="http://creativecommons.org/ns#" xmlns:rdf="http://www.w3.org/1999/02/22-rdf-syntax-ns#" xmlns:svg="http://www.w3.org/2000/svg" xmlns="http://www.w3.org/2000/svg" xmlns:sodipodi="http://sodipodi.sourceforge.net/DTD/sodipodi-0.dtd" xmlns:inkscape="http://www.inkscape.org/namespaces/inkscape" inkscape:version="1.0beta2 (2b71d25d45, 2019-12-03)" sodipodi:docname="life-is-strange.svg" id="svg16" version="1" height="48" width="48">
  <metadata id="metadata22">
    <rdf:RDF>
      <cc:Work rdf:about="">
        <dc:format>image/svg+xml</dc:format>
        <dc:type rdf:resource="http://purl.org/dc/dcmitype/StillImage" />
      </cc:Work>
    </rdf:RDF>
  </metadata>
  <defs id="defs20" />
  <sodipodi:namedview inkscape:current-layer="svg16" inkscape:cy="21.52" inkscape:cx="24" inkscape:zoom="16.11" showgrid="false" id="namedview18" inkscape:window-height="480" inkscape:window-width="640" inkscape:pageshadow="2" inkscape:pageopacity="0" guidetolerance="10" gridtolerance="10" objecttolerance="10" borderopacity="1" inkscape:document-rotation="0" bordercolor="#666666" pagecolor="#ffffff" />
  <circle r="22.17" cy="24" cx="24" id="path847" style="fill:#939dac;stroke-width:0.2" />
  <path inkscape:connector-curvature="0" id="path10" d="M 28.35,10.9 C 28.07,10.88 27.81,10.91 27.57,10.92 24.97,11.09 22.47,13.62 22.46,17.47 22.44,20.84 24.57,22.84 26.08,24.92 L 26.1,24.95 26.13,24.98 C 27.61,26.77 29.07,28.13 30.01,29.49 30.95,30.81 31.44,32.07 31.26,34.05 30.98,35.33 30.26,35.71 29.38,35.94 28.48,36.17 27.61,36.06 27.61,36.06 L 27.53,36.05 H 27.44 C 26.62,36.05 26.14,35.74 25.7,35.08 25.26,34.43 24.98,33.4 24.98,32.28 H 22.46 C 22.46,33.8 22.81,35.28 23.62,36.48 24.4,37.67 25.77,38.52 27.37,38.55 27.47,38.56 28.62,38.73 30.01,38.37 31.47,37.98 33.27,36.82 33.75,34.52 L 33.77,34.45 33.78,34.38 C 34.03,31.76 33.24,29.71 32.08,28.04 30.92,26.38 29.44,25.03 28.09,23.41 26.42,21.12 24.96,19.77 24.98,17.49 V 17.48 17.48 C 24.98,14.7 26.72,13.5 27.75,13.42 28.57,13.37 28.98,13.4 29.26,13.67 29.54,13.94 30,14.84 30,17.2 H 32.52 C 32.52,14.53 32.07,12.87 30.98,11.84 30.17,11.07 29.18,10.91 28.35,10.9 Z M 16.18,10.92 V 38.57 H 18.7 V 10.92 Z" style="opacity:0.2;fill-rule:evenodd;stroke-width:1.2569" />
  <path inkscape:connector-curvature="0" id="path12" d="M 31.26,15.94 C 31.26,10.92 29.41,10.79 27.66,10.92 25.85,11.04 23.73,12.91 23.72,16.22 23.7,19.05 25.5,20.73 27.1,22.92 29.93,26.35 32.98,28.34 32.52,33 31.76,36.64 27.44,36.05 27.44,36.05 24.98,36.05 23.72,33.65 23.72,31.03" style="fill:none;stroke:#ffffff;stroke-width:2.514" />
  <rect id="rect14" y="9.658" x="16.18" height="27.65" width="2.514" style="fill:#ffffff;fill-rule:evenodd;stroke-width:1.2569" />
</svg>
