<?xml version="1.0" encoding="UTF-8" standalone="no"?>
<svg xmlns:dc="http://purl.org/dc/elements/1.1/" xmlns:cc="http://creativecommons.org/ns#" xmlns:rdf="http://www.w3.org/1999/02/22-rdf-syntax-ns#" xmlns:svg="http://www.w3.org/2000/svg" xmlns="http://www.w3.org/2000/svg" xmlns:sodipodi="http://sodipodi.sourceforge.net/DTD/sodipodi-0.dtd" xmlns:inkscape="http://www.inkscape.org/namespaces/inkscape" inkscape:version="1.0beta2 (2b71d25d45, 2019-12-03)" sodipodi:docname="user_auth.svg" id="svg6" version="1.1" width="48" height="48">
  <metadata id="metadata12">
    <rdf:RDF>
      <cc:Work rdf:about="">
        <dc:format>image/svg+xml</dc:format>
        <dc:type rdf:resource="http://purl.org/dc/dcmitype/StillImage" />
      </cc:Work>
    </rdf:RDF>
  </metadata>
  <defs id="defs10" />
  <sodipodi:namedview inkscape:current-layer="svg6" inkscape:cy="24" inkscape:cx="24" inkscape:zoom="16.09" showgrid="false" id="namedview8" inkscape:window-height="480" inkscape:window-width="640" inkscape:pageshadow="2" inkscape:pageopacity="0" guidetolerance="10" gridtolerance="10" objecttolerance="10" borderopacity="1" inkscape:document-rotation="0" bordercolor="#666666" pagecolor="#ffffff" />
  <rect rx="21.5" id="rect2" y="3" x="2" width="43" ry="21.5" height="43" fill="#5f89c4" />
  <path id="path4" fill="#fff" d="m11.453125 16c-.804796 0-1.453125.648329-1.453125 1.453125v11.09375c0 .804796.648329 1.453125 1.453125 1.453125h24.09375c.804796 0 1.453125-.648329 1.453125-1.453125v-11.09375c0-.804796-.648329-1.453125-1.453125-1.453125zm4.404297.857422a3 3 0 0 1 3 3 3 3 0 0 1 -.900391 2.142578h.589844c.804796 0 1.453125.648329 1.453125 1.453125v3.09375c0 .804796-.648329 1.453125-1.453125 1.453125h-5.09375c-.804796 0-1.453125-.648329-1.453125-1.453125v-3.09375c0-.804796.648329-1.453125 1.453125-1.453125h.308594a3 3 0 0 1 -.904297-2.142578 3 3 0 0 1 3-3zm7.595703 5.142578h11.09375c.804796 0 1.453125.648329 1.453125 1.453125v1.09375c0 .804796-.648329 1.453125-1.453125 1.453125h-11.09375c-.804796 0-1.453125-.648329-1.453125-1.453125v-1.09375c0-.804796.648329-1.453125 1.453125-1.453125z" />
</svg>
