<?xml version="1.0" encoding="UTF-8" standalone="no"?>
<svg xmlns:dc="http://purl.org/dc/elements/1.1/" xmlns:cc="http://creativecommons.org/ns#" xmlns:rdf="http://www.w3.org/1999/02/22-rdf-syntax-ns#" xmlns:svg="http://www.w3.org/2000/svg" xmlns="http://www.w3.org/2000/svg" xmlns:sodipodi="http://sodipodi.sourceforge.net/DTD/sodipodi-0.dtd" xmlns:inkscape="http://www.inkscape.org/namespaces/inkscape" inkscape:version="1.0beta2 (2b71d25d45, 2019-12-03)" sodipodi:docname="littleweeb.svg" id="svg32" version="1" height="64" width="64">
  <metadata id="metadata38">
    <rdf:RDF>
      <cc:Work rdf:about="">
        <dc:format>image/svg+xml</dc:format>
        <dc:type rdf:resource="http://purl.org/dc/dcmitype/StillImage" />
      </cc:Work>
    </rdf:RDF>
  </metadata>
  <defs id="defs36" />
  <sodipodi:namedview inkscape:current-layer="svg32" inkscape:cy="34.58" inkscape:cx="32" inkscape:zoom="12.08" showgrid="false" id="namedview34" inkscape:window-height="480" inkscape:window-width="640" inkscape:pageshadow="2" inkscape:pageopacity="0" guidetolerance="10" gridtolerance="10" objecttolerance="10" borderopacity="1" inkscape:document-rotation="0" bordercolor="#666666" pagecolor="#ffffff" />
  <circle r="30.65" cy="32" cx="32" id="path863" style="fill:#eaedf0;stroke-width:0.2" />
  <path inkscape:connector-curvature="0" id="path6" d="M 30.87,7.954 C 25.61,7.907 20.46,12.33 20.57,17.79 20.59,19.45 19.45,19.68 18.08,19.37 17.56,21.24 21.94,22.81 18.58,23.2 19.77,23.79 21.88,23.06 21.11,25.19 20.81,28.54 20.24,31.87 19.68,35.19 19.2,38.3 16.25,34.81 15.27,33.68 13.53,30.95 14.13,36.18 14.29,37.42 14.32,38.85 16.42,41.66 13.51,40.56 11.05,39.92 8.586,38.3 6.921,36.75 6.595,37.68 7.447,40.67 7.86,42.2 7.873,43.46 9.83,45.74 9.397,45.84 8.326,45.27 6.611,43.9 8.211,45.85 10.88,48.61 14.73,50.25 18.59,50.12 27.61,50.52 36.76,52.88 45.75,50.82 49.24,49.85 52.6,47.96 54.78,45 54.06,45.28 50.41,47.69 52.54,45.88 54.71,43.79 56.6,41.14 57.21,38.16 57.33,36.86 55.89,39.2 54.87,39.02 52.72,39.97 50.37,40.69 48,40.34 48.28,38.32 50.1,35.66 49.79,33.14 48.31,34.51 45.33,36.82 43.57,35.71 42.15,32.13 41.76,28.21 41.69,24.4 42.58,24.18 44.72,22.79 42.56,23.16 41.1,22.59 44.43,21.32 44.12,19.85 44.46,18.85 41.33,20.88 41.46,18.81 42.17,14.95 40.7,10.88 37.03,9.251 35.14,8.23 33,7.916 30.87,7.954 Z" style="opacity:0.1;stroke-width:0.9547" />
  <path inkscape:connector-curvature="0" id="path8" d="M 30.87,6.999 C 25.61,6.952 20.46,11.37 20.57,16.84 20.59,18.49 19.45,18.73 18.08,18.41 17.56,20.28 21.94,21.86 18.58,22.25 19.77,22.83 21.88,22.11 21.11,24.23 20.81,27.58 20.24,30.92 19.68,34.24 19.2,37.34 16.25,33.86 15.27,32.72 13.53,30 14.13,35.22 14.29,36.46 14.32,37.9 16.42,40.7 13.51,39.61 11.05,38.97 8.586,37.34 6.921,35.79 6.595,36.73 7.447,39.72 7.86,41.25 7.873,42.51 9.83,44.79 9.397,44.88 8.326,44.32 6.611,42.95 8.211,44.9 10.88,47.66 14.73,49.3 18.59,49.17 27.61,49.57 36.76,51.93 45.75,49.87 49.24,48.89 52.6,47.01 54.78,44.05 54.06,44.33 50.41,46.73 52.54,44.93 54.71,42.84 56.6,40.19 57.21,37.2 57.33,35.9 55.89,38.25 54.87,38.07 52.72,39.01 50.37,39.74 48,39.39 48.28,37.37 50.1,34.71 49.79,32.19 48.31,33.56 45.33,35.87 43.57,34.75 42.15,31.17 41.76,27.25 41.69,23.44 42.58,23.23 44.72,21.84 42.56,22.21 41.1,21.64 44.43,20.37 44.12,18.9 44.46,17.9 41.33,19.92 41.46,17.85 42.17,14 40.7,9.926 37.03,8.297 35.14,7.275 33,6.961 30.87,6.999 Z" style="fill:#ffff6c;stroke-width:0.9547" />
  <path inkscape:connector-curvature="0" id="path10" d="M 30.76,14.63 C 29.52,15.93 28.27,17.29 26.89,18.42 27.24,17.46 27.94,15.57 26.9,17.71 26.16,18.98 25.34,20.73 24.9,22.08 25.67,23.46 28,20.17 28.87,19.37 29.49,17.78 30.11,16.2 30.76,14.63 Z M 35.54,15.57 C 34.12,16.8 32.66,18.07 31.15,19.16 31.2,18.91 32.54,17.03 32.12,17.41 30.66,19.01 29.18,20.63 27.75,22.26 30.04,21.98 32.28,20.85 34.07,19.56 33.94,20.59 32.53,23.38 34.1,21.44 35.08,20.39 36.35,18.78 36.71,17.39 37.1,16.85 37.41,15.26 36.57,16.76 36.23,17.06 34.49,19.39 35.2,17.52 35.33,16.87 35.47,16.23 35.54,15.57 Z M 38.89,17.42 C 38.62,18.95 37.24,20.72 36.22,21.88 36.11,23.1 38.21,21.56 38.32,20.87 38.56,19.97 38.96,18.34 38.89,17.42 Z M 41.25,20.23 C 40.36,21.63 39.27,23.01 37.95,23.98 37.68,24.85 36.58,26.59 37.95,25.19 39.25,23.83 40.77,22.39 41.24,20.51 41.23,20.42 41.28,20.3 41.25,20.23 Z M 23.56,20.28 C 23.32,21.29 24.59,24.03 24.88,23.51 25.12,22.05 24.19,21.34 23.56,20.28 Z M 40.78,22.89 C 40.08,25.09 35.07,27.13 34.11,29.03 32.31,30.56 34.65,32.2 32.04,32.55 29.34,32.67 29.06,30.48 27.31,29.08 26.08,27.32 23.66,26.42 22.33,24.78 22.37,28.2 21.48,31.56 20.48,34.79 21.28,34.12 22,31.75 22.44,31.63 22.18,34.43 21.15,37.13 19.66,39.41 18.22,41.39 16.71,43.44 14.57,44.72 12.44,43.82 10.78,42.19 9.443,40.36 8.744,38.67 7.648,36.99 6.804,35.63 7.015,39.02 7.723,42.54 9.762,45.06 9.004,44.96 6.42,42.55 8.006,44.63 9.759,46.68 12.28,48.06 14.87,48.77 17.66,49.42 20.58,49.1 23.41,49.55 30.46,50.19 37.64,51.45 44.69,50.1 47.82,49.45 51.09,47.97 53.42,45.6 54.12,44.95 55.56,43.32 53.74,44.61 53.23,44.88 50.58,46.54 52.36,45.1 54.61,43.03 56.47,40.34 57.21,37.35 57.41,35.42 55.5,39.04 54.85,39.18 53.39,40.66 51.82,42.02 50.13,43.23 46.15,41.44 43.29,37.73 42.18,33.55 41.13,30.32 40.32,26.27 40.78,22.89 Z" style="opacity:0.4;fill:#c91919;stroke-width:0.9547" />
  <path inkscape:connector-curvature="0" id="path12" d="M 24.89,34.46 C 23.72,34.55 22.49,34.81 21.56,35.56 20.17,37.47 20.11,39.97 20.51,42.21 20.77,43.69 20.82,45.19 20.74,46.69 20.71,48.12 20.85,49.55 21.38,50.88 21.78,52.24 22.45,53.49 23.27,54.64 23.86,55.62 25.21,54.41 26.07,54.25 27.47,53.69 28.87,53.12 30.27,52.54 33.03,53.64 35.82,54.69 38.63,55.66 39.45,55.42 39.7,54.32 40.07,53.61 40.52,52.28 41.02,50.95 41.34,49.58 41.63,46.56 41.99,43.54 42.15,40.5 42.36,39.05 42.34,37.4 41.29,36.25 40.57,35.19 39.3,34.93 38.16,34.57 37,33.8 35.83,33 34.8,32.07 34.34,32.91 32.93,32.35 32.14,32.42 30.55,32.26 28.69,31.82 27.32,32.9 26.51,33.42 25.7,33.94 24.89,34.46 Z M 25.52,45.08 C 26.91,45 26.7,46.95 27.65,47.2 29.06,47.27 30.41,48.1 31.84,47.71 32.85,47.46 33.98,47.51 34.67,46.62 35.6,45.87 36.68,45.27 37.86,45.1 37.7,45.74 37.9,47.11 37.47,47.33 36.58,46.67 35.46,46.98 34.56,47.44 32.52,48.04 30.34,47.98 28.24,48.23 27.42,48.39 26.61,48.55 26.6,47.48 26.29,46.62 25.78,45.84 25.14,45.18 25.26,45.13 25.4,45.11 25.52,45.08 Z" style="fill:#ebdeb0;stroke-width:0.9547" />
  <path inkscape:connector-curvature="0" id="path14" d="M 40.72,21.82 C 39.75,23.36 38.56,24.77 37.11,25.88 37.33,25.47 37.81,24.38 37.36,25.36 37.08,25.83 37.02,26.07 37.53,25.56 37.76,26.32 37.24,27.43 36.77,28.15 36,29.3 34.15,29.2 32.96,29.91 32.2,30.44 32.04,31.28 31.05,30.87 29.74,30.43 28.57,30.88 27.49,30.02 27.93,30.15 28.78,31.11 28.07,31.27 27.57,31.26 26.45,31.35 27.47,31.3 27.73,31.23 28.17,31.4 28.3,31.2 28.33,32.19 29.25,32.54 29.96,33.07 30.69,33.7 31.65,34.2 32.59,33.69 33.4,33.32 34.23,32.86 34.78,32.16 34.78,31.46 35.15,31.1 35.85,31.31 35.24,31.36 34.76,31.31 35,30.57 35.6,29.83 36.61,29.25 37.14,28.36 37.61,27.51 38.03,26.76 38.98,26.41 39.96,25.65 40.45,24.46 41.07,23.42 41.25,22.83 41.76,21.88 40.72,21.82 Z M 35.85,31.31 C 36.41,31.59 36.22,31.26 35.85,31.31 Z M 21.68,22.08 C 21.29,22.75 21.72,23.6 22.11,24.2 22.41,25.05 22.97,25.87 23.77,26.35 24.07,26.49 24.96,27.17 24.79,26.98 24.77,25.83 23.59,25.38 23.06,24.48 22.5,23.79 22.22,22.92 21.77,22.16 Z M 24.86,27.2 C 25,27.67 25.86,28.63 25.85,28.58 25.47,28.16 25.11,27.71 24.86,27.2 Z M 25.96,28.7 C 26.2,28.96 26.35,29.08 25.96,28.7 Z M 26.24,28.98 C 26.49,29.29 27.28,29.88 26.59,29.3 26.47,29.2 26.35,29.09 26.24,28.98 Z M 28.6,33.34 C 28.1,34.14 27.94,35.08 27.67,35.97 28.58,36.52 28.47,35.35 28.91,34.87 29.06,34.41 28.79,33.78 28.6,33.34 Z M 34.56,33.44 C 34.31,34.38 34.46,35.38 34.43,36.35 34.98,36.35 35.74,36.38 35.32,35.64 35.18,34.87 34.79,34.18 34.56,33.44 Z M 32.86,35.76 C 32.83,36.16 32.04,37.23 32.78,37.11 33.15,36.71 33.4,36.14 32.86,35.76 Z" style="fill:#d49063;stroke-width:0.9547" />
  <path inkscape:connector-curvature="0" id="path16" d="M 28.3,31.28 C 26.93,31.31 25.53,31.45 24.24,31.98 24.51,32.79 24.76,33.61 24.94,34.44 25.85,34.01 26.75,33.54 27.67,33.11 27.09,34.25 26.22,35.25 25.82,36.48 25.31,37.79 24.58,39.06 24.63,40.51 24.51,41.96 24.76,43.4 24.83,44.84 25.23,48.24 25.43,51.75 24.59,55.1 24.38,55.89 23.26,57.12 23.46,57.6 28.65,57.6 33.83,57.6 39.02,57.6 38.79,56.51 38.55,55.43 38.52,54.32 38.28,51.24 38.04,48.15 37.79,45.07 38.05,44.41 38.1,43.46 38.16,42.75 38.24,41.7 38.63,40.63 38.17,39.62 37.69,38.08 37.2,36.54 36.49,35.09 36.29,34.63 35.48,33.17 36.57,33.85 37.31,34.33 37.87,34.18 38.07,33.27 38.64,32.6 38.55,32.03 37.66,31.81 36.84,31.42 35.91,31.25 35,31.33 34.86,32.02 34.58,32.73 34.59,33.43 34.99,34.52 35.44,35.6 35.55,36.77 35.81,38.14 35.98,39.69 36.01,40.99 36.02,41.55 36.14,42.22 35.37,41.61 32.9,40.91 30.24,40.91 27.76,41.5 27.07,42.08 26.95,41.28 27.05,40.79 27.05,39.1 27.41,37.43 27.7,35.77 27.89,34.85 28.32,33.96 28.6,33.1 28.54,32.5 28.55,31.78 28.3,31.28 Z" style="fill:#ffffff;stroke-width:0.9547" />
  <path inkscape:connector-curvature="0" id="path18" d="M 25.52,45.08 C 24.7,45.12 25.85,45.77 25.94,46.17 26.37,46.84 26.72,47.6 26.84,48.37 26.09,50.54 25.34,52.7 24.59,54.86 24.37,55.31 24.09,56.19 23.92,56.53 24.51,56.7 25.08,56.96 25.62,57.26 26.84,56.66 28.01,55.94 29.25,55.39 29.75,55.2 30.28,55.05 30.81,55.05 30.85,55.89 30.9,56.73 31,57.56 33.67,57.63 36.34,57.58 39.01,57.58 38.89,56.94 38.74,56.29 38.6,55.66 38.63,55.46 38.55,55.16 38.53,54.92 38.22,52.41 37.91,49.9 37.6,47.38 37.72,46.87 37.74,46.22 37.82,45.66 37.9,45.3 37.94,44.91 37.46,45.18 36.06,45.49 34.9,46.38 33.85,47.32 32.52,47.47 31.16,48.12 29.82,47.64 29,47.41 28.16,47.24 27.3,47.15 26.94,46.42 26.74,45.39 25.82,45.14 25.73,45.12 25.63,45.09 25.52,45.08 Z M 32.47,55.02 C 33.89,55.11 35.3,55.44 36.62,55.96 37.44,56.25 37.8,57.13 38.54,57.55 36.51,57.56 34.48,57.56 32.45,57.55 32.43,56.71 32.42,55.87 32.47,55.02 Z" style="fill:#afb3b3;stroke-width:0.9547" />
  <path inkscape:connector-curvature="0" id="path20" d="M 32.99,44.79 C 33.4,44.6 34.07,44.22 33.67,43.7 33.44,43.16 33.14,42.65 32.86,42.14 33.33,42.28 33.77,42.63 34.23,42.74 34.63,42.52 34.57,41.8 35.15,42.09 36.08,42.27 36.97,42.56 37.88,42.81 38.44,43.11 38.3,42.15 38.35,41.82 38.1,41.42 37.42,41.54 37.02,41.28 35,40.5 32.8,40.32 30.65,40.42 28.96,40.49 27.29,40.73 25.64,41.06 25.28,41.14 24.92,41.23 24.57,41.34 24.58,41.64 24.57,41.95 24.58,42.25 25.78,41.98 27.01,41.77 28.25,41.74 28.43,42.11 28.64,42.78 29.14,42.36 29.68,42.16 30.23,41.9 30.8,41.86 30.13,42.55 29.51,43.31 29.11,44.19 29.23,44.74 30.01,44.86 30.21,44.29 30.62,43.47 31.18,42.74 31.66,41.96 32.2,41.79 32.17,42.58 32.32,42.92 32.49,43.57 32.56,44.26 32.74,44.91 32.83,44.89 32.9,44.83 32.99,44.79 Z" style="fill:#ff78c4;stroke-width:0.9547" />
  <path inkscape:connector-curvature="0" id="path22" d="M 20.51,43.19 C 20.73,44.56 20.84,45.94 20.74,47.32 20.75,48.7 20.74,50.11 21.24,51.42 21.67,52.73 22.14,54.05 22.99,55.15 23.25,55.84 23.69,56.25 24.42,55.85 26.38,55.09 28.33,54.29 30.27,53.5 33.03,54.6 35.82,55.64 38.63,56.62 39.39,56.42 39.62,55.43 39.98,54.8 40.48,53.46 40.89,52.08 41.33,50.72 41.45,49.04 41.68,47.38 41.82,45.7 40.48,45.81 39.13,45.92 37.79,46.02 37.93,46.34 37.68,47.6 37.64,48.25 37.07,48.12 35.91,47.57 35.13,48.16 33.64,48.87 31.94,48.82 30.34,49 29.17,49.08 28.01,49.24 26.85,49.31 26.54,47.77 25.61,46.43 24.39,45.48 23.34,44.46 21.9,44.03 20.67,43.28 Z M 27.24,47.98 C 27.31,48.22 27.55,48.1 27.24,47.98 Z" style="opacity:0.1;stroke-width:0.9547" />
  <path inkscape:connector-curvature="0" id="path24" d="M 20.51,42.24 C 20.73,43.6 20.84,44.98 20.74,46.37 20.75,47.74 20.74,49.16 21.24,50.46 21.67,51.77 22.14,53.1 22.99,54.2 23.25,54.88 23.69,55.29 24.42,54.89 26.38,54.14 28.33,53.34 30.27,52.54 33.03,53.65 35.82,54.69 38.63,55.66 39.39,55.47 39.62,54.48 39.98,53.85 40.48,52.51 40.89,51.13 41.33,49.76 41.45,48.09 41.68,46.42 41.82,44.75 40.48,44.85 39.13,44.96 37.79,45.07 37.93,45.39 37.68,46.64 37.64,47.3 37.07,47.17 35.91,46.62 35.13,47.21 33.64,47.92 31.94,47.86 30.34,48.05 29.17,48.12 28.01,48.28 26.85,48.35 26.54,46.82 25.61,45.48 24.39,44.53 23.34,43.5 21.9,43.07 20.67,42.32 Z M 27.24,47.02 C 27.31,47.27 27.55,47.15 27.24,47.02 Z" style="fill:#ebdeb0;stroke-width:0.9547" />
  <path inkscape:connector-curvature="0" id="path26" d="M 31.36,32.78 C 29.08,32.08 27,30.72 25.47,28.9 24.98,28.32 24.67,27.8 24.58,27.04 25.08,27.42 24.42,26.38 24.42,26.1 24.11,25.1 23.98,24.06 23.82,23.03 24.17,23.46 24.53,24.16 24.88,24.46 24.84,23.64 24.62,22.81 24.73,21.98 25.13,22.36 24.94,23.17 25.42,23.36 26.54,22.84 27.33,21.83 28.26,21.03 28.46,20.83 28.84,20.42 28.59,20.93 28.31,21.69 27.99,22.44 27.75,23.21 30.05,22.92 32.22,21.91 34.05,20.51 33.92,21.31 33.66,22.07 33.44,22.85 34.68,21.86 35.66,20.57 36.48,19.22 36.58,20.52 36.74,21.81 36.89,23.11 37.38,22.72 37.84,22.16 38.32,21.82 38.18,22.83 38.1,23.85 37.94,24.85 37.72,25.55 37.42,26.22 37.08,26.86 37.34,26.69 37.71,26.25 37.59,26.86 37.47,28.52 36.32,29.67 35.16,30.76 34.48,31.35 33.68,31.78 32.97,32.33 32.5,32.61 31.92,32.94 31.36,32.78 Z" style="opacity:0.1;stroke-width:0.9547" />
  <path inkscape:connector-curvature="0" id="path28" d="M 31.36,31.83 C 29.08,31.12 27,29.77 25.47,27.94 24.98,27.36 24.67,26.84 24.58,26.09 25.08,26.47 24.42,25.43 24.42,25.15 24.11,24.15 23.98,23.1 23.82,22.07 24.17,22.5 24.53,23.21 24.88,23.51 24.84,22.68 24.62,21.85 24.73,21.03 25.13,21.4 24.94,22.22 25.42,22.41 26.54,21.88 27.33,20.87 28.26,20.07 28.46,19.87 28.84,19.46 28.59,19.98 28.31,20.74 27.99,21.49 27.75,22.26 30.05,21.96 32.22,20.96 34.05,19.56 33.92,20.35 33.66,21.12 33.44,21.89 34.68,20.9 35.66,19.61 36.48,18.27 36.58,19.57 36.74,20.86 36.89,22.15 37.38,21.77 37.84,21.21 38.32,20.87 38.18,21.88 38.1,22.89 37.94,23.89 37.72,24.59 37.42,25.26 37.08,25.91 37.34,25.73 37.71,25.3 37.59,25.91 37.47,27.56 36.32,28.72 35.16,29.8 34.48,30.39 33.68,30.82 32.97,31.38 32.5,31.65 31.92,31.99 31.36,31.83 Z" style="fill:#ebdeb0;stroke-width:0.9547" />
  <path id="path30" d="M 6.8007812 4 C 5.2495812 4 4 5.2495812 4 6.8007812 L 4 7.8007812 C 4 6.2495813 5.2495812 5 6.8007812 5 L 57.199219 5 C 58.750419 5 60 6.2495812 60 7.8007812 L 60 6.8007812 C 60 5.2495813 58.750419 4 57.199219 4 L 6.8007812 4 z" style="opacity:0.1;fill:#ffffff" />
</svg>
