<?xml version="1.0" encoding="UTF-8" standalone="no"?>
<svg xmlns:dc="http://purl.org/dc/elements/1.1/" xmlns:cc="http://creativecommons.org/ns#" xmlns:rdf="http://www.w3.org/1999/02/22-rdf-syntax-ns#" xmlns:svg="http://www.w3.org/2000/svg" xmlns="http://www.w3.org/2000/svg" xmlns:sodipodi="http://sodipodi.sourceforge.net/DTD/sodipodi-0.dtd" xmlns:inkscape="http://www.inkscape.org/namespaces/inkscape" inkscape:version="1.0beta2 (2b71d25d45, 2019-12-03)" sodipodi:docname="mat.svg" id="svg24" version="1" height="64" width="64">
  <metadata id="metadata30">
    <rdf:RDF>
      <cc:Work rdf:about="">
        <dc:format>image/svg+xml</dc:format>
        <dc:type rdf:resource="http://purl.org/dc/dcmitype/StillImage" />
      </cc:Work>
    </rdf:RDF>
  </metadata>
  <defs id="defs28" />
  <sodipodi:namedview inkscape:current-layer="svg24" inkscape:cy="28.69" inkscape:cx="32" inkscape:zoom="12.08" showgrid="false" id="namedview26" inkscape:window-height="480" inkscape:window-width="640" inkscape:pageshadow="2" inkscape:pageopacity="0" guidetolerance="10" gridtolerance="10" objecttolerance="10" borderopacity="1" inkscape:document-rotation="0" bordercolor="#666666" pagecolor="#ffffff" />
  <circle r="28.97" cy="32" cx="32" id="path855" style="fill:#ff5555;stroke-width:0.2" />
  <path inkscape:connector-curvature="0" id="path10" d="M 11.31,19.83 A 1.996,1.996 0 0 0 9.389,21.82 V 35.13 A 1.996,1.996 0 1 0 13.38,35.13 V 26.48 L 15.6,28.59 A 1.996,1.996 0 0 0 18.42,28.52 L 20.03,26.82 V 35.13 A 1.998,1.998 0 1 0 24.02,35.13 V 21.82 A 1.996,1.996 0 0 0 21.96,19.83 1.996,1.996 0 0 0 20.58,20.45 L 16.9,24.33 12.76,20.38 A 1.996,1.996 0 0 0 11.31,19.83 Z M 41.98,19.83 A 1.996,1.996 0 1 0 41.98,23.82 H 45.31 V 35.13 A 1.996,1.996 0 1 0 49.29,35.13 V 23.82 H 52.75 A 1.996,1.996 0 1 0 52.75,19.83 Z M 33.22,19.83 A 1.996,1.996 0 0 0 31.51,21 L 25.53,34.31 A 1.996,1.996 0 1 0 29.16,35.94 L 29.88,34.35 V 34.46 H 36.83 L 37.5,35.94 A 1.996,1.996 0 1 0 41.14,34.31 L 35.15,21 A 1.996,1.996 0 0 0 33.22,19.83 Z M 33.34,26.68 35.04,30.47 H 31.63 Z" style="opacity:0.2;stroke-width:1.3302" />
  <path inkscape:connector-curvature="0" id="path12" d="M 11.38,33.86 V 20.56 L 16.97,25.87 22.03,20.56 V 33.86" style="fill:none;stroke:#fefefe;stroke-width:3.9905;stroke-linecap:round;stroke-linejoin:round" />
  <path inkscape:connector-curvature="0" id="path14" d="M 27.35,33.86 33.34,20.56 39.32,33.86" style="fill:none;stroke:#fefefe;stroke-width:3.9905;stroke-linecap:round;stroke-linejoin:round" />
  <path inkscape:connector-curvature="0" id="path16" d="M 47.3,33.86 V 21.22 21.22" style="fill:none;stroke:#fefefe;stroke-width:3.9905;stroke-linecap:round;stroke-linejoin:round" />
  <path inkscape:connector-curvature="0" id="path18" d="M 41.98,20.56 H 52.76" style="fill:none;stroke:#fefefe;stroke-width:3.9905;stroke-linecap:round;stroke-linejoin:round" />
  <path inkscape:connector-curvature="0" id="path20" d="M 29.88,31.2 H 37.33" style="fill:none;stroke:#fefefe;stroke-width:3.9905" />
  <rect ry="18.17" rx="0" y="39.48" x="26.41" height="18.17" width="11.19" id="rect857" style="fill:#ffc6c6;stroke-width:0.1701" />
</svg>
