<?xml version="1.0" encoding="UTF-8" standalone="no"?>
<svg xmlns:dc="http://purl.org/dc/elements/1.1/" xmlns:cc="http://creativecommons.org/ns#" xmlns:rdf="http://www.w3.org/1999/02/22-rdf-syntax-ns#" xmlns:svg="http://www.w3.org/2000/svg" xmlns="http://www.w3.org/2000/svg" xmlns:xlink="http://www.w3.org/1999/xlink" xmlns:sodipodi="http://sodipodi.sourceforge.net/DTD/sodipodi-0.dtd" xmlns:inkscape="http://www.inkscape.org/namespaces/inkscape" inkscape:version="1.0beta2 (2b71d25d45, 2019-12-03)" sodipodi:docname="matlab.svg" id="svg70" version="1.1" height="48" width="48">
  <metadata id="metadata74">
    <rdf:RDF>
      <cc:Work rdf:about="">
        <dc:format>image/svg+xml</dc:format>
        <dc:type rdf:resource="http://purl.org/dc/dcmitype/StillImage" />
      </cc:Work>
    </rdf:RDF>
  </metadata>
  <sodipodi:namedview inkscape:current-layer="g68" inkscape:cy="24.82" inkscape:cx="24" inkscape:zoom="16.11" showgrid="false" id="namedview72" inkscape:window-height="480" inkscape:window-width="640" inkscape:pageshadow="2" inkscape:pageopacity="0" guidetolerance="10" gridtolerance="10" objecttolerance="10" borderopacity="1" inkscape:document-rotation="0" bordercolor="#666666" pagecolor="#ffffff" />
  <defs id="defs40">
    <linearGradient gradientTransform="matrix(1.1196311,-0.0158664,0.0158664,1.1196311,-15.140425,-88.435878)" gradientUnits="userSpaceOnUse" y2="549.467" x2="382.676" y1="522.287" x1="375.804" id="0" xlink:href="#1" />
    <linearGradient id="1">
      <stop id="stop3" stop-color="#fff80f" />
      <stop id="stop5" stop-opacity="0" stop-color="#fff80f" offset="1" />
    </linearGradient>
    <linearGradient gradientTransform="matrix(1.1197435,0,0,1.1197435,381.69059,496.71205)" gradientUnits="userSpaceOnUse" y2="25.031" x2="35.118" y1="24.451" x1="37.971" id="2" xlink:href="#3" />
    <linearGradient id="3">
      <stop id="stop9" stop-color="#af270f" />
      <stop id="stop11" stop-opacity="0" stop-color="#d86c3b" offset="1" />
    </linearGradient>
    <linearGradient gradientTransform="matrix(1.044,0,0,1.044,382.2,497.3)" gradientUnits="userSpaceOnUse" y2="17.945" x2="33.719" y1="8.638" x1="36.213" id="4" xlink:href="#5" />
    <linearGradient id="5">
      <stop id="stop15" stop-color="#771a0f" />
      <stop id="stop17" stop-opacity="0" stop-color="#92280f" offset="1" />
    </linearGradient>
    <linearGradient gradientTransform="matrix(1.044,0,0,1.044,382.2,497.3)" gradientUnits="userSpaceOnUse" y2="22.616" x2="0" y1="4.135" id="6" xlink:href="#7" />
    <linearGradient id="7">
      <stop id="stop21" stop-color="#a0240f" />
      <stop id="stop23" stop-opacity="0" stop-color="#bc4a0f" offset="1" />
    </linearGradient>
    <linearGradient gradientTransform="matrix(1.1197435,0,0,1.1197435,381.69059,496.71205)" gradientUnits="userSpaceOnUse" y2="36.825" x2="22.274" y1="43.732" x1="22.858" id="8" xlink:href="#1" />
    <linearGradient gradientTransform="matrix(1.1197435,0,0,1.1197435,381.69059,496.71205)" gradientUnits="userSpaceOnUse" y2="24.063" x2="27.722" y1="22.849" x1="21.824" id="9" xlink:href="#5" />
    <linearGradient gradientTransform="matrix(1.1197435,0,0,1.1197435,381.69059,496.71205)" gradientUnits="userSpaceOnUse" y2="21.263" x2="19.831" y1="25.815" x1="20.616" id="A" xlink:href="#B" />
    <linearGradient id="B">
      <stop id="stop29" stop-color="#4a2834" />
      <stop id="stop31" stop-opacity="0" stop-color="#512531" offset="1" />
    </linearGradient>
    <linearGradient gradientTransform="matrix(1.1197435,0,0,1.1197435,381.69059,496.71205)" gradientUnits="userSpaceOnUse" y2="21.824" x2="18.225" y1="24.225" x1="20.626" id="C" xlink:href="#D" />
    <linearGradient id="D">
      <stop id="stop35" stop-color="#6d9990" />
      <stop id="stop37" stop-color="#6dcec5" offset="1" />
    </linearGradient>
  </defs>
  <g id="g68" transform="translate(-384.57143,-499.798)">
    <circle r="21.67" cy="523.8" cx="408.6" id="path899" style="fill:#dedfe4;fill-opacity:0.9949;stroke-width:0.2" />
    <g transform="translate(0.1985,0.9344)" id="g912">
      <path d="M 398.4,529.5 C 398.5,529.5 398.7,529.5 398.9,529.6 399.5,529.7 399.7,529.8 400.2,530.4 400.6,530.8 400.8,531 401.2,531.7 401.8,532.6 402,533 402.2,533.6 402.3,533.8 402.5,534.2 402.6,534.5 402.8,534.9 403,535.4 403.1,535.6 403.2,535.9 403.4,536.3 403.5,536.6 403.6,536.8 403.8,537.3 404,537.7 404.1,538.1 404.3,538.6 404.4,538.7 404.5,539 404.6,539.1 404.6,539.1 404.7,539.1 405.3,538.9 405.7,538.8 405.9,538.7 406.7,538.4 407.3,538 407.5,537.9 407.8,537.7 408,537.5 408.5,537.1 409.8,536 409.9,535.8 410,535.7 410.3,535.4 410.6,535.1 410.9,534.7 411.4,534.2 411.7,533.9 412,533.5 412.3,533.1 412.5,532.9 412.7,532.7 413,532.3 413.2,532 413.8,531.4 415.1,530.1 415.6,529.8 416.5,529.1 417.1,528.8 417.8,528.6 418.4,528.5 418.8,528.6 419.5,528.8 420,529 420.1,529 420.5,529.3 420.7,529.4 420.9,529.5 420.9,529.6 421.3,529.8 422.2,530.6 422.9,531.2 424.3,532.6 425.7,533.8 425.8,533.7 425.9,533.7 425.7,533.3 425.2,532.3 425.1,531.9 424.9,531.4 424.8,531.2 424.7,530.9 424.5,530.4 424.3,530 424.1,529.6 423.9,529.1 423.8,528.8 423.7,528.5 423.5,528 423.4,527.6 423.2,527.2 423,526.6 422.8,526.3 422.7,526 422.5,525.4 422.3,525 422,524.1 421.2,521.9 420.1,518.5 418.9,515.1 418.4,513.6 417.7,511.9 417.2,510.4 416.1,508.3 415.5,507.4 415.2,506.8 414.4,506 414,505.8 413.7,505.6 413.3,505.6 412.9,505.7 412.6,505.8 412.5,505.9 412.4,506 412.3,506 412.2,506.1 412.1,506.2 411.9,506.4 411.7,506.7 411.5,507 411.3,507.4 411.3,507.8 411.2,508.2 410.7,510 410,511.8 409.3,513.5 408.6,515.3 407.8,517 406.8,518.7 406.4,519.6 405.9,520.4 405.4,521.2 404.9,522 404.3,522.8 403.8,523.6 403.2,524.4 402.6,525.1 402,525.8 401.4,526.6 400.7,527.3 400.1,527.9 399.5,528.5 398.9,529 398.4,529.5 Z" fill="#d5600f" id="path44" inkscape:connector-curvature="0" style="stroke-width:0.932" />
      <path d="M 398.4,529.5 C 398.9,529 399.5,528.5 400.1,527.9 400.7,527.3 401.4,526.6 402,525.8 402.6,525.1 403.2,524.4 403.8,523.6 404.3,522.8 404.9,522 405.4,521.2 405.9,520.4 406.4,519.6 406.8,518.7 407.8,517 408.6,515.3 409.3,513.5 410,511.8 410.7,510 411.2,508.2 411.3,507.8 411.3,507.4 411.5,507 411.2,507.4 410.8,508 410.4,508.7 410.1,509.1 409.8,509.6 409.7,509.9 409.5,510.1 409.3,510.4 409.2,510.5 409,511 408.1,512.2 407.4,513 406.8,513.8 405.7,514.8 405.3,515 405.2,515.1 405,515.2 404.9,515.2 404.7,515.4 404.4,515.5 403.8,515.7 403.4,515.8 402.6,516.2 402.3,516.4 401.7,516.9 400.3,518.3 399.8,519.1 399.7,519.2 399.6,519.4 399.5,519.5 399.4,519.6 399.3,519.7 399.3,519.7 399.2,519.8 399.1,519.9 398.8,520 398.6,520.1 398.3,520.2 398.1,520.3 397.9,520.4 397.3,520.6 396.8,520.8 396.3,521 395.7,521.2 395.5,521.3 395.3,521.5 394.9,521.6 394.7,521.7 394.2,521.9 393.1,522.3 393,522.4 392.9,522.4 392.2,522.7 391.5,523 390.8,523.2 390.1,523.5 389.9,523.6 389.7,523.7 389.4,523.9 389.1,524 388.4,524.2 388.4,524.3 389,524.6 389.2,524.7 389.8,525.2 390.5,525.7 390.6,525.8 390.8,526 391,526.1 391.1,526.2 391.4,526.4 391.7,526.5 391.9,526.7 392.1,526.9 392.2,526.9 392.4,527 393.1,527.5 393.7,528 393.8,528.1 394.1,528.2 394.2,528.4 394.5,528.5 395,528.9 395.6,529.4 396.1,529.7 396.5,530 396.6,530 396.7,530 397.3,529.8 397.5,529.7 397.6,529.6 398,529.5 398.2,529.5 398.3,529.5 398.3,529.5 398.4,529.5 Z" fill="#6dd6cd" id="path46" inkscape:connector-curvature="0" style="stroke-width:0.932" />
      <path d="M 407.9,517.8 C 406.3,518.6 402.8,520.1 400.5,520.4 400.4,520.5 400.4,520.5 400.2,520.6 400.2,520.6 400.2,520.6 400.1,520.6 402.4,521.3 403.8,522.2 404.6,523.2 405,522.6 405.4,522.1 405.8,521.5 406.2,520.9 406.6,520.2 407,519.5 407.3,519 407.6,518.4 407.9,517.8 Z" fill="url(#A)" id="path50" style="fill:#0e232e;fill-opacity:0.1713;stroke-width:0.7795" inkscape:connector-curvature="0" />
      <path d="M 410.4,510.8 C 409,512.3 404.1,520.1 401.4,520.1 398.2,520 389.6,524.2 389.6,524.2 389.6,524.2 390.4,525.2 391.4,526.4 391.5,526.4 391.6,526.5 391.7,526.5 391.9,526.7 392.1,526.9 392.2,526.9 392.4,527 393.1,527.5 393.7,528 393.8,528.1 394.1,528.2 394.2,528.4 394.5,528.5 395,528.9 395.6,529.4 396.1,529.7 396.5,530 396.6,530 396.7,530 397.3,529.8 397.5,529.7 397.6,529.6 398,529.5 398.2,529.5 398.3,529.5 398.3,529.5 398.4,529.5 398.9,529 399.5,528.5 400.1,527.9 400.7,527.3 401.4,526.6 402,525.8 402.6,525.1 403.2,524.4 403.8,523.6 404.3,522.8 404.9,522 405.4,521.2 405.9,520.4 406.4,519.6 406.8,518.7 407.8,517 408.6,515.3 409.3,513.5 409.7,512.6 410,511.7 410.4,510.8 Z" fill="url(#C)" id="path48" style="fill:#364e59;fill-opacity:0.2894;stroke-width:0.932" inkscape:connector-curvature="0" />
      <path d="M 413.2,508.1 C 413.2,516.2 411.6,523.2 407.8,529.4 406,530.9 406,530.1 406.4,531.8 406.8,533.5 415.7,526.2 416.2,526.2 416.6,526.1 417.7,526.8 418.2,525.6 418.8,517.6 416.3,512 413.2,508.1 Z" fill="url(#0)" id="path66" style="fill:#ffffff;fill-opacity:0.1823;stroke-width:0.932" inkscape:connector-curvature="0" />
      <path d="M 413.5,505.7 C 413.3,505.7 413.1,505.7 412.9,505.7 412.6,505.8 412.5,505.9 412.4,506 412.3,506 412.2,506.1 412.1,506.2 411.9,506.4 411.7,506.7 411.5,507 411.3,507.4 411.3,507.8 411.2,508.2 410.7,510 410,511.8 409.3,513.5 408.6,515.3 407.8,517 406.8,518.7 406.4,519.6 405.9,520.4 405.4,521.2 404.9,522 404.3,522.8 403.8,523.6 403.2,524.4 402.6,525.1 402,525.8 401.4,526.6 400.7,527.3 400.1,527.9 399.5,528.5 398.9,529 398.4,529.5 398.5,529.5 398.7,529.5 398.9,529.6 399.5,529.7 399.7,529.8 400.2,530.4 400.6,530.8 400.8,531 401.2,531.7 401.8,532.6 402,533 402.2,533.6 402.3,533.8 402.5,534.2 402.6,534.5 402.7,534.6 402.7,534.7 402.8,534.9 410.9,529 412.4,516.7 414.1,508.7 413.8,508.3 413.7,507.7 413.5,507.4 413.1,506.8 414.4,506 414,505.8 413.9,505.7 413.7,505.7 413.5,505.7 Z" fill="url(#9)" id="path52" style="fill:#8e3900;stroke-width:0.932" inkscape:connector-curvature="0" />
      <path d="M 413.3,505.7 C 413.1,505.7 413,505.7 412.9,505.7 412.6,505.8 412.5,505.9 412.4,506 412.3,506 412.2,506.1 412.1,506.2 411.9,506.4 411.7,506.7 411.5,507 411.3,507.4 411.3,507.8 411.2,508.2 410.7,510 410,511.8 409.3,513.5 408.6,515.3 407.8,517 406.8,518.7 406.4,519.6 405.9,520.4 405.4,521.2 404.9,522 404.3,522.8 403.8,523.6 403.2,524.4 402.6,525.1 402,525.8 401.4,526.6 400.7,527.3 400.1,527.9 399.5,528.5 398.9,529 398.4,529.5 398.5,529.5 398.7,529.5 398.9,529.6 399.3,529.7 399.5,529.8 399.8,530 399.9,529.8 400,529.7 400.2,529.6 400.9,528.8 401.6,528 402.3,527.2 403,526.4 403.7,525.5 404.3,524.7 405,523.8 405.6,522.9 406.2,522 406.7,521.1 407.3,520.2 407.8,519.2 408.8,517.3 409.8,515.4 410.6,513.4 411.4,511.4 412.1,509.3 412.7,507.3 412.8,506.9 412.9,506.5 413,506 413.1,505.9 413.2,505.8 413.3,505.7 Z M 422.2,530.6 C 422.4,530.8 422.6,531 422.9,531.2 424.3,532.6 425.7,533.8 425.8,533.7 425.8,533.7 425.7,533.4 425.6,533 424.9,532.3 424,531.6 423.7,531.4 423.6,531.4 423.4,531.2 423.2,531.1 422.8,530.8 422.6,530.7 422.2,530.6 Z" fill-opacity=".235" id="path54" inkscape:connector-curvature="0" style="stroke-width:0.932;fill:#7d3200;fill-opacity:0.278" />
      <path d="M 406.7,533.8 C 405.5,533.7 404.1,533.9 402.5,534.3 402.6,534.4 402.6,534.5 402.6,534.5 402.8,534.9 403,535.4 403.1,535.6 403.2,535.9 403.4,536.3 403.5,536.6 403.6,536.8 403.8,537.3 404,537.7 404.1,538.1 404.3,538.6 404.4,538.7 404.5,539 404.6,539.1 404.6,539.1 404.7,539.1 405.3,538.9 405.7,538.8 405.9,538.7 406.7,538.4 407.3,538 407.5,537.9 407.8,537.7 408,537.5 408.5,537.1 409.8,536 409.9,535.8 410,535.7 410.3,535.4 410.6,535.1 410.6,535 410.7,535 410.7,535 409.7,534.3 408.4,533.8 406.7,533.8 Z" fill="url(#8)" id="path56" style="fill:#ffffff;fill-opacity:0.1571;stroke-width:0.932" inkscape:connector-curvature="0" />
      <path d="M 413.5,505.7 C 413.3,505.7 413.1,505.7 412.9,505.7 412.6,505.8 412.5,505.9 412.4,506 412.3,506 412.2,506.1 412.1,506.2 411.9,506.4 411.7,506.7 411.5,507 411.3,507.4 411.3,507.8 411.2,508.2 410.7,510 410,511.8 409.3,513.5 408.6,515.3 407.8,517 406.8,518.7 406.4,519.6 405.9,520.4 405.4,521.2 404.9,522 404.3,522.8 403.8,523.6 403.2,524.4 402.6,525.1 402,525.8 401.9,526 401.8,526.1 401.7,526.2 410.9,522.9 417.5,522.9 422.1,524.4 421.7,523.4 421.1,521.6 420.1,518.5 418.9,515.1 418.4,513.6 417.7,511.9 417.2,510.4 416.1,508.3 415.5,507.4 415.2,506.8 414.4,506 414,505.8 413.9,505.7 413.7,505.7 413.5,505.7 Z" fill="url(#6)" id="path58" style="fill:url(#6);stroke-width:0.932" inkscape:connector-curvature="0" />
      <path d="M 413.5,505.7 C 413.3,505.7 413.1,505.7 412.9,505.7 412.6,505.8 412.5,505.9 412.4,506 412.3,506 412.2,506.1 412.1,506.2 411.9,506.4 411.7,506.7 411.5,507 411.3,507.4 411.3,507.8 411.2,508.2 410.7,510 410,511.8 409.3,513.5 408.6,515.3 407.8,517 406.8,518.7 406.4,519.6 405.9,520.4 405.4,521.2 405.2,521.4 405.1,521.6 405,521.8 421.1,511.6 417.2,526.9 422.4,525.1 422.4,525.1 422.3,525 422.3,525 422,524.1 421.2,521.9 420.1,518.5 418.9,515.1 418.4,513.6 417.7,511.9 417.2,510.4 416.1,508.3 415.5,507.4 415.2,506.8 414.4,506 414,505.8 413.9,505.7 413.7,505.7 413.5,505.7 Z" fill="url(#4)" id="path60" style="fill:#7d3200;stroke-width:0.932;fill-opacity:0.278" inkscape:connector-curvature="0" />
      <path d="M 413.5,505.7 C 413.3,505.7 413.1,505.7 412.9,505.7 412.6,505.8 412.5,505.9 412.4,506 418.8,514.7 419.7,522.7 419,528.7 419.1,528.7 419.3,528.7 419.5,528.8 420,529 420.1,529 420.5,529.3 420.7,529.4 420.9,529.5 420.9,529.6 421.3,529.8 422.2,530.6 422.9,531.2 424.3,532.6 425.7,533.8 425.8,533.7 425.9,533.7 425.7,533.3 425.2,532.3 425.1,531.9 424.9,531.4 424.8,531.2 424.7,530.9 424.5,530.4 424.3,530 424.1,529.6 423.9,529.1 423.8,528.8 423.7,528.5 423.5,528 423.4,527.6 423.2,527.2 423,526.6 422.8,526.3 422.7,526 422.5,525.4 422.3,525 422,524.1 421.2,521.9 420.1,518.5 418.9,515.1 418.4,513.6 417.7,511.9 417.2,510.4 416.1,508.3 415.5,507.4 415.2,506.8 414.4,506 414,505.8 413.9,505.7 413.7,505.7 413.5,505.7 Z" fill="url(#2)" id="path62" style="fill:#b44800;stroke-width:0.932" inkscape:connector-curvature="0" />
    </g>
  </g>
</svg>
