<?xml version="1.0" encoding="UTF-8" standalone="no"?>
<svg xmlns:dc="http://purl.org/dc/elements/1.1/" xmlns:cc="http://creativecommons.org/ns#" xmlns:rdf="http://www.w3.org/1999/02/22-rdf-syntax-ns#" xmlns:svg="http://www.w3.org/2000/svg" xmlns="http://www.w3.org/2000/svg" xmlns:sodipodi="http://sodipodi.sourceforge.net/DTD/sodipodi-0.dtd" xmlns:inkscape="http://www.inkscape.org/namespaces/inkscape" inkscape:version="1.0beta2 (2b71d25d45, 2019-12-03)" sodipodi:docname="mednaffe.svg" id="svg16" version="1.1" height="64" width="64">
  <metadata id="metadata22">
    <rdf:RDF>
      <cc:Work rdf:about="">
        <dc:format>image/svg+xml</dc:format>
        <dc:type rdf:resource="http://purl.org/dc/dcmitype/StillImage" />
      </cc:Work>
    </rdf:RDF>
  </metadata>
  <defs id="defs20" />
  <sodipodi:namedview inkscape:current-layer="svg16" inkscape:cy="32" inkscape:cx="32" inkscape:zoom="12.08" showgrid="false" id="namedview18" inkscape:window-height="480" inkscape:window-width="640" inkscape:pageshadow="2" inkscape:pageopacity="0" guidetolerance="10" gridtolerance="10" objecttolerance="10" borderopacity="1" inkscape:document-rotation="0" bordercolor="#666666" pagecolor="#ffffff" />
  <circle id="circle2" r="26.5" cy="33.5" cx="32.5" style="opacity:0.2" />
  <circle id="circle4" r="29.73" cy="32" cx="32" style="fill:#668bd0;stroke-width:1.1218" />
  <path id="path857" d="M 17.35 8.633 A 2.208 2.208 0 0 0 15.25 10.28 L 9.705 31.45 A 2.208 2.208 0 0 0 11.28 34.15 A 2.208 2.208 0 0 0 13.98 32.57 L 16.96 21.2 L 18.91 32.39 A 2.208 2.208 0 0 0 22.95 33.2 L 30.63 21.24 L 28.81 31.63 A 2.208 2.208 0 0 0 30.61 34.19 A 2.208 2.208 0 0 0 33.16 32.39 L 36.87 11.22 A 2.208 2.208 0 0 0 32.83 9.646 L 22.29 26.05 L 19.56 10.46 A 2.208 2.208 0 0 0 17.35 8.633 z " style="color:#000000;fill:#3f3f3f;stroke-width:4.416;stroke-linecap:round;stroke-linejoin:round" />
  <path id="path853" d="M 28.14 36.66 A 2.208 2.208 0 0 0 25.97 38.45 L 24.47 46.21 A 2.208 2.208 0 0 0 24.39 46.58 A 2.208 2.208 0 0 0 24.39 46.59 L 22.89 54.31 A 2.208 2.208 0 0 0 24.64 56.9 A 2.208 2.208 0 0 0 27.23 55.15 L 28.42 49.02 L 32.47 49.02 A 2.208 2.208 0 0 0 34.68 46.81 A 2.208 2.208 0 0 0 32.47 44.6 L 29.28 44.6 L 29.96 41.08 L 33.7 41.08 A 2.208 2.208 0 0 0 35.91 38.87 A 2.208 2.208 0 0 0 33.7 36.66 L 28.14 36.66 z " style="color:#000000;fill:#3f3f3f;stroke-width:4.416;stroke-linecap:round;stroke-linejoin:round" />
  <path id="path849" d="M 41.74 36.66 A 2.208 2.208 0 0 0 39.57 38.45 L 38.06 46.22 A 2.208 2.208 0 0 0 37.99 46.57 A 2.208 2.208 0 0 0 37.99 46.59 L 36.49 54.31 A 2.208 2.208 0 0 0 38.66 56.94 L 45.44 56.94 A 2.208 2.208 0 0 0 47.65 54.73 A 2.208 2.208 0 0 0 45.44 52.52 L 41.34 52.52 L 42.02 49.02 L 46.06 49.02 A 2.208 2.208 0 0 0 48.27 46.81 A 2.208 2.208 0 0 0 46.06 44.6 L 42.88 44.6 L 43.56 41.08 L 47.3 41.08 A 2.208 2.208 0 0 0 49.51 38.87 A 2.208 2.208 0 0 0 47.3 36.66 L 41.74 36.66 z " style="color:#000000;fill:#3f3f3f;stroke-width:4.416;stroke-linecap:round;stroke-linejoin:round" />
</svg>
