<?xml version="1.0" encoding="UTF-8" standalone="no"?>
<svg xmlns:dc="http://purl.org/dc/elements/1.1/" xmlns:cc="http://creativecommons.org/ns#" xmlns:rdf="http://www.w3.org/1999/02/22-rdf-syntax-ns#" xmlns:svg="http://www.w3.org/2000/svg" xmlns="http://www.w3.org/2000/svg" xmlns:sodipodi="http://sodipodi.sourceforge.net/DTD/sodipodi-0.dtd" xmlns:inkscape="http://www.inkscape.org/namespaces/inkscape" inkscape:version="1.0beta2 (2b71d25d45, 2019-12-03)" sodipodi:docname="morpheus.svg" id="svg26" version="1" height="64" width="64">
  <metadata id="metadata32">
    <rdf:RDF>
      <cc:Work rdf:about="">
        <dc:format>image/svg+xml</dc:format>
        <dc:type rdf:resource="http://purl.org/dc/dcmitype/StillImage" />
      </cc:Work>
    </rdf:RDF>
  </metadata>
  <defs id="defs30">
    <clipPath id="clipPath868" clipPathUnits="userSpaceOnUse">
      <path inkscape:connector-curvature="0" id="path870" d="M 18,37 4,40.36 V 57.2 C 4,58.75 5.249,60 6.8,60 H 23.62 28 L 29,46 Z" style="fill:#e4e4e4" />
    </clipPath>
  </defs>
  <sodipodi:namedview inkscape:current-layer="g866" inkscape:cy="35.39" inkscape:cx="32" inkscape:zoom="14.48" showgrid="false" id="namedview28" inkscape:window-height="480" inkscape:window-width="640" inkscape:pageshadow="2" inkscape:pageopacity="0" guidetolerance="10" gridtolerance="10" objecttolerance="10" borderopacity="1" inkscape:document-rotation="0" bordercolor="#666666" pagecolor="#ffffff" />
  <g clip-path="url(#clipPath868)" inkscape:groupmode="maskhelper" id="g866">
    <rect style="fill:#e4e4e4" width="55" height="55" x="4.5" y="4.5" rx="27.5" ry="27.5" id="rect2" />
    <path style="fill:#f73a3a" d="M 6.8,4 C 5.2488,4 4,5.2488 4,6.8 V 40.364452 L 18,37 21,20 12.569532,4 Z" id="path6" />
    <path style="fill:#fece00" d="M 21,20 18,37 29,46 49,39 45,20 Z" id="path8" />
    <path style="fill:#e4e4e4" d="M 12.569532,4 21,20 H 45 L 57.325782,4.0136718 C 57.283148,4.0117622 57.24312,4 57.2,4 Z" id="path10" />
    <path style="fill:#357cca" d="M 49,39 29,46 28,60 H 35.910156 57.2 C 58.7512,60 60,58.7512 60,57.2 V 52.671874 C 59.97124,52.522254 59.93084,52.364194 59.92618,52.23164 59.92788,52.08102 59.9741,51.927658 60,51.775 v -7.93789 z" id="path12" />
    <path style="fill:#cccccc" d="M 57.325782,4.0136718 45,20 49,39 60,43.83711 V 6.8 C 60,5.2919202 58.816806,4.0804592 57.325782,4.0136718 Z" id="path14" />
    <path style="opacity:0.2" d="M 18.154297 37.126953 L 18 38 L 29 47 L 49 40 L 48.804688 39.068359 L 29 46 L 18.154297 37.126953 z" id="path18" />
    <path style="opacity:0.1" d="M 12.570312 5 L 21 21 L 45 21 L 57.326172 5.0136719 C 57.283538 5.0117623 57.242339 5 57.199219 5 L 56.566406 5 L 45 20 L 21 20 L 13.097656 5 L 12.570312 5 z" id="path20" />
    <path style="opacity:0.2" d="M 45.166016 20.785156 L 45 21 L 49 40 L 60 44.837891 L 60 43.837891 L 49 39 L 45.166016 20.785156 z" id="path22" />
  </g>
</svg>
