<?xml version="1.0" encoding="UTF-8" standalone="no"?>
<svg xmlns:dc="http://purl.org/dc/elements/1.1/" xmlns:cc="http://creativecommons.org/ns#" xmlns:rdf="http://www.w3.org/1999/02/22-rdf-syntax-ns#" xmlns:svg="http://www.w3.org/2000/svg" xmlns="http://www.w3.org/2000/svg" xmlns:sodipodi="http://sodipodi.sourceforge.net/DTD/sodipodi-0.dtd" xmlns:inkscape="http://www.inkscape.org/namespaces/inkscape" inkscape:version="1.0beta2 (2b71d25d45, 2019-12-03)" sodipodi:docname="network-workgroup.svg" id="svg71" viewBox="0 0 16.933 16.933" version="1.1" height="64" width="64">
  <sodipodi:namedview inkscape:current-layer="g6" inkscape:cy="32" inkscape:cx="32" inkscape:zoom="6.983" showgrid="false" id="namedview73" inkscape:window-height="480" inkscape:window-width="640" inkscape:pageshadow="2" inkscape:pageopacity="0" guidetolerance="10" gridtolerance="10" objecttolerance="10" borderopacity="1" inkscape:document-rotation="0" bordercolor="#666666" pagecolor="#ffffff" />
  <metadata id="metadata2">
    <rdf:RDF>
      <cc:Work rdf:about="">
        <dc:format>image/svg+xml</dc:format>
        <dc:type rdf:resource="http://purl.org/dc/dcmitype/StillImage" />
        <dc:title />
      </cc:Work>
    </rdf:RDF>
  </metadata>
  <defs id="defs21">
    <filter color-interpolation-filters="sRGB" height="2.62" width="2.62" y="-.81" x="-.81" id="b">
      <feGaussianBlur id="feGaussianBlur4" stdDeviation="2.7" />
    </filter>
    <filter color-interpolation-filters="sRGB" height="2.62" width="2.62" y="-.81" x="-.81" id="c">
      <feGaussianBlur id="feGaussianBlur7" stdDeviation="2.7" />
    </filter>
    <filter color-interpolation-filters="sRGB" height="2.62" width="2.62" y="-.81" x="-.81" id="d">
      <feGaussianBlur id="feGaussianBlur10" stdDeviation="2.7" />
    </filter>
    <filter color-interpolation-filters="sRGB" height="2.62" width="2.62" y="-.81" x="-.81" id="e">
      <feGaussianBlur id="feGaussianBlur13" stdDeviation="2.7" />
    </filter>
    <linearGradient gradientUnits="userSpaceOnUse" gradientTransform="matrix(.53033 0 0 .53033 11.509 71.997)" y2="-100.78" y1="-137.82" x2="-6.1472" x1="-6.1472" id="linearGradient11422">
      <stop id="stop16" offset="0" stop-color="#32b4ff" />
      <stop id="stop18" offset="1" stop-color="#3287ff" />
    </linearGradient>
  </defs>
  <g id="g69" stroke-width=".26458" fill="#5e4aa6">
    <circle id="circle55" r="0" cy="-343.65" cx="-305.05" />
    <circle id="circle57" fill-rule="evenodd" r="0" cy="-8.8272" cx="-14.133" />
    <g id="g67" transform="translate(25.301 -15.267)">
      <circle id="circle59" r="0" cy="-329.95" cx="-306.7" />
      <circle id="circle61" fill-rule="evenodd" r="0" cy="4.8765" cx="-15.783" />
      <circle id="circle63" r="0" cy="-348.86" cx="-285.93" />
      <circle id="circle65" fill-rule="evenodd" r="0" cy="-14.033" cx="4.9855" />
    </g>
  </g>
  <g transform="matrix(0.1184,0,0,0.1184,0.5905,-18.78)" id="g6">
    <circle cx="66.52" cy="230.1" fill="#7ab3ad" r="63.5" id="circle2" style="fill:#7a91b3" />
    <path inkscape:connector-curvature="0" d="M 320,50.27 V 112 C 320,132 320,132 300,132 H 249.3 C 240,132 240,132 240,140.6 V 172 C 240,192 240,192 220,192 H 180.6 C 160,192 160,192 160,212 160,232 160,232 180,232 H 360 C 380,232 380,232 380,252 V 292 C 380,312 380,312 400,312 H 464.7 A 220,220 0 0 0 471.4,259.1 220,220 0 0 0 320,50.27 Z M 46.84,178.8 A 220,220 0 0 0 31.43,259.1 220,220 0 0 0 251.4,479.1 220,220 0 0 0 293.2,475 L 260,392 C 240,412 160,352 180,312 Z" fill="#fff" transform="matrix(0.2646,0,0,0.2646,0,161.5)" id="path4" />
  </g>
</svg>
