<?xml version="1.0" encoding="UTF-8" standalone="no"?>
<svg xmlns:dc="http://purl.org/dc/elements/1.1/" xmlns:cc="http://creativecommons.org/ns#" xmlns:rdf="http://www.w3.org/1999/02/22-rdf-syntax-ns#" xmlns:svg="http://www.w3.org/2000/svg" xmlns="http://www.w3.org/2000/svg" xmlns:sodipodi="http://sodipodi.sourceforge.net/DTD/sodipodi-0.dtd" xmlns:inkscape="http://www.inkscape.org/namespaces/inkscape" inkscape:version="1.0beta2 (2b71d25d45, 2019-12-03)" sodipodi:docname="openbve.svg" id="svg18" version="1" height="64" width="64">
  <metadata id="metadata24">
    <rdf:RDF>
      <cc:Work rdf:about="">
        <dc:format>image/svg+xml</dc:format>
        <dc:type rdf:resource="http://purl.org/dc/dcmitype/StillImage" />
      </cc:Work>
    </rdf:RDF>
  </metadata>
  <defs id="defs22" />
  <sodipodi:namedview inkscape:current-layer="svg18" inkscape:cy="32" inkscape:cx="32" inkscape:zoom="12.07" showgrid="false" id="namedview20" inkscape:window-height="480" inkscape:window-width="640" inkscape:pageshadow="2" inkscape:pageopacity="0" guidetolerance="10" gridtolerance="10" objecttolerance="10" borderopacity="1" inkscape:document-rotation="0" bordercolor="#666666" pagecolor="#ffffff" />
  <rect id="rect4" transform="matrix(0,-1,-1,0,0,0)" ry="29" rx="29" y="-61" x="-61" height="58" width="58" style="fill:#878787" />
  <path inkscape:connector-curvature="0" id="path6" d="M 17.15,10.99 V 38.68 A 16.22,16.22 0 0 0 33.37,54.9 16.22,16.22 0 0 0 49.59,38.68 16.22,16.22 0 0 0 33.37,22.44 16.22,16.22 0 0 0 22.87,26.3 V 10.99 Z M 33.37,28.17 A 10.5,10.5 0 0 1 43.87,38.68 10.5,10.5 0 0 1 33.37,49.17 10.5,10.5 0 0 1 22.87,38.68 10.5,10.5 0 0 1 33.37,28.17 Z M 39.1,35.81 A 2.864,2.864 0 0 0 36.23,38.68 2.864,2.864 0 0 0 39.1,41.54 2.864,2.864 0 0 0 41.96,38.68 2.864,2.864 0 0 0 39.1,35.81 Z" style="opacity:0.2;stroke-width:0.9546" />
  <path inkscape:connector-curvature="0" id="path8" d="M 33.37,21.48 A 16.22,16.22 0 0 0 17.15,37.72 16.22,16.22 0 0 0 33.37,53.94 16.22,16.22 0 0 0 49.59,37.72 16.22,16.22 0 0 0 33.37,21.48 Z M 33.37,27.22 A 10.5,10.5 0 0 1 43.87,37.72 10.5,10.5 0 0 1 33.37,48.21 10.5,10.5 0 0 1 22.87,37.72 10.5,10.5 0 0 1 33.37,27.22 Z" style="fill:#e4e4e4;stroke-width:0.9546" />
  <rect id="rect10" y="10.03" x="17.15" height="27.68" width="5.727" style="fill:#e4e4e4;stroke-width:0.9546" />
  <circle id="circle12" r="2.864" cy="37.72" cx="39.1" style="fill:#ed8f00;stroke-width:0.9546" />
  <path inkscape:connector-curvature="0" id="path16" d="M 17.15,10.03 V 10.99 H 22.87 V 10.03 Z M 33.37,21.48 A 16.22,16.22 0 0 0 22.87,25.34 V 26.3 A 16.22,16.22 0 0 1 33.37,22.44 16.22,16.22 0 0 1 49.57,38.27 16.22,16.22 0 0 0 49.59,37.72 16.22,16.22 0 0 0 33.37,21.48 Z M 39.1,34.85 A 2.864,2.864 0 0 0 36.23,37.72 2.864,2.864 0 0 0 36.28,38.18 2.864,2.864 0 0 1 39.1,35.81 2.864,2.864 0 0 1 41.92,38.21 2.864,2.864 0 0 0 41.96,37.72 2.864,2.864 0 0 0 39.1,34.85 Z M 43.85,38.11 A 10.5,10.5 0 0 1 33.37,48.21 10.5,10.5 0 0 1 22.89,38.27 10.5,10.5 0 0 0 22.87,38.68 10.5,10.5 0 0 0 33.37,49.17 10.5,10.5 0 0 0 43.87,38.68 10.5,10.5 0 0 0 43.85,38.11 Z" style="opacity:0.2;fill:#ffffff;stroke-width:0.9546" />
</svg>
