<?xml version="1.0" encoding="UTF-8" standalone="no"?>
<svg xmlns:dc="http://purl.org/dc/elements/1.1/" xmlns:cc="http://creativecommons.org/ns#" xmlns:rdf="http://www.w3.org/1999/02/22-rdf-syntax-ns#" xmlns:svg="http://www.w3.org/2000/svg" xmlns="http://www.w3.org/2000/svg" xmlns:sodipodi="http://sodipodi.sourceforge.net/DTD/sodipodi-0.dtd" xmlns:inkscape="http://www.inkscape.org/namespaces/inkscape" inkscape:version="1.0beta2 (2b71d25d45, 2019-12-03)" sodipodi:docname="packet-tracer.svg" id="svg24" version="1" height="64" width="64">
  <metadata id="metadata30">
    <rdf:RDF>
      <cc:Work rdf:about="">
        <dc:format>image/svg+xml</dc:format>
        <dc:type rdf:resource="http://purl.org/dc/dcmitype/StillImage" />
      </cc:Work>
    </rdf:RDF>
  </metadata>
  <defs id="defs28" />
  <sodipodi:namedview inkscape:current-layer="svg24" inkscape:cy="32" inkscape:cx="32" inkscape:zoom="12.07" showgrid="false" id="namedview26" inkscape:window-height="480" inkscape:window-width="640" inkscape:pageshadow="2" inkscape:pageopacity="0" guidetolerance="10" gridtolerance="10" objecttolerance="10" borderopacity="1" inkscape:document-rotation="0" bordercolor="#666666" pagecolor="#ffffff" />
  <rect id="rect4" transform="matrix(0,-1,-1,0,0,0)" ry="29" rx="29" y="-61" x="-61" height="58" width="58" style="fill:#896200" />
  <rect id="rect6" y="41" x="3" height="1" width="58" style="opacity:0.2;fill:#ffffff" />
  <circle id="circle12" r="10.15" cy="32" cx="31.999" style="fill:#1ac52f" />
  <path id="path14" d="m 23,23 v 6 h 6 v -6 z m 6,6 v 6 h 6 v -6 z m 6,0 h 6 v -6 h -6 z m 0,6 v 6 h 6 v -6 z m -6,0 h -6 v 6 h 6 z" style="opacity:0.3" />
  <path id="path16" d="m 32,17.999439 a 15,15 0 0 0 -15,14.999999 15,15 0 0 0 15,15 15,15 0 0 0 8.226562,-2.472656 l 7.660156,7.601562 a 3.0003,3.0003 0 1 0 4.226564,-4.257812 L 44.484376,41.296314 A 15,15 0 0 0 47,32.999438 15,15 0 0 0 32,17.999439 Z m 0,5.999999 a 9.0000002,9.0000002 0 0 1 9,9 9.0000002,9.0000002 0 0 1 -9,9 9.0000002,9.0000002 0 0 1 -9,-9 9.0000002,9.0000002 0 0 1 9,-9 z" style="opacity:0.2" />
  <path d="M 32 3 C 19.08 3 8.187 11.37 4.418 23 L 59.58 23 C 55.81 11.37 44.92 3 32 3 z M 4.418 41 C 8.187 52.63 19.08 61 32 61 C 44.92 61 55.81 52.63 59.58 41 L 4.418 41 z " style="fill:#ffc83b" id="rect857" />
  <path id="path18" d="M 32,17 A 15,15 0 0 0 17,32 15,15 0 0 0 32,47 15,15 0 0 0 47,32 15,15 0 0 0 32,17 Z m 0,6 a 9.0000002,9.0000002 0 0 1 9,9 9.0000002,9.0000002 0 0 1 -9,9 9.0000002,9.0000002 0 0 1 -9,-9 9.0000002,9.0000002 0 0 1 9,-9 z" style="fill:#ffffff" />
  <path id="path20" d="M 41.1352,41.202 50,50" style="fill:none;stroke:#ffffff;stroke-width:6;stroke-linecap:round" />
  <path id="path22" d="M 5.8984375 3 C 4.2918373 3 3 4.2918373 3 5.8984375 L 3 6.8984375 C 3 5.2918373 4.2918373 4 5.8984375 4 L 58.101562 4 C 59.708163 4 61 5.2918373 61 6.8984375 L 61 5.8984375 C 61 4.2918373 59.708163 3 58.101562 3 L 5.8984375 3 z" style="opacity:0.2;fill:#ffffff" />
</svg>
