<?xml version="1.0" encoding="UTF-8" standalone="no"?>
<svg xmlns:dc="http://purl.org/dc/elements/1.1/" xmlns:cc="http://creativecommons.org/ns#" xmlns:rdf="http://www.w3.org/1999/02/22-rdf-syntax-ns#" xmlns:svg="http://www.w3.org/2000/svg" xmlns="http://www.w3.org/2000/svg" xmlns:sodipodi="http://sodipodi.sourceforge.net/DTD/sodipodi-0.dtd" xmlns:inkscape="http://www.inkscape.org/namespaces/inkscape" inkscape:version="1.0beta2 (2b71d25d45, 2019-12-03)" sodipodi:docname="clock_C.svg" id="svg18" version="1.1" width="48" height="48">
  <metadata id="metadata24">
    <rdf:RDF>
      <cc:Work rdf:about="">
        <dc:format>image/svg+xml</dc:format>
        <dc:type rdf:resource="http://purl.org/dc/dcmitype/StillImage" />
      </cc:Work>
    </rdf:RDF>
  </metadata>
  <defs id="defs22" />
  <sodipodi:namedview inkscape:current-layer="svg18" inkscape:cy="24" inkscape:cx="24" inkscape:zoom="16.09" showgrid="false" id="namedview20" inkscape:window-height="480" inkscape:window-width="640" inkscape:pageshadow="2" inkscape:pageopacity="0" guidetolerance="10" gridtolerance="10" objecttolerance="10" borderopacity="1" inkscape:document-rotation="0" bordercolor="#666666" pagecolor="#ffffff" />
  <path style="fill:#8e99b1" id="path2" transform="matrix(1.1503549 0 0 1.1503549 -4.486125 -7.525565)" opacity=".99" fill="#ac9d93" d="m44.322082 27.405077a19.729762 19.729765 0 0 1 -19.729762 19.729765 19.729762 19.729765 0 0 1 -19.7297621-19.729765 19.729762 19.729765 0 0 1 19.7297621-19.7297632 19.729762 19.729765 0 0 1 19.729762 19.7297632z" />
  <g id="g14" stroke="#fff" fill="none">
    <path id="path4" stroke-width="2.5" stroke-opacity=".423313" d="m24 3v6" />
    <path id="path6" stroke-width="2.5" stroke-opacity=".423313" d="m24 39v6" />
    <path id="path8" stroke-width="2.5" stroke-opacity=".423313" d="m39 24h6" />
    <path id="path10" stroke-width="2.5" stroke-opacity=".423313" d="m3 24h6" />
    <path id="path12" stroke-width="1.5" stroke-opacity=".509202" stroke-linecap="round" d="m28.5 12-4.5 12 7.5 6" />
  </g>
  <path id="path16" fill="#fff" d="m26.996573 24.143347a3 3 0 0 1 -3.134449 2.853483 3 3 0 0 1 -2.859201-3.129234 3 3 0 0 1 3.124009-2.864909 3 3 0 0 1 2.870608 3.118773" />
</svg>
