<?xml version="1.0" encoding="UTF-8" standalone="no"?>
<svg xmlns:dc="http://purl.org/dc/elements/1.1/" xmlns:cc="http://creativecommons.org/ns#" xmlns:rdf="http://www.w3.org/1999/02/22-rdf-syntax-ns#" xmlns:svg="http://www.w3.org/2000/svg" xmlns="http://www.w3.org/2000/svg" xmlns:sodipodi="http://sodipodi.sourceforge.net/DTD/sodipodi-0.dtd" xmlns:inkscape="http://www.inkscape.org/namespaces/inkscape" inkscape:version="1.0beta2 (2b71d25d45, 2019-12-03)" sodipodi:docname="preferences-plugin.svg" id="svg8" version="1.1" width="48" height="48">
  <metadata id="metadata14">
    <rdf:RDF>
      <cc:Work rdf:about="">
        <dc:format>image/svg+xml</dc:format>
        <dc:type rdf:resource="http://purl.org/dc/dcmitype/StillImage" />
        <dc:title />
      </cc:Work>
    </rdf:RDF>
  </metadata>
  <defs id="defs12" />
  <sodipodi:namedview inkscape:document-rotation="0" inkscape:current-layer="svg8" inkscape:window-maximized="1" inkscape:window-y="25" inkscape:window-x="0" inkscape:cy="25.11" inkscape:cx="23.34" inkscape:zoom="9.669" showgrid="true" id="namedview10" inkscape:window-height="717" inkscape:window-width="1360" inkscape:pageshadow="2" inkscape:pageopacity="0" guidetolerance="10" gridtolerance="10" objecttolerance="10" borderopacity="1" bordercolor="#666666" pagecolor="#ffffff">
    <inkscape:grid id="grid823" type="xygrid" />
  </sodipodi:namedview>
  <rect style="fill:#6f976f" id="rect2" y="7" x="-41.009861" width="34" transform="rotate(-90)" ry="1.717172" height="34" fill="#515357" />
  <rect style="fill:#5a6b59" id="rect4" y="16.948099" x="-17.006973" width="34" transform="matrix(.70710678 -.70710678 .70710678 .70710678 0 0)" ry="1.717172" height="34" fill="#6f7177" />
  <path id="rect821" d="M 18.5 18 C 15.453 18 13 20.453 13 23.5 C 13 26.547 15.453 29 18.5 29 L 29.5 29 C 32.547 29 35 26.547 35 23.5 C 35 20.453 32.547 18 29.5 18 L 18.5 18 z M 18.494141 19.064453 A 4.5 4.5 0 0 1 22.994141 23.564453 A 4.5 4.5 0 0 1 18.494141 28.064453 A 4.5 4.5 0 0 1 13.994141 23.564453 A 4.5 4.5 0 0 1 18.494141 19.064453 z " style="fill:#fcfcfc;stroke-width:1.3466;stroke-linejoin:round;stroke-dasharray:1.3466, 2.69329283999999980;paint-order:fill markers stroke" />
</svg>
