<?xml version="1.0" encoding="UTF-8" standalone="no"?>
<svg
   xmlns:dc="http://purl.org/dc/elements/1.1/"
   xmlns:cc="http://creativecommons.org/ns#"
   xmlns:rdf="http://www.w3.org/1999/02/22-rdf-syntax-ns#"
   xmlns:svg="http://www.w3.org/2000/svg"
   xmlns="http://www.w3.org/2000/svg"
   xmlns:xlink="http://www.w3.org/1999/xlink"
   xmlns:sodipodi="http://sodipodi.sourceforge.net/DTD/sodipodi-0.dtd"
   xmlns:inkscape="http://www.inkscape.org/namespaces/inkscape"
   width="64"
   height="64"
   version="1.1"
   viewBox="0 0 48 48"
   id="svg22"
   sodipodi:docname="preferences-system-windows-move.svg"
   inkscape:version="0.92.4 5da689c313, 2019-01-14">
  <metadata
     id="metadata28">
    <rdf:RDF>
      <cc:Work
         rdf:about="">
        <dc:format>image/svg+xml</dc:format>
        <dc:type
           rdf:resource="http://purl.org/dc/dcmitype/StillImage" />
        <dc:title />
      </cc:Work>
    </rdf:RDF>
  </metadata>
  <defs
     id="defs26">
    <linearGradient
       inkscape:collect="always"
       id="linearGradient944">
      <stop
         style="stop-color:#404040;stop-opacity:1"
         offset="0"
         id="stop940" />
      <stop
         style="stop-color:#222222;stop-opacity:1"
         offset="1"
         id="stop942" />
    </linearGradient>
    <linearGradient
       id="linearGradient938"
       inkscape:collect="always">
      <stop
         id="stop934"
         offset="0"
         style="stop-color:#ffffff;stop-opacity:1" />
      <stop
         id="stop936"
         offset="1"
         style="stop-color:#ffffff;stop-opacity:0" />
    </linearGradient>
    <linearGradient
       gradientTransform="matrix(0.11914894,0,0,0.11914894,1.123405,-382.87659)"
       inkscape:collect="always"
       xlink:href="#linearGradient938"
       id="linearGradient908-0"
       x1="188.07402"
       y1="362.47107"
       x2="188.51419"
       y2="265.19138"
       gradientUnits="userSpaceOnUse" />
    <linearGradient
       inkscape:collect="always"
       xlink:href="#linearGradient944"
       id="linearGradient946"
       x1="191.77992"
       y1="8.5582952"
       x2="186.66124"
       y2="388.41232"
       gradientUnits="userSpaceOnUse"
       gradientTransform="matrix(0.11914894,0,0,0.11914894,1.123404,337.1234)" />
  </defs>
  <sodipodi:namedview
     pagecolor="#ffffff"
     bordercolor="#666666"
     borderopacity="1"
     objecttolerance="10"
     gridtolerance="10"
     guidetolerance="10"
     inkscape:pageopacity="0"
     inkscape:pageshadow="2"
     inkscape:window-width="1366"
     inkscape:window-height="691"
     id="namedview24"
     showgrid="false"
     inkscape:zoom="8.09375"
     inkscape:cx="32"
     inkscape:cy="32"
     inkscape:window-x="0"
     inkscape:window-y="0"
     inkscape:window-maximized="1"
     inkscape:current-layer="g20" />
  <g
     id="g20"
     style="fill-rule:evenodd"
     transform="translate(0,-336)">
    <circle
       style="opacity:0.2;fill:#000000;fill-opacity:1;fill-rule:evenodd;stroke:none;stroke-width:0.11808083;stroke-miterlimit:4;stroke-dasharray:none;stroke-opacity:0.58823529;paint-order:stroke fill markers"
       id="path821-3"
       cx="24"
       cy="360.75"
       r="21" />
    <circle
       style="opacity:1;fill:url(#linearGradient946);fill-opacity:1;stroke:none;stroke-width:0.11808084;stroke-miterlimit:4;stroke-dasharray:none;stroke-opacity:0.58823529;paint-order:stroke fill markers"
       id="path821"
       cx="24"
       cy="360"
       r="21" />
    <path
       d="m 12.297375,353.71787 h 23.239669 c 0.939704,0 1.701629,0.50503 1.701629,1.12789 v 11.14848 c 0,0.62286 -0.761925,1.12789 -1.701629,1.12789 H 12.297375 c -0.939706,0 -1.701631,-0.50503 -1.701631,-1.12789 v -11.14848 c 0,-0.62286 0.761925,-1.12789 1.701631,-1.12789 z"
       id="path12-1-4"
       inkscape:connector-curvature="0"
       style="fill:#000000;fill-opacity:0.19607843;stroke-width:0.13572735" />
    <path
       d="m 12.302662,353.29787 h 23.311886 c 0.942624,0 1.706915,0.50503 1.706915,1.12789 v 11.14848 c 0,0.62286 -0.764291,1.12789 -1.706915,1.12789 H 12.302662 c -0.942624,0 -1.706917,-0.50503 -1.706917,-1.12789 v -11.14848 c 0,-0.62286 0.764293,-1.12789 1.706917,-1.12789 z"
       id="path12-1"
       inkscape:connector-curvature="0"
       style="fill:#969696;fill-opacity:1;stroke-width:0.13593806" />
    <path
       d="m 15.594481,351.60651 h 16.758605 c 0.677641,0 1.227079,0.71347 1.227079,1.59341 v 15.74997 c 0,0.87994 -0.549439,1.59341 -1.227079,1.59341 H 15.594481 c -0.67764,0 -1.22708,-0.71347 -1.22708,-1.59341 v -15.74997 c 0,-0.87994 0.54944,-1.59341 1.22708,-1.59341 z"
       id="path12-9"
       inkscape:connector-curvature="0"
       style="fill:#000000;fill-opacity:0.19607843;stroke-width:0.13699453" />
    <path
       d="m 15.620697,350.5592 h 16.758606 c 0.67764,0 1.22708,0.71347 1.22708,1.59342 v 15.74996 c 0,0.87994 -0.54944,1.59342 -1.22708,1.59342 H 15.620697 c -0.67764,0 -1.22708,-0.71348 -1.22708,-1.59342 v -15.74996 c 0,-0.87995 0.54944,-1.59342 1.22708,-1.59342 z"
       id="path12"
       inkscape:connector-curvature="0"
       style="fill:#ffffff;stroke-width:0.13699453" />
    <circle
       style="opacity:0.4;fill:none;fill-opacity:1;stroke:url(#linearGradient908-0);stroke-width:0.87499994;stroke-miterlimit:4;stroke-dasharray:none;stroke-opacity:1;paint-order:stroke fill markers"
       id="path821-3-5"
       cx="24"
       cy="-360"
       r="20.5625"
       transform="scale(1,-1)" />
  </g>
</svg>
