<?xml version="1.0" encoding="UTF-8" standalone="no"?>
<svg xmlns:dc="http://purl.org/dc/elements/1.1/" xmlns:cc="http://creativecommons.org/ns#" xmlns:rdf="http://www.w3.org/1999/02/22-rdf-syntax-ns#" xmlns:svg="http://www.w3.org/2000/svg" xmlns="http://www.w3.org/2000/svg" xmlns:sodipodi="http://sodipodi.sourceforge.net/DTD/sodipodi-0.dtd" xmlns:inkscape="http://www.inkscape.org/namespaces/inkscape" inkscape:version="1.0beta2 (2b71d25d45, 2019-12-03)" sodipodi:docname="qnapi.svg" id="svg14" version="1" height="64" width="64">
  <metadata id="metadata20">
    <rdf:RDF>
      <cc:Work rdf:about="">
        <dc:format>image/svg+xml</dc:format>
        <dc:type rdf:resource="http://purl.org/dc/dcmitype/StillImage" />
      </cc:Work>
    </rdf:RDF>
  </metadata>
  <defs id="defs18" />
  <sodipodi:namedview inkscape:current-layer="svg14" inkscape:cy="32" inkscape:cx="36.68" inkscape:zoom="12.08" showgrid="false" id="namedview16" inkscape:window-height="480" inkscape:window-width="640" inkscape:pageshadow="2" inkscape:pageopacity="0" guidetolerance="10" gridtolerance="10" objecttolerance="10" borderopacity="1" inkscape:document-rotation="0" bordercolor="#666666" pagecolor="#ffffff" />
  <rect id="rect4" ry="29.2" rx="29.2" y="2.8" x="2.8" height="58.4" width="58.4" style="fill:#ff811f;stroke-width:1.0429" />
  <path id="path6" d="m 32,13.000032 a 20,20 0 0 0 -20,20 20,20 0 0 0 20,20 20,20 0 0 0 10.261718,-2.859376 c 1.409038,1.489018 2.68169,3.112896 3.707032,4.777344 l 4.863282,-2.996092 C 49.656534,50.01371 48.24679,48.206686 46.699218,46.531282 A 20,20 0 0 0 52,33.000032 a 20,20 0 0 0 -20,-20 z m 0,7.140624 a 11.428572,12.857143 0 0 1 11.429688,12.859376 11.428572,12.857143 0 0 1 -2.714844,8.3125 c -3.94026,-2.69346 -8.304802,-4.468944 -12.675782,-4.128906 l 0.445314,5.699218 c 2.027986,-0.15778 4.700824,0.648452 7.410156,2.191406 A 11.428572,12.857143 0 0 1 32,45.8555 11.428572,12.857143 0 0 1 20.570312,33.000032 11.428572,12.857143 0 0 1 32,20.140656 Z" style="opacity:0.1" />
  <path id="path8" d="m 32,11.999426 a 20,20 0 0 0 -20.000001,20.000002 20,20 0 0 0 20.000001,20 20,20 0 0 0 20,-20 20,20 0 0 0 -20,-20.000002 z m 0,7.142857 A 11.428572,12.857143 0 0 1 43.428572,31.999428 11.428572,12.857143 0 0 1 32,44.856572 11.428572,12.857143 0 0 1 20.571428,31.999428 11.428572,12.857143 0 0 1 32,19.142283 Z" style="fill:#5a3608" />
  <path id="path10" d="m 28.262,39.034 c 6.83143,-0.531448 15.504432,5.864494 20.137528,13.38545" style="fill:none;stroke:#5a3608;stroke-width:5.7143" />
</svg>
