<?xml version="1.0" encoding="UTF-8" standalone="no"?>
<svg xmlns:dc="http://purl.org/dc/elements/1.1/" xmlns:cc="http://creativecommons.org/ns#" xmlns:rdf="http://www.w3.org/1999/02/22-rdf-syntax-ns#" xmlns:svg="http://www.w3.org/2000/svg" xmlns="http://www.w3.org/2000/svg" xmlns:sodipodi="http://sodipodi.sourceforge.net/DTD/sodipodi-0.dtd" xmlns:inkscape="http://www.inkscape.org/namespaces/inkscape" inkscape:version="1.0beta2 (2b71d25d45, 2019-12-03)" sodipodi:docname="radeon-profile.svg" id="svg18" version="1" height="64" width="64">
  <metadata id="metadata24">
    <rdf:RDF>
      <cc:Work rdf:about="">
        <dc:format>image/svg+xml</dc:format>
        <dc:type rdf:resource="http://purl.org/dc/dcmitype/StillImage" />
      </cc:Work>
    </rdf:RDF>
  </metadata>
  <defs id="defs22" />
  <sodipodi:namedview inkscape:current-layer="svg18" inkscape:cy="32" inkscape:cx="32" inkscape:zoom="12.07" showgrid="false" id="namedview20" inkscape:window-height="480" inkscape:window-width="640" inkscape:pageshadow="2" inkscape:pageopacity="0" guidetolerance="10" gridtolerance="10" objecttolerance="10" borderopacity="1" inkscape:document-rotation="0" bordercolor="#666666" pagecolor="#ffffff" />
  <rect id="rect2" ry="27.7" rx="28" y="4" x="4" height="56" width="56" style="fill:#c2352a" />
  <path id="path4" d="M 14.1876,15.1254 24,25 l 16,0 0,15.9376 10,9.9376 0,-35.75 z M 24,27.312 14,37.062 14,51 28.75,51 38.624,41 24,41 Z" style="opacity:0.2" />
  <path id="path6" d="M 7 4 C 5.338 4 4 5.338 4 7 L 4 8 C 4 6.338 5.338 5 7 5 L 57 5 C 58.662 5 60 6.338 60 8 L 60 7 C 60 5.338 58.662 4 57 4 L 7 4 z" style="opacity:0.1;fill:#ffffff" />
  <path id="path8" d="M 14.1876,14.1254 24,24 l 16,0 0,15.9376 10,9.9376 0,-35.75 z M 24,26.312 14,36.062 14,50 28.75,50 38.624,40 24,40 Z" style="fill:#ffffff" />
  <path inkscape:connector-curvature="0" id="path14" d="M 42.82,38 42.64,40.11 A 6.286,6.286 0 0 0 40.8,41.17 L 38.89,40.27 36.89,43.73 38.63,44.94 A 6.286,6.286 0 0 0 38.53,46 6.286,6.286 0 0 0 38.62,47.06 L 36.89,48.27 38.89,51.73 40.8,50.83 A 6.286,6.286 0 0 0 42.64,51.89 L 42.82,54 H 46.82 L 46.99,51.89 A 6.286,6.286 0 0 0 48.83,50.83 L 50.75,51.73 52.75,48.27 51.01,47.06 A 6.286,6.286 0 0 0 51.1,46 6.286,6.286 0 0 0 51.01,44.94 L 52.75,43.73 50.75,40.27 48.83,41.17 A 6.286,6.286 0 0 0 46.99,40.11 L 46.82,38 H 42.82 Z M 44.82,43.71 A 2.286,2.286 0 0 1 47.1,46 2.286,2.286 0 0 1 44.82,48.29 2.286,2.286 0 0 1 42.53,46 2.286,2.286 0 0 1 44.82,43.71 Z" style="fill:#76b7ff" />
</svg>
