<?xml version="1.0" encoding="UTF-8" standalone="no"?>
<svg xmlns:dc="http://purl.org/dc/elements/1.1/" xmlns:cc="http://creativecommons.org/ns#" xmlns:rdf="http://www.w3.org/1999/02/22-rdf-syntax-ns#" xmlns:svg="http://www.w3.org/2000/svg" xmlns="http://www.w3.org/2000/svg" xmlns:sodipodi="http://sodipodi.sourceforge.net/DTD/sodipodi-0.dtd" xmlns:inkscape="http://www.inkscape.org/namespaces/inkscape" inkscape:version="1.0beta2 (2b71d25d45, 2019-12-03)" sodipodi:docname="RescueTime.svg" id="svg20" version="1" height="64" width="64">
  <metadata id="metadata26">
    <rdf:RDF>
      <cc:Work rdf:about="">
        <dc:format>image/svg+xml</dc:format>
        <dc:type rdf:resource="http://purl.org/dc/dcmitype/StillImage" />
      </cc:Work>
    </rdf:RDF>
  </metadata>
  <defs id="defs24" />
  <sodipodi:namedview inkscape:current-layer="svg20" inkscape:cy="32" inkscape:cx="32" inkscape:zoom="12.07" showgrid="false" id="namedview22" inkscape:window-height="480" inkscape:window-width="640" inkscape:pageshadow="2" inkscape:pageopacity="0" guidetolerance="10" gridtolerance="10" objecttolerance="10" borderopacity="1" inkscape:document-rotation="0" bordercolor="#666666" pagecolor="#ffffff" />
  <circle r="30.59" cy="32" cx="32" id="path851" style="fill:#96a0b6;stroke-width:0.4" />
  <rect id="rect2" ry="2.399" rx="2.57" y="7.72" x="21.72" height="47.99" width="20.56" style="fill:#e4e4e4;stroke-width:0.8568" />
  <rect id="rect4" transform="rotate(90)" ry="2.399" rx="2.57" y="-55.99" x="21.43" height="47.99" width="20.56" style="fill:#e4e4e4;stroke-width:0.8568" />
  <rect id="rect6" transform="rotate(90)" ry="2.357" rx="1.713" y="-50.85" x="30.86" height="18.85" width="3.427" style="opacity:0.2;stroke-width:0.8568" />
  <rect id="rect8" ry="2.357" rx="1.713" y="12.86" x="30.29" height="18.85" width="3.427" style="fill:#3e3e3e;stroke-width:0.8568" />
  <rect id="rect10" transform="rotate(90)" ry="2.357" rx="1.713" y="-50.85" x="29.99" height="18.85" width="3.427" style="fill:#3e3e3e;stroke-width:0.8568" />
  <circle id="circle12" r="6.855" cy="32.57" cx="32" style="opacity:0.2;stroke-width:0.8568" />
  <circle id="circle14" r="6.855" cy="31.71" cx="32" style="fill:#df574d;stroke-width:0.8568" />
  <path inkscape:connector-curvature="0" id="path16" d="M 8.009,39.43 V 40.28 C 8.009,41.7 9.08,42.85 10.41,42.85 H 21.72 V 41.99 H 10.41 C 9.08,41.99 8.009,40.85 8.009,39.43 Z M 55.99,39.43 C 55.99,40.85 54.91,41.99 53.6,41.99 H 42.28 V 42.85 H 53.6 C 54.91,42.85 55.99,41.7 55.99,40.28 Z M 21.72,53.3 V 54.16 C 21.72,55.49 22.87,56.56 24.29,56.56 H 39.71 C 41.13,56.56 42.28,55.49 42.28,54.16 V 53.3 C 42.28,54.63 41.13,55.71 39.71,55.71 H 24.29 C 22.87,55.71 21.72,54.63 21.72,53.3 Z" style="opacity:0.2;stroke-width:0.8568" />
  <path inkscape:connector-curvature="0" id="path18" d="M 24.29,7.72 C 22.87,7.72 21.72,8.791 21.72,10.12 V 10.98 C 21.72,9.647 22.87,8.577 24.29,8.577 H 39.71 C 41.13,8.577 42.28,9.647 42.28,10.98 V 10.12 C 42.28,8.791 41.13,7.72 39.71,7.72 Z M 10.41,21.43 C 9.08,21.43 8.009,22.58 8.009,24 V 24.85 C 8.009,23.43 9.08,22.29 10.41,22.29 H 21.72 V 21.43 Z M 42.28,21.43 V 22.29 H 53.6 C 54.91,22.29 55.99,23.43 55.99,24.85 V 24 C 55.99,22.58 54.91,21.43 53.6,21.43 Z" style="opacity:0.2;fill:#ffffff;stroke-width:0.8568" />
</svg>
