<?xml version="1.0" encoding="UTF-8" standalone="no"?>
<svg xmlns:dc="http://purl.org/dc/elements/1.1/" xmlns:cc="http://creativecommons.org/ns#" xmlns:rdf="http://www.w3.org/1999/02/22-rdf-syntax-ns#" xmlns:svg="http://www.w3.org/2000/svg" xmlns="http://www.w3.org/2000/svg" xmlns:sodipodi="http://sodipodi.sourceforge.net/DTD/sodipodi-0.dtd" xmlns:inkscape="http://www.inkscape.org/namespaces/inkscape" inkscape:version="1.0beta2 (2b71d25d45, 2019-12-03)" sodipodi:docname="steam_icon_107800.svg" id="svg22" version="1" height="48" width="48">
  <metadata id="metadata28">
    <rdf:RDF>
      <cc:Work rdf:about="">
        <dc:format>image/svg+xml</dc:format>
        <dc:type rdf:resource="http://purl.org/dc/dcmitype/StillImage" />
      </cc:Work>
    </rdf:RDF>
  </metadata>
  <defs id="defs26" />
  <sodipodi:namedview inkscape:current-layer="svg22" inkscape:cy="24" inkscape:cx="24" inkscape:zoom="16.09" showgrid="false" id="namedview24" inkscape:window-height="480" inkscape:window-width="640" inkscape:pageshadow="2" inkscape:pageopacity="0" guidetolerance="10" gridtolerance="10" objecttolerance="10" borderopacity="1" inkscape:document-rotation="0" bordercolor="#666666" pagecolor="#ffffff" />
  <rect id="rect2" transform="matrix(0,-1,-1,0,0,0)" ry="21" rx="21" y="-45" x="-45" height="42.01" width="42.01" style="fill:#4f4f4f;stroke-width:1.0502" />
  <g id="g20" transform="translate(-4,-5)">
    <path id="path8" d="M 38,14 C 31.974459,14 27.177562,16.654568 23.947266,20.341797 20.716969,24.029026 19,28.72791 19,33 l 0,12 2,0 8,0 0,-2 0,-10 c 0,-1.75 0.687614,-4.0688 2.150391,-5.869141 C 32.613168,25.330519 34.785714,24 38,24 l 0,-1 0,-1 0,-2 0,-2 0,-2 0,-1 0,-1 z m -2,2.109375 0,2.046875 C 29.20245,19.108187 23,24.810637 23,33 l 0,10 -2,0 0,-10 C 21,29.27209 22.54893,24.970974 25.451172,21.658203 27.987287,18.763349 31.517155,16.607324 36,16.109375 Z m 0,4.064453 0,2.009766 c -2.78961,0.473263 -4.945407,1.894797 -6.400391,3.685547 C 27.812386,28.0688 27,30.75 27,33 l 0,10 -2,0 0,-10 c 0,-7.066982 5.250967,-11.89983 11,-12.826172 z" style="opacity:0.2" />
    <rect id="rect10" y="42" x="19" height="2" width="10" style="fill:#ffba40" />
    <rect id="rect12" transform="matrix(0,1,-1,0,0,0)" y="-38" x="14" height="2" width="8" style="fill:#ffba40" />
    <path id="path14" d="m 20,44 0,-12 c 0,-8 6.530152,-18 18,-18 l 0,0" style="fill:none;stroke:#ffba40;stroke-width:2" />
    <path id="path16" d="m 24,44 0,-12 c 0,-8.435137 7,-14 14,-14 l 0,0" style="fill:none;stroke:#ffba40;stroke-width:2" />
    <path id="path18" d="m 28,44 0,-12 c 0,-4 3,-10 10,-10 l 0,0" style="fill:none;stroke:#ffba40;stroke-width:2" />
  </g>
</svg>
