<?xml version="1.0" encoding="UTF-8" standalone="no"?>
<svg xmlns:dc="http://purl.org/dc/elements/1.1/" xmlns:cc="http://creativecommons.org/ns#" xmlns:rdf="http://www.w3.org/1999/02/22-rdf-syntax-ns#" xmlns:svg="http://www.w3.org/2000/svg" xmlns="http://www.w3.org/2000/svg" xmlns:sodipodi="http://sodipodi.sourceforge.net/DTD/sodipodi-0.dtd" xmlns:inkscape="http://www.inkscape.org/namespaces/inkscape" inkscape:version="1.0beta2 (2b71d25d45, 2019-12-03)" sodipodi:docname="sirikali.svg" id="svg12" version="1" height="64" width="64">
  <metadata id="metadata18">
    <rdf:RDF>
      <cc:Work rdf:about="">
        <dc:format>image/svg+xml</dc:format>
        <dc:type rdf:resource="http://purl.org/dc/dcmitype/StillImage" />
      </cc:Work>
    </rdf:RDF>
  </metadata>
  <defs id="defs16" />
  <sodipodi:namedview inkscape:current-layer="svg12" inkscape:cy="32" inkscape:cx="32" inkscape:zoom="12.07" showgrid="false" id="namedview14" inkscape:window-height="480" inkscape:window-width="640" inkscape:pageshadow="2" inkscape:pageopacity="0" guidetolerance="10" gridtolerance="10" objecttolerance="10" borderopacity="1" inkscape:document-rotation="0" bordercolor="#666666" pagecolor="#ffffff" />
  <rect id="rect4" ry="28" rx="28" y="4" x="4" height="56" width="56" style="fill:#1493ca" />
  <path id="path8" d="M 32,15 C 26.3592,15 22,19.586756 22,25.285156 L 22,30 19.78125,30 C 18.79485,30 18,30.945406 18,31.941406 l 0,17.257813 C 18,50.195219 18.79485,51 19.78125,51 l 24.4375,0 C 45.20475,51 46,50.195219 46,49.199219 L 46,31.941406 C 46,30.945406 45.20275,29.936 44.21875,30 L 42,30 42,25.287109 C 42,19.588509 37.64,15 32,15 Z m 0,4 c 3.5254,0 6,2.723556 6,6.285156 L 38,30 26,30 26,25.285156 C 26,21.723156 28.474,19 32,19 Z m 0,14 a 5,5 0 0 1 5,5 5,5 0 0 1 -3,4.576172 L 34,46 c 0,1.108 -0.892,2 -2,2 -1.108,0 -2,-0.892 -2,-2 l 0,-3.419922 A 5,5 0 0 1 27,38 5,5 0 0 1 32,33 Z" style="opacity:0.2" />
  <path id="path10" d="M 32 14 C 26.3592 14 22 18.586756 22 24.285156 L 22 29 L 19.78125 29 C 18.79485 29 18 29.945406 18 30.941406 L 18 48.199219 C 18 49.195219 18.79485 50 19.78125 50 L 44.21875 50 C 45.20475 50 46 49.195219 46 48.199219 L 46 30.941406 C 46 29.945406 45.20275 28.936 44.21875 29 L 42 29 L 42 24.287109 C 42 18.588509 37.64 14 32 14 z M 32 18 C 35.5254 18 38 20.723556 38 24.285156 L 38 29 L 26 29 L 26 24.285156 C 26 20.723156 28.474 18 32 18 z M 32 32 A 5 5 0 0 1 37 37 A 5 5 0 0 1 34 41.576172 L 34 45 C 34 46.108 33.108 47 32 47 C 30.892 47 30 46.108 30 45 L 30 41.580078 A 5 5 0 0 1 27 37 A 5 5 0 0 1 32 32 z" style="fill:#ffffff" />
</svg>
