<?xml version="1.0" encoding="UTF-8" standalone="no"?>
<svg xmlns:dc="http://purl.org/dc/elements/1.1/" xmlns:cc="http://creativecommons.org/ns#" xmlns:rdf="http://www.w3.org/1999/02/22-rdf-syntax-ns#" xmlns:svg="http://www.w3.org/2000/svg" xmlns="http://www.w3.org/2000/svg" xmlns:sodipodi="http://sodipodi.sourceforge.net/DTD/sodipodi-0.dtd" xmlns:inkscape="http://www.inkscape.org/namespaces/inkscape" height="48" width="48" version="1.1" id="svg6" sodipodi:docname="package.svg" inkscape:version="1.0beta2 (2b71d25d45, 2019-12-03)">
  <metadata id="metadata12">
    <rdf:RDF>
      <cc:Work rdf:about="">
        <dc:format>image/svg+xml</dc:format>
        <dc:type rdf:resource="http://purl.org/dc/dcmitype/StillImage" />
        <dc:title></dc:title>
      </cc:Work>
    </rdf:RDF>
  </metadata>
  <defs id="defs10" />
  <sodipodi:namedview inkscape:snap-global="false" pagecolor="#ffffff" bordercolor="#666666" inkscape:document-rotation="0" borderopacity="1" objecttolerance="10" gridtolerance="10" guidetolerance="10" inkscape:pageopacity="0" inkscape:pageshadow="2" inkscape:window-width="640" inkscape:window-height="480" id="namedview8" showgrid="false" inkscape:zoom="4.342" inkscape:cx="24" inkscape:cy="12.89" inkscape:current-layer="svg6" />
  <rect fill="#ac9d93" height="43" ry="1.452703" width="43" x="2" y="3" id="rect2" style="fill:#ae997f" />
  <path inkscape:connector-curvature="0" d="M 14,3 V 33 L 23.64,23 34,33 V 3 Z M 23.87,4.646 26.3,7.264 29.87,7.131 29.74,10.7 32.35,13.13 29.74,15.56 29.87,19.13 26.3,19 23.87,21.62 21.44,19 17.87,19.13 18,15.56 15.38,13.13 18,10.7 17.87,7.131 21.44,7.264 Z" fill="#fff" id="path4" />
  <path inkscape:connector-curvature="0" d="M 14,11.83 V 34 L 23.64,24 34,34 V 11.83 H 29.88 L 32.35,14.13 29.74,16.56 29.87,20.13 26.3,20 23.87,22.62 21.44,20 17.87,20.13 18,16.56 15.38,14.13 17.86,11.83 Z" style="fill:#000000;fill-opacity:0.1612" id="path850" />
  <path d="M 3.453 3 C 2.648 3 2 3.648 2 4.453 L 2 11.83 L 45 11.83 L 45 4.453 C 45 3.648 44.35 3 43.55 3 L 3.453 3 z " style="fill:#ffffff;fill-opacity:0.3552" id="rect843" />
</svg>
