<?xml version="1.0" encoding="UTF-8" standalone="no"?>
<svg xmlns:dc="http://purl.org/dc/elements/1.1/" xmlns:cc="http://creativecommons.org/ns#" xmlns:rdf="http://www.w3.org/1999/02/22-rdf-syntax-ns#" xmlns:svg="http://www.w3.org/2000/svg" xmlns="http://www.w3.org/2000/svg" xmlns:xlink="http://www.w3.org/1999/xlink" xmlns:sodipodi="http://sodipodi.sourceforge.net/DTD/sodipodi-0.dtd" xmlns:inkscape="http://www.inkscape.org/namespaces/inkscape" inkscape:version="1.0beta2 (2b71d25d45, 2019-12-03)" sodipodi:docname="xfsm-switch.svg" id="svg6" version="1.1" width="48" height="48">
  <metadata id="metadata12">
    <rdf:RDF>
      <cc:Work rdf:about="">
        <dc:format>image/svg+xml</dc:format>
        <dc:type rdf:resource="http://purl.org/dc/dcmitype/StillImage" />
      </cc:Work>
    </rdf:RDF>
  </metadata>
  <defs id="defs10">
    <filter height="1.0557828" y="-0.027891401" width="1.042123" x="-0.021061504" id="filter4311" style="color-interpolation-filters:sRGB" inkscape:collect="always">
      <feGaussianBlur id="feGaussianBlur4313" stdDeviation="0.41093335" inkscape:collect="always" />
    </filter>
    <filter height="1.0185055" y="-0.0092526795" width="1.0341356" x="-0.017067797" id="filter4319" style="color-interpolation-filters:sRGB" inkscape:collect="always">
      <feGaussianBlur id="feGaussianBlur4321" stdDeviation="0.13426666" inkscape:collect="always" />
    </filter>
    <filter height="1.0185421" y="-0.0092710564" width="1.0340112" x="-0.017005619" id="filter4327" style="color-interpolation-filters:sRGB" inkscape:collect="always">
      <feGaussianBlur id="feGaussianBlur4329" stdDeviation="0.13453333" inkscape:collect="always" />
    </filter>
    <linearGradient gradientUnits="userSpaceOnUse" y2="20.620825" x2="25.522421" y1="20.620825" x1="23.834213" id="linearGradient4343" xlink:href="#linearGradient4337" inkscape:collect="always" />
    <linearGradient id="linearGradient4337" inkscape:collect="always">
      <stop id="stop4339" offset="0" style="stop-color:#000000;stop-opacity:0.2984" />
      <stop id="stop4341" offset="1" style="stop-color:#000000;stop-opacity:0" />
    </linearGradient>
    <filter height="1.0327315" y="-0.016365757" width="1.0373867" x="-0.018693335" id="filter4297" style="color-interpolation-filters:sRGB" inkscape:collect="always">
      <feGaussianBlur id="feGaussianBlur4299" stdDeviation="0.093466681" inkscape:collect="always" />
    </filter>
    <filter height="1.0327315" y="-0.016365757" width="1.0373867" x="-0.018693335" id="filter4301" style="color-interpolation-filters:sRGB" inkscape:collect="always">
      <feGaussianBlur id="feGaussianBlur4303" stdDeviation="0.093466681" inkscape:collect="always" />
    </filter>
    <linearGradient gradientUnits="userSpaceOnUse" y2="7.4133334" x2="16.106667" y1="17.546667" x1="19.786667" id="linearGradient4408" xlink:href="#linearGradient4402" inkscape:collect="always" />
    <linearGradient id="linearGradient4402" inkscape:collect="always">
      <stop id="stop4404" offset="0" style="stop-color:#323a3c" />
      <stop id="stop4406" offset="1" style="stop-color:#4b585b" />
    </linearGradient>
    <linearGradient gradientUnits="userSpaceOnUse" y2="4.6933331" x2="34.026669" y1="17.173334" x1="28.533333" id="linearGradient4394" xlink:href="#linearGradient4388" inkscape:collect="always" />
    <linearGradient id="linearGradient4388" inkscape:collect="always">
      <stop id="stop4390" offset="0" style="stop-color:#343d3f" />
      <stop id="stop4392" offset="1" style="stop-color:#566568" />
    </linearGradient>
    <linearGradient gradientUnits="userSpaceOnUse" y2="13.229202" x2="28.284271" y1="13.229202" x1="25.87068" id="linearGradient4285" xlink:href="#linearGradient4287" inkscape:collect="always" />
    <linearGradient inkscape:collect="always" id="linearGradient4287">
      <stop style="stop-color:#8ba6a6" offset="0" id="stop4289" />
      <stop style="stop-color:#ced9d9" offset="1" id="stop4291" />
    </linearGradient>
    <linearGradient gradientUnits="userSpaceOnUse" y2="13.405133" x2="17.125629" y1="13.405133" x1="21.995953" id="linearGradient4283" xlink:href="#linearGradient4287" inkscape:collect="always" />
    <linearGradient gradientUnits="userSpaceOnUse" y2="12.16" x2="24.106667" y1="14.346666" x1="24.106667" id="linearGradient4271" xlink:href="#linearGradient4265" inkscape:collect="always" />
    <linearGradient id="linearGradient4265" inkscape:collect="always">
      <stop id="stop4267" offset="0" style="stop-color:#ebeeed" />
      <stop id="stop4269" offset="1" style="stop-color:#9facaa" />
    </linearGradient>
  </defs>
  <sodipodi:namedview inkscape:current-layer="svg6" inkscape:cy="26.08" inkscape:cx="24.02" inkscape:zoom="13.46" showgrid="false" id="namedview8" inkscape:window-height="480" inkscape:window-width="640" inkscape:pageshadow="2" inkscape:pageopacity="0" guidetolerance="10" gridtolerance="10" objecttolerance="10" borderopacity="1" inkscape:document-rotation="0" bordercolor="#666666" pagecolor="#ffffff" />
  <g transform="matrix(1.021,0,0,1.021,-231.1,-783.2)" id="layer1" inkscape:label="Livello 1">
    <rect ry="21.72" y="768.9" x="228.2" height="43.43" width="43.43" id="rect1780" style="fill:#8f97a3;fill-opacity:0.1184;stroke-width:0.4171;stroke-linecap:round;stroke-linejoin:bevel;stroke-opacity:0.978;paint-order:stroke fill markers" />
    <g id="g1022" transform="matrix(0.4898,0,0,0.4898,238.1,788.5)">
      <path style="fill:#000000;fill-opacity:0.3613;fill-rule:evenodd;stroke-width:1px;filter:url(#filter4311)" d="M 24,45.11 47.36,16.89 47.47,14.97 35.84,9.959 12.05,9.745 0.64,15.08 0.7467,17.11 Z" id="path4305" inkscape:connector-curvature="0" sodipodi:nodetypes="cccccccc" />
      <path sodipodi:nodetypes="cccccccc" inkscape:connector-curvature="0" id="path4248" d="M 24,44.43 47.36,16.21 47.47,14.29 35.84,9.28 12.05,9.067 0.64,14.4 0.7467,16.43 Z" style="fill:#51667a;fill-rule:evenodd;stroke-width:1px" />
      <path sodipodi:nodetypes="ccccc" inkscape:connector-curvature="0" id="path4369" d="M 47.36,16.21 47.47,14.29 35.84,9.28 34.55,11.12 Z" style="fill:#000000;fill-opacity:0.1571;fill-rule:evenodd;stroke-width:1px" />
      <path style="fill:#000000;fill-opacity:0.1571;fill-rule:evenodd;stroke-width:1px" d="M 0.7467,16.43 0.64,14.4 12.96,8.652 14.46,10.81 Z" id="path4371" inkscape:connector-curvature="0" sodipodi:nodetypes="ccccc" />
      <path style="fill:#000000;fill-opacity:0.3137;fill-rule:evenodd;stroke-width:1px;filter:url(#filter4319)" d="M 23.67,44 12.15,11.52 12.04,9.173 7.027,13.55 4.787,16.96 10.12,19.09 7.4,20.64 Z" id="path4315" inkscape:connector-curvature="0" sodipodi:nodetypes="cccccccc" />
      <path sodipodi:nodetypes="cccccccc" inkscape:connector-curvature="0" id="path4317" d="M 24.68,44 36.2,11.52 36.3,9.173 41.53,13.44 43.66,16.75 38.22,19.09 40.94,20.64 Z" style="fill:#000000;fill-opacity:0.3137;fill-rule:evenodd;stroke-width:1px;filter:url(#filter4327)" />
      <path sodipodi:nodetypes="cccccccc" inkscape:connector-curvature="0" id="path4251" d="M 23.89,44 12.37,11.52 12.27,9.173 7.253,13.55 5.013,16.96 10.35,19.09 7.627,20.64 Z" style="fill:#e5ebeb;fill-rule:evenodd;stroke-width:1px" />
      <path style="fill:#e5ebeb;fill-rule:evenodd;stroke-width:1px" d="M 24.37,44 35.89,11.52 36,9.173 41.23,13.44 43.36,16.75 37.92,19.09 40.64,20.64 Z" id="path4253" inkscape:connector-curvature="0" sodipodi:nodetypes="cccccccc" />
      <path inkscape:connector-curvature="0" id="path4259" d="M 13.87,4.587 34.4,4.48 36.05,9.227 24.05,25.44 12.21,9.013 Z" style="fill:#2f3739;fill-rule:evenodd;stroke-width:1px" />
      <polygon transform="matrix(0.016,0,0,0.0114,-24.79,-44.65)" style="fill:#d9c9a8" points="2551,4939 3592,4910 3708,3621 2408,3747 " id="polygon7" />
      <path inkscape:connector-curvature="0" id="path4331" d="M 34.4,4.48 23.98,4.533 V 25.34 L 24.05,25.44 36.05,9.227 Z" style="fill:url(#linearGradient4343);fill-rule:evenodd;stroke-width:1px" />
      <path sodipodi:nodetypes="cccccc" inkscape:connector-curvature="0" id="path991" d="M 13.82,-1.724 34.04,-1.488 32.64,10.32 24.62,10.51 14.56,2.128 Z" style="fill:#060606;fill-opacity:0.1864;stroke-width:0.8211;stroke-linecap:round;stroke-linejoin:bevel;stroke-opacity:0.978;paint-order:stroke fill markers" />
      <path style="fill:#000000;fill-opacity:0.5445;fill-rule:evenodd;stroke-width:1px;filter:url(#filter4297)" d="M 13.87,5.265 12.27,9.692 19.84,18.97 24.27,12.41 Z" id="path4293" inkscape:connector-curvature="0" />
      <path inkscape:connector-curvature="0" id="path4295" d="M 34.35,5.265 35.95,9.692 28.37,18.97 23.95,12.41 Z" style="fill:#000000;fill-opacity:0.5445;fill-rule:evenodd;stroke-width:1px;filter:url(#filter4301)" />
      <path inkscape:connector-curvature="0" id="path4265" d="M 13.87,4.587 12.27,9.013 19.84,18.29 24.27,11.73 Z" style="fill:url(#linearGradient4408);fill-rule:evenodd;stroke-width:1px" />
      <path style="fill:url(#linearGradient4394);fill-rule:evenodd;stroke-width:1px" d="M 34.35,4.587 35.95,9.013 28.37,18.29 23.95,11.73 Z" id="path4267" inkscape:connector-curvature="0" />
      <path inkscape:connector-curvature="0" id="path4249" d="M 35.8,8.606 28.37,17.71 24.22,11.55 23.95,11.73 28.37,18.29 35.95,9.014 Z" style="fill:#b5c0c3;fill-opacity:0.2251;fill-rule:evenodd;stroke-width:1px" />
      <path style="fill:#b5c0c3;fill-opacity:0.2251;fill-rule:evenodd;stroke-width:1px" d="M 12.41,8.606 19.84,17.71 24,11.55 24.27,11.73 19.84,18.29 12.27,9.014 Z" id="path4260" inkscape:connector-curvature="0" />
      <path inkscape:connector-curvature="0" id="path4273" d="M 25.01,12.37 30.93,10.19 V 16 L 24.96,14.03 Z" style="fill:url(#linearGradient4285);fill-rule:evenodd;stroke-width:1px" />
      <path style="fill:url(#linearGradient4283);fill-rule:evenodd;stroke-width:1px" d="M 22.88,12.37 16.96,10.19 V 16 L 22.93,14.03 Z" id="path4275" inkscape:connector-curvature="0" />
      <rect ry="0" rx="0" y="11.84" x="22.45" height="2.667" width="3.467" id="rect4270" style="color:#000000;fill:url(#linearGradient4271);stroke:#000000;stroke-width:0.4;stroke-linecap:round;stroke-opacity:0.3037;paint-order:stroke fill markers" />
      <path inkscape:connector-curvature="0" id="rect4410" d="M 28.39,12.15 27.42,13.12 H 25.92 V 13.6 H 27.42 L 28.28,14.46 28.5,14.24 27.71,13.45 V 13.27 L 28.61,12.37 Z" style="color:#000000;fill:#293f45;fill-opacity:0.3927;stroke-width:0.4;stroke-linecap:round;stroke-opacity:0.3037;paint-order:stroke fill markers" />
      <path inkscape:connector-curvature="0" style="color:#000000;fill:#293f45;fill-opacity:0.3927;stroke-width:0.4;stroke-linecap:round;stroke-opacity:0.3037;paint-order:stroke fill markers" d="M 19.9,12.15 20.87,13.12 H 22.37 V 13.6 H 20.87 L 20.01,14.46 19.79,14.24 20.58,13.45 V 13.27 L 19.68,12.37 Z" id="path4502" />
      <path style="fill:#d9c9a8;stroke-width:1.3369" d="M 21.96,-35.24 C 21.36,-35.24 8.877,-34.18 8.877,-19.66 L 9.359,-17.76 C 8.266,-16.96 7.953,-14.56 8.662,-12.3 9.275,-10.34 10.47,-9.08 11.64,-8.809 L 11.74,-8.412 13.39,-1.535 C 14.73,0.0477 15.86,1.348 16.83,2.418 20.89,6.891 22.04,7.309 23.24,7.348 V 7.355 H 23.54 24.53 24.84 V 7.348 C 26.04,7.309 27.19,6.89 31.24,2.418 32.21,1.348 33.35,0.0477 34.69,-1.535 L 36.34,-8.412 36.45,-8.852 C 37.5,-9.277 38.52,-10.48 39.07,-12.24 39.7,-14.29 39.48,-16.43 38.63,-17.41 L 39.2,-19.66 C 39.2,-34.18 26.72,-35.24 26.12,-35.24 H 24.84 23.24 Z" id="path993" inkscape:connector-curvature="0" />
      <path style="fill:#000000;fill-opacity:0.1111;stroke-width:1.305" inkscape:connector-curvature="0" d="M 26.6,-35.33 H 23.86 V 7.27 H 25.1 C 26.35,7.27 27.44,6.79 34.75,-1.621 L 36.34,-8.412 39.31,-19.78 C 39.31,-34.3 27.18,-35.33 26.6,-35.33 Z" id="path15" sodipodi:nodetypes="sccscccs" />
      <path style="fill:#393939;stroke-width:1.3369" inkscape:connector-curvature="0" d="M 32.64,-33.52 C 30.21,-35.24 24.84,-36.22 24.84,-36.22 5.886,-38.26 8.544,-16.78 8.544,-16.78 L 9.239,-17.38 10.39,-12.85 11.49,-11.38 C 11.69,-11.1 11.73,-20.96 11.73,-20.96 24.56,-17.44 27,-27.71 32.67,-26.8 38.35,-25.89 36.64,-21.52 36.64,-21.52 L 36.56,-11.38 37.68,-12.85 38.51,-17.35 39.15,-16.5 C 41.14,-27.93 35.07,-31.81 32.64,-33.52 Z" id="path19" sodipodi:nodetypes="cccccscsccccccc" />
    </g>
  </g>
</svg>
