<?xml version="1.0" encoding="UTF-8" standalone="no"?>
<svg xmlns:dc="http://purl.org/dc/elements/1.1/" xmlns:cc="http://creativecommons.org/ns#" xmlns:rdf="http://www.w3.org/1999/02/22-rdf-syntax-ns#" xmlns:svg="http://www.w3.org/2000/svg" xmlns="http://www.w3.org/2000/svg" xmlns:xlink="http://www.w3.org/1999/xlink" xmlns:sodipodi="http://sodipodi.sourceforge.net/DTD/sodipodi-0.dtd" xmlns:inkscape="http://www.inkscape.org/namespaces/inkscape" height="48" width="48" version="1.1" id="svg6" sodipodi:docname="org.kde.plasma.uswitcher.svg" inkscape:version="1.0beta2 (2b71d25d45, 2019-12-03)">
  <metadata id="metadata12">
    <rdf:RDF>
      <cc:Work rdf:about="">
        <dc:format>image/svg+xml</dc:format>
        <dc:type rdf:resource="http://purl.org/dc/dcmitype/StillImage" />
      </cc:Work>
    </rdf:RDF>
  </metadata>
  <defs id="defs10">
    <filter inkscape:collect="always" style="color-interpolation-filters:sRGB" id="filter4311" x="-0.021061504" width="1.042123" y="-0.027891401" height="1.0557828">
      <feGaussianBlur inkscape:collect="always" stdDeviation="0.41093335" id="feGaussianBlur4313" />
    </filter>
    <filter inkscape:collect="always" style="color-interpolation-filters:sRGB" id="filter4319" x="-0.017067797" width="1.0341356" y="-0.0092526795" height="1.0185055">
      <feGaussianBlur inkscape:collect="always" stdDeviation="0.13426666" id="feGaussianBlur4321" />
    </filter>
    <filter inkscape:collect="always" style="color-interpolation-filters:sRGB" id="filter4327" x="-0.017005619" width="1.0340112" y="-0.0092710564" height="1.0185421">
      <feGaussianBlur inkscape:collect="always" stdDeviation="0.13453333" id="feGaussianBlur4329" />
    </filter>
    <linearGradient inkscape:collect="always" xlink:href="#linearGradient4337" id="linearGradient4343" x1="23.834213" y1="20.620825" x2="25.522421" y2="20.620825" gradientUnits="userSpaceOnUse" />
    <linearGradient inkscape:collect="always" id="linearGradient4337">
      <stop style="stop-color:#000000;stop-opacity:0.2984" offset="0" id="stop4339" />
      <stop style="stop-color:#000000;stop-opacity:0" offset="1" id="stop4341" />
    </linearGradient>
    <filter inkscape:collect="always" style="color-interpolation-filters:sRGB" id="filter4297" x="-0.018693335" width="1.0373867" y="-0.016365757" height="1.0327315">
      <feGaussianBlur inkscape:collect="always" stdDeviation="0.093466681" id="feGaussianBlur4299" />
    </filter>
    <filter inkscape:collect="always" style="color-interpolation-filters:sRGB" id="filter4301" x="-0.018693335" width="1.0373867" y="-0.016365757" height="1.0327315">
      <feGaussianBlur inkscape:collect="always" stdDeviation="0.093466681" id="feGaussianBlur4303" />
    </filter>
    <linearGradient inkscape:collect="always" xlink:href="#linearGradient4402" id="linearGradient4408" x1="19.786667" y1="17.546667" x2="16.106667" y2="7.4133334" gradientUnits="userSpaceOnUse" />
    <linearGradient inkscape:collect="always" id="linearGradient4402">
      <stop style="stop-color:#323a3c" offset="0" id="stop4404" />
      <stop style="stop-color:#4b585b" offset="1" id="stop4406" />
    </linearGradient>
    <linearGradient inkscape:collect="always" xlink:href="#linearGradient4388" id="linearGradient4394" x1="28.533333" y1="17.173334" x2="34.026669" y2="4.6933331" gradientUnits="userSpaceOnUse" />
    <linearGradient inkscape:collect="always" id="linearGradient4388">
      <stop style="stop-color:#343d3f" offset="0" id="stop4390" />
      <stop style="stop-color:#566568" offset="1" id="stop4392" />
    </linearGradient>
    <linearGradient inkscape:collect="always" xlink:href="#linearGradient4287" id="linearGradient4285" x1="25.87068" y1="13.229202" x2="28.284271" y2="13.229202" gradientUnits="userSpaceOnUse" />
    <linearGradient id="linearGradient4287" inkscape:collect="always">
      <stop id="stop4289" offset="0" style="stop-color:#8ba6a6" />
      <stop id="stop4291" offset="1" style="stop-color:#ced9d9" />
    </linearGradient>
    <linearGradient inkscape:collect="always" xlink:href="#linearGradient4287" id="linearGradient4283" x1="21.995953" y1="13.405133" x2="17.125629" y2="13.405133" gradientUnits="userSpaceOnUse" />
    <linearGradient inkscape:collect="always" xlink:href="#linearGradient4265" id="linearGradient4271" x1="24.106667" y1="14.346666" x2="24.106667" y2="12.16" gradientUnits="userSpaceOnUse" />
    <linearGradient inkscape:collect="always" id="linearGradient4265">
      <stop style="stop-color:#ebeeed" offset="0" id="stop4267" />
      <stop style="stop-color:#9facaa" offset="1" id="stop4269" />
    </linearGradient>
  </defs>
  <sodipodi:namedview pagecolor="#ffffff" bordercolor="#666666" inkscape:document-rotation="0" borderopacity="1" objecttolerance="10" gridtolerance="10" guidetolerance="10" inkscape:pageopacity="0" inkscape:pageshadow="2" inkscape:window-width="640" inkscape:window-height="480" id="namedview8" showgrid="false" inkscape:zoom="18.69" inkscape:cx="24.02" inkscape:cy="26.08" inkscape:current-layer="layer1" />
  <g inkscape:label="Livello 1" id="layer1" transform="matrix(1.021,0,0,1.021,-231.1,-783.2)">
    <rect style="fill:#eaecef;stroke-width:0.4171;stroke-linecap:round;stroke-linejoin:bevel;stroke-opacity:0.978;paint-order:stroke fill markers" id="rect1780" width="43.43" height="43.43" x="228.2" y="768.9" ry="21.72" />
    <g transform="matrix(0.4898,0,0,0.4898,238.1,788.5)" id="g1022">
      <path sodipodi:nodetypes="cccccccc" inkscape:connector-curvature="0" id="path4305" d="M 24,45.11 47.36,16.89 47.47,14.97 35.84,9.959 12.05,9.745 0.64,15.08 0.7467,17.11 Z" style="fill:#000000;fill-opacity:0.3613;fill-rule:evenodd;stroke-width:1px;filter:url(#filter4311)" />
      <path style="fill:#51667a;fill-rule:evenodd;stroke-width:1px" d="M 24,44.43 47.36,16.21 47.47,14.29 35.84,9.28 12.05,9.067 0.64,14.4 0.7467,16.43 Z" id="path4248" inkscape:connector-curvature="0" sodipodi:nodetypes="cccccccc" />
      <path style="fill:#000000;fill-opacity:0.1571;fill-rule:evenodd;stroke-width:1px" d="M 47.36,16.21 47.47,14.29 35.84,9.28 34.55,11.12 Z" id="path4369" inkscape:connector-curvature="0" sodipodi:nodetypes="ccccc" />
      <path sodipodi:nodetypes="ccccc" inkscape:connector-curvature="0" id="path4371" d="M 0.7467,16.43 0.64,14.4 12.96,8.652 14.46,10.81 Z" style="fill:#000000;fill-opacity:0.1571;fill-rule:evenodd;stroke-width:1px" />
      <path sodipodi:nodetypes="cccccccc" inkscape:connector-curvature="0" id="path4315" d="M 23.67,44 12.15,11.52 12.04,9.173 7.027,13.55 4.787,16.96 10.12,19.09 7.4,20.64 Z" style="fill:#000000;fill-opacity:0.3137;fill-rule:evenodd;stroke-width:1px;filter:url(#filter4319)" />
      <path style="fill:#000000;fill-opacity:0.3137;fill-rule:evenodd;stroke-width:1px;filter:url(#filter4327)" d="M 24.68,44 36.2,11.52 36.3,9.173 41.53,13.44 43.66,16.75 38.22,19.09 40.94,20.64 Z" id="path4317" inkscape:connector-curvature="0" sodipodi:nodetypes="cccccccc" />
      <path style="fill:#e5ebeb;fill-rule:evenodd;stroke-width:1px" d="M 23.89,44 12.37,11.52 12.27,9.173 7.253,13.55 5.013,16.96 10.35,19.09 7.627,20.64 Z" id="path4251" inkscape:connector-curvature="0" sodipodi:nodetypes="cccccccc" />
      <path sodipodi:nodetypes="cccccccc" inkscape:connector-curvature="0" id="path4253" d="M 24.37,44 35.89,11.52 36,9.173 41.23,13.44 43.36,16.75 37.92,19.09 40.64,20.64 Z" style="fill:#e5ebeb;fill-rule:evenodd;stroke-width:1px" />
      <path style="fill:#2f3739;fill-rule:evenodd;stroke-width:1px" d="M 13.87,4.587 34.4,4.48 36.05,9.227 24.05,25.44 12.21,9.013 Z" id="path4259" inkscape:connector-curvature="0" />
      <polygon id="polygon7" points="2551,4939 3592,4910 3708,3621 2408,3747 " style="fill:#d9c9a8" transform="matrix(0.016,0,0,0.0114,-24.79,-44.65)" />
      <path style="fill:url(#linearGradient4343);fill-rule:evenodd;stroke-width:1px" d="M 34.4,4.48 23.98,4.533 V 25.34 L 24.05,25.44 36.05,9.227 Z" id="path4331" inkscape:connector-curvature="0" />
      <path style="fill:#060606;fill-opacity:0.1864;stroke-width:0.8211;stroke-linecap:round;stroke-linejoin:bevel;stroke-opacity:0.978;paint-order:stroke fill markers" d="M 13.82,-1.724 34.04,-1.488 32.64,10.32 24.62,10.51 14.56,2.128 Z" id="path991" inkscape:connector-curvature="0" sodipodi:nodetypes="cccccc" />
      <path inkscape:connector-curvature="0" id="path4293" d="M 13.87,5.265 12.27,9.692 19.84,18.97 24.27,12.41 Z" style="fill:#000000;fill-opacity:0.5445;fill-rule:evenodd;stroke-width:1px;filter:url(#filter4297)" />
      <path style="fill:#000000;fill-opacity:0.5445;fill-rule:evenodd;stroke-width:1px;filter:url(#filter4301)" d="M 34.35,5.265 35.95,9.692 28.37,18.97 23.95,12.41 Z" id="path4295" inkscape:connector-curvature="0" />
      <path style="fill:url(#linearGradient4408);fill-rule:evenodd;stroke-width:1px" d="M 13.87,4.587 12.27,9.013 19.84,18.29 24.27,11.73 Z" id="path4265" inkscape:connector-curvature="0" />
      <path inkscape:connector-curvature="0" id="path4267" d="M 34.35,4.587 35.95,9.013 28.37,18.29 23.95,11.73 Z" style="fill:url(#linearGradient4394);fill-rule:evenodd;stroke-width:1px" />
      <path style="fill:#b5c0c3;fill-opacity:0.2251;fill-rule:evenodd;stroke-width:1px" d="M 35.8,8.606 28.37,17.71 24.22,11.55 23.95,11.73 28.37,18.29 35.95,9.014 Z" id="path4249" inkscape:connector-curvature="0" />
      <path inkscape:connector-curvature="0" id="path4260" d="M 12.41,8.606 19.84,17.71 24,11.55 24.27,11.73 19.84,18.29 12.27,9.014 Z" style="fill:#b5c0c3;fill-opacity:0.2251;fill-rule:evenodd;stroke-width:1px" />
      <path style="fill:url(#linearGradient4285);fill-rule:evenodd;stroke-width:1px" d="M 25.01,12.37 30.93,10.19 V 16 L 24.96,14.03 Z" id="path4273" inkscape:connector-curvature="0" />
      <path inkscape:connector-curvature="0" id="path4275" d="M 22.88,12.37 16.96,10.19 V 16 L 22.93,14.03 Z" style="fill:url(#linearGradient4283);fill-rule:evenodd;stroke-width:1px" />
      <rect style="color:#000000;fill:url(#linearGradient4271);stroke:#000000;stroke-width:0.4;stroke-linecap:round;stroke-opacity:0.3037;paint-order:stroke fill markers" id="rect4270" width="3.467" height="2.667" x="22.45" y="11.84" rx="0" ry="0" />
      <path style="color:#000000;fill:#293f45;fill-opacity:0.3927;stroke-width:0.4;stroke-linecap:round;stroke-opacity:0.3037;paint-order:stroke fill markers" d="M 28.39,12.15 27.42,13.12 H 25.92 V 13.6 H 27.42 L 28.28,14.46 28.5,14.24 27.71,13.45 V 13.27 L 28.61,12.37 Z" id="rect4410" inkscape:connector-curvature="0" />
      <path id="path4502" d="M 19.9,12.15 20.87,13.12 H 22.37 V 13.6 H 20.87 L 20.01,14.46 19.79,14.24 20.58,13.45 V 13.27 L 19.68,12.37 Z" style="color:#000000;fill:#293f45;fill-opacity:0.3927;stroke-width:0.4;stroke-linecap:round;stroke-opacity:0.3037;paint-order:stroke fill markers" inkscape:connector-curvature="0" />
      <path inkscape:connector-curvature="0" id="path993" d="M 21.96,-35.24 C 21.36,-35.24 8.877,-34.18 8.877,-19.66 L 9.359,-17.76 C 8.266,-16.96 7.953,-14.56 8.662,-12.3 9.275,-10.34 10.47,-9.08 11.64,-8.809 L 11.74,-8.412 13.39,-1.535 C 14.73,0.0477 15.86,1.348 16.83,2.418 20.89,6.891 22.04,7.309 23.24,7.348 V 7.355 H 23.54 24.53 24.84 V 7.348 C 26.04,7.309 27.19,6.89 31.24,2.418 32.21,1.348 33.35,0.0477 34.69,-1.535 L 36.34,-8.412 36.45,-8.852 C 37.5,-9.277 38.52,-10.48 39.07,-12.24 39.7,-14.29 39.48,-16.43 38.63,-17.41 L 39.2,-19.66 C 39.2,-34.18 26.72,-35.24 26.12,-35.24 H 24.84 23.24 Z" style="fill:#d9c9a8;stroke-width:1.3369" />
      <path sodipodi:nodetypes="sccscccs" id="path15" d="M 26.6,-35.33 H 23.86 V 7.27 H 25.1 C 26.35,7.27 27.44,6.79 34.75,-1.621 L 36.34,-8.412 39.31,-19.78 C 39.31,-34.3 27.18,-35.33 26.6,-35.33 Z" inkscape:connector-curvature="0" style="fill:#000000;fill-opacity:0.1111;stroke-width:1.305" />
      <path sodipodi:nodetypes="cccccscsccccccc" id="path19" d="M 32.64,-33.52 C 30.21,-35.24 24.84,-36.22 24.84,-36.22 5.886,-38.26 8.544,-16.78 8.544,-16.78 L 9.239,-17.38 10.39,-12.85 11.49,-11.38 C 11.69,-11.1 11.73,-20.96 11.73,-20.96 24.56,-17.44 27,-27.71 32.67,-26.8 38.35,-25.89 36.64,-21.52 36.64,-21.52 L 36.56,-11.38 37.68,-12.85 38.51,-17.35 39.15,-16.5 C 41.14,-27.93 35.07,-31.81 32.64,-33.52 Z" inkscape:connector-curvature="0" style="fill:#393939;stroke-width:1.3369" />
    </g>
  </g>
</svg>
