<?xml version="1.0" encoding="UTF-8" standalone="no"?>
<svg xmlns:dc="http://purl.org/dc/elements/1.1/" xmlns:cc="http://creativecommons.org/ns#" xmlns:rdf="http://www.w3.org/1999/02/22-rdf-syntax-ns#" xmlns:svg="http://www.w3.org/2000/svg" xmlns="http://www.w3.org/2000/svg" xmlns:sodipodi="http://sodipodi.sourceforge.net/DTD/sodipodi-0.dtd" xmlns:inkscape="http://www.inkscape.org/namespaces/inkscape" inkscape:version="1.0beta2 (2b71d25d45, 2019-12-03)" sodipodi:docname="tiled.svg" id="svg28" version="1" height="64" width="64">
  <metadata id="metadata34">
    <rdf:RDF>
      <cc:Work rdf:about="">
        <dc:format>image/svg+xml</dc:format>
        <dc:type rdf:resource="http://purl.org/dc/dcmitype/StillImage" />
      </cc:Work>
    </rdf:RDF>
  </metadata>
  <defs id="defs32" />
  <sodipodi:namedview inkscape:current-layer="svg28" inkscape:cy="32" inkscape:cx="32" inkscape:zoom="12.07" showgrid="false" id="namedview30" inkscape:window-height="480" inkscape:window-width="640" inkscape:pageshadow="2" inkscape:pageopacity="0" guidetolerance="10" gridtolerance="10" objecttolerance="10" borderopacity="1" inkscape:document-rotation="0" bordercolor="#666666" pagecolor="#ffffff" />
  <rect id="rect4" ry="28" rx="28" y="4" x="4" height="56" width="56" style="fill:#616bdd" />
  <path id="path6" d="M 6.8008 4 C 5.2496 4 4 5.2496 4 6.8008 L 4 7.8008 C 4 6.2496 5.2496 5 6.8008 5 L 57.199 5 C 58.75 5 60 6.2496 60 7.8008 L 60 6.8008 C 60 5.2496 58.75 4 57.199 4 L 6.8008 4 z" style="opacity:0.1;fill:#ffffff" />
  <rect id="rect8" ry="1.4" rx="1.4" y="16" x="15" height="10" width="10" style="opacity:0.1;fill:#ffffff" />
  <rect id="rect10" ry="1.4" rx="1.4" y="16" x="27" height="10" width="10" style="opacity:0.1;fill:#ffffff" />
  <rect id="rect12" ry="1.4" rx="1.4" y="16" x="39" height="10" width="10" style="opacity:0.1;fill:#ffffff" />
  <rect id="rect14" ry="1.4" rx="1.4" y="28" x="27" height="10" width="10" style="opacity:0.1;fill:#ffffff" />
  <rect id="rect16" ry="1.4" rx="1.4" y="40" x="27" height="10" width="10" style="opacity:0.1;fill:#ffffff" />
  <rect id="rect18" ry="1.4" rx="1.4" y="15" x="15" height="10" width="10" style="fill:#30356e" />
  <rect id="rect20" ry="1.4" rx="1.4" y="15" x="27" height="10" width="10" style="fill:#30356e" />
  <rect id="rect22" ry="1.4" rx="1.4" y="15" x="39" height="10" width="10" style="fill:#30356e" />
  <rect id="rect24" ry="1.4" rx="1.4" y="27" x="27" height="10" width="10" style="fill:#30356e" />
  <rect id="rect26" ry="1.4" rx="1.4" y="39" x="27" height="10" width="10" style="fill:#30356e" />
</svg>
