<?xml version="1.0" encoding="UTF-8" standalone="no"?>
<svg xmlns:dc="http://purl.org/dc/elements/1.1/" xmlns:cc="http://creativecommons.org/ns#" xmlns:rdf="http://www.w3.org/1999/02/22-rdf-syntax-ns#" xmlns:svg="http://www.w3.org/2000/svg" xmlns="http://www.w3.org/2000/svg" xmlns:sodipodi="http://sodipodi.sourceforge.net/DTD/sodipodi-0.dtd" xmlns:inkscape="http://www.inkscape.org/namespaces/inkscape" inkscape:version="1.0beta2 (2b71d25d45, 2019-12-03)" sodipodi:docname="tilp.svg" id="svg44" version="1" height="64" width="64">
  <metadata id="metadata50">
    <rdf:RDF>
      <cc:Work rdf:about="">
        <dc:format>image/svg+xml</dc:format>
        <dc:type rdf:resource="http://purl.org/dc/dcmitype/StillImage" />
      </cc:Work>
    </rdf:RDF>
  </metadata>
  <defs id="defs48" />
  <sodipodi:namedview inkscape:current-layer="svg44" inkscape:cy="32" inkscape:cx="32" inkscape:zoom="12.07" showgrid="false" id="namedview46" inkscape:window-height="480" inkscape:window-width="640" inkscape:pageshadow="2" inkscape:pageopacity="0" guidetolerance="10" gridtolerance="10" objecttolerance="10" borderopacity="1" inkscape:document-rotation="0" bordercolor="#666666" pagecolor="#ffffff" />
  <circle r="29.46" cy="32" cx="32" id="path875" style="fill:#5e656f;stroke-width:0.4" />
  <rect id="rect10" transform="matrix(1,-0.0036,-0.0036,1,0,0)" y="26.54" x="15.21" height="3.737" width="5.585" style="fill:#679cf2;stroke-width:1.3315" />
  <rect id="rect12" transform="matrix(1,-0.0036,-0.0036,1,0,0)" y="26.54" x="24.52" height="3.737" width="5.585" style="fill:#679cf2;stroke-width:1.3315" />
  <rect id="rect14" transform="matrix(1,-0.0036,-0.0036,1,0,0)" y="26.54" x="33.83" height="3.737" width="5.585" style="fill:#67e0f2;stroke-width:1.3315" />
  <rect id="rect16" transform="matrix(1,-0.0036,-0.0036,1,0,0)" y="26.54" x="43.13" height="3.737" width="5.585" style="fill:#67e0f2;stroke-width:1.3315" />
  <rect id="rect18" transform="matrix(1,-0.0036,-0.0036,1,0,0)" y="34.02" x="15.21" height="3.737" width="5.585" style="fill:#ffb845;stroke-width:1.3315" />
  <rect id="rect20" transform="matrix(1,-0.0036,-0.0036,1,0,0)" y="34.02" x="24.52" height="3.737" width="5.585" style="fill:#ff45ea;stroke-width:1.3315" />
  <rect id="rect22" transform="matrix(1,-0.0036,-0.0036,1,0,0)" y="34.02" x="33.83" height="3.737" width="5.585" style="fill:#67e0f2;stroke-width:1.3315" />
  <rect id="rect24" transform="matrix(1,-0.0036,-0.0036,1,0,0)" y="34.02" x="43.13" height="3.737" width="5.585" style="fill:#67e0f2;stroke-width:1.3315" />
  <rect id="rect26" transform="matrix(1,-0.0036,-0.0036,1,0,0)" y="41.49" x="15.21" height="3.737" width="5.585" style="opacity:0.6489;fill:#e1eff4;stroke-width:1.3315" />
  <rect id="rect28" transform="matrix(1,-0.0036,-0.0036,1,0,0)" y="41.49" x="24.52" height="3.737" width="5.585" style="opacity:0.6489;fill:#e1eff4;stroke-width:1.3315" />
  <rect id="rect30" transform="matrix(1,-0.0036,-0.0036,1,0,0)" y="41.49" x="33.83" height="3.737" width="5.585" style="opacity:0.6489;fill:#e1eff4;stroke-width:1.3315" />
  <rect id="rect32" transform="matrix(1,-0.0036,-0.0036,1,0,0)" y="41.49" x="43.13" height="3.737" width="5.585" style="opacity:0.6489;fill:#e1eff4;stroke-width:1.3315" />
  <rect id="rect34" transform="matrix(1,-0.0036,-0.0036,1,0,0)" y="48.96" x="15.21" height="3.737" width="5.585" style="opacity:0.6489;fill:#e1eff4;stroke-width:1.3315" />
  <rect id="rect36" transform="matrix(1,-0.0036,-0.0036,1,0,0)" y="48.96" x="24.52" height="3.737" width="5.585" style="opacity:0.6489;fill:#e1eff4;stroke-width:1.3315" />
  <rect id="rect38" transform="matrix(1,-0.0036,-0.0036,1,0,0)" y="48.96" x="33.83" height="3.737" width="5.585" style="opacity:0.6489;fill:#e1eff4;stroke-width:1.3315" />
  <rect id="rect40" transform="matrix(1,-0.0036,-0.0036,1,0,0)" y="48.96" x="43.13" height="3.737" width="5.585" style="opacity:0.6489;fill:#e1eff4;stroke-width:1.3315" />
  <path inkscape:connector-curvature="0" d="M 32,4.291 A 26.72,26.72 0 0 0 7.077,21.38 H 56.92 A 26.72,26.72 0 0 0 32,4.291 Z" style="fill:#c4e7eb;stroke-width:0.3628" id="circle877" />
  <g style="font-weight:600;font-size:8px;font-family:'URW Gothic L';-inkscape-font-specification:'URW Gothic L Semi-Bold';fill:#c4e7eb;stroke-width:0.4" id="text888" aria-label="0+1=0">
    <path id="path890" style="-inkscape-font-specification:'Audiowide Bold';fill:#000000" d="M 24.66,14.98 Q 24.66,15.32 24.58,15.63 24.49,15.93 24.33,16.19 24.17,16.46 23.95,16.66 23.73,16.87 23.47,17.02 23.21,17.16 22.92,17.24 22.63,17.32 22.32,17.32 H 20.49 Q 20.18,17.32 19.89,17.24 19.59,17.16 19.33,17.02 19.08,16.87 18.86,16.66 18.64,16.46 18.48,16.19 18.32,15.93 18.23,15.63 18.15,15.32 18.15,14.98 V 14.06 Q 18.15,13.55 18.34,13.12 18.53,12.69 18.86,12.38 19.18,12.07 19.6,11.89 20.03,11.72 20.49,11.72 H 22.32 Q 22.63,11.72 22.92,11.8 23.21,11.87 23.47,12.02 23.73,12.17 23.95,12.37 24.17,12.58 24.33,12.84 24.49,13.11 24.58,13.41 24.66,13.72 24.66,14.06 Z M 23.64,14.06 Q 23.64,13.76 23.53,13.52 23.42,13.27 23.24,13.09 23.06,12.92 22.82,12.82 22.58,12.73 22.32,12.73 H 20.49 Q 20.24,12.73 19.99,12.82 19.75,12.91 19.57,13.09 19.38,13.26 19.27,13.51 19.16,13.76 19.16,14.06 V 14.98 Q 19.16,15.28 19.27,15.53 19.38,15.77 19.56,15.95 19.75,16.12 19.99,16.21 20.23,16.31 20.49,16.3 H 22.32 Q 22.62,16.3 22.86,16.21 23.11,16.11 23.28,15.93 23.45,15.75 23.55,15.51 23.64,15.27 23.64,14.98 Z M 23.2,13.32 Q 23.26,13.41 23.28,13.51 23.3,13.61 23.28,13.7 23.26,13.8 23.2,13.88 23.15,13.96 23.06,14.02 L 20.31,15.86 Q 20.25,15.91 20.18,15.93 20.11,15.94 20.03,15.94 19.91,15.94 19.79,15.89 19.68,15.83 19.61,15.72 19.55,15.63 19.53,15.53 19.51,15.43 19.53,15.34 19.55,15.24 19.6,15.16 19.66,15.07 19.75,15.02 L 22.5,13.18 Q 22.58,13.12 22.68,13.11 22.78,13.09 22.88,13.11 22.97,13.12 23.06,13.18 23.14,13.23 23.2,13.32 Z" />
    <path id="path892" style="-inkscape-font-specification:'Audiowide Bold';fill:#000000" d="M 29.09,14.98 H 27.72 V 16.35 H 26.81 V 14.98 H 25.43 V 14.06 H 26.81 V 12.69 H 27.72 V 14.06 H 29.09 Z" />
    <path id="path894" style="-inkscape-font-specification:'Audiowide Bold';fill:#000000" d="M 31.54,17.32 H 30.52 V 12.73 H 29.6 V 11.72 H 31.54 Z" />
    <path id="path896" style="-inkscape-font-specification:'Audiowide Bold';fill:#000000" d="M 36.36,14.06 H 32.7 V 13.14 H 36.36 Z M 36.36,15.89 H 32.7 V 14.98 H 36.36 Z" />
    <path id="path898" style="-inkscape-font-specification:'Audiowide Bold';fill:#000000" d="M 43.87,14.98 Q 43.87,15.32 43.78,15.63 43.69,15.93 43.53,16.19 43.37,16.46 43.15,16.66 42.93,16.87 42.67,17.02 42.41,17.16 42.12,17.24 41.83,17.32 41.52,17.32 H 39.69 Q 39.38,17.32 39.09,17.24 38.8,17.16 38.54,17.02 38.28,16.87 38.06,16.66 37.84,16.46 37.68,16.19 37.52,15.93 37.43,15.63 37.35,15.32 37.35,14.98 V 14.06 Q 37.35,13.55 37.54,13.12 37.74,12.69 38.06,12.38 38.38,12.07 38.81,11.89 39.23,11.72 39.69,11.72 H 41.52 Q 41.83,11.72 42.12,11.8 42.41,11.87 42.67,12.02 42.93,12.17 43.15,12.37 43.37,12.58 43.53,12.84 43.69,13.11 43.78,13.41 43.87,13.72 43.87,14.06 Z M 42.84,14.06 Q 42.84,13.76 42.74,13.52 42.63,13.27 42.44,13.09 42.26,12.92 42.02,12.82 41.79,12.73 41.52,12.73 H 39.69 Q 39.44,12.73 39.2,12.82 38.96,12.91 38.77,13.09 38.59,13.26 38.47,13.51 38.36,13.76 38.36,14.06 V 14.98 Q 38.36,15.28 38.47,15.53 38.58,15.77 38.77,15.95 38.95,16.12 39.19,16.21 39.43,16.31 39.69,16.3 H 41.52 Q 41.83,16.3 42.07,16.21 42.31,16.11 42.49,15.93 42.66,15.75 42.75,15.51 42.84,15.27 42.84,14.98 Z M 42.4,13.32 Q 42.46,13.41 42.48,13.51 42.5,13.61 42.48,13.7 42.46,13.8 42.4,13.88 42.35,13.96 42.26,14.02 L 39.52,15.86 Q 39.45,15.91 39.38,15.93 39.31,15.94 39.24,15.94 39.11,15.94 39,15.89 38.88,15.83 38.81,15.72 38.75,15.63 38.74,15.53 38.72,15.43 38.73,15.34 38.75,15.24 38.81,15.16 38.86,15.07 38.95,15.02 L 41.7,13.18 Q 41.79,13.12 41.88,13.11 41.99,13.09 42.08,13.11 42.18,13.12 42.26,13.18 42.34,13.23 42.4,13.32 Z" />
  </g>
</svg>
