<?xml version="1.0" encoding="UTF-8" standalone="no"?>
<svg xmlns:dc="http://purl.org/dc/elements/1.1/" xmlns:cc="http://creativecommons.org/ns#" xmlns:rdf="http://www.w3.org/1999/02/22-rdf-syntax-ns#" xmlns:svg="http://www.w3.org/2000/svg" xmlns="http://www.w3.org/2000/svg" xmlns:sodipodi="http://sodipodi.sourceforge.net/DTD/sodipodi-0.dtd" xmlns:inkscape="http://www.inkscape.org/namespaces/inkscape" inkscape:version="1.0beta2 (2b71d25d45, 2019-12-03)" sodipodi:docname="torchlight-2.svg" id="svg18" version="1" height="48" width="48">
  <metadata id="metadata24">
    <rdf:RDF>
      <cc:Work rdf:about="">
        <dc:format>image/svg+xml</dc:format>
        <dc:type rdf:resource="http://purl.org/dc/dcmitype/StillImage" />
      </cc:Work>
    </rdf:RDF>
  </metadata>
  <defs id="defs22" />
  <sodipodi:namedview inkscape:current-layer="svg18" inkscape:cy="24" inkscape:cx="24" inkscape:zoom="16.09" showgrid="false" id="namedview20" inkscape:window-height="480" inkscape:window-width="640" inkscape:pageshadow="2" inkscape:pageopacity="0" guidetolerance="10" gridtolerance="10" objecttolerance="10" borderopacity="1" inkscape:document-rotation="0" bordercolor="#666666" pagecolor="#ffffff" />
  <rect id="rect2" transform="matrix(0,-1,-1,0,0,0)" ry="20" rx="20" y="-44" x="-44" height="40" width="40" style="fill:#4f4f4f" />
  <path id="path4" d="M 6,4 C 4.892,4 4,4.892 4,6 L 4,7 C 4,5.892 4.892,5 6,5 l 36,0 c 1.108,0 2,0.892 2,2 L 44,6 C 44,4.892 43.108,4 42,4 L 6,4 Z" style="opacity:0.1;fill:#ffffff" />
  <path id="path8" d="m 14,10 0,8 c 0,-1 2.464563,-3 4,-3 l 4,0 0,19 -2,3 8,0 -2,-3 0,-13.642578 C 26.827377,14.51157 29.757595,13.039407 33.949219,12 L 15.697266,12 14,10 Z m -4,11 2,3 0,13 -2,3 10,0 -2,-3 0,-13 2,-3 -10,0 z m 18,0 2,3 0,13 -2,3 10,0 -2,-3 0,-13 2,-3 -10,0 z" style="opacity:0.2" />
  <path id="path10" d="m 14,9 0,8 c 0,-1 2.464563,-3 4,-3 l 4,0 0,19 -2,3 8,0 -2,-3 0,-13.641874 C 26.827377,13.512274 29.75754,12.039407 33.949164,11 l -18.252801,0 z" style="fill:#ff8e19" />
  <path id="path12" d="m 10,20 10,0 -2,3 0,13 2,3 -10,0 2,-3 0,-13 z" style="fill:#1289db" />
  <path id="path14" d="m 28,20 10,0 -2,3 0,13 2,3 -10,0 2,-3 0,-13 z" style="fill:#1289db" />
  <path id="path16" d="M 14 9 L 14 10 L 15.697266 12 L 30.886719 12 C 31.808361 11.587219 32.832659 11.276876 33.949219 11 L 15.697266 11 L 14 9 z M 10 20 L 10.666016 21 L 19.333984 21 L 20 20 L 10 20 z M 28 20 L 28.666016 21 L 37.333984 21 L 38 20 L 28 20 z M 22 33 L 20 36 L 20.666016 36 L 22 34 L 22 33 z M 26 33 L 26 34 L 27.333984 36 L 28 36 L 26 33 z M 12 36 L 10 39 L 10.666016 39 L 12 37 L 12 36 z M 18 36 L 18 37 L 19.333984 39 L 20 39 L 18 36 z M 30 36 L 28 39 L 28.666016 39 L 30 37 L 30 36 z M 36 36 L 36 37 L 37.333984 39 L 38 39 L 36 36 z" style="opacity:0.1;fill:#ffffff" />
</svg>
