<?xml version="1.0" encoding="UTF-8" standalone="no"?>
<svg xmlns:dc="http://purl.org/dc/elements/1.1/" xmlns:cc="http://creativecommons.org/ns#" xmlns:rdf="http://www.w3.org/1999/02/22-rdf-syntax-ns#" xmlns:svg="http://www.w3.org/2000/svg" xmlns="http://www.w3.org/2000/svg" xmlns:sodipodi="http://sodipodi.sourceforge.net/DTD/sodipodi-0.dtd" xmlns:inkscape="http://www.inkscape.org/namespaces/inkscape" inkscape:version="1.0beta2 (2b71d25d45, 2019-12-03)" sodipodi:docname="unturned.svg" id="svg26" version="1" height="48" width="48">
  <metadata id="metadata32">
    <rdf:RDF>
      <cc:Work rdf:about="">
        <dc:format>image/svg+xml</dc:format>
        <dc:type rdf:resource="http://purl.org/dc/dcmitype/StillImage" />
      </cc:Work>
    </rdf:RDF>
  </metadata>
  <defs id="defs30" />
  <sodipodi:namedview inkscape:current-layer="svg26" inkscape:cy="24" inkscape:cx="24" inkscape:zoom="16.09" showgrid="false" id="namedview28" inkscape:window-height="480" inkscape:window-width="640" inkscape:pageshadow="2" inkscape:pageopacity="0" guidetolerance="10" gridtolerance="10" objecttolerance="10" borderopacity="1" inkscape:document-rotation="0" bordercolor="#666666" pagecolor="#ffffff" />
  <circle r="23.33" cy="24" cx="24" id="path857" style="fill:#a3c0a6;stroke-width:0.4" />
  <path id="path4" d="M 6,4 C 4.892,4 4,4.892 4,6 L 4,7 C 4,5.892 4.892,5 6,5 l 36,0 c 1.108,0 2,0.892 2,2 L 44,6 C 44,4.892 43.108,4 42,4 L 6,4 Z" style="opacity:0.2;fill:#ffffff" />
  <path id="path8" style="opacity:0.2;fill-rule:evenodd" d="m 8,22 0,4 4,0 0,-4 -4,0 z" />
  <path id="path10" d="m 8,21 0,4 4,0 0,-4 -4,0 z" style="fill:#3f3f3f;fill-rule:evenodd" />
  <path id="path12" style="opacity:0.2;fill-rule:evenodd" d="m 36,22 0,4 4,0 0,-4 -4,0 z" />
  <path id="path14" d="m 36,21 0,4 4,0 0,-4 -4,0 z" style="fill:#3f3f3f;fill-rule:evenodd" />
  <path id="path16" style="opacity:0.2;fill-rule:evenodd" d="m 18,29 0,2 11,0 0,-2 -11,0 z m 11,2 0,2 3,0 0,2 -17,0 0,-2 3,0 0,-2 -3,0 -2,0 0,4 -2,0 0,5 2,0 0,-3 19,0 0,4 2,0 0,-10 -2,0 -3,0 z" />
  <path id="path18" d="m 18,28 0,2 11,0 0,-2 -11,0 z m 11,2 0,2 3,0 0,2 -17,0 0,-2 3,0 0,-2 -3,0 -2,0 0,4 -2,0 0,5 2,0 0,-3 19,0 0,4 2,0 0,-10 -2,0 -3,0 z" style="fill:#3f3f3f;fill-rule:evenodd" />
  <path id="path20" style="opacity:0.2;fill-rule:evenodd" d="m 18,31 0,2 -3,0 0,2 3,0 11,0 3,0 0,-2 -3,0 0,-2 -11,0 z" />
  <path id="path22" d="m 18,30 0,2 -3,0 0,2 3,0 11,0 3,0 0,-2 -3,0 0,-2 -11,0 z" style="fill:#c03c3c;fill-rule:evenodd" />
  <path id="path24" d="M 18 30 L 18 31 L 29 31 L 29 30 L 18 30 z M 15 32 L 15 33 L 18 33 L 18 32 L 15 32 z M 29 32 L 29 33 L 32 33 L 32 32 L 29 32 z" style="opacity:0.1;fill:#ffffff;fill-rule:evenodd" />
</svg>
