<?xml version="1.0" encoding="UTF-8" standalone="no"?>
<svg xmlns:dc="http://purl.org/dc/elements/1.1/" xmlns:cc="http://creativecommons.org/ns#" xmlns:rdf="http://www.w3.org/1999/02/22-rdf-syntax-ns#" xmlns:svg="http://www.w3.org/2000/svg" xmlns="http://www.w3.org/2000/svg" xmlns:sodipodi="http://sodipodi.sourceforge.net/DTD/sodipodi-0.dtd" xmlns:inkscape="http://www.inkscape.org/namespaces/inkscape" inkscape:version="1.0beta2 (2b71d25d45, 2019-12-03)" sodipodi:docname="usb.svg" id="svg12" version="1.1" height="64" width="64">
  <metadata id="metadata18">
    <rdf:RDF>
      <cc:Work rdf:about="">
        <dc:format>image/svg+xml</dc:format>
        <dc:type rdf:resource="http://purl.org/dc/dcmitype/StillImage" />
      </cc:Work>
    </rdf:RDF>
  </metadata>
  <defs id="defs16" />
  <sodipodi:namedview inkscape:current-layer="svg12" inkscape:cy="32" inkscape:cx="32" inkscape:zoom="12.07" showgrid="false" id="namedview14" inkscape:window-height="480" inkscape:window-width="640" inkscape:pageshadow="2" inkscape:pageopacity="0" guidetolerance="10" gridtolerance="10" objecttolerance="10" borderopacity="1" inkscape:document-rotation="0" bordercolor="#666666" pagecolor="#ffffff" />
  <rect id="rect4" ry="29.26" rx="29.26" y="2.74" x="2.74" height="58.52" width="58.52" style="fill:#2d48a6;stroke-width:1.045" />
  <path id="path6" d="M 32,10.800781 25,22 h 4 V 36 H 20.800781 V 32.302734 A 6,6 0 0 0 24,27 a 6,6 0 0 0 -6,-6 6,6 0 0 0 -6,6 6,6 0 0 0 3.199219,5.302734 V 36 c 0,5.6 5.601562,6 5.601562,6 H 29 v 3.8125 A 6,6 0 0 0 26,51 a 6,6 0 0 0 6,6 6,6 0 0 0 6,-6 6,6 0 0 0 -3,-5.189453 V 42 h 8.199219 c 0,0 5.601562,-0.4 5.601562,-6 V 33 H 49.5 c 1.385,0 2.5,-1.115 2.5,-2.5 v -7 C 52,22.115 50.885,21 49.5,21 h -7 C 41.115,21 40,22.115 40,23.5 v 7 c 0,1.385 1.115,2.5 2.5,2.5 h 0.699219 v 3 H 35 V 22 h 4 z" style="opacity:0.2" />
  <path id="path8" d="M 32 9.8007812 L 25 21 L 29 21 L 29 35 L 20.800781 35 L 20.800781 31.302734 A 6 6 0 0 0 24 26 A 6 6 0 0 0 18 20 A 6 6 0 0 0 12 26 A 6 6 0 0 0 15.199219 31.302734 L 15.199219 35 C 15.199219 40.6 20.800781 41 20.800781 41 L 29 41 L 29 44.8125 A 6 6 0 0 0 26 50 A 6 6 0 0 0 32 56 A 6 6 0 0 0 38 50 A 6 6 0 0 0 35 44.810547 L 35 41 L 43.199219 41 C 43.199219 41 48.800781 40.6 48.800781 35 L 48.800781 32 L 49.5 32 C 50.885 32 52 30.885 52 29.5 L 52 22.5 C 52 21.115 50.885 20 49.5 20 L 42.5 20 C 41.115 20 40 21.115 40 22.5 L 40 29.5 C 40 30.885 41.115 32 42.5 32 L 43.199219 32 L 43.199219 35 L 35 35 L 35 21 L 39 21 L 32 9.8007812 z" style="fill:#ffffff" />
  <path id="path10" d="M 20.800781 4 C 11.493582 4 4 11.493582 4 20.800781 L 4 21.800781 C 4 12.493582 11.493582 5 20.800781 5 L 43.199219 5 C 52.506418 5 60 12.493582 60 21.800781 L 60 20.800781 C 60 11.493582 52.506418 4 43.199219 4 L 20.800781 4 z" style="fill:#ffffff;opacity:0.1" />
</svg>
