<?xml version="1.0" encoding="UTF-8" standalone="no"?>
<svg xmlns:dc="http://purl.org/dc/elements/1.1/" xmlns:cc="http://creativecommons.org/ns#" xmlns:rdf="http://www.w3.org/1999/02/22-rdf-syntax-ns#" xmlns:svg="http://www.w3.org/2000/svg" xmlns="http://www.w3.org/2000/svg" xmlns:sodipodi="http://sodipodi.sourceforge.net/DTD/sodipodi-0.dtd" xmlns:inkscape="http://www.inkscape.org/namespaces/inkscape" inkscape:version="1.0beta2 (2b71d25d45, 2019-12-03)" sodipodi:docname="vdrift.svg" id="svg14" version="1.1" height="64" width="64">
  <metadata id="metadata20">
    <rdf:RDF>
      <cc:Work rdf:about="">
        <dc:format>image/svg+xml</dc:format>
        <dc:type rdf:resource="http://purl.org/dc/dcmitype/StillImage" />
      </cc:Work>
    </rdf:RDF>
  </metadata>
  <defs id="defs18" />
  <sodipodi:namedview inkscape:current-layer="svg14" inkscape:cy="32" inkscape:cx="32" inkscape:zoom="12.07" showgrid="false" id="namedview16" inkscape:window-height="480" inkscape:window-width="640" inkscape:pageshadow="2" inkscape:pageopacity="0" guidetolerance="10" gridtolerance="10" objecttolerance="10" borderopacity="1" inkscape:document-rotation="0" bordercolor="#666666" pagecolor="#ffffff" />
  <circle r="29.49" cy="32" cx="32" id="path845" style="fill:#ecf2fa;stroke-width:0.4" />
  <path inkscape:connector-curvature="0" id="path6" d="M 39.59,52.64 C 40.47,52.64 41.18,51.95 41.18,51.09 41.18,44.07 42.5,38.96 43.86,36.91 44.63,35.75 45.22,35.14 46.15,34.7 47.07,34.26 48.71,33.99 51.11,33.99 51.98,33.99 52.69,33.3 52.69,32.45 V 19.78 C 52.69,18.93 51.98,18.24 51.11,18.24 42.48,18.24 34.65,21.97 30.36,28.44 26.15,34.79 25.04,42.5 25.04,51.09 25.04,51.95 25.75,52.64 26.63,52.64 Z" style="fill:#115ccc;fill-rule:evenodd;stroke-width:0.7167" />
  <path id="path8" d="M 59.792969 8 C 47.757693 8 36.836329 13.211981 30.849609 22.238281 C 24.970441 31.102421 23.427734 41.856301 23.427734 53.841797 C 23.42774 53.891928 23.439916 53.939004 23.443359 53.988281 C 23.517315 42.349298 25.111856 31.889207 30.849609 23.238281 C 36.836329 14.211981 47.757693 9 59.792969 9 C 61.011831 9.000118 61.999878 9.9661791 62 11.158203 L 62 10.158203 C 61.999878 8.9661791 61.011831 8.000118 59.792969 8 z" style="fill:#ffffff;fill-rule:evenodd;opacity:0.1" />
  <path inkscape:connector-curvature="0" id="path10" d="M 39.63,52.64 A 1.588,1.59 0 0 0 41.06,50.36 L 25.94,19.13 A 1.588,1.59 0 0 0 24.51,18.24 H 11.27 A 1.588,1.59 0 0 0 9.844,20.52 L 24.97,51.74 A 1.588,1.59 0 0 0 26.4,52.64 Z" style="fill:#3387f5;stroke-width:0.7167" />
</svg>
