<?xml version="1.0" encoding="UTF-8" standalone="no"?>
<svg
   xmlns:dc="http://purl.org/dc/elements/1.1/"
   xmlns:cc="http://creativecommons.org/ns#"
   xmlns:rdf="http://www.w3.org/1999/02/22-rdf-syntax-ns#"
   xmlns:svg="http://www.w3.org/2000/svg"
   xmlns="http://www.w3.org/2000/svg"
   xmlns:sodipodi="http://sodipodi.sourceforge.net/DTD/sodipodi-0.dtd"
   xmlns:inkscape="http://www.inkscape.org/namespaces/inkscape"
   width="64"
   height="64"
   version="1"
   id="svg20"
   sodipodi:docname="wpa_gui.svg"
   inkscape:version="0.92.4 (5da689c313, 2019-01-14)">
  <metadata
     id="metadata26">
    <rdf:RDF>
      <cc:Work
         rdf:about="">
        <dc:format>image/svg+xml</dc:format>
        <dc:type
           rdf:resource="http://purl.org/dc/dcmitype/StillImage" />
        <dc:title></dc:title>
      </cc:Work>
    </rdf:RDF>
  </metadata>
  <defs
     id="defs24" />
  <sodipodi:namedview
     pagecolor="#ffffff"
     bordercolor="#666666"
     borderopacity="1"
     objecttolerance="10"
     gridtolerance="10"
     guidetolerance="10"
     inkscape:pageopacity="0"
     inkscape:pageshadow="2"
     inkscape:window-width="1920"
     inkscape:window-height="1025"
     id="namedview22"
     showgrid="false"
     inkscape:zoom="3.6875"
     inkscape:cx="32"
     inkscape:cy="32"
     inkscape:window-x="0"
     inkscape:window-y="27"
     inkscape:window-maximized="1"
     inkscape:current-layer="svg20" />
  <g
     id="g4559"
     transform="translate(127.78945,13.966101)">
    <path
       id="path4536"
       d="m -66.042372,18.033898 a 29.747075,29.74708 0 0 1 -29.747082,29.747079 29.747075,29.74708 0 0 1 -29.747076,-29.747079 29.747075,29.74708 0 0 1 29.747076,-29.747077 29.747075,29.74708 0 0 1 29.747082,29.747077 z"
       inkscape:connector-curvature="0"
       style="opacity:0.98999999;fill:#4f4f4f;fill-opacity:1;stroke-width:1.50772607" />
  </g>
  <g
     id="g4585"
     transform="translate(-7.0508473,3.7966098)">
    <path
       inkscape:connector-curvature="0"
       id="path8-3"
       d="M 29.164687,44.933747 A 18.200773,18.200773 0 0 1 21.588389,24.520803 18.200773,18.200773 0 0 1 39.003234,11.451306 18.200773,18.200773 0 0 1 56.486274,24.429441 18.200773,18.200773 0 0 1 49.016957,44.881775"
       style="fill:none;stroke:#ececec;stroke-width:5.60023785;stroke-linecap:round;stroke-linejoin:round" />
    <path
       inkscape:connector-curvature="0"
       id="path12-6"
       d="m 33.381469,37.977186 a 10.112456,10.112456 0 0 1 -4.005015,-11.317659 10.112456,10.112456 0 0 1 9.630328,-7.168425 10.112456,10.112456 0 0 1 9.692517,7.084113 10.112456,10.112456 0 0 1 -3.906098,11.352177"
       style="fill:none;stroke:#ececec;stroke-width:5.77854633;stroke-linecap:round;stroke-linejoin:round" />
    <circle
       id="circle16-7"
       r="5"
       cy="29.652655"
       cx="39.05085"
       style="fill:#ffffff" />
  </g>
</svg>
