<?xml version="1.0" encoding="UTF-8" standalone="no"?>
<svg xmlns:dc="http://purl.org/dc/elements/1.1/" xmlns:cc="http://creativecommons.org/ns#" xmlns:rdf="http://www.w3.org/1999/02/22-rdf-syntax-ns#" xmlns:svg="http://www.w3.org/2000/svg" xmlns="http://www.w3.org/2000/svg" xmlns:sodipodi="http://sodipodi.sourceforge.net/DTD/sodipodi-0.dtd" xmlns:inkscape="http://www.inkscape.org/namespaces/inkscape" inkscape:version="1.0beta2 (2b71d25d45, 2019-12-03)" sodipodi:docname="steam_icon_268500.svg" id="svg15" version="1.1" viewBox="0 0 48 48" height="48px" width="48px">
  <metadata id="metadata21">
    <rdf:RDF>
      <cc:Work rdf:about="">
        <dc:format>image/svg+xml</dc:format>
        <dc:type rdf:resource="http://purl.org/dc/dcmitype/StillImage" />
      </cc:Work>
    </rdf:RDF>
  </metadata>
  <defs id="defs19" />
  <sodipodi:namedview inkscape:current-layer="surface1" inkscape:cy="24" inkscape:cx="24" inkscape:zoom="9.31" showgrid="false" id="namedview17" inkscape:window-height="480" inkscape:window-width="640" inkscape:pageshadow="2" inkscape:pageopacity="0" guidetolerance="10" gridtolerance="10" objecttolerance="10" borderopacity="1" inkscape:document-rotation="0" bordercolor="#666666" pagecolor="#ffffff" />
  <g id="surface1">
    <circle r="22.32" cy="24" cx="24" id="path853" style="fill:#e8f2f1;stroke-width:0.4;stroke-opacity:0.7163" />
    <g transform="matrix(0.9049,0,0,0.9049,-1.973,6.536)" id="g851">
      <path style="fill:#b0ebf0;stroke-width:0.7761" d="M 11.76,2.359 15.61,3.129 12.91,3.899 15.33,5.091 26.39,19.3 15.23,33.67 12.53,34.32 14.88,34.33 C 15.61,34.32 15.51,34.6 14.85,34.91 L 11.76,36.24 H 22.54 C 23.07,36.24 23.56,35.97 23.85,35.52 L 30.24,23.92 36.63,35.52 C 36.92,35.97 37.41,36.24 37.94,36.24 H 44.1 C 45.35,36.24 46.08,34.84 45.36,33.82 L 34.09,19.3 45.36,4.782 C 46.08,3.763 45.35,2.359 44.1,2.359 H 37.94 C 37.41,2.359 36.92,2.632 36.63,3.084 L 30.24,14.68 23.85,3.084 C 23.56,2.632 23.07,2.359 22.54,2.359 Z M 11.76,2.359" id="path2" inkscape:connector-curvature="0" />
      <path style="fill:#4ccfe1;stroke-width:0.7761" d="M 17.4,7.75 26.39,19.3 17.42,30.85 H 26.42 L 30.24,23.92 34.06,30.85 H 43.06 L 34.09,19.3 43.06,7.75 H 34.06 L 30.24,14.68 26.42,7.75 Z M 17.4,7.75" id="path4" inkscape:connector-curvature="0" />
      <path style="fill:#23c5d9;stroke-width:0.7761" d="M 20.4,11.6 26.39,19.3 20.41,27 H 28.54 L 30.24,23.92 31.94,27 H 40.07 L 34.09,19.3 40.07,11.6 H 31.94 L 30.24,14.68 28.54,11.6 Z M 20.4,11.6" id="path6" inkscape:connector-curvature="0" />
      <path style="fill:#0097a6;stroke-width:0.7761" d="M 23.39,15.45 26.39,19.3 23.4,23.15 H 37.08 L 34.09,19.3 37.08,15.45 Z M 23.39,15.45" id="path8" inkscape:connector-curvature="0" />
      <path style="fill:#000080;stroke-width:0.7761" d="M 39.48,24.84 C 37.74,24.84 36.01,25.77 36.01,27.63 36.01,27.9 36.15,28.16 36.39,28.3 36.63,28.44 36.93,28.44 37.17,28.3 37.41,28.16 37.56,27.9 37.55,27.63 37.55,25.96 41.4,25.96 41.4,27.63 41.4,28.29 41.19,28.68 40.78,29.09 40.38,29.5 39.76,29.88 39.08,30.29 38.4,30.7 37.66,31.15 37.05,31.82 36.45,32.49 36.01,33.42 36.01,34.56 36.01,34.98 36.36,35.33 36.78,35.33 H 42.17 C 42.45,35.33 42.71,35.18 42.85,34.94 42.99,34.7 42.99,34.41 42.85,34.17 42.71,33.93 42.45,33.78 42.17,33.79 H 37.66 C 37.77,33.42 37.94,33.13 38.2,32.85 38.6,32.4 39.21,32.01 39.88,31.61 40.55,31.2 41.27,30.78 41.88,30.17 42.48,29.56 42.94,28.69 42.94,27.63 42.94,25.77 41.21,24.84 39.48,24.84 Z M 39.48,24.84" id="path12" inkscape:connector-curvature="0" />
    </g>
  </g>
</svg>
