<?xml version="1.0" encoding="UTF-8" standalone="no"?>
<svg xmlns:dc="http://purl.org/dc/elements/1.1/" xmlns:cc="http://creativecommons.org/ns#" xmlns:rdf="http://www.w3.org/1999/02/22-rdf-syntax-ns#" xmlns:svg="http://www.w3.org/2000/svg" xmlns="http://www.w3.org/2000/svg" xmlns:xlink="http://www.w3.org/1999/xlink" xmlns:sodipodi="http://sodipodi.sourceforge.net/DTD/sodipodi-0.dtd" xmlns:inkscape="http://www.inkscape.org/namespaces/inkscape" inkscape:version="1.0beta2 (2b71d25d45, 2019-12-03)" sodipodi:docname="mate-panel-force-quit.svg" id="svg46" version="1.1" height="48" width="48">
  <metadata id="metadata50">
    <rdf:RDF>
      <cc:Work rdf:about="">
        <dc:format>image/svg+xml</dc:format>
        <dc:type rdf:resource="http://purl.org/dc/dcmitype/StillImage" />
      </cc:Work>
    </rdf:RDF>
  </metadata>
  <sodipodi:namedview inkscape:current-layer="svg46" inkscape:cy="24" inkscape:cx="24" inkscape:zoom="16.09" showgrid="false" id="namedview48" inkscape:window-height="480" inkscape:window-width="640" inkscape:pageshadow="2" inkscape:pageopacity="0" guidetolerance="10" gridtolerance="10" objecttolerance="10" borderopacity="1" inkscape:document-rotation="0" bordercolor="#666666" pagecolor="#ffffff" />
  <defs id="defs26">
    <linearGradient spreadMethod="pad" gradientTransform="translate(-384.57,-499.8)" gradientUnits="userSpaceOnUse" x2="407.69" y2="504.13" x1="407.63" y1="543.77" id="a">
      <stop id="stop2" stop-color="#c6cdd1" />
      <stop id="stop4" stop-color="#e0e5e7" offset="1" />
    </linearGradient>
    <linearGradient gradientUnits="userSpaceOnUse" x2="38.26" y2="35.796" x1="29.439" y1="26.03" id="d">
      <stop id="stop7" stop-color="#292c2f" />
      <stop id="stop9" stop-opacity="0" stop-color="#292c2f" offset="1" />
    </linearGradient>
    <linearGradient y2="269.494" x2="657.653" y1="235.149" x1="319.208" gradientUnits="userSpaceOnUse" id="LO">
      <stop id="stop12" offset="0" style="stop-color:#e54c18" />
      <stop id="stop14" offset="1" style="stop-color:#fec350" />
    </linearGradient>
    <linearGradient gradientUnits="userSpaceOnUse" y2="4" x2="25" y1="44" x1="25" id="linearGradient4574" xlink:href="#a" />
    <linearGradient gradientTransform="matrix(1.0014118,0,0,1.0025662,0.01122552,0.43837376)" gradientUnits="userSpaceOnUse" y2="24" x2="36.937" y1="24" x1="10.973" id="linearGradient4582" xlink:href="#a-5" />
    <linearGradient y2="35.796" x2="38.26" y1="26.03" x1="29.439" gradientUnits="userSpaceOnUse" id="linearGradient4584" xlink:href="#d" />
    <linearGradient y2="269.494" x2="657.653" y1="235.149" x1="319.208" gradientTransform="matrix(0.08823783,0,0,0.08717268,-18.921205,3.3914604)" gradientUnits="userSpaceOnUse" id="linearGradient4586" xlink:href="#LO" />
    <linearGradient id="a-5" y1="542.8" y2="503.8" x2="0" gradientUnits="userSpaceOnUse">
      <stop id="stop21" stop-color="#2a2c2f" />
      <stop id="stop23" offset="1" stop-color="#424649" />
    </linearGradient>
  </defs>
  <rect id="rect28" rx="21.4" y="2.6" x="2.6" height="42.8" width="42.8" style="fill:#e8eef1;stroke-width:1.0699" />
  <g id="g32" transform="translate(-384.57,-499.8)" font-size="12.666" style="font-size:12.666px">
    <text id="text30" x="730.88" y="132.19" style="font-family:'Droid Sans'" />
  </g>
  <path id="path34" style="fill:url(#linearGradient4582)" d="M 11.289781,37.990877 21.106604,25.140893 11,11.012001 l 6.495906,0.0054 8.053174,11.109597 -12.041156,15.863875 -2.218143,0 z M 30.503991,38 22.506415,26.871331 34.647838,11 36.811103,11 26.954217,23.910613 37,38 30.503991,38 Z" />
  <rect id="rect36" x="45.98" y="22.53" width=".045" height="0" style="opacity:0.4074;fill:#000cff" />
  <g id="g42" />
  <path id="path44" style="fill:url(#linearGradient4586)" d="m 23.998621,15.929203 c -0.780996,0 -1.615396,0.05974 -2.366548,0.13098 1.338208,1.724274 2.448606,3.184374 3.726536,4.842605 -0.717264,-1.524905 -2.191443,-2.987197 -1.68181,-3.739243 0.504471,-0.744427 1.433959,-0.619128 1.50476,-0.619128 1.490204,0 2.924665,0.166272 4.265748,0.474001 l 0.314347,-0.427691 c -1.788652,-0.45489 -3.731444,-0.661524 -5.763033,-0.661524 z m 8.071004,1.391595 -0.28953,0.408622 c 4.131807,1.598454 6.926669,4.651561 6.926669,8.150646 0,5.152431 -6.058837,9.332924 -13.525205,9.332924 -7.466367,0 -13.527962,-4.180494 -13.527962,-9.332924 1e-6,-2.805893 1.797544,-5.32451 4.640758,-7.03647 l -0.874106,-1.315762 c -4.460081,1.868269 -7.4202488,5.147514 -7.4202497,8.880716 0,5.808636 7.1668967,10.520653 15.9986217,10.520653 8.831723,0 16.001378,-4.712016 16.001379,-10.520653 0,-3.873337 -3.187376,-7.260827 -7.930375,-9.087752 z" />
</svg>
