<?xml version="1.0" encoding="UTF-8" standalone="no"?>
<svg
   xmlns:dc="http://purl.org/dc/elements/1.1/"
   xmlns:cc="http://creativecommons.org/ns#"
   xmlns:rdf="http://www.w3.org/1999/02/22-rdf-syntax-ns#"
   xmlns:svg="http://www.w3.org/2000/svg"
   xmlns="http://www.w3.org/2000/svg"
   xmlns:sodipodi="http://sodipodi.sourceforge.net/DTD/sodipodi-0.dtd"
   xmlns:inkscape="http://www.inkscape.org/namespaces/inkscape"
   inkscape:version="1.0beta2 (2b71d25d45, 2019-12-03)"
   sodipodi:docname="folder-tux.svg"
   id="SVGRoot"
   version="1.1"
   viewBox="0 0 64 64"
   height="64px"
   width="64px">
  <sodipodi:namedview
     inkscape:document-rotation="0"
     inkscape:snap-global="false"
     inkscape:snap-to-guides="false"
     inkscape:snap-grids="false"
     inkscape:snap-page="true"
     inkscape:snap-object-midpoints="true"
     inkscape:grid-bbox="true"
     inkscape:lockguides="true"
     inkscape:window-maximized="1"
     inkscape:window-y="21"
     inkscape:window-x="0"
     inkscape:window-height="1027"
     inkscape:window-width="1920"
     units="px"
     inkscape:pagecheckerboard="false"
     inkscape:showpageshadow="false"
     showgrid="false"
     inkscape:current-layer="g972"
     inkscape:document-units="px"
     inkscape:cy="38.493342"
     inkscape:cx="32"
     inkscape:zoom="15.840402"
     inkscape:pageshadow="2"
     inkscape:pageopacity="0.0"
     borderopacity="1.0"
     bordercolor="#666666"
     pagecolor="#E5E5E5"
     id="base" />
  <defs
     id="defs2">
    <linearGradient
       id="linearGradient4314-5">
      <stop
         id="stop4316-5"
         offset="0"
         style="stop-color:#ff4b00;stop-opacity:1" />
      <stop
         id="stop4318-8"
         offset="1"
         style="stop-color:#ff5500;stop-opacity:1" />
    </linearGradient>
    <linearGradient
       id="linearGradient10433-4">
      <stop
         id="stop10435-7"
         style="stop-color:#d99600;stop-opacity:1"
         offset="0" />
      <stop
         id="stop10437-6"
         style="stop-color:#dfa800;stop-opacity:1"
         offset="1" />
    </linearGradient>
    <filter
       id="filter10487-8"
       style="color-interpolation-filters:sRGB">
      <feGaussianBlur
         id="feGaussianBlur10489-9"
         stdDeviation="1.3416777" />
    </filter>
  </defs>
  <metadata
     id="metadata5">
    <rdf:RDF>
      <cc:Work
         rdf:about="">
        <dc:format>image/svg+xml</dc:format>
        <dc:type
           rdf:resource="http://purl.org/dc/dcmitype/StillImage" />
        <dc:title></dc:title>
        <cc:license
           rdf:resource="http://creativecommons.org/licenses/by-sa/4.0/" />
        <dc:date>2017</dc:date>
        <dc:creator>
          <cc:Agent>
            <dc:title>Cristian Pozzessere &quot;ilnanny&quot;</dc:title>
          </cc:Agent>
        </dc:creator>
        <dc:subject>
          <rdf:Bag>
            <rdf:li>Global language</rdf:li>
          </rdf:Bag>
        </dc:subject>
        <dc:description>Playing with Inkscape on Gnu/Linux O. S.</dc:description>
        <dc:contributor>
          <cc:Agent>
            <dc:title>In the night, alone like a dog.</dc:title>
          </cc:Agent>
        </dc:contributor>
      </cc:Work>
      <cc:License
         rdf:about="http://creativecommons.org/licenses/by-sa/4.0/">
        <cc:permits
           rdf:resource="http://creativecommons.org/ns#Reproduction" />
        <cc:permits
           rdf:resource="http://creativecommons.org/ns#Distribution" />
        <cc:requires
           rdf:resource="http://creativecommons.org/ns#Notice" />
        <cc:requires
           rdf:resource="http://creativecommons.org/ns#Attribution" />
        <cc:permits
           rdf:resource="http://creativecommons.org/ns#DerivativeWorks" />
        <cc:requires
           rdf:resource="http://creativecommons.org/ns#ShareAlike" />
      </cc:License>
    </rdf:RDF>
  </metadata>
  <g
     inkscape:label="Layer 1"
     inkscape:groupmode="layer"
     id="layer1">
    <g
       transform="matrix(0.984375,0,0,0.96296292,-3.1992191,-18.562364)"
       id="g938">
      <g
         transform="matrix(0.99514741,0,0,1,0.64471561,-1.0384589)"
         id="g1521">
        <g
           id="g852">
          <rect
             style="opacity:1;fill:#777777;fill-opacity:1;fill-rule:nonzero;stroke:#5f5e5c;stroke-width:1.36143422;stroke-linecap:square;stroke-linejoin:bevel;stroke-miterlimit:4;stroke-dasharray:none;stroke-opacity:1;paint-order:markers stroke fill"
             id="rect817"
             width="63.980831"
             height="55.789837"
             x="3.259584"
             y="26.558754" />
          <rect
             y="-67.240417"
             x="43.239227"
             height="1.9279207"
             width="39.113285"
             id="rect1500"
             style="opacity:1;fill:#fefbfb;fill-opacity:0.75478929;fill-rule:nonzero;stroke:none;stroke-width:0.06918984;stroke-linecap:square;stroke-linejoin:bevel;stroke-miterlimit:4;stroke-dasharray:none;stroke-opacity:0.79607843;paint-order:markers stroke fill"
             transform="rotate(90)" />
          <rect
             transform="rotate(90)"
             style="opacity:1;fill:#fefbfb;fill-opacity:0.75478929;fill-rule:nonzero;stroke:none;stroke-width:0.08058518;stroke-linecap:square;stroke-linejoin:bevel;stroke-miterlimit:4;stroke-dasharray:none;stroke-opacity:0.79607843;paint-order:markers stroke fill"
             id="rect1498"
             width="39.113285"
             height="2.6152594"
             x="43.209305"
             y="-5.8748436" />
          <g
             id="g851"
             transform="matrix(0.26717791,0,0,0.37695836,-8.2290657,12.422815)"
             style="opacity:0.69300022">
            <path
               id="rect831"
               d="M 47.995635,54.25 H 277.46902 V 85.090837 H 47.995635 Z"
               style="opacity:1;fill:#f8fafa;fill-opacity:1;fill-rule:nonzero;stroke:none;stroke-width:0.67029333;stroke-linecap:square;stroke-linejoin:bevel;stroke-miterlimit:4;stroke-dasharray:none;stroke-opacity:0.79607843;paint-order:markers stroke fill"
               inkscape:connector-curvature="0" />
            <path
               sodipodi:nodetypes="cccc"
               inkscape:connector-curvature="0"
               id="path1496"
               d="M 277.46902,75.592181 244.49991,54.25 v 21.342181 z"
               style="opacity:1;fill:#93a2a5;fill-opacity:1;fill-rule:nonzero;stroke:none;stroke-width:0.21135312;stroke-linecap:square;stroke-linejoin:bevel;stroke-miterlimit:4;stroke-dasharray:none;stroke-opacity:0.79607843;paint-order:markers stroke fill" />
          </g>
          <g
             transform="matrix(0.92930117,0,0,0.97367239,2.5265655,4.0162188)"
             style="fill:#777777;fill-opacity:1;stroke:#777777;stroke-width:1.16166735;stroke-miterlimit:4;stroke-dasharray:none;stroke-opacity:1"
             id="g1484">
            <path
               inkscape:connector-curvature="0"
               d="m 5.056055,36.025647 h 24.762237 l 3.746032,4.177904 H 5.056055 Z M 3.25,40.203551 h 64 v 40.250917 h -64 z"
               style="opacity:1;fill:#777777;fill-opacity:1;fill-rule:nonzero;stroke:#777777;stroke-width:1.16166735;stroke-linecap:square;stroke-linejoin:bevel;stroke-miterlimit:4;stroke-dasharray:none;stroke-opacity:1;paint-order:markers stroke fill"
               id="rect821"
               sodipodi:nodetypes="cccccccccc" />
          </g>
          <rect
             y="28.096727"
             x="5.7145939"
             height="3.0460732"
             width="5.3264122"
             id="rect825"
             style="opacity:1;fill:#ffcc00;fill-opacity:0.99315072;fill-rule:nonzero;stroke:none;stroke-width:0.47680542;stroke-linecap:square;stroke-linejoin:bevel;stroke-miterlimit:4;stroke-dasharray:none;stroke-opacity:1;paint-order:markers stroke fill" />
          <rect
             style="opacity:1;fill:#ff0084;fill-opacity:0.99315072;fill-rule:nonzero;stroke:none;stroke-width:0.47680542;stroke-linecap:square;stroke-linejoin:bevel;stroke-miterlimit:4;stroke-dasharray:none;stroke-opacity:1;paint-order:markers stroke fill"
             id="rect827"
             width="5.3264122"
             height="3.0460732"
             x="13.652818"
             y="28.096727" />
          <rect
             y="28.096727"
             x="21.59104"
             height="3.0460732"
             width="5.3264122"
             id="rect829"
             style="opacity:1;fill:#aad450;fill-opacity:0.99315072;fill-rule:nonzero;stroke:none;stroke-width:0.47680542;stroke-linecap:square;stroke-linejoin:bevel;stroke-miterlimit:4;stroke-dasharray:none;stroke-opacity:1;paint-order:markers stroke fill" />
          <rect
             y="78.956886"
             x="3.1380224"
             height="1.9870082"
             width="64.143631"
             id="rect855"
             style="opacity:0.704;fill:#E5E5E5;fill-opacity:0.99657533;fill-rule:nonzero;stroke:none;stroke-width:0.0899523;stroke-linecap:square;stroke-linejoin:bevel;stroke-miterlimit:4;stroke-dasharray:none;stroke-opacity:0.79607843;paint-order:markers stroke fill" />
          <rect
             style="opacity:0.597;fill:#E5E5E5;fill-opacity:0.96907217;fill-rule:nonzero;stroke:none;stroke-width:0.09005686;stroke-linecap:square;stroke-linejoin:bevel;stroke-miterlimit:4;stroke-dasharray:none;stroke-opacity:0.79607843;paint-order:markers stroke fill"
             id="rect853"
             width="64.292816"
             height="1.9870082"
             x="3.1380224"
             y="80.455818" />
          <rect
             y="43.691528"
             x="8.0103283"
             height="1.0598483"
             width="54.548206"
             id="rect1504"
             style="opacity:0.704;fill:#fcfdff;fill-opacity:1;fill-rule:nonzero;stroke:none;stroke-width:0.06058259;stroke-linecap:square;stroke-linejoin:bevel;stroke-miterlimit:4;stroke-dasharray:none;stroke-opacity:0.79607843;paint-order:markers stroke fill" />
          <rect
             style="opacity:0.597;fill:#000207;fill-opacity:1;fill-rule:nonzero;stroke:none;stroke-width:0.06058259;stroke-linecap:square;stroke-linejoin:bevel;stroke-miterlimit:4;stroke-dasharray:none;stroke-opacity:0.79607843;paint-order:markers stroke fill"
             id="rect1523"
             width="54.548206"
             height="1.0598483"
             x="8.0103283"
             y="45.030849" />
          <g
             style="fill:#E5E5E5"
             transform="matrix(0.7988477,0,0,0.81264788,16.243288,43.60979)"
             id="g1126" />
          <g
             id="g943"
             style="display:inline;stroke:none"
             transform="matrix(0.40677906,0,0,0.41428316,79.362475,45.598307)">
            <g
               id="g972"
               transform="translate(10.428905,0.29448669)">
              <path
                 sodipodi:nodetypes="cccccccccssccccccscccccccccccccccc"
                 style="color:#E5E5E5;font-style:normal;font-variant:normal;font-weight:normal;font-stretch:normal;font-size:medium;line-height:normal;font-family:AlArabiya;-inkscape-font-specification:AlArabiya;text-indent:0;text-align:start;text-decoration:none;text-decoration-line:none;letter-spacing:normal;word-spacing:normal;text-transform:none;writing-mode:lr-tb;direction:ltr;text-anchor:start;display:inline;overflow:visible;visibility:visible;opacity:0.918;fill:#E5E5E5;fill-opacity:0.682482;stroke:#f7fbff;stroke-width:0.679516;stroke-miterlimit:4;stroke-dasharray:none;stroke-opacity:0.524904;marker:none;enable-background:accumulate"
                 id="path3562"
                 d="m -137.6372,5.2375991 c -0.25186,0.00216 -0.50775,0.00507 -0.7599,0.015668 -0.006,-1.24e-5 -0.0106,-1.24e-5 -0.016,0 -13.84565,0.6496034 -23.18659,12.8372219 -24.58616,24.6771009 -0.003,0.01534 0.003,0.03169 0,0.04698 -0.003,0.02111 -0.0136,0.04156 -0.0159,0.06266 h 0.0159 c -0.59784,4.232114 -0.30655,8.674903 0.83906,12.910434 h 6.00009 c -0.65036,-2.436247 -1.0132,-5.045058 -1.0132,-7.755662 0,-13.485692 8.73083,-24.410745 19.48846,-24.410745 8.04345,0 14.93317,6.116523 17.90532,14.837595 0.01,0.02683 0.0226,0.05144 0.0317,0.07834 0.0191,0.05304 0.0445,0.103495 0.0633,0.156679 -0.004,0.006 -0.0122,0.0096 -0.0159,0.01567 0.95019,2.876223 1.48815,6.015645 1.48815,9.32246 -0.25788,8.571049 0.0687,10.112532 0,1.347447 0,-9.767466 8.67826,-17.689172 19.393474,-17.689172 5.495752,0 10.464851,2.089747 13.99496,5.436795 1.991161,1.605215 3.637191,3.593714 4.717758,5.891169 0.02021,0.04224 0.04132,0.08401 0.06332,0.125344 2.047098,3.917308 1.79245,8.552097 0.03166,12.644079 h 7.171625 c 1.496388,-5.020504 1.275764,-10.505293 -1.298173,-15.511322 -0.02077,-0.04041 -0.0264,-0.08498 -0.04747,-0.125343 l -0.0158,0.01565 c -4.500599,-9.43199 -14.904364,-14.655068 -25.076758,-13.94452 v -0.01567 c -0.03739,0.0016 -0.07349,0.01398 -0.110814,0.01567 -5.839152,0.263618 -11.354902,2.783259 -15.562292,6.643232 -2.52187,-4.980305 -6.45684,-9.295294 -11.81021,-12.1897038 -0.021,-0.00543 -0.0421,-0.010652 -0.0633,-0.015668 -3.30607,-1.7110174 -7.03498,-2.6176367 -10.81296,-2.58517 z"
                 inkscape:connector-curvature="0" />
              <path
                 inkscape:connector-curvature="0"
                 id="path3564"
                 d="m -98.253667,19.331805 a 19.401622,17.685559 0 0 0 -19.958993,17.68554 19.401622,17.685559 0 1 0 38.80252,0 19.401622,17.685559 0 0 0 -18.843527,-17.68554 z m -13.779643,11.597293 a 4.8360077,7.4228617 0 0 1 4.70094,7.423506 4.8360077,7.4228617 0 1 1 -9.67188,0 4.8360077,7.4228617 0 0 1 4.97094,-7.423506 z"
                 style="color:#E5E5E5;display:inline;overflow:visible;visibility:visible;opacity:0.918;fill:#f7f7f7;fill-opacity:1;stroke:#E5E5E5;stroke-width:0.679516;stroke-linecap:round;stroke-linejoin:round;stroke-miterlimit:4;stroke-dasharray:none;stroke-dashoffset:0;stroke-opacity:0.188182;marker:none;enable-background:accumulate" />
              <path
                 inkscape:connector-curvature="0"
                 id="path3572"
                 d="m -137.14474,11.240671 a 19.478416,24.41812 0 0 0 -20.02539,24.432573 19.478735,24.41852 0 1 0 38.95747,0 19.478416,24.41812 0 0 0 -18.93208,-24.432573 z m 12.22153,18.446017 a 5.0151377,8.3756932 0 0 1 4.87356,8.378526 5.015207,8.3758089 0 1 1 -10.03041,0 5.0151377,8.3756932 0 0 1 5.15685,-8.378526 z"
                 style="color:#E5E5E5;display:inline;overflow:visible;visibility:visible;opacity:0.918;fill:#fbfbfb;fill-opacity:1;stroke:#E5E5E5;stroke-width:0.679516;stroke-miterlimit:4;stroke-dasharray:none;stroke-opacity:0.188182;marker:none;enable-background:accumulate" />
              <path
                 style="color:#E5E5E5;display:inline;overflow:visible;visibility:visible;fill:none;stroke:none;stroke-width:1.04634;stroke-opacity:1;marker:none;enable-background:accumulate"
                 id="path3586"
                 d="m -118.23708,34.748659 a 20.220021,25.347793 0 1 1 -40.44003,0 20.220021,25.347793 0 1 1 40.44003,0 z"
                 inkscape:connector-curvature="0" />
              <path
                 style="color:#E5E5E5;display:inline;overflow:visible;visibility:visible;fill:none;stroke:none;stroke-width:1.04634;stroke-linecap:round;stroke-linejoin:round;stroke-miterlimit:4;stroke-dasharray:none;stroke-dashoffset:0;stroke-opacity:1;marker:none;enable-background:accumulate"
                 id="path3592"
                 d="m -77.955005,36.143661 a 20.140303,18.358902 0 1 1 -40.280605,0 20.140303,18.358902 0 1 1 40.280605,0 z"
                 inkscape:connector-curvature="0" />
              <path
                 style="opacity:0.918;fill:#ffbf2f;fill-opacity:1;stroke:#E5E5E5;stroke-width:0.679516;stroke-miterlimit:4;stroke-dasharray:none;stroke-opacity:0.193567"
                 id="path3594"
                 d="m -119.5419,47.995281 c -7.83614,0 -16.35443,4.739857 -16.9871,7.003596 -0.58211,2.082847 0.95143,4.139447 1.6623,4.998093 0.71744,0.866568 10.89116,12.543846 11.92104,13.474481 1.02991,0.930628 1.8052,1.692145 3.59632,1.692145 0.82124,0 -0.29122,0 0.52663,0 1.79112,0 2.54124,-0.761517 3.57112,-1.692145 1.0299,-0.930635 11.18778,-12.607913 11.90521,-13.474481 0.71089,-0.858646 2.26025,-2.915246 1.67814,-4.998093 -0.63267,-2.263739 -9.15095,-7.003596 -16.98711,-7.003596 z"
                 inkscape:connector-curvature="0" />
              <path
                 style="fill:none;stroke:none;filter:url(#filter10487-8)"
                 id="path3596"
                 d="m 190.46875,146.40625 c -10.0719,1.02056 -21.93918,3.59082 -28.46875,11.78125 1.07068,6.92565 8.09176,10.76871 11.80545,16.20154 6.01442,6.00067 10.15503,14.78691 18.13205,18.20471 6.97769,-0.23548 9.5786,-8.39931 14.28125,-12.28125 5.24669,-7.49453 14.34439,-13.17431 16.875,-22.1875 -1.91389,-4.69162 -8.20296,-5.61012 -12.125,-8.0625 -6.54536,-2.58051 -13.39616,-4.00879 -20.5,-3.65625 z"
                 inkscape:connector-curvature="0"
                 transform="matrix(0.52589288,0,0,0.52046497,-220.40628,-26.559833)" />
              <path
                 style="fill:none;stroke:none;stroke-width:1.56952;stroke-miterlimit:4;stroke-dasharray:none;stroke-opacity:1"
                 id="path3604"
                 d="m -119.61563,47.541368 c -8.13449,0 -16.97709,4.920318 -17.63384,7.270245 -0.60428,2.162146 0.98764,4.297047 1.72558,5.188385 0.74475,0.89956 11.30581,13.021429 12.37493,13.987496 1.0691,0.96606 1.87392,1.75657 3.73323,1.75657 0.85251,0 -0.30231,0 0.54667,0 1.85932,0 2.63799,-0.79051 3.70709,-1.75657 1.06911,-0.966067 11.61372,-13.087936 12.35848,-13.987496 0.73795,-0.891338 2.34631,-3.026239 1.74202,-5.188385 -0.65675,-2.349927 -9.49935,-7.270245 -17.63384,-7.270245 z"
                 inkscape:connector-curvature="0" />
            </g>
          </g>
        </g>
      </g>
    </g>
  </g>
</svg>
