<?xml version="1.0" encoding="UTF-8" standalone="no"?>
<svg
   xmlns:dc="http://purl.org/dc/elements/1.1/"
   xmlns:cc="http://creativecommons.org/ns#"
   xmlns:rdf="http://www.w3.org/1999/02/22-rdf-syntax-ns#"
   xmlns:svg="http://www.w3.org/2000/svg"
   xmlns="http://www.w3.org/2000/svg"
   xmlns:sodipodi="http://sodipodi.sourceforge.net/DTD/sodipodi-0.dtd"
   xmlns:inkscape="http://www.inkscape.org/namespaces/inkscape"
   inkscape:version="1.0beta2 (2b71d25d45, 2019-12-03)"
   sodipodi:docname="thunderbird-early-bird.svg"
   id="svg23"
   version="1.1"
   width="48"
   height="48">
  <metadata
     id="metadata29">
    <rdf:RDF>
      <cc:Work
         rdf:about="">
        <dc:format>image/svg+xml</dc:format>
        <dc:type
           rdf:resource="http://purl.org/dc/dcmitype/StillImage" />
        <dc:title />
      </cc:Work>
    </rdf:RDF>
  </metadata>
  <defs
     id="defs27" />
  <sodipodi:namedview
     inkscape:snap-global="false"
     inkscape:document-rotation="0"
     inkscape:current-layer="g850"
     inkscape:window-maximized="1"
     inkscape:window-y="21"
     inkscape:window-x="0"
     inkscape:cy="24"
     inkscape:cx="24"
     inkscape:zoom="4.9166667"
     showgrid="true"
     id="namedview25"
     inkscape:window-height="1027"
     inkscape:window-width="1920"
     inkscape:pageshadow="2"
     inkscape:pageopacity="0"
     guidetolerance="10"
     gridtolerance="10"
     objecttolerance="10"
     borderopacity="1"
     bordercolor="#666666"
     pagecolor="#ffffff">
    <inkscape:grid
       id="grid836"
       type="xygrid" />
  </sodipodi:namedview>
  <clipPath
     id="a">
    <rect
       id="rect2"
       y="16.887302"
       x="5"
       width="38"
       ry="1.530404"
       height="30.112698" />
  </clipPath>
  <g
     transform="translate(0.86363686)"
     id="g850">
    <g
       transform="translate(-0.88684263,-1.5847454)"
       id="g861">
      <rect
         style="stroke-width:1.06812"
         id="rect5"
         y="15.542874"
         x="3.2727273"
         width="41.500957"
         ry="1.5987313"
         height="31.457125"
         fill="#efbd9c" />
      <rect
         style="stroke-width:1.06812"
         id="rect7"
         y="15.542874"
         x="3.2727273"
         width="41.500957"
         ry="1.5987313"
         height="31.457125"
         fill="#efbd9c" />
      <rect
         style="fill:#6c848c;fill-opacity:1;stroke-width:1.06812"
         id="rect9"
         y="15.542874"
         x="3.2727273"
         width="41.500957"
         ry="1.5987313"
         height="31.457125"
         fill="#515b6a" />
      <rect
         style="fill:#ebeff9;fill-opacity:1;stroke-width:1.07645"
         id="rect11"
         y="4.1694918"
         x="9.3981543"
         width="27.730619"
         ry="2.089293"
         height="38.651924"
         fill="#c8c4b7" />
      <g
         transform="matrix(1.0921304,0,0,1.0446465,-2.1879252,-2.0983877)"
         id="g21"
         fill-rule="evenodd">
        <g
           id="g17"
           clip-path="url(#a)">
          <path
             inkscape:connector-curvature="0"
             style="fill:#4592c9;fill-opacity:1"
             id="path13"
             fill="#7b889a"
             d="M 43,17 4.9999999,47 H 43 Z" />
          <path
             inkscape:connector-curvature="0"
             style="fill:#7dafd9;fill-opacity:1"
             id="path15"
             fill="#a0a9b6"
             d="M 5,17 43,47 H 5 Z" />
        </g>
        <path
           inkscape:connector-curvature="0"
           id="path19"
           fill="#fff"
           d="m 29,8 c -2.115329,0.1145515 -2.922515,1.6067547 -4,4 v -1 c -2.897353,2.100313 -2.353593,3.414148 -3,5 v -1 c -1.766663,2.990762 -1.369834,4.032876 -2,6 l 7,-10 -6,10 c 2.253175,-0.598809 4.050453,-1.231251 4,-2 h -1 c 1.208746,-0.55506 2.504026,-1.063854 3,-2 h -1 c 1.661059,-1.312283 2.034394,-1.773621 3,-4 h -1 c 1.283445,-1.268233 1.161062,-3.1260062 1,-5 z m -8,13 h -1 c -1.403148,2.083519 -1.422351,3.010095 -2,5 v 1 c 0.557412,-2.059468 1.756935,-4.313736 3,-6 z"
           style="fill:#7eb1e5;fill-opacity:1" />
      </g>
    </g>
  </g>
</svg>
