<?xml version="1.0" encoding="UTF-8" standalone="no"?>
<svg
   xmlns:dc="http://purl.org/dc/elements/1.1/"
   xmlns:cc="http://creativecommons.org/ns#"
   xmlns:rdf="http://www.w3.org/1999/02/22-rdf-syntax-ns#"
   xmlns:svg="http://www.w3.org/2000/svg"
   xmlns="http://www.w3.org/2000/svg"
   xmlns:sodipodi="http://sodipodi.sourceforge.net/DTD/sodipodi-0.dtd"
   xmlns:inkscape="http://www.inkscape.org/namespaces/inkscape"
   height="48"
   width="48"
   version="1.1"
   id="svg6"
   sodipodi:docname="software-sources.svg"
   inkscape:version="1.0beta2 (2b71d25d45, 2019-12-03)">
  <metadata
     id="metadata12">
    <rdf:RDF>
      <cc:Work
         rdf:about="">
        <dc:format>image/svg+xml</dc:format>
        <dc:type
           rdf:resource="http://purl.org/dc/dcmitype/StillImage" />
      </cc:Work>
    </rdf:RDF>
  </metadata>
  <defs
     id="defs10" />
  <sodipodi:namedview
     pagecolor="#ffffff"
     bordercolor="#666666"
     inkscape:document-rotation="0"
     borderopacity="1"
     objecttolerance="10"
     gridtolerance="10"
     guidetolerance="10"
     inkscape:pageopacity="0"
     inkscape:pageshadow="2"
     inkscape:window-width="1920"
     inkscape:window-height="1027"
     id="namedview8"
     showgrid="false"
     inkscape:zoom="14"
     inkscape:cx="24"
     inkscape:cy="24"
     inkscape:window-x="0"
     inkscape:window-y="21"
     inkscape:window-maximized="1"
     inkscape:current-layer="svg6" />
  <rect
     fill="#ac9d93"
     height="43"
     ry="1.452703"
     width="43"
     x="2"
     y="3"
     id="rect2"
     style="fill:#7990a6;fill-opacity:1" />
  <path
     d="m14 4v30l9.636719-10 10.363281 10v-30zm9.869141 1.6464844 2.429687 2.6171875 3.570313-.1328125-.132813 3.5703126 2.617188 2.429687-2.617188 2.431641.132813 3.568359-3.570313-.130859-2.429687 2.617188-2.431641-2.617188-3.568359.130859.130859-3.568359-2.617188-2.431641 2.617188-2.429687-.130859-3.5703126 3.568359.1328125z"
     fill="#fff"
     id="path4" />
  <path
     d="M 3.453125 3 C 2.6483275 3 2 3.6483275 2 4.453125 L 2 16.951172 L 45 16.951172 L 45 4.453125 C 45 3.6483275 44.351672 3 43.546875 3 L 3.453125 3 z "
     style="fill:#ffffff;fill-opacity:0.28486291"
     id="rect831" />
  <path
     style="fill:#000000;fill-opacity:0.12660111"
     d="M 14 16.861328 L 14 34 L 23.636719 24 L 34 34 L 34 16.861328 L 29.748047 16.861328 L 29.869141 20.130859 L 26.298828 20 L 23.869141 22.617188 L 21.4375 20 L 17.869141 20.130859 L 17.988281 16.861328 L 14 16.861328 z "
     id="path841" />
</svg>
