<?xml version="1.0" encoding="UTF-8" standalone="no"?>
<svg
   xmlns:dc="http://purl.org/dc/elements/1.1/"
   xmlns:cc="http://creativecommons.org/ns#"
   xmlns:rdf="http://www.w3.org/1999/02/22-rdf-syntax-ns#"
   xmlns:svg="http://www.w3.org/2000/svg"
   xmlns="http://www.w3.org/2000/svg"
   xmlns:sodipodi="http://sodipodi.sourceforge.net/DTD/sodipodi-0.dtd"
   xmlns:inkscape="http://www.inkscape.org/namespaces/inkscape"
   height="48"
   width="48"
   version="1.1"
   id="svg14"
   sodipodi:docname="zim.svg"
   inkscape:version="1.0beta2 (2b71d25d45, 2019-12-03)">
  <metadata
     id="metadata20">
    <rdf:RDF>
      <cc:Work
         rdf:about="">
        <dc:format>image/svg+xml</dc:format>
        <dc:type
           rdf:resource="http://purl.org/dc/dcmitype/StillImage" />
      </cc:Work>
    </rdf:RDF>
  </metadata>
  <defs
     id="defs18" />
  <sodipodi:namedview
     pagecolor="#ffffff"
     bordercolor="#666666"
     inkscape:document-rotation="0"
     borderopacity="1"
     objecttolerance="10"
     gridtolerance="10"
     guidetolerance="10"
     inkscape:pageopacity="0"
     inkscape:pageshadow="2"
     inkscape:window-width="1920"
     inkscape:window-height="1027"
     id="namedview16"
     showgrid="false"
     inkscape:zoom="14"
     inkscape:cx="24"
     inkscape:cy="21.142857"
     inkscape:window-x="0"
     inkscape:window-y="21"
     inkscape:window-maximized="1"
     inkscape:current-layer="svg14" />
  <g
     transform="translate(-0.8666751,1.6890307)"
     id="g907">
    <path
       id="polyline1560"
       style="display:inline;fill:#b0cae9;fill-opacity:1;stroke:#2a2a2a;stroke-width:0.290215;stroke-linecap:round;stroke-linejoin:round;stroke-miterlimit:4;stroke-dasharray:none;stroke-opacity:1"
       inkscape:transform-center-x="-55.47184"
       inkscape:transform-center-y="16.641739"
       d="m 23.795164,40.771247 -1.007258,-0.0063 -0.984042,-0.05641 L 20.827869,40.60067 19.871463,40.448513 18.919472,40.250628 17.996487,40.006221 17.083689,39.719727 16.199891,39.386715 15.33207,39.015223 14.485997,38.608835 13.665295,38.161736 12.86419,37.670323 12.100023,37.14543 11.348202,36.587834 10.636939,35.991088 9.9495826,35.368741 9.2991557,34.71291 8.6762546,34.025791 8.090292,33.305178 7.5340116,32.562698 7.0146609,31.78672 6.540184,30.990278 6.0953814,30.171959 5.6932927,29.323749 5.3360686,28.455068 5.0143086,27.568121 4.7431946,26.664305 4.5111643,25.736406 4.3297809,24.791642 4.1954146,23.835818 l -0.089499,-0.976301 -0.036702,-0.983754 0.016101,-0.991205 0.060172,-0.971806 0.111503,-0.964024 0.159201,-0.950432 0.212684,-0.933238 0.2509793,-0.917432 0.2950588,-0.898035 0.3391332,-0.87862 0.3832107,-0.859215 0.4178833,-0.837599 0.4677406,-0.81459 L 7.2758894,11.068805 7.8151279,10.306869 8.3854149,9.5723613 8.9903754,8.8594711 9.6227578,8.1798336 10.29559,7.5254114 10.998001,6.9136546 11.725683,6.325729 12.486562,5.7746481 13.271245,5.2626302 14.083344,4.7838594 14.913464,4.3405485 15.77316,3.9398994 16.656658,3.5783081 17.554545,3.257994 l 0.923842,-0.2718383 0.938232,-0.2305645 0.952629,-0.189294 0.97858,-0.1408157 0.979944,-0.091521 1.005897,-0.043046 0.997856,0.00843 0.989813,0.059989 0.973848,0.098459 0.962184,0.1557994 0.942584,0.2000984 0.932391,0.2421912 0.903395,0.2887002 0.887419,0.3271961 0.867825,0.3714995 0.848225,0.4158066 0.820697,0.4470825 0.795319,0.4878014 0.773575,0.522676 0.742419,0.5597679 0.714886,0.591058 0.683737,0.6281501 0.656208,0.6594346 0.622892,0.6871271 0.589594,0.7147946 0.552656,0.7482929 0.517194,0.766558 0.480264,0.800046 0.441169,0.824135 0.399937,0.838789 0.363001,0.872292 0.315978,0.883339 0.273276,0.91323 0.22625,0.924293 0.190786,0.942557 0.134363,0.955829 0.08373,0.972694 0.03885,0.993173 -0.01248,0.985391 -0.06379,0.97762 -0.117282,0.960419 -0.159201,0.950438 -0.203285,0.931022 -0.250979,0.917435 -0.304457,0.900237 -0.33914,0.878621 -0.373804,0.857008 -0.427288,0.839813 -0.458334,0.812383 -0.498792,0.787155 -0.533456,0.765536 -0.573912,0.740319 -0.601338,0.707073 -0.641785,0.681852 -0.669208,0.648613 -0.700255,0.621173 -0.729832,0.578507 -0.755108,0.554679 -0.788298,0.517837 -0.812108,0.478773 -0.835901,0.439706 -0.859698,0.400649 -0.87409,0.359375 -0.903666,0.316715 -0.921691,0.281261 -0.938229,0.230558 -0.958406,0.185693 -0.969179,0.138599 -0.989347,0.09374 -0.99649,0.04084"
       inkscape:connector-curvature="0" />
    <path
       id="polyline1460"
       style="display:inline;fill:#ffffff;fill-opacity:0.816869;fill-rule:evenodd;stroke:#60cae0;stroke-width:0.207296;stroke-linecap:round;stroke-linejoin:round;stroke-miterlimit:4;stroke-dasharray:none;stroke-opacity:1"
       d="m 23.386447,2.3107822 c -2.141202,0.017829 -4.277033,0.3786004 -6.292558,1.09965 -1.400363,0.1147246 -0.223977,0.7419203 -0.87696,1.5142462 -0.187109,1.2273697 -2.833968,2.3256277 -1.424347,3.3969309 0.04496,1.5313135 1.893938,-0.00766 2.153122,-1.0777859 1.483144,-0.835589 2.746709,-2.225733 4.541881,-2.466521 1.537355,0.8147973 3.175747,0.2466291 4.847158,0.288273 1.815555,-0.9718225 3.037998,1.624223 4.657673,1.9345104 -2.664784,0.9025966 0.413627,1.6284423 1.173323,2.7078281 0.571226,1.3855591 3.11412,0.6996521 1.357951,-0.4947612 -1.988896,-0.7099537 0.347862,-1.8477784 0.800845,-0.2623613 0.584896,1.6947576 1.672512,3.1639346 2.025179,4.8334406 1.530261,0.447467 0.552005,1.565864 1.294787,2.7305 1.773505,1.180122 1.377404,-1.688411 0.569255,-2.520772 -1.076288,-0.91529 0.945493,-1.710623 -0.02346,-2.076218 1.457551,-0.442012 0.03658,-1.813322 -0.0146,-3.0293022 L 38.004847,8.5936886 C 34.367267,4.4584307 28.858394,2.2652023 23.38644,2.3107822 Z m 2.44058,7.0440785 c -0.778932,-0.00613 -1.335055,1.0562013 -2.055952,0.4583226 -0.91222,-0.1272073 -1.013635,1.1291977 -0.889911,1.7401687 0.40158,0.704549 1.175025,0.208469 1.063199,-0.470468 0.522372,-0.370255 0.524212,0.949224 1.170896,0.983042 0.656197,0.431605 1.527374,0.778549 1.74015,1.613849 -0.01643,0.685388 0.497146,0.955003 0.693144,1.49319 0.598052,0.623608 1.477536,0.647953 2.18794,0.225113 0.434579,-0.344491 -1.034723,-0.338813 -0.727962,-1.06402 0.0074,-0.840329 0.01935,-1.63812 0.536052,-2.348297 0.08837,-0.816381 -0.839866,-1.278122 -1.408151,-1.69806 C 27.460723,10.056224 26.826498,9.69033 26.175223,9.4309785 26.053714,9.3785538 25.938304,9.3557446 25.827027,9.3548575 Z m -12.164044,0.454274 c -0.706439,-0.027986 -1.453466,0.2220683 -2.022752,0.7376883 -1.088694,0.364633 -1.451303,1.542188 -0.0097,1.682676 1.641459,1.298716 0.448066,3.384435 0.239686,4.996204 -0.263373,1.623754 -1.495687,2.991238 -1.573341,4.639095 -0.07078,1.572231 0.546741,3.080331 1.204905,4.508729 1.118595,1.018243 -0.704168,-2.264953 0.535245,-0.991949 0.683571,1.645608 0.917022,3.826485 2.932909,4.626142 1.804318,0.757612 3.924118,1.245205 5.111945,2.813102 0.727628,0.633262 1.809067,0.975357 2.80578,0.740921 -0.29133,1.307423 -2.35884,3.515753 0.08827,4.094132 1.62385,0.424411 1.783383,3.180047 3.61391,2.655196 3.406954,-0.646852 6.592679,-2.104472 9.306441,-4.060929 -0.160319,-0.926706 2.103229,-3.137764 -0.114988,-2.841436 -2.195655,0.799151 -4.225354,-0.827451 -6.40025,-0.891552 -2.043841,-0.23756 -4.287363,-0.404346 -6.09093,0.598409 -1.652074,0.536624 -2.412893,-0.96403 -2.843027,-1.912638 -0.999167,-0.180544 -1.540627,-1.202046 -1.578205,-1.660818 -1.518199,0.686159 -3.642644,-0.255302 -2.523988,-1.920741 1.020923,-1.231807 3.25671,-1.354966 4.517589,-0.357913 1.605163,1.197811 0.71356,-1.4211 1.83489,-1.895647 1.559829,-1.008574 1.019035,-3.166404 3.098908,-3.6188 1.524338,-0.529186 0.734963,-1.643408 -0.57411,-1.594411 2.051819,-0.05265 2.316917,-2.916391 0.187861,-3.068171 -1.039021,-1.389521 -4.059681,-0.88854 -2.834931,1.03001 -0.303213,1.878168 -2.155126,-0.149096 -2.646259,-0.942558 -1.018808,-1.582676 2.277503,-1.855526 1.45188,-3.389644 -0.697767,-0.436735 -1.237033,-0.636252 -2.129621,-0.670479 0.730982,-1.172186 -2.157889,-2.100565 -1.47941,-0.658333 0.647503,1.535214 -2.126208,-0.250274 -2.050286,-1.132851 -0.309452,-0.981662 -1.150121,-1.4774575 -2.0584,-1.5134343 z m 25.82046,0.5724983 c -0.195455,0.476919 0.45588,1.291783 -0.262357,1.421933 0.351555,0.549502 0.843849,1.026437 0.713386,1.741788 -1.015778,-0.507957 -0.68867,0.842551 -0.718248,1.421932 -0.01134,0.77242 -0.126633,1.492936 -0.395966,2.216307 0.124492,0.595362 0.522084,1.124639 0.600025,1.723166 -0.109745,1.517095 -0.05005,3.10065 0.650224,4.484437 0.297664,0.734541 0.837447,1.501386 1.71019,1.519913 0.242283,-0.66005 0.904102,-1.077065 1.178184,-1.579841 0.452716,-4.545641 -0.762122,-9.260202 -3.475438,-12.949635 z m -5.720067,0.83405 -0.340097,0.159521 0.151425,0.33686 0.353052,0.527151 0.116604,0.378966 0.159518,0.568451 0.538482,0.448607 0.374108,0.03077 -0.151426,-0.336049 -0.465609,-0.411357 -0.03885,-0.23402 0.45994,0.189483 0.498803,0.254264 0.455082,0.146565 -0.0034,-0.381395 0.01619,-0.03887 0.0162,-0.03805 0.0097,-0.0421 9.84e-4,-0.03968 0.0017,-0.08017 -0.0081,-0.07774 -0.01701,-0.07531 -0.01295,-0.05587 -0.01216,-0.0324 -0.0041,-0.01862 L 35.557,12.213303 34.603109,11.812472 34.183701,11.622991 Z m -2.617917,0.273696 -0.493947,0.160333 -0.22187,0.305279 -0.302848,0.08665 0.08827,0.643757 0.226728,0.343336 0.417832,0.179766 0.527952,-0.615415 0.215396,-0.770079 z m -8.2481,1.056734 c -0.116623,-0.01143 -0.22496,0.01381 -0.311755,0.110128 -0.328538,0.142705 -0.20682,0.404699 0.0032,0.587885 0.209799,0.386108 0.661698,0.508506 1.057532,0.608125 0.403385,0.05771 0.727133,0.422753 0.659945,0.838099 0.07155,0.405794 -0.322184,0.581194 -0.588688,0.779798 0.183714,0.126354 0.751576,0.140401 1.066441,0.289081 0.288823,0.133665 0.792566,0.388923 0.975742,0.0024 -0.03384,-0.336351 0.3134,-0.496912 0.336046,-0.778177 -0.131846,-0.377385 -0.405946,-0.668666 -0.80328,-0.766832 -0.349327,-0.138383 -0.424504,-0.524525 -0.574111,-0.824331 -0.410993,-0.21963 -0.824517,-0.435475 -1.239726,-0.64701 -0.171142,-0.06035 -0.387028,-0.180161 -0.581399,-0.199201 z"
       inkscape:connector-curvature="0" />
    <g
       style="display:inline;fill:#000000;stroke:#ffffff;stroke-width:0.135848;stroke-miterlimit:4;stroke-dasharray:none;stroke-opacity:1"
       transform="matrix(0.90591787,0,0,0.90592737,11.88817,-10.126733)"
       id="g840">
      <g
         style="fill:#000000;stroke:#ffffff;stroke-width:0.135848;stroke-miterlimit:4;stroke-dasharray:none;stroke-opacity:1"
         fill="none"
         id="g10">
        <path
           style="fill:#000000;stroke:#ffffff;stroke-width:0.135848;stroke-miterlimit:4;stroke-dasharray:none;stroke-opacity:1"
           inkscape:connector-curvature="0"
           d="M 35,10.5 32.5,13"
           id="path4" />
        <g
           style="opacity:1;stroke:#ffffff;stroke-width:0.135848;stroke-miterlimit:4;stroke-dasharray:none;stroke-opacity:1"
           mask="none"
           clip-path="none"
           id="g949">
          <path
             id="path951"
             d="m 32.5,18 -15,15"
             style="color:#000000;font-style:normal;font-variant:normal;font-weight:normal;font-stretch:normal;font-size:medium;line-height:normal;font-family:sans-serif;font-variant-ligatures:normal;font-variant-position:normal;font-variant-caps:normal;font-variant-numeric:normal;font-variant-alternates:normal;font-variant-east-asian:normal;font-feature-settings:normal;font-variation-settings:normal;text-indent:0;text-align:start;text-decoration:none;text-decoration-line:none;text-decoration-style:solid;text-decoration-color:#000000;letter-spacing:normal;word-spacing:normal;text-transform:none;writing-mode:lr-tb;direction:ltr;text-orientation:mixed;dominant-baseline:auto;baseline-shift:baseline;text-anchor:start;white-space:normal;shape-padding:0;shape-margin:0;inline-size:0;clip-rule:nonzero;display:inline;overflow:visible;visibility:visible;isolation:auto;mix-blend-mode:normal;color-interpolation:sRGB;color-interpolation-filters:linearRGB;solid-color:#000000;solid-opacity:1;vector-effect:none;fill:#000000;fill-opacity:1;fill-rule:nonzero;stroke:#ffffff;stroke-width:0.135848;stroke-linecap:butt;stroke-linejoin:miter;stroke-miterlimit:4;stroke-dasharray:none;stroke-dashoffset:0;stroke-opacity:1;color-rendering:auto;image-rendering:auto;shape-rendering:auto;text-rendering:auto;enable-background:accumulate;stop-color:#000000;stop-opacity:1"
             inkscape:connector-curvature="0" />
          <path
             transform="matrix(0.27169623,0,0,0.27169623,-12.0096,10.18192)"
             d="m 172.03711,7.546875 -9.20117,9.201172 13.01172,13.011719 9.20117,-9.201172 z m -14.7207,14.722656 -55.20899,55.208985 13.01172,13.011718 55.20703,-55.208984 z m -59.746098,59.873047 -5.519531,16.564453 18.402339,-3.68164 z"
             style="color:#000000;font-style:normal;font-variant:normal;font-weight:normal;font-stretch:normal;font-size:medium;line-height:normal;font-family:sans-serif;font-variant-ligatures:normal;font-variant-position:normal;font-variant-caps:normal;font-variant-numeric:normal;font-variant-alternates:normal;font-variant-east-asian:normal;font-feature-settings:normal;font-variation-settings:normal;text-indent:0;text-align:start;text-decoration:none;text-decoration-line:none;text-decoration-style:solid;text-decoration-color:#000000;letter-spacing:normal;word-spacing:normal;text-transform:none;writing-mode:lr-tb;direction:ltr;text-orientation:mixed;dominant-baseline:auto;baseline-shift:baseline;text-anchor:start;white-space:normal;shape-padding:0;shape-margin:0;inline-size:0;clip-rule:nonzero;display:inline;overflow:visible;visibility:visible;isolation:auto;mix-blend-mode:normal;color-interpolation:sRGB;color-interpolation-filters:linearRGB;solid-color:#000000;solid-opacity:1;vector-effect:none;fill:#58687d;fill-opacity:1;fill-rule:nonzero;stroke:#ffffff;stroke-width:0.5;stroke-linecap:butt;stroke-linejoin:miter;stroke-miterlimit:4;stroke-dasharray:none;stroke-dashoffset:0;stroke-opacity:1;color-rendering:auto;image-rendering:auto;shape-rendering:auto;text-rendering:auto;enable-background:accumulate;stop-color:#000000;stop-opacity:1"
             id="path953"
             inkscape:connector-curvature="0" />
        </g>
        <g
           style="opacity:1;stroke:#ffffff;stroke-width:0.135848;stroke-miterlimit:4;stroke-dasharray:none;stroke-opacity:1"
           mask="none"
           clip-path="none"
           id="g955" />
      </g>
    </g>
    <path
       d="M 21.487613,-0.3493268 V 4.7772464 H 35.049526 V -0.3493268 Z M 1.9338652,10.383115 v 5.145802 H 12.943095 V 10.383115 Z M 35.781198,28.274686 v 5.13378 h 12.018287 v -5.13378 z M 2.3785418,33.020993 v 5.1458 h 9.9136422 v -5.1458 z m 15.9429752,7.063456 v 5.133306 h 12.158177 v -5.133306 z"
       style="display:inline;opacity:1;fill:#eff4f2;fill-opacity:1;stroke:#a0a0a0;stroke-width:0.124381;stroke-opacity:1"
       id="rect969"
       inkscape:connector-curvature="0" />
    <path
       d="m 25.38971,1.5803495 c -0.100987,0.00142 -0.210859,0.011274 -0.335071,0.030766 -0.174957,0.036162 -0.344688,0.083706 -0.52015,0.1187414 -0.317089,0.063316 -0.654066,0.080499 -0.980211,0.1091307 l -1.580164,0.7763897 c 0.533512,-0.014579 1.050266,-0.099981 1.557089,-0.2071984 0.41483,-0.085917 0.699083,-0.061028 1.064337,0.081725 0.304373,0.1397489 0.657196,0.173702 1.014826,0.1956593 0.268574,0.01877 0.53647,0.013714 0.804745,-0.00186 l 1.556126,-0.7816804 c -0.2617,0.022152 -0.521387,0.041022 -0.785515,0.021638 C 26.854385,1.9093664 26.515768,1.8980717 26.227143,1.7746314 25.917937,1.6490069 25.692684,1.5761472 25.38971,1.5804146 Z m 4.991914,0.00285 -1.579683,0.7763885 c 0.38885,-0.00438 0.777844,-0.00361 1.166736,-0.00285 0.35405,-0.00105 0.692605,0.069981 1.035975,0.1172999 0.34036,0.02989 0.620195,0.1582784 0.913871,0.2663277 0.193364,0.068525 0.386423,0.1370213 0.577357,0.20864 L 34.122196,2.2317474 C 33.929585,2.1603761 33.742117,2.084684 33.544836,2.0192625 33.231892,1.9143677 32.949525,1.7632404 32.596834,1.7216852 32.241822,1.6804121 31.898426,1.6008063 31.536821,1.5861174 c -0.385045,7.016e-4 -0.770199,0.00153 -1.155197,-0.00285 z M 7.8011914,11.882049 c -0.1815144,0.0051 -0.3630989,0.01039 -0.5437067,0.02451 -0.4149857,0.04247 -0.8186636,0.112699 -1.2095204,0.217293 -0.3776221,0.09814 -0.7494776,0.223898 -1.1672162,0.199024 l -1.5801635,0.77639 c 0.4300514,0.01614 0.829982,-0.06428 1.2253842,-0.167777 0.3830371,-0.10356 0.775834,-0.184873 1.1811571,-0.236041 0.174788,-0.02096 0.3519748,-0.02807 0.5288043,-0.03558 z m 4.2828366,0.885517 c -0.219804,7.72e-4 -0.111072,-1.14e-4 -0.325455,0.0034 -0.352801,0.0097 -0.705734,0.02646 -1.044149,0.100955 -0.41248,0.08875 -0.8084408,0.203176 -1.2162511,0.299018 -0.4325616,0.06045 -0.8826645,0.104215 -1.322972,0.05962 l -1.5960285,0.761014 c 0.4598591,0.04637 0.9234691,0.01507 1.3792185,-0.03461 0.4225513,-0.06356 0.8177527,-0.187016 1.2263455,-0.281713 0.325271,-0.07822 0.6645522,-0.110484 1.0071316,-0.125951 0.210854,-0.0059 0.103964,-0.0032 0.322091,-0.0072 z m 29.991388,16.876253 c -0.164543,0.0063 -0.329023,0.01368 -0.492269,0.02981 -0.332462,0.03171 -0.660913,0.07001 -0.997518,0.07692 -0.378221,0.03662 -0.750004,0.09584 -1.128277,0.132201 -0.434172,0.06012 -0.856669,0.157554 -1.300859,0.174503 l -1.563339,0.791294 c 0.450515,-0.028 0.885067,-0.110761 1.325378,-0.17595 0.371225,-0.04279 0.741227,-0.09202 1.112892,-0.13316 0.33299,-0.02532 0.664937,-0.04441 0.996556,-0.07788 0.160515,-0.01684 0.322437,-0.02743 0.484096,-0.03753 z m 4.672229,1.530181 -0.6038,0.177876 c 0.0959,-0.03726 0.04751,-0.02539 -0.16345,0.04807 l -0.398527,0.116822 c -0.363248,0.06475 -0.723567,0.06847 -1.097989,0.01389 -0.407367,-0.05507 -0.807751,-0.142458 -1.227788,-0.122589 -0.412955,-0.0074 -0.82552,-0.02048 -1.235959,-0.05381 -0.408434,-0.03066 -0.815259,-0.03648 -1.226348,-0.03417 l -1.579683,0.776392 c 0.410811,-0.0076 0.820733,-0.008 1.230192,0.01635 0.412952,0.0329 0.827225,0.05226 1.242691,0.06153 0.411403,-0.01536 0.806826,0.04623 1.205195,0.104796 0.421763,0.06567 0.841397,0.07464 1.264323,0.01536 0.797645,-0.176434 1.522253,-0.542832 2.212327,-0.823018 0.175058,-0.07109 0.276119,-0.183456 0.378816,-0.297576 z M 7.1026891,34.967973 c -0.3637846,0.0049 -0.6984204,0.103965 -1.0571284,0.132201 -0.4132746,7.02e-4 -0.8266002,0.0028 -1.2398063,-0.0028 l -1.5796836,0.776385 c 0.4176142,-0.0056 0.8351077,-0.0042 1.2527865,-0.0035 0.3623079,0.0021 0.7048404,-0.08628 1.0600128,-0.121151 0.3661601,-0.02105 0.7257907,0.02778 1.0787609,0.08797 0.1711628,0.02834 0.3299706,0.07967 0.4893848,0.12884 L 8.7256383,35.239967 C 8.5570412,35.188016 8.3926612,35.128432 8.2141402,35.092898 7.8494375,35.028637 7.4829259,34.963679 7.1026891,34.967902 Z m 4.2852389,1.109545 c -0.222937,0.0028 -0.446148,0.0049 -0.668216,0.01971 -0.387305,0.02743 -0.7630505,0.08914 -1.1470255,0.129802 -0.4556319,0.05542 -0.9097185,0.112711 -1.3652768,0.167769 L 6.6604165,37.20052 c 0.4491563,-0.08298 0.9112779,-0.129942 1.3691224,-0.186052 0.3797839,-0.03676 0.7529209,-0.09791 1.1330838,-0.132678 0.217793,-0.01817 0.4370577,-0.02455 0.6561992,-0.02932 z m 9.20841,5.718835 -1.595548,0.761006 c 0.457272,0.06145 0.880532,0.200568 1.318166,0.304783 0.451283,0.08884 0.915207,0.142422 1.381621,0.177878 0.334523,0.02027 0.167595,0.01179 0.500923,0.02645 l 1.567184,-0.761007 c -0.330611,-0.01115 -0.164748,-0.0042 -0.497076,-0.0202 -0.456575,-0.03017 -0.907122,-0.08454 -1.35326,-0.15672 -0.44827,-0.09602 -0.87758,-0.228241 -1.32201,-0.332191 z m 6.05481,0.107205 -1.61093,0.745622 c 0.455774,0.09964 0.923706,0.16208 1.393641,0.22066 0.392966,0.0602 0.795137,0.08247 1.190292,0.133644 0.191507,0.02364 0.381537,0.04483 0.567261,0.08461 l 1.614778,-0.73505 c -0.190661,-0.05451 -0.38242,-0.08538 -0.588415,-0.101437 -0.398785,-0.05339 -0.802916,-0.0749 -1.20183,-0.12884 -0.45883,-0.06082 -0.928479,-0.09801 -1.364797,-0.219214 z"
       style="display:inline;opacity:1;fill:#0c415a;fill-opacity:1;stroke:#535353;stroke-width:0.101211;stroke-opacity:1"
       id="path979"
       inkscape:connector-curvature="0" />
  </g>
</svg>
