<?xml version="1.0" encoding="UTF-8" standalone="no"?>
<svg
   xmlns:dc="http://purl.org/dc/elements/1.1/"
   xmlns:cc="http://creativecommons.org/ns#"
   xmlns:rdf="http://www.w3.org/1999/02/22-rdf-syntax-ns#"
   xmlns:svg="http://www.w3.org/2000/svg"
   xmlns="http://www.w3.org/2000/svg"
   xmlns:sodipodi="http://sodipodi.sourceforge.net/DTD/sodipodi-0.dtd"
   xmlns:inkscape="http://www.inkscape.org/namespaces/inkscape"
   width="64px"
   height="64px"
   viewBox="0 0 64 64"
   version="1.1"
   id="SVGRoot"
   sodipodi:docname="folder-database.svg"
   inkscape:version="1.0beta2 (2b71d25d45, 2019-12-03)">
  <sodipodi:namedview
     id="base"
     pagecolor="#FFFFFF"
     bordercolor="#666666"
     borderopacity="1.0"
     inkscape:pageopacity="0.0"
     inkscape:pageshadow="2"
     inkscape:zoom="10.748844"
     inkscape:cx="32"
     inkscape:cy="32"
     inkscape:document-units="px"
     inkscape:current-layer="g5004"
     showgrid="false"
     inkscape:showpageshadow="false"
     inkscape:pagecheckerboard="false"
     units="px"
     inkscape:window-width="1920"
     inkscape:window-height="1027"
     inkscape:window-x="0"
     inkscape:window-y="21"
     inkscape:window-maximized="1"
     inkscape:lockguides="true"
     inkscape:grid-bbox="true"
     inkscape:snap-object-midpoints="true"
     inkscape:snap-page="true"
     inkscape:snap-grids="false"
     inkscape:snap-to-guides="false"
     inkscape:snap-global="false"
     inkscape:document-rotation="0" />
  <defs
     id="defs2" />
  <metadata
     id="metadata5">
    <rdf:RDF>
      <cc:Work
         rdf:about="">
        <dc:format>image/svg+xml</dc:format>
        <dc:type
           rdf:resource="http://purl.org/dc/dcmitype/StillImage" />
        <dc:title />
        <cc:license
           rdf:resource="http://creativecommons.org/licenses/by-sa/4.0/" />
        <dc:date>2017</dc:date>
        <dc:creator>
          <cc:Agent>
            <dc:title>Cristian Pozzessere &quot;ilnanny&quot;</dc:title>
          </cc:Agent>
        </dc:creator>
        <dc:subject>
          <rdf:Bag>
            <rdf:li>Global language</rdf:li>
          </rdf:Bag>
        </dc:subject>
        <dc:description>Playing with Inkscape on Gnu/Linux O. S.</dc:description>
        <dc:contributor>
          <cc:Agent>
            <dc:title>In the night, alone like a dog.</dc:title>
          </cc:Agent>
        </dc:contributor>
      </cc:Work>
      <cc:License
         rdf:about="http://creativecommons.org/licenses/by-sa/4.0/">
        <cc:permits
           rdf:resource="http://creativecommons.org/ns#Reproduction" />
        <cc:permits
           rdf:resource="http://creativecommons.org/ns#Distribution" />
        <cc:requires
           rdf:resource="http://creativecommons.org/ns#Notice" />
        <cc:requires
           rdf:resource="http://creativecommons.org/ns#Attribution" />
        <cc:permits
           rdf:resource="http://creativecommons.org/ns#DerivativeWorks" />
        <cc:requires
           rdf:resource="http://creativecommons.org/ns#ShareAlike" />
      </cc:License>
    </rdf:RDF>
  </metadata>
  <g
     id="layer1"
     inkscape:groupmode="layer"
     inkscape:label="Layer 1">
    <g
       id="g938"
       transform="matrix(0.984375,0,0,0.96296292,-3.1992191,-18.562364)">
      <g
         id="g1521"
         transform="matrix(0.99514741,0,0,1,0.64471561,-1.0384589)">
        <g
           id="g852">
          <rect
             y="26.558754"
             x="3.259584"
             height="55.789837"
             width="63.980831"
             id="rect817"
             style="opacity:1;fill:#B6404B;fill-opacity:1;fill-rule:nonzero;stroke:#5f5e5c;stroke-width:1.36143422;stroke-linecap:square;stroke-linejoin:bevel;stroke-miterlimit:4;stroke-dasharray:none;stroke-opacity:1;paint-order:markers stroke fill" />
          <rect
             transform="rotate(90)"
             style="opacity:1;fill:#fefbfb;fill-opacity:0.75478929;fill-rule:nonzero;stroke:none;stroke-width:0.06918984;stroke-linecap:square;stroke-linejoin:bevel;stroke-miterlimit:4;stroke-dasharray:none;stroke-opacity:0.79607843;paint-order:markers stroke fill"
             id="rect1500"
             width="39.113285"
             height="1.9279207"
             x="43.239227"
             y="-67.240417" />
          <rect
             y="-5.8748436"
             x="43.209305"
             height="2.6152594"
             width="39.113285"
             id="rect1498"
             style="opacity:1;fill:#fefbfb;fill-opacity:0.75478929;fill-rule:nonzero;stroke:none;stroke-width:0.08058518;stroke-linecap:square;stroke-linejoin:bevel;stroke-miterlimit:4;stroke-dasharray:none;stroke-opacity:0.79607843;paint-order:markers stroke fill"
             transform="rotate(90)" />
          <g
             style="opacity:0.69300022"
             transform="matrix(0.26717791,0,0,0.37695836,-8.2290657,12.422815)"
             id="g851">
            <path
               inkscape:connector-curvature="0"
               style="opacity:1;fill:#f8fafa;fill-opacity:1;fill-rule:nonzero;stroke:none;stroke-width:0.67029333;stroke-linecap:square;stroke-linejoin:bevel;stroke-miterlimit:4;stroke-dasharray:none;stroke-opacity:0.79607843;paint-order:markers stroke fill"
               d="M 47.995635,54.25 H 277.46902 V 85.090837 H 47.995635 Z"
               id="rect831" />
            <path
               style="opacity:1;fill:#93a2a5;fill-opacity:1;fill-rule:nonzero;stroke:none;stroke-width:0.21135312;stroke-linecap:square;stroke-linejoin:bevel;stroke-miterlimit:4;stroke-dasharray:none;stroke-opacity:0.79607843;paint-order:markers stroke fill"
               d="M 277.46902,75.592181 244.49991,54.25 v 21.342181 z"
               id="path1496"
               inkscape:connector-curvature="0"
               sodipodi:nodetypes="cccc" />
          </g>
          <g
             id="g1484"
             style="fill:#B6404B;fill-opacity:1;stroke:#B6404B;stroke-width:1.16166735;stroke-miterlimit:4;stroke-dasharray:none;stroke-opacity:1"
             transform="matrix(0.92930117,0,0,0.97367239,2.5265655,4.0162188)">
            <path
               sodipodi:nodetypes="cccccccccc"
               id="rect821"
               style="opacity:1;fill:#B6404B;fill-opacity:1;fill-rule:nonzero;stroke:#B6404B;stroke-width:1.16166735;stroke-linecap:square;stroke-linejoin:bevel;stroke-miterlimit:4;stroke-dasharray:none;stroke-opacity:1;paint-order:markers stroke fill"
               d="m 5.056055,36.025647 h 24.762237 l 3.746032,4.177904 H 5.056055 Z M 3.25,40.203551 h 64 v 40.250917 h -64 z"
               inkscape:connector-curvature="0" />
          </g>
          <rect
             style="opacity:1;fill:#ffcc00;fill-opacity:0.99315072;fill-rule:nonzero;stroke:none;stroke-width:0.47680542;stroke-linecap:square;stroke-linejoin:bevel;stroke-miterlimit:4;stroke-dasharray:none;stroke-opacity:1;paint-order:markers stroke fill"
             id="rect825"
             width="5.3264122"
             height="3.0460732"
             x="5.7145939"
             y="28.096727" />
          <rect
             y="28.096727"
             x="13.652818"
             height="3.0460732"
             width="5.3264122"
             id="rect827"
             style="opacity:1;fill:#ff0084;fill-opacity:0.99315072;fill-rule:nonzero;stroke:none;stroke-width:0.47680542;stroke-linecap:square;stroke-linejoin:bevel;stroke-miterlimit:4;stroke-dasharray:none;stroke-opacity:1;paint-order:markers stroke fill" />
          <rect
             style="opacity:1;fill:#aad450;fill-opacity:0.99315072;fill-rule:nonzero;stroke:none;stroke-width:0.47680542;stroke-linecap:square;stroke-linejoin:bevel;stroke-miterlimit:4;stroke-dasharray:none;stroke-opacity:1;paint-order:markers stroke fill"
             id="rect829"
             width="5.3264122"
             height="3.0460732"
             x="21.59104"
             y="28.096727" />
          <rect
             style="opacity:0.704;fill:#FFFFFF;fill-opacity:0.99657533;fill-rule:nonzero;stroke:none;stroke-width:0.0899523;stroke-linecap:square;stroke-linejoin:bevel;stroke-miterlimit:4;stroke-dasharray:none;stroke-opacity:0.79607843;paint-order:markers stroke fill"
             id="rect855"
             width="64.143631"
             height="1.9870082"
             x="3.1380224"
             y="78.956886" />
          <rect
             y="80.455818"
             x="3.1380224"
             height="1.9870082"
             width="64.292816"
             id="rect853"
             style="opacity:0.597;fill:#FFFFFF;fill-opacity:0.96907217;fill-rule:nonzero;stroke:none;stroke-width:0.09005686;stroke-linecap:square;stroke-linejoin:bevel;stroke-miterlimit:4;stroke-dasharray:none;stroke-opacity:0.79607843;paint-order:markers stroke fill" />
          <rect
             style="opacity:0.704;fill:#fcfdff;fill-opacity:1;fill-rule:nonzero;stroke:none;stroke-width:0.06058259;stroke-linecap:square;stroke-linejoin:bevel;stroke-miterlimit:4;stroke-dasharray:none;stroke-opacity:0.79607843;paint-order:markers stroke fill"
             id="rect1504"
             width="54.548206"
             height="1.0598483"
             x="8.0103283"
             y="43.691528" />
          <rect
             y="45.030849"
             x="8.0103283"
             height="1.0598483"
             width="54.548206"
             id="rect1523"
             style="opacity:0.597;fill:#000207;fill-opacity:1;fill-rule:nonzero;stroke:none;stroke-width:0.06058259;stroke-linecap:square;stroke-linejoin:bevel;stroke-miterlimit:4;stroke-dasharray:none;stroke-opacity:0.79607843;paint-order:markers stroke fill" />
          <g
             transform="matrix(0.77051039,0,0,0.78382104,-92.236971,-468.22322)"
             id="database"
             style="fill:none;stroke:#fefefe;stroke-opacity:1;stroke-width:1.26525157;stroke-miterlimit:4;stroke-dasharray:none;opacity:0.899">
            <g
               id="g5004"
               style="fill:none;stroke:#fefefe;stroke-opacity:1;stroke-width:1.26525157;stroke-miterlimit:4;stroke-dasharray:none">
              <path
                 inkscape:connector-curvature="0"
                 id="path2352"
                 style="fill:none;fill-opacity:1;stroke:#FFFFFF;stroke-width:1.14799;stroke-miterlimit:4;stroke-dasharray:none;stroke-opacity:0.759712"
                 d="m 181.37531,665.72426 c -0.006,-0.016 -0.0116,-0.0312 -0.0185,-0.0459 -0.006,-0.0134 -0.01,-0.028 -0.0166,-0.0409 -0.77689,-3.10818 -7.4999,-5.42737 -15.85316,-5.42737 -8.35327,0 -15.0763,2.31919 -15.85318,5.42737 -0.007,0.0127 -0.0102,0.0274 -0.0166,0.0409 -0.007,0.0153 -0.0127,0.0299 -0.0185,0.0459 -0.0262,0.0695 -0.0447,0.14275 -0.0447,0.22178 v 0.31866 14.97686 0.31866 7.96641 c 0,0.10325 0.0274,0.20075 0.0746,0.28743 0.75266,3.11965 7.48652,5.44838 15.85827,5.44838 8.35262,0 15.07564,-2.31917 15.85316,-5.42735 0.051,-0.0911 0.0797,-0.19629 0.0797,-0.30846 v -7.96641 -0.31866 -14.97686 -0.31866 c 0,-0.079 -0.0185,-0.15232 -0.0446,-0.22178 z m -3.37649,18.22142 c -0.11026,-0.0924 -0.24728,-0.15487 -0.40278,-0.15487 -0.35179,0 -0.63731,0.28552 -0.63731,0.63732 0,0.007 0.004,0.0127 0.004,0.0198 -1.27781,0.5398 -2.9106,1.00186 -4.80789,1.33644 -0.0892,-0.0478 -0.1861,-0.0815 -0.29443,-0.0815 -0.18738,0 -0.35117,0.0841 -0.4678,0.21222 -0.86483,0.13129 -1.78129,0.23517 -2.74235,0.30719 -0.0567,-0.29316 -0.30337,-0.51941 -0.61374,-0.51941 -0.33523,0 -0.60225,0.2613 -0.62775,0.59014 -0.62648,0.028 -1.26316,0.0472 -1.9215,0.0472 -0.21733,0 -0.42572,-0.008 -0.63986,-0.0115 -0.006,-0.3467 -0.2868,-0.62584 -0.63477,-0.62584 -0.33587,0 -0.6029,0.26194 -0.62775,0.59143 -0.90371,-0.0402 -1.77747,-0.10452 -2.60725,-0.19693 -0.0962,-0.23135 -0.32312,-0.3945 -0.58888,-0.3945 -0.20522,0 -0.3792,0.10325 -0.49583,0.25366 -1.83037,-0.26067 -3.44148,-0.63924 -4.77793,-1.09491 0.10706,-0.11409 0.17525,-0.26513 0.17525,-0.43337 0,-0.35181 -0.28551,-0.63732 -0.63731,-0.63732 -0.35179,0 -0.63731,0.28551 -0.63731,0.63732 0,0.008 0.005,0.0147 0.005,0.0229 -2.03111,-0.85719 -3.19102,-1.89856 -3.19102,-2.89085 0,-0.072 0.008,-0.14403 0.0198,-0.21541 0.006,-0.0357 -0.006,-0.0708 -0.006,-0.10644 0.34542,-0.007 0.62329,-0.28743 0.62329,-0.63412 0,-0.35181 -0.28551,-0.63731 -0.63731,-0.63731 v -2.54926 c 0.33586,0 0.6029,-0.26193 0.62775,-0.59143 1.10128,0.77943 2.63274,1.44989 4.49115,1.96866 0.051,0.30081 0.30144,0.53471 0.61691,0.53471 0.20395,0 0.37665,-0.10197 0.49328,-0.25047 2.43645,0.56467 5.31838,0.88779 8.42911,0.88779 3.61611,0 6.92313,-0.43657 9.57818,-1.18159 0.0471,0.30592 0.29954,0.54427 0.61883,0.54427 0.3518,0 0.63732,-0.28551 0.63732,-0.63731 0,-0.0994 -0.0274,-0.19056 -0.0676,-0.27405 1.66977,-0.57294 2.99665,-1.28418 3.89144,-2.08974 v 2.36379 2.36889 c -0.0267,0.0911 -0.0357,0.18736 -0.0198,0.28361 0.0121,0.0714 0.0198,0.14339 0.0198,0.21541 0,0.18992 -0.0573,0.38175 -0.14084,0.57358 -0.116,-0.15105 -0.29062,-0.25492 -0.49647,-0.25492 -0.3518,0 -0.63732,0.28551 -0.63732,0.63731 0,0.26001 0.15678,0.4818 0.37984,0.58059 -0.3314,0.29188 -0.74948,0.57614 -1.25168,0.8489 z m 2.14647,-9.87581 c -0.006,0.0198 -0.0172,0.0369 -0.0204,0.058 -0.36136,2.20445 -6.3298,4.56443 -14.63781,4.56443 -8.30802,0 -14.27646,-2.35998 -14.63782,-4.56443 -0.004,-0.0211 -0.0153,-0.0375 -0.0204,-0.058 v -5.40377 c 2.18661,2.01582 7.16595,3.65307 14.65821,3.65307 7.49224,0 12.47157,-1.63725 14.65819,-3.65307 z m -14.6582,-12.58503 c 8.30928,0 14.27709,2.35998 14.63781,4.56381 l 6.3e-4,0.004 c 0.0115,0.0708 0.0198,0.14085 0.0198,0.21223 0,2.2612 -6.01942,4.77985 -14.6582,4.77985 -8.63879,0 -14.65821,-2.51865 -14.65821,-4.77985 0,-0.0714 0.008,-0.14149 0.0198,-0.21223 l 6.3e-4,-0.004 c 0.36073,-2.20383 6.32854,-4.56381 14.63782,-4.56381 z m 14.63781,27.93854 c -0.36136,2.20448 -6.3298,4.56444 -14.63781,4.56444 -8.30802,0 -14.27646,-2.35996 -14.63782,-4.56444 -0.006,-0.0287 -0.012,-0.0567 -0.0204,-0.0835 v -5.3783 c 2.18662,2.01583 7.16596,3.65308 14.65821,3.65308 7.49225,0 12.47158,-1.63725 14.6582,-3.65308 v 5.37574 c -0.009,0.028 -0.0153,0.0567 -0.0204,0.086 z m -5.71543,-4.99523 a 0.63731328,0.63731328 0 0 1 -0.63731,0.63731 0.63731328,0.63731328 0 0 1 -0.63731,-0.63731 0.63731328,0.63731328 0 0 1 0.63731,-0.63731 0.63731328,0.63731328 0 0 1 0.63731,0.63731 z m -3.82387,0 a 0.63731328,0.63731328 0 0 1 -0.63732,0.63731 0.63731328,0.63731328 0 0 1 -0.63731,-0.63731 0.63731328,0.63731328 0 0 1 0.63731,-0.63731 0.63731328,0.63731328 0 0 1 0.63732,0.63731 z m -3.82389,0 a 0.63731328,0.63731328 0 0 1 -0.63731,0.63731 0.63731328,0.63731328 0 0 1 -0.63732,-0.63731 0.63731328,0.63731328 0 0 1 0.63732,-0.63731 0.63731328,0.63731328 0 0 1 0.63731,0.63731 z m -3.82388,0 a 0.63731328,0.63731328 0 0 1 -0.63732,0.63731 0.63731328,0.63731328 0 0 1 -0.63731,-0.63731 0.63731328,0.63731328 0 0 1 0.63731,-0.63731 0.63731328,0.63731328 0 0 1 0.63732,0.63731 z m -3.82388,0 a 0.63731328,0.63731328 0 0 1 -0.63731,0.63731 0.63731328,0.63731328 0 0 1 -0.63732,-0.63731 0.63731328,0.63731328 0 0 1 0.63732,-0.63731 0.63731328,0.63731328 0 0 1 0.63731,0.63731 z m 21.03133,-5.73583 a 0.63731328,0.63731328 0 0 1 -0.63731,0.63732 0.63731328,0.63731328 0 0 1 -0.63731,-0.63732 0.63731328,0.63731328 0 0 1 0.63731,-0.63731 0.63731328,0.63731328 0 0 1 0.63731,0.63731 z m -1.91193,1.91194 a 0.63731328,0.63731328 0 0 1 -0.63732,0.63732 0.63731328,0.63731328 0 0 1 -0.63731,-0.63732 0.63731328,0.63731328 0 0 1 0.63731,-0.63731 0.63731328,0.63731328 0 0 1 0.63732,0.63731 z m -1.91193,1.91195 a 0.63731328,0.63731328 0 0 1 -0.63732,0.63731 0.63731328,0.63731328 0 0 1 -0.63731,-0.63731 0.63731328,0.63731328 0 0 1 0.63731,-0.63731 0.63731328,0.63731328 0 0 1 0.63732,0.63731 z m -3.82389,0 a 0.63731328,0.63731328 0 0 1 -0.63731,0.63731 0.63731328,0.63731328 0 0 1 -0.63731,-0.63731 0.63731328,0.63731328 0 0 1 0.63731,-0.63731 0.63731328,0.63731328 0 0 1 0.63731,0.63731 z m 1.91194,-1.91195 a 0.63731328,0.63731328 0 0 1 -0.63731,0.63732 0.63731328,0.63731328 0 0 1 -0.63731,-0.63732 0.63731328,0.63731328 0 0 1 0.63731,-0.63731 0.63731328,0.63731328 0 0 1 0.63731,0.63731 z m -3.82387,0 a 0.63731328,0.63731328 0 0 1 -0.63732,0.63732 0.63731328,0.63731328 0 0 1 -0.63731,-0.63732 0.63731328,0.63731328 0 0 1 0.63731,-0.63731 0.63731328,0.63731328 0 0 1 0.63732,0.63731 z m -1.91194,1.91195 a 0.63731328,0.63731328 0 0 1 -0.63731,0.63731 0.63731328,0.63731328 0 0 1 -0.63733,-0.63731 0.63731328,0.63731328 0 0 1 0.63733,-0.63731 0.63731328,0.63731328 0 0 1 0.63731,0.63731 z m -3.82389,0 a 0.63731328,0.63731328 0 0 1 -0.63731,0.63731 0.63731328,0.63731328 0 0 1 -0.63731,-0.63731 0.63731328,0.63731328 0 0 1 0.63731,-0.63731 0.63731328,0.63731328 0 0 1 0.63731,0.63731 z m 1.91194,-1.91195 a 0.63731328,0.63731328 0 0 1 -0.63731,0.63732 0.63731328,0.63731328 0 0 1 -0.63732,-0.63732 0.63731328,0.63731328 0 0 1 0.63732,-0.63731 0.63731328,0.63731328 0 0 1 0.63731,0.63731 z m -3.82388,0 a 0.63731328,0.63731328 0 0 1 -0.63732,0.63732 0.63731328,0.63731328 0 0 1 -0.63731,-0.63732 0.63731328,0.63731328 0 0 1 0.63731,-0.63731 0.63731328,0.63731328 0 0 1 0.63732,0.63731 z m -1.91193,1.91195 a 0.63731328,0.63731328 0 0 1 -0.63732,0.63731 0.63731328,0.63731328 0 0 1 -0.63732,-0.63731 0.63731328,0.63731328 0 0 1 0.63732,-0.63731 0.63731328,0.63731328 0 0 1 0.63732,0.63731 z m -3.82389,0 a 0.63731328,0.63731328 0 0 1 -0.63731,0.63731 0.63731328,0.63731328 0 0 1 -0.63731,-0.63731 0.63731328,0.63731328 0 0 1 0.63731,-0.63731 0.63731328,0.63731328 0 0 1 0.63731,0.63731 z m 1.91194,-1.91195 a 0.63731328,0.63731328 0 0 1 -0.63731,0.63732 0.63731328,0.63731328 0 0 1 -0.63732,-0.63732 0.63731328,0.63731328 0 0 1 0.63732,-0.63731 0.63731328,0.63731328 0 0 1 0.63731,0.63731 z m -3.82388,0 a 0.63731328,0.63731328 0 0 1 -0.63731,0.63732 0.63731328,0.63731328 0 0 1 -0.63731,-0.63732 0.63731328,0.63731328 0 0 1 0.63731,-0.63731 0.63731328,0.63731328 0 0 1 0.63731,0.63731 z m -1.91194,1.91195 a 0.63731328,0.63731328 0 0 1 -0.63731,0.63731 0.63731328,0.63731328 0 0 1 -0.63732,-0.63731 0.63731328,0.63731328 0 0 1 0.63732,-0.63731 0.63731328,0.63731328 0 0 1 0.63731,0.63731 z m 0,-3.82389 a 0.63731328,0.63731328 0 0 1 -0.63731,0.63732 0.63731328,0.63731328 0 0 1 -0.63732,-0.63732 0.63731328,0.63731328 0 0 1 0.63732,-0.63731 0.63731328,0.63731328 0 0 1 0.63731,0.63731 z" />
            </g>
          </g>
        </g>
      </g>
    </g>
  </g>
</svg>
