<?xml version="1.0" encoding="UTF-8" standalone="no"?>
<svg
   xmlns:dc="http://purl.org/dc/elements/1.1/"
   xmlns:cc="http://creativecommons.org/ns#"
   xmlns:rdf="http://www.w3.org/1999/02/22-rdf-syntax-ns#"
   xmlns:svg="http://www.w3.org/2000/svg"
   xmlns="http://www.w3.org/2000/svg"
   xmlns:sodipodi="http://sodipodi.sourceforge.net/DTD/sodipodi-0.dtd"
   xmlns:inkscape="http://www.inkscape.org/namespaces/inkscape"
   version="1.1"
   width="48"
   height="48"
   viewBox="0 0 48 48"
   id="svg70"
   sodipodi:docname="file-roller.svg"
   inkscape:version="1.0beta2 (2b71d25d45, 2019-12-03)">
  <metadata
     id="metadata76">
    <rdf:RDF>
      <cc:Work
         rdf:about="">
        <dc:format>image/svg+xml</dc:format>
        <dc:type
           rdf:resource="http://purl.org/dc/dcmitype/StillImage" />
        <dc:title></dc:title>
        <dc:creator>
          <cc:Agent>
            <dc:title>Cristian Pozzessere &quot;ilnanny&quot;</dc:title>
          </cc:Agent>
        </dc:creator>
        <dc:subject>
          <rdf:Bag>
            <rdf:li>Global language</rdf:li>
          </rdf:Bag>
        </dc:subject>
        <dc:description>Playing with Inkscape on Gnu/Linux O. S.</dc:description>
        <dc:contributor>
          <cc:Agent>
            <dc:title>In the night, alone like a dog.</dc:title>
          </cc:Agent>
        </dc:contributor>
        <cc:license
           rdf:resource="http://creativecommons.org/licenses/by-sa/4.0/" />
      </cc:Work>
      <cc:License
         rdf:about="http://creativecommons.org/licenses/by-sa/4.0/">
        <cc:permits
           rdf:resource="http://creativecommons.org/ns#Reproduction" />
        <cc:permits
           rdf:resource="http://creativecommons.org/ns#Distribution" />
        <cc:requires
           rdf:resource="http://creativecommons.org/ns#Notice" />
        <cc:requires
           rdf:resource="http://creativecommons.org/ns#Attribution" />
        <cc:permits
           rdf:resource="http://creativecommons.org/ns#DerivativeWorks" />
        <cc:requires
           rdf:resource="http://creativecommons.org/ns#ShareAlike" />
      </cc:License>
    </rdf:RDF>
  </metadata>
  <defs
     id="defs74" />
  <sodipodi:namedview
     pagecolor="#ffffff"
     bordercolor="#666666"
     inkscape:document-rotation="0"
     borderopacity="1"
     objecttolerance="10"
     gridtolerance="10"
     guidetolerance="10"
     inkscape:pageopacity="0"
     inkscape:pageshadow="2"
     inkscape:window-width="1920"
     inkscape:window-height="1029"
     id="namedview72"
     showgrid="false"
     inkscape:zoom="12.251393"
     inkscape:cx="24"
     inkscape:cy="24"
     inkscape:window-x="0"
     inkscape:window-y="21"
     inkscape:window-maximized="1"
     inkscape:current-layer="g880" />
  <g
     id="g941"
     style="opacity:1;fill:#333333;fill-opacity:1" />
  <g
     id="g962"
     transform="translate(38.962982,1.916989)">
    <g
       transform="matrix(0.03840331,0,0,0.0387822,-38.044793,-2.672948)"
       id="g880">
      <g
         id="g838"
         transform="translate(-42.031311)" />
      <g
         id="g892">
        <rect
           transform="translate(-42.031311)"
           rx="47.510078"
           style="opacity:1;fill:#c7b18e;fill-opacity:1;stroke-width:1.08618"
           width="1145.7346"
           height="1160.326"
           x="70.201019"
           y="58.169998"
           ry="47.510078"
           id="rect2" />
        <path
           transform="translate(-38.962982,-1.916989)"
           d="m 67.132812,381.70703 v 791.19527 c 10e-7,26.3206 21.18918,47.5098 47.509768,47.5098 H 1165.3574 c 26.3205,0 47.5098,-21.1892 47.5098,-47.5098 V 381.70703 Z"
           style="opacity:1;fill:#9c7e57;fill-opacity:0.779867;stroke-width:1.08618"
           id="rect858"
           inkscape:connector-curvature="0" />
        <g
           transform="matrix(1,0,0,1.1206605,183.94157,11.023448)"
           style="opacity:1;fill:#070707;fill-opacity:0.362777"
           id="g843">
          <path
             inkscape:connector-curvature="0"
             d="M 312.0193,43.489294 V 601.58304 h 0.9003 c 5.578,52.7558 50.02476,93.85547 104.0352,93.85547 54.01043,0 98.45724,-41.09967 104.03515,-93.85547 h 1.18164 V 43.489294 Z"
             style="color:#000000;font-style:normal;font-variant:normal;font-weight:normal;font-stretch:normal;font-size:medium;line-height:normal;font-family:sans-serif;font-variant-ligatures:normal;font-variant-position:normal;font-variant-caps:normal;font-variant-numeric:normal;font-variant-alternates:normal;font-variant-east-asian:normal;font-feature-settings:normal;font-variation-settings:normal;text-indent:0;text-align:start;text-decoration:none;text-decoration-line:none;text-decoration-style:solid;text-decoration-color:#000000;letter-spacing:normal;word-spacing:normal;text-transform:none;writing-mode:lr-tb;direction:ltr;text-orientation:mixed;dominant-baseline:auto;baseline-shift:baseline;text-anchor:start;white-space:normal;shape-padding:0;shape-margin:0;inline-size:0;clip-rule:nonzero;display:inline;overflow:visible;visibility:visible;isolation:auto;mix-blend-mode:normal;color-interpolation:sRGB;color-interpolation-filters:linearRGB;solid-color:#000000;solid-opacity:1;vector-effect:none;fill:#070707;fill-opacity:0.362777;fill-rule:nonzero;stroke:none;stroke-width:0.0935219;stroke-linecap:butt;stroke-linejoin:miter;stroke-miterlimit:4;stroke-dasharray:none;stroke-dashoffset:0;stroke-opacity:1;color-rendering:auto;image-rendering:auto;shape-rendering:auto;text-rendering:auto;enable-background:accumulate;stop-color:#000000;stop-opacity:1"
             id="path845" />
        </g>
        <g
           id="g852"
           style="opacity:1;fill:#070707;fill-opacity:0.410955"
           transform="matrix(1,0,0,1.1206605,183.94157,11.023448)">
          <path
             inkscape:connector-curvature="0"
             transform="matrix(1,0,0,0.91552472,-222.90455,-12.97768)"
             d="m 534.92383,375.91406 v 295.35156 h 0.90039 c 5.578,57.62357 50.02472,102.51563 104.03516,102.51563 54.01043,0 98.45724,-44.89206 104.03515,-102.51563 h 1.18164 V 375.91406 Z"
             style="color:#000000;font-style:normal;font-variant:normal;font-weight:normal;font-stretch:normal;font-size:medium;line-height:normal;font-family:sans-serif;font-variant-ligatures:normal;font-variant-position:normal;font-variant-caps:normal;font-variant-numeric:normal;font-variant-alternates:normal;font-variant-east-asian:normal;font-feature-settings:normal;font-variation-settings:normal;text-indent:0;text-align:start;text-decoration:none;text-decoration-line:none;text-decoration-style:solid;text-decoration-color:#000000;letter-spacing:normal;word-spacing:normal;text-transform:none;writing-mode:lr-tb;direction:ltr;text-orientation:mixed;dominant-baseline:auto;baseline-shift:baseline;text-anchor:start;white-space:normal;shape-padding:0;shape-margin:0;inline-size:0;clip-rule:nonzero;display:inline;overflow:visible;visibility:visible;isolation:auto;mix-blend-mode:normal;color-interpolation:sRGB;color-interpolation-filters:linearRGB;solid-color:#000000;solid-opacity:1;vector-effect:none;fill:#070707;fill-opacity:0.410955;fill-rule:nonzero;stroke:none;stroke-width:0.0977413;stroke-linecap:butt;stroke-linejoin:miter;stroke-miterlimit:4;stroke-dasharray:none;stroke-dashoffset:0;stroke-opacity:1;color-rendering:auto;image-rendering:auto;shape-rendering:auto;text-rendering:auto;enable-background:accumulate;stop-color:#000000;stop-opacity:1"
             id="path850" />
        </g>
        <path
           inkscape:connector-curvature="0"
           d="m 525.42447,73.140625 v 26.425781 h 151.682 V 73.140625 Z m 72.13537,55.699215 c -0.80913,0 -1.46047,0.59579 -1.46047,1.33594 V 131 h -5.04333 c -0.66983,0 -1.20852,0.49275 -1.20852,1.10547 v 35.54492 h -62.21099 c -0.75887,0 -1.36866,0.55779 -1.36866,1.25195 v 17.07422 c 0,0.6343 0.51167,1.14918 1.17863,1.23438 h -0.19217 c -0.75887,0 -1.36866,0.55778 -1.36866,1.25195 v 17.07227 c 0,0.69416 0.60979,1.2539 1.36866,1.2539 h 62.59319 v 40.97071 h -61.60887 c -0.75888,0 -1.37078,0.55974 -1.37078,1.2539 v 17.07227 c 0,0.46461 0.28752,0.85197 0.69606,1.06836 -0.35236,0.22628 -0.59572,0.58238 -0.59572,1.00781 v 17.07422 c 0,0.69417 0.6098,1.25195 1.36867,1.25195 h 61.51064 v 41.02149 h -62.3092 c -0.75887,0 -1.36867,0.55974 -1.36867,1.2539 v 17.07227 c 0,0.69416 0.6098,1.2539 1.36867,1.2539 h 0.0235 c -0.75887,0 -1.37079,0.55974 -1.37079,1.25391 v 17.07227 c 0,0.69416 0.61192,1.2539 1.37079,1.2539 h 62.28572 v 44.04102 h -63.57751 c -0.75887,0 -1.36866,0.55779 -1.36866,1.25195 v 17.07227 c 0,0.69416 0.60979,1.2539 1.36866,1.2539 h 63.57751 v 0.90039 h -63.55403 c -0.75886,0 -1.37079,0.55975 -1.37079,1.25391 v 17.07226 c 0,0.69417 0.61192,1.25391 1.37079,1.25391 h 63.55403 v 41.05078 h -63.04157 c -0.75888,0 -1.36867,0.5578 -1.36867,1.25196 v 17.07421 c 0,0.69416 0.60979,1.25196 1.36867,1.25196 h 63.04157 v 1.43164 h -63.20385 c -0.75888,0 -1.3708,0.55974 -1.3708,1.2539 v 17.07227 c 0,0.69416 0.61192,1.25195 1.3708,1.25195 h 63.20385 v 41.36133 H 527.5725 c -0.75887,0 -1.3708,0.55975 -1.3708,1.25391 v 17.07226 c 0,0.69416 0.61193,1.25391 1.3708,1.25391 h 62.27504 v 1.03125 h -62.39675 c -0.75888,0 -1.36866,0.55779 -1.36866,1.25195 v 17.07227 c 0,0.69416 0.60978,1.2539 1.36866,1.2539 h 62.39675 v 42.17188 h -61.88217 c -0.75888,0 -1.37079,0.55779 -1.37079,1.25195 v 17.07227 c 0,0.69416 0.61191,1.2539 1.37079,1.2539 h 61.88217 v 0.18164 h -61.816 c -0.75887,10e-6 -1.3708,0.5578 -1.3708,1.25196 v 17.07422 c 0,0.69416 0.61193,1.25195 1.3708,1.25195 h 61.81598 v 0.0918 c -2.78379,0.27845 -5.58065,0.61497 -8.26747,1.01562 -40.09127,5.97839 -41.91191,8.31379 -28.62439,36.71094 3.62605,7.74932 6.8455,18.31513 8.52368,27.9707 2.59094,14.90723 2.55846,16.16615 -0.84339,32.06836 -8.18997,38.2845 -16.03567,113.86012 -15.06166,145.08789 0.54241,17.39043 1.17998,21.24014 4.46895,26.94727 7.95413,13.80252 21.00838,23.92251 35.8072,27.75781 11.03915,2.8609 27.07355,1.38638 39.23845,-3.60742 12.63463,-5.1866 23.68555,-16.01794 28.74183,-28.16992 3.43622,-8.25841 3.6128,-10.62121 2.66472,-35.96875 -1.59979,-42.77183 -7.60495,-94.72846 -14.95916,-129.44727 -3.26026,-15.39147 -3.41681,-18.47611 -1.60994,-31.66406 1.34493,-9.81628 4.02121,-19.22533 8.15218,-28.66992 10.82349,-24.7457 11.05462,-28.51918 2.01135,-32.79688 -6.10029,-2.88558 -24.05995,-6.48001 -38.26053,-7.73633 v -40.24023 h 63.47076 c 0.75887,0 1.37079,-0.55779 1.37079,-1.25195 v -17.07422 c 0,-0.69416 -0.61192,-1.25196 -1.37079,-1.25196 h -63.47076 v -0.1914 h 63.54763 c 0.75888,0 1.37078,-0.55779 1.37078,-1.25195 v -17.07422 c 10e-6,-0.69416 -0.6119,-1.25196 -1.37078,-1.25196 h -63.54763 v -42.02148 h 63.85296 c 0.75887,0 1.37079,-0.55975 1.37079,-1.25391 v -17.07226 c 0,-0.69417 -0.61192,-1.25391 -1.37079,-1.25391 h -63.85296 v -0.60937 h 63.59246 c 0.75887,0 1.36866,-0.55974 1.36866,-1.25391 v -17.07227 c 0,-0.69416 -0.60979,-1.2539 -1.36866,-1.2539 h -63.59246 v -41.83008 h 63.77823 c 0.75887,0 1.36865,-0.55975 1.36865,-1.25391 v -17.07226 c 0,-0.47235 -0.29326,-0.86844 -0.71315,-1.08203 0.31441,-0.22921 0.52739,-0.56684 0.52739,-0.96485 v -17.07422 c 0,-0.69416 -0.60979,-1.25195 -1.36866,-1.25195 H 611.82934 V 408.5293 h 63.72272 c 0.75885,0 1.37078,-0.55975 1.37078,-1.25391 v -17.07227 c 0,-0.69416 -0.61192,-1.2539 -1.37078,-1.2539 h -63.72272 v -0.14063 h 63.87644 c 0.75887,0 1.36866,-0.55779 1.36866,-1.25195 v -17.07422 c 0,-0.69416 -0.60979,-1.25195 -1.36866,-1.25195 h -63.87644 v -43.02149 h 63.85296 c 0.75887,0 1.37079,-0.55974 1.37079,-1.2539 v -17.07227 c 0,-0.4407 -0.26013,-0.80801 -0.63416,-1.03125 0.44375,-0.20687 0.75373,-0.61696 0.75373,-1.10547 v -17.07226 c 0,-0.69416 -0.60979,-1.25391 -1.36866,-1.25391 h -63.97466 v -42.18164 h 63.30635 c 0.75887,0 1.37079,-0.55778 1.37079,-1.25195 v -17.07422 c 0,-0.4076 -0.22332,-0.75193 -0.55087,-0.98047 0.49197,-0.18971 0.83485,-0.63563 0.83485,-1.15625 v -17.07227 c 0,-0.69417 -0.60979,-1.2539 -1.36866,-1.2539 h -63.59246 v -38.83008 h 63.90848 c 0.75886,0 1.37078,-0.55974 1.37078,-1.25391 v -17.07226 c 0,-0.56619 -0.40987,-1.03703 -0.97151,-1.19336 0.3687,-0.24205 0.61066,-0.63537 0.61066,-1.08399 v -16.83984 c 10e-6,-0.74015 -0.65132,-1.33594 -1.46046,-1.33594 z m 25.91057,663.65625 c 4.27393,0.17915 4.4508,2.74273 2.827,9.35352 -2.09817,8.54195 -7.49956,16.23086 -13.91719,19.81055 -5.47521,3.05402 -14.58099,3.68977 -20.65159,1.44336 -7.78786,-2.88188 -18.87327,-20.38564 -17.35058,-27.39649 0.68477,-3.15293 3.26392,-3.31284 20.43593,-1.27734 6.25756,0.74174 13.41763,0.43645 20.07296,-0.85547 3.85055,-0.74747 6.64078,-1.15956 8.58347,-1.07813 z m -21.92843,123.74219 c 10.66123,0.29456 20.92429,3.95234 28.4301,10.49024 15.5106,13.5104 11.18171,34.43669 -9.08312,43.90234 -9.0618,4.23274 -26.53054,5.19052 -35.7837,1.96289 -15.10059,-5.26722 -24.41772,-18.9001 -21.97114,-32.14648 1.49972,-8.11991 13.85292,-19.76651 23.8437,-22.48047 4.78822,-1.30069 9.71814,-1.86241 14.56416,-1.72852 z"
           style="opacity:1;fill:#f4f4f4;fill-opacity:0.818219;stroke-width:1.04557"
           id="rect6" />
        <path
           transform="translate(-38.962982,-1.916989)"
           d="m 628.81055,379.80469 v 32.82226 h -63.57813 c -0.75887,0 -1.36719,0.5578 -1.36719,1.25196 v 17.07421 c 0,0.69417 0.60832,1.25196 1.36719,1.25196 h 63.57813 v 0.90039 h -63.55469 c -0.75886,0 -1.37109,0.55974 -1.37109,1.25391 v 17.07226 c 0,0.69417 0.61222,1.25391 1.37109,1.25391 h 63.55469 v 41.05078 h -63.04102 c -0.75888,0 -1.36914,0.55974 -1.36914,1.2539 v 17.07227 c 0,0.69416 0.61026,1.25195 1.36914,1.25195 h 63.04102 v 1.43164 h -63.20313 c -0.75888,0 -1.37109,0.55975 -1.37109,1.25391 v 17.07227 c 0,0.69416 0.61221,1.25195 1.37109,1.25195 h 63.20313 v 41.36133 h -62.27539 c -0.75887,0 -1.3711,0.55974 -1.3711,1.2539 v 17.07227 c 0,0.69416 0.61223,1.2539 1.3711,1.2539 h 62.27539 v 1.03126 h -62.39649 c -0.75888,0 -1.36914,0.55779 -1.36914,1.25195 v 17.07226 c 0,0.69416 0.61026,1.25391 1.36914,1.25391 h 62.39649 v 42.17188 h -61.88282 c -0.75888,0 -1.37109,0.55779 -1.37109,1.25195 v 17.07226 c 0,0.69416 0.61221,1.25391 1.37109,1.25391 h 61.88282 v 0.18164 h -61.81641 c -0.75887,10e-6 -1.37109,0.55779 -1.37109,1.25195 v 17.07422 c 0,0.69416 0.61222,1.25196 1.37109,1.25196 h 61.81641 v 0.0918 c -2.78379,0.27845 -5.58076,0.61498 -8.26758,1.01563 -40.09127,5.97839 -41.91252,8.31379 -28.625,36.71093 3.62605,7.74933 6.84526,18.31514 8.52344,27.97071 2.59094,14.90723 2.56005,16.16615 -0.8418,32.06836 -8.18997,38.2845 -16.03651,113.86012 -15.0625,145.08789 0.54241,17.39043 1.17978,21.24013 4.46875,26.94726 7.95413,13.80252 21.00782,23.92252 35.80664,27.75782 11.03915,2.8609 27.07533,1.38637 39.24023,-3.60743 12.63463,-5.1866 23.68396,-16.01794 28.74024,-28.16992 3.43622,-8.25841 3.61409,-10.62121 2.66601,-35.96875 -1.59979,-42.77183 -7.60477,-94.72845 -14.95898,-129.44726 -3.26026,-15.39147 -3.4182,-18.47612 -1.61133,-31.66407 1.34493,-9.81628 4.02138,-19.22533 8.15235,-28.66992 10.82349,-24.7457 11.05498,-28.51917 2.01171,-32.79687 -6.10029,-2.88558 -24.05918,-6.48001 -38.25976,-7.73633 v -40.24023 h 63.4707 c 0.75887,0 1.3711,-0.55584 1.3711,-1.25 V 638.4082 c 0,-0.69416 -0.61223,-1.25195 -1.3711,-1.25195 h -63.4707 v -0.19141 h 63.54687 c 0.75888,0 1.3711,-0.55584 1.3711,-1.25 v -17.07422 c 10e-6,-0.69416 -0.61222,-1.2539 -1.3711,-1.2539 h -63.54687 v -42.02149 h 63.85156 c 0.75887,0 1.3711,-0.55974 1.37109,-1.2539 v -17.07227 c 0,-0.69417 -0.61222,-1.2539 -1.37109,-1.2539 h -63.85156 v -0.60743 h 63.5918 c 0.75887,0 1.36914,-0.56168 1.36914,-1.25585 v -17.07227 c 0,-0.69416 -0.61027,-1.25391 -1.36914,-1.25391 h -63.5918 v -41.83008 h 63.77734 c 0.75887,0 1.36914,-0.55974 1.36914,-1.2539 v -17.07227 c 0,-0.47235 -0.293,-0.86648 -0.71289,-1.08007 0.31441,-0.22922 0.52735,-0.56879 0.52735,-0.9668 v -17.07422 c 0,-0.69416 -0.61027,-1.25195 -1.36914,-1.25195 h -63.5918 v -44.6211 h 63.72265 c 0.75886,0 1.3711,-0.55974 1.3711,-1.2539 v -17.07227 c 0,-0.69416 -0.61224,-1.25391 -1.3711,-1.25391 h -63.72265 v -0.14062 h 63.875 c 0.75887,0 1.36914,-0.55779 1.36914,-1.25195 v -9.66797 z m 33.62304,414.60742 c 4.27393,0.17915 4.44998,2.74273 2.82618,9.35351 -2.09817,8.54196 -7.49839,16.23281 -13.91602,19.8125 -5.47521,3.05403 -14.58174,3.68977 -20.65234,1.44336 -7.78786,-2.88188 -18.8723,-20.38758 -17.34961,-27.39843 0.68477,-3.15293 3.26353,-3.31285 20.43554,-1.27735 6.25756,0.74174 13.41694,0.43645 20.07227,-0.85547 3.85055,-0.74747 6.64129,-1.15955 8.58398,-1.07812 z m -23.75,123.72656 c 0.60794,-0.005 1.21652,-0.001 1.82227,0.0156 10.66123,0.29456 20.92388,3.95428 28.42969,10.49218 15.5106,13.5104 11.18084,34.43475 -9.08399,43.9004 -9.0618,4.23274 -26.53004,5.19052 -35.7832,1.96289 -15.10059,-5.26722 -24.41728,-18.89816 -21.9707,-32.14454 1.49972,-8.11991 13.85297,-19.76846 23.84375,-22.48242 4.18969,-1.1381 8.48665,-1.70853 12.74218,-1.74414 z"
           style="opacity:1;fill:#f4f4f4;fill-opacity:0.604716;stroke-width:1.04557"
           id="path865"
           inkscape:connector-curvature="0" />
      </g>
    </g>
  </g>
</svg>
