<?xml version="1.0" encoding="UTF-8" standalone="no"?>
<svg
   xmlns:dc="http://purl.org/dc/elements/1.1/"
   xmlns:cc="http://creativecommons.org/ns#"
   xmlns:rdf="http://www.w3.org/1999/02/22-rdf-syntax-ns#"
   xmlns:svg="http://www.w3.org/2000/svg"
   xmlns="http://www.w3.org/2000/svg"
   xmlns:sodipodi="http://sodipodi.sourceforge.net/DTD/sodipodi-0.dtd"
   xmlns:inkscape="http://www.inkscape.org/namespaces/inkscape"
   width="64px"
   height="64px"
   viewBox="0 0 64 64"
   version="1.1"
   id="SVGRoot"
   sodipodi:docname="folder-activities.svg"
   inkscape:version="1.0beta2 (2b71d25d45, 2019-12-03)">
  <sodipodi:namedview
     id="base"
     pagecolor="#E5E5E5"
     bordercolor="#666666"
     borderopacity="1.0"
     inkscape:pageopacity="0.0"
     inkscape:pageshadow="2"
     inkscape:zoom="20.055902"
     inkscape:cx="17.36622"
     inkscape:cy="32.603412"
     inkscape:document-units="px"
     inkscape:current-layer="g852"
     showgrid="false"
     inkscape:showpageshadow="false"
     inkscape:pagecheckerboard="false"
     units="px"
     inkscape:window-width="1920"
     inkscape:window-height="1027"
     inkscape:window-x="0"
     inkscape:window-y="21"
     inkscape:window-maximized="1"
     inkscape:lockguides="true"
     inkscape:grid-bbox="true"
     inkscape:snap-object-midpoints="true"
     inkscape:snap-page="true"
     inkscape:snap-grids="false"
     inkscape:snap-to-guides="false"
     inkscape:snap-global="false"
     inkscape:document-rotation="0" />
  <defs
     id="defs2" />
  <metadata
     id="metadata5">
    <rdf:RDF>
      <cc:Work
         rdf:about="">
        <dc:format>image/svg+xml</dc:format>
        <dc:type
           rdf:resource="http://purl.org/dc/dcmitype/StillImage" />
        <dc:title />
        <cc:license
           rdf:resource="http://creativecommons.org/licenses/by-sa/4.0/" />
        <dc:date>2017</dc:date>
        <dc:creator>
          <cc:Agent>
            <dc:title>Cristian Pozzessere &quot;ilnanny&quot;</dc:title>
          </cc:Agent>
        </dc:creator>
        <dc:subject>
          <rdf:Bag>
            <rdf:li>Global language</rdf:li>
          </rdf:Bag>
        </dc:subject>
        <dc:description>Playing with Inkscape on Gnu/Linux O. S.</dc:description>
        <dc:contributor>
          <cc:Agent>
            <dc:title>In the night, alone like a dog.</dc:title>
          </cc:Agent>
        </dc:contributor>
      </cc:Work>
      <cc:License
         rdf:about="http://creativecommons.org/licenses/by-sa/4.0/">
        <cc:permits
           rdf:resource="http://creativecommons.org/ns#Reproduction" />
        <cc:permits
           rdf:resource="http://creativecommons.org/ns#Distribution" />
        <cc:requires
           rdf:resource="http://creativecommons.org/ns#Notice" />
        <cc:requires
           rdf:resource="http://creativecommons.org/ns#Attribution" />
        <cc:permits
           rdf:resource="http://creativecommons.org/ns#DerivativeWorks" />
        <cc:requires
           rdf:resource="http://creativecommons.org/ns#ShareAlike" />
      </cc:License>
    </rdf:RDF>
  </metadata>
  <g
     id="layer1"
     inkscape:groupmode="layer"
     inkscape:label="Layer 1">
    <g
       id="g938"
       transform="matrix(0.984375,0,0,0.96296292,-3.1992191,-18.562364)">
      <g
         id="g1521"
         transform="matrix(0.99514741,0,0,1,0.64471561,-1.0384589)">
        <g
           id="g852">
          <rect
             y="26.558754"
             x="3.259584"
             height="55.789837"
             width="63.980831"
             id="rect817"
             style="opacity:1;fill:#777777;fill-opacity:1;fill-rule:nonzero;stroke:#5f5e5c;stroke-width:1.36143422;stroke-linecap:square;stroke-linejoin:bevel;stroke-miterlimit:4;stroke-dasharray:none;stroke-opacity:1;paint-order:markers stroke fill" />
          <rect
             transform="rotate(90)"
             style="opacity:1;fill:#fefbfb;fill-opacity:0.75478929;fill-rule:nonzero;stroke:none;stroke-width:0.06918984;stroke-linecap:square;stroke-linejoin:bevel;stroke-miterlimit:4;stroke-dasharray:none;stroke-opacity:0.79607843;paint-order:markers stroke fill"
             id="rect1500"
             width="39.113285"
             height="1.9279207"
             x="43.239227"
             y="-67.240417" />
          <rect
             y="-5.8748436"
             x="43.209305"
             height="2.6152594"
             width="39.113285"
             id="rect1498"
             style="opacity:1;fill:#fefbfb;fill-opacity:0.75478929;fill-rule:nonzero;stroke:none;stroke-width:0.08058518;stroke-linecap:square;stroke-linejoin:bevel;stroke-miterlimit:4;stroke-dasharray:none;stroke-opacity:0.79607843;paint-order:markers stroke fill"
             transform="rotate(90)" />
          <g
             style="opacity:0.69300022"
             transform="matrix(0.26717791,0,0,0.37695836,-8.2290657,12.422815)"
             id="g851">
            <path
               inkscape:connector-curvature="0"
               style="opacity:1;fill:#f8fafa;fill-opacity:1;fill-rule:nonzero;stroke:none;stroke-width:0.67029333;stroke-linecap:square;stroke-linejoin:bevel;stroke-miterlimit:4;stroke-dasharray:none;stroke-opacity:0.79607843;paint-order:markers stroke fill"
               d="M 47.995635,54.25 H 277.46902 V 85.090837 H 47.995635 Z"
               id="rect831" />
            <path
               style="opacity:1;fill:#93a2a5;fill-opacity:1;fill-rule:nonzero;stroke:none;stroke-width:0.21135312;stroke-linecap:square;stroke-linejoin:bevel;stroke-miterlimit:4;stroke-dasharray:none;stroke-opacity:0.79607843;paint-order:markers stroke fill"
               d="M 277.46902,75.592181 244.49991,54.25 v 21.342181 z"
               id="path1496"
               inkscape:connector-curvature="0"
               sodipodi:nodetypes="cccc" />
          </g>
          <g
             id="g1484"
             style="fill:#777777;fill-opacity:1;stroke:#777777;stroke-width:1.16166735;stroke-miterlimit:4;stroke-dasharray:none;stroke-opacity:1"
             transform="matrix(0.92930117,0,0,0.97367239,2.5265655,4.0162188)">
            <path
               sodipodi:nodetypes="cccccccccc"
               id="rect821"
               style="opacity:1;fill:#777777;fill-opacity:1;fill-rule:nonzero;stroke:#777777;stroke-width:1.16166735;stroke-linecap:square;stroke-linejoin:bevel;stroke-miterlimit:4;stroke-dasharray:none;stroke-opacity:1;paint-order:markers stroke fill"
               d="m 5.056055,36.025647 h 24.762237 l 3.746032,4.177904 H 5.056055 Z M 3.25,40.203551 h 64 v 40.250917 h -64 z"
               inkscape:connector-curvature="0" />
          </g>
          <rect
             style="opacity:1;fill:#ffcc00;fill-opacity:0.99315072;fill-rule:nonzero;stroke:none;stroke-width:0.47680542;stroke-linecap:square;stroke-linejoin:bevel;stroke-miterlimit:4;stroke-dasharray:none;stroke-opacity:1;paint-order:markers stroke fill"
             id="rect825"
             width="5.3264122"
             height="3.0460732"
             x="5.7145939"
             y="28.096727" />
          <rect
             y="28.096727"
             x="13.652818"
             height="3.0460732"
             width="5.3264122"
             id="rect827"
             style="opacity:1;fill:#ff0084;fill-opacity:0.99315072;fill-rule:nonzero;stroke:none;stroke-width:0.47680542;stroke-linecap:square;stroke-linejoin:bevel;stroke-miterlimit:4;stroke-dasharray:none;stroke-opacity:1;paint-order:markers stroke fill" />
          <rect
             style="opacity:1;fill:#aad450;fill-opacity:0.99315072;fill-rule:nonzero;stroke:none;stroke-width:0.47680542;stroke-linecap:square;stroke-linejoin:bevel;stroke-miterlimit:4;stroke-dasharray:none;stroke-opacity:1;paint-order:markers stroke fill"
             id="rect829"
             width="5.3264122"
             height="3.0460732"
             x="21.59104"
             y="28.096727" />
          <rect
             style="opacity:0.704;fill:#E5E5E5;fill-opacity:0.99657533;fill-rule:nonzero;stroke:none;stroke-width:0.0899523;stroke-linecap:square;stroke-linejoin:bevel;stroke-miterlimit:4;stroke-dasharray:none;stroke-opacity:0.79607843;paint-order:markers stroke fill"
             id="rect855"
             width="64.143631"
             height="1.9870082"
             x="3.1380224"
             y="78.956886" />
          <rect
             y="80.455818"
             x="3.1380224"
             height="1.9870082"
             width="64.292816"
             id="rect853"
             style="opacity:0.597;fill:#E5E5E5;fill-opacity:0.96907217;fill-rule:nonzero;stroke:none;stroke-width:0.09005686;stroke-linecap:square;stroke-linejoin:bevel;stroke-miterlimit:4;stroke-dasharray:none;stroke-opacity:0.79607843;paint-order:markers stroke fill" />
          <rect
             style="opacity:0.704;fill:#fcfdff;fill-opacity:1;fill-rule:nonzero;stroke:none;stroke-width:0.06058259;stroke-linecap:square;stroke-linejoin:bevel;stroke-miterlimit:4;stroke-dasharray:none;stroke-opacity:0.79607843;paint-order:markers stroke fill"
             id="rect1504"
             width="54.548206"
             height="1.0598483"
             x="8.0103283"
             y="43.691528" />
          <rect
             y="45.030849"
             x="8.0103283"
             height="1.0598483"
             width="54.548206"
             id="rect1523"
             style="opacity:0.597;fill:#000207;fill-opacity:1;fill-rule:nonzero;stroke:none;stroke-width:0.06058259;stroke-linecap:square;stroke-linejoin:bevel;stroke-miterlimit:4;stroke-dasharray:none;stroke-opacity:0.79607843;paint-order:markers stroke fill" />
          <g
             transform="matrix(0.67334099,0,0,0.68497304,-74.289994,-362.61745)"
             id="clock1"
             style="fill:none;stroke:#E5E5E5;stroke-width:1.2777;stroke-miterlimit:4;stroke-dasharray:none;stroke-opacity:0.8659">
            <path
               id="path852"
               d="M 162.73242 598.79102 C 150.76661 598.79102 141.02148 608.53615 141.02148 620.50195 C 141.02148 632.46775 150.76661 642.21289 162.73242 642.21289 C 174.69822 642.21289 184.44336 632.46775 184.44336 620.50195 C 184.44336 608.53615 174.69822 598.79102 162.73242 598.79102 z M 162.73242 600.06836 C 174.00522 600.06836 183.16602 609.22914 183.16602 620.50195 C 183.16602 631.77476 174.00522 640.93555 162.73242 640.93555 C 151.45961 640.93555 142.29883 631.77476 142.29883 620.50195 C 142.29883 609.22914 151.45961 600.06836 162.73242 600.06836 z M 162.73242 600.19531 C 151.54137 600.19531 142.42578 609.31091 142.42578 620.50195 C 142.42578 631.693 151.54137 640.80859 162.73242 640.80859 C 173.92347 640.80859 183.03906 631.693 183.03906 620.50195 C 183.03906 609.31091 173.92347 600.19531 162.73242 600.19531 z M 162.73242 601.47461 C 173.23045 601.47461 181.76172 610.00392 181.76172 620.50195 C 181.76172 630.99999 173.23045 639.53125 162.73242 639.53125 C 152.23439 639.53125 143.70312 630.99999 143.70312 620.50195 C 143.70312 610.00392 152.23439 601.47461 162.73242 601.47461 z M 162.73242 603.62305 C 161.9998 603.62305 161.39062 604.23138 161.39062 604.96484 L 161.39062 605.66602 C 161.39062 606.39948 161.9998 607.00781 162.73242 607.00781 C 163.46504 607.00781 164.07422 606.39948 164.07422 605.66602 L 164.07422 604.96484 C 164.07422 604.23138 163.46504 603.62305 162.73242 603.62305 z M 162.73242 604.90039 C 162.77526 604.90039 162.79688 604.92143 162.79688 604.96484 L 162.79688 605.66602 C 162.79688 605.70941 162.77526 605.73047 162.73242 605.73047 C 162.68958 605.73047 162.66797 605.70941 162.66797 605.66602 L 162.66797 604.96484 C 162.66797 604.92143 162.68958 604.90039 162.73242 604.90039 z M 151.80664 608.15234 C 151.46198 608.15234 151.11644 608.282 150.85742 608.54102 C 150.33939 609.05905 150.33938 609.91947 150.85742 610.4375 L 151.35352 610.93555 C 151.61249 611.19452 151.95987 611.32812 152.30273 611.32812 C 152.64551 611.32813 152.99099 611.19464 153.25 610.93555 C 153.76805 610.41752 153.76805 609.55709 153.25 609.03906 L 152.75391 608.54102 C 152.49489 608.282 152.1513 608.15234 151.80664 608.15234 z M 173.66016 608.15234 C 173.31568 608.15242 172.96992 608.2827 172.71094 608.54102 L 172.21484 609.03906 C 171.69681 609.5571 171.69681 610.41751 172.21484 610.93555 C 172.47382 611.19452 172.81924 611.32813 173.16211 611.32812 C 173.50488 611.32813 173.85231 611.19464 174.11133 610.93555 L 174.60742 610.4375 C 175.12545 609.91947 175.12544 609.05905 174.60742 608.54102 C 174.34821 608.28181 174.00463 608.15227 173.66016 608.15234 z M 162.73242 609.24219 C 161.9998 609.24219 161.39062 609.85052 161.39062 610.58398 L 161.39062 617.36328 C 160.61393 617.70926 160.02353 618.29938 159.67773 619.07617 L 155.00586 619.07617 C 154.27324 619.07617 153.66406 619.6845 153.66406 620.41797 C 153.66406 621.15143 154.27324 621.75781 155.00586 621.75781 L 159.7168 621.75781 C 160.25769 622.953 161.34021 623.86523 162.73242 623.86523 C 164.6283 623.86523 166.18164 622.31385 166.18164 620.41797 C 166.18164 619.02587 165.26849 617.94344 164.07422 617.40234 L 164.07422 610.58398 C 164.07422 609.85052 163.46504 609.24219 162.73242 609.24219 z M 151.76172 609.44531 C 151.79296 609.41407 151.82032 609.41407 151.85156 609.44531 L 152.34766 609.94141 C 152.37891 609.97265 152.37891 610 152.34766 610.03125 C 152.33273 610.04618 152.3196 610.05078 152.30273 610.05078 C 152.28596 610.05078 152.27278 610.04621 152.25781 610.03125 L 151.76172 609.53516 C 151.73046 609.5039 151.73045 609.47658 151.76172 609.44531 z M 173.61328 609.44531 L 173.61523 609.44531 C 173.64574 609.41607 173.67294 609.41512 173.70312 609.44531 C 173.73439 609.47658 173.73437 609.50391 173.70312 609.53516 L 173.20703 610.03125 C 173.1921 610.04618 173.17898 610.05078 173.16211 610.05078 C 173.14534 610.05078 173.13215 610.04621 173.11719 610.03125 C 173.08594 610.00001 173.08594 609.97265 173.11719 609.94141 L 173.61328 609.44531 z M 162.73242 610.51953 C 162.77526 610.51953 162.79688 610.54059 162.79688 610.58398 L 162.79688 618.20117 L 163.27344 618.32617 C 164.20785 618.56901 164.90234 619.40543 164.90234 620.41797 C 164.90234 621.62113 163.93558 622.58789 162.73242 622.58789 C 161.72075 622.58789 160.88341 621.89317 160.64062 620.95898 L 160.51562 620.48047 L 155.00586 620.48047 C 154.96302 620.48047 154.94141 620.46136 154.94141 620.41797 C 154.94141 620.37456 154.96302 620.35352 155.00586 620.35352 L 160.51562 620.35352 L 160.64062 619.875 C 160.83814 619.11587 161.43226 618.52369 162.19141 618.32617 L 162.66797 618.20117 L 162.66797 610.58398 C 162.66797 610.54059 162.68958 610.51953 162.73242 610.51953 z M 162.73242 618.37305 C 161.6113 618.37305 160.68945 619.29685 160.68945 620.41797 C 160.68945 621.53909 161.61131 622.46094 162.73242 622.46094 C 163.85354 622.46094 164.77539 621.53908 164.77539 620.41797 C 164.77539 619.29685 163.85354 618.37305 162.73242 618.37305 z M 147.2793 619.07617 C 146.54668 619.07617 145.9375 619.6845 145.9375 620.41797 C 145.9375 621.15143 146.54668 621.75781 147.2793 621.75781 L 147.98242 621.75781 C 148.71504 621.75781 149.32227 621.15143 149.32227 620.41797 C 149.32227 619.6845 148.71504 619.07617 147.98242 619.07617 L 147.2793 619.07617 z M 177.48242 619.07617 C 176.7498 619.07617 176.14258 619.6845 176.14258 620.41797 C 176.14258 621.15143 176.7498 621.75781 177.48242 621.75781 L 178.18555 621.75781 C 178.91817 621.75781 179.52734 621.15143 179.52734 620.41797 C 179.52734 619.6845 178.91817 619.07617 178.18555 619.07617 L 177.48242 619.07617 z M 162.73242 619.65234 C 163.16082 619.65234 163.49805 619.98956 163.49805 620.41797 C 163.49805 620.84637 163.16083 621.18359 162.73242 621.18359 C 162.30402 621.18359 161.9668 620.84637 161.9668 620.41797 C 161.9668 619.98957 162.30402 619.65234 162.73242 619.65234 z M 147.2793 620.35352 L 147.98242 620.35352 C 148.02526 620.35352 148.04492 620.37456 148.04492 620.41797 C 148.04492 620.46136 148.02526 620.48047 147.98242 620.48047 L 147.2793 620.48047 C 147.23646 620.48047 147.2168 620.46136 147.2168 620.41797 C 147.2168 620.37456 147.23646 620.35352 147.2793 620.35352 z M 177.48242 620.35352 L 178.18555 620.35352 C 178.22839 620.35352 178.25 620.37456 178.25 620.41797 C 178.25 620.46136 178.22839 620.48047 178.18555 620.48047 L 177.48242 620.48047 C 177.43956 620.48047 177.41992 620.46136 177.41992 620.41797 C 177.41992 620.37456 177.43956 620.35352 177.48242 620.35352 z M 152.30273 629.50977 C 151.95816 629.50987 151.61249 629.63946 151.35352 629.89844 L 150.85742 630.39648 C 150.33938 630.91451 150.33939 631.77494 150.85742 632.29297 C 151.11641 632.55196 151.4638 632.68555 151.80664 632.68555 C 152.14941 632.68555 152.49488 632.55205 152.75391 632.29297 L 153.25 631.79492 C 153.76805 631.27689 153.76805 630.41647 153.25 629.89844 C 152.9906 629.63904 152.64731 629.50966 152.30273 629.50977 z M 173.16211 629.50977 C 172.81745 629.50977 172.47386 629.63943 172.21484 629.89844 C 171.69681 630.41647 171.69681 631.27689 172.21484 631.79492 L 172.71094 632.29297 C 172.96992 632.55196 173.31731 632.68555 173.66016 632.68555 C 174.00293 632.68555 174.3484 632.55205 174.60742 632.29297 C 175.12544 631.77493 175.12545 630.91451 174.60742 630.39648 L 174.11133 629.89844 C 173.85231 629.63942 173.50677 629.50977 173.16211 629.50977 z M 152.25781 630.80273 C 152.28773 630.77281 152.31718 630.77226 152.34766 630.80273 C 152.37891 630.83398 152.37891 630.86133 152.34766 630.89258 L 151.84961 631.38867 C 151.83469 631.40359 151.82351 631.4082 151.80664 631.4082 C 151.78986 631.4082 151.77667 631.40362 151.76172 631.38867 C 151.73045 631.3574 151.73046 631.33008 151.76172 631.29883 L 152.25781 630.80273 z M 173.11719 630.80273 C 173.14845 630.77147 173.17578 630.77148 173.20703 630.80273 L 173.70312 631.29883 C 173.73437 631.33008 173.73439 631.35741 173.70312 631.38867 C 173.68821 631.40359 173.67702 631.4082 173.66016 631.4082 C 173.64338 631.4082 173.63019 631.40362 173.61523 631.38867 L 173.11719 630.89258 C 173.08594 630.86133 173.08594 630.83398 173.11719 630.80273 z M 162.73242 633.82617 C 161.9998 633.82617 161.39062 634.4345 161.39062 635.16797 L 161.39062 635.87109 C 161.39062 636.60456 161.9998 637.21094 162.73242 637.21094 C 163.46504 637.21094 164.07422 636.60456 164.07422 635.87109 L 164.07422 635.16797 C 164.07422 634.4345 163.46504 633.82617 162.73242 633.82617 z M 162.73242 635.10547 C 162.77526 635.10547 162.79688 635.12457 162.79688 635.16797 L 162.79688 635.87109 C 162.79688 635.91449 162.77526 635.93359 162.73242 635.93359 C 162.68958 635.93359 162.66797 635.91449 162.66797 635.87109 L 162.66797 635.16797 C 162.66797 635.12457 162.68958 635.10547 162.73242 635.10547 z "
               style="color:#E5E5E5;font-style:normal;font-variant:normal;font-weight:normal;font-stretch:normal;font-size:medium;line-height:normal;font-family:sans-serif;font-variant-ligatures:normal;font-variant-position:normal;font-variant-caps:normal;font-variant-numeric:normal;font-variant-alternates:normal;font-variant-east-asian:normal;font-feature-settings:normal;font-variation-settings:normal;text-indent:0;text-align:start;text-decoration:none;text-decoration-line:none;text-decoration-style:solid;text-decoration-color:#E5E5E5;letter-spacing:normal;word-spacing:normal;text-transform:none;writing-mode:lr-tb;direction:ltr;text-orientation:mixed;dominant-baseline:auto;baseline-shift:baseline;text-anchor:start;white-space:normal;shape-padding:0;shape-margin:0;inline-size:0;clip-rule:nonzero;display:inline;overflow:visible;visibility:visible;isolation:auto;mix-blend-mode:normal;color-interpolation:sRGB;color-interpolation-filters:linearRGB;solid-color:#E5E5E5;solid-opacity:1;vector-effect:none;fill:#E5E5E5;fill-opacity:0.86666667;fill-rule:nonzero;stroke:none;stroke-width:1.2777;stroke-linecap:butt;stroke-linejoin:miter;stroke-miterlimit:4;stroke-dasharray:none;stroke-dashoffset:0;stroke-opacity:1;anonymous:0;color-rendering:auto;image-rendering:auto;shape-rendering:auto;text-rendering:auto;enable-background:accumulate;stop-color:#E5E5E5;stop-opacity:1;opacity:1" />
          </g>
        </g>
      </g>
    </g>
  </g>
</svg>
