<?xml version="1.0" encoding="UTF-8" standalone="no"?>
<!-- Created with Inkscape (http://www.inkscape.org/) -->

<svg
   xmlns:dc="http://purl.org/dc/elements/1.1/"
   xmlns:cc="http://creativecommons.org/ns#"
   xmlns:rdf="http://www.w3.org/1999/02/22-rdf-syntax-ns#"
   xmlns:svg="http://www.w3.org/2000/svg"
   xmlns="http://www.w3.org/2000/svg"
   xmlns:sodipodi="http://sodipodi.sourceforge.net/DTD/sodipodi-0.dtd"
   xmlns:inkscape="http://www.inkscape.org/namespaces/inkscape"
   width="64px"
   height="64px"
   viewBox="0 0 64 64"
   version="1.1"
   id="SVGRoot"
   sodipodi:docname="folder-idea.svg"
   inkscape:version="0.92.2 2405546, 2018-03-11">
  <sodipodi:namedview
     id="base"
     pagecolor="#E5E5E5"
     bordercolor="#666666"
     borderopacity="1.0"
     inkscape:pageopacity="0.0"
     inkscape:pageshadow="2"
     inkscape:zoom="10.889077"
     inkscape:cx="17.36622"
     inkscape:cy="32.603412"
     inkscape:document-units="px"
     inkscape:current-layer="g852"
     showgrid="false"
     inkscape:showpageshadow="false"
     inkscape:pagecheckerboard="false"
     units="px"
     inkscape:window-width="1920"
     inkscape:window-height="994"
     inkscape:window-x="0"
     inkscape:window-y="21"
     inkscape:window-maximized="1"
     inkscape:lockguides="true"
     inkscape:grid-bbox="true"
     inkscape:snap-object-midpoints="true"
     inkscape:snap-page="true"
     inkscape:snap-grids="false"
     inkscape:snap-to-guides="false"
     inkscape:snap-global="false" />
  <defs
     id="defs2" />
  <metadata
     id="metadata5">
    <rdf:RDF>
      <cc:Work
         rdf:about="">
        <dc:format>image/svg+xml</dc:format>
        <dc:type
           rdf:resource="http://purl.org/dc/dcmitype/StillImage" />
        <dc:title></dc:title>
        <cc:license
           rdf:resource="http://creativecommons.org/licenses/by-sa/4.0/" />
        <dc:date>2017</dc:date>
        <dc:creator>
          <cc:Agent>
            <dc:title>Cristian Pozzessere &quot;ilnanny&quot;</dc:title>
          </cc:Agent>
        </dc:creator>
        <dc:subject>
          <rdf:Bag>
            <rdf:li>Global language</rdf:li>
          </rdf:Bag>
        </dc:subject>
        <dc:description>Playing with Inkscape on Gnu/Linux O. S.</dc:description>
        <dc:contributor>
          <cc:Agent>
            <dc:title>In the night, alone like a dog.</dc:title>
          </cc:Agent>
        </dc:contributor>
      </cc:Work>
      <cc:License
         rdf:about="http://creativecommons.org/licenses/by-sa/4.0/">
        <cc:permits
           rdf:resource="http://creativecommons.org/ns#Reproduction" />
        <cc:permits
           rdf:resource="http://creativecommons.org/ns#Distribution" />
        <cc:requires
           rdf:resource="http://creativecommons.org/ns#Notice" />
        <cc:requires
           rdf:resource="http://creativecommons.org/ns#Attribution" />
        <cc:permits
           rdf:resource="http://creativecommons.org/ns#DerivativeWorks" />
        <cc:requires
           rdf:resource="http://creativecommons.org/ns#ShareAlike" />
      </cc:License>
    </rdf:RDF>
  </metadata>
  <g
     id="layer1"
     inkscape:groupmode="layer"
     inkscape:label="Layer 1">
    <g
       id="g938"
       transform="matrix(0.984375,0,0,0.96296292,-3.1992191,-18.562364)">
      <g
         id="g1521"
         transform="matrix(0.99514741,0,0,1,0.64471561,-1.0384589)">
        <g
           id="g852">
          <rect
             y="26.558754"
             x="3.259584"
             height="55.789837"
             width="63.980831"
             id="rect817"
             style="opacity:1;fill:#777777;fill-opacity:1;fill-rule:nonzero;stroke:#5f5e5c;stroke-width:1.36143422;stroke-linecap:square;stroke-linejoin:bevel;stroke-miterlimit:4;stroke-dasharray:none;stroke-opacity:1;paint-order:markers stroke fill" />
          <rect
             transform="rotate(90)"
             style="opacity:1;fill:#fefbfb;fill-opacity:0.75478929;fill-rule:nonzero;stroke:none;stroke-width:0.06918984;stroke-linecap:square;stroke-linejoin:bevel;stroke-miterlimit:4;stroke-dasharray:none;stroke-opacity:0.79607843;paint-order:markers stroke fill"
             id="rect1500"
             width="39.113285"
             height="1.9279207"
             x="43.239227"
             y="-67.240417" />
          <rect
             y="-5.8748436"
             x="43.209305"
             height="2.6152594"
             width="39.113285"
             id="rect1498"
             style="opacity:1;fill:#fefbfb;fill-opacity:0.75478929;fill-rule:nonzero;stroke:none;stroke-width:0.08058518;stroke-linecap:square;stroke-linejoin:bevel;stroke-miterlimit:4;stroke-dasharray:none;stroke-opacity:0.79607843;paint-order:markers stroke fill"
             transform="rotate(90)" />
          <g
             style="opacity:0.69300022"
             transform="matrix(0.26717791,0,0,0.37695836,-8.2290657,12.422815)"
             id="g851">
            <path
               inkscape:connector-curvature="0"
               style="opacity:1;fill:#f8fafa;fill-opacity:1;fill-rule:nonzero;stroke:none;stroke-width:0.67029333;stroke-linecap:square;stroke-linejoin:bevel;stroke-miterlimit:4;stroke-dasharray:none;stroke-opacity:0.79607843;paint-order:markers stroke fill"
               d="M 47.995635,54.25 H 277.46902 V 85.090837 H 47.995635 Z"
               id="rect831" />
            <path
               style="opacity:1;fill:#93a2a5;fill-opacity:1;fill-rule:nonzero;stroke:none;stroke-width:0.21135312;stroke-linecap:square;stroke-linejoin:bevel;stroke-miterlimit:4;stroke-dasharray:none;stroke-opacity:0.79607843;paint-order:markers stroke fill"
               d="M 277.46902,75.592181 244.49991,54.25 v 21.342181 z"
               id="path1496"
               inkscape:connector-curvature="0"
               sodipodi:nodetypes="cccc" />
          </g>
          <g
             id="g1484"
             style="fill:#777777;fill-opacity:1;stroke:#777777;stroke-width:1.16166735;stroke-miterlimit:4;stroke-dasharray:none;stroke-opacity:1"
             transform="matrix(0.92930117,0,0,0.97367239,2.5265655,4.0162188)">
            <path
               sodipodi:nodetypes="cccccccccc"
               id="rect821"
               style="opacity:1;fill:#777777;fill-opacity:1;fill-rule:nonzero;stroke:#777777;stroke-width:1.16166735;stroke-linecap:square;stroke-linejoin:bevel;stroke-miterlimit:4;stroke-dasharray:none;stroke-opacity:1;paint-order:markers stroke fill"
               d="m 5.056055,36.025647 h 24.762237 l 3.746032,4.177904 H 5.056055 Z M 3.25,40.203551 h 64 v 40.250917 h -64 z"
               inkscape:connector-curvature="0" />
          </g>
          <rect
             style="opacity:1;fill:#ffcc00;fill-opacity:0.99315072;fill-rule:nonzero;stroke:none;stroke-width:0.47680542;stroke-linecap:square;stroke-linejoin:bevel;stroke-miterlimit:4;stroke-dasharray:none;stroke-opacity:1;paint-order:markers stroke fill"
             id="rect825"
             width="5.3264122"
             height="3.0460732"
             x="5.7145939"
             y="28.096727" />
          <rect
             y="28.096727"
             x="13.652818"
             height="3.0460732"
             width="5.3264122"
             id="rect827"
             style="opacity:1;fill:#ff0084;fill-opacity:0.99315072;fill-rule:nonzero;stroke:none;stroke-width:0.47680542;stroke-linecap:square;stroke-linejoin:bevel;stroke-miterlimit:4;stroke-dasharray:none;stroke-opacity:1;paint-order:markers stroke fill" />
          <rect
             style="opacity:1;fill:#aad450;fill-opacity:0.99315072;fill-rule:nonzero;stroke:none;stroke-width:0.47680542;stroke-linecap:square;stroke-linejoin:bevel;stroke-miterlimit:4;stroke-dasharray:none;stroke-opacity:1;paint-order:markers stroke fill"
             id="rect829"
             width="5.3264122"
             height="3.0460732"
             x="21.59104"
             y="28.096727" />
          <rect
             style="opacity:0.704;fill:#E5E5E5;fill-opacity:0.99657533;fill-rule:nonzero;stroke:none;stroke-width:0.0899523;stroke-linecap:square;stroke-linejoin:bevel;stroke-miterlimit:4;stroke-dasharray:none;stroke-opacity:0.79607843;paint-order:markers stroke fill"
             id="rect855"
             width="64.143631"
             height="1.9870082"
             x="3.1380224"
             y="78.956886" />
          <rect
             y="80.455818"
             x="3.1380224"
             height="1.9870082"
             width="64.292816"
             id="rect853"
             style="opacity:0.597;fill:#E5E5E5;fill-opacity:0.96907217;fill-rule:nonzero;stroke:none;stroke-width:0.09005686;stroke-linecap:square;stroke-linejoin:bevel;stroke-miterlimit:4;stroke-dasharray:none;stroke-opacity:0.79607843;paint-order:markers stroke fill" />
          <rect
             style="opacity:0.704;fill:#fcfdff;fill-opacity:1;fill-rule:nonzero;stroke:none;stroke-width:0.06058259;stroke-linecap:square;stroke-linejoin:bevel;stroke-miterlimit:4;stroke-dasharray:none;stroke-opacity:0.79607843;paint-order:markers stroke fill"
             id="rect1504"
             width="54.548206"
             height="1.0598483"
             x="8.0103283"
             y="43.691528" />
          <rect
             y="45.030849"
             x="8.0103283"
             height="1.0598483"
             width="54.548206"
             id="rect1523"
             style="opacity:0.597;fill:#000207;fill-opacity:1;fill-rule:nonzero;stroke:none;stroke-width:0.06058259;stroke-linecap:square;stroke-linejoin:bevel;stroke-miterlimit:4;stroke-dasharray:none;stroke-opacity:0.79607843;paint-order:markers stroke fill" />
          <g
             transform="matrix(0.80685108,0,0,0.82078952,-40.724013,-632.89886)"
             id="idea"
             style="fill:none;stroke:#E5E5E5;stroke-width:1.24280024;stroke-miterlimit:4;stroke-dasharray:none;stroke-opacity:0.86973177">
            <path
               inkscape:connector-curvature="0"
               id="path3412"
               style="fill:none;fill-opacity:1;stroke:#E5E5E5;stroke-width:1.24280024;stroke-miterlimit:4;stroke-dasharray:none;stroke-opacity:0.86973177"
               d="m 94.20382,837.46246 c -4.647862,0 -8.428947,3.78108 -8.428947,8.42895 0,0.38843 0.313978,0.70241 0.702412,0.70241 0.388434,0 0.702413,-0.31398 0.702413,-0.70241 0,-3.8731 3.151021,-7.02413 7.024122,-7.02413 0.388434,0 0.702413,-0.31397 0.702413,-0.70241 0,-0.38843 -0.313979,-0.70241 -0.702413,-0.70241 z M 83.772998,836.4538 c 0.13697,0.13697 0.316788,0.2058 0.496606,0.2058 0.179817,0 0.359635,-0.0688 0.496605,-0.2058 0.274643,-0.27465 0.274643,-0.71857 0,-0.99322 l -1.986422,-1.98642 c -0.274643,-0.27464 -0.718568,-0.27464 -0.993211,0 -0.274643,0.27465 -0.274643,0.71857 0,0.99321 z m 20.861642,18.87522 c -0.27464,-0.27465 -0.71857,-0.27465 -0.99321,0 -0.27464,0.27464 -0.27464,0.71857 0,0.99321 l 1.98642,1.98642 c 0.13697,0.13697 0.31679,0.20581 0.49661,0.20581 0.17982,0 0.35963,-0.0688 0.4966,-0.20581 0.27465,-0.27464 0.27465,-0.71857 0,-0.99321 z m -20.861642,0 -1.986422,1.98642 c -0.274643,0.27464 -0.274643,0.71857 0,0.99321 0.136971,0.13697 0.316788,0.20581 0.496606,0.20581 0.179817,0 0.359635,-0.0688 0.496605,-0.20581 l 1.986422,-1.98642 c 0.274643,-0.27464 0.274643,-0.71857 0,-0.99321 -0.274643,-0.27465 -0.718568,-0.27465 -0.993211,0 z m 21.854852,-21.85486 -1.98642,1.98642 c -0.27464,0.27465 -0.27464,0.71857 0,0.99322 0.13697,0.13697 0.31679,0.2058 0.49661,0.2058 0.17981,0 0.35963,-0.0688 0.4966,-0.2058 l 1.98642,-1.98643 c 0.27465,-0.27464 0.27465,-0.71856 0,-0.99321 -0.27464,-0.27464 -0.71927,-0.27394 -0.99321,0 z m -25.472275,11.71483 h -2.809649 c -0.388434,0 -0.702412,0.31398 -0.702412,0.70242 0,0.38843 0.313978,0.70241 0.702412,0.70241 h 2.809649 c 0.388434,0 0.702412,-0.31398 0.702412,-0.70241 0,-0.38844 -0.313978,-0.70242 -0.702412,-0.70242 z m 30.906135,0 h -2.80964 c -0.38844,0 -0.70242,0.31398 -0.70242,0.70242 0,0.38843 0.31398,0.70241 0.70242,0.70241 h 2.80964 c 0.38844,0 0.70242,-0.31398 0.70242,-0.70241 0,-0.38844 -0.31398,-0.70242 -0.70242,-0.70242 z M 94.20382,832.54557 c 0.388434,0 0.702413,-0.31397 0.702413,-0.70241 v -2.80965 c 0,-0.38843 -0.313979,-0.70241 -0.702413,-0.70241 -0.388434,0 -0.702412,0.31398 -0.702412,0.70241 v 2.80965 c 0,0.38844 0.313978,0.70241 0.702412,0.70241 z m 0,1.40483 c -6.584412,0 -11.941008,5.35659 -11.941008,11.94101 0,4.99555 3.084292,9.42075 7.726535,11.16835 v 6.39195 c 0,0.38844 0.313978,0.70242 0.702412,0.70242 h 0.702412 v 1.40482 c 0,0.38843 0.313978,0.70241 0.702412,0.70241 h 4.214474 c 0.388434,0 0.702412,-0.31398 0.702412,-0.70241 v -1.40482 h 0.702413 c 0.388434,0 0.702412,-0.31398 0.702412,-0.70242 v -6.39195 c 4.642246,-1.7476 7.726536,-6.1728 7.726536,-11.16835 0,-6.58442 -5.3566,-11.94101 -11.94101,-11.94101 z m 2.107237,28.7989 c -0.388434,0 -0.702412,0.31398 -0.702412,0.70241 v 1.40483 h -2.809649 v -1.40483 c 0,-0.38843 -0.313979,-0.70241 -0.702413,-0.70241 h -0.702412 v -3.51206 h 5.619298 v 3.51206 z m 1.185672,-6.85414 c -0.288691,0.0948 -0.48326,0.36455 -0.48326,0.66729 v 1.26997 h -5.619298 v -1.26997 c 0,-0.30344 -0.194568,-0.57246 -0.483259,-0.66729 -4.331777,-1.42449 -7.243276,-5.4451 -7.243276,-10.00375 0,-5.80966 4.726532,-10.53619 10.536184,-10.53619 5.80965,0 10.53618,4.72653 10.53618,10.53619 0,4.55865 -2.91149,8.57926 -7.243271,10.00375 z" />
          </g>
        </g>
      </g>
    </g>
  </g>
</svg>
