<?xml version="1.0" encoding="UTF-8" standalone="no"?>
<svg
   xmlns:dc="http://purl.org/dc/elements/1.1/"
   xmlns:cc="http://creativecommons.org/ns#"
   xmlns:rdf="http://www.w3.org/1999/02/22-rdf-syntax-ns#"
   xmlns:svg="http://www.w3.org/2000/svg"
   xmlns="http://www.w3.org/2000/svg"
   xmlns:sodipodi="http://sodipodi.sourceforge.net/DTD/sodipodi-0.dtd"
   xmlns:inkscape="http://www.inkscape.org/namespaces/inkscape"
   inkscape:version="1.0beta2 (2b71d25d45, 2019-12-03)"
   sodipodi:docname="certificate-server.svg"
   id="SVGRoot"
   version="1.1"
   viewBox="0 0 64 64"
   height="64px"
   width="64px">
  <sodipodi:namedview
     inkscape:document-rotation="0"
     inkscape:snap-global="false"
     inkscape:snap-to-guides="false"
     inkscape:snap-grids="false"
     inkscape:snap-page="true"
     inkscape:snap-object-midpoints="true"
     inkscape:grid-bbox="true"
     inkscape:lockguides="true"
     inkscape:window-maximized="1"
     inkscape:window-y="21"
     inkscape:window-x="0"
     inkscape:window-height="1027"
     inkscape:window-width="1920"
     units="px"
     inkscape:pagecheckerboard="false"
     inkscape:showpageshadow="false"
     showgrid="false"
     inkscape:current-layer="g1037"
     inkscape:document-units="px"
     inkscape:cy="41.588868"
     inkscape:cx="32"
     inkscape:zoom="33.96288"
     inkscape:pageshadow="2"
     inkscape:pageopacity="0.0"
     borderopacity="1.0"
     bordercolor="#666666"
     pagecolor="#FFFFFF"
     id="base" />
  <defs
     id="defs2">
    <linearGradient
       id="linearGradient4314-5">
      <stop
         id="stop4316-5"
         offset="0"
         style="stop-color:#ff4b00;stop-opacity:1" />
      <stop
         id="stop4318-8"
         offset="1"
         style="stop-color:#ff5500;stop-opacity:1" />
    </linearGradient>
  </defs>
  <metadata
     id="metadata5">
    <rdf:RDF>
      <cc:Work
         rdf:about="">
        <dc:format>image/svg+xml</dc:format>
        <dc:type
           rdf:resource="http://purl.org/dc/dcmitype/StillImage" />
        <dc:title />
        <cc:license
           rdf:resource="http://creativecommons.org/licenses/by-sa/4.0/" />
        <dc:date>2017</dc:date>
        <dc:creator>
          <cc:Agent>
            <dc:title>Cristian Pozzessere &quot;ilnanny&quot;</dc:title>
          </cc:Agent>
        </dc:creator>
        <dc:subject>
          <rdf:Bag>
            <rdf:li>Global language</rdf:li>
          </rdf:Bag>
        </dc:subject>
        <dc:description>Playing with Inkscape on Gnu/Linux O. S.</dc:description>
        <dc:contributor>
          <cc:Agent>
            <dc:title>In the night, alone like a dog.</dc:title>
          </cc:Agent>
        </dc:contributor>
      </cc:Work>
      <cc:License
         rdf:about="http://creativecommons.org/licenses/by-sa/4.0/">
        <cc:permits
           rdf:resource="http://creativecommons.org/ns#Reproduction" />
        <cc:permits
           rdf:resource="http://creativecommons.org/ns#Distribution" />
        <cc:requires
           rdf:resource="http://creativecommons.org/ns#Notice" />
        <cc:requires
           rdf:resource="http://creativecommons.org/ns#Attribution" />
        <cc:permits
           rdf:resource="http://creativecommons.org/ns#DerivativeWorks" />
        <cc:requires
           rdf:resource="http://creativecommons.org/ns#ShareAlike" />
      </cc:License>
    </rdf:RDF>
  </metadata>
  <g
     inkscape:label="Layer 1"
     inkscape:groupmode="layer"
     id="layer1">
    <g
       transform="matrix(0.984375,0,0,0.96296292,-3.1992191,-18.562364)"
       id="g938">
      <g
         transform="matrix(0.99514741,0,0,1,0.64471561,-1.0384589)"
         id="g1521">
        <g
           id="g852">
          <rect
             style="opacity:1;fill:#40ACB6;fill-opacity:1;fill-rule:nonzero;stroke:#5f5e5c;stroke-width:1.36143422;stroke-linecap:square;stroke-linejoin:bevel;stroke-miterlimit:4;stroke-dasharray:none;stroke-opacity:1;paint-order:markers stroke fill"
             id="rect817"
             width="63.980831"
             height="55.789837"
             x="3.259584"
             y="26.558754" />
          <rect
             y="-67.240417"
             x="43.239227"
             height="1.9279207"
             width="39.113285"
             id="rect1500"
             style="opacity:1;fill:#fefbfb;fill-opacity:0.75478929;fill-rule:nonzero;stroke:none;stroke-width:0.06918984;stroke-linecap:square;stroke-linejoin:bevel;stroke-miterlimit:4;stroke-dasharray:none;stroke-opacity:0.79607843;paint-order:markers stroke fill"
             transform="rotate(90)" />
          <rect
             transform="rotate(90)"
             style="opacity:1;fill:#fefbfb;fill-opacity:0.75478929;fill-rule:nonzero;stroke:none;stroke-width:0.08058518;stroke-linecap:square;stroke-linejoin:bevel;stroke-miterlimit:4;stroke-dasharray:none;stroke-opacity:0.79607843;paint-order:markers stroke fill"
             id="rect1498"
             width="39.113285"
             height="2.6152594"
             x="43.209305"
             y="-5.8748436" />
          <g
             id="g851"
             transform="matrix(0.26717791,0,0,0.37695836,-8.2290657,12.422815)"
             style="opacity:0.69300022">
            <path
               id="rect831"
               d="M 47.995635,54.25 H 277.46902 V 85.090837 H 47.995635 Z"
               style="opacity:1;fill:#f8fafa;fill-opacity:1;fill-rule:nonzero;stroke:none;stroke-width:0.67029333;stroke-linecap:square;stroke-linejoin:bevel;stroke-miterlimit:4;stroke-dasharray:none;stroke-opacity:0.79607843;paint-order:markers stroke fill"
               inkscape:connector-curvature="0" />
            <path
               sodipodi:nodetypes="cccc"
               inkscape:connector-curvature="0"
               id="path1496"
               d="M 277.46902,75.592181 244.49991,54.25 v 21.342181 z"
               style="opacity:1;fill:#93a2a5;fill-opacity:1;fill-rule:nonzero;stroke:none;stroke-width:0.21135312;stroke-linecap:square;stroke-linejoin:bevel;stroke-miterlimit:4;stroke-dasharray:none;stroke-opacity:0.79607843;paint-order:markers stroke fill" />
          </g>
          <g
             transform="matrix(0.92930117,0,0,0.97367239,2.5265655,4.0162188)"
             style="fill:#40ACB6;fill-opacity:1;stroke:#40ACB6;stroke-width:1.16166735;stroke-miterlimit:4;stroke-dasharray:none;stroke-opacity:1"
             id="g1484">
            <path
               inkscape:connector-curvature="0"
               d="m 5.056055,36.025647 h 24.762237 l 3.746032,4.177904 H 5.056055 Z M 3.25,40.203551 h 64 v 40.250917 h -64 z"
               style="opacity:1;fill:#40ACB6;fill-opacity:1;fill-rule:nonzero;stroke:#40ACB6;stroke-width:1.16166735;stroke-linecap:square;stroke-linejoin:bevel;stroke-miterlimit:4;stroke-dasharray:none;stroke-opacity:1;paint-order:markers stroke fill"
               id="rect821"
               sodipodi:nodetypes="cccccccccc" />
          </g>
          <rect
             y="28.096727"
             x="5.7145939"
             height="3.0460732"
             width="5.3264122"
             id="rect825"
             style="opacity:1;fill:#ffcc00;fill-opacity:0.99315072;fill-rule:nonzero;stroke:none;stroke-width:0.47680542;stroke-linecap:square;stroke-linejoin:bevel;stroke-miterlimit:4;stroke-dasharray:none;stroke-opacity:1;paint-order:markers stroke fill" />
          <rect
             style="opacity:1;fill:#ff0084;fill-opacity:0.99315072;fill-rule:nonzero;stroke:none;stroke-width:0.47680542;stroke-linecap:square;stroke-linejoin:bevel;stroke-miterlimit:4;stroke-dasharray:none;stroke-opacity:1;paint-order:markers stroke fill"
             id="rect827"
             width="5.3264122"
             height="3.0460732"
             x="13.652818"
             y="28.096727" />
          <rect
             y="28.096727"
             x="21.59104"
             height="3.0460732"
             width="5.3264122"
             id="rect829"
             style="opacity:1;fill:#aad450;fill-opacity:0.99315072;fill-rule:nonzero;stroke:none;stroke-width:0.47680542;stroke-linecap:square;stroke-linejoin:bevel;stroke-miterlimit:4;stroke-dasharray:none;stroke-opacity:1;paint-order:markers stroke fill" />
          <rect
             y="78.956886"
             x="3.1380224"
             height="1.9870082"
             width="64.143631"
             id="rect855"
             style="opacity:0.704;fill:#FFFFFF;fill-opacity:0.99657533;fill-rule:nonzero;stroke:none;stroke-width:0.0899523;stroke-linecap:square;stroke-linejoin:bevel;stroke-miterlimit:4;stroke-dasharray:none;stroke-opacity:0.79607843;paint-order:markers stroke fill" />
          <rect
             style="opacity:0.597;fill:#FFFFFF;fill-opacity:0.96907217;fill-rule:nonzero;stroke:none;stroke-width:0.09005686;stroke-linecap:square;stroke-linejoin:bevel;stroke-miterlimit:4;stroke-dasharray:none;stroke-opacity:0.79607843;paint-order:markers stroke fill"
             id="rect853"
             width="64.292816"
             height="1.9870082"
             x="3.1380224"
             y="80.455818" />
          <rect
             y="43.691528"
             x="8.0103283"
             height="1.0598483"
             width="54.548206"
             id="rect1504"
             style="opacity:0.704;fill:#fcfdff;fill-opacity:1;fill-rule:nonzero;stroke:none;stroke-width:0.06058259;stroke-linecap:square;stroke-linejoin:bevel;stroke-miterlimit:4;stroke-dasharray:none;stroke-opacity:0.79607843;paint-order:markers stroke fill" />
          <rect
             style="opacity:0.597;fill:#000207;fill-opacity:1;fill-rule:nonzero;stroke:none;stroke-width:0.06058259;stroke-linecap:square;stroke-linejoin:bevel;stroke-miterlimit:4;stroke-dasharray:none;stroke-opacity:0.79607843;paint-order:markers stroke fill"
             id="rect1523"
             width="54.548206"
             height="1.0598483"
             x="8.0103283"
             y="45.030849" />
          <g
             transform="matrix(0.42048583,0,0,0.41231323,22.669867,51.133552)"
             style="opacity:0.91;fill:#FFFFFF;fill-opacity:0.923081;stroke:#FFFFFF;stroke-width:1.10265;stroke-miterlimit:4;stroke-dasharray:none;stroke-opacity:0.853139"
             id="g1037">
            <path
               transform="matrix(2.4277314,0,0,2.518623,-47.687405,-74.746064)"
               d="M 21.541016 29.855469 C 20.371205 29.855469 19.416016 30.776702 19.416016 31.904297 L 19.416016 36.582031 C 19.416016 37.154583 19.693806 37.645513 20.087891 38.015625 C 19.693806 38.385724 19.416016 38.87502 19.416016 39.447266 L 19.416016 44.125 C 19.416016 45.252945 20.371205 46.173828 21.541016 46.173828 L 31.361328 46.173828 L 31.361328 49.052734 C 30.633463 49.266128 30.078804 49.800355 29.857422 50.501953 L 20.054688 50.501953 C 19.704716 50.501953 19.416016 50.779399 19.416016 51.117188 C 19.416016 51.454974 19.704716 51.732422 20.054688 51.732422 L 29.830078 51.732422 C 30.111187 52.643895 30.966388 53.322266 32 53.322266 C 33.033612 53.322266 33.888813 52.643895 34.169922 51.732422 L 43.945312 51.732422 C 44.295284 51.732422 44.583984 51.454974 44.583984 51.117188 C 44.583984 50.779399 44.295284 50.501953 43.945312 50.501953 L 34.142578 50.501953 C 33.921196 49.800355 33.366537 49.266128 32.638672 49.052734 L 32.638672 46.173828 L 42.458984 46.173828 C 43.628795 46.173828 44.583984 45.254548 44.583984 44.126953 L 44.583984 39.447266 C 44.583984 38.874714 44.306161 38.385637 43.912109 38.015625 C 44.306194 37.645526 44.583984 37.154276 44.583984 36.582031 L 44.583984 31.904297 C 44.583984 30.776702 43.628795 29.855469 42.458984 29.855469 L 21.541016 29.855469 z M 21.541016 31.087891 L 42.458984 31.087891 C 42.928624 31.087891 43.306641 31.452085 43.306641 31.904297 L 43.306641 36.582031 C 43.306641 37.034722 42.928126 37.400391 42.458984 37.400391 L 21.541016 37.400391 C 21.071874 37.400391 20.693359 37.034243 20.693359 36.582031 L 20.693359 31.904297 C 20.693359 31.452085 21.071874 31.087891 21.541016 31.087891 z M 23.96875 32.238281 C 22.823604 32.238281 21.886719 33.140321 21.886719 34.244141 C 21.886719 35.347961 22.823604 36.248047 23.96875 36.248047 C 25.113896 36.248047 26.048828 35.347961 26.048828 34.244141 C 26.048828 33.140321 25.113896 32.238281 23.96875 32.238281 z M 23.96875 32.675781 C 24.867487 32.675781 25.59375 33.377837 25.59375 34.244141 C 25.59375 35.110445 24.867487 35.810547 23.96875 35.810547 C 23.070012 35.810547 22.341797 35.110445 22.341797 34.244141 C 22.341797 33.377837 23.070012 32.675781 23.96875 32.675781 z M 23.96875 33.03125 C 23.277981 33.03125 22.710937 33.577883 22.710938 34.244141 C 22.710938 34.910398 23.277981 35.455078 23.96875 35.455078 C 24.659519 35.455078 25.224609 34.910398 25.224609 34.244141 C 25.224609 33.577883 24.659519 33.03125 23.96875 33.03125 z M 33.648438 33.03125 C 33.298216 33.03125 33.009766 33.310855 33.009766 33.648438 C 33.009766 33.986019 33.298216 34.263672 33.648438 34.263672 C 33.998658 34.263672 34.287109 33.986019 34.287109 33.648438 C 34.287109 33.310855 33.998658 33.03125 33.648438 33.03125 z M 35.294922 33.03125 C 34.944701 33.03125 34.65625 33.310855 34.65625 33.648438 C 34.65625 33.986019 34.944701 34.263672 35.294922 34.263672 C 35.645143 34.263672 35.933594 33.986019 35.933594 33.648438 C 35.933594 33.310855 35.645143 33.03125 35.294922 33.03125 z M 36.943359 33.03125 C 36.593138 33.03125 36.304687 33.310855 36.304688 33.648438 C 36.304688 33.986019 36.593138 34.263672 36.943359 34.263672 C 37.293581 34.263672 37.582031 33.986019 37.582031 33.648438 C 37.582031 33.310855 37.293581 33.03125 36.943359 33.03125 z M 38.589844 33.03125 C 38.239623 33.03125 37.951172 33.310855 37.951172 33.648438 C 37.951172 33.986019 38.239623 34.263672 38.589844 34.263672 C 38.940065 34.263672 39.228516 33.986019 39.228516 33.648438 C 39.228516 33.310855 38.940065 33.03125 38.589844 33.03125 z M 40.238281 33.03125 C 39.88806 33.03125 39.599609 33.310855 39.599609 33.648438 C 39.599609 33.986019 39.88806 34.263672 40.238281 34.263672 C 40.588502 34.263672 40.876953 33.986019 40.876953 33.648438 C 40.876953 33.310855 40.588502 33.03125 40.238281 33.03125 z M 23.96875 33.46875 C 24.413197 33.46875 24.771484 33.815355 24.771484 34.244141 C 24.771484 34.672926 24.413197 35.017578 23.96875 35.017578 C 23.524303 35.017578 23.164063 34.672926 23.164062 34.244141 C 23.164062 33.815355 23.524303 33.46875 23.96875 33.46875 z M 33.648438 33.46875 C 33.753196 33.46875 33.832031 33.54746 33.832031 33.648438 C 33.832031 33.749415 33.7532 33.826172 33.648438 33.826172 C 33.543678 33.826172 33.462891 33.749411 33.462891 33.648438 C 33.462891 33.547459 33.543681 33.46875 33.648438 33.46875 z M 35.294922 33.46875 C 35.399681 33.46875 35.480469 33.54746 35.480469 33.648438 C 35.480469 33.749415 35.399679 33.826172 35.294922 33.826172 C 35.190163 33.826172 35.109375 33.749411 35.109375 33.648438 C 35.109375 33.547459 35.190165 33.46875 35.294922 33.46875 z M 36.943359 33.46875 C 37.048118 33.46875 37.126953 33.54746 37.126953 33.648438 C 37.126953 33.749415 37.048123 33.826172 36.943359 33.826172 C 36.8386 33.826172 36.757813 33.749411 36.757812 33.648438 C 36.757812 33.547459 36.838602 33.46875 36.943359 33.46875 z M 38.589844 33.46875 C 38.694603 33.46875 38.775391 33.54746 38.775391 33.648438 C 38.775391 33.749415 38.694601 33.826172 38.589844 33.826172 C 38.485085 33.826172 38.40625 33.749411 38.40625 33.648438 C 38.40625 33.547459 38.48508 33.46875 38.589844 33.46875 z M 40.238281 33.46875 C 40.34304 33.46875 40.423828 33.54746 40.423828 33.648438 C 40.423828 33.749415 40.343038 33.826172 40.238281 33.826172 C 40.133522 33.826172 40.052734 33.749411 40.052734 33.648438 C 40.052734 33.547459 40.133524 33.46875 40.238281 33.46875 z M 34.470703 34.222656 C 34.120482 34.222656 33.832031 34.502261 33.832031 34.839844 C 33.832031 35.177426 34.120482 35.455078 34.470703 35.455078 C 34.820924 35.455078 35.109375 35.177426 35.109375 34.839844 C 35.109375 34.502261 34.820924 34.222656 34.470703 34.222656 z M 36.119141 34.222656 C 35.768919 34.222656 35.480469 34.502261 35.480469 34.839844 C 35.480469 35.177426 35.768919 35.455078 36.119141 35.455078 C 36.469362 35.455078 36.757813 35.177426 36.757812 34.839844 C 36.757812 34.502261 36.469362 34.222656 36.119141 34.222656 z M 37.767578 34.222656 C 37.417357 34.222656 37.126953 34.502261 37.126953 34.839844 C 37.126953 35.177426 37.417357 35.455078 37.767578 35.455078 C 38.117799 35.455078 38.40625 35.177426 38.40625 34.839844 C 38.40625 34.502261 38.117799 34.222656 37.767578 34.222656 z M 39.414062 34.222656 C 39.063842 34.222656 38.775391 34.502261 38.775391 34.839844 C 38.775391 35.177426 39.063842 35.455078 39.414062 35.455078 C 39.764284 35.455078 40.052734 35.177426 40.052734 34.839844 C 40.052734 34.502261 39.764284 34.222656 39.414062 34.222656 z M 41.0625 34.222656 C 40.712279 34.222656 40.423828 34.502261 40.423828 34.839844 C 40.423828 35.177426 40.712279 35.455078 41.0625 35.455078 C 41.412721 35.455078 41.701172 35.177426 41.701172 34.839844 C 41.701172 34.502261 41.412721 34.222656 41.0625 34.222656 z M 34.470703 34.660156 C 34.575462 34.660156 34.65625 34.738866 34.65625 34.839844 C 34.65625 34.940822 34.57546 35.017578 34.470703 35.017578 C 34.365944 35.017578 34.287109 34.940818 34.287109 34.839844 C 34.287109 34.738865 34.365939 34.660156 34.470703 34.660156 z M 36.119141 34.660156 C 36.2239 34.660156 36.304688 34.738866 36.304688 34.839844 C 36.304688 34.940822 36.223898 35.017578 36.119141 35.017578 C 36.014382 35.017578 35.933594 34.940818 35.933594 34.839844 C 35.933594 34.738865 36.014384 34.660156 36.119141 34.660156 z M 37.767578 34.660156 C 37.872337 34.660156 37.951172 34.738866 37.951172 34.839844 C 37.951172 34.940822 37.872342 35.017578 37.767578 35.017578 C 37.662819 35.017578 37.582031 34.940818 37.582031 34.839844 C 37.582031 34.738865 37.662821 34.660156 37.767578 34.660156 z M 39.414062 34.660156 C 39.518822 34.660156 39.599609 34.738866 39.599609 34.839844 C 39.599609 34.940822 39.518819 35.017578 39.414062 35.017578 C 39.309304 35.017578 39.228516 34.940818 39.228516 34.839844 C 39.228516 34.738865 39.309307 34.660156 39.414062 34.660156 z M 41.0625 34.660156 C 41.167259 34.660156 41.246094 34.738866 41.246094 34.839844 C 41.246094 34.940822 41.167264 35.017578 41.0625 35.017578 C 40.957741 35.017578 40.876953 34.940818 40.876953 34.839844 C 40.876953 34.738865 40.957743 34.660156 41.0625 34.660156 z M 21.541016 38.630859 L 42.458984 38.630859 C 42.928624 38.630859 43.306641 38.995054 43.306641 39.447266 L 43.306641 44.125 C 43.306641 44.577691 42.928126 44.943359 42.458984 44.943359 L 21.541016 44.943359 C 21.071874 44.943359 20.693359 44.579165 20.693359 44.126953 L 20.693359 39.447266 C 20.693359 38.995054 21.071874 38.630859 21.541016 38.630859 z M 23.96875 39.78125 C 22.823604 39.78125 21.886719 40.683289 21.886719 41.787109 C 21.886719 42.89093 22.823604 43.792969 23.96875 43.792969 C 25.113896 43.792969 26.048828 42.89093 26.048828 41.787109 C 26.048828 40.683289 25.113896 39.78125 23.96875 39.78125 z M 33.648438 40.576172 C 33.298216 40.576172 33.009766 40.853824 33.009766 41.191406 C 33.009766 41.528989 33.298216 41.806641 33.648438 41.806641 C 33.998658 41.806641 34.287109 41.528989 34.287109 41.191406 C 34.287109 40.853824 33.998658 40.576172 33.648438 40.576172 z M 35.294922 40.576172 C 34.944701 40.576172 34.65625 40.853824 34.65625 41.191406 C 34.65625 41.528989 34.944701 41.806641 35.294922 41.806641 C 35.645143 41.806641 35.933594 41.528989 35.933594 41.191406 C 35.933594 40.853824 35.645143 40.576172 35.294922 40.576172 z M 36.943359 40.576172 C 36.593138 40.576172 36.304687 40.853824 36.304688 41.191406 C 36.304688 41.528989 36.593138 41.806641 36.943359 41.806641 C 37.293581 41.806641 37.582031 41.528989 37.582031 41.191406 C 37.582031 40.853824 37.293581 40.576172 36.943359 40.576172 z M 38.589844 40.576172 C 38.239623 40.576172 37.951172 40.853824 37.951172 41.191406 C 37.951172 41.528989 38.239623 41.806641 38.589844 41.806641 C 38.940065 41.806641 39.228516 41.528989 39.228516 41.191406 C 39.228516 40.853824 38.940065 40.576172 38.589844 40.576172 z M 40.238281 40.576172 C 39.88806 40.576172 39.599609 40.853824 39.599609 41.191406 C 39.599609 41.528989 39.88806 41.806641 40.238281 41.806641 C 40.588502 41.806641 40.876953 41.528989 40.876953 41.191406 C 40.876953 40.853824 40.588502 40.576172 40.238281 40.576172 z M 23.96875 41.013672 C 24.413197 41.013672 24.771484 41.358324 24.771484 41.787109 C 24.771484 42.215895 24.413197 42.560547 23.96875 42.560547 C 23.524303 42.560547 23.164062 42.215895 23.164062 41.787109 C 23.164062 41.358324 23.524303 41.013672 23.96875 41.013672 z M 33.648438 41.013672 C 33.753196 41.013672 33.832031 41.090432 33.832031 41.191406 C 33.832031 41.292385 33.7532 41.369141 33.648438 41.369141 C 33.543678 41.369141 33.462891 41.292381 33.462891 41.191406 C 33.462891 41.090428 33.543681 41.013672 33.648438 41.013672 z M 35.294922 41.013672 C 35.399681 41.013672 35.480469 41.090432 35.480469 41.191406 C 35.480469 41.292385 35.399679 41.369141 35.294922 41.369141 C 35.190163 41.369141 35.109375 41.292381 35.109375 41.191406 C 35.109375 41.090428 35.190165 41.013672 35.294922 41.013672 z M 36.943359 41.013672 C 37.048118 41.013672 37.126953 41.090432 37.126953 41.191406 C 37.126953 41.292385 37.048123 41.369141 36.943359 41.369141 C 36.8386 41.369141 36.757813 41.292381 36.757812 41.191406 C 36.757812 41.090428 36.838602 41.013672 36.943359 41.013672 z M 38.589844 41.013672 C 38.694603 41.013672 38.775391 41.090432 38.775391 41.191406 C 38.775391 41.292385 38.694601 41.369141 38.589844 41.369141 C 38.485085 41.369141 38.40625 41.292381 38.40625 41.191406 C 38.40625 41.090428 38.48508 41.013672 38.589844 41.013672 z M 40.238281 41.013672 C 40.34304 41.013672 40.423828 41.090432 40.423828 41.191406 C 40.423828 41.292385 40.343038 41.369141 40.238281 41.369141 C 40.133522 41.369141 40.052734 41.292381 40.052734 41.191406 C 40.052734 41.090428 40.133524 41.013672 40.238281 41.013672 z M 34.470703 41.767578 C 34.120482 41.767578 33.832031 42.045231 33.832031 42.382812 C 33.832031 42.720395 34.120482 42.998047 34.470703 42.998047 C 34.820924 42.998047 35.109375 42.720395 35.109375 42.382812 C 35.109375 42.045231 34.820924 41.767578 34.470703 41.767578 z M 36.119141 41.767578 C 35.768919 41.767578 35.480469 42.045231 35.480469 42.382812 C 35.480469 42.720395 35.768919 42.998047 36.119141 42.998047 C 36.469362 42.998047 36.757813 42.720395 36.757812 42.382812 C 36.757812 42.045231 36.469362 41.767578 36.119141 41.767578 z M 37.767578 41.767578 C 37.417357 41.767578 37.126953 42.045231 37.126953 42.382812 C 37.126953 42.720395 37.417357 42.998047 37.767578 42.998047 C 38.117799 42.998047 38.40625 42.720395 38.40625 42.382812 C 38.40625 42.045231 38.117799 41.767578 37.767578 41.767578 z M 39.414062 41.767578 C 39.063842 41.767578 38.775391 42.045231 38.775391 42.382812 C 38.775391 42.720395 39.063842 42.998047 39.414062 42.998047 C 39.764284 42.998047 40.052734 42.720395 40.052734 42.382812 C 40.052734 42.045231 39.764284 41.767578 39.414062 41.767578 z M 41.0625 41.767578 C 40.712279 41.767578 40.423828 42.045231 40.423828 42.382812 C 40.423828 42.720395 40.712279 42.998047 41.0625 42.998047 C 41.412721 42.998047 41.701172 42.720395 41.701172 42.382812 C 41.701172 42.045231 41.412721 41.767578 41.0625 41.767578 z M 34.470703 42.205078 C 34.575462 42.205078 34.65625 42.281839 34.65625 42.382812 C 34.65625 42.483791 34.57546 42.560547 34.470703 42.560547 C 34.365944 42.560547 34.287109 42.483787 34.287109 42.382812 C 34.287109 42.281835 34.365939 42.205078 34.470703 42.205078 z M 36.119141 42.205078 C 36.2239 42.205078 36.304688 42.281839 36.304688 42.382812 C 36.304688 42.483791 36.223898 42.560547 36.119141 42.560547 C 36.014382 42.560547 35.933594 42.483787 35.933594 42.382812 C 35.933594 42.281835 36.014384 42.205078 36.119141 42.205078 z M 37.767578 42.205078 C 37.872337 42.205078 37.951172 42.281839 37.951172 42.382812 C 37.951172 42.483791 37.872342 42.560547 37.767578 42.560547 C 37.662819 42.560547 37.582031 42.483787 37.582031 42.382812 C 37.582031 42.281835 37.662821 42.205078 37.767578 42.205078 z M 39.414062 42.205078 C 39.518822 42.205078 39.599609 42.281839 39.599609 42.382812 C 39.599609 42.483791 39.518819 42.560547 39.414062 42.560547 C 39.309304 42.560547 39.228516 42.483787 39.228516 42.382812 C 39.228516 42.281835 39.309307 42.205078 39.414062 42.205078 z M 41.0625 42.205078 C 41.167259 42.205078 41.246094 42.281839 41.246094 42.382812 C 41.246094 42.483791 41.167264 42.560547 41.0625 42.560547 C 40.957741 42.560547 40.876953 42.483787 40.876953 42.382812 C 40.876953 42.281835 40.957743 42.205078 41.0625 42.205078 z M 32 50.144531 C 32.55809 50.144531 33.009766 50.579238 33.009766 51.117188 C 33.009766 51.655135 32.55809 52.089844 32 52.089844 C 31.44191 52.089844 30.990234 51.655135 30.990234 51.117188 C 30.990234 50.579238 31.44191 50.144531 32 50.144531 z "
               style="color:#FFFFFF;font-style:normal;font-variant:normal;font-weight:normal;font-stretch:normal;font-size:medium;line-height:normal;font-family:sans-serif;font-variant-ligatures:normal;font-variant-position:normal;font-variant-caps:normal;font-variant-numeric:normal;font-variant-alternates:normal;font-variant-east-asian:normal;font-feature-settings:normal;font-variation-settings:normal;text-indent:0;text-align:start;text-decoration:none;text-decoration-line:none;text-decoration-style:solid;text-decoration-color:#FFFFFF;letter-spacing:normal;word-spacing:normal;text-transform:none;writing-mode:lr-tb;direction:ltr;text-orientation:mixed;dominant-baseline:auto;baseline-shift:baseline;text-anchor:start;white-space:normal;shape-padding:0;shape-margin:0;inline-size:0;clip-rule:nonzero;display:inline;overflow:visible;visibility:visible;isolation:auto;mix-blend-mode:normal;color-interpolation:sRGB;color-interpolation-filters:linearRGB;solid-color:#FFFFFF;solid-opacity:1;vector-effect:none;fill:#FFFFFF;fill-opacity:0.85490197;fill-rule:nonzero;stroke:none;stroke-width:0.445919;stroke-linecap:butt;stroke-linejoin:miter;stroke-miterlimit:4;stroke-dasharray:none;stroke-dashoffset:0;stroke-opacity:1;color-rendering:auto;image-rendering:auto;shape-rendering:auto;text-rendering:auto;enable-background:accumulate;stop-color:#FFFFFF;stop-opacity:1"
               id="path1041" />
          </g>
          <g
             transform="matrix(0.42048583,0,0,0.41231323,22.669867,51.133552)"
             style="opacity:0.91;fill:#FFFFFF;fill-opacity:0.923081;stroke:#FFFFFF;stroke-width:1.10265;stroke-miterlimit:4;stroke-dasharray:none;stroke-opacity:0.853139"
             id="g891" />
          <g
             transform="matrix(0.42048583,0,0,0.41231323,22.669867,51.133552)"
             style="opacity:0.91;fill:#FFFFFF;fill-opacity:0.923081;stroke:#FFFFFF;stroke-width:1.10265;stroke-miterlimit:4;stroke-dasharray:none;stroke-opacity:0.853139"
             id="g1043" />
        </g>
      </g>
    </g>
  </g>
</svg>
