<?xml version="1.0" encoding="UTF-8" standalone="no"?>
<svg
   xmlns:dc="http://purl.org/dc/elements/1.1/"
   xmlns:cc="http://creativecommons.org/ns#"
   xmlns:rdf="http://www.w3.org/1999/02/22-rdf-syntax-ns#"
   xmlns:svg="http://www.w3.org/2000/svg"
   xmlns="http://www.w3.org/2000/svg"
   xmlns:sodipodi="http://sodipodi.sourceforge.net/DTD/sodipodi-0.dtd"
   xmlns:inkscape="http://www.inkscape.org/namespaces/inkscape"
   inkscape:version="1.0beta2 (2b71d25d45, 2019-12-03)"
   sodipodi:docname="folder-image.svg"
   id="SVGRoot"
   version="1.1"
   viewBox="0 0 64 64"
   height="64px"
   width="64px">
  <sodipodi:namedview
     inkscape:document-rotation="0"
     inkscape:snap-global="false"
     inkscape:snap-to-guides="false"
     inkscape:snap-grids="false"
     inkscape:snap-page="true"
     inkscape:snap-object-midpoints="true"
     inkscape:grid-bbox="true"
     inkscape:lockguides="true"
     inkscape:window-maximized="1"
     inkscape:window-y="21"
     inkscape:window-x="0"
     inkscape:window-height="1027"
     inkscape:window-width="1920"
     units="px"
     inkscape:pagecheckerboard="false"
     inkscape:showpageshadow="false"
     showgrid="false"
     inkscape:current-layer="g852"
     inkscape:document-units="px"
     inkscape:cy="32"
     inkscape:cx="32"
     inkscape:zoom="15.840402"
     inkscape:pageshadow="2"
     inkscape:pageopacity="0.0"
     borderopacity="1.0"
     bordercolor="#666666"
     pagecolor="#FFFFFF"
     id="base" />
  <defs
     id="defs2" />
  <metadata
     id="metadata5">
    <rdf:RDF>
      <cc:Work
         rdf:about="">
        <dc:format>image/svg+xml</dc:format>
        <dc:type
           rdf:resource="http://purl.org/dc/dcmitype/StillImage" />
        <dc:title />
        <cc:license
           rdf:resource="http://creativecommons.org/licenses/by-sa/4.0/" />
        <dc:date>2017</dc:date>
        <dc:creator>
          <cc:Agent>
            <dc:title>Cristian Pozzessere &quot;ilnanny&quot;</dc:title>
          </cc:Agent>
        </dc:creator>
        <dc:subject>
          <rdf:Bag>
            <rdf:li>Global language</rdf:li>
          </rdf:Bag>
        </dc:subject>
        <dc:description>Playing with Inkscape on Gnu/Linux O. S.</dc:description>
        <dc:contributor>
          <cc:Agent>
            <dc:title>In the night, alone like a dog.</dc:title>
          </cc:Agent>
        </dc:contributor>
      </cc:Work>
      <cc:License
         rdf:about="http://creativecommons.org/licenses/by-sa/4.0/">
        <cc:permits
           rdf:resource="http://creativecommons.org/ns#Reproduction" />
        <cc:permits
           rdf:resource="http://creativecommons.org/ns#Distribution" />
        <cc:requires
           rdf:resource="http://creativecommons.org/ns#Notice" />
        <cc:requires
           rdf:resource="http://creativecommons.org/ns#Attribution" />
        <cc:permits
           rdf:resource="http://creativecommons.org/ns#DerivativeWorks" />
        <cc:requires
           rdf:resource="http://creativecommons.org/ns#ShareAlike" />
      </cc:License>
    </rdf:RDF>
  </metadata>
  <g
     inkscape:label="Layer 1"
     inkscape:groupmode="layer"
     id="layer1">
    <g
       transform="matrix(0.984375,0,0,0.96296292,-3.1992191,-18.562364)"
       id="g938">
      <g
         transform="matrix(0.99514741,0,0,1,0.64471561,-1.0384589)"
         id="g1521">
        <g
           id="g852">
          <rect
             style="opacity:1;fill:#40ACB6;fill-opacity:1;fill-rule:nonzero;stroke:#5f5e5c;stroke-width:1.36143422;stroke-linecap:square;stroke-linejoin:bevel;stroke-miterlimit:4;stroke-dasharray:none;stroke-opacity:1;paint-order:markers stroke fill"
             id="rect817"
             width="63.980831"
             height="55.789837"
             x="3.259584"
             y="26.558754" />
          <rect
             y="-67.240417"
             x="43.239227"
             height="1.9279207"
             width="39.113285"
             id="rect1500"
             style="opacity:1;fill:#fefbfb;fill-opacity:0.75478929;fill-rule:nonzero;stroke:none;stroke-width:0.06918984;stroke-linecap:square;stroke-linejoin:bevel;stroke-miterlimit:4;stroke-dasharray:none;stroke-opacity:0.79607843;paint-order:markers stroke fill"
             transform="rotate(90)" />
          <rect
             transform="rotate(90)"
             style="opacity:1;fill:#fefbfb;fill-opacity:0.75478929;fill-rule:nonzero;stroke:none;stroke-width:0.08058518;stroke-linecap:square;stroke-linejoin:bevel;stroke-miterlimit:4;stroke-dasharray:none;stroke-opacity:0.79607843;paint-order:markers stroke fill"
             id="rect1498"
             width="39.113285"
             height="2.6152594"
             x="43.209305"
             y="-5.8748436" />
          <g
             id="g851"
             transform="matrix(0.26717791,0,0,0.37695836,-8.2290657,12.422815)"
             style="opacity:0.69300022">
            <path
               id="rect831"
               d="M 47.995635,54.25 H 277.46902 V 85.090837 H 47.995635 Z"
               style="opacity:1;fill:#f8fafa;fill-opacity:1;fill-rule:nonzero;stroke:none;stroke-width:0.67029333;stroke-linecap:square;stroke-linejoin:bevel;stroke-miterlimit:4;stroke-dasharray:none;stroke-opacity:0.79607843;paint-order:markers stroke fill"
               inkscape:connector-curvature="0" />
            <path
               sodipodi:nodetypes="cccc"
               inkscape:connector-curvature="0"
               id="path1496"
               d="M 277.46902,75.592181 244.49991,54.25 v 21.342181 z"
               style="opacity:1;fill:#93a2a5;fill-opacity:1;fill-rule:nonzero;stroke:none;stroke-width:0.21135312;stroke-linecap:square;stroke-linejoin:bevel;stroke-miterlimit:4;stroke-dasharray:none;stroke-opacity:0.79607843;paint-order:markers stroke fill" />
          </g>
          <g
             transform="matrix(0.92930117,0,0,0.97367239,2.5265655,4.0162188)"
             style="fill:#40ACB6;fill-opacity:1;stroke:#40ACB6;stroke-width:1.16166735;stroke-miterlimit:4;stroke-dasharray:none;stroke-opacity:1"
             id="g1484">
            <path
               inkscape:connector-curvature="0"
               d="m 5.056055,36.025647 h 24.762237 l 3.746032,4.177904 H 5.056055 Z M 3.25,40.203551 h 64 v 40.250917 h -64 z"
               style="opacity:1;fill:#40ACB6;fill-opacity:1;fill-rule:nonzero;stroke:#40ACB6;stroke-width:1.16166735;stroke-linecap:square;stroke-linejoin:bevel;stroke-miterlimit:4;stroke-dasharray:none;stroke-opacity:1;paint-order:markers stroke fill"
               id="rect821"
               sodipodi:nodetypes="cccccccccc" />
          </g>
          <rect
             y="28.096727"
             x="5.7145939"
             height="3.0460732"
             width="5.3264122"
             id="rect825"
             style="opacity:1;fill:#ffcc00;fill-opacity:0.99315072;fill-rule:nonzero;stroke:none;stroke-width:0.47680542;stroke-linecap:square;stroke-linejoin:bevel;stroke-miterlimit:4;stroke-dasharray:none;stroke-opacity:1;paint-order:markers stroke fill" />
          <rect
             style="opacity:1;fill:#ff0084;fill-opacity:0.99315072;fill-rule:nonzero;stroke:none;stroke-width:0.47680542;stroke-linecap:square;stroke-linejoin:bevel;stroke-miterlimit:4;stroke-dasharray:none;stroke-opacity:1;paint-order:markers stroke fill"
             id="rect827"
             width="5.3264122"
             height="3.0460732"
             x="13.652818"
             y="28.096727" />
          <rect
             y="28.096727"
             x="21.59104"
             height="3.0460732"
             width="5.3264122"
             id="rect829"
             style="opacity:1;fill:#aad450;fill-opacity:0.99315072;fill-rule:nonzero;stroke:none;stroke-width:0.47680542;stroke-linecap:square;stroke-linejoin:bevel;stroke-miterlimit:4;stroke-dasharray:none;stroke-opacity:1;paint-order:markers stroke fill" />
          <rect
             y="78.956886"
             x="3.1380224"
             height="1.9870082"
             width="64.143631"
             id="rect855"
             style="opacity:0.704;fill:#FFFFFF;fill-opacity:0.99657533;fill-rule:nonzero;stroke:none;stroke-width:0.0899523;stroke-linecap:square;stroke-linejoin:bevel;stroke-miterlimit:4;stroke-dasharray:none;stroke-opacity:0.79607843;paint-order:markers stroke fill" />
          <rect
             style="opacity:0.597;fill:#FFFFFF;fill-opacity:0.96907217;fill-rule:nonzero;stroke:none;stroke-width:0.09005686;stroke-linecap:square;stroke-linejoin:bevel;stroke-miterlimit:4;stroke-dasharray:none;stroke-opacity:0.79607843;paint-order:markers stroke fill"
             id="rect853"
             width="64.292816"
             height="1.9870082"
             x="3.1380224"
             y="80.455818" />
          <rect
             y="43.691528"
             x="8.0103283"
             height="1.0598483"
             width="54.548206"
             id="rect1504"
             style="opacity:0.704;fill:#fcfdff;fill-opacity:1;fill-rule:nonzero;stroke:none;stroke-width:0.06058259;stroke-linecap:square;stroke-linejoin:bevel;stroke-miterlimit:4;stroke-dasharray:none;stroke-opacity:0.79607843;paint-order:markers stroke fill" />
          <rect
             style="opacity:0.597;fill:#000207;fill-opacity:1;fill-rule:nonzero;stroke:none;stroke-width:0.06058259;stroke-linecap:square;stroke-linejoin:bevel;stroke-miterlimit:4;stroke-dasharray:none;stroke-opacity:0.79607843;paint-order:markers stroke fill"
             id="rect1523"
             width="54.548206"
             height="1.0598483"
             x="8.0103283"
             y="45.030849" />
          <g
             style="fill:none;stroke:#FFFFFF;stroke-width:1.15132;stroke-miterlimit:4;stroke-dasharray:none;stroke-opacity:0.827586"
             id="camera"
             transform="matrix(0.75748331,0,0,0.77056892,6.5088667,-500.7927)">
            <path
               d="m 53.441465,724.82312 c -1.549521,0 -2.809649,1.26013 -2.809649,2.80965 0,1.54952 1.260128,2.80965 2.809649,2.80965 1.549522,0 2.809649,-1.26013 2.809649,-2.80965 0,-1.54952 -1.260127,-2.80965 -2.809649,-2.80965 z m 0,4.21447 c -0.774761,0 -1.404825,-0.63006 -1.404825,-1.40482 0,-0.77476 0.630064,-1.40483 1.404825,-1.40483 0.774761,0 1.404825,0.63007 1.404825,1.40483 0,0.77476 -0.630064,1.40482 -1.404825,1.40482 z m -15.45307,-3.51206 c -4.647862,0 -8.428947,3.78109 -8.428947,8.42895 0,4.64786 3.781085,8.42895 8.428947,8.42895 4.647862,0 8.428947,-3.78109 8.428947,-8.42895 0,-4.64786 -3.781085,-8.42895 -8.428947,-8.42895 z m 0,15.45307 c -3.873101,0 -7.024123,-3.15102 -7.024123,-7.02412 0,-3.8731 3.151022,-7.02412 7.024123,-7.02412 3.873101,0 7.024123,3.15102 7.024123,7.02412 0,3.8731 -3.151022,7.02412 -7.024123,7.02412 z m 0,-19.66754 c -6.971442,0 -12.643421,5.67198 -12.643421,12.64342 0,6.97144 5.671979,12.64342 12.643421,12.64342 6.971442,0 12.643421,-5.67198 12.643421,-12.64342 0,-6.97144 -5.671979,-12.64342 -12.643421,-12.64342 z m 0,23.88202 c -6.196681,0 -11.238596,-5.04192 -11.238596,-11.2386 0,-6.19668 5.041915,-11.2386 11.238596,-11.2386 6.196681,0 11.238596,5.04192 11.238596,11.2386 0,6.19668 -5.041915,11.2386 -11.238596,11.2386 z m 17.701492,-23.17961 h -5.987362 l -2.80965,-7.02412 h -17.80896 l -2.809649,7.02412 h -0.929292 v -3.51206 h -4.214473 v 3.51206 h -0.843598 c -1.859285,0 -3.370876,1.51159 -3.370876,3.37088 v 20.62844 c 0,1.87193 1.52283,3.39476 3.394759,3.39476 h 35.355219 c 1.871928,0 3.394758,-1.52283 3.394758,-3.39476 v -20.62844 c 0,-1.85929 -1.511591,-3.37088 -3.370876,-3.37088 z m -33.154562,-2.10724 h 1.404825 v 2.10724 h -1.404825 z m 35.120614,26.10656 c 0,1.09787 -0.892766,1.98993 -1.989934,1.98993 H 20.310786 c -1.097168,0 -1.989934,-0.89276 -1.989934,-1.98993 v -20.62844 c 0,-1.08383 0.882229,-1.96606 1.966051,-1.96606 h 0.843598 4.214473 1.880358 l 2.809649,-7.02412 h 15.906828 l 2.809649,7.02412 h 6.938429 c 1.083822,0 1.966052,0.88223 1.966052,1.96606 z"
               style="fill:none;fill-opacity:1;stroke:#FFFFFF;stroke-width:1.15132;stroke-miterlimit:4;stroke-dasharray:none;stroke-opacity:0.827586"
               id="path4539"
               inkscape:connector-curvature="0" />
          </g>
        </g>
      </g>
    </g>
  </g>
</svg>
