<?xml version="1.0" encoding="UTF-8" standalone="no"?>
<svg
   xmlns:dc="http://purl.org/dc/elements/1.1/"
   xmlns:cc="http://creativecommons.org/ns#"
   xmlns:rdf="http://www.w3.org/1999/02/22-rdf-syntax-ns#"
   xmlns:svg="http://www.w3.org/2000/svg"
   xmlns="http://www.w3.org/2000/svg"
   xmlns:sodipodi="http://sodipodi.sourceforge.net/DTD/sodipodi-0.dtd"
   xmlns:inkscape="http://www.inkscape.org/namespaces/inkscape"
   sodipodi:docname="mail-inbox.svg"
   inkscape:version="1.0beta2 (2b71d25d45, 2019-12-03)"
   version="1.1"
   id="svg2"
   viewBox="0 0 64.000001 64.000001"
   height="64"
   width="64">
  <defs
     id="defs4">
    <linearGradient
       id="SVGID_1_"
       gradientUnits="userSpaceOnUse"
       x1="300"
       y1="0"
       x2="300"
       y2="221.3999"
       gradientTransform="matrix(0.10118726,0,0,0.11599892,539.28764,265.59011)">
      <stop
         offset="0"
         style="stop-color:#9EE2FD"
         id="stop18" />
      <stop
         offset="1"
         style="stop-color:#5ED4FA"
         id="stop20" />
    </linearGradient>
  </defs>
  <sodipodi:namedview
     inkscape:document-rotation="0"
     inkscape:window-maximized="1"
     inkscape:window-y="21"
     inkscape:window-x="0"
     inkscape:window-height="1029"
     inkscape:window-width="1920"
     inkscape:showpageshadow="false"
     units="px"
     showgrid="false"
     inkscape:current-layer="layer1"
     inkscape:document-units="px"
     inkscape:cy="45.924324"
     inkscape:cx="-57.729729"
     inkscape:zoom="5.2434593"
     inkscape:pageshadow="2"
     inkscape:pageopacity="0.0"
     borderopacity="1.0"
     bordercolor="#666666"
     pagecolor="#ffffff"
     id="base" />
  <metadata
     id="metadata7">
    <rdf:RDF>
      <cc:Work
         rdf:about="">
        <dc:format>image/svg+xml</dc:format>
        <dc:type
           rdf:resource="http://purl.org/dc/dcmitype/StillImage" />
        <dc:title></dc:title>
        <cc:license
           rdf:resource="http://creativecommons.org/licenses/by-sa/4.0/" />
        <dc:date>2019</dc:date>
        <dc:creator>
          <cc:Agent>
            <dc:title>Cristian Pozzessere &lt; ilnanny &gt;</dc:title>
          </cc:Agent>
        </dc:creator>
        <dc:subject>
          <rdf:Bag>
            <rdf:li>ilnanny</rdf:li>
            <rdf:li>inkscape</rdf:li>
            <rdf:li>vectorart</rdf:li>
            <rdf:li>svgfiles</rdf:li>
            <rdf:li>wallpapers</rdf:li>
            <rdf:li>icons</rdf:li>
            <rdf:li>patterns</rdf:li>
          </rdf:Bag>
        </dc:subject>
        <dc:coverage>Italy</dc:coverage>
        <dc:description>..when I have nothing to do, I scribble and have fun with inkscape.</dc:description>
        <dc:contributor>
          <cc:Agent>
            <dc:title>In the night, alone like a dog.</dc:title>
          </cc:Agent>
        </dc:contributor>
      </cc:Work>
      <cc:License
         rdf:about="http://creativecommons.org/licenses/by-sa/4.0/">
        <cc:permits
           rdf:resource="http://creativecommons.org/ns#Reproduction" />
        <cc:permits
           rdf:resource="http://creativecommons.org/ns#Distribution" />
        <cc:requires
           rdf:resource="http://creativecommons.org/ns#Notice" />
        <cc:requires
           rdf:resource="http://creativecommons.org/ns#Attribution" />
        <cc:permits
           rdf:resource="http://creativecommons.org/ns#DerivativeWorks" />
        <cc:requires
           rdf:resource="http://creativecommons.org/ns#ShareAlike" />
      </cc:License>
    </rdf:RDF>
  </metadata>
  <g
     transform="translate(0,-988.36218)"
     id="layer1"
     inkscape:groupmode="layer"
     inkscape:label="Livello 1">
    <g
       transform="matrix(1.0047378,0,0,1.0297031,-540.34963,726.42476)"
       id="g878">
      <path
         style="stroke-width:0.10834"
         inkscape:connector-curvature="0"
         id="path4"
         d="m 600,306.18973 c 0,0.638 -0.45534,1.15999 -1.01187,1.15999 h -58.68862 c -0.55653,0 -1.01187,-0.52199 -1.01187,-1.15999 V 266.7501 c 0,-0.638 0.45534,-1.15999 1.01187,-1.15999 h 58.68862 c 0.55653,0 1.01187,0.52199 1.01187,1.15999 z"
         fill="#00A8E9" />
      <path
         style="stroke-width:0.10834"
         inkscape:connector-curvature="0"
         id="path6"
         d="m 539.66406,307.09023 24.22838,-16.70663 -24.28748,-24.47368 c -0.19478,0.21181 -0.31732,0.51004 -0.31732,0.84018 v 39.43963 c 0,0.3625 0.14733,0.68741 0.37642,0.9005 z"
         fill="#00A8E9" />
      <path
         style="stroke-width:0.10834"
         inkscape:connector-curvature="0"
         id="path8"
         d="m 599.68258,265.90992 -24.28738,24.47356 24.22838,16.70675 C 599.85267,306.87714 600,306.55223 600,306.18973 V 266.7501 c 0,-0.33014 -0.12254,-0.62837 -0.31742,-0.84018 z"
         fill="#00A8E9" />
      <path
         style="stroke-width:0.10834"
         inkscape:connector-curvature="0"
         id="path10"
         d="m 575.3952,290.38348 -5.75138,5.79554 -5.75138,-5.79542 -24.22838,16.70663 c 0.17404,0.16182 0.39513,0.25949 0.63545,0.25949 h 58.68862 c 0.24022,0 0.46151,-0.0977 0.63545,-0.25949 z"
         fill="#0081B3" />
      <path
         style="stroke-width:0.10834"
         inkscape:connector-curvature="0"
         id="path12"
         d="m 572.80521,288.59768 2.58999,1.78592 24.28738,-24.47368 c -0.009,-0.01 -0.018,-0.019 -0.0271,-0.0283 z"
         fill="#0897D2" />
      <path
         style="stroke-width:0.10834"
         inkscape:connector-curvature="0"
         id="path14"
         d="m 539.63218,265.88161 c -0.009,0.009 -0.0183,0.0187 -0.0272,0.0283 l 24.28748,24.47356 2.58999,-1.78591 z"
         fill="#0897D2" />
      <polygon
         transform="matrix(0.10118726,0,0,0.11599893,539.28764,265.59011)"
         id="polygon16"
         points="300,221.4 268.757,198.343 243.161,213.738 300,263.7 356.839,213.738 331.243,198.343 "
         fill="#00699C" />
      <path
         inkscape:connector-curvature="0"
         style="fill:url(#SVGID_1_);stroke-width:0.10834"
         id="path23"
         d="m 598.98813,265.59011 h -58.68862 c -0.25539,0 -0.48883,0.11078 -0.66733,0.2915 l 30.01164,25.39066 30.01174,-25.39066 c -0.1786,-0.18072 -0.41204,-0.2915 -0.66743,-0.2915 z"
         fill="url(#SVGID_1_)" />
    </g>
  </g>
</svg>
