<?xml version="1.0" encoding="UTF-8" standalone="no"?>
<svg
   xmlns:dc="http://purl.org/dc/elements/1.1/"
   xmlns:cc="http://creativecommons.org/ns#"
   xmlns:rdf="http://www.w3.org/1999/02/22-rdf-syntax-ns#"
   xmlns:svg="http://www.w3.org/2000/svg"
   xmlns="http://www.w3.org/2000/svg"
   xmlns:xlink="http://www.w3.org/1999/xlink"
   xmlns:sodipodi="http://sodipodi.sourceforge.net/DTD/sodipodi-0.dtd"
   xmlns:inkscape="http://www.inkscape.org/namespaces/inkscape"
   sodipodi:docname="trash-full.svg"
   inkscape:version="1.0beta2 (2b71d25d45, 2019-12-03)"
   id="svg2408"
   height="48"
   width="48"
   version="1.0">
  <sodipodi:namedview
     inkscape:document-rotation="0"
     inkscape:guide-bbox="true"
     showguides="true"
     inkscape:current-layer="svg2408"
     inkscape:window-maximized="1"
     inkscape:window-y="21"
     inkscape:window-x="0"
     inkscape:cy="12.275731"
     inkscape:cx="27.990348"
     inkscape:zoom="19.194718"
     showgrid="false"
     id="namedview128"
     inkscape:window-height="1027"
     inkscape:window-width="1920"
     inkscape:pageshadow="2"
     inkscape:pageopacity="0"
     guidetolerance="10"
     gridtolerance="10"
     objecttolerance="10"
     borderopacity="1"
     bordercolor="#666666"
     pagecolor="#ffffff" />
  <defs
     id="defs2410">
    <linearGradient
       gradientTransform="scale(1.0058652,0.994169)"
       gradientUnits="userSpaceOnUse"
       id="ButtonShadow"
       y2="7.0165396"
       x2="45.447727"
       y1="92.539597"
       x1="45.447727">
      <stop
         offset="0"
         style="stop-color:#000000;stop-opacity:1"
         id="stop3750" />
      <stop
         offset="1"
         style="stop-color:#000000;stop-opacity:0.58823532"
         id="stop3752" />
    </linearGradient>
    <filter
       id="filter3174"
       color-interpolation-filters="sRGB">
      <feGaussianBlur
         stdDeviation="1.71"
         id="feGaussianBlur3176" />
    </filter>
    <filter
       id="filter3174-5"
       color-interpolation-filters="sRGB">
      <feGaussianBlur
         stdDeviation="1.71"
         id="feGaussianBlur3176-6" />
    </filter>
    <linearGradient
       y2="7.0165396"
       x2="45.447727"
       y1="92.539597"
       x1="45.447727"
       gradientTransform="scale(1.0058652,0.994169)"
       gradientUnits="userSpaceOnUse"
       id="linearGradient898"
       xlink:href="#ButtonShadow"
       inkscape:collect="always" />
  </defs>
  <metadata
     id="metadata2413">
    <rdf:RDF>
      <cc:Work
         rdf:about="">
        <dc:format>image/svg+xml</dc:format>
        <dc:type
           rdf:resource="http://purl.org/dc/dcmitype/StillImage" />
        <dc:title></dc:title>
      </cc:Work>
    </rdf:RDF>
  </metadata>
  <g
     style="display:none"
     id="layer2">
    <path
       style="opacity:0.9;fill:url(#ButtonShadow);fill-opacity:1;fill-rule:nonzero;stroke:none;filter:url(#filter3174)"
       id="rect3745"
       inkscape:connector-curvature="0"
       d="M 11,7 C 7.676,7 5,9.676 5,13 v 33.6875 c 2.2377507,0.124029 4.660506,0.235683 5.875,0.4375 0.66093,0.10983 -0.08406,0.240848 -1.125,0.34375 C 8.7090622,47.571654 7.3545491,47.665119 6.84375,47.75 6.2216014,47.853382 5.6264179,47.903999 5,48 v 1.0625 c 0.3803657,0.03607 0.7183843,0.03125 0.9375,0.03125 0.80883,10e-7 1.1599727,0.215701 1.3125,0.5625 0.1525272,0.346797 0.09375,0.839723 0.09375,1.40625 0,0.424828 -0.9420178,0.663014 -1.15625,1.375 C 6.110939,52.691968 5.5510552,52.945524 5,53.1875 v 2.21875 c 0.7355867,0.02497 1.4332639,0.05671 1.84375,0.3125 C 7.1254716,55.894306 6.0687957,56.124098 5,56.3125 v 7.5625 c 1.1379643,0.180337 3.3100715,0.925679 3.96875,1.0625 1.090152,0.226446 1.224723,0.33476 0.875,0.4375 -0.3497231,0.102744 -1.173581,0.175172 -2,0.3125 C 6.8656638,65.850029 5.90816,66.141998 5,66.34375 V 86 c 0,3.324 2.676,6 6,6 h 13 c 0.0954,-0.438237 0.150955,-0.931178 0.25,-1.4375 0.140364,-0.717512 0.25498,-1.34159 0.375,-1.59375 0.03001,-0.06304 0.05815,-0.114053 0.09375,-0.125 0.106804,-0.03285 0.238198,0.191956 0.46875,0.78125 0.304338,0.777871 0.540174,1.646782 0.6875,2.375 h 0.75 c 0.276152,-0.493694 0.578538,-1.138496 0.8125,-1.4375 0.09907,-0.126629 0.275237,0.131501 0.53125,0.375 0.256014,0.2435 0.588904,0.486378 0.9375,0.375 0.648614,-0.207227 1.602807,-0.726227 2.03125,-1 0.139883,-0.08938 0.300164,-0.157976 0.40625,-0.1875 0.106087,-0.02952 0.174331,-0.01774 0.25,0 0.151339,0.03548 0.232196,0.144559 0.34375,0.28125 0.223098,0.27338 0.466785,0.656251 1.0625,0.65625 0.478344,0 0.657185,-0.0325 0.78125,0.0625 0.124065,0.095 0.197087,0.314551 0.40625,0.875 h 8.875 c -0.04778,-0.593879 1.040547,-2.151517 1.21875,-3.0625 0.19092,-0.975995 0.214078,-1.242419 0.28125,-1.0625 0.06717,0.179919 0.192504,0.793906 0.46875,1.5 0.110448,0.282298 0.213887,0.358235 0.3125,0.28125 0.09861,-0.07699 0.168895,-0.293948 0.25,-0.5625 0.162213,-0.537107 0.285649,-1.296709 0.34375,-1.59375 0.131129,-0.670335 0.128655,-1.786501 0.125,-2.28125 -9.11e-4,-0.123687 -0.0059,-0.217815 0,-0.25 0.01779,-0.09656 0.08067,0.312079 0.28125,1.59375 0.163819,1.046767 0.54767,2.687946 0.71875,3.5625 0.169798,0.867992 0.298106,1.322124 0.40625,1.875 H 75.6875 c 0.03877,-0.494956 0.03519,-1.098589 0.0625,-1.5 0.02049,-0.301057 0.06649,-0.487005 0.15625,-0.46875 0.02992,0.0061 0.05077,0.03882 0.09375,0.09375 0.233449,0.298339 0.630596,1.164908 0.96875,1.875 H 85 c 3.324,0 6,-2.676 6,-6 v -7.21875 c -0.16942,0.0045 -0.290112,-4e-6 -0.5,0 -1.330307,0 -2.638456,-4e-6 -3.96875,0 -1.226564,0 -2.05394,-9.64e-4 -2.25,-0.0625 -0.19606,-0.06154 0.232972,-0.183183 1.46875,-0.5 C 86.405034,78.050819 89.092469,77.290673 91,76.875 V 38.46875 C 90.34725,38.202412 89.792969,37.980093 89.25,37.5625 89.107486,37.452886 88.801155,37.170028 88.28125,37 87.761349,36.829972 87.007124,36.743855 86,36.9375 c -1.533473,0.294852 -1.685602,0.283469 -1.25,0.15625 0.4356,-0.127221 1.468635,-0.381012 2.25,-0.53125 1.152717,-0.221645 2.722214,-1.204246 4,-1.84375 v -4.5625 c -0.69831,-0.257978 -1.422206,-0.558272 -1.75,-1.0625 -0.209707,-0.322576 -0.321618,-0.513018 -0.3125,-0.625 0.0091,-0.111981 0.13299,-0.149124 0.25,-0.1875 0.117011,-0.03837 0.261032,-0.05449 0.375,-0.15625 0.11397,-0.101759 0.187497,-0.291619 0.1875,-0.59375 0,-0.32292 0.08246,-0.887065 0.0625,-1.40625 -0.01,-0.259593 -0.03562,-0.49724 -0.125,-0.6875 -0.08939,-0.19026 -0.219089,-0.333004 -0.4375,-0.375 -0.574572,-0.110478 -0.848143,-0.233682 -0.90625,-0.34375 -0.05811,-0.110067 0.07208,-0.18937 0.28125,-0.28125 0.418339,-0.18376 1.132532,-0.339398 1.125,-0.34375 -0.668701,-0.385725 -5.247169,-0.921226 -5,-0.96875 0.332574,-0.06395 0.667437,-0.123553 1,-0.1875 1.047644,-0.201439 2.43278,-0.309227 3.75,-0.5625 0.573261,-0.110227 0.911769,-0.250569 1.125,-0.4375 0.213229,-0.18693 0.294201,-0.423258 0.375,-0.625 V 13 C 91,9.676 88.324,7 85,7 H 33.625 C 33.72158,8.3975706 33.82658,9.959362 33.53125,9.1875 33.320827,8.6375466 33.210422,8.0499534 33,7.5 32.946762,7.3608606 32.903941,7.1705291 32.84375,7 H 30.8125 C 30.571803,7.4923127 30.362863,7.9708281 30.03125,8.1875 29.524321,8.5187294 29.245447,8.6821159 29,8.59375 28.754552,8.5053839 28.523162,8.1669814 28.15625,7.6875 27.992502,7.4735174 27.721718,7.2560338 27.40625,7 h -6.8125 L 19.28125,12.5625 17.53125,7 H 17.3125 l -1.75,8.9375 L 14.15625,7 Z" />
  </g>
  <rect
     style="fill:#000000;fill-opacity:0;stroke:none"
     id="rect3881"
     width="22.5"
     height="2.25"
     x="-143.1875"
     y="179.25" />
  <g
     transform="translate(72.09375,-67.25)"
     id="g896">
    <g
       style="display:none"
       id="layer2-9">
      <path
         style="opacity:0.9;fill:url(#linearGradient898);fill-opacity:1;fill-rule:nonzero;stroke:none;filter:url(#filter3174-5)"
         id="rect3745-1"
         inkscape:connector-curvature="0"
         d="M 11,7 C 7.676,7 5,9.676 5,13 v 33.6875 c 2.2377507,0.124029 4.660506,0.235683 5.875,0.4375 0.66093,0.10983 -0.08406,0.240848 -1.125,0.34375 C 8.7090622,47.571654 7.3545491,47.665119 6.84375,47.75 6.2216014,47.853382 5.6264179,47.903999 5,48 v 1.0625 c 0.3803657,0.03607 0.7183843,0.03125 0.9375,0.03125 0.80883,10e-7 1.1599727,0.215701 1.3125,0.5625 0.1525272,0.346797 0.09375,0.839723 0.09375,1.40625 0,0.424828 -0.9420178,0.663014 -1.15625,1.375 C 6.110939,52.691968 5.5510552,52.945524 5,53.1875 v 2.21875 c 0.7355867,0.02497 1.4332639,0.05671 1.84375,0.3125 C 7.1254716,55.894306 6.0687957,56.124098 5,56.3125 v 7.5625 c 1.1379643,0.180337 3.3100715,0.925679 3.96875,1.0625 1.090152,0.226446 1.224723,0.33476 0.875,0.4375 -0.3497231,0.102744 -1.173581,0.175172 -2,0.3125 C 6.8656638,65.850029 5.90816,66.141998 5,66.34375 V 86 c 0,3.324 2.676,6 6,6 h 13 c 0.0954,-0.438237 0.150955,-0.931178 0.25,-1.4375 0.140364,-0.717512 0.25498,-1.34159 0.375,-1.59375 0.03001,-0.06304 0.05815,-0.114053 0.09375,-0.125 0.106804,-0.03285 0.238198,0.191956 0.46875,0.78125 0.304338,0.777871 0.540174,1.646782 0.6875,2.375 h 0.75 c 0.276152,-0.493694 0.578538,-1.138496 0.8125,-1.4375 0.09907,-0.126629 0.275237,0.131501 0.53125,0.375 0.256014,0.2435 0.588904,0.486378 0.9375,0.375 0.648614,-0.207227 1.602807,-0.726227 2.03125,-1 0.139883,-0.08938 0.300164,-0.157976 0.40625,-0.1875 0.106087,-0.02952 0.174331,-0.01774 0.25,0 0.151339,0.03548 0.232196,0.144559 0.34375,0.28125 0.223098,0.27338 0.466785,0.656251 1.0625,0.65625 0.478344,0 0.657185,-0.0325 0.78125,0.0625 0.124065,0.095 0.197087,0.314551 0.40625,0.875 h 8.875 c -0.04778,-0.593879 1.040547,-2.151517 1.21875,-3.0625 0.19092,-0.975995 0.214078,-1.242419 0.28125,-1.0625 0.06717,0.179919 0.192504,0.793906 0.46875,1.5 0.110448,0.282298 0.213887,0.358235 0.3125,0.28125 0.09861,-0.07699 0.168895,-0.293948 0.25,-0.5625 0.162213,-0.537107 0.285649,-1.296709 0.34375,-1.59375 0.131129,-0.670335 0.128655,-1.786501 0.125,-2.28125 -9.11e-4,-0.123687 -0.0059,-0.217815 0,-0.25 0.01779,-0.09656 0.08067,0.312079 0.28125,1.59375 0.163819,1.046767 0.54767,2.687946 0.71875,3.5625 0.169798,0.867992 0.298106,1.322124 0.40625,1.875 H 75.6875 c 0.03877,-0.494956 0.03519,-1.098589 0.0625,-1.5 0.02049,-0.301057 0.06649,-0.487005 0.15625,-0.46875 0.02992,0.0061 0.05077,0.03882 0.09375,0.09375 0.233449,0.298339 0.630596,1.164908 0.96875,1.875 H 85 c 3.324,0 6,-2.676 6,-6 v -7.21875 c -0.16942,0.0045 -0.290112,-4e-6 -0.5,0 -1.330307,0 -2.638456,-4e-6 -3.96875,0 -1.226564,0 -2.05394,-9.64e-4 -2.25,-0.0625 -0.19606,-0.06154 0.232972,-0.183183 1.46875,-0.5 C 86.405034,78.050819 89.092469,77.290673 91,76.875 V 38.46875 C 90.34725,38.202412 89.792969,37.980093 89.25,37.5625 89.107486,37.452886 88.801155,37.170028 88.28125,37 87.761349,36.829972 87.007124,36.743855 86,36.9375 c -1.533473,0.294852 -1.685602,0.283469 -1.25,0.15625 0.4356,-0.127221 1.468635,-0.381012 2.25,-0.53125 1.152717,-0.221645 2.722214,-1.204246 4,-1.84375 v -4.5625 c -0.69831,-0.257978 -1.422206,-0.558272 -1.75,-1.0625 -0.209707,-0.322576 -0.321618,-0.513018 -0.3125,-0.625 0.0091,-0.111981 0.13299,-0.149124 0.25,-0.1875 0.117011,-0.03837 0.261032,-0.05449 0.375,-0.15625 0.11397,-0.101759 0.187497,-0.291619 0.1875,-0.59375 0,-0.32292 0.08246,-0.887065 0.0625,-1.40625 -0.01,-0.259593 -0.03562,-0.49724 -0.125,-0.6875 -0.08939,-0.19026 -0.219089,-0.333004 -0.4375,-0.375 -0.574572,-0.110478 -0.848143,-0.233682 -0.90625,-0.34375 -0.05811,-0.110067 0.07208,-0.18937 0.28125,-0.28125 0.418339,-0.18376 1.132532,-0.339398 1.125,-0.34375 -0.668701,-0.385725 -5.247169,-0.921226 -5,-0.96875 0.332574,-0.06395 0.667437,-0.123553 1,-0.1875 1.047644,-0.201439 2.43278,-0.309227 3.75,-0.5625 0.573261,-0.110227 0.911769,-0.250569 1.125,-0.4375 0.213229,-0.18693 0.294201,-0.423258 0.375,-0.625 V 13 C 91,9.676 88.324,7 85,7 H 33.625 C 33.72158,8.3975706 33.82658,9.959362 33.53125,9.1875 33.320827,8.6375466 33.210422,8.0499534 33,7.5 32.946762,7.3608606 32.903941,7.1705291 32.84375,7 H 30.8125 C 30.571803,7.4923127 30.362863,7.9708281 30.03125,8.1875 29.524321,8.5187294 29.245447,8.6821159 29,8.59375 28.754552,8.5053839 28.523162,8.1669814 28.15625,7.6875 27.992502,7.4735174 27.721718,7.2560338 27.40625,7 h -6.8125 L 19.28125,12.5625 17.53125,7 H 17.3125 l -1.75,8.9375 L 14.15625,7 Z" />
    </g>
    <g
       transform="translate(-71.09375,68.25)"
       id="g859">
      <rect
         y="0"
         x="0"
         height="46"
         width="46"
         id="rect6228"
         style="fill:#4db261;fill-opacity:1;stroke:none;stroke-width:0.479167" />
      <rect
         style="fill:#8cc67b;fill-opacity:1;stroke:none;stroke-width:0.479167"
         id="rect4912"
         width="46"
         height="21.096584"
         x="0"
         y="0" />
      <rect
         y="0"
         x="0"
         height="1.1979166"
         width="46"
         id="rect3880"
         style="opacity:0.511312;fill:#ffffff;fill-opacity:1;stroke:none;stroke-width:0.479167" />
      <rect
         style="opacity:0.38914;fill:#164450;fill-opacity:1;stroke:none;stroke-width:0.479167"
         id="rect3878"
         width="46"
         height="1.1979166"
         x="0"
         y="44.802082" />
      <path
         style="color:#000000;font-style:normal;font-variant:normal;font-weight:normal;font-stretch:normal;font-size:medium;line-height:normal;font-family:Sans;-inkscape-font-specification:Sans;text-indent:0;text-align:start;text-decoration:none;text-decoration-line:none;letter-spacing:normal;word-spacing:normal;text-transform:none;writing-mode:lr-tb;direction:ltr;baseline-shift:baseline;text-anchor:start;display:inline;overflow:visible;visibility:visible;fill:#d4ff2a;fill-opacity:1;fill-rule:nonzero;stroke:none;stroke-width:0.479167;marker:none;enable-background:accumulate"
         d="m 23.094564,23.825533 c -1.450543,0 -2.345511,0.93047 -3.237251,1.894613 -0.519028,0.56117 -1.031531,1.221374 -1.521658,1.924449 -0.172026,-0.07221 -0.343637,-0.150125 -0.477383,-0.193936 -0.08953,-0.02933 -0.164725,-0.04688 -0.238691,-0.05967 -0.07397,-0.01279 -0.140695,-0.04801 -0.283446,0.04476 -0.111424,0.07241 -0.115797,0.135906 -0.134264,0.193937 -0.01847,0.05803 -0.03515,0.110884 -0.04475,0.179018 -0.01922,0.136269 -0.02445,0.309773 -0.02984,0.50722 -0.01079,0.394893 0.0026,0.898827 0.02984,1.402311 0.0273,0.503483 0.06597,1.010823 0.119345,1.402312 0.0267,0.195745 0.05572,0.358879 0.08951,0.492301 0.01691,0.06671 0.03511,0.123341 0.05967,0.179019 0.02457,0.05568 0.04586,0.118819 0.1641,0.179019 0.118139,0.06015 0.179238,0.04278 0.238691,0.02984 0.05945,-0.01295 0.115278,-0.03403 0.179019,-0.05967 0.127483,-0.05128 0.274119,-0.130062 0.447546,-0.223773 0.346855,-0.187421 0.786705,-0.456528 1.208375,-0.730992 0.421671,-0.274465 0.821954,-0.549368 1.133784,-0.790666 0.155915,-0.120649 0.289354,-0.232399 0.387874,-0.3282 0.04926,-0.0479 0.09835,-0.100092 0.134264,-0.149183 0.03592,-0.04909 0.08157,-0.09149 0.07459,-0.223772 -0.0078,-0.147189 -0.07384,-0.177264 -0.119346,-0.223774 -0.04551,-0.04652 -0.0881,-0.08889 -0.149181,-0.134264 -0.06195,-0.04602 -0.158998,-0.11239 -0.238693,-0.164099 0.586668,-0.908234 1.203578,-1.78009 1.820023,-2.446588 0.814108,-0.88021 1.554384,-1.488066 2.282486,-1.551494 a 0.23871524,0.23871524 0 0 0 0.134264,-0.432628 C 24.56308,24.112167 23.908614,23.825536 23.094564,23.825537 Z m 2.043795,1.521658 c -0.262318,-10e-7 -0.531146,0.126439 -0.850337,0.328201 -0.319193,0.201762 -0.671659,0.495147 -1.044276,0.865256 a 0.23871524,0.23871524 0 0 0 0.02984,0.358037 c 0.236633,0.150964 0.574355,0.411627 0.924929,0.790665 0.696488,0.753039 1.490359,1.848186 2.163142,3.013479 a 0.23871524,0.23871524 0 0 0 0.179017,0.119346 c 0.420732,0.04826 0.864932,0.03138 1.282967,-0.164101 0.418035,-0.195474 0.802127,-0.565629 1.074111,-1.163621 a 0.23871524,0.23871524 0 0 0 -0.01492,-0.223772 c -0.562323,-0.973971 -1.19588,-1.912624 -1.849859,-2.730033 0.01986,0.02482 0.01031,0.0051 -0.02984,-0.04475 a 0.23871524,0.23871524 0 0 0 -0.01492,-0.01492 C 26.623964,26.12492 26.270468,25.835908 25.958864,25.645556 25.64726,25.455205 25.391722,25.347193 25.138362,25.347193 Z m 3.505781,5.534656 c -0.08543,-0.0093 -0.196068,0.03197 -0.238693,0.05967 -0.111062,0.07217 -0.115768,0.135985 -0.134263,0.193937 -0.0185,0.05795 -0.03514,0.111066 -0.04476,0.179019 -0.01923,0.135905 -0.02444,0.310453 -0.02984,0.507219 -0.01079,0.393531 0.0026,0.900674 0.02984,1.402311 0.02729,0.501638 0.06596,0.99727 0.119346,1.387394 0.02669,0.195062 0.05569,0.35925 0.08951,0.492301 0.01691,0.06652 0.03507,0.123437 0.05967,0.179018 0.0246,0.05558 0.04627,0.119028 0.1641,0.179019 0.127304,0.06482 0.191044,0.03059 0.25361,0.01492 0.06257,-0.01567 0.12521,-0.03007 0.193936,-0.05967 0.07122,-0.03068 0.167867,-0.09045 0.25361,-0.134264 0.494108,0.962609 0.939186,1.936845 1.208375,2.804623 0.35493,1.144176 0.503249,2.097193 0.193937,2.759869 a 0.23871524,0.23871524 0 0 0 0.298364,0.328201 c 0.651952,-0.270508 1.247802,-0.695426 1.655922,-1.402312 0.725358,-1.256358 0.359418,-2.504553 -0.02984,-3.759389 -0.228036,-0.735113 -0.559661,-1.49763 -0.924929,-2.267568 0.146288,-0.110608 0.298354,-0.221394 0.402792,-0.313282 0.07177,-0.06315 0.144668,-0.121233 0.193937,-0.179019 0.04927,-0.05779 0.113562,-0.09526 0.104427,-0.268528 -0.0066,-0.124483 -0.05149,-0.165625 -0.08951,-0.208855 -0.03802,-0.04323 -0.08524,-0.07999 -0.134264,-0.119345 C 32.141387,32.578403 32.0181,32.498355 31.866471,32.403504 31.563211,32.2138 31.151282,31.993237 30.732687,31.776938 30.31409,31.56064 29.88056,31.341199 29.509393,31.18021 29.138226,31.019221 28.870715,30.906521 28.644137,30.881846 Z m -12.889336,0.999521 c -0.149399,-0.0074 -0.316802,-6.71e-4 -0.477383,0.01492 a 0.23871524,0.23871524 0 0 0 -0.179017,0.119346 c -0.562932,0.975027 -1.05178,1.980116 -1.432149,2.953806 -0.0091,0.01266 -0.01781,0.01372 -0.02984,0.04475 a 0.23871524,0.23871524 0 0 0 -0.01492,0.02984 c -0.126269,0.493655 -0.184849,0.945543 -0.193937,1.312804 -0.0091,0.367259 0.02191,0.644804 0.149182,0.865255 0.132733,0.229899 0.378151,0.391472 0.716075,0.566892 0.337923,0.17542 0.776398,0.339814 1.282965,0.477383 a 0.23871524,0.23871524 0 0 0 0.298365,-0.208855 c 0.01248,-0.281883 0.05652,-0.717282 0.208855,-1.208375 0.303968,-0.979893 0.863904,-2.221334 1.536576,-3.386434 a 0.23871524,0.23871524 0 0 0 0.01492,-0.208855 C 17.338122,32.57082 16.771838,31.931774 15.7548,31.881374 Z m -2.700196,5.534656 a 0.23871524,0.23871524 0 0 0 -0.149182,0.208855 c -0.09128,0.696603 -0.03576,1.410469 0.372956,2.118386 0.72571,1.256969 1.985774,1.574472 3.267088,1.864777 0.744666,0.168716 1.582979,0.271828 2.431668,0.343118 0.02287,0.180688 0.04671,0.358835 0.07459,0.492301 0.01902,0.09106 0.0338,0.168838 0.05967,0.238692 0.02588,0.06985 0.03146,0.148644 0.179018,0.223772 0.117732,0.05994 0.179285,0.0426 0.238692,0.02984 0.05941,-0.01277 0.115278,-0.03427 0.179019,-0.05967 0.12748,-0.05082 0.274111,-0.130776 0.447546,-0.223773 0.346869,-0.185992 0.786687,-0.443483 1.208375,-0.716075 0.421687,-0.272592 0.821904,-0.550764 1.133784,-0.790665 0.15594,-0.119949 0.289276,-0.232786 0.387874,-0.3282 0.0493,-0.04771 0.09826,-0.100146 0.134264,-0.149182 0.036,-0.04903 0.08156,-0.09152 0.07459,-0.223773 -0.007,-0.131975 -0.06366,-0.163786 -0.104427,-0.208855 -0.04076,-0.04507 -0.08037,-0.09175 -0.134264,-0.134264 -0.107783,-0.08502 -0.250391,-0.179689 -0.417709,-0.283446 -0.33464,-0.207515 -0.776201,-0.442272 -1.223294,-0.67132 -0.447093,-0.229049 -0.904218,-0.446468 -1.268049,-0.596728 -0.181915,-0.07513 -0.330499,-0.141303 -0.462463,-0.179019 -0.06598,-0.01885 -0.133461,-0.02316 -0.193938,-0.02984 -0.06048,-0.0067 -0.127587,-0.02744 -0.238691,0.04475 -0.12364,0.08035 -0.1163,0.146578 -0.134264,0.208855 -0.01796,0.06227 -0.03537,0.13344 -0.04475,0.208854 -0.0096,0.07745 -0.0095,0.187687 -0.01492,0.283446 -1.082041,-0.05291 -2.143189,-0.157478 -3.028396,-0.358036 -1.168295,-0.264699 -2.071399,-0.60816 -2.491342,-1.208376 a 0.23871524,0.23871524 0 0 0 -0.253609,-0.104428 0.23871524,0.23871524 0 0 0 -0.02984,0 z m 16.962006,0.939847 a 0.23871524,0.23871524 0 0 0 -0.05967,0.02984 c -0.247532,0.128658 -0.660126,0.288715 -1.16362,0.402792 -1.00083,0.226755 -2.339572,0.372955 -3.684797,0.372955 a 0.23871524,0.23871524 0 0 0 -0.193938,0.08951 c -0.253501,0.342043 -0.457869,0.745822 -0.492301,1.208376 -0.03443,0.462553 0.110683,0.972572 0.492301,1.50674 a 0.23871524,0.23871524 0 0 0 0.193938,0.104427 c 1.126444,0 2.248933,-0.08131 3.282005,-0.238692 -0.0523,0.008 -0.0391,0.01303 0.04476,0 a 0.23871524,0.23871524 0 0 0 0.02984,-0.01492 c 0.490077,-0.137314 0.902645,-0.289247 1.223293,-0.462464 0.320647,-0.173218 0.559213,-0.346878 0.686238,-0.566893 0.132156,-0.228899 0.14957,-0.529064 0.134264,-0.910011 -0.01531,-0.380946 -0.08949,-0.834642 -0.223774,-1.342639 a 0.23871524,0.23871524 0 0 0 -0.268537,-0.17902 z"
         id="path4853"
         inkscape:connector-curvature="0" />
      <g
         id="g4890"
         transform="matrix(0.47916667,0,0,0.47916667,0,-8.0653329)">
        <rect
           y="58.374371"
           x="0"
           height="2.5"
           width="96"
           id="rect4878"
           style="opacity:0.511312;fill:#c1edb4;fill-opacity:1;stroke:none" />
        <rect
           style="opacity:0.38914;fill:#164450;fill-opacity:1;stroke:none"
           id="rect4880"
           width="96"
           height="2.5"
           x="0"
           y="60.846642" />
      </g>
      <rect
         style="fill:#2b1100;fill-opacity:1;stroke:none;stroke-width:0.479167"
         id="rect4920"
         width="39.908691"
         height="11.155436"
         x="3.0456541"
         y="4.6673102" />
      <rect
         y="-17.088335"
         x="3.0456541"
         height="1.26559"
         width="39.908691"
         id="rect4922"
         style="opacity:0.737557;fill:#a1e48e;fill-opacity:1;stroke:none;stroke-width:0.479167"
         transform="scale(1,-1)" />
      <rect
         transform="scale(1,-1)"
         style="opacity:0.294118;fill:#2b1100;fill-opacity:1;stroke:none;stroke-width:0.479167"
         id="rect4924"
         width="39.908691"
         height="1.26559"
         x="3.0456541"
         y="-4.6673102" />
    </g>
  </g>
  <g
     transform="matrix(0.5630413,0,0,0.5630413,-3.4639856,-1.7637378)"
     id="g6150">
    <path
       id="path6146"
       d="m 23.665616,14.28125 c 0.187007,-0.02881 16.72731,8.487299 16.8125,8.65625 0.0451,0.08945 -0.76391,5.207428 -1.5625,10.09375 h -26.03125 c -1.436925,-2.873839 -2.667425,-5.368828 -2.65625,-5.4375 0.03039,-0.186757 13.250494,-13.28369 13.4375,-13.3125 z"
       style="opacity:0.868778;fill:#ffffff;fill-opacity:1;stroke:none"
       inkscape:connector-curvature="0" />
    <path
       style="opacity:0.868778;fill:#ffffff;fill-opacity:1;stroke:none"
       d="m 40.83484,12.9375 c -0.182558,0.04974 -11.83465,14.561006 -11.84375,14.75 -0.0034,0.07154 1.580678,2.539775 3.40625,5.34375 h 25.5625 C 58.249553,27.4763 58.621237,19.75946 58.55359,19.65625 58.449868,19.497999 41.017397,12.88776 40.83484,12.9375 Z"
       id="path6128"
       inkscape:connector-curvature="0" />
    <path
       id="path6148"
       d="m 23.748794,14.45459 c -0.12113,-0.145354 -0.328593,8.008016 -0.35898,8.194773 -0.03039,0.186756 -9.941077,5.584661 -9.77285,5.671273 0.168223,0.08662 9.444361,4.193252 12.67231,4.148412 l -0.736944,-4.758604 9.892523,-4.50627 -6.623467,-2.662558 z"
       inkscape:transform-center-y="-0.44494541"
       inkscape:transform-center-x="-4.8692275"
       style="opacity:0.868778;fill:#ffffff;fill-opacity:1;stroke:none"
       inkscape:connector-curvature="0"
       sodipodi:nodetypes="sscccccs" />
    <path
       style="opacity:0.868778;fill:#ffffff;fill-opacity:1;stroke:none"
       d="M 44.83484,17.09375 C 44.652282,17.14349 29.00019,27.498506 28.99109,27.6875 28.98199,27.876494 41.50166,26.93294 41.67859,27 c 0.09051,0.03431 4.246475,3.065765 8.3125,6.03125 h 4.90625 l -4,-8.09375 7.65625,-5.28125 c 0.155561,-0.107714 -13.536193,-2.61224 -13.71875,-2.5625 z"
       id="path6131"
       inkscape:connector-curvature="0" />
    <path
       style="opacity:0.868778;fill:#ffffff;fill-opacity:1;stroke:none"
       d="m 72.650731,14.28125 c -0.187007,-0.02881 -16.72731,8.487299 -16.8125,8.65625 -0.0451,0.08945 0.76391,5.207428 1.5625,10.09375 h 26.03125 c 1.436925,-2.873839 2.667425,-5.368828 2.65625,-5.4375 -0.03039,-0.186757 -13.250494,-13.28369 -13.4375,-13.3125 z"
       id="path6133"
       inkscape:connector-curvature="0" />
    <path
       sodipodi:nodetypes="sscccccs"
       inkscape:connector-curvature="0"
       style="opacity:0.868778;fill:#ffffff;fill-opacity:1;stroke:none"
       inkscape:transform-center-x="4.8692277"
       inkscape:transform-center-y="-0.44494541"
       d="m 72.567553,14.45459 c 0.12113,-0.145354 0.328593,8.008016 0.35898,8.194773 0.03039,0.186756 9.941077,5.584661 9.77285,5.671273 -0.168223,0.08662 -9.444361,4.193252 -12.67231,4.148412 l 0.736944,-4.758604 -9.892523,-4.50627 6.623467,-2.662558 z"
       id="path6135" />
  </g>
</svg>
