<?xml version="1.0" encoding="UTF-8" standalone="no"?>
<svg xmlns:dc="http://purl.org/dc/elements/1.1/" xmlns:cc="http://creativecommons.org/ns#" xmlns:rdf="http://www.w3.org/1999/02/22-rdf-syntax-ns#" xmlns:svg="http://www.w3.org/2000/svg" xmlns="http://www.w3.org/2000/svg" xmlns:sodipodi="http://sodipodi.sourceforge.net/DTD/sodipodi-0.dtd" xmlns:inkscape="http://www.inkscape.org/namespaces/inkscape" width="96" height="96" viewBox="0 0 96 96" id="svg2" version="1.1" inkscape:version="1.0beta2 (2b71d25d45, 2019-12-03)" sodipodi:docname="mail-folder-sent.svg">
  <defs id="defs4">
    <linearGradient gradientTransform="matrix(0.1012,0,0,0.116,539.3,265.6)" y2="221.4" x2="300" y1="0" x1="300" gradientUnits="userSpaceOnUse" id="SVGID_1_">
      <stop id="stop18" style="stop-color:#9EE2FD" offset="0" />
      <stop id="stop20" style="stop-color:#5ED4FA" offset="1" />
    </linearGradient>
  </defs>
  <sodipodi:namedview id="base" pagecolor="#ffffff" bordercolor="#666666" borderopacity="1.0" inkscape:pageopacity="0.0" inkscape:pageshadow="2" inkscape:zoom="4.52" inkscape:cx="34.66" inkscape:cy="44.52" inkscape:document-units="px" inkscape:current-layer="g905" showgrid="false" units="px" inkscape:showpageshadow="false" inkscape:window-width="1920" inkscape:window-height="1029" inkscape:window-x="0" inkscape:window-y="21" inkscape:window-maximized="1" inkscape:document-rotation="0" />
  <metadata id="metadata7">
    <rdf:RDF>
      <cc:Work rdf:about="">
        <dc:format>image/svg+xml</dc:format>
        <dc:type rdf:resource="http://purl.org/dc/dcmitype/StillImage" />
        <dc:title></dc:title>
        <cc:license rdf:resource="http://creativecommons.org/licenses/by-sa/4.0/" />
        <dc:date>2019</dc:date>
        <dc:creator>
          <cc:Agent>
            <dc:title>Cristian Pozzessere &lt; ilnanny &gt;</dc:title>
          </cc:Agent>
        </dc:creator>
        <dc:subject>
          <rdf:Bag>
            <rdf:li>ilnanny</rdf:li>
            <rdf:li>inkscape</rdf:li>
            <rdf:li>vectorart</rdf:li>
            <rdf:li>svgfiles</rdf:li>
            <rdf:li>wallpapers</rdf:li>
            <rdf:li>icons</rdf:li>
            <rdf:li>patterns</rdf:li>
          </rdf:Bag>
        </dc:subject>
        <dc:coverage>Italy</dc:coverage>
        <dc:description>..when I have nothing to do, I scribble and have fun with inkscape.</dc:description>
        <dc:contributor>
          <cc:Agent>
            <dc:title>In the night, alone like a dog.</dc:title>
          </cc:Agent>
        </dc:contributor>
      </cc:Work>
      <cc:License rdf:about="http://creativecommons.org/licenses/by-sa/4.0/">
        <cc:permits rdf:resource="http://creativecommons.org/ns#Reproduction" />
        <cc:permits rdf:resource="http://creativecommons.org/ns#Distribution" />
        <cc:requires rdf:resource="http://creativecommons.org/ns#Notice" />
        <cc:requires rdf:resource="http://creativecommons.org/ns#Attribution" />
        <cc:permits rdf:resource="http://creativecommons.org/ns#DerivativeWorks" />
        <cc:requires rdf:resource="http://creativecommons.org/ns#ShareAlike" />
      </cc:License>
    </rdf:RDF>
  </metadata>
  <g inkscape:label="Livello 1" inkscape:groupmode="layer" id="layer1" transform="translate(0,-988.4)">
    <g style="font-size:40px;font-family:sans-serif;fill:#000000" id="text21" aria-label="v" />
    <g transform="translate(88.27,-22.82)" id="g905">
      <rect style="fill:#a741be;stroke-width:0.9792" id="rect6228" width="94" height="94" x="-87.27" y="1012" />
      <rect y="1012" x="-87.27" height="43.11" width="94" id="rect4912" style="fill:#b373c7;stroke-width:0.9792" />
      <rect style="opacity:0.5113;fill:#ffffff;stroke-width:0.9792" id="rect3880" width="94" height="2.448" x="-87.27" y="1012" />
      <rect y="1104" x="-87.27" height="2.448" width="94" id="rect3878" style="fill:#7a226d;stroke-width:0.9792" />
      <g transform="matrix(0.9792,0,0,0.9792,-87.27,995.6)" id="g4890">
        <rect style="opacity:0.5113;fill:#c1edb4" id="rect4878" width="96" height="2.5" x="0" y="58.37" />
        <rect y="60.85" x="0" height="2.5" width="96" id="rect4880" style="opacity:0.3891;fill:#164450" />
      </g>
      <rect y="1071" x="-83.98" height="7.13" width="87.43" id="rect4920" style="fill:#2b1100;stroke-width:0.9792" />
      <rect transform="scale(1,-1)" style="opacity:0.7376;fill:#ffffff;fill-opacity:0.3137;stroke-width:0.9792" id="rect4922" width="87.43" height="2.586" x="-83.98" y="-1080" />
      <rect y="-1071" x="-83.98" height="2.586" width="87.43" id="rect4924" style="opacity:0.2941;fill:#2b1100;stroke-width:0.9792" transform="scale(1,-1)" />
      <rect style="opacity:0.3891;fill:#000000;stroke-width:0.9792" id="rect4990" width="94" height="6.372" x="-87.27" y="1060" />
      <g transform="matrix(0.936,0,0,0.9792,-85.2,1023)" id="g3044">
        <g id="g4967" transform="matrix(0.8269,0,0,1,108.9,47.66)">
          <rect transform="scale(-1,1)" style="fill:#f4eed7" id="rect4913" width="96" height="31.41" x="25.62" y="0.9234" />
          <path style="fill:#cfc5a1" d="M 20.37,28.81 33.56,38.88 8.656,57.88 V 60.09 L 35.03,40 48.34,50.16 61.69,40 88.03,60.09 V 57.88 L 63.16,38.88 76.34,28.81 H 73.41 L 61.69,37.75 60.25,38.88 48.34,47.94 36.47,38.88 35.03,37.78 23.28,28.81 Z" transform="matrix(1.209,0,0,1,-132.1,-27.88)" id="path4915" inkscape:connector-curvature="0" />
        </g>
        <rect y="48.59" x="8.309" height="3.561" width="79.38" id="rect3940" style="opacity:0.3891;fill:#000000" />
      </g>
      <g transform="matrix(0.9721,0,0,0.9721,-86.98,1070)" id="text4994" style="font-size:25.1359px;font-family:'Quirky Nots';-inkscape-font-specification:'Quirky Nots';letter-spacing:0px;word-spacing:0px;fill:#912b99">
        <path id="path4999" style="-inkscape-font-specification:'Neou Bold'" d="M 48.06,4.998 C 40.97,4.998 35.19,10.63 35.19,17.57 35.19,24.48 40.97,30.11 48.06,30.11 51,30.11 53.86,29.1 56.15,27.29 L 57.81,25.99 H 54.69 L 54.52,26.11 C 52.63,27.47 50.39,28.17 48.06,28.17 42.02,28.17 37.12,23.42 37.12,17.57 37.12,11.68 42.02,6.933 48.06,6.933 54.09,6.933 58.99,11.68 58.99,17.57 58.99,17.69 58.99,17.79 58.99,17.92 58.99,18.85 58.99,19.05 58.69,19.9 58.21,20.83 57.21,21.44 56.15,21.44 54.64,21.44 53.39,20.26 53.39,18.77 L 53.36,16.91 V 11.71 H 51.45 V 13.24 C 50.39,12.26 48.99,11.71 47.5,11.71 44.26,11.71 41.62,14.32 41.62,17.57 41.62,20.81 44.26,23.42 47.5,23.42 49.34,23.42 51.05,22.57 52.15,21.16 52.98,22.49 54.49,23.35 56.15,23.35 58.01,23.35 59.72,22.27 60.45,20.56 L 60.47,20.51 C 60.57,20.26 60.65,19.98 60.73,19.7 60.9,19 60.93,18.55 60.93,17.57 60.93,10.63 55.15,4.998 48.06,4.998 M 47.5,21.51 C 45.32,21.51 43.56,19.75 43.56,17.57 43.56,15.38 45.32,13.62 47.5,13.62 49.69,13.62 51.45,15.38 51.45,17.57 51.45,19.75 49.69,21.51 47.5,21.51" inkscape:connector-curvature="0" />
      </g>
      <path inkscape:connector-curvature="0" id="path911" d="M -19.78,1020 A 2.459,2.459 0 0 0 -21.35,1021 L -50.38,1044 -58.18,1032 A 2.459,2.459 0 0 0 -61.61,1032 2.459,2.459 0 0 0 -62.22,1036 L -52.91,1049 A 2.459,2.459 0 0 0 -49.35,1049 L -18.27,1024 A 2.459,2.459 0 0 0 -17.89,1021 2.459,2.459 0 0 0 -19.78,1020 Z" style="color:#000000;fill:#ffffff;fill-opacity:0.9959;stroke-width:4.9186;stroke-linecap:round;stroke-linejoin:round;paint-order:markers stroke fill;opacity:0.9216" />
    </g>
  </g>
</svg>
