<?xml version="1.0" encoding="UTF-8" standalone="no"?>
<svg xmlns:osb="http://www.openswatchbook.org/uri/2009/osb" xmlns:dc="http://purl.org/dc/elements/1.1/" xmlns:cc="http://creativecommons.org/ns#" xmlns:rdf="http://www.w3.org/1999/02/22-rdf-syntax-ns#" xmlns:svg="http://www.w3.org/2000/svg" xmlns="http://www.w3.org/2000/svg" xmlns:sodipodi="http://sodipodi.sourceforge.net/DTD/sodipodi-0.dtd" xmlns:inkscape="http://www.inkscape.org/namespaces/inkscape" sodipodi:docname="bad-signal-lock.svg" inkscape:export-filename="/home/sam/source-symbolic.png" inkscape:export-xdpi="270" inkscape:export-ydpi="270" height="22" id="svg7384" style="enable-background:new" version="1.1" inkscape:version="1.0beta2 (2b71d25d45, 2019-12-03)" width="22">
  <sodipodi:namedview inkscape:bbox-nodes="true" inkscape:bbox-paths="true" bordercolor="#D3D3D3" borderlayer="false" borderopacity="1" inkscape:current-layer="g916" inkscape:cx="21.53" inkscape:cy="48" gridtolerance="10" inkscape:guide-bbox="true" guidetolerance="10" id="namedview88" inkscape:object-nodes="true" inkscape:object-paths="true" objecttolerance="10" pagecolor="#f7f7f7" inkscape:pageopacity="1" inkscape:pageshadow="2" showborder="true" showgrid="false" showguides="true" inkscape:showpageshadow="false" inkscape:snap-bbox="true" inkscape:snap-bbox-edge-midpoints="false" inkscape:snap-bbox-midpoints="false" inkscape:snap-center="false" inkscape:snap-global="false" inkscape:snap-grids="true" inkscape:snap-intersection-paths="true" inkscape:snap-midpoints="true" inkscape:snap-nodes="true" inkscape:snap-object-midpoints="true" inkscape:snap-others="true" inkscape:snap-page="false" inkscape:snap-smooth-nodes="true" inkscape:snap-to-guides="true" inkscape:window-height="976" inkscape:window-maximized="1" inkscape:window-width="1280" inkscape:window-x="0" inkscape:window-y="20" inkscape:zoom="7.307" inkscape:document-rotation="0" inkscape:pagecheckerboard="false">
    <inkscape:grid color="#e1e1e1" dotted="false" empcolor="#0800ff" empopacity="0.4627451" empspacing="4" enabled="true" id="grid4866" opacity="0.16470588" originx="-104.03145" originy="-653" snapvisiblegridlinesonly="true" spacingx="0.25" spacingy="0.25" type="xygrid" visible="true" />
  </sodipodi:namedview>
  <metadata id="metadata90">
    <rdf:RDF>
      <cc:Work rdf:about="">
        <dc:format>image/svg+xml</dc:format>
        <dc:type rdf:resource="http://purl.org/dc/dcmitype/StillImage" />
        <dc:title>Paper Symbolic Icon Theme</dc:title>
      </cc:Work>
    </rdf:RDF>
  </metadata>
  <title id="title8473">Paper Symbolic Icon Theme</title>
  <defs id="defs7386">
    <linearGradient id="linearGradient5606" osb:paint="solid">
      <stop id="stop5608" offset="0" style="stop-color:#e1e1e1" />
    </linearGradient>
    <filter inkscape:collect="always" id="filter7554" style="color-interpolation-filters:sRGB">
      <feBlend inkscape:collect="always" id="feBlend7556" in2="BackgroundImage" mode="darken" />
    </filter>
    <linearGradient id="linearGradient6139-0">
      <stop id="stop6141-2" offset="0" style="stop-color:#b2babc" />
      <stop style="stop-color:#ffffff" offset="0.25" id="stop6151-0" />
      <stop style="stop-color:#22a1a4" offset="0.5" id="stop6147-1" />
      <stop id="stop6149-4" offset="0.75" style="stop-color:#fbf9f9" />
      <stop id="stop6143-4" offset="1" style="stop-color:#b2b9bc" />
    </linearGradient>
    <linearGradient id="linearGradient3832-0-6-1-1">
      <stop style="stop-color:#e1e1e1" offset="0" id="stop3834-6-3-7-1" />
      <stop id="stop3872-2-4" offset="0.1" style="stop-color:#e1e1e1;stop-opacity:0.5882" />
      <stop style="stop-color:#e1e1e1;stop-opacity:0.5882" offset="0.89999998" id="stop3844-6-2-7-6" />
      <stop style="stop-color:#e1e1e1" offset="1" id="stop3836-5-0-2-9" />
    </linearGradient>
    <linearGradient id="linearGradient3737">
      <stop offset="0" style="stop-color:#ffffff" id="stop3739" />
      <stop offset="1" style="stop-color:#ffffff;stop-opacity:0" id="stop3741" />
    </linearGradient>
    <clipPath id="clipPath4156-4-1" clipPathUnits="userSpaceOnUse">
      <path inkscape:connector-curvature="0" id="path4158-0-8" d="M 27.05,-55.7 12.83,-42.37 H 12.89 L 28.55,-20.6 38.78,-31.15 C 38.56,-32.3 27.47,-54.82 27.05,-55.7 Z M 9.647,-39.38 -5.241,-25.32 15.99,-7.806 26.37,-18.38 Z M 41.14,-26.43 31.4,-16.72 40.34,-4.26 48.12,-11.81 Z M -8.702,-22.05 -22.46,-9.07 3.827,4.775 3.888,4.714 3.765,4.652 13.6,-5.401 Z M 29.31,-14.65 19.51,-4.876 31.09,4.683 38.72,-2.718 30.05,-13.73 Z M 49.5,-8.978 42.12,-1.762 48.31,6.78 54.13,0.6433 Z M 17.31,-2.656 7.748,6.842 21.41,14.03 29.34,6.348 Z M 40.62,-0.2818 33.51,6.656 41.87,13.56 47.23,7.89 47.17,7.797 47.08,7.921 Z M 31.89,8.26 24.38,15.6 34.74,21.06 C 36.13,19.74 40.41,14.93 40.59,14.74 Z" style="opacity:0.6;fill:#ffffff" />
    </clipPath>
    <linearGradient id="ButtonShadow-16" gradientTransform="scale(1.006,0.9942)" x1="45.45" y1="92.54" x2="45.45" y2="7.017" gradientUnits="userSpaceOnUse">
      <stop style="stop-color:#e1e1e1" offset="0" id="stop3750-6" />
      <stop style="stop-color:#e1e1e1;stop-opacity:0.5882" offset="1" id="stop3752-4" />
    </linearGradient>
    <clipPath clipPathUnits="userSpaceOnUse" id="clipPath4355-7">
      <rect style="fill:#ffffff" id="rect4357-5" width="84" height="80" x="6" y="6" rx="6" ry="6" />
    </clipPath>
    <clipPath clipPathUnits="userSpaceOnUse" id="clipPath4355-9">
      <rect style="fill:#ffffff" id="rect4357-1" width="84" height="80" x="6" y="6" rx="6" ry="6" />
    </clipPath>
    <clipPath clipPathUnits="userSpaceOnUse" id="clipPath4355-1">
      <rect style="fill:#ffffff" id="rect4357-9" width="84" height="80" x="6" y="6" rx="6" ry="6" />
    </clipPath>
    <clipPath clipPathUnits="userSpaceOnUse" id="clipPath3943-52-0">
      <path id="path3945-4-1" d="M 69.78,20.84 64.78,24.28 C 70.37,29.82 73.78,37.61 73.78,46.09 73.78,54.53 70.4,62.19 64.87,67.72 L 69.87,71.16 C 76.08,64.58 80,55.84 80,46.09 80,36.3 76.04,27.43 69.78,20.84 Z M 40,24.06 28.91,36.22 H 21.5 C 20.68,36.22 20,36.9 20,37.72 V 38.72 53.56 54.56 C 20,55.39 20.68,56.17 21.5,56.06 H 28.91 L 40,68 V 66 26.06 Z M 60.59,27.34 55.59,30.78 55.5,30.87 C 59.44,34.77 61.91,40.13 61.91,46.09 61.91,52.01 59.48,57.24 55.59,61.13 L 55.69,61.22 60.78,64.66 C 65.26,59.75 68.03,53.25 68.03,46.09 68.03,38.86 65.15,32.26 60.59,27.34 Z M 51.34,33.84 46.13,37.47 C 48.35,39.69 49.84,42.71 49.84,46.09 49.84,49.43 48.38,52.32 46.22,54.53 L 51.44,58.16 C 54.26,54.92 55.97,50.72 55.97,46.09 55.97,41.42 54.21,37.09 51.34,33.84 Z" style="color:#e1e1e1;opacity:0.8;fill:#ff00ff" inkscape:connector-curvature="0" />
    </clipPath>
  </defs>
  <g inkscape:groupmode="layer" id="layer9" inkscape:label="status" transform="translate(-345,516)">
    <g transform="translate(345,-1543)" id="layer1-7" inkscape:label="Livello 1">
      <g id="g2574" transform="translate(-0.149,1026)">
        <g transform="translate(-344.5,516.9)" style="fill:#5d7385;enable-background:new" id="g892">
          <g id="g916" transform="matrix(0.9437,0,0,0.9437,10.54,-15.59)">
            <path inkscape:connector-curvature="0" style="opacity:0.3836;fill:#f2f4f6;stroke:#e1e1e1;stroke-width:0.1799" d="M 365.5,-526.1 C 361.9,-526 358.2,-524.5 355.4,-521.5 L 357.9,-518.9 C 362.1,-523.5 369,-523.6 373.4,-519.2 373.4,-519.1 373.5,-519 373.6,-519 L 376,-521.5 C 375.9,-521.6 375.8,-521.7 375.8,-521.8 372.9,-524.7 369.2,-526.2 365.5,-526.1 Z" id="path3982-4" />
            <path inkscape:connector-curvature="0" style="opacity:0.3836;fill:#f2f4f6;stroke:#e1e1e1;stroke-width:0.1799" d="M 365.6,-520.4 C 363.3,-520.4 361,-519.4 359.3,-517.5 L 361.7,-515 C 363.9,-517.3 367.4,-517.4 369.6,-515.1 369.7,-515.1 369.7,-515.1 369.7,-515 L 372.2,-517.5 C 372.1,-517.6 372.1,-517.7 372,-517.7 370.2,-519.5 367.9,-520.5 365.6,-520.4 Z" id="path3990-0" sodipodi:nodetypes="cccsccsc" />
            <path sodipodi:type="arc" style="stroke:#e1e1e1;stroke-width:0.1799;fill:#d4dbe1" id="path3993-4" sodipodi:cx="365.7" sodipodi:cy="-510.9" sodipodi:rx="3.491" sodipodi:ry="3.857" d="M 363.2,-513.6 A 3.491,3.857 0 0 1 365.7,-514.8 3.491,3.857 0 0 1 368.2,-513.6 L 365.7,-510.9 Z" sodipodi:start="3.911" sodipodi:end="5.508" sodipodi:arc-type="slice" />
          </g>
        </g>
      </g>
    </g>
    <g id="g887" />
  </g>
  <g inkscape:groupmode="layer" id="layer10" inkscape:label="devices" style="filter:url(#filter7554)" transform="translate(-345,516)" />
  <g inkscape:groupmode="layer" id="layer1" inkscape:label="places" transform="translate(-104,-101)" />
  <g inkscape:groupmode="layer" id="layer14" inkscape:label="mimetypes" transform="translate(-345,516)" />
  <g inkscape:groupmode="layer" id="layer15" inkscape:label="emblems" transform="translate(-345,516)" />
  <g inkscape:groupmode="layer" id="g71291" inkscape:label="emotes" transform="translate(-345,516)" />
  <g inkscape:groupmode="layer" id="layer2" inkscape:label="categories" transform="translate(-104,49)" />
  <g inkscape:groupmode="layer" id="g6058" inkscape:label="apps" transform="translate(-104,49)" />
  <g inkscape:groupmode="layer" id="layer12" inkscape:label="actions" transform="translate(-345,516)" />
</svg>
