<?xml version="1.0" encoding="UTF-8" standalone="no"?>
<svg xmlns:dc="http://purl.org/dc/elements/1.1/" xmlns:cc="http://creativecommons.org/ns#" xmlns:rdf="http://www.w3.org/1999/02/22-rdf-syntax-ns#" xmlns:svg="http://www.w3.org/2000/svg" xmlns="http://www.w3.org/2000/svg" xmlns:sodipodi="http://sodipodi.sourceforge.net/DTD/sodipodi-0.dtd" xmlns:inkscape="http://www.inkscape.org/namespaces/inkscape" sodipodi:docname="battery-low.svg" inkscape:version="1.0beta2 (2b71d25d45, 2019-12-03)" version="1.1" id="svg27665" height="24" width="24">
  <defs id="defs27667" />
  <sodipodi:namedview inkscape:document-rotation="0" inkscape:showpageshadow="false" fit-margin-bottom="0" fit-margin-right="0" fit-margin-left="0" fit-margin-top="0" inkscape:guide-bbox="true" showguides="true" inkscape:snap-global="true" inkscape:snap-center="true" inkscape:snap-object-midpoints="true" inkscape:snap-midpoints="true" inkscape:snap-smooth-nodes="true" inkscape:object-nodes="true" inkscape:snap-intersection-paths="true" inkscape:object-paths="true" inkscape:snap-bbox-midpoints="true" inkscape:snap-bbox-edge-midpoints="true" inkscape:bbox-nodes="true" inkscape:bbox-paths="true" inkscape:snap-bbox="true" inkscape:window-maximized="1" inkscape:window-y="26" inkscape:window-x="-5" inkscape:window-height="1017" inkscape:window-width="1920" showgrid="true" inkscape:current-layer="layer1" inkscape:document-units="px" inkscape:cy="11.47" inkscape:cx="15.46" inkscape:zoom="44.44" inkscape:pageshadow="2" inkscape:pageopacity="1" borderopacity="1.0" bordercolor="#D3D3D3" pagecolor="#cbcdd6" id="base">
    <inkscape:grid spacingy="1" spacingx="1" originy="-0.0003128" originx="-47.99" snapvisiblegridlinesonly="true" enabled="true" visible="true" empspacing="5" id="grid3070" type="xygrid" />
  </sodipodi:namedview>
  <metadata id="metadata27670">
    <rdf:RDF>
      <cc:Work rdf:about="">
        <dc:format>image/svg+xml</dc:format>
        <dc:type rdf:resource="http://purl.org/dc/dcmitype/StillImage" />
        <dc:title />
      </cc:Work>
    </rdf:RDF>
  </metadata>
  <g transform="translate(3316.4171,-2092.7186)" id="layer1" inkscape:groupmode="layer" inkscape:label="Camada 1">
    <path sodipodi:nodetypes="scsssssscsssssccss" inkscape:connector-curvature="0" id="path2997" transform="translate(-3316.4171,2092.7186)" d="M 11,4 C 10.446,4 10,4.446 10,5 8.3553,5 7,6.3553 7,8 l 0,9 c 0,1.6447 1.3553,3 3,3 l 4,0 c 1.6447,0 3,-1.3553 3,-3 L 17,8 C 17,6.3553 15.6447,5 14,5 14,4.446 13.554,4 13,4 z m -1,3 4,0 c 0.5713,0 1,0.4287 1,1 l 0,6 -6,0 0,-6 C 9,7.4287 9.4287,7 10,7 z" style="color:#e1e1e1;fill:#d9dce1;stroke-width:1.2" />
  </g>
</svg>
