<?xml version="1.0" encoding="UTF-8" standalone="no"?>
<svg xmlns:osb="http://www.openswatchbook.org/uri/2009/osb" xmlns:dc="http://purl.org/dc/elements/1.1/" xmlns:cc="http://creativecommons.org/ns#" xmlns:rdf="http://www.w3.org/1999/02/22-rdf-syntax-ns#" xmlns:svg="http://www.w3.org/2000/svg" xmlns="http://www.w3.org/2000/svg" xmlns:sodipodi="http://sodipodi.sourceforge.net/DTD/sodipodi-0.dtd" xmlns:inkscape="http://www.inkscape.org/namespaces/inkscape" width="22" inkscape:version="1.0beta2 (2b71d25d45, 2019-12-03)" version="1.1" style="enable-background:new" id="svg7384" height="22" inkscape:export-ydpi="270" inkscape:export-xdpi="270" inkscape:export-filename="/home/sam/source-symbolic.png" sodipodi:docname="receiving-high-signal-lock.svg">
  <sodipodi:namedview inkscape:document-rotation="0" inkscape:zoom="24.53" inkscape:window-y="20" inkscape:window-x="0" inkscape:window-width="1280" inkscape:window-maximized="1" inkscape:window-height="976" inkscape:snap-to-guides="true" inkscape:snap-smooth-nodes="true" inkscape:snap-page="false" inkscape:snap-others="true" inkscape:snap-object-midpoints="true" inkscape:snap-nodes="true" inkscape:snap-midpoints="true" inkscape:snap-intersection-paths="true" inkscape:snap-grids="true" inkscape:snap-global="false" inkscape:snap-center="false" inkscape:snap-bbox-midpoints="false" inkscape:snap-bbox-edge-midpoints="false" inkscape:snap-bbox="true" inkscape:showpageshadow="false" showguides="true" showgrid="false" showborder="true" inkscape:pageshadow="2" inkscape:pageopacity="1" pagecolor="#f7f7f7" objecttolerance="10" inkscape:object-paths="true" inkscape:object-nodes="true" id="namedview88" guidetolerance="10" inkscape:guide-bbox="true" gridtolerance="10" inkscape:cy="11.06" inkscape:cx="11" inkscape:current-layer="g892" borderopacity="1" borderlayer="false" bordercolor="#D3D3D3" inkscape:bbox-paths="true" inkscape:bbox-nodes="true">
    <inkscape:grid visible="true" type="xygrid" spacingy="0.25" spacingx="0.25" snapvisiblegridlinesonly="true" originy="-653" originx="-104.03145" opacity="0.16470588" id="grid4866" enabled="true" empspacing="4" empopacity="0.4627451" empcolor="#0800ff" dotted="false" color="#e1e1e1" />
  </sodipodi:namedview>
  <metadata id="metadata90">
    <rdf:RDF>
      <cc:Work rdf:about="">
        <dc:format>image/svg+xml</dc:format>
        <dc:type rdf:resource="http://purl.org/dc/dcmitype/StillImage" />
        <dc:title>Paper Symbolic Icon Theme</dc:title>
      </cc:Work>
    </rdf:RDF>
  </metadata>
  <title id="title8473">Paper Symbolic Icon Theme</title>
  <defs id="defs7386">
    <linearGradient osb:paint="solid" id="linearGradient5606">
      <stop style="stop-color:#e1e1e1" offset="0" id="stop5608" />
    </linearGradient>
    <filter style="color-interpolation-filters:sRGB" id="filter7554" inkscape:collect="always">
      <feBlend mode="darken" in2="BackgroundImage" id="feBlend7556" inkscape:collect="always" />
    </filter>
    <linearGradient id="linearGradient6139-0">
      <stop style="stop-color:#b2babc" offset="0" id="stop6141-2" />
      <stop id="stop6151-0" offset="0.25" style="stop-color:#ffffff" />
      <stop id="stop6147-1" offset="0.5" style="stop-color:#22a1a4" />
      <stop style="stop-color:#fbf9f9" offset="0.75" id="stop6149-4" />
      <stop style="stop-color:#b2b9bc" offset="1" id="stop6143-4" />
    </linearGradient>
    <linearGradient id="linearGradient3832-0-6-1-1">
      <stop id="stop3834-6-3-7-1" offset="0" style="stop-color:#e1e1e1" />
      <stop style="stop-color:#e1e1e1;stop-opacity:0.5882" offset="0.1" id="stop3872-2-4" />
      <stop id="stop3844-6-2-7-6" offset="0.89999998" style="stop-color:#e1e1e1;stop-opacity:0.5882" />
      <stop id="stop3836-5-0-2-9" offset="1" style="stop-color:#e1e1e1" />
    </linearGradient>
    <linearGradient id="linearGradient3737">
      <stop id="stop3739" style="stop-color:#ffffff" offset="0" />
      <stop id="stop3741" style="stop-color:#ffffff;stop-opacity:0" offset="1" />
    </linearGradient>
    <clipPath clipPathUnits="userSpaceOnUse" id="clipPath4156-4-1">
      <path style="opacity:0.6;fill:#ffffff" d="M 27.05,-55.7 12.83,-42.37 H 12.89 L 28.55,-20.6 38.78,-31.15 C 38.56,-32.3 27.47,-54.82 27.05,-55.7 Z M 9.647,-39.38 -5.241,-25.32 15.99,-7.806 26.37,-18.38 Z M 41.14,-26.43 31.4,-16.72 40.34,-4.26 48.12,-11.81 Z M -8.702,-22.05 -22.46,-9.07 3.827,4.775 3.888,4.714 3.765,4.652 13.6,-5.401 Z M 29.31,-14.65 19.51,-4.876 31.09,4.683 38.72,-2.718 30.05,-13.73 Z M 49.5,-8.978 42.12,-1.762 48.31,6.78 54.13,0.6433 Z M 17.31,-2.656 7.748,6.842 21.41,14.03 29.34,6.348 Z M 40.62,-0.2818 33.51,6.656 41.87,13.56 47.23,7.89 47.17,7.797 47.08,7.921 Z M 31.89,8.26 24.38,15.6 34.74,21.06 C 36.13,19.74 40.41,14.93 40.59,14.74 Z" id="path4158-0-8" inkscape:connector-curvature="0" />
    </clipPath>
    <linearGradient gradientUnits="userSpaceOnUse" y2="7.017" x2="45.45" y1="92.54" x1="45.45" gradientTransform="scale(1.006,0.9942)" id="ButtonShadow-16">
      <stop id="stop3750-6" offset="0" style="stop-color:#e1e1e1" />
      <stop id="stop3752-4" offset="1" style="stop-color:#e1e1e1;stop-opacity:0.5882" />
    </linearGradient>
    <clipPath id="clipPath4355-7" clipPathUnits="userSpaceOnUse">
      <rect ry="6" rx="6" y="6" x="6" height="80" width="84" id="rect4357-5" style="fill:#ffffff" />
    </clipPath>
    <clipPath id="clipPath4355-9" clipPathUnits="userSpaceOnUse">
      <rect ry="6" rx="6" y="6" x="6" height="80" width="84" id="rect4357-1" style="fill:#ffffff" />
    </clipPath>
    <clipPath id="clipPath4355-1" clipPathUnits="userSpaceOnUse">
      <rect ry="6" rx="6" y="6" x="6" height="80" width="84" id="rect4357-9" style="fill:#ffffff" />
    </clipPath>
    <clipPath id="clipPath3943-52-0" clipPathUnits="userSpaceOnUse">
      <path inkscape:connector-curvature="0" style="color:#e1e1e1;opacity:0.8;fill:#ff00ff" d="M 69.78,20.84 64.78,24.28 C 70.37,29.82 73.78,37.61 73.78,46.09 73.78,54.53 70.4,62.19 64.87,67.72 L 69.87,71.16 C 76.08,64.58 80,55.84 80,46.09 80,36.3 76.04,27.43 69.78,20.84 Z M 40,24.06 28.91,36.22 H 21.5 C 20.68,36.22 20,36.9 20,37.72 V 38.72 53.56 54.56 C 20,55.39 20.68,56.17 21.5,56.06 H 28.91 L 40,68 V 66 26.06 Z M 60.59,27.34 55.59,30.78 55.5,30.87 C 59.44,34.77 61.91,40.13 61.91,46.09 61.91,52.01 59.48,57.24 55.59,61.13 L 55.69,61.22 60.78,64.66 C 65.26,59.75 68.03,53.25 68.03,46.09 68.03,38.86 65.15,32.26 60.59,27.34 Z M 51.34,33.84 46.13,37.47 C 48.35,39.69 49.84,42.71 49.84,46.09 49.84,49.43 48.38,52.32 46.22,54.53 L 51.44,58.16 C 54.26,54.92 55.97,50.72 55.97,46.09 55.97,41.42 54.21,37.09 51.34,33.84 Z" id="path3945-4-1" />
    </clipPath>
  </defs>
  <g transform="translate(-345,516)" inkscape:label="status" id="layer9" inkscape:groupmode="layer">
    <g inkscape:label="Livello 1" id="layer1-7" transform="translate(345,-1543)">
      <g transform="translate(-0.149,1026)" id="g2574">
        <g id="g892" style="enable-background:new" transform="matrix(0.2624,0,0,0.2624,-91.88,135)">
          <path id="path3982-4" d="M 391.9,-497.4 C 378,-497.1 364.2,-491.3 353.7,-479.9 L 363,-470.3 C 378.9,-487.7 405.1,-488.1 421.6,-471.3 421.8,-471 422.1,-470.7 422.3,-470.5 L 431.6,-480.1 C 431.3,-480.4 430.9,-480.8 430.6,-481.1 419.8,-492.2 405.8,-497.6 391.9,-497.4 Z" style="fill:#d4dde4;stroke:#f8f8f8;stroke-width:0.6799" inkscape:connector-curvature="0" />
          <path sodipodi:nodetypes="cccsccsc" id="path3990-0" d="M 392.2,-475.9 C 383.5,-475.8 374.8,-472.1 368.3,-465 L 377.6,-455.4 C 385.7,-464.3 399.1,-464.5 407.5,-455.9 407.6,-455.8 407.7,-455.6 407.9,-455.5 L 417.1,-465.1 C 416.9,-465.3 416.7,-465.5 416.5,-465.8 409.7,-472.7 401,-476.1 392.2,-475.9 Z" style="fill:#d4dde4;stroke:#f8f8f8;stroke-width:0.6799" inkscape:connector-curvature="0" />
          <path sodipodi:arc-type="slice" sodipodi:end="5.508" sodipodi:start="3.911" d="M 383.3,-449.9 A 13.19,14.57 0 0 1 392.8,-454.4 13.19,14.57 0 0 1 402.2,-450 L 392.8,-439.8 Z" sodipodi:ry="14.57" sodipodi:rx="13.19" sodipodi:cy="-439.8" sodipodi:cx="392.8" id="path3993-4" style="fill:#d4dde4;stroke:#f8f8f8;stroke-width:0.6799" sodipodi:type="arc" />
        </g>
      </g>
    </g>
    <g id="g887" />
  </g>
  <g transform="translate(-345,516)" style="filter:url(#filter7554)" inkscape:label="devices" id="layer10" inkscape:groupmode="layer" />
  <g transform="translate(-104,-101)" inkscape:label="places" id="layer1" inkscape:groupmode="layer" />
  <g transform="translate(-345,516)" inkscape:label="mimetypes" id="layer14" inkscape:groupmode="layer" />
  <g transform="translate(-345,516)" inkscape:label="emblems" id="layer15" inkscape:groupmode="layer" />
  <g transform="translate(-345,516)" inkscape:label="emotes" id="g71291" inkscape:groupmode="layer" />
  <g transform="translate(-104,49)" inkscape:label="categories" id="layer2" inkscape:groupmode="layer" />
  <g transform="translate(-104,49)" inkscape:label="apps" id="g6058" inkscape:groupmode="layer" />
  <g transform="translate(-345,516)" inkscape:label="actions" id="layer12" inkscape:groupmode="layer" />
</svg>
