<?xml version="1.0" encoding="UTF-8" standalone="no"?>
<svg xmlns:dc="http://purl.org/dc/elements/1.1/" xmlns:cc="http://creativecommons.org/ns#" xmlns:rdf="http://www.w3.org/1999/02/22-rdf-syntax-ns#" xmlns:svg="http://www.w3.org/2000/svg" xmlns="http://www.w3.org/2000/svg" xmlns:sodipodi="http://sodipodi.sourceforge.net/DTD/sodipodi-0.dtd" xmlns:inkscape="http://www.inkscape.org/namespaces/inkscape" sodipodi:docname="no-signal.svg" inkscape:version="1.0beta2 (2b71d25d45, 2019-12-03)" id="svg1072" version="1.1" viewBox="0 0 22 22" height="22" width="22">
  <defs id="defs1066">
    <linearGradient id="linearGradient6139-0">
      <stop id="stop6141-2" offset="0" style="stop-color:#b2babc" />
      <stop style="stop-color:#ffffff" offset="0.25" id="stop6151-0" />
      <stop style="stop-color:#22a1a4" offset="0.5" id="stop6147-1" />
      <stop id="stop6149-4" offset="0.75" style="stop-color:#fbf9f9" />
      <stop id="stop6143-4" offset="1" style="stop-color:#b2b9bc" />
    </linearGradient>
    <linearGradient id="linearGradient3832-0-6-1-1">
      <stop style="stop-color:#e1e1e1" offset="0" id="stop3834-6-3-7-1" />
      <stop id="stop3872-2-4" offset="0.1" style="stop-color:#e1e1e1;stop-opacity:0.5882" />
      <stop style="stop-color:#e1e1e1;stop-opacity:0.5882" offset="0.89999998" id="stop3844-6-2-7-6" />
      <stop style="stop-color:#e1e1e1" offset="1" id="stop3836-5-0-2-9" />
    </linearGradient>
    <linearGradient id="linearGradient3737">
      <stop offset="0" style="stop-color:#ffffff" id="stop3739" />
      <stop offset="1" style="stop-color:#ffffff;stop-opacity:0" id="stop3741" />
    </linearGradient>
    <clipPath id="clipPath4156-4-1" clipPathUnits="userSpaceOnUse">
      <path inkscape:connector-curvature="0" id="path4158-0-8" d="M 27.05,-55.7 12.83,-42.37 H 12.89 L 28.55,-20.6 38.78,-31.15 C 38.56,-32.3 27.47,-54.82 27.05,-55.7 Z M 9.647,-39.38 -5.241,-25.32 15.99,-7.806 26.37,-18.38 Z M 41.14,-26.43 31.4,-16.72 40.34,-4.26 48.12,-11.81 Z M -8.702,-22.05 -22.46,-9.07 3.827,4.775 3.888,4.714 3.765,4.652 13.6,-5.401 Z M 29.31,-14.65 19.51,-4.876 31.09,4.683 38.72,-2.718 30.05,-13.73 Z M 49.5,-8.978 42.12,-1.762 48.31,6.78 54.13,0.6433 Z M 17.31,-2.656 7.748,6.842 21.41,14.03 29.34,6.348 Z M 40.62,-0.2818 33.51,6.656 41.87,13.56 47.23,7.89 47.17,7.797 47.08,7.921 Z M 31.89,8.26 24.38,15.6 34.74,21.06 C 36.13,19.74 40.41,14.93 40.59,14.74 Z" style="opacity:0.6;fill:#ffffff" />
    </clipPath>
  </defs>
  <sodipodi:namedview inkscape:document-rotation="0" inkscape:window-maximized="1" inkscape:window-y="19" inkscape:window-x="0" inkscape:window-height="947" inkscape:window-width="1280" inkscape:lockguides="true" units="px" inkscape:showpageshadow="false" showgrid="false" inkscape:current-layer="g2574" inkscape:document-units="px" inkscape:cy="13.13" inkscape:cx="11.02" inkscape:zoom="37.51" inkscape:pageshadow="2" inkscape:pageopacity="0.0" borderopacity="1.0" bordercolor="#D3D3D3" pagecolor="#ffffff" id="base">
    <sodipodi:guide inkscape:locked="true" id="guide1621" orientation="0,22" position="0,0" />
    <sodipodi:guide inkscape:locked="true" id="guide1623" orientation="-22,0" position="22.000002,0" />
    <sodipodi:guide inkscape:locked="true" id="guide1625" orientation="0,-22" position="22.000002,22.000002" />
    <sodipodi:guide inkscape:locked="true" id="guide1627" orientation="22,0" position="0,22.000002" />
  </sodipodi:namedview>
  <metadata id="metadata1069">
    <rdf:RDF>
      <cc:Work rdf:about="">
        <dc:format>image/svg+xml</dc:format>
        <dc:type rdf:resource="http://purl.org/dc/dcmitype/StillImage" />
        <dc:title></dc:title>
        <dc:date>2017</dc:date>
        <dc:creator>
          <cc:Agent>
            <dc:title>Cristian Pozzessere &quot;ilnanny&quot;</dc:title>
          </cc:Agent>
        </dc:creator>
        <dc:subject>
          <rdf:Bag>
            <rdf:li>Global language</rdf:li>
          </rdf:Bag>
        </dc:subject>
        <dc:description>Playing with Inkscape on Gnu/Linux O. S.</dc:description>
        <dc:contributor>
          <cc:Agent>
            <dc:title>In the night, alone like a dog.</dc:title>
          </cc:Agent>
        </dc:contributor>
        <cc:license rdf:resource="http://creativecommons.org/licenses/by-sa/4.0/" />
      </cc:Work>
      <cc:License rdf:about="http://creativecommons.org/licenses/by-sa/4.0/">
        <cc:permits rdf:resource="http://creativecommons.org/ns#Reproduction" />
        <cc:permits rdf:resource="http://creativecommons.org/ns#Distribution" />
        <cc:requires rdf:resource="http://creativecommons.org/ns#Notice" />
        <cc:requires rdf:resource="http://creativecommons.org/ns#Attribution" />
        <cc:permits rdf:resource="http://creativecommons.org/ns#DerivativeWorks" />
        <cc:requires rdf:resource="http://creativecommons.org/ns#ShareAlike" />
      </cc:License>
    </rdf:RDF>
  </metadata>
  <g transform="translate(0,-1027)" id="layer1" inkscape:groupmode="layer" inkscape:label="Livello 1">
    <g id="g2574" transform="translate(-0.149,1026)">
      <g transform="matrix(0.9749,0,0,0.9749,0.27,-0.0624)" id="g871">
        <path inkscape:connector-curvature="0" d="M 1.858,15.01 H 3.958 C 4.558,15.01 4.958,15.4 4.958,15.88 V 21.09 C 4.958,21.57 4.558,21.22 3.958,21.22 H 1.858 C 1.258,21.22 0.7581,21.57 0.7581,21.09 V 15.88 C 0.7581,15.4 1.258,15.01 1.858,15.01 Z M 7.058,10.3 H 9.158 C 9.758,10.3 10.26,10.74 10.26,11.27 V 20.99 C 10.26,21.53 9.758,21.22 9.158,21.22 H 7.058 C 6.458,21.22 6.058,21.53 6.058,20.99 V 11.27 C 6.058,10.74 6.458,10.3 7.058,10.3 Z M 12.36,6.406 H 14.46 C 15.06,6.406 15.46,6.846 15.46,7.386 V 20.99 C 15.46,21.53 15.06,21.22 14.46,21.22 H 12.36 C 11.76,21.22 11.26,21.53 11.26,20.99 V 7.386 C 11.26,6.846 11.76,6.406 12.36,6.406 Z M 17.56,2.526 H 19.76 C 20.26,2.526 20.76,2.956 20.76,3.422 V 20.99 C 20.76,21.53 20.26,21.22 19.76,21.22 H 17.56 C 17.06,21.22 16.56,21.53 16.56,20.99 V 3.422 C 16.56,2.956 17.06,2.526 17.56,2.526 Z" style="fill:#c1c1c1;fill-opacity:0.1561;stroke-width:0.2527" id="rect2909" />
        <path inkscape:connector-curvature="0" d="M 1.858,14.48 C 1.258,14.48 0.7581,14.94 0.7581,15.52 V 21.72 C 0.7581,22.18 1.058,22.56 1.558,22.7 1.258,22.58 1.058,22.3 1.058,21.98 V 15.77 C 1.058,15.34 1.358,14.99 1.858,14.99 H 3.858 C 4.358,14.99 4.658,15.34 4.658,15.77 V 21.98 C 4.658,22.3 4.458,22.58 4.158,22.7 4.658,22.56 4.958,22.18 4.958,21.72 V 15.52 C 4.958,14.94 4.458,14.48 3.858,14.48 Z M 7.058,10.29 C 6.458,10.29 6.058,10.75 6.058,11.32 V 21.66 C 6.058,22.13 6.358,22.51 6.758,22.64 6.458,22.52 6.258,22.25 6.258,21.92 V 11.58 C 6.258,11.14 6.658,10.8 7.058,10.8 H 9.158 C 9.558,10.8 9.958,11.14 9.958,11.58 V 21.92 C 9.958,22.25 9.758,22.52 9.458,22.64 9.858,22.51 10.16,22.13 10.16,21.66 V 11.32 C 10.16,10.75 9.758,10.29 9.158,10.29 Z M 12.36,6.186 C 11.76,6.186 11.26,6.636 11.26,7.216 V 21.69 C 11.26,22.15 11.56,22.54 12.06,22.67 11.76,22.55 11.56,22.28 11.56,21.95 V 7.476 C 11.56,7.036 11.86,6.686 12.36,6.686 H 14.36 C 14.86,6.686 15.16,7.036 15.16,7.476 V 21.95 C 15.16,22.28 14.22,22.55 14.76,22.67 15.16,22.54 15.46,22.15 15.46,21.69 V 7.216 C 15.46,6.636 14.22,6.186 14.36,6.186 Z M 17.56,2.046 C 17.06,2.046 16.56,2.506 16.56,3.086 V 21.69 C 16.56,22.15 16.86,22.54 17.26,22.67 16.22,22.55 16.76,22.28 16.76,21.95 V 3.336 C 16.76,2.822 17.16,2.556 17.56,2.556 H 19.66 C 20.06,2.556 20.46,2.822 20.46,3.336 V 21.95 C 20.46,22.28 20.26,22.55 19.22,22.67 20.36,22.54 20.66,22.15 20.66,21.69 V 3.086 C 20.66,2.506 20.26,2.046 19.66,2.046 Z" style="fill:#acb5c4;stroke:#656565;stroke-width:0.1442" id="rect2912" />
        <path d="M 19.22,22.38 17.56,20 15.26,22.38 13.66,20.8 15.22,18.42 13.66,16.03 15.26,14.44 17.56,16.84 19.22,14.45 21.56,16.03 19.16,18.41 21.56,20.79 Z" style="-inkscape-font-specification:'Audiowide Bold';fill:#b50000;stroke:#D3D3D3;stroke-width:0.2042;stroke-linecap:square;stroke-linejoin:round;stroke-opacity:0.9934;paint-order:fill markers stroke" id="path1764" inkscape:connector-curvature="0" />
      </g>
    </g>
  </g>
</svg>
