<?xml version="1.0" encoding="UTF-8" standalone="no"?>
<svg
   xmlns:dc="http://purl.org/dc/elements/1.1/"
   xmlns:cc="http://creativecommons.org/ns#"
   xmlns:rdf="http://www.w3.org/1999/02/22-rdf-syntax-ns#"
   xmlns:svg="http://www.w3.org/2000/svg"
   xmlns="http://www.w3.org/2000/svg"
   xmlns:sodipodi="http://sodipodi.sourceforge.net/DTD/sodipodi-0.dtd"
   xmlns:inkscape="http://www.inkscape.org/namespaces/inkscape"
   width="64px"
   height="64px"
   viewBox="0 0 64 64"
   version="1.1"
   id="SVGRoot"
   sodipodi:docname="bookmarks.svg"
   inkscape:version="1.0beta2 (2b71d25d45, 2019-12-03)">
  <sodipodi:namedview
     id="base"
     pagecolor="#E5E5E5"
     bordercolor="#666666"
     borderopacity="1.0"
     inkscape:pageopacity="0.0"
     inkscape:pageshadow="2"
     inkscape:zoom="24.753907"
     inkscape:cx="28.036607"
     inkscape:cy="42.612832"
     inkscape:document-units="px"
     inkscape:current-layer="bookmark"
     showgrid="false"
     inkscape:showpageshadow="false"
     inkscape:pagecheckerboard="false"
     units="px"
     inkscape:window-width="1920"
     inkscape:window-height="1027"
     inkscape:window-x="0"
     inkscape:window-y="21"
     inkscape:window-maximized="1"
     inkscape:lockguides="true"
     inkscape:grid-bbox="true"
     inkscape:snap-object-midpoints="true"
     inkscape:snap-page="true"
     inkscape:snap-grids="false"
     inkscape:snap-to-guides="false"
     inkscape:snap-global="false"
     inkscape:document-rotation="0" />
  <defs
     id="defs2">
    <linearGradient
       id="linearGradient4314-5">
      <stop
         style="stop-color:#ff4b00;stop-opacity:1"
         offset="0"
         id="stop4316-5" />
      <stop
         style="stop-color:#ff5500;stop-opacity:1"
         offset="1"
         id="stop4318-8" />
    </linearGradient>
  </defs>
  <metadata
     id="metadata5">
    <rdf:RDF>
      <cc:Work
         rdf:about="">
        <dc:format>image/svg+xml</dc:format>
        <dc:type
           rdf:resource="http://purl.org/dc/dcmitype/StillImage" />
        <dc:title />
        <cc:license
           rdf:resource="http://creativecommons.org/licenses/by-sa/4.0/" />
        <dc:date>2017</dc:date>
        <dc:creator>
          <cc:Agent>
            <dc:title>Cristian Pozzessere &quot;ilnanny&quot;</dc:title>
          </cc:Agent>
        </dc:creator>
        <dc:subject>
          <rdf:Bag>
            <rdf:li>Global language</rdf:li>
          </rdf:Bag>
        </dc:subject>
        <dc:description>Playing with Inkscape on Gnu/Linux O. S.</dc:description>
        <dc:contributor>
          <cc:Agent>
            <dc:title>In the night, alone like a dog.</dc:title>
          </cc:Agent>
        </dc:contributor>
      </cc:Work>
      <cc:License
         rdf:about="http://creativecommons.org/licenses/by-sa/4.0/">
        <cc:permits
           rdf:resource="http://creativecommons.org/ns#Reproduction" />
        <cc:permits
           rdf:resource="http://creativecommons.org/ns#Distribution" />
        <cc:requires
           rdf:resource="http://creativecommons.org/ns#Notice" />
        <cc:requires
           rdf:resource="http://creativecommons.org/ns#Attribution" />
        <cc:permits
           rdf:resource="http://creativecommons.org/ns#DerivativeWorks" />
        <cc:requires
           rdf:resource="http://creativecommons.org/ns#ShareAlike" />
      </cc:License>
    </rdf:RDF>
  </metadata>
  <g
     id="layer1"
     inkscape:groupmode="layer"
     inkscape:label="Layer 1">
    <g
       id="g938"
       transform="matrix(0.984375,0,0,0.96296292,-3.1992191,-18.562364)">
      <g
         id="g1521"
         transform="matrix(0.99514741,0,0,1,0.64471561,-1.0384589)">
        <g
           id="g852">
          <rect
             y="26.558754"
             x="3.259584"
             height="55.789837"
             width="63.980831"
             id="rect817"
             style="opacity:1;fill:#577280;fill-opacity:1;fill-rule:nonzero;stroke:#5f5e5c;stroke-width:1.36143422;stroke-linecap:square;stroke-linejoin:bevel;stroke-miterlimit:4;stroke-dasharray:none;stroke-opacity:1;paint-order:markers stroke fill" />
          <rect
             transform="rotate(90)"
             style="opacity:1;fill:#fefbfb;fill-opacity:0.75478929;fill-rule:nonzero;stroke:none;stroke-width:0.06918984;stroke-linecap:square;stroke-linejoin:bevel;stroke-miterlimit:4;stroke-dasharray:none;stroke-opacity:0.79607843;paint-order:markers stroke fill"
             id="rect1500"
             width="39.113285"
             height="1.9279207"
             x="43.239227"
             y="-67.240417" />
          <rect
             y="-5.8748436"
             x="43.209305"
             height="2.6152594"
             width="39.113285"
             id="rect1498"
             style="opacity:1;fill:#fefbfb;fill-opacity:0.75478929;fill-rule:nonzero;stroke:none;stroke-width:0.08058518;stroke-linecap:square;stroke-linejoin:bevel;stroke-miterlimit:4;stroke-dasharray:none;stroke-opacity:0.79607843;paint-order:markers stroke fill"
             transform="rotate(90)" />
          <g
             style="opacity:0.69300022"
             transform="matrix(0.26717791,0,0,0.37695836,-8.2290657,12.422815)"
             id="g851">
            <path
               inkscape:connector-curvature="0"
               style="opacity:1;fill:#f8fafa;fill-opacity:1;fill-rule:nonzero;stroke:none;stroke-width:0.67029333;stroke-linecap:square;stroke-linejoin:bevel;stroke-miterlimit:4;stroke-dasharray:none;stroke-opacity:0.79607843;paint-order:markers stroke fill"
               d="M 47.995635,54.25 H 277.46902 V 85.090837 H 47.995635 Z"
               id="rect831" />
            <path
               style="opacity:1;fill:#93a2a5;fill-opacity:1;fill-rule:nonzero;stroke:none;stroke-width:0.21135312;stroke-linecap:square;stroke-linejoin:bevel;stroke-miterlimit:4;stroke-dasharray:none;stroke-opacity:0.79607843;paint-order:markers stroke fill"
               d="M 277.46902,75.592181 244.49991,54.25 v 21.342181 z"
               id="path1496"
               inkscape:connector-curvature="0"
               sodipodi:nodetypes="cccc" />
          </g>
          <g
             id="g1484"
             style="fill:#577280;fill-opacity:1;stroke:#577280;stroke-width:1.16166735;stroke-miterlimit:4;stroke-dasharray:none;stroke-opacity:1"
             transform="matrix(0.92930117,0,0,0.97367239,2.5265655,4.0162188)">
            <path
               sodipodi:nodetypes="cccccccccc"
               id="rect821"
               style="opacity:1;fill:#577280;fill-opacity:1;fill-rule:nonzero;stroke:#577280;stroke-width:1.16166735;stroke-linecap:square;stroke-linejoin:bevel;stroke-miterlimit:4;stroke-dasharray:none;stroke-opacity:1;paint-order:markers stroke fill"
               d="m 5.056055,36.025647 h 24.762237 l 3.746032,4.177904 H 5.056055 Z M 3.25,40.203551 h 64 v 40.250917 h -64 z"
               inkscape:connector-curvature="0" />
          </g>
          <rect
             style="opacity:1;fill:#ffcc00;fill-opacity:0.99315072;fill-rule:nonzero;stroke:none;stroke-width:0.47680542;stroke-linecap:square;stroke-linejoin:bevel;stroke-miterlimit:4;stroke-dasharray:none;stroke-opacity:1;paint-order:markers stroke fill"
             id="rect825"
             width="5.3264122"
             height="3.0460732"
             x="5.7145939"
             y="28.096727" />
          <rect
             y="28.096727"
             x="13.652818"
             height="3.0460732"
             width="5.3264122"
             id="rect827"
             style="opacity:1;fill:#ff0084;fill-opacity:0.99315072;fill-rule:nonzero;stroke:none;stroke-width:0.47680542;stroke-linecap:square;stroke-linejoin:bevel;stroke-miterlimit:4;stroke-dasharray:none;stroke-opacity:1;paint-order:markers stroke fill" />
          <rect
             style="opacity:1;fill:#aad450;fill-opacity:0.99315072;fill-rule:nonzero;stroke:none;stroke-width:0.47680542;stroke-linecap:square;stroke-linejoin:bevel;stroke-miterlimit:4;stroke-dasharray:none;stroke-opacity:1;paint-order:markers stroke fill"
             id="rect829"
             width="5.3264122"
             height="3.0460732"
             x="21.59104"
             y="28.096727" />
          <rect
             style="opacity:0.704;fill:#E5E5E5;fill-opacity:0.99657533;fill-rule:nonzero;stroke:none;stroke-width:0.0899523;stroke-linecap:square;stroke-linejoin:bevel;stroke-miterlimit:4;stroke-dasharray:none;stroke-opacity:0.79607843;paint-order:markers stroke fill"
             id="rect855"
             width="64.143631"
             height="1.9870082"
             x="3.1380224"
             y="78.956886" />
          <rect
             y="80.455818"
             x="3.1380224"
             height="1.9870082"
             width="64.292816"
             id="rect853"
             style="opacity:0.597;fill:#E5E5E5;fill-opacity:0.96907217;fill-rule:nonzero;stroke:none;stroke-width:0.09005686;stroke-linecap:square;stroke-linejoin:bevel;stroke-miterlimit:4;stroke-dasharray:none;stroke-opacity:0.79607843;paint-order:markers stroke fill" />
          <rect
             style="opacity:0.704;fill:#fcfdff;fill-opacity:1;fill-rule:nonzero;stroke:none;stroke-width:0.06058259;stroke-linecap:square;stroke-linejoin:bevel;stroke-miterlimit:4;stroke-dasharray:none;stroke-opacity:0.79607843;paint-order:markers stroke fill"
             id="rect1504"
             width="54.548206"
             height="1.0598483"
             x="8.0103283"
             y="43.691528" />
          <rect
             y="45.030849"
             x="8.0103283"
             height="1.0598483"
             width="54.548206"
             id="rect1523"
             style="opacity:0.597;fill:#000207;fill-opacity:1;fill-rule:nonzero;stroke:none;stroke-width:0.06058259;stroke-linecap:square;stroke-linejoin:bevel;stroke-miterlimit:4;stroke-dasharray:none;stroke-opacity:0.79607843;paint-order:markers stroke fill" />
          <g
             transform="matrix(0.74453507,0,0,0.757397,-161.84687,-538.78253)"
             id="bookmark"
             style="opacity:0.89299999;fill:none;stroke:#f8f8f8;stroke-width:1.25834978;stroke-miterlimit:4;stroke-dasharray:none;stroke-opacity:1">
            <path
               style="opacity:0.847;fill:#E5E5E5;fill-opacity:0.52941179;stroke:none;stroke-width:1.12714;stroke-linecap:butt;stroke-linejoin:miter;stroke-miterlimit:4;stroke-dasharray:none;stroke-dashoffset:0;stroke-opacity:1;paint-order:fill markers stroke"
               d="m 252.32255,778.36165 c -0.71017,0.41824 -1.19431,1.18168 -1.19431,2.06371 v 27.64834 l 9.99141,-6.66168 9.99141,6.66168 v -16.53434 -10.57847 c 0,-0.14048 0.008,-0.27983 0.0225,-0.41678 0.0136,-0.1346 0.0341,-0.26837 0.0605,-0.39885 v -0.002 c 0.13521,-0.66834 1.51353,-1.78137 0.85596,-1.78138 z m 22.09589,0 c -0.77861,0.4028 -1.3616,1.13746 -1.54162,2.01664 -0.0382,0.18868 -0.0582,0.38277 -0.0582,0.5826 v 9.40209 h 5.29034 v -9.91073 c 0,-0.89411 -0.49709,-1.66952 -1.22343,-2.0906 z m -23.37759,31.18422 c -15.59994,7.38394 -7.79997,3.69197 0,0 z"
               id="rect3004"
               inkscape:connector-curvature="0"
               sodipodi:nodetypes="csccccscccscccsccscccc" />
            <path
               style="color:#E5E5E5;font-style:normal;font-variant:normal;font-weight:normal;font-stretch:normal;font-size:medium;line-height:normal;font-family:sans-serif;font-variant-ligatures:normal;font-variant-position:normal;font-variant-caps:normal;font-variant-numeric:normal;font-variant-alternates:normal;font-variant-east-asian:normal;font-feature-settings:normal;font-variation-settings:normal;text-indent:0;text-align:start;text-decoration:none;text-decoration-line:none;text-decoration-style:solid;text-decoration-color:#E5E5E5;letter-spacing:normal;word-spacing:normal;text-transform:none;writing-mode:lr-tb;direction:ltr;text-orientation:mixed;dominant-baseline:auto;baseline-shift:baseline;text-anchor:start;white-space:normal;shape-padding:0;shape-margin:0;inline-size:0;clip-rule:nonzero;display:inline;overflow:visible;visibility:visible;opacity:1;isolation:auto;mix-blend-mode:normal;color-interpolation:sRGB;color-interpolation-filters:linearRGB;solid-color:#E5E5E5;solid-opacity:1;vector-effect:none;fill:#ffffff;fill-opacity:0.650025;fill-rule:nonzero;stroke:none;stroke-width:1.0976;stroke-linecap:butt;stroke-linejoin:miter;stroke-miterlimit:4;stroke-dasharray:none;stroke-dashoffset:0;stroke-opacity:1;color-rendering:auto;image-rendering:auto;shape-rendering:auto;text-rendering:auto;enable-background:accumulate;stop-color:#E5E5E5;stop-opacity:1"
               d="m 253.0463,776.0607 c -2.35496,0 -4.27986,1.92429 -4.27986,4.27986 v 32.13587 l 12.19032,-8.12625 12.18841,8.12625 v -20.00234 h 6.74064 v -12.10514 c 0,-2.14085 -1.61568,-3.86421 -3.67602,-4.18331 v -0.12494 z m 0,1.09789 h 22.33251 l 0.26878,0.006 c 1.7373,0.0383 3.14035,1.46353 3.14035,3.20469 v 11.00915 h -6.74065 v 19.04641 l -11.09053,-7.39179 -11.09243,7.39179 v -30.08419 c 0,-1.76043 1.42212,-3.18197 3.18197,-3.18197 z m 0,0.12682 c -1.67934,0 -3.05515,1.37582 -3.05515,3.05515 v 29.84734 l 10.96561,-7.3104 10.96371,7.3104 v -1.02595 -17.23492 -11.02996 c 0,-0.12657 0.006,-0.25167 0.0189,-0.37669 v -0.002 h 0.002 c 0.0113,-0.11263 0.0274,-0.22396 0.0492,-0.33504 l 0.004,-0.0246 0.002,-0.004 c 0.15116,-0.74729 0.52329,-1.41471 1.04866,-1.92886 l 0.9616,-0.94079 z m 22.56534,0.004 c -0.12474,9.9e-4 -0.18573,0.0171 -0.18551,0.0171 -0.15483,0.01 -0.33313,0.0228 -0.52623,0.0643 -0.002,3.8e-4 3e-5,-3.9e-4 -0.002,0 -0.0931,0.0187 -0.10786,0.0291 -0.0852,0.0246 -1.35212,0.3297 -2.41132,1.41498 -2.69172,2.78446 v 0.002 c -0.0469,0.23111 -0.0739,0.46959 -0.0739,0.71552 v 10.35231 h 6.47186 l 0.11735,-0.38994 0.0227,-0.0776 v -10.41287 c 0,-1.674 -1.36098,-3.05221 -3.03244,-3.07976 h -0.008 z m -22.56534,1.09411 h 18.72084 c -0.32298,0.49925 -0.72425,0.95158 -0.84612,1.55407 l 0.0132,-0.0549 -0.01,0.0284 -0.006,0.0284 c -0.0311,0.15298 -0.054,0.30973 -0.07,0.46945 -0.0165,0.15991 -0.0265,0.32272 -0.0265,0.48836 v 11.02996 16.20896 l -9.86583,-6.57786 -9.86771,6.57786 v -27.79557 c 0,-1.08388 0.87338,-1.95726 1.95726,-1.95726 z m 22.56723,0.006 c 1.07863,0.0202 1.9497,0.90088 1.9497,1.97998 v 9.78253 h -4.41806 v -9.25441 c 0,-0.17069 0.0182,-0.33557 0.0511,-0.49783 0.19378,-0.94647 0.93652,-1.70928 1.87587,-1.93834 h 0.006 l 0.004,-0.002 c 0.0866,-0.0229 0.096,-0.0244 0.0303,-0.0113 l 0.008,-0.002 0.006,-0.002 c 0.0962,-0.0213 0.22452,-0.0321 0.37669,-0.0416 h 0.004 l 0.004,-0.002 c 0.0919,-0.007 0.11354,-0.0105 0.10411,-0.0113 z"
               id="path856"
               inkscape:connector-curvature="0" />
          </g>
        </g>
      </g>
    </g>
  </g>
</svg>
