<?xml version="1.0" encoding="UTF-8" standalone="no"?>
<svg
   xmlns:dc="http://purl.org/dc/elements/1.1/"
   xmlns:cc="http://creativecommons.org/ns#"
   xmlns:rdf="http://www.w3.org/1999/02/22-rdf-syntax-ns#"
   xmlns:svg="http://www.w3.org/2000/svg"
   xmlns="http://www.w3.org/2000/svg"
   xmlns:sodipodi="http://sodipodi.sourceforge.net/DTD/sodipodi-0.dtd"
   xmlns:inkscape="http://www.inkscape.org/namespaces/inkscape"
   width="64px"
   height="64px"
   viewBox="0 0 64 64"
   version="1.1"
   id="SVGRoot"
   sodipodi:docname="favorites.svg"
   inkscape:version="1.0beta2 (2b71d25d45, 2019-12-03)">
  <sodipodi:namedview
     id="base"
     pagecolor="#E5E5E5"
     bordercolor="#666666"
     borderopacity="1.0"
     inkscape:pageopacity="0.0"
     inkscape:pageshadow="2"
     inkscape:zoom="20.055902"
     inkscape:cx="17.36622"
     inkscape:cy="32.603412"
     inkscape:document-units="px"
     inkscape:current-layer="heart"
     showgrid="false"
     inkscape:showpageshadow="false"
     inkscape:pagecheckerboard="false"
     units="px"
     inkscape:window-width="1920"
     inkscape:window-height="1027"
     inkscape:window-x="0"
     inkscape:window-y="21"
     inkscape:window-maximized="1"
     inkscape:lockguides="true"
     inkscape:grid-bbox="true"
     inkscape:snap-object-midpoints="true"
     inkscape:snap-page="true"
     inkscape:snap-grids="false"
     inkscape:snap-to-guides="false"
     inkscape:snap-global="false"
     inkscape:document-rotation="0" />
  <defs
     id="defs2" />
  <metadata
     id="metadata5">
    <rdf:RDF>
      <cc:Work
         rdf:about="">
        <dc:format>image/svg+xml</dc:format>
        <dc:type
           rdf:resource="http://purl.org/dc/dcmitype/StillImage" />
        <dc:title />
        <cc:license
           rdf:resource="http://creativecommons.org/licenses/by-sa/4.0/" />
        <dc:date>2017</dc:date>
        <dc:creator>
          <cc:Agent>
            <dc:title>Cristian Pozzessere &quot;ilnanny&quot;</dc:title>
          </cc:Agent>
        </dc:creator>
        <dc:subject>
          <rdf:Bag>
            <rdf:li>Global language</rdf:li>
          </rdf:Bag>
        </dc:subject>
        <dc:description>Playing with Inkscape on Gnu/Linux O. S.</dc:description>
        <dc:contributor>
          <cc:Agent>
            <dc:title>In the night, alone like a dog.</dc:title>
          </cc:Agent>
        </dc:contributor>
      </cc:Work>
      <cc:License
         rdf:about="http://creativecommons.org/licenses/by-sa/4.0/">
        <cc:permits
           rdf:resource="http://creativecommons.org/ns#Reproduction" />
        <cc:permits
           rdf:resource="http://creativecommons.org/ns#Distribution" />
        <cc:requires
           rdf:resource="http://creativecommons.org/ns#Notice" />
        <cc:requires
           rdf:resource="http://creativecommons.org/ns#Attribution" />
        <cc:permits
           rdf:resource="http://creativecommons.org/ns#DerivativeWorks" />
        <cc:requires
           rdf:resource="http://creativecommons.org/ns#ShareAlike" />
      </cc:License>
    </rdf:RDF>
  </metadata>
  <g
     id="layer1"
     inkscape:groupmode="layer"
     inkscape:label="Layer 1">
    <g
       id="g938"
       transform="matrix(0.984375,0,0,0.96296292,-3.1992191,-18.562364)">
      <g
         id="g1521"
         transform="matrix(0.99514741,0,0,1,0.64471561,-1.0384589)">
        <g
           id="g852">
          <rect
             y="26.558754"
             x="3.259584"
             height="55.789837"
             width="63.980831"
             id="rect817"
             style="opacity:1;fill:#577280;fill-opacity:1;fill-rule:nonzero;stroke:#5f5e5c;stroke-width:1.36143422;stroke-linecap:square;stroke-linejoin:bevel;stroke-miterlimit:4;stroke-dasharray:none;stroke-opacity:1;paint-order:markers stroke fill" />
          <rect
             transform="rotate(90)"
             style="opacity:1;fill:#fefbfb;fill-opacity:0.75478929;fill-rule:nonzero;stroke:none;stroke-width:0.06918984;stroke-linecap:square;stroke-linejoin:bevel;stroke-miterlimit:4;stroke-dasharray:none;stroke-opacity:0.79607843;paint-order:markers stroke fill"
             id="rect1500"
             width="39.113285"
             height="1.9279207"
             x="43.239227"
             y="-67.240417" />
          <rect
             y="-5.8748436"
             x="43.209305"
             height="2.6152594"
             width="39.113285"
             id="rect1498"
             style="opacity:1;fill:#fefbfb;fill-opacity:0.75478929;fill-rule:nonzero;stroke:none;stroke-width:0.08058518;stroke-linecap:square;stroke-linejoin:bevel;stroke-miterlimit:4;stroke-dasharray:none;stroke-opacity:0.79607843;paint-order:markers stroke fill"
             transform="rotate(90)" />
          <g
             style="opacity:0.69300022"
             transform="matrix(0.26717791,0,0,0.37695836,-8.2290657,12.422815)"
             id="g851">
            <path
               inkscape:connector-curvature="0"
               style="opacity:1;fill:#f8fafa;fill-opacity:1;fill-rule:nonzero;stroke:none;stroke-width:0.67029333;stroke-linecap:square;stroke-linejoin:bevel;stroke-miterlimit:4;stroke-dasharray:none;stroke-opacity:0.79607843;paint-order:markers stroke fill"
               d="M 47.995635,54.25 H 277.46902 V 85.090837 H 47.995635 Z"
               id="rect831" />
            <path
               style="opacity:1;fill:#93a2a5;fill-opacity:1;fill-rule:nonzero;stroke:none;stroke-width:0.21135312;stroke-linecap:square;stroke-linejoin:bevel;stroke-miterlimit:4;stroke-dasharray:none;stroke-opacity:0.79607843;paint-order:markers stroke fill"
               d="M 277.46902,75.592181 244.49991,54.25 v 21.342181 z"
               id="path1496"
               inkscape:connector-curvature="0"
               sodipodi:nodetypes="cccc" />
          </g>
          <g
             id="g1484"
             style="fill:#577280;fill-opacity:1;stroke:#577280;stroke-width:1.16166735;stroke-miterlimit:4;stroke-dasharray:none;stroke-opacity:1"
             transform="matrix(0.92930117,0,0,0.97367239,2.5265655,4.0162188)">
            <path
               sodipodi:nodetypes="cccccccccc"
               id="rect821"
               style="opacity:1;fill:#577280;fill-opacity:1;fill-rule:nonzero;stroke:#577280;stroke-width:1.16166735;stroke-linecap:square;stroke-linejoin:bevel;stroke-miterlimit:4;stroke-dasharray:none;stroke-opacity:1;paint-order:markers stroke fill"
               d="m 5.056055,36.025647 h 24.762237 l 3.746032,4.177904 H 5.056055 Z M 3.25,40.203551 h 64 v 40.250917 h -64 z"
               inkscape:connector-curvature="0" />
          </g>
          <rect
             style="opacity:1;fill:#ffcc00;fill-opacity:0.99315072;fill-rule:nonzero;stroke:none;stroke-width:0.47680542;stroke-linecap:square;stroke-linejoin:bevel;stroke-miterlimit:4;stroke-dasharray:none;stroke-opacity:1;paint-order:markers stroke fill"
             id="rect825"
             width="5.3264122"
             height="3.0460732"
             x="5.7145939"
             y="28.096727" />
          <rect
             y="28.096727"
             x="13.652818"
             height="3.0460732"
             width="5.3264122"
             id="rect827"
             style="opacity:1;fill:#ff0084;fill-opacity:0.99315072;fill-rule:nonzero;stroke:none;stroke-width:0.47680542;stroke-linecap:square;stroke-linejoin:bevel;stroke-miterlimit:4;stroke-dasharray:none;stroke-opacity:1;paint-order:markers stroke fill" />
          <rect
             style="opacity:1;fill:#aad450;fill-opacity:0.99315072;fill-rule:nonzero;stroke:none;stroke-width:0.47680542;stroke-linecap:square;stroke-linejoin:bevel;stroke-miterlimit:4;stroke-dasharray:none;stroke-opacity:1;paint-order:markers stroke fill"
             id="rect829"
             width="5.3264122"
             height="3.0460732"
             x="21.59104"
             y="28.096727" />
          <rect
             style="opacity:0.704;fill:#E5E5E5;fill-opacity:0.99657533;fill-rule:nonzero;stroke:none;stroke-width:0.0899523;stroke-linecap:square;stroke-linejoin:bevel;stroke-miterlimit:4;stroke-dasharray:none;stroke-opacity:0.79607843;paint-order:markers stroke fill"
             id="rect855"
             width="64.143631"
             height="1.9870082"
             x="3.1380224"
             y="78.956886" />
          <rect
             y="80.455818"
             x="3.1380224"
             height="1.9870082"
             width="64.292816"
             id="rect853"
             style="opacity:0.597;fill:#E5E5E5;fill-opacity:0.96907217;fill-rule:nonzero;stroke:none;stroke-width:0.09005686;stroke-linecap:square;stroke-linejoin:bevel;stroke-miterlimit:4;stroke-dasharray:none;stroke-opacity:0.79607843;paint-order:markers stroke fill" />
          <rect
             style="opacity:0.704;fill:#fcfdff;fill-opacity:1;fill-rule:nonzero;stroke:none;stroke-width:0.06058259;stroke-linecap:square;stroke-linejoin:bevel;stroke-miterlimit:4;stroke-dasharray:none;stroke-opacity:0.79607843;paint-order:markers stroke fill"
             id="rect1504"
             width="54.548206"
             height="1.0598483"
             x="8.0103283"
             y="43.691528" />
          <rect
             y="45.030849"
             x="8.0103283"
             height="1.0598483"
             width="54.548206"
             id="rect1523"
             style="opacity:0.597;fill:#000207;fill-opacity:1;fill-rule:nonzero;stroke:none;stroke-width:0.06058259;stroke-linecap:square;stroke-linejoin:bevel;stroke-miterlimit:4;stroke-dasharray:none;stroke-opacity:0.79607843;paint-order:markers stroke fill" />
          <g
             transform="matrix(0.79254996,0,0,0.80624135,-241.42621,-437.50526)"
             id="heart"
             style="fill:none;stroke:#E5E5E5;stroke-width:1.22646;stroke-miterlimit:4;stroke-dasharray:none;stroke-opacity:0.839216">
            <path
               id="path852"
               d="M 340.82227 602.91016 C 335.29589 602.91016 330.8953 607.45842 330.33203 613.57617 C 330.27625 613.9275 330.11245 615.35085 330.65234 617.63672 C 331.43893 620.96988 333.25707 623.9989 335.89453 626.38867 L 349.02734 638.30664 L 362.38281 626.39062 L 362.38477 626.38867 C 365.02212 623.99828 366.84037 620.9706 367.62695 617.63672 C 368.16563 615.35673 368.00379 613.9347 367.94922 613.58398 C 367.3885 607.46208 362.9866 602.91016 357.45703 602.91016 C 354.06711 602.91016 350.99505 604.64342 349.04492 607.37891 C 347.12865 604.62199 344.16017 602.91016 340.82227 602.91016 z M 340.82227 604.13672 C 344.01063 604.13672 346.84212 605.82997 348.50977 608.68359 L 349.0332 609.58008 L 349.56445 608.68945 C 351.24214 605.881 354.21414 604.13672 357.45703 604.13672 C 362.32004 604.13672 366.22089 608.09633 366.73047 613.70508 L 366.73242 613.72461 L 366.73633 613.74609 C 366.75001 613.83167 366.603 614.86396 366.59961 615.36914 L 366.41211 615.55664 C 366.42318 614.9623 366.56495 613.82003 366.56445 613.81445 C 366.07631 608.35576 362.26005 604.31641 357.45703 604.31641 C 353.8355 604.31641 350.56236 606.54594 349.11719 609.96875 L 349.03516 610.16406 L 348.95312 609.96875 C 347.49306 606.51248 344.36568 604.31445 340.82227 604.31445 C 336.0186 604.31445 332.20377 608.3507 331.72461 613.74609 L 331.72852 613.71094 L 331.71484 613.79883 L 331.71484 613.81641 C 331.71414 613.82414 331.5017 615.12245 332.01953 617.31445 C 332.7409 620.36984 334.41154 623.14929 336.83789 625.34766 L 349.03516 636.41602 L 361.44336 625.34766 L 361.44531 625.3457 C 363.86766 623.15138 365.53908 620.37195 366.25977 617.31641 L 366.53516 616.14648 C 366.48717 616.66153 366.60295 616.63867 366.43359 617.35547 C 365.70578 620.44023 364.02412 623.24758 361.56055 625.48047 L 349.0332 636.65625 L 336.71875 625.48047 C 334.25529 623.24836 332.57351 620.43955 331.8457 617.35547 C 331.3401 615.21479 331.51483 613.93137 331.54492 613.74609 L 331.54883 613.72461 L 331.55078 613.70312 C 332.05968 608.09447 335.96001 604.13672 340.82227 604.13672 z M 340.82227 605.54102 C 343.86327 605.54102 346.53363 607.39022 347.82422 610.44531 L 349.03516 613.31836 L 350.24805 610.44531 C 351.50997 607.45651 354.33822 605.54297 357.45703 605.54297 C 361.57605 605.54297 364.9005 608.96716 365.34375 613.92383 C 365.34475 613.93503 365.54121 615.01506 365.06445 617.0332 C 364.40278 619.83858 362.86979 622.39853 360.62109 624.43555 L 349.04297 634.76758 L 337.66211 624.43945 C 335.409 622.39806 333.87723 619.83876 333.21484 617.0332 C 332.73895 615.01874 332.93411 613.94531 332.93555 613.93359 L 332.94531 613.87305 L 332.94727 613.85547 C 333.38123 608.96896 336.7025 605.54102 340.82227 605.54102 z M 342.11523 607.17969 C 337.90953 607.17969 334.47852 610.6107 334.47852 614.81641 C 334.47852 615.5353 335.07603 616.13281 335.79492 616.13281 C 336.51382 616.13281 337.10937 615.5353 337.10938 614.81641 C 337.10938 612.0507 339.34953 609.81055 342.11523 609.81055 C 342.83413 609.81055 343.43164 609.21303 343.43164 608.49414 C 343.43164 607.77451 342.83401 607.17969 342.11523 607.17969 z M 342.11523 608.40625 C 342.17193 608.40625 342.20508 608.43689 342.20508 608.49414 C 342.20508 608.55211 342.17322 608.58398 342.11523 608.58398 C 338.68426 608.58398 335.88281 611.38543 335.88281 614.81641 C 335.88281 614.87437 335.85291 614.90625 335.79492 614.90625 C 335.73695 614.90625 335.70508 614.87437 335.70508 614.81641 C 335.70508 611.27591 338.57474 608.40625 342.11523 608.40625 z "
               style="color:#E5E5E5;font-style:normal;font-variant:normal;font-weight:normal;font-stretch:normal;font-size:medium;line-height:normal;font-family:sans-serif;font-variant-ligatures:normal;font-variant-position:normal;font-variant-caps:normal;font-variant-numeric:normal;font-variant-alternates:normal;font-variant-east-asian:normal;font-feature-settings:normal;font-variation-settings:normal;text-indent:0;text-align:start;text-decoration:none;text-decoration-line:none;text-decoration-style:solid;text-decoration-color:#E5E5E5;letter-spacing:normal;word-spacing:normal;text-transform:none;writing-mode:lr-tb;direction:ltr;text-orientation:mixed;dominant-baseline:auto;baseline-shift:baseline;text-anchor:start;white-space:normal;shape-padding:0;shape-margin:0;inline-size:0;clip-rule:nonzero;display:inline;overflow:visible;visibility:visible;isolation:auto;mix-blend-mode:normal;color-interpolation:sRGB;color-interpolation-filters:linearRGB;solid-color:#E5E5E5;solid-opacity:1;vector-effect:none;fill:#E5E5E5;fill-opacity:0.8392157;fill-rule:nonzero;stroke:none;stroke-width:1.22646;stroke-linecap:butt;stroke-linejoin:miter;stroke-miterlimit:4;stroke-dasharray:none;stroke-dashoffset:0;stroke-opacity:1;anonymous:0;color-rendering:auto;image-rendering:auto;shape-rendering:auto;text-rendering:auto;enable-background:accumulate;stop-color:#E5E5E5;stop-opacity:1;opacity:1" />
          </g>
        </g>
      </g>
    </g>
  </g>
</svg>
