<?xml version="1.0" encoding="UTF-8" standalone="no"?>
<svg
   xmlns:dc="http://purl.org/dc/elements/1.1/"
   xmlns:cc="http://creativecommons.org/ns#"
   xmlns:rdf="http://www.w3.org/1999/02/22-rdf-syntax-ns#"
   xmlns:svg="http://www.w3.org/2000/svg"
   xmlns="http://www.w3.org/2000/svg"
   xmlns:sodipodi="http://sodipodi.sourceforge.net/DTD/sodipodi-0.dtd"
   xmlns:inkscape="http://www.inkscape.org/namespaces/inkscape"
   width="64px"
   height="64px"
   viewBox="0 0 64 64"
   version="1.1"
   id="SVGRoot"
   sodipodi:docname="folder-share.svg"
   inkscape:version="1.0beta2 (2b71d25d45, 2019-12-03)">
  <sodipodi:namedview
     id="base"
     pagecolor="#FFFFFF"
     bordercolor="#666666"
     borderopacity="1.0"
     inkscape:pageopacity="0.0"
     inkscape:pageshadow="2"
     inkscape:zoom="21.497688"
     inkscape:cx="32"
     inkscape:cy="37.050377"
     inkscape:document-units="px"
     inkscape:current-layer="server"
     showgrid="false"
     inkscape:showpageshadow="false"
     inkscape:pagecheckerboard="false"
     units="px"
     inkscape:window-width="1920"
     inkscape:window-height="1027"
     inkscape:window-x="0"
     inkscape:window-y="21"
     inkscape:window-maximized="1"
     inkscape:lockguides="true"
     inkscape:grid-bbox="true"
     inkscape:snap-object-midpoints="true"
     inkscape:snap-page="true"
     inkscape:snap-grids="false"
     inkscape:snap-to-guides="false"
     inkscape:snap-global="false"
     inkscape:document-rotation="0" />
  <defs
     id="defs2" />
  <metadata
     id="metadata5">
    <rdf:RDF>
      <cc:Work
         rdf:about="">
        <dc:format>image/svg+xml</dc:format>
        <dc:type
           rdf:resource="http://purl.org/dc/dcmitype/StillImage" />
        <dc:title />
        <cc:license
           rdf:resource="http://creativecommons.org/licenses/by-sa/4.0/" />
        <dc:date>2017</dc:date>
        <dc:creator>
          <cc:Agent>
            <dc:title>Cristian Pozzessere &quot;ilnanny&quot;</dc:title>
          </cc:Agent>
        </dc:creator>
        <dc:subject>
          <rdf:Bag>
            <rdf:li>Global language</rdf:li>
          </rdf:Bag>
        </dc:subject>
        <dc:description>Playing with Inkscape on Gnu/Linux O. S.</dc:description>
        <dc:contributor>
          <cc:Agent>
            <dc:title>In the night, alone like a dog.</dc:title>
          </cc:Agent>
        </dc:contributor>
      </cc:Work>
      <cc:License
         rdf:about="http://creativecommons.org/licenses/by-sa/4.0/">
        <cc:permits
           rdf:resource="http://creativecommons.org/ns#Reproduction" />
        <cc:permits
           rdf:resource="http://creativecommons.org/ns#Distribution" />
        <cc:requires
           rdf:resource="http://creativecommons.org/ns#Notice" />
        <cc:requires
           rdf:resource="http://creativecommons.org/ns#Attribution" />
        <cc:permits
           rdf:resource="http://creativecommons.org/ns#DerivativeWorks" />
        <cc:requires
           rdf:resource="http://creativecommons.org/ns#ShareAlike" />
      </cc:License>
    </rdf:RDF>
  </metadata>
  <g
     id="layer1"
     inkscape:groupmode="layer"
     inkscape:label="Layer 1">
    <g
       id="g938"
       transform="matrix(0.984375,0,0,0.96296292,-3.1992191,-18.562364)">
      <g
         id="g1521"
         transform="matrix(0.99514741,0,0,1,0.64471561,-1.0384589)">
        <g
           id="g852">
          <rect
             y="26.558754"
             x="3.259584"
             height="55.789837"
             width="63.980831"
             id="rect817"
             style="opacity:1;fill:#B6404B;fill-opacity:1;fill-rule:nonzero;stroke:#5f5e5c;stroke-width:1.36143422;stroke-linecap:square;stroke-linejoin:bevel;stroke-miterlimit:4;stroke-dasharray:none;stroke-opacity:1;paint-order:markers stroke fill" />
          <rect
             transform="rotate(90)"
             style="opacity:1;fill:#fefbfb;fill-opacity:0.75478929;fill-rule:nonzero;stroke:none;stroke-width:0.06918984;stroke-linecap:square;stroke-linejoin:bevel;stroke-miterlimit:4;stroke-dasharray:none;stroke-opacity:0.79607843;paint-order:markers stroke fill"
             id="rect1500"
             width="39.113285"
             height="1.9279207"
             x="43.239227"
             y="-67.240417" />
          <rect
             y="-5.8748436"
             x="43.209305"
             height="2.6152594"
             width="39.113285"
             id="rect1498"
             style="opacity:1;fill:#fefbfb;fill-opacity:0.75478929;fill-rule:nonzero;stroke:none;stroke-width:0.08058518;stroke-linecap:square;stroke-linejoin:bevel;stroke-miterlimit:4;stroke-dasharray:none;stroke-opacity:0.79607843;paint-order:markers stroke fill"
             transform="rotate(90)" />
          <g
             style="opacity:0.69300022"
             transform="matrix(0.26717791,0,0,0.37695836,-8.2290657,12.422815)"
             id="g851">
            <path
               inkscape:connector-curvature="0"
               style="opacity:1;fill:#f8fafa;fill-opacity:1;fill-rule:nonzero;stroke:none;stroke-width:0.67029333;stroke-linecap:square;stroke-linejoin:bevel;stroke-miterlimit:4;stroke-dasharray:none;stroke-opacity:0.79607843;paint-order:markers stroke fill"
               d="M 47.995635,54.25 H 277.46902 V 85.090837 H 47.995635 Z"
               id="rect831" />
            <path
               style="opacity:1;fill:#93a2a5;fill-opacity:1;fill-rule:nonzero;stroke:none;stroke-width:0.21135312;stroke-linecap:square;stroke-linejoin:bevel;stroke-miterlimit:4;stroke-dasharray:none;stroke-opacity:0.79607843;paint-order:markers stroke fill"
               d="M 277.46902,75.592181 244.49991,54.25 v 21.342181 z"
               id="path1496"
               inkscape:connector-curvature="0"
               sodipodi:nodetypes="cccc" />
          </g>
          <g
             id="g1484"
             style="fill:#B6404B;fill-opacity:1;stroke:#B6404B;stroke-width:1.16166735;stroke-miterlimit:4;stroke-dasharray:none;stroke-opacity:1"
             transform="matrix(0.92930117,0,0,0.97367239,2.5265655,4.0162188)">
            <path
               sodipodi:nodetypes="cccccccccc"
               id="rect821"
               style="opacity:1;fill:#B6404B;fill-opacity:1;fill-rule:nonzero;stroke:#B6404B;stroke-width:1.16166735;stroke-linecap:square;stroke-linejoin:bevel;stroke-miterlimit:4;stroke-dasharray:none;stroke-opacity:1;paint-order:markers stroke fill"
               d="m 5.056055,36.025647 h 24.762237 l 3.746032,4.177904 H 5.056055 Z M 3.25,40.203551 h 64 v 40.250917 h -64 z"
               inkscape:connector-curvature="0" />
          </g>
          <rect
             style="opacity:1;fill:#ffcc00;fill-opacity:0.99315072;fill-rule:nonzero;stroke:none;stroke-width:0.47680542;stroke-linecap:square;stroke-linejoin:bevel;stroke-miterlimit:4;stroke-dasharray:none;stroke-opacity:1;paint-order:markers stroke fill"
             id="rect825"
             width="5.3264122"
             height="3.0460732"
             x="5.7145939"
             y="28.096727" />
          <rect
             y="28.096727"
             x="13.652818"
             height="3.0460732"
             width="5.3264122"
             id="rect827"
             style="opacity:1;fill:#ff0084;fill-opacity:0.99315072;fill-rule:nonzero;stroke:none;stroke-width:0.47680542;stroke-linecap:square;stroke-linejoin:bevel;stroke-miterlimit:4;stroke-dasharray:none;stroke-opacity:1;paint-order:markers stroke fill" />
          <rect
             style="opacity:1;fill:#aad450;fill-opacity:0.99315072;fill-rule:nonzero;stroke:none;stroke-width:0.47680542;stroke-linecap:square;stroke-linejoin:bevel;stroke-miterlimit:4;stroke-dasharray:none;stroke-opacity:1;paint-order:markers stroke fill"
             id="rect829"
             width="5.3264122"
             height="3.0460732"
             x="21.59104"
             y="28.096727" />
          <rect
             style="opacity:0.704;fill:#FFFFFF;fill-opacity:0.99657533;fill-rule:nonzero;stroke:none;stroke-width:0.0899523;stroke-linecap:square;stroke-linejoin:bevel;stroke-miterlimit:4;stroke-dasharray:none;stroke-opacity:0.79607843;paint-order:markers stroke fill"
             id="rect855"
             width="64.143631"
             height="1.9870082"
             x="3.1380224"
             y="78.956886" />
          <rect
             y="80.455818"
             x="3.1380224"
             height="1.9870082"
             width="64.292816"
             id="rect853"
             style="opacity:0.597;fill:#FFFFFF;fill-opacity:0.96907217;fill-rule:nonzero;stroke:none;stroke-width:0.09005686;stroke-linecap:square;stroke-linejoin:bevel;stroke-miterlimit:4;stroke-dasharray:none;stroke-opacity:0.79607843;paint-order:markers stroke fill" />
          <rect
             style="opacity:0.704;fill:#fcfdff;fill-opacity:1;fill-rule:nonzero;stroke:none;stroke-width:0.06058259;stroke-linecap:square;stroke-linejoin:bevel;stroke-miterlimit:4;stroke-dasharray:none;stroke-opacity:0.79607843;paint-order:markers stroke fill"
             id="rect1504"
             width="54.548206"
             height="1.0598483"
             x="8.0103283"
             y="43.691528" />
          <rect
             y="45.030849"
             x="8.0103283"
             height="1.0598483"
             width="54.548206"
             id="rect1523"
             style="opacity:0.597;fill:#000207;fill-opacity:1;fill-rule:nonzero;stroke:none;stroke-width:0.06058259;stroke-linecap:square;stroke-linejoin:bevel;stroke-miterlimit:4;stroke-dasharray:none;stroke-opacity:0.79607843;paint-order:markers stroke fill" />
          <g
             transform="matrix(0.6625936,0,0,0.67403998,-374.30681,-317.00376)"
             id="server"
             style="fill:none;stroke:#FFFFFF;stroke-width:1.41354;stroke-miterlimit:4;stroke-dasharray:none;stroke-opacity:0.819923">
            <path
               style="color:#FFFFFF;font-style:normal;font-variant:normal;font-weight:normal;font-stretch:normal;font-size:medium;line-height:normal;font-family:sans-serif;font-variant-ligatures:normal;font-variant-position:normal;font-variant-caps:normal;font-variant-numeric:normal;font-variant-alternates:normal;font-variant-east-asian:normal;font-feature-settings:normal;font-variation-settings:normal;text-indent:0;text-align:start;text-decoration:none;text-decoration-line:none;text-decoration-style:solid;text-decoration-color:#FFFFFF;letter-spacing:normal;word-spacing:normal;text-transform:none;writing-mode:lr-tb;direction:ltr;text-orientation:mixed;dominant-baseline:auto;baseline-shift:baseline;text-anchor:start;white-space:normal;shape-padding:0;shape-margin:0;inline-size:0;clip-rule:nonzero;display:inline;overflow:visible;visibility:visible;opacity:1;isolation:auto;mix-blend-mode:normal;color-interpolation:sRGB;color-interpolation-filters:linearRGB;solid-color:#FFFFFF;solid-opacity:1;vector-effect:none;fill:#FFFFFF;fill-opacity:0.919581;fill-rule:nonzero;stroke:none;stroke-width:0.812803;stroke-linecap:butt;stroke-linejoin:miter;stroke-miterlimit:4;stroke-dasharray:none;stroke-dashoffset:0;stroke-opacity:1;color-rendering:auto;image-rendering:auto;shape-rendering:auto;text-rendering:auto;enable-background:accumulate;stop-color:#FFFFFF;stop-opacity:1"
               d="m 601.34439,545.21684 c -1.90352,0 -3.45895,1.55359 -3.45895,3.45711 v 7.80569 c 0,0.95349 0.44409,1.76803 1.0701,2.39069 -0.62546,0.62297 -1.0701,1.43573 -1.0701,2.38886 v 7.80569 c 0,1.90351 1.55543,3.45895 3.45895,3.45895 h 15.85634 c -0.0261,0.0916 -0.10683,0.15651 -0.10683,0.25601 v 0.66307 c 0,0.51574 0.40067,0.89584 0.88961,0.99275 -0.48894,0.0969 -0.88961,0.47884 -0.88961,0.99459 v 0.66122 c 0,0.58579 0.48508,1.0701 1.07011,1.0701 0.58503,0 1.06827,-0.48431 1.06827,-1.0701 v -0.66122 c 0,-0.51561 -0.39903,-0.89753 -0.88778,-0.99459 0.48875,-0.0971 0.88778,-0.47715 0.88778,-0.99275 v -0.66307 c 0,-0.0995 -0.0809,-0.16429 -0.10684,-0.25601 h 15.85817 c 1.90353,0 3.45713,-1.55544 3.45713,-3.45895 v -7.80569 c 0,-0.95313 -0.44452,-1.76625 -1.07011,-2.38886 0.6259,-0.62303 1.07011,-1.4372 1.07011,-2.39069 v -7.80569 c 0,-1.90352 -1.5536,-3.45711 -3.45713,-3.45711 z m 0,0.81224 h 33.63922 c 1.46275,0 2.64488,1.18214 2.64488,2.64487 v 7.80569 c 0,0.84338 -0.40167,1.58198 -1.02222,2.07021 l -0.4052,0.32048 0.4052,0.31863 c 0.62035,0.48752 1.02222,1.22684 1.02222,2.07023 v 7.80569 c 0,1.46273 -1.18213,2.6467 -2.64488,2.6467 h -16.8196 -16.81962 c -1.46272,0 -2.64671,-1.18397 -2.64671,-2.6467 v -7.80569 c 0,-0.84339 0.40167,-1.58198 1.02222,-2.07023 l 0.40705,-0.32047 -0.40705,-0.31864 c -0.62034,-0.48749 -1.02222,-1.22683 -1.02222,-2.07021 v -7.80569 c 0,-1.46273 1.18399,-2.64487 2.64671,-2.64487 z m 0,0.51203 c -1.17295,0 -2.13468,0.95989 -2.13468,2.13284 v 7.80569 c 0,1.17346 0.96174,2.13468 2.13468,2.13468 h 0.40706 33.23216 c 1.17296,0 2.13285,-0.96173 2.13285,-2.13468 v -7.80569 c 0,-1.17295 -0.96121,-2.13284 -2.13468,-2.13284 z m 0,0.81225 h 33.63739 c 0.73288,0 1.32243,0.58852 1.32243,1.32059 v 7.80569 c 0,0.73208 -0.58852,1.32059 -1.3206,1.32059 h -33.6429 c -0.73,-0.003 -1.31691,-0.5892 -1.31691,-1.32059 v -7.80569 c 0,-0.73206 0.58853,-1.32059 1.32059,-1.32059 z m 3.90285,1.83631 c -1.86387,0 -3.38713,1.52325 -3.38713,3.38712 0,1.86386 1.52326,3.38713 3.38713,3.38713 1.86386,0 3.38712,-1.52327 3.38712,-3.38713 0,-1.86387 -1.52326,-3.38712 -3.38712,-3.38712 z m 0,0.81408 c 1.42289,0 2.57488,1.15014 2.57488,2.57304 0,1.4229 -1.15199,2.57488 -2.57488,2.57488 -1.42291,0 -2.57488,-1.15198 -2.57488,-2.57488 0,-1.4229 1.15197,-2.57304 2.57488,-2.57304 z m 0,0.51203 c -1.13318,0 -2.06285,0.92714 -2.06285,2.06101 0,1.13386 0.92966,2.06285 2.06285,2.06285 1.13317,0 2.06286,-0.92898 2.06286,-2.06285 0,-1.13387 -0.92969,-2.06101 -2.06286,-2.06101 z m 15.56532,0 c -0.58547,0 -1.06826,0.4828 -1.06827,1.06827 0,0.58546 0.4828,1.06827 1.06827,1.06826 0.58547,0 1.07011,-0.48281 1.0701,-1.06826 0,-0.58547 -0.48464,-1.06827 -1.0701,-1.06827 z m 2.6504,0 c -0.58547,0 -1.06827,0.4828 -1.06827,1.06827 -10e-6,0.58546 0.48279,1.06827 1.06827,1.06826 0.58546,0 1.06827,-0.48281 1.06827,-1.06826 -1e-5,-0.58547 -0.48281,-1.06827 -1.06827,-1.06827 z m 2.64855,0 c -0.58545,0 -1.06826,0.4828 -1.06827,1.06827 0,0.58545 0.48281,1.06826 1.06827,1.06826 0.58547,0 1.07012,-0.48281 1.07011,-1.06826 0,-0.58547 -0.48465,-1.06827 -1.07011,-1.06827 z m 2.6504,0 c -0.58546,0 -1.06827,0.4828 -1.06827,1.06827 -10e-6,0.58545 0.4828,1.06826 1.06827,1.06826 0.58547,0 1.06827,-0.48281 1.06827,-1.06826 -1e-5,-0.58547 -0.48281,-1.06827 -1.06827,-1.06827 z m 2.64855,0 c -0.58545,0 -1.06826,0.4828 -1.06827,1.06827 0,0.58545 0.48282,1.06826 1.06827,1.06826 0.58547,0 1.07012,-0.48281 1.07011,-1.06826 0,-0.58547 -0.48465,-1.06827 -1.07011,-1.06827 z m -26.16322,0.81225 c 0.69235,0 1.24876,0.55577 1.24876,1.24876 0,0.69298 -0.55641,1.25061 -1.24876,1.25061 -0.69237,0 -1.25061,-0.55763 -1.25061,-1.25061 0,-0.69299 0.55824,-1.24876 1.25061,-1.24876 z m 15.56532,0 c 0.1462,0 0.25602,0.10983 0.25602,0.25602 0,0.14618 -0.10982,0.25601 -0.25602,0.25601 -0.1462,0 -0.25602,-0.10982 -0.25602,-0.25601 0,-0.1462 0.10982,-0.25602 0.25602,-0.25602 z m 2.6504,0 c 0.1462,0 0.25602,0.10983 0.25602,0.25602 0,0.14618 -0.10982,0.25601 -0.25602,0.25601 -0.14619,0 -0.25602,-0.10982 -0.25602,-0.25601 0,-0.1462 0.10983,-0.25602 0.25602,-0.25602 z m 2.64855,0 c 0.14619,0 0.25602,0.10983 0.25602,0.25602 0,0.14618 -0.10983,0.25601 -0.25602,0.25601 -0.14619,0 -0.25602,-0.10983 -0.25602,-0.25601 0,-0.14619 0.10983,-0.25602 0.25602,-0.25602 z m 2.6504,0 c 0.1462,0 0.25602,0.10983 0.25602,0.25602 0,0.14618 -0.10982,0.25601 -0.25602,0.25601 -0.1462,0 -0.25602,-0.10983 -0.25602,-0.25601 0,-0.14619 0.10982,-0.25602 0.25602,-0.25602 z m 2.64855,0 c 0.14619,0 0.25602,0.10983 0.25602,0.25602 0,0.14618 -0.10983,0.25601 -0.25602,0.25601 -0.14619,0 -0.25602,-0.10983 -0.25602,-0.25601 0,-0.14619 0.10983,-0.25602 0.25602,-0.25602 z m -9.27178,1.17324 c -0.58546,10e-6 -1.0701,0.48465 -1.0701,1.07011 -10e-6,0.58546 0.48463,1.06826 1.0701,1.06826 0.58547,0 1.06827,-0.4828 1.06826,-1.06826 0,-0.58546 -0.4828,-1.0701 -1.06826,-1.07011 z m 2.64856,0 c -0.58547,10e-6 -1.06826,0.48465 -1.06826,1.07011 -10e-6,0.58546 0.48279,1.06826 1.06826,1.06826 0.58547,10e-6 1.06826,-0.48279 1.06825,-1.06826 0,-0.58546 -0.48279,-1.07011 -1.06825,-1.07011 z m 2.65039,0 c -0.58546,10e-6 -1.0701,0.48465 -1.0701,1.07011 -10e-6,0.58546 0.48463,1.06826 1.0701,1.06826 0.58548,10e-6 1.06827,-0.48279 1.06826,-1.06826 0,-0.58546 -0.48279,-1.07011 -1.06826,-1.07011 z m 2.64856,0 c -0.58547,0 -1.06826,0.48465 -1.06826,1.07011 -10e-6,0.58547 0.48278,1.06827 1.06826,1.06826 0.58546,0 1.06826,-0.4828 1.06825,-1.06826 0,-0.58546 -0.48279,-1.0701 -1.06825,-1.07011 z m 2.65039,0 c -0.58546,10e-6 -1.0701,0.48465 -1.0701,1.07011 0,0.58546 0.48464,1.06826 1.0701,1.06826 0.58547,0 1.06827,-0.4828 1.06826,-1.06826 0,-0.58546 -0.4828,-1.0701 -1.06826,-1.07011 z m -10.5979,0.8141 c 0.14619,0 0.25601,0.10982 0.25601,0.25601 0,0.14619 -0.10982,0.25601 -0.25601,0.25602 -0.14619,-10e-6 -0.25602,-0.10983 -0.25602,-0.25602 0,-0.14619 0.10983,-0.25601 0.25602,-0.25601 z m 2.64856,0 c 0.14619,-10e-6 0.256,0.10982 0.256,0.25601 10e-6,0.14619 -0.10981,0.25602 -0.256,0.25602 -0.1462,-10e-6 -0.25602,-0.10983 -0.25601,-0.25602 0,-0.14619 0.10982,-0.25601 0.25601,-0.25601 z m 2.65039,0 c 0.14619,-10e-6 0.25601,0.10982 0.25601,0.25601 0,0.14619 -0.10982,0.25602 -0.25601,0.25602 -0.14619,-10e-6 -0.25601,-0.10983 -0.25601,-0.25602 0,-0.14619 0.10982,-0.25601 0.25601,-0.25601 z m 2.64856,0 c 0.14618,0 0.256,0.10982 0.256,0.25601 1e-5,0.14619 -0.10981,0.25601 -0.256,0.25602 -0.1462,0 -0.25602,-0.10983 -0.25601,-0.25602 0,-0.14619 0.10982,-0.25602 0.25601,-0.25601 z m 2.65039,0 c 0.14619,0 0.25601,0.10982 0.25601,0.25601 0,0.14619 -0.10982,0.25601 -0.25601,0.25602 -0.14619,-10e-6 -0.25601,-0.10983 -0.25601,-0.25602 0,-0.14619 0.10982,-0.25601 0.25601,-0.25601 z m -31.39219,5.81099 c -1.17294,0 -2.13468,0.95987 -2.13468,2.13283 v 7.80569 c 0,1.17346 0.96158,2.13549 2.13468,2.13468 h 33.63922 c 1.17296,0 2.13285,-0.96174 2.13285,-2.13468 v -7.80569 c 0,-1.17296 -0.96122,-2.13283 -2.13468,-2.13283 z m 0,0.81223 h 33.63739 c 0.73288,0 1.32243,0.58852 1.32243,1.3206 v 7.80569 c 0,0.73207 -0.58852,1.32059 -1.3206,1.32059 h -33.63922 c -0.73192,5.1e-4 -1.32059,-0.58771 -1.32059,-1.32059 v -7.80569 c 0,-0.73207 0.58852,-1.3206 1.32059,-1.3206 z m 3.90285,1.83631 c -1.86376,0 -3.38713,1.52269 -3.38713,3.38713 0,1.86445 1.52337,3.38713 3.38713,3.38713 1.86386,0 3.38712,-1.52326 3.38712,-3.38713 0,-1.86386 -1.52326,-3.38713 -3.38712,-3.38713 z m 0,0.81409 c 1.42289,0 2.57488,1.15014 2.57488,2.57304 0,1.42291 -1.15199,2.57489 -2.57488,2.57489 -1.42301,0 -2.57488,-1.15123 -2.57488,-2.57489 0,-1.42365 1.15186,-2.57304 2.57488,-2.57304 z m 0,0.51203 c -1.13318,0 -2.06285,0.92714 -2.06285,2.06101 0,1.13387 0.92967,2.06285 2.06285,2.06285 1.13317,0 2.06286,-0.92897 2.06286,-2.06285 0,-1.13388 -0.92969,-2.06101 -2.06286,-2.06101 z m 15.56532,0 c -0.58547,-10e-6 -1.06826,0.4828 -1.06827,1.06826 10e-6,0.58546 0.4828,1.06828 1.06827,1.06827 0.58546,0 1.0701,-0.48281 1.0701,-1.06827 0,-0.58545 -0.48464,-1.06826 -1.0701,-1.06826 z m 2.6504,0 c -0.58547,-10e-6 -1.06827,0.4828 -1.06827,1.06826 0,0.58546 0.4828,1.06828 1.06827,1.06827 0.58546,0 1.06826,-0.48281 1.06827,-1.06827 -1e-5,-0.58545 -0.48281,-1.06826 -1.06827,-1.06826 z m 2.64855,0 c -0.58545,0 -1.06826,0.48281 -1.06827,1.06826 10e-6,0.58546 0.48282,1.06827 1.06827,1.06827 0.58546,0 1.07011,-0.48281 1.07011,-1.06827 0,-0.58545 -0.48465,-1.06826 -1.07011,-1.06826 z m 2.6504,0 c -0.58546,0 -1.06827,0.48281 -1.06827,1.06826 0,0.58546 0.48281,1.06827 1.06827,1.06827 0.58546,0 1.06826,-0.48281 1.06827,-1.06827 -1e-5,-0.58545 -0.48281,-1.06826 -1.06827,-1.06826 z m 2.64855,0 c -0.58545,0 -1.06826,0.48281 -1.06827,1.06826 1e-5,0.58546 0.48282,1.06827 1.06827,1.06827 0.58546,0 1.07011,-0.48281 1.07011,-1.06827 0,-0.58545 -0.48465,-1.06826 -1.07011,-1.06826 z m -26.16322,0.81225 c 0.69235,0 1.24876,0.55577 1.24876,1.24876 0,0.69299 -0.55641,1.2506 -1.24876,1.2506 -0.69237,0 -1.25061,-0.5576 -1.25061,-1.2506 0,-0.693 0.55824,-1.24876 1.25061,-1.24876 z m 15.56532,0 c 0.1462,0 0.25602,0.10982 0.25602,0.25601 0,0.14619 -0.10982,0.25603 -0.25602,0.25603 -0.1462,0 -0.25602,-0.10984 -0.25602,-0.25603 0,-0.14619 0.10982,-0.25601 0.25602,-0.25601 z m 2.6504,0 c 0.1462,0 0.25602,0.10982 0.25602,0.25601 0,0.14619 -0.10982,0.25603 -0.25602,0.25603 -0.14619,0 -0.25602,-0.10984 -0.25602,-0.25603 0,-0.14619 0.10983,-0.25601 0.25602,-0.25601 z m 2.64855,0 c 0.14619,0 0.25602,0.10982 0.25602,0.25601 0,0.14619 -0.10983,0.25603 -0.25602,0.25603 -0.14619,0 -0.25602,-0.10984 -0.25602,-0.25603 0,-0.14619 0.10983,-0.25601 0.25602,-0.25601 z m 2.6504,0 c 0.1462,0 0.25602,0.10982 0.25602,0.25601 0,0.14619 -0.10982,0.25603 -0.25602,0.25603 -0.1462,0 -0.25602,-0.10984 -0.25602,-0.25603 0,-0.14619 0.10982,-0.25601 0.25602,-0.25601 z m 2.64855,0 c 0.14619,0 0.25602,0.10982 0.25602,0.25601 0,0.14619 -0.10983,0.25603 -0.25602,0.25603 -0.14619,0 -0.25602,-0.10984 -0.25602,-0.25603 0,-0.14619 0.10983,-0.25601 0.25602,-0.25601 z m -9.27178,1.17509 c -0.58546,0 -1.0701,0.4828 -1.0701,1.06826 0,0.58546 0.48464,1.06825 1.0701,1.06826 0.58546,-10e-6 1.06826,-0.4828 1.06826,-1.06826 0,-0.58546 -0.4828,-1.06826 -1.06826,-1.06826 z m 2.64856,0 c -0.58547,0 -1.06826,0.4828 -1.06826,1.06826 0,0.58546 0.48279,1.06825 1.06826,1.06826 0.58546,0 1.06825,-0.48279 1.06825,-1.06826 0,-0.58547 -0.48279,-1.06827 -1.06825,-1.06826 z m 2.65039,0 c -0.58546,0 -1.0701,0.4828 -1.0701,1.06826 0,0.58546 0.48464,1.06825 1.0701,1.06826 0.58547,0 1.06826,-0.48279 1.06826,-1.06826 0,-0.58547 -0.48279,-1.06827 -1.06826,-1.06826 z m 2.64856,0 c -0.58547,-10e-6 -1.06826,0.48279 -1.06826,1.06826 0,0.58547 0.48279,1.06826 1.06826,1.06826 0.58546,-10e-6 1.06825,-0.4828 1.06825,-1.06826 0,-0.58546 -0.48279,-1.06826 -1.06825,-1.06826 z m 2.65039,0 c -0.58546,0 -1.0701,0.4828 -1.0701,1.06826 0,0.58546 0.48464,1.06825 1.0701,1.06826 0.58546,-10e-6 1.06826,-0.4828 1.06826,-1.06826 0,-0.58546 -0.4828,-1.06826 -1.06826,-1.06826 z m -10.5979,0.81225 c 0.14619,0 0.25601,0.10982 0.25601,0.25601 0,0.14619 -0.10982,0.25601 -0.25601,0.25601 -0.14619,0 -0.25602,-0.10982 -0.25602,-0.25601 0,-0.14619 0.10983,-0.25601 0.25602,-0.25601 z m 2.64856,0 c 0.14619,0 0.256,0.10982 0.256,0.25601 0,0.14619 -0.10981,0.25601 -0.256,0.25601 -0.14619,0 -0.25601,-0.10982 -0.25601,-0.25601 0,-0.14619 0.10982,-0.25601 0.25601,-0.25601 z m 2.65039,0 c 0.14619,0 0.25601,0.10982 0.25601,0.25601 0,0.14619 -0.10982,0.25601 -0.25601,0.25601 -0.14619,0 -0.25601,-0.10982 -0.25601,-0.25601 0,-0.14619 0.10982,-0.25601 0.25601,-0.25601 z m 2.64856,0 c 0.14618,0 0.256,0.10982 0.256,0.25601 0,0.14619 -0.10982,0.25601 -0.256,0.25601 -0.14619,0 -0.25601,-0.10982 -0.25601,-0.25601 0,-0.14619 0.10982,-0.25601 0.25601,-0.25601 z m 2.65039,0 c 0.14619,0 0.25601,0.10982 0.25601,0.25601 0,0.14619 -0.10982,0.25601 -0.25601,0.25601 -0.14619,0 -0.25601,-0.10982 -0.25601,-0.25601 0,-0.14619 0.10982,-0.25601 0.25601,-0.25601 z m -14.57257,6.62322 c 0.14623,0 0.25602,0.10921 0.25602,0.25601 v 0.66307 c 0,0.14682 -0.10979,0.25601 -0.25602,0.25601 -0.14624,0 -0.25602,-0.10919 -0.25602,-0.25601 v -0.66307 c 0,-0.1468 0.10978,-0.25601 0.25602,-0.25601 z m 0,2.65039 c 0.14623,0 0.25602,0.10921 0.25602,0.25603 v 0.66122 c 0,0.14681 -0.10979,0.256 -0.25602,0.256 -0.14624,0 -0.25602,-0.10919 -0.25602,-0.256 v -0.66122 c 0,-0.14682 0.10978,-0.25603 0.25602,-0.25603 z m -0.47704,1.83079 -0.51387,0.13998 c -0.31369,0.0859 -0.614,0.21342 -0.89328,0.37757 -0.50464,0.29685 -0.67628,0.95958 -0.37943,1.46426 0.19801,0.33461 0.55416,0.52677 0.92092,0.52677 0.18323,0 0.37341,-0.0488 0.54334,-0.14919 0.11788,-0.0691 0.24419,-0.12165 0.37573,-0.1584 l 0.002,-0.002 c 0.5632,-0.15615 0.90172,-0.74954 0.74594,-1.31323 -0.10703,-0.38478 -0.43549,-0.59055 -0.80119,-0.67963 z m 1.49373,0.38863 c -0.26434,0.073 -0.50068,0.24583 -0.64465,0.50097 -0.28834,0.50886 -0.1072,1.16761 0.40153,1.45689 h 0.002 l 0.006,0.004 c 0.11759,0.0668 0.22648,0.14938 0.32417,0.24496 0.20656,0.20235 0.47872,0.30575 0.74778,0.30575 0.27714,0 0.55529,-0.11003 0.76251,-0.32048 h 0.002 c 0.40973,-0.41819 0.40254,-1.10254 -0.0147,-1.51215 -0.23146,-0.22697 -0.49109,-0.42208 -0.77173,-0.58202 h -0.002 -0.002 c -0.25429,-0.14269 -0.54605,-0.1706 -0.81039,-0.0976 z m -1.79395,0.53598 c 0.1427,-0.0389 0.27748,0.0373 0.3168,0.17865 0.0387,0.1402 -0.0369,0.27469 -0.17681,0.3131 h -0.002 c -0.20068,0.0557 -0.3926,0.1371 -0.57281,0.24314 h -0.002 c -0.0408,0.0241 -0.0843,0.035 -0.12894,0.035 -0.0863,0 -0.17128,-0.043 -0.22101,-0.12709 -0.0727,-0.12554 -0.0333,-0.27437 0.0921,-0.3481 0.21833,-0.12833 0.45225,-0.22823 0.69436,-0.29469 z m 2.20467,0.26889 c 0.22105,0.12598 0.42383,0.27831 0.60413,0.45495 0.10449,0.10255 0.10693,0.25592 0.006,0.36099 -0.0524,0.0533 -0.11822,0.0773 -0.18418,0.0773 -0.0648,0 -0.1269,-0.023 -0.17867,-0.0737 -0.14844,-0.14527 -0.31556,-0.27234 -0.49912,-0.37573 -0.12581,-0.0728 -0.1674,-0.2217 -0.0958,-0.34811 0.0721,-0.1277 0.21734,-0.16795 0.3481,-0.0958 z m -3.72417,0.82514 c -0.56578,-0.14588 -1.15487,0.19918 -1.30218,0.7662 -0.0458,0.17561 -0.0487,0.36353 -0.0682,0.54703 h -0.0515 v 0.40521 0.002 0.40521 h 0.1713 c 0.17175,0.36432 0.47416,0.65568 0.89698,0.65568 0.59157,9.5e-4 1.06826,-0.49031 1.06826,-1.07562 0,-0.1362 0.0179,-0.27177 0.0515,-0.40151 0.14732,-0.56621 -0.19801,-1.15399 -0.76437,-1.30218 z m 4.94531,0.62071 0.24496,0.081 -0.10866,-0.081 z m 0,0 c -0.59681,0 -1.06827,0.49746 -1.06827,1.083 0,0.13993 -0.0183,0.27699 -0.0534,0.40888 -0.15186,0.56602 0.19204,1.15613 0.75699,1.3077 0.0921,0.0247 0.18504,0.0368 0.27628,0.0368 0.4736,0 0.90433,-0.31854 1.03143,-0.79198 0.0835,-0.31171 0.12708,-0.63482 0.12708,-0.9596 v -0.0313 c 0,-0.58579 -0.49635,-1.05352 -1.0701,-1.05352 z m -21.85886,0.0166 c -0.58504,0 -1.06826,0.48247 -1.06826,1.06826 0,0.58579 0.48322,1.06827 1.06826,1.06827 h 0.66306 c 0.51581,0 0.89836,-0.39928 0.99459,-0.88961 0.0965,0.48997 0.4772,0.88961 0.99274,0.88961 h 0.66307 c 0.51494,0 0.89554,-0.39865 0.99275,-0.88777 0.0972,0.48912 0.4778,0.88777 0.99274,0.88777 h 0.66306 c 0.51554,0 0.89624,-0.39964 0.99274,-0.88961 0.0963,0.49033 0.4788,0.88961 0.9946,0.88961 h 0.66306 c 0.51494,0 0.89554,-0.39865 0.99275,-0.88777 0.0972,0.48912 0.47781,0.88777 0.99274,0.88777 h 0.66307 c 0.5158,0 0.89836,-0.39928 0.99458,-0.88961 0.0965,0.48997 0.4772,0.88961 0.99275,0.88961 h 0.66306 c 0.58503,0 1.06825,-0.48248 1.06825,-1.06827 0,-0.58579 -0.48322,-1.06826 -1.06825,-1.06826 H 612.202 c -0.5157,0 -0.8964,0.39943 -0.99275,0.88961 -0.0961,-0.49053 -0.47864,-0.88961 -0.99458,-0.88961 h -0.66307 c -0.51508,0 -0.89571,0.39844 -0.99274,0.88777 -0.097,-0.48933 -0.47767,-0.88777 -0.99275,-0.88777 h -0.66306 c -0.51595,0 -0.89854,0.39908 -0.9946,0.88961 -0.0964,-0.49018 -0.47704,-0.88961 -0.99274,-0.88961 h -0.66306 c -0.51508,0 -0.89571,0.39844 -0.99274,0.88777 -0.0971,-0.48933 -0.47767,-0.88777 -0.99275,-0.88777 h -0.66307 c -0.51569,0 -0.8964,0.39943 -0.99274,0.88961 -0.0961,-0.49053 -0.47865,-0.88961 -0.99459,-0.88961 z m 24.50926,0 c -0.58504,0 -1.06827,0.48247 -1.06827,1.06826 0,0.58579 0.48323,1.06827 1.06827,1.06827 h 0.66122 c 0.51493,0 0.89738,-0.39865 0.99459,-0.88777 0.0972,0.48912 0.4778,0.88777 0.99274,0.88777 h 0.66306 c 0.51554,0 0.89624,-0.39964 0.99275,-0.88961 0.0963,0.49033 0.47878,0.88961 0.99459,0.88961 h 0.66306 c 0.51493,0 0.89554,-0.39865 0.99275,-0.88777 0.0971,0.48912 0.4778,0.88777 0.99274,0.88777 h 0.66306 c 0.5158,0 0.89837,-0.39928 0.9946,-0.88961 0.0965,0.48997 0.47719,0.88961 0.99273,0.88961 h 0.66307 c 0.51494,0 0.89554,-0.39865 0.99275,-0.88777 0.0973,0.48912 0.47965,0.88777 0.99459,0.88777 h 0.66121 c 0.58504,0 1.06827,-0.48248 1.06827,-1.06827 0,-0.58579 -0.48323,-1.06826 -1.06827,-1.06826 h -0.66121 c -0.51509,0 -0.89756,0.39844 -0.99459,0.88777 -0.0971,-0.48933 -0.47766,-0.88777 -0.99275,-0.88777 h -0.66307 c -0.51568,0 -0.89639,0.39943 -0.99273,0.88961 -0.0961,-0.49053 -0.47865,-0.88961 -0.9946,-0.88961 h -0.66306 c -0.51508,0 -0.89571,0.39844 -0.99274,0.88777 -0.0971,-0.48933 -0.47766,-0.88777 -0.99275,-0.88777 h -0.66306 c -0.51595,0 -0.89853,0.39908 -0.99459,0.88961 -0.0964,-0.49018 -0.47705,-0.88961 -0.99275,-0.88961 h -0.66306 c -0.51509,0 -0.89571,0.39844 -0.99274,0.88777 -0.0971,-0.48933 -0.47952,-0.88777 -0.99459,-0.88777 z m -7.80016,0.15103 c 0.1424,0.0372 0.22093,0.17004 0.18418,0.31127 -0.051,0.19612 -0.0773,0.40039 -0.0773,0.60596 0,0.14729 -0.11316,0.26364 -0.25417,0.26339 h -0.002 l 0.002,-0.6557 h -0.002 -0.20445 c 0.0155,-0.11322 0.0139,-0.23382 0.0424,-0.34258 0.0367,-0.14109 0.169,-0.21804 0.31127,-0.18234 z m 5.14976,0.64465 c 0.15753,0 0.25602,0.0945 0.25602,0.24127 v 0.0313 c 0,0.25414 -0.0327,0.50759 -0.0977,0.74963 -0.0319,0.11873 -0.13484,0.1897 -0.2468,0.1897 -0.0213,0 -0.0445,-0.004 -0.0662,-0.01 -0.14115,-0.0379 -0.21992,-0.17304 -0.18234,-0.31311 h 0.002 c 0.0535,-0.20063 0.0792,-0.40907 0.0792,-0.61886 0,-0.14574 0.12156,-0.27075 0.25602,-0.27075 z m -21.85886,0.0166 h 0.66306 c 0.14625,0 0.25602,0.10921 0.25602,0.25602 0,0.1468 -0.10977,0.25601 -0.25602,0.25601 h -0.66306 c -0.14623,0 -0.25602,-0.10921 -0.25602,-0.25601 0,-0.14681 0.10979,-0.25602 0.25602,-0.25602 z m 2.65039,0 h 0.66307 c 0.14625,0 0.25417,0.10921 0.25417,0.25602 0,0.1468 -0.10792,0.25601 -0.25417,0.25601 h -0.66307 c -0.14623,0 -0.25601,-0.10921 -0.25601,-0.25601 0,-0.14681 0.10978,-0.25602 0.25601,-0.25602 z m 2.64856,0 h 0.66306 c 0.14623,0 0.25602,0.10921 0.25602,0.25602 0,0.1468 -0.10979,0.25601 -0.25602,0.25601 h -0.66306 c -0.14623,0 -0.25601,-0.10921 -0.25602,-0.25601 0,-0.14681 0.10979,-0.25602 0.25602,-0.25602 z m 2.6504,0 h 0.66306 c 0.14623,0 0.25601,0.10921 0.25601,0.25602 0,0.1468 -0.10978,0.25601 -0.25601,0.25601 h -0.66306 c -0.14624,0 -0.25602,-0.10921 -0.25602,-0.25601 0,-0.14681 0.10978,-0.25602 0.25602,-0.25602 z m 2.64855,0 h 0.66307 c 0.14622,0 0.25601,0.10921 0.25601,0.25602 0,0.1468 -0.10979,0.25601 -0.25601,0.25601 h -0.66307 c -0.14624,0 -0.25417,-0.10921 -0.25417,-0.25601 0,-0.14681 0.10793,-0.25602 0.25417,-0.25602 z m 2.6504,0 h 0.66306 c 0.14623,0 0.25602,0.10921 0.25602,0.25602 0,0.1468 -0.10979,0.25601 -0.25602,0.25601 H 612.202 c -0.14624,0 -0.25602,-0.10921 -0.25602,-0.25601 0,-0.14681 0.10978,-0.25602 0.25602,-0.25602 z m 11.26096,0 h 0.66122 c 0.14623,0 0.25601,0.10921 0.25601,0.25602 0,0.1468 -0.10978,0.25601 -0.25601,0.25601 h -0.66122 c -0.14626,0 -0.25602,-0.10921 -0.25602,-0.25601 0,-0.14681 0.10976,-0.25602 0.25602,-0.25602 z m 2.64855,0 h 0.66306 c 0.14624,0 0.25602,0.10921 0.25602,0.25602 0,0.1468 -0.10978,0.25601 -0.25602,0.25601 h -0.66306 c -0.14624,0 -0.25602,-0.10921 -0.25602,-0.25601 0,-0.14681 0.10978,-0.25602 0.25602,-0.25602 z m 2.6504,0 h 0.66306 c 0.14624,0 0.25601,0.10921 0.25601,0.25602 0,0.1468 -0.10977,0.25601 -0.25601,0.25601 h -0.66306 c -0.14624,0 -0.25602,-0.10921 -0.25602,-0.25601 0,-0.14681 0.10978,-0.25602 0.25602,-0.25602 z m 2.64855,0 h 0.66306 c 0.14624,0 0.25602,0.10921 0.25602,0.25602 0,0.1468 -0.10978,0.25601 -0.25602,0.25601 h -0.66306 c -0.14623,0 -0.25602,-0.10921 -0.25602,-0.25601 0,-0.14681 0.10979,-0.25602 0.25602,-0.25602 z m 2.65039,0 h 0.66307 c 0.14625,0 0.25601,0.10921 0.25601,0.25602 0,0.1468 -0.10976,0.25601 -0.25601,0.25601 h -0.66307 c -0.14622,0 -0.25601,-0.10921 -0.25601,-0.25601 0,-0.14681 0.10979,-0.25602 0.25601,-0.25602 z m 2.65041,0 h 0.66121 c 0.14625,0 0.25602,0.10921 0.25602,0.25602 0,0.1468 -0.10977,0.25601 -0.25602,0.25601 h -0.66121 c -0.14624,0 -0.25602,-0.10921 -0.25602,-0.25601 0,-0.14681 0.10978,-0.25602 0.25602,-0.25602 z m -20.41671,1.07012 c -0.27419,9.3e-4 -0.54705,0.10486 -0.75331,0.31127 v 0.002 c -0.41268,0.41479 -0.41088,1.09776 0.004,1.51029 0.23054,0.22905 0.48977,0.42795 0.77173,0.5894 0.16647,0.0954 0.35118,0.13998 0.53045,0.13998 0.37117,0 0.73231,-0.19488 0.92828,-0.53598 v -0.002 c 0.28954,-0.50801 0.11161,-1.16551 -0.39599,-1.45689 l 0.0773,0.0571 -0.0368,-0.0331 -0.0406,-0.0259 c -0.11966,-0.0685 -0.23081,-0.15214 -0.32783,-0.24866 -0.20774,-0.20667 -0.48283,-0.30856 -0.757,-0.30757 z m 3.47001,0.44756 c -0.26524,-0.0699 -0.55594,-0.0399 -0.80856,0.10682 h -0.002 c -0.11665,0.0684 -0.2424,0.12241 -0.37572,0.1584 -0.56464,0.15255 -0.90656,0.7442 -0.75516,1.30955 0.12805,0.47192 0.55869,0.79014 1.03143,0.79014 0.0929,0 0.18541,-0.012 0.27443,-0.0349 h 0.002 l 0.004,-0.002 c 0.31375,-0.0848 0.61579,-0.2098 0.89698,-0.37389 0.50591,-0.29486 0.67993,-0.95441 0.38493,-1.46058 -0.14731,-0.25331 -0.38677,-0.4237 -0.652,-0.49361 z m -3.28583,0.43652 c 0.14804,0.14724 0.31441,0.2739 0.49545,0.37757 0.12644,0.0726 0.16647,0.22378 0.0958,0.34994 -0.0492,0.0855 -0.13432,0.12893 -0.22286,0.12893 -0.0446,0 -0.0837,-0.01 -0.12525,-0.0331 -0.22014,-0.12604 -0.42396,-0.28148 -0.60412,-0.46046 -0.1038,-0.10295 -0.10539,-0.25692 -0.002,-0.361 0.10416,-0.10421 0.25899,-0.10516 0.36284,-0.002 z m 0.49545,0.37757 -0.0773,-0.0572 0.0349,0.0332 z m 2.38886,-0.004 c 0.12665,-0.0736 0.27814,-0.0346 0.35179,0.0921 0.0733,0.12576 0.0321,0.27651 -0.0939,0.34994 -0.21824,0.12738 -0.45275,0.22473 -0.69805,0.29102 -0.0258,0.007 -0.0482,0.01 -0.0682,0.01 -0.1115,0 -0.21454,-0.0708 -0.24681,-0.1897 -0.0368,-0.14139 0.0415,-0.27506 0.18233,-0.31311 0.19975,-0.0539 0.39199,-0.13364 0.57282,-0.23944 z"
               id="path856"
               inkscape:connector-curvature="0" />
          </g>
        </g>
      </g>
    </g>
  </g>
</svg>
