<?xml version="1.0" encoding="UTF-8" standalone="no"?>
<svg
   xmlns:dc="http://purl.org/dc/elements/1.1/"
   xmlns:cc="http://creativecommons.org/ns#"
   xmlns:rdf="http://www.w3.org/1999/02/22-rdf-syntax-ns#"
   xmlns:svg="http://www.w3.org/2000/svg"
   xmlns="http://www.w3.org/2000/svg"
   xmlns:sodipodi="http://sodipodi.sourceforge.net/DTD/sodipodi-0.dtd"
   xmlns:inkscape="http://www.inkscape.org/namespaces/inkscape"
   inkscape:version="1.0beta2 (2b71d25d45, 2019-12-03)"
   sodipodi:docname="folder-web.svg"
   id="SVGRoot"
   version="1.1"
   viewBox="0 0 64 64"
   height="64px"
   width="64px">
  <sodipodi:namedview
     inkscape:document-rotation="0"
     inkscape:snap-global="false"
     inkscape:snap-to-guides="false"
     inkscape:snap-grids="false"
     inkscape:snap-page="true"
     inkscape:snap-object-midpoints="true"
     inkscape:grid-bbox="true"
     inkscape:lockguides="true"
     inkscape:window-maximized="1"
     inkscape:window-y="21"
     inkscape:window-x="0"
     inkscape:window-height="1027"
     inkscape:window-width="1920"
     units="px"
     inkscape:pagecheckerboard="false"
     inkscape:showpageshadow="false"
     showgrid="false"
     inkscape:current-layer="world"
     inkscape:document-units="px"
     inkscape:cy="32"
     inkscape:cx="32"
     inkscape:zoom="15.840402"
     inkscape:pageshadow="2"
     inkscape:pageopacity="0.0"
     borderopacity="1.0"
     bordercolor="#666666"
     pagecolor="#FFFFFF"
     id="base" />
  <defs
     id="defs2" />
  <metadata
     id="metadata5">
    <rdf:RDF>
      <cc:Work
         rdf:about="">
        <dc:format>image/svg+xml</dc:format>
        <dc:type
           rdf:resource="http://purl.org/dc/dcmitype/StillImage" />
        <dc:title />
        <cc:license
           rdf:resource="http://creativecommons.org/licenses/by-sa/4.0/" />
        <dc:date>2017</dc:date>
        <dc:creator>
          <cc:Agent>
            <dc:title>Cristian Pozzessere &quot;ilnanny&quot;</dc:title>
          </cc:Agent>
        </dc:creator>
        <dc:subject>
          <rdf:Bag>
            <rdf:li>Global language</rdf:li>
          </rdf:Bag>
        </dc:subject>
        <dc:description>Playing with Inkscape on Gnu/Linux O. S.</dc:description>
        <dc:contributor>
          <cc:Agent>
            <dc:title>In the night, alone like a dog.</dc:title>
          </cc:Agent>
        </dc:contributor>
      </cc:Work>
      <cc:License
         rdf:about="http://creativecommons.org/licenses/by-sa/4.0/">
        <cc:permits
           rdf:resource="http://creativecommons.org/ns#Reproduction" />
        <cc:permits
           rdf:resource="http://creativecommons.org/ns#Distribution" />
        <cc:requires
           rdf:resource="http://creativecommons.org/ns#Notice" />
        <cc:requires
           rdf:resource="http://creativecommons.org/ns#Attribution" />
        <cc:permits
           rdf:resource="http://creativecommons.org/ns#DerivativeWorks" />
        <cc:requires
           rdf:resource="http://creativecommons.org/ns#ShareAlike" />
      </cc:License>
    </rdf:RDF>
  </metadata>
  <g
     inkscape:label="Layer 1"
     inkscape:groupmode="layer"
     id="layer1">
    <g
       transform="matrix(0.984375,0,0,0.96296292,-3.1992191,-18.562364)"
       id="g938">
      <g
         transform="matrix(0.99514741,0,0,1,0.64471561,-1.0384589)"
         id="g1521">
        <g
           id="g852">
          <rect
             style="opacity:1;fill:#B6404B;fill-opacity:1;fill-rule:nonzero;stroke:#5f5e5c;stroke-width:1.36143422;stroke-linecap:square;stroke-linejoin:bevel;stroke-miterlimit:4;stroke-dasharray:none;stroke-opacity:1;paint-order:markers stroke fill"
             id="rect817"
             width="63.980831"
             height="55.789837"
             x="3.259584"
             y="26.558754" />
          <rect
             y="-67.240417"
             x="43.239227"
             height="1.9279207"
             width="39.113285"
             id="rect1500"
             style="opacity:1;fill:#fefbfb;fill-opacity:0.75478929;fill-rule:nonzero;stroke:none;stroke-width:0.06918984;stroke-linecap:square;stroke-linejoin:bevel;stroke-miterlimit:4;stroke-dasharray:none;stroke-opacity:0.79607843;paint-order:markers stroke fill"
             transform="rotate(90)" />
          <rect
             transform="rotate(90)"
             style="opacity:1;fill:#fefbfb;fill-opacity:0.75478929;fill-rule:nonzero;stroke:none;stroke-width:0.08058518;stroke-linecap:square;stroke-linejoin:bevel;stroke-miterlimit:4;stroke-dasharray:none;stroke-opacity:0.79607843;paint-order:markers stroke fill"
             id="rect1498"
             width="39.113285"
             height="2.6152594"
             x="43.209305"
             y="-5.8748436" />
          <g
             id="g851"
             transform="matrix(0.26717791,0,0,0.37695836,-8.2290657,12.422815)"
             style="opacity:0.69300022">
            <path
               id="rect831"
               d="M 47.995635,54.25 H 277.46902 V 85.090837 H 47.995635 Z"
               style="opacity:1;fill:#f8fafa;fill-opacity:1;fill-rule:nonzero;stroke:none;stroke-width:0.67029333;stroke-linecap:square;stroke-linejoin:bevel;stroke-miterlimit:4;stroke-dasharray:none;stroke-opacity:0.79607843;paint-order:markers stroke fill"
               inkscape:connector-curvature="0" />
            <path
               sodipodi:nodetypes="cccc"
               inkscape:connector-curvature="0"
               id="path1496"
               d="M 277.46902,75.592181 244.49991,54.25 v 21.342181 z"
               style="opacity:1;fill:#93a2a5;fill-opacity:1;fill-rule:nonzero;stroke:none;stroke-width:0.21135312;stroke-linecap:square;stroke-linejoin:bevel;stroke-miterlimit:4;stroke-dasharray:none;stroke-opacity:0.79607843;paint-order:markers stroke fill" />
          </g>
          <g
             transform="matrix(0.92930117,0,0,0.97367239,2.5265655,4.0162188)"
             style="fill:#B6404B;fill-opacity:1;stroke:#B6404B;stroke-width:1.16166735;stroke-miterlimit:4;stroke-dasharray:none;stroke-opacity:1"
             id="g1484">
            <path
               inkscape:connector-curvature="0"
               d="m 5.056055,36.025647 h 24.762237 l 3.746032,4.177904 H 5.056055 Z M 3.25,40.203551 h 64 v 40.250917 h -64 z"
               style="opacity:1;fill:#B6404B;fill-opacity:1;fill-rule:nonzero;stroke:#B6404B;stroke-width:1.16166735;stroke-linecap:square;stroke-linejoin:bevel;stroke-miterlimit:4;stroke-dasharray:none;stroke-opacity:1;paint-order:markers stroke fill"
               id="rect821"
               sodipodi:nodetypes="cccccccccc" />
          </g>
          <rect
             y="28.096727"
             x="5.7145939"
             height="3.0460732"
             width="5.3264122"
             id="rect825"
             style="opacity:1;fill:#ffcc00;fill-opacity:0.99315072;fill-rule:nonzero;stroke:none;stroke-width:0.47680542;stroke-linecap:square;stroke-linejoin:bevel;stroke-miterlimit:4;stroke-dasharray:none;stroke-opacity:1;paint-order:markers stroke fill" />
          <rect
             style="opacity:1;fill:#ff0084;fill-opacity:0.99315072;fill-rule:nonzero;stroke:none;stroke-width:0.47680542;stroke-linecap:square;stroke-linejoin:bevel;stroke-miterlimit:4;stroke-dasharray:none;stroke-opacity:1;paint-order:markers stroke fill"
             id="rect827"
             width="5.3264122"
             height="3.0460732"
             x="13.652818"
             y="28.096727" />
          <rect
             y="28.096727"
             x="21.59104"
             height="3.0460732"
             width="5.3264122"
             id="rect829"
             style="opacity:1;fill:#aad450;fill-opacity:0.99315072;fill-rule:nonzero;stroke:none;stroke-width:0.47680542;stroke-linecap:square;stroke-linejoin:bevel;stroke-miterlimit:4;stroke-dasharray:none;stroke-opacity:1;paint-order:markers stroke fill" />
          <rect
             y="78.956886"
             x="3.1380224"
             height="1.9870082"
             width="64.143631"
             id="rect855"
             style="opacity:0.704;fill:#FFFFFF;fill-opacity:0.99657533;fill-rule:nonzero;stroke:none;stroke-width:0.0899523;stroke-linecap:square;stroke-linejoin:bevel;stroke-miterlimit:4;stroke-dasharray:none;stroke-opacity:0.79607843;paint-order:markers stroke fill" />
          <rect
             style="opacity:0.597;fill:#FFFFFF;fill-opacity:0.96907217;fill-rule:nonzero;stroke:none;stroke-width:0.09005686;stroke-linecap:square;stroke-linejoin:bevel;stroke-miterlimit:4;stroke-dasharray:none;stroke-opacity:0.79607843;paint-order:markers stroke fill"
             id="rect853"
             width="64.292816"
             height="1.9870082"
             x="3.1380224"
             y="80.455818" />
          <rect
             y="43.691528"
             x="8.0103283"
             height="1.0598483"
             width="54.548206"
             id="rect1504"
             style="opacity:0.704;fill:#fcfdff;fill-opacity:1;fill-rule:nonzero;stroke:none;stroke-width:0.06058259;stroke-linecap:square;stroke-linejoin:bevel;stroke-miterlimit:4;stroke-dasharray:none;stroke-opacity:0.79607843;paint-order:markers stroke fill" />
          <rect
             style="opacity:0.597;fill:#000207;fill-opacity:1;fill-rule:nonzero;stroke:none;stroke-width:0.06058259;stroke-linecap:square;stroke-linejoin:bevel;stroke-miterlimit:4;stroke-dasharray:none;stroke-opacity:0.79607843;paint-order:markers stroke fill"
             id="rect1523"
             width="54.548206"
             height="1.0598483"
             x="8.0103283"
             y="45.030849" />
          <g
             style="fill:none;stroke:#FFFFFF;stroke-width:1.27148;stroke-miterlimit:4;stroke-dasharray:none;stroke-opacity:0.854406"
             id="world"
             transform="matrix(0.687054,0,0,0.69892293,-221.77898,-529.35856)">
            <path
               id="path852"
               d="M 374.15234 826.29102 C 374.03267 826.29102 373.92459 826.29595 373.82617 826.29883 L 373.42773 826.30859 L 373.17969 826.31445 L 373.14844 826.3457 C 367.58704 826.61161 362.58519 829.03826 358.97656 832.81836 L 358.94141 832.83203 L 358.86719 832.91016 C 358.86407 832.91323 358.86463 832.91264 358.86133 832.91602 L 358.85938 832.91992 L 358.85742 832.91992 C 358.85659 832.92082 358.85634 832.92285 358.85547 832.92383 L 358.84961 832.92969 L 358.84766 832.93359 L 358.8457 832.93359 C 358.84508 832.93426 358.84438 832.93488 358.84375 832.93555 C 358.84375 832.93554 358.83832 832.94267 358.83789 832.94336 L 358.83594 832.94531 C 358.83051 832.9511 358.82769 832.95905 358.82227 832.96484 L 358.81445 832.97266 C 355.30549 836.72646 353.14844 841.76382 353.14844 847.29492 C 353.14844 852.63019 355.15309 857.51068 358.44336 861.21875 L 358.39062 861.15039 C 358.29357 861.00481 358.35421 861.10403 358.41797 861.19531 C 358.51894 861.33016 358.57444 861.37383 358.48438 861.26562 L 358.49219 861.27539 L 358.49805 861.2832 C 362.13608 865.35016 367.34307 867.96698 373.14844 868.24414 L 373.18164 868.27734 L 373.42578 868.2832 L 373.82617 868.29492 C 373.92935 868.29792 374.03677 868.30078 374.15234 868.30078 C 374.2713 868.30078 374.38056 868.29585 374.47852 868.29297 L 374.87891 868.2832 L 375.125 868.27734 L 375.1582 868.24414 C 380.9692 867.96569 386.1806 865.34277 389.81836 861.26758 L 389.83594 861.24805 L 389.8457 861.23633 C 389.84769 861.23399 389.84767 861.23282 389.84961 861.23047 C 389.77235 861.331 389.70345 861.36508 389.71484 861.35742 C 389.72344 861.35165 389.7953 861.28494 389.85742 861.2168 C 389.85914 861.21492 389.8596 861.21483 389.86133 861.21289 C 389.87513 861.1974 389.87851 861.20085 389.89258 861.18164 C 389.90524 861.1673 389.91316 861.14914 389.92578 861.13477 L 389.91602 861.12891 C 389.92805 861.10667 389.95303 861.07818 389.95898 861.06445 L 388.86133 860.46875 C 388.87409 860.44735 388.8807 860.4352 388.89844 860.41211 C 388.91061 860.39956 388.91534 860.39384 388.92578 860.38477 L 389.95898 861.06445 C 389.96128 861.05917 389.97323 861.04259 389.97461 861.03906 C 389.97797 861.03046 389.96129 861.06246 389.96094 861.06445 L 389.96094 861.06641 C 389.95934 861.07327 389.96159 861.07746 389.92578 861.13477 C 393.17432 857.43658 395.1582 852.59406 395.1582 847.29688 C 395.1582 841.82028 393.03113 836.83623 389.58398 833.09375 L 389.50195 832.98242 C 389.50003 832.97986 389.49995 832.98098 389.49805 832.97852 L 389.48438 832.95703 L 389.45703 832.92969 L 389.44727 832.91992 C 389.44504 832.91756 389.44168 832.91643 389.43945 832.91406 C 389.44699 832.92259 389.45169 832.92634 389.46094 832.9375 C 389.44489 832.92113 389.42772 832.90304 389.41992 832.89648 C 385.8053 829.0672 380.76377 826.61367 375.16016 826.3457 L 375.12891 826.31445 L 374.88086 826.30859 L 374.48633 826.29883 C 374.37965 826.29467 374.26791 826.29102 374.15234 826.29102 z M 374.15234 827.5625 C 374.17352 827.5625 374.1972 827.56418 374.21875 827.56445 L 374.21875 838.08984 L 374.87305 838.07227 C 376.95504 838.01322 379.00007 837.70152 380.97656 837.14648 L 381.71094 836.94141 L 381.37695 836.25586 C 379.9159 833.2588 377.85307 830.55521 375.27344 828.30469 L 374.42969 827.56836 C 374.43238 827.56846 374.4348 827.56825 374.4375 827.56836 L 374.44141 827.56836 L 374.58594 827.57227 L 374.83789 827.58008 C 380.2223 827.76444 385.05685 830.11413 388.51367 833.78516 C 388.5159 833.78752 388.51926 833.78865 388.52148 833.79102 L 388.5293 833.80078 C 391.84863 837.33456 393.88672 842.07709 393.88672 847.29688 C 393.88672 852.31374 392.00536 856.89093 388.91211 860.37695 L 388.91602 860.37891 L 388.88281 860.41211 L 388.86914 860.43164 C 388.85388 860.4482 388.85407 860.43954 388.83789 860.46094 L 388.87109 860.42188 C 385.39566 864.31522 380.40777 866.82043 374.83594 867.01172 L 374.58789 867.01953 L 374.44336 867.02344 C 374.43835 867.02358 374.43465 867.02329 374.42969 867.02344 L 375.27344 866.28711 C 378.03466 863.87806 380.20063 860.94904 381.67383 857.69922 L 381.97656 857.03516 L 381.27539 856.82812 C 379.20863 856.21971 377.06169 855.87957 374.87305 855.81836 L 374.21875 855.80078 L 374.21875 867.02734 C 374.19794 867.02767 374.17216 867.0293 374.15234 867.0293 C 374.13145 867.0293 374.10742 867.0276 374.08594 867.02734 L 374.08594 855.80078 L 373.43359 855.81836 C 371.24523 855.88028 369.09826 856.21891 367.03125 856.82812 L 366.33008 857.03516 L 366.63086 857.70117 C 368.10405 860.95027 370.27198 863.87806 373.0332 866.28711 L 373.87695 867.02344 C 373.8721 867.0233 373.86817 867.02358 373.86328 867.02344 L 373.86133 867.02344 L 373.7168 867.01953 L 373.7168 867.02148 L 373.4707 867.01367 C 367.90507 866.82307 362.92278 864.32082 359.44727 860.43555 L 359.46094 860.45312 C 359.33503 860.30185 359.34404 860.30581 359.44531 860.44727 L 359.4375 860.43555 C 359.44979 860.45466 359.52403 860.55753 359.44922 860.44531 L 359.42383 860.4082 L 359.39453 860.375 C 356.30129 856.88897 354.41992 852.31179 354.41992 847.29492 C 354.41992 842.07514 356.45739 837.33381 359.77734 833.80078 L 359.76953 833.80664 C 359.73445 833.8425 359.71051 833.8591 359.70508 833.86328 C 359.70174 833.86585 359.73472 833.83153 359.74414 833.82422 L 359.56445 833.94922 C 359.56461 833.94915 359.71384 833.84239 359.75586 833.8125 C 359.76634 833.80384 359.77356 833.79465 359.78906 833.7793 C 359.7834 833.7866 359.78018 833.79343 359.77539 833.79883 C 359.77595 833.79843 359.7832 833.79297 359.7832 833.79297 C 359.78321 833.79296 359.79411 833.77584 359.79688 833.77148 C 359.8141 833.7536 359.81331 833.76129 359.83203 833.73633 L 359.78711 833.79102 C 363.24437 830.11592 368.08281 827.76456 373.4707 827.58008 L 373.71875 827.57227 L 373.86328 827.56836 C 373.86832 827.56821 373.87196 827.56851 373.87695 827.56836 L 373.0332 828.30469 C 370.45357 830.55521 368.39074 833.2588 366.92969 836.25586 L 366.5957 836.94141 L 367.32812 837.14648 C 369.30462 837.70152 371.34965 838.01321 373.43164 838.07227 L 374.08594 838.08984 L 374.08594 837.43555 L 374.08594 827.56445 C 374.1069 827.56412 374.13239 827.5625 374.15234 827.5625 z M 373.53125 827.61523 L 371.59766 827.86719 C 367.34614 828.4233 363.51862 830.34633 360.57422 833.17969 L 359.99219 833.74023 L 360.67578 834.17383 C 362.33502 835.22716 364.09586 836.07543 365.93164 836.70898 L 366.46875 836.89453 L 366.71289 836.38281 C 368.0284 833.62649 369.85487 831.11423 372.11914 828.95898 L 373.53125 827.61523 z M 374.77734 827.61523 L 376.1875 828.95703 C 378.45112 831.1123 380.27824 833.62649 381.59375 836.38281 L 381.83789 836.89453 L 382.375 836.70898 C 384.21078 836.07543 385.971 835.2271 387.63086 834.17383 L 388.31445 833.74023 L 387.73242 833.17969 C 384.78741 830.34642 380.96052 828.42331 376.70898 827.86719 L 374.77734 827.61523 z M 369.75586 829.73047 C 368.23824 831.43757 366.91205 833.27666 365.89062 835.28906 C 364.63108 834.82417 363.43034 834.21219 362.25781 833.53516 C 364.38579 831.69396 366.94588 830.43927 369.75586 829.73047 z M 378.54883 829.73047 C 381.35977 830.43923 383.91983 831.69508 386.04883 833.53711 C 384.87634 834.2138 383.6731 834.82437 382.41406 835.28906 C 381.3926 833.27676 380.06613 831.43747 378.54883 829.73047 z M 375.49023 830.38281 C 377.20152 832.07899 378.65104 833.97143 379.76562 836.05469 C 378.36783 836.39198 376.94397 836.62015 375.49023 836.70117 L 375.49023 830.38281 z M 372.81445 830.38477 L 372.81445 836.70117 C 371.36186 836.6201 369.93775 836.39162 368.54102 836.05469 C 369.65517 833.97223 371.10404 832.08046 372.81445 830.38477 z M 358.83984 832.94727 C 358.82837 832.96219 358.82457 832.96888 358.8125 832.98633 C 358.82026 832.9741 358.8284 832.96081 358.83203 832.95508 C 358.83627 832.95019 358.83573 832.95175 358.83984 832.94727 z M 359.88672 833.62891 L 359.88281 833.64844 C 359.88311 833.64783 359.84463 833.7008 359.81445 833.74414 C 359.84246 833.7 359.87064 833.65427 359.88672 833.62891 z M 388.48242 833.73828 C 388.49263 833.75099 388.4981 833.75905 388.51172 833.77539 C 388.50348 833.76641 388.5034 833.76732 388.49414 833.75586 C 388.48927 833.74984 388.48941 833.75281 388.48438 833.74609 L 388.48242 833.74219 L 388.48242 833.73828 z M 359.9082 833.83789 L 359.54492 834.24414 C 356.59385 837.54286 354.74376 841.84824 354.57031 846.57031 L 354.54688 847.23047 L 364.25586 847.23047 L 364.27148 846.61133 C 364.35514 843.48423 364.99762 840.45103 366.15625 837.63867 L 366.41211 837.01758 L 365.7793 836.79492 C 363.88598 836.13161 362.07001 835.24537 360.36523 834.13672 L 359.9082 833.83789 z M 388.39648 833.83789 L 387.93945 834.13672 C 386.23467 835.24537 384.42066 836.13161 382.52734 836.79492 L 381.89453 837.01758 L 382.15039 837.63867 C 383.30902 840.45103 383.94953 843.48423 384.0332 846.61133 L 384.05078 847.23047 L 393.75977 847.23047 L 393.73633 846.57031 C 393.56288 841.84824 391.71278 837.54286 388.76172 834.24414 L 388.39648 833.83789 z M 360.21094 835.4668 C 361.67508 836.37201 363.21139 837.12475 364.80469 837.72461 C 363.79919 840.33376 363.21611 843.10395 363.07422 845.95898 L 355.92383 845.95898 C 356.21598 841.96967 357.76598 838.34295 360.21094 835.4668 z M 388.09375 835.4668 C 390.53881 838.34302 392.09069 841.96953 392.38281 845.95898 L 385.23242 845.95898 C 385.09049 843.10332 384.50786 840.33232 383.50195 837.72266 C 385.09439 837.12295 386.63035 836.37155 388.09375 835.4668 z M 366.54492 837.0625 L 366.32812 837.58594 C 365.15239 840.40455 364.49483 843.44491 364.40625 846.57617 L 364.38672 847.23047 L 374.08594 847.23047 L 374.08594 838.22266 L 373.4668 838.20508 C 371.2869 838.14679 369.1505 837.81722 367.0918 837.2207 L 366.54492 837.0625 z M 381.76172 837.0625 L 381.21484 837.2207 C 379.15564 837.81785 377.01791 838.14679 374.83789 838.20508 L 374.21875 838.22266 L 374.21875 838.8418 L 374.21875 847.23047 L 383.91992 847.23047 L 383.90039 846.57617 C 383.81181 843.44491 383.15621 840.40455 381.98047 837.58594 L 381.76172 837.0625 z M 367.35547 838.53711 C 369.13162 839.00597 370.95737 839.28803 372.81445 839.38086 L 372.81445 845.95898 L 365.75586 845.95898 C 365.89885 843.38144 366.43249 840.88385 367.35547 838.53711 z M 380.95117 838.53711 C 381.87416 840.88386 382.40974 843.38143 382.55273 845.95898 L 375.49023 845.95898 L 375.49023 839.38086 C 377.34792 839.28823 379.1738 839.00655 380.95117 838.53711 z M 354.54688 847.36328 L 354.57031 848.02148 C 354.73577 852.52809 356.42887 856.65575 359.14844 859.89062 L 359.51758 860.32812 L 359.99219 860.00781 C 361.73865 858.82752 363.60027 857.88275 365.54883 857.17773 L 366.1582 856.95703 L 365.92578 856.35352 C 364.91592 853.70964 364.34897 850.88822 364.27148 847.98242 L 364.25586 847.36328 L 354.54688 847.36328 z M 364.38672 847.36328 L 364.40625 848.01562 C 364.48765 850.91036 365.05812 853.72493 366.07227 856.35938 L 366.2832 856.91016 L 366.84766 856.74023 C 368.98012 856.09858 371.19895 855.74588 373.4668 855.68555 L 374.08594 855.66797 L 374.08594 847.36328 L 364.38672 847.36328 z M 374.21875 847.36328 L 374.21875 855.66797 L 374.83789 855.68555 C 377.10575 855.74589 379.32543 856.0999 381.45703 856.74219 L 382.02148 856.91211 L 382.23438 856.36133 C 383.24924 853.72614 383.81897 850.91036 383.90039 848.01562 L 383.91797 847.36328 L 374.21875 847.36328 z M 384.05078 847.36328 L 384.0332 847.98242 C 383.95574 850.88831 383.38939 853.7098 382.37891 856.35352 L 382.14844 856.95703 L 382.75781 857.17773 C 384.70637 857.88275 386.568 858.82752 388.31445 860.00781 L 388.78906 860.32812 L 389.15625 859.89062 C 391.87659 856.65569 393.57087 852.52803 393.73633 848.02148 L 393.75977 847.36328 L 384.05078 847.36328 z M 355.91992 848.63477 L 363.07031 848.63477 C 363.20201 851.26809 363.71218 853.82731 364.58008 856.25586 C 362.94338 856.8904 361.37103 857.69386 359.87305 858.65234 C 357.64183 855.85129 356.19705 852.41675 355.91992 848.63477 z M 365.75195 848.63477 L 372.81445 848.63477 L 372.81445 854.51367 C 370.87304 854.61043 368.96754 854.91465 367.11719 855.42188 C 366.33759 853.26133 365.88214 850.9809 365.75195 848.63477 z M 375.49023 848.63477 L 382.55469 848.63477 C 382.42449 850.98091 381.96761 853.26082 381.1875 855.42188 C 379.3369 854.91397 377.43231 854.60837 375.49023 854.51172 L 375.49023 848.63477 z M 385.23633 848.63477 L 392.38477 848.63477 C 392.10769 852.41678 390.66527 855.85136 388.43359 858.65234 C 386.93512 857.69354 385.36189 856.8905 383.72461 856.25586 C 384.59303 853.82717 385.10474 851.26804 385.23633 848.63477 z M 366.21094 857.08008 L 365.65625 857.2793 C 363.75923 857.96041 361.94258 858.87154 360.23828 860.00391 L 359.59961 860.42969 L 360.13477 860.97852 C 363.13359 864.04992 367.13206 866.14018 371.59766 866.72461 L 373.5293 866.97852 L 372.11914 865.63477 C 369.6967 863.32816 367.78368 860.60616 366.45117 857.61914 L 366.21094 857.08008 z M 382.0957 857.08008 L 381.85547 857.61914 C 380.52296 860.60684 378.60988 863.3289 376.1875 865.63477 L 374.77539 866.97852 L 376.70898 866.72461 C 381.17458 866.14018 385.1711 864.04992 388.16992 860.97852 L 388.70703 860.42969 L 388.06836 860.00391 C 386.36349 858.87165 384.54746 857.96043 382.65039 857.2793 L 382.0957 857.08008 z M 372.81445 857.19336 L 372.81445 864.19141 C 370.94024 862.33089 369.38039 860.23526 368.22656 857.91797 C 369.7219 857.53505 371.25114 857.28045 372.81445 857.19336 z M 375.49023 857.19336 C 377.05469 857.28008 378.58536 857.53291 380.08203 857.91602 C 378.92766 860.23549 377.36599 862.33174 375.49023 864.19336 L 375.49023 857.19336 z M 365.61719 858.71289 C 366.72162 861.03045 368.21135 863.14218 369.95898 865.07031 C 366.83224 864.33168 364.07213 862.75231 361.78906 860.63672 C 363.01897 859.88806 364.28815 859.22345 365.61719 858.71289 z M 382.68945 858.71289 C 384.01831 859.22342 385.28548 859.89 386.51562 860.63867 C 384.2331 862.75314 381.47318 864.33182 378.34766 865.07031 C 380.09552 863.14226 381.58497 861.03122 382.68945 858.71289 z M 388.91797 860.38086 L 388.92188 860.38281 C 388.91774 860.38614 388.91464 860.38874 388.91016 860.39258 C 388.91418 860.38785 388.91373 860.3855 388.91797 860.38086 z "
               style="color:#FFFFFF;font-style:normal;font-variant:normal;font-weight:normal;font-stretch:normal;font-size:medium;line-height:normal;font-family:sans-serif;font-variant-ligatures:normal;font-variant-position:normal;font-variant-caps:normal;font-variant-numeric:normal;font-variant-alternates:normal;font-variant-east-asian:normal;font-feature-settings:normal;font-variation-settings:normal;text-indent:0;text-align:start;text-decoration:none;text-decoration-line:none;text-decoration-style:solid;text-decoration-color:#FFFFFF;letter-spacing:normal;word-spacing:normal;text-transform:none;writing-mode:lr-tb;direction:ltr;text-orientation:mixed;dominant-baseline:auto;baseline-shift:baseline;text-anchor:start;white-space:normal;shape-padding:0;shape-margin:0;inline-size:0;clip-rule:nonzero;display:inline;overflow:visible;visibility:visible;isolation:auto;mix-blend-mode:normal;color-interpolation:sRGB;color-interpolation-filters:linearRGB;solid-color:#FFFFFF;solid-opacity:1;vector-effect:none;fill:#FFFFFF;fill-opacity:0.854406;fill-rule:nonzero;stroke:none;stroke-width:1.27148;stroke-linecap:butt;stroke-linejoin:miter;stroke-miterlimit:4;stroke-dasharray:none;stroke-dashoffset:0;stroke-opacity:1;anonymous:0;color-rendering:auto;image-rendering:auto;shape-rendering:auto;text-rendering:auto;enable-background:accumulate;stop-color:#FFFFFF;stop-opacity:1;opacity:1" />
          </g>
        </g>
      </g>
    </g>
  </g>
</svg>
